<?xml version="1.0" encoding="UTF-8"?>
<svg id="Layer_1" data-name="Layer 1" xmlns="http://www.w3.org/2000/svg" viewBox="0 0 1078.55 585.57">
  <defs>
    <style>
      .cls-1 {
        fill: #e7a7ba;
      }

      .cls-2 {
        fill: #fefce9;
      }

      .cls-3 {
        fill: #c5d67e;
      }

      .cls-4 {
        fill: none;
        stroke: #f2f4ef;
        stroke-miterlimit: 10;
        stroke-width: 2px;
      }

      .cls-5 {
        fill: #f9e7e8;
      }

      .cls-6 {
        fill: #e69dae;
      }

      .cls-7 {
        fill: #f2f4ef;
      }

      .cls-8 {
        fill: #f0cad2;
      }

      .cls-9 {
        fill: #5490c1;
      }

      .cls-10 {
        fill: #84b966;
      }
    </style>
  </defs>
  <path id="Big_cave" data-name="Big cave" class="cls-2" d="M29.94,536.78s26.53-26.74,44.03-41.07c17.5-14.33,44.94-47.98,54.3-59.59,9.36-11.6,35.59-64.61,45.84-89.73,10.25-25.12,29.71-96.01,36.61-125.81s37.7-79.71,52.82-95.46c15.12-15.75,49.92-55.96,69.78-68.31,19.86-12.35,110.91-52.68,133.79-53.87,22.88-1.18,96.35,2.15,115.85,7.38,19.49,5.23,110.62,30.82,125.55,43.86,14.93,13.05,56.39,44.25,68.87,60.5,12.47,16.25,30.89,59.69,39.97,78.87,9.07,19.18,9.55,44.93,19.69,64.69,10.14,19.77,23.22,60.48,28.79,74.62,5.56,14.14,26.01,64.79,37.24,77.69,11.23,12.89,41.58,45.35,55.8,56.57,14.22,11.22,56.72,25.81,74.4,33.14,17.68,7.33,45.29,25.23,45.29,25.23,0,0-12.41,15.28-36.07,19.63-23.66,4.36-131.68,17.86-162.32,22.21-30.64,4.35-308.38,17.23-323.08,15.33-14.7-1.9-242.29-8.43-261.94-8.81-19.65-.37-215.18-3.62-236.67-3.93s-58.47-3.93-58.47-3.93l29.94-29.21Z"/>
  <path class="cls-9" d="M91.25,543.7s51.74-35.93,67.26-55.3c15.53-19.37,48.73-65.22,55.07-79.75,6.34-14.53,41.35-119.89,45.39-139.37,4.03-19.48,27.68-95.74,37.55-110.26s50.32-59.22,67.14-70.78c16.82-11.56,84.71-44.68,104.72-45.43,20.01-.75,117.98-1.9,132.65,4.86s81.25,36.1,94.08,45.68c12.84,9.58,64.61,56.81,69.42,71.21,4.81,14.4,22.21,75.33,25.34,90.62,3.13,15.29,28.66,84.69,32.32,93.13s18.78,47.55,23.08,54.89c4.3,7.34,25.92,32.89,31.48,39.02,5.56,6.13,26.4,29.26,39.26,38.42,12.85,9.16,84.36,33.07,96.93,33.92,12.57.86,29.54,4.56,29.54,4.56l-134.28,24.57-177.72,18.3h-201.33l-180.89-8.84-138.05-1.8-107.87,2.52-28.36-.72,17.28-9.46Z"/>
  <path class="cls-8" d="M184.89,520.3c-4.85,13.35-5.41,20.69,5.27,20.89,10.68.2,29.82,8.73,35.66,3.95,5.84-4.79,8.97-17.78,3.29-21.16s-4.6-16.82-17.36-15.84-20.11-4.9-23.48,3.63l-3.38,8.53Z"/>
  <path class="cls-6" d="M207.66,493.98c-.09,5.3-.45,12.08,4.36,12.47s13.64,4.69,16.33,2.98,7.58-4,7.1-7.52,5.98-8.05.03-11.73c-5.95-3.68-4.43-8.99-12.67-8.55-8.23.44-13.43.66-15.2,4.73s.04,7.63.04,7.63Z"/>
  <path class="cls-6" d="M166.52,542.02c2.35,4.75,5.15,10.94,9.6,9.07,4.45-1.87,14.27-2.1,15.88-4.85,1.6-2.75,4.9-7.04,2.85-9.94-2.05-2.9,1.61-9.9-5.36-10.44-6.97-.53-8.07-5.95-15.18-1.78-7.11,4.17-11.62,6.76-11.33,11.18.29,4.42,3.55,6.76,3.55,6.76Z"/>
  <path class="cls-1" d="M283.8,371.65c-1.77-1.53-4.17-2.14-6.57-1.75-9.09,1.48-17.83,3.26-16.93,13.59,1.02,11.64-8.51,36.1,2.41,35.02,10.92-1.08,25.24,3.69,27.12-8.22,1.88-11.91,7.53-18.35,2.52-27.78-2.82-5.3-6.16-8.81-8.55-10.86Z"/>
  <path class="cls-1" d="M250.18,443.06c-1.77-1.53-4.17-2.14-6.57-1.75-9.09,1.48-17.83,3.26-16.93,13.59,1.02,11.64-8.51,36.1,2.41,35.02,10.92-1.08,25.24,3.69,27.12-8.22,1.88-11.91,7.53-18.35,2.52-27.78-2.82-5.3-6.16-8.81-8.55-10.86Z"/>
  <path class="cls-1" d="M285.11,450.23c-1.77-1.53-4.17-2.14-6.57-1.75-9.09,1.48-17.83,3.26-16.93,13.59,1.02,11.64-8.51,36.1,2.41,35.02,10.92-1.08,25.24,3.69,27.12-8.22,1.88-11.91,7.53-18.35,2.52-27.78-2.82-5.3-6.16-8.81-8.55-10.86Z"/>
  <path class="cls-1" d="M249.77,502.12c-1.77-1.53-4.17-2.14-6.57-1.75-9.09,1.48-17.83,3.26-16.93,13.59,1.02,11.64-8.51,36.1,2.41,35.02,10.92-1.08,25.24,3.69,27.12-8.22,1.88-11.91,7.53-18.35,2.52-27.78-2.82-5.3-6.16-8.81-8.55-10.86Z"/>
  <path class="cls-6" d="M238.5,468.66c-1.32,2.14-3.85,1.75-4.09-.63-.78-7.63-1.96-9.58,1.79-16.92,4.64-9.09,5.88-10.11,8.09-19.24,2.21-9.13,2.94-11.66,7.06-15.3s2.21-5.43,6.49-3.37c4.28,2.06,11.12-5.07,6.7,5.52-4.42,10.59-3.6,20.06-10.56,28.24-6.95,8.18-5.08,7.52-10.29,14.61-5.21,7.09-1.53,1.15-5.21,7.09h0Z"/>
  <path class="cls-6" d="M264.68,533.67c.66,2.43-1.35,4-3.25,2.56-6.11-4.64-8.34-5.11-11.14-12.86-3.47-9.59-3.38-11.2-8.53-19.05-5.16-7.85-6.51-10.11-6.36-15.61s-2.46-5.33,1.97-7.04,3.89-11.59,8.61-1.13c4.72,10.46,12.2,16.33,13.42,26.99s2.03,8.85,3.65,17.49c1.62,8.65-.2,1.9,1.62,8.65h0Z"/>
  <path class="cls-5" d="M572.02,99.87s3.31.29,3.58,6.03c.27,5.75-.59,14.56,0,21.83.59,7.27.45,17.28,1.79,25.69s2.24,8.33,2.63,3.9c.39-4.43-.26-16.39,0-22.95.26-6.57-.53-14.25.13-20.04.66-5.79,3.21-11.25,4.54-9.08s4.67,3.91,4.12,8.34-1.16,4.72-1.11,9.92.04,13.62,0,15.76-.32,10.11,1.17,7.68c1.49-2.43,1.68-12.21,1.68-12.21,0,0-.39-11.48,1.06-15.28s-.61-8.27,1.99-8.22,5.26-2.96,5.19.41c-.06,3.36,1.43,5.08,1.02,10.58-.41,5.5.32,7.2-.57,13.6-.89,6.41-.86,12.68-1.06,15.43s1.31,13.65,1.7,7.99.52-11.93,2.03-19.09c1.51-7.16,1.58-10.37,1.38-15.88-.2-5.51-1.14-12.41,1.15-12.22s2.87,1.89,5.47,1.79,1.76.35,4.9-.06,5.45.4,5.45.4"/>
  <path class="cls-5" d="M523.67,92.63s3.3-.32,4.61,5.28c1.31,5.6,2.06,14.43,3.96,21.47s3.58,16.91,6.42,24.94c2.84,8.04,3.72,7.79,3.3,3.36-.42-4.43-3.23-16.07-4.16-22.57-.93-6.51-3.1-13.91-3.51-19.73s1.12-11.65,2.82-9.76,5.3,3,5.57,7.46-.29,4.85.71,9.96c.99,5.11,2.51,13.38,2.86,15.5.35,2.11,1.51,10,2.54,7.34s-.57-12.32-.57-12.32c0,0-2.47-11.22-1.73-15.22.74-4-2.09-8.03.47-8.45s4.64-3.86,5.18-.54,2.33,4.73,2.92,10.22c.59,5.48,1.62,7.02,1.91,13.48.29,6.46,1.46,12.63,1.75,15.37.3,2.74,3.76,13.18,3.12,7.55-.64-5.63-1.65-11.82-1.46-19.14.19-7.32-.33-10.49-1.52-15.87s-3.37-12-1.08-12.22,3.17,1.34,5.71.77,1.79.02,4.81-.95,5.43-.6,5.43-.6"/>
  <g>
    <polygon class="cls-4" points="780.97 285.22 771.45 557.93 542.71 560.08 552.59 277.25 780.97 285.22"/>
    <line class="cls-4" x1="779.86" y1="316.96" x2="551.48" y2="308.99"/>
    <polygon class="cls-4" points="775.07 454.34 546.41 454.08 545.36 484.16 774 485.03 775.07 454.34"/>
    <polyline class="cls-4" points="762.68 284.58 753.15 557.52 729.09 558.33 743.49 283.91 721.71 283.15 712.15 556.78 690.29 556.53 699.86 282.39 674.89 281.52 670.57 558.88 648.22 558.1 650.45 280.66 632.36 280.03 629.06 558.48 602.44 559.52 608.99 279.21 589.8 278.54 584.35 558.89 563.08 559.04 572.89 277.95 552.59 277.25"/>
    <polygon class="cls-4" points="555.65 189.55 542.71 560.08 537.12 558.49 550.82 189.38 555.65 189.55"/>
    <polyline class="cls-4" points="778.44 273.06 767.88 557.63 771.45 557.93"/>
    <g>
      <path class="cls-4" d="M767.48,290.34c1.1-.13,2.11.28,2.51,1.02.61,1.13-.41,2.6-1.38,3.21-1.48.91-3.53.23-4.69-.92-1.82-1.81-1.1-4.47-1.05-4.65.66-2.27,2.75-3.16,3.3-3.39,2.43-1.03,4.68-.09,5.28.18.95.44,2.32,1.4,3.56,3.89,4.52,9.14-.92,22.68-4.02,25.38-.26.23-1.02.88-2.06.91-1.32.04-2.63-.94-3.2-2.18-.65-1.42-.13-2.77.13-3.46.2-.53,1.11-2.9,2.72-2.87,1.01.02,1.86.96,2.18,1.85.42,1.19,0,2.6-1.08,3.53"/>
      <path class="cls-4" d="M757.16,289.39c-1.16.07-2.16.77-2.54,1.78-.55,1.47.44,2.92,1.12,3.54,1.36,1.26,3.52,1.16,4.78.17,2.1-1.66,1.98-5.78.28-7.94-1.59-2.02-4.22-1.89-5.7-1.82-3,.14-5.1,1.74-5.96,2.42,0,0-2.11,1.65-3.61,4.42-3.94,7.23-4.15,17.71.37,21.72.42.37,2.2,1.95,4.24,1.46,1.79-.43,3.34-2.34,3.46-4.44.02-.36.12-2.08-1.06-3.24-1.12-1.1-2.59-.89-2.9-.85-.41.06-1.22.18-1.87.89-.6.66-1.02,1.79-.68,2.81.14.44.39.75.57.93"/>
      <path class="cls-4" d="M730.13,288.78c.36.19,1.27.72,1.76,1.81.73,1.64.12,3.71-1.07,4.45-1.83,1.15-5.35-.64-6.44-3.35-.79-1.96-.37-4.38.97-5.85,2.7-2.97,8.45-1.49,11.6.41.9.54,2.69,1.64,3.88,3.82,1.62,2.94,1.07,5.87.37,9.54-.69,3.67-1.48,7.81-4.99,11.06-.96.9-2.85,2.39-5.59,3.13-1.97.53-4.44,1.2-6.44-.22-1.59-1.14-3.13-3.57-2.22-5.99.86-2.28,3.6-3.71,5.76-2.95,1.2.42,2.5,1.61,2.63,3.26.1,1.24-.53,2.18-.75,2.49"/>
      <path class="cls-4" d="M597.31,284.16c.36.19,1.27.72,1.76,1.81.73,1.64.12,3.71-1.07,4.45-1.83,1.15-5.35-.64-6.44-3.35-.79-1.96-.37-4.38.97-5.85,2.7-2.97,8.45-1.49,11.6.41.9.54,2.69,1.64,3.88,3.82,1.62,2.94,1.07,5.87.37,9.54-.69,3.67-1.48,7.81-4.99,11.06-.96.9-2.85,2.39-5.59,3.13-1.97.53-4.44,1.2-6.44-.22-1.59-1.14-3.13-3.57-2.22-5.99.86-2.28,3.6-3.71,5.76-2.95,1.2.42,2.5,1.61,2.63,3.26.1,1.24-.53,2.18-.75,2.49"/>
      <path class="cls-4" d="M715.29,287.48c-1.36.64-2.23,1.89-2.13,3.09.15,1.79,2.36,2.8,4.02,2.66,1.61-.14,2.58-1.38,2.92-1.8,1.12-1.42,1.8-3.81.72-5.6-1-1.68-3.03-1.99-4.54-2.21-3.1-.47-5.59.54-7.04,1.15-1.1.46-5.11,2.22-7.64,6.58-.14.24-.71,1.23-1.22,2.7-2.03,5.77-.39,10.84.17,12.49.64,1.89,1.34,3.88,3.26,5.48.65.54,1.83,1.5,3.6,1.72,1.86.23,4.47-.34,5.83-2.48.86-1.36,1.44-3.7.17-5.34-1.11-1.44-3-1.49-3.41-1.5-.54-.01-2.48-.06-3.47,1.39-.63.93-.54,1.97-.49,2.35"/>
      <path class="cls-4" d="M584.86,283c-1.08.65-1.76,1.91-1.7,3.11.1,1.79,1.83,2.79,3.13,2.63,1.26-.15,2.04-1.4,2.3-1.82.89-1.42,1.44-3.82.61-5.61-.77-1.67-2.37-1.96-3.54-2.18-2.43-.45-4.39.58-5.53,1.2-.87.47-4.03,2.26-6.04,6.64-.11.24-.56,1.24-.98,2.7-1.63,5.79-.39,10.84.04,12.49.49,1.89,1.02,3.87,2.52,5.46.51.54,1.42,1.49,2.81,1.69,1.46.22,3.51-.38,4.59-2.52.69-1.36,1.16-3.71.18-5.34-.86-1.43-2.34-1.46-2.66-1.47-.43-.01-1.94-.05-2.73,1.42-.5.93-.44,1.97-.4,2.35"/>
      <path class="cls-4" d="M681.67,286.93c.11.04,2.01.72,2.33,2.4.33,1.73-1.25,3.25-2.62,3.73-2.07.72-4-.83-4.81-1.48-.61-.49-1.47-1.18-1.8-2.4-.42-1.56.33-2.93.51-3.25,1.29-2.35,4.32-2.9,6.76-3.35,1.99-.36,6.34-1.1,10.74,1.16.96.49,2.68,1.4,4.19,3.32,1.14,1.46,1.62,2.82,1.92,3.68,1.53,4.47.6,8.6,0,11.26-.27,1.19-.61,2.66-1.44,4.47-1.07,2.35-2.16,4.73-4.71,6.08-.58.31-3.43,1.81-6.29.47-2.41-1.13-3.17-3.51-3.23-3.72-.57-1.86-.02-3.42.26-4.19.37-1.02,1.21-3.32,3.39-3.88,1.43-.36,3.49.02,4.25,1.46.82,1.55,0,4.05-2.35,5.2"/>
      <path class="cls-4" d="M665.3,286.61c-1.31,1.73-1.32,3.97-.19,5.33,1.5,1.8,5.93,1.78,7.4.61,2.28-1.8,1.83-6.35.08-8.59-2.9-3.7-12.35-3.22-16.93.56-5.21,4.31-4.93,11.99-4.77,16.19.03.86.15,2.64.87,4.78.76,2.26,1.52,4.51,3.69,5.71,1.79.99,4.52,1.27,6.46-.13,3.05-2.2,2.86-7.6.27-10.08-1.58-1.51-4.55-2.42-6.19-1.12-.78.62-1.27,1.76-1.13,2.89.15,1.22,1.01,2.29,2.23,2.77"/>
      <path class="cls-4" d="M623.33,285.14c-1.31,1.73-1.32,3.97-.19,5.33,1.5,1.8,5.93,1.78,7.4.61,2.28-1.8,1.83-6.35.08-8.59-2.9-3.7-12.35-3.22-16.93.56-5.21,4.31-4.93,11.99-4.77,16.19.03.86.15,2.64.87,4.78.76,2.26,1.52,4.51,3.69,5.71,1.79.99,4.52,1.27,6.46-.13,3.05-2.2,2.86-7.6.27-10.08-1.58-1.51-4.55-2.42-6.19-1.12-.78.62-1.27,1.76-1.13,2.89.15,1.22,1.01,2.29,2.23,2.77"/>
      <path class="cls-4" d="M638.43,284.39c.59,1.43-.67,4.05-4.37,3.58-1.44-.18-1.71-3.87-.73-5.59,1.51-2.64,6.92-2.65,10.26-.57,8.19,5.09,8.51,25.52,2.51,29.17-1.76,1.07-4.39,1.22-5.95-.21-2.05-1.88-2.42-6.58-.4-8,1.24-.87,3.23-.4,4.93.98"/>
      <path class="cls-4" d="M559.04,281.53c.66,1.43-.73,4.05-4.86,3.57-1.61-.19-1.92-3.88-.83-5.6,1.67-2.63,7.7-2.62,11.43-.53,9.15,5.13,9.58,25.56,2.91,29.18-1.96,1.06-4.89,1.21-6.63-.23-2.29-1.89-2.72-6.59-.48-8,1.38-.87,3.6-.39,5.49,1"/>
    </g>
    <path class="cls-4" d="M759.41,459.4c1.1-.13,2.11.28,2.51,1.02.61,1.13-.41,2.6-1.38,3.21-1.48.91-3.53.23-4.69-.92-1.82-1.81-1.1-4.47-1.05-4.65.66-2.27,2.75-3.16,3.3-3.39,2.43-1.03,4.68-.09,5.28.18.95.44,2.32,1.4,3.56,3.89,4.52,9.14-.92,22.68-4.02,25.38-.26.23-1.02.88-2.06.91-1.32.04-2.63-.94-3.2-2.18-.65-1.42-.13-2.77.13-3.46.2-.53,1.11-2.9,2.72-2.87,1.01.02,1.86.96,2.18,1.85.42,1.19,0,2.6-1.08,3.53"/>
    <path class="cls-4" d="M749.09,458.45c-1.16.07-2.16.77-2.54,1.78-.55,1.47.44,2.92,1.12,3.54,1.36,1.26,3.52,1.16,4.78.17,2.1-1.66,1.98-5.78.28-7.94-1.59-2.02-4.22-1.89-5.7-1.82-3,.14-5.1,1.74-5.96,2.42,0,0-2.11,1.65-3.61,4.42-3.94,7.23-4.15,17.71.37,21.72.42.37,2.2,1.95,4.24,1.46,1.79-.43,3.34-2.34,3.46-4.44.02-.36.12-2.08-1.06-3.24-1.12-1.1-2.59-.89-2.9-.85-.41.06-1.22.18-1.87.89-.6.66-1.02,1.79-.68,2.81.14.44.39.75.57.93"/>
    <path class="cls-4" d="M722.78,459.31c.33.17,1.19.68,1.64,1.71.68,1.54.11,3.5-1,4.2-1.71,1.09-5-.6-6.03-3.16-.74-1.85-.35-4.13.91-5.52,2.53-2.8,7.9-1.41,10.85.38.84.51,2.51,1.55,3.63,3.6,1.51,2.78,1,5.54.34,9-.65,3.46-1.39,7.37-4.67,10.44-.9.84-2.67,2.25-5.23,2.95-1.84.5-4.16,1.13-6.02-.21-1.49-1.07-2.93-3.37-2.08-5.65.81-2.16,3.37-3.5,5.39-2.78,1.12.4,2.34,1.52,2.46,3.07.09,1.17-.49,2.06-.71,2.35"/>
    <path class="cls-4" d="M593.7,458.59c.34.18,1.19.71,1.64,1.78.68,1.61.1,3.65-1.01,4.39-1.71,1.14-5.01-.62-6.03-3.28-.74-1.93-.34-4.31.92-5.76,2.53-2.92,7.92-1.48,10.87.38.84.53,2.51,1.61,3.63,3.75,1.51,2.9.99,5.78.33,9.39-.66,3.61-1.4,7.69-4.69,10.9-.91.88-2.68,2.35-5.24,3.09-1.84.53-4.16,1.19-6.03-.21-1.49-1.12-2.93-3.51-2.07-5.89.81-2.25,3.38-3.66,5.41-2.91,1.12.41,2.34,1.58,2.46,3.2.09,1.22-.5,2.14-.71,2.45"/>
    <path class="cls-4" d="M709.51,458.46c-1.36.64-2.23,1.89-2.13,3.09.15,1.79,2.36,2.8,4.02,2.66,1.61-.14,2.58-1.38,2.92-1.8,1.12-1.42,1.8-3.81.72-5.6-1-1.68-3.03-1.99-4.54-2.21-3.1-.47-5.59.54-7.04,1.15-1.1.46-5.11,2.22-7.64,6.58-.14.24-.71,1.23-1.22,2.7-2.03,5.77-.39,10.84.17,12.49.64,1.89,1.34,3.88,3.26,5.48.65.54,1.83,1.5,3.6,1.72,1.86.23,4.47-.34,5.83-2.48.86-1.36,1.44-3.7.17-5.34-1.11-1.44-3-1.49-3.41-1.5-.54-.01-2.48-.06-3.47,1.39-.63.93-.54,1.97-.49,2.35"/>
    <path class="cls-4" d="M580.32,458.69c-1.21.62-1.98,1.83-1.9,3,.12,1.73,2.09,2.71,3.56,2.56,1.43-.14,2.3-1.34,2.59-1.75,1-1.37,1.6-3.69.66-5.42-.89-1.62-2.69-1.91-4.02-2.13-2.75-.45-4.96.54-6.25,1.13-.98.45-4.54,2.16-6.8,6.39-.12.23-.63,1.19-1.09,2.61-1.81,5.59-.38,10.49.11,12.09.56,1.83,1.18,3.75,2.88,5.3.57.52,1.62,1.45,3.19,1.66,1.65.22,3.97-.34,5.18-2.41.77-1.32,1.29-3.59.17-5.17-.98-1.39-2.66-1.43-3.02-1.44-.48-.01-2.2-.06-3.08,1.36-.56.9-.49,1.91-.44,2.27"/>
    <path class="cls-4" d="M678.1,458.86c.09.04,1.74.7,2.01,2.34.28,1.7-1.1,3.19-2.29,3.66-1.8.71-3.47-.79-4.17-1.43-.53-.48-1.27-1.15-1.55-2.34-.36-1.53.3-2.87.45-3.18,1.13-2.31,3.76-2.86,5.87-3.3,1.72-.36,5.5-1.1,9.3,1.09.83.48,2.32,1.36,3.62,3.23.98,1.42,1.39,2.76,1.65,3.6,1.31,4.37.49,8.41-.04,11.02-.24,1.16-.54,2.6-1.26,4.38-.94,2.3-1.89,4.64-4.11,5.97-.51.3-2.98,1.79-5.45.48-2.08-1.1-2.73-3.42-2.79-3.63-.48-1.82,0-3.35.24-4.1.33-1,1.06-3.26,2.95-3.81,1.24-.36,3.02,0,3.68,1.41.7,1.52-.02,3.97-2.06,5.1"/>
    <path class="cls-4" d="M662.98,459.51c-1.28,1.66-1.29,3.83-.18,5.14,1.46,1.74,5.78,1.72,7.21.59,2.22-1.74,1.78-6.12.07-8.29-2.82-3.57-12.03-3.11-16.49.54-5.08,4.16-4.79,11.57-4.64,15.62.03.83.15,2.55.85,4.61.74,2.18,1.48,4.35,3.6,5.52,1.74.96,4.4,1.22,6.29-.12,2.97-2.12,2.78-7.34.26-9.73-1.53-1.46-4.43-2.34-6.03-1.08-.76.6-1.23,1.69-1.1,2.79.15,1.18.98,2.21,2.18,2.67"/>
    <path class="cls-4" d="M620.61,459.16c-1.46,1.66-1.45,3.83-.18,5.14,1.68,1.74,6.62,1.74,8.26.63,2.53-1.72,2.01-6.12.04-8.29-3.25-3.58-13.79-3.17-18.87.45-5.79,4.13-5.43,11.55-5.23,15.6.04.83.18,2.55.99,4.62.86,2.19,1.72,4.36,4.14,5.53,2,.97,5.04,1.25,7.2-.09,3.39-2.1,3.14-7.32.25-9.73-1.76-1.46-5.09-2.36-6.91-1.12-.87.6-1.4,1.69-1.24,2.78.17,1.18,1.14,2.21,2.51,2.68"/>
    <path class="cls-4" d="M636.41,458.5c.62,1.33-.69,3.78-4.55,3.33-1.51-.18-1.8-3.62-.78-5.23,1.57-2.46,7.22-2.45,10.72-.49,8.58,4.79,8.99,23.87,2.73,27.25-1.83.99-4.59,1.13-6.22-.22-2.15-1.76-2.55-6.16-.45-7.47,1.29-.81,3.38-.36,5.15.93"/>
    <path class="cls-4" d="M552.72,458.5c.66,1.31-.72,3.7-4.85,3.25-1.61-.18-1.93-3.55-.85-5.12,1.66-2.4,7.69-2.38,11.43-.45,9.16,4.72,9.66,23.41,3,26.7-1.95.97-4.89,1.09-6.63-.23-2.29-1.73-2.74-6.04-.51-7.32,1.37-.79,3.6-.34,5.5.93"/>
    <polyline class="cls-4" points="767.88 557.63 692.77 485.31 602.44 559.52 545.36 484.16"/>
    <line class="cls-4" x1="770.42" y1="485.01" x2="690.29" y2="556.53"/>
    <polyline class="cls-4" points="690.29 556.53 604.18 485.23 542.71 560.08"/>
  </g>
  <path class="cls-1" d="M879.62,482.87c21.39,2.72,31.51,23.69,36.58,32.39,5.06,8.7,7.69,19.76-3.05,23.08-10.74,3.32-24.44,6.42-26.24-6.91-1.8-13.33-4.78-19.74-14.58-22.9-9.81-3.15-18.37-18.41-10.06-25.92,8.31-7.51,17.35.26,17.35.26Z"/>
  <path class="cls-1" d="M783.82,460.28c-15.06,15.44-9.95,38.15-8.51,48.11,1.45,9.96,6.26,20.26,16.74,16.18,10.48-4.08,23.13-10.17,16.25-21.73s-8.54-18.43-2.82-27,2.94-25.84-8.24-26.56c-11.18-.71-13.43,10.99-13.43,10.99Z"/>
  <path class="cls-1" d="M800.22,395.92c21.39,2.72,31.51,23.69,36.58,32.39,5.06,8.7,7.69,19.76-3.05,23.08-10.74,3.32-24.44,6.42-26.24-6.91-1.8-13.33-4.78-19.74-14.58-22.9-9.81-3.15-18.37-18.41-10.06-25.92,8.31-7.51,17.35.26,17.35.26Z"/>
  <path class="cls-6" d="M802.18,500.26c-14.27,11.61-36.94,40.87-18.58,40.15,18.36-.72,30.5,14.1,38.15,9.38,7.65-4.71,21.2-8.14,29.34-9.38s24.52-10.11,18.75-19.4c-5.76-9.29-24.02-15.05-34.78-17.41-10.76-2.37-32.89-3.33-32.89-3.33Z"/>
  <path class="cls-5" d="M787.32,475.71c-1.46,6.56,3.98,25.98,10.7,24.23,6.72-1.75,27.29-1.94,32.12.11,4.83,2.05,30.13,8.22,27.23-4.08-2.9-12.3,16.91-49.16-2.21-50.93-19.12-1.77-30.99-10.48-35.24,2.61l-27.12,20.82-5.48,7.24Z"/>
  <path class="cls-6" d="M776.79,451.48c18.32,4.54,39.28,6.3,39.34-5.39.06-11.68,2.89-30.62,3.73-36.57.84-5.95-6.83-12.42-16.21-3.11-9.38,9.31-22.36,5.76-24.91,17.07-2.55,11.31-1.96,27.99-1.96,27.99Z"/>
  <path class="cls-6" d="M863.65,539.12c18.32,4.54,39.28,6.3,39.34-5.39.06-11.68,2.89-30.62,3.73-36.57.84-5.95-6.83-12.42-16.21-3.11-9.38,9.31-22.36,5.76-24.91,17.07-2.55,11.31-1.96,27.99-1.96,27.99Z"/>
  <path class="cls-5" d="M810.28,355.56c-33.05,12.38-30.53,22.82-30.37,37.19s7.47-4.08,13.01-.61c5.53,3.47,21.09,16.85,21.16,4.41.07-12.44,5.23-20.4,1.59-25.15-3.64-4.76-5.39-15.84-5.39-15.84Z"/>
  <path class="cls-5" d="M803.68,510.3c-33.05,12.38-30.53,22.82-30.37,37.19.16,14.37,7.47-4.08,13.01-.61,5.53,3.47,21.09,16.85,21.16,4.41.07-12.44,5.23-20.4,1.59-25.15-3.64-4.76-5.39-15.84-5.39-15.84Z"/>
  <path class="cls-8" d="M818.94,425.32c-.49.42-.76,1.05-.75,1.7.21,15.42,12.25,12.77,18.1,12.78,5.98.01,5.59-9.23,5.02-12.45-.57-3.22-1.1-11.25-7.45-10.59-5.27.55-12.58,6.53-14.92,8.56Z"/>
  <path class="cls-8" d="M921.36,517.75c-.49.42-.76,1.05-.75,1.7.21,15.42,12.25,12.77,18.1,12.78,5.98.01,5.59-9.23,5.02-12.45-.57-3.22-1.1-11.25-7.45-10.59-5.27.55-12.58,6.53-14.92,8.56Z"/>
  <path class="cls-5" d="M231.54,519.97c-.34,18.46,9.2,24.38,16.42,25.16,7.22.78,23.52,2.97,32.59,0,9.06-2.97,21.94-14.81,6.92-17.66-4.78-.91-8.58-5.54-12.01-11.22-7.33-12.15-12.97-29.08-22.91-24.51-10.1,4.64-17.66,12.69-21.36,17.21-1.59,1.94-2.03,4.64-1.14,7.03l1.49,3.99Z"/>
  <path class="cls-6" d="M288.18,490.07c-1.15.05-2.31.01-3.42-.27-7.24-1.85-10.4,9.82-10.37,16.16.03,6.76,5.46,21.5,9.25,15.71,3.79-5.79,7.93.08,11.32-8.72,3.4-8.8,5.32-11.96,2.46-15.38s-4.25-5.98-6.35-6.99c-.94-.45-2-.54-2.89-.51Z"/>
  <path class="cls-6" d="M295.58,530.92c-.69-.92-1.31-1.9-1.71-2.98-2.57-7.02-13.98-3.03-19.19.58-5.56,3.85-14.65,16.65-7.73,16.51,6.91-.15,4.41,6.58,13.59,4.41,9.18-2.17,12.88-2.37,14.08-6.66s2.53-6.89,2.18-9.19c-.16-1.03-.69-1.96-1.22-2.67Z"/>
  <path class="cls-5" d="M244.48,471.32c-1.26,4.68.11,9.64,3.59,12.85,6.84,6.32,18.19,13.2,22.32,3.51,5.83-13.69,26.55-29.55,24.15-38.6-2.4-9.05-13.4-38.03-20.09-28.65-6.69,9.39-11.68,4.9-17.23,18.15-5.55,13.25-3.99-1.34-9.24,18.96l-1.69,7-1.82,6.78Z"/>
  <path class="cls-7" d="M1019.71,525.63c-7.81.49-51.58-19.79-57.68-20.71-42.72-6.38-48.37-44.15-82.87-70.94-39.43-30.61-48.29-98.16-70.04-140.72-21.75-42.56-25.49-117.99-54.77-158.42-29.28-40.43-66.34-63.51-115.83-80.2-49.49-16.69-137.09-21.38-202.35,0-65.26,21.38-108.81,88.05-129.15,110.17-20.34,22.13-57.69,179.47-65.7,205.85-8.02,26.38-70.88,161.68-146.86,175.56,0,0,33.03,10.21,71.76-16.78,38.72-27,72.34-90.75,87.93-133.02,15.59-42.27,36.43-103.09,41-122.15,4.57-19.06,18.9-77.97,36.37-105.32,17.47-27.35,76.22-82.63,95.53-92.94,19.31-10.31,94.81-21.4,119.1-18.85,24.29,2.55,59.24,3.81,88.86,12.81,29.62,9,60.51,25.19,72.95,44.54,12.43,19.34,36.8,51.64,44.91,75.17,8.11,23.53,20.02,69.46,26.12,86.57,6.09,17.11,24.2,59.76,34.47,81.2,10.27,21.43,20.79,57.69,33.94,72.23,5.81,6.43,48.17,60.31,64.29,69.98,20.37,12.21,108.04,25.98,108.04,25.98Z"/>
  <path class="cls-10" d="M399.97,87.25c-13.32,16.03-24.58,33.47-37.04,50.05-6.97,9.27-14.27,20.12-21.68,29.44-2.27,2.85-8.31,4.56-9.03,8.41l1.81.84c-3.29,3.91-6.49,8.11-9.49,12.2-.9,1.23,1.72.8,1.36,1.26-3.94,5.09-11.04,7.93-13.55,10.94-2.54,3.04-9.33,12.14-12.65,16.82-3.58,5.05-6.3,16.41-12.65,17.24,2.03-6,3.27-12.49,5.42-18.51,3.3-9.23,6.97-18.71,10.84-27.76,4.84,1.18,5.17-3.85,7.23-6.31.72-.85,2,.02,2.71-.84,2.15-2.6.73-4.85.9-5.05.61-.71,2.09.04,3.61-1.68.82-.92,1.63-4.84,1.81-5.05.65-.74,2.96,1.07,5.42-1.68,16.22-18.14,32.63-37.24,49.69-55.52.63-.68-.97-1.61-.9-1.68,1.19-1.27,2.18.5,2.26.42,5.05-5.39,9.86-10.87,14-16.82,3.25-2.39,6.4-4.67,9.94-6.73Z"/>
  <path class="cls-10" d="M855.29,415.31c16.94,28.79,67.44,83.31,100.73,93.37,29.34,8.87,60.8,11.3,90.79,17.66-7.85,4.04-45.61-.05-55.56-1.68-67.15-11.01-110.24-49.94-136.87-106.41-.71-1.52-2.38-2.93.9-2.94Z"/>
  <path class="cls-10" d="M715.26,113.33c14.45,23.14,35.44,43.45,46.07,68.55,5.2,12.27,7.4,25.77,11.74,38.27l-4.52-1.26c-17.67-41.9-47.02-78.02-68.66-119.02,5.42,4.02,10.55,8.82,15.36,13.46Z"/>
  <path class="cls-10" d="M769.47,141.93c-.86,3.82-4.36,5.81-6.32,9.67-.71,1.4-.95,10.43-4.52,8.83-.27-.49-1.3-1.73-1.81-2.52-4.77-12.44-14.28-27.57-23.49-38.27-52.01-60.45-161.26-70.2-238.96-66.03-61.49,3.3-90.56,14.57-133.26,53.83-10.08,9.27-20.49,18.68-29.81,28.6-3.56-.95-6.03-5.66-9.94-5.89-14.45,11.36-11.59-14.19-10.63-11.27.98-5.57,24.86-2.37,25.99-3.45.2-.19-14.62-2.01-13.77-2.87.97-.98,14.29-15.62,14.92-16.24,27.21-26.77,39.99-23.54,78.81-36.83,113.11-38.74,283.08-18.75,352.79,82.43Z"/>
  <path class="cls-3" d="M331.3,136.04c-25.71,27.36-32.27,39.82-40.65,76.13-.36,1.54-1.6,4.6,1.81,3.79-2.15,6.02-3.39,12.5-5.42,18.51-4.53,13.38-8.12,27.05-12.65,40.38l-5.87,6.73-1.36-13.04c-1.65-.94-5.54,3.91-5.87,3.79-.94-.36-.46-5.97-3.16-4.63v26.08l-3.16-4.63c-4.53,2.41-.44,5.14-.45,5.47-.02.63-1.84.22-1.81.84.28,4.68,4.19,10.11,1.81,15.56-2.21-8.71-10.67-19.27-11.74-24.39-1.64-7.81,1.57-4.09,1.81-5.47.15-.9-1.54-4.49-.9-6.73.14-.49,5-2.52,2.71-8.41l2.71,1.68c-3.39-6.7,5.24-7.97.9-15.98l3.61,1.68c-3.14-7.76,3.44-6.77.9-14.3l2.71.84c1.25-2.63-3.19-12.32,1.81-8.41l.45-7.15,2.26,2.94v-10.09l2.71,2.52-.9-9.25,2.71,1.68.45-9.67,2.26,3.79c.43-2.41-.59-6.29,0-8.41.38-1.34,2.51.86,2.71,0,.25-1.03-.66-12.41,1.36-11.36l.45,4.63c3.17-.18.84-6.71,1.81-9.25.52-1.37,2.33.84,2.71,0,.31-.67.36-4.1.9-5.05,3.12-5.38,9.13-10.52,12.65-15.14.41-.54.91-4.76,1.81-5.89.99-1.25.8,2.06,1.81.84,2.49-3.03,1.74-4.15,6.32-8.41,1.12-1.04.97,1.57,1.36,1.26,2.54-2.04-11.5-3.14-10.67-4.07,3.44-3.86,16.8-3.11,19.25-5.61.14-.15.2-2.77,1.36-3.79.71-.62,1.96,1.44,2.71.84.94-.74,2.27-6.94,5.87-6.73,3.9.23,6.38,4.94,9.94,5.89Z"/>
  <path class="cls-10" d="M792.05,194.92c13.51,42.43,27.61,90.9,45.17,134.17.35.86,2.36-.02,2.71.84,3.91,9.57,6.95,23.08,10.84,31.96.38.86,2.33-.02,2.71.84s-.4,3.31,0,4.21c6.62,14.92,14.52,29.42,21.68,43.74.97,1.28.47-2.75,2.71,0,15.97,19.64,38.26,40.5,56.01,59.72,1.23,1.34,4.43,8.29,5.42,9.25,1.26,1.24,2.18-.5,2.26-.42,4.77,4.46,7.93,6.97,14,10.94v4.63c3.15-3.99,3.57,3.63,3.16,3.79-1.49.58-9.51-8.38-10.84-9.25-.33-.22-4.23,2.33-5.42-3.36v5.89l-4.52-7.57.45,4.63-2.26.42-4.07-12.2-1.36,4.63-2.71-9.25-.9,8.41-3.61-7.57-1.81,3.36-4.97-12.2-1.81,3.36c-.52-10.64-5.01-5.91-8.58-11.36,1.78,19.33-4.93-3.21-7.68-7.15,2.09,14.96-3.3-3.39-4.97-7.99l.45,9.67c-1.64,3.01-5.01-14.84-5.87-14.72l-.9,5.05-3.16-7.15.9,9.25c-3.26-.41-3.92-12.38-5.42-13.46-1.56-1.12.07,2.34-2.26,2.1s-3.93-17.55-4.07-20.61v15.98l-3.61-10.09-1.36,4.63-1.81-5.89-1.36,3.79c-2.06-2.04-2.07-21.73-4.97-19.77-1.43.97,1.25,6.62-2.26,5.47l-.45-10.51-3.16,6.31v-15.98l-3.61,5.05-.9-14.3c-5.54,10.74-2.42-1.23-3.61-3.36-.77-1.39-2.65,1.02-3.16.42-1.62-1.92-1.89-10.43-.45-13.04l-3.16,5.47c-1.98-2.7,1.99-13.15-4.07-11.78.03-2.39,1.8-4.38.45-6.73l-3.16,7.99c-.07-2.94.1-5.9,0-8.83,3.77.64,4.38-4.35,4.07-6.73,8.3,3.43.58-1.7.45-2.1-.32-.98-.2-7.07-.9-9.25-.27-.84-2.44,0-2.71-.84-.66-2.06,1.08-4.54.9-5.05-.38-1.12-2.55-1.25-2.71-1.68-2.59-7.15-3.98-11.22-7.23-18.51-1.94-4.35-.78-15.2-7.23-12.62l1.81,31.96,8.13-8.41c-1.83,8.15-.78,16.62-.9,24.81-.03,2.04,1.08,3.03.9,4.63-6.31,3.3-4.96-12.93-6.32-14.3-.98-.98-1.77,1.86-2.71.84-2.83-3.09-2.39-10.64-3.61-14.3-.31-.94-3.02.12-3.61-.84-.3-.49-.4-8.15.9-9.25-5.94,4.99-3.24-2.02-3.61-2.52-1.03-1.38-2.21.95-2.71,0-1.09-2.09-1.69-4.53-2.71-6.73-1.9-4.09-3.77-13.56-5.42-17.66-1.37-3.4-3.66-2.86-4.52-5.05-.72-1.84.22-5.31,0-5.89-5.05-13.3-10.99-26.23-15.36-39.96l4.52-.42c-3.3-4.73,2.35-21.44.9-24.39-1-2.04-5.3-1.44-5.42-1.68-.26-.52-.74-12.17,1.81-8.41-2.82,7.07,4.1,7.86,4.52,9.25.82,2.74-3.18,25.7-.45,25.66.75-1.59,1.22-5.9,4.07-4.63-1.41,8.85,2.95,10.53,2.26,18.09,4.86-6.11,5.03-2.4,5.42-2.52,2.72-.87-1.95-3.78,3.16-2.94-2.32,7.39-.84,12.46,0,19.35.21,1.7,2.65.38,2.71.84.52,3.83-2.11,10.66-.9,15.14,1.72,1.46,1.55-4.02,3.16-2.94,1.47.98-.52,6.15,2.26.42,2.37,5.08,1.69,9.08,0,14.3l3.61-1.68-.9,15.14c9.61,2.08,5.23-4.1,6.32-8.41.26-1.03,3.38-1.51,3.61-2.52.39-1.71-1.83-1.09-1.81-1.68.58-12.77-9.6-29.81-12.65-39.53-3.56-11.36-7.82-23.4-10.84-34.49-1.22-4.47-1.2-9.3-.9-13.88Z"/>
  <path class="cls-10" d="M756.82,157.91c-5.73-8.9-32.6-35.94-41.56-44.58-4.8-4.64-9.93-9.44-15.36-13.46-66.47-49.25-228.65-54.15-299.94-12.62-3.53,2.06-6.69,4.34-9.94,6.73-6.08,4.47-11.29,9.23-17.17,13.88l-56.92,55.1c6.7-9.55,47.99-45.93,48.79-49.21.7-2.88-2.11-4.36-3.61-6.31,42.69-39.27,71.77-50.53,133.26-53.83,77.7-4.17,186.95,5.59,238.96,66.03,9.21,10.7,18.71,25.84,23.49,38.27Z"/>
  <path class="cls-10" d="M955.57,490.17c2.82,1.84,7.06,5.28,9.49,6.73.85.51,1.72-.89,1.81-.84,1.01.62,2.83,4.36,3.61,4.21,1.1-.22-.95-5.77,5.42,2.52,2.48.38-.56-2.5.9-2.52.71-.01,9.88,6.83,11.74,7.57.29.12.56-3.4,4.52,1.68,1.07-.25-3.13-7.12,5.42,1.68l.9-2.52c3.02,3.61,7.84,4.19,13.55,5.89,2.21.66-.4-2.36,1.81-1.68,1.84.57,7.48,5.4,9.03,5.89.48.15.14-2.2,1.81-1.68.7.22,2,2.3,2.71,2.52s-.22-1.78,1.36-1.26c.12.04.06,1.68,1.36,2.1,1.73.57,2.57-.88,2.71-.84,4.11,1.27,9.74,4.83,14.91,5.47-.47.66-1.1.9-1.81,1.26-29.99-6.36-61.45-8.79-90.79-17.66-33.29-10.06-83.79-64.58-100.73-93.37-3.2-5.44-6-12.64-9.03-18.51-4.44-8.59-7.49-18.23-11.74-26.92,3.63-3.04.84-10.24.9-15.98,6.06-1.38,2.08,9.07,4.07,11.78l3.16-5.47c-1.44,2.61-1.17,11.12.45,13.04.51.6,2.39-1.81,3.16-.42,1.19,2.13-1.93,14.1,3.61,3.36l.9,14.3,3.61-5.05v15.98l3.16-6.31.45,10.51c3.51,1.15.83-4.5,2.26-5.47,2.9-1.96,2.91,17.73,4.97,19.77l1.36-3.79,1.81,5.89,1.36-4.63,3.61,10.09v-15.98c.13,3.06,1.79,20.38,4.07,20.61s.7-3.22,2.26-2.1c1.5,1.08,2.16,13.05,5.42,13.46l-.9-9.25,3.16,7.15.9-5.05c.86-.12,4.24,17.73,5.87,14.72l-.45-9.67c1.67,4.6,7.06,22.95,4.97,7.99,2.75,3.94,9.46,26.48,7.68,7.15,3.58,5.45,8.06.71,8.58,11.36l1.81-3.36,4.97,12.2,1.81-3.36,3.61,7.57.9-8.41,2.71,9.25,1.36-4.63,4.07,12.2,2.26-.42-.45-4.63,4.52,7.57v-5.89c1.19,5.69,5.09,3.15,5.42,3.36,1.33.87,9.36,9.83,10.84,9.25.4-.16-.01-7.78-3.16-3.79v-4.63Z"/>
  <path class="cls-10" d="M238.25,339.6c-1.96-.38-2.28,1.26-2.26,2.52.1,6.3,2.56,13.85,1.36,20.61l-4.97-15.56.45,23.97c-1.84-2.43-.43-7.12-5.42-5.05.46,7.17.69,14.28,0,21.45-.21,2.14.34,3.93-1.36,5.89-1.17-12.33-3.11-5.65-2.71,1.68-2.54-2.74-.68-10.45-4.97-11.36-1.15,4.96,2.48,7.94.45,12.2l-2.26-2.94v15.98l-4.52-5.05v17.66l-2.71-4.21-.45,9.67-4.07-4.63c.84,1.15-1.9,25.06-4.52,20.19,1.1-22.5-5.46-12.16-3.61,2.52l-2.26-4.63c-.38,11-2.71,11.37-4.07.42-.3,1.59-1.67,27.31-4.52,22.71-.83-1.34,3.14-7.07-.9-5.89l-5.87,19.77c-2.54-2.82,2.87-11.78-1.36-12.2l-2.71,13.88c-.02-.29-1.12-5.06-1.81-5.47l-4.07,16.4c-2.54-2.83-.35-6.63-.45-8.41-.16-2.92.26-5.68-1.36-8.41l-2.71,7.57c-3.5-1.01-2.07-3.82-2.71-5.05-.41-.79-1.74,1.35-2.26.42-.91-1.64,1.38-3.58,1.81-5.47,2.36-10.46,3.31-3.59,4.52-6.31,2.15-4.82,1.91-3.08,3.61-5.89,1.16-1.9,1.28-5.13,2.71-7.57.52-.88,1.9,1.4,2.71,0,.49-.85-.95-1.6-.9-1.68,2.09-3.81,4.02-7.7,5.87-11.36l1.36,2.94c-.21-6.26,4.26-6.32,4.52-6.73.76-1.19.54-5.25.9-5.89,1.39-2.46,3.24-.1,3.61-.84,1.15-2.29.15-13.39,3.61-5.89.58-5.61,2.12-12.36,8.13-15.14.49-3.02,2.58-11.08,3.61-13.46.73-1.67-1.65-4.01-1.36-4.71.63-1.48,4.34-3.03,4.97-4.55,2.27-5.47,7.68-13.97,9.03-17.66.89-2.43-2.01-5.63,2.71-5.89.01-9.84,6.31-16.69,5.42-25.23l2.71.84c-.89-2.52-2.39-8.12.9-9.67.14.88,1.35,3.68,2.26,4.21l3.16-2.1c1.76,3.43,1.72,8.2,2.71,11.36Z"/>
  <path class="cls-10" d="M792.05,194.92c-.3,4.58-.32,9.41.9,13.88,3.02,11.09,7.28,23.13,10.84,34.49,3.04,9.73,13.22,26.77,12.65,39.53-.03.59,2.2-.02,1.81,1.68-.23,1.01-3.35,1.5-3.61,2.52-1.1,4.32,3.29,10.49-6.32,8.41l.9-15.14-3.61,1.68c1.69-5.22,2.37-9.22,0-14.3-2.77,5.73-.79.56-2.26-.42-1.61-1.08-1.44,4.41-3.16,2.94-1.21-4.48,1.42-11.31.9-15.14-.06-.46-2.5.86-2.71-.84-.84-6.89-2.32-11.96,0-19.35-5.11-.84-.44,2.08-3.16,2.94-.39.13-.56-3.59-5.42,2.52.69-7.55-3.67-9.23-2.26-18.09-2.85-1.28-3.31,3.04-4.07,4.63-2.73.05,1.27-22.92.45-25.66-.42-1.39-7.34-2.18-4.52-9.25-2.54-3.76-2.07,7.89-1.81,8.41.12.24,4.42-.35,5.42,1.68,1.45,2.96-4.2,19.66-.9,24.39l-4.52.42c-5.97-18.79-9.9-50.09-18.97-66.45,3.57,1.6,3.81-7.44,4.52-8.83,1.97-3.86,5.46-5.85,6.32-9.67,13.31,19.32,15.85,31.83,22.59,52.99Z"/>
  <path class="cls-10" d="M161.46,470.83c-.43,1.89-2.72,3.83-1.81,5.47.52.93,1.85-1.21,2.26-.42.64,1.23-.79,4.04,2.71,5.05l2.71-7.57c1.61,2.73,1.19,5.49,1.36,8.41l-3.16,11.78c-5.62-3.26-.26-9.37-4.97-11.36.46,10.65-3.19,25.45-11.29,30.7l-1.36-1.26,2.26-10.51c-1.72-.43-4.58,18.76-4.52,2.52l-8.58,18.93-.45-6.31-7.23,11.78.9-6.73c-2.38,5.55-6.86,3.08-7.23,3.36-1.03.79-4.22,8.28-7.23,9.25l1.81-6.73-5.42,5.89c-1.97-4.88-7.48,2.9-10.84,5.05l1.81-5.05c-3.66,4.64-10.85,7.96-11.74,2.52l-11.74,7.57c-2.5.11,1.01-2.93,1.36-3.36.65-.81,7.88-5.62,9.03-6.31,1.35-.8.85,1.6,1.36,1.26,2.14-1.42,3.04-4.44,5.42-5.89l.9,2.52c3.18-7.25,7.31-4.34,10.84-9.25l.9,2.52c1.39-1.74,3.72-6.68,4.97-7.99,2.75-2.88,1.33,1.32,2.26,1.26.7-.04,6.76-9.07,9.03-10.09,1.93,8.45,3.12-4.17,6.32-5.05l1.36,2.1,3.61-9.25,1.36,3.79c2.04.03,4.01-16.44,6.78-7.99,1.4-2.4,2.28-8.14,3.61-10.09,1.54-2.25,2.63.49,3.61-.84.74-1,8.18-15.62,9.03-9.67Z"/>
  <path class="cls-10" d="M756.82,157.91c.51.79,1.54,2.04,1.81,2.52,9.08,16.36,13,47.66,18.97,66.45,4.36,13.73,10.31,26.65,15.36,39.96.22.58-.72,4.05,0,5.89.85,2.19,3.15,1.64,4.52,5.05,1.65,4.1,3.52,13.58,5.42,17.66,1.02,2.2,1.62,4.64,2.71,6.73.5.95,1.68-1.38,2.71,0,.37.5-2.33,7.51,3.61,2.52-1.3,1.1-1.2,8.77-.9,9.25.59.96,3.3-.1,3.61.84,1.22,3.66.78,11.21,3.61,14.3.94,1.02,1.73-1.82,2.71-.84,1.37,1.37.01,17.6,6.32,14.3.18-1.59-.93-2.59-.9-4.63l3.61-3.79-.9,11.78c4.94,1.22.12-4.27,4.07-4.63,1.05,1.73-.52,2.93-.45,5.05.1,2.93-.07,5.89,0,8.83l3.16-7.99c1.35,2.35-.43,4.34-.45,6.73-.06,5.74,2.73,12.94-.9,15.98-13.45-27.49-27.78-54.78-38.85-83.28-8.43-21.72-14.94-44.45-22.59-66.45-4.34-12.5-6.55-26.01-11.74-38.27-10.64-25.1-31.63-45.42-46.07-68.55,8.95,8.64,35.83,35.68,41.56,44.58Z"/>
  <path class="cls-3" d="M227.41,387.55c3.9,1.87,4.79.12,7.23-3.36-12.22,35.85-31.24,70.96-54.21,101.78-3.02-1.45-3.2,5.17-6.32,1.26.28-2.75,1.1-5.16.9-7.99l2.71-13.88c4.23.42-1.18,9.38,1.36,12.2l5.87-19.77c4.05-1.18.08,4.55.9,5.89,2.85,4.6,4.21-21.13,4.52-22.71,1.35,10.95,3.69,10.58,4.07-.42l2.26,4.63c-1.85-14.69,4.72-25.03,3.61-2.52,2.62,4.87,5.35-19.04,4.52-20.19l4.07,4.63.45-9.67,2.71,4.21v-17.66l4.52,5.05v-15.98l2.26,2.94c2.03-4.25-1.61-7.24-.45-12.2,4.29.91,2.43,8.61,4.97,11.36-.4-7.33,1.54-14.01,2.71-1.68,1.7-1.96,1.15-3.75,1.36-5.89Z"/>
  <path class="cls-3" d="M175.01,479.24c.19,2.83-.63,5.24-.9,7.99,3.12,3.91,3.31-2.71,6.32-1.26-30.08,40.38-65.89,66.26-121.96,61.83,6.1-2.54,13.09-2.76,17.62-7.99v3.36l4.97-3.36c-.35.43-3.85,3.48-1.36,3.36l11.74-7.57c.89,5.44,8.08,2.12,11.74-2.52l-1.81,5.05c3.36-2.15,8.88-9.93,10.84-5.05l5.42-5.89-1.81,6.73c3.01-.97,6.2-8.46,7.23-9.25.37-.28,4.84,2.19,7.23-3.36l-.9,6.73,7.23-11.78.45,6.31,8.58-18.93c-.06,16.24,2.8-2.95,4.52-2.52l-2.26,10.51,1.36,1.26c8.11-5.25,11.75-20.06,11.29-30.7,4.7,1.99-.65,8.09,4.97,11.36l3.16-11.78c.1,1.78-2.09,5.58.45,8.41l4.07-16.4c.69.41,1.79,5.17,1.81,5.47Z"/>
  <path class="cls-10" d="M242.77,286.61c1.07,5.12,9.53,15.68,11.74,24.39.94,3.69.08,7.94,2.26,10.94,2.94-3.66-1.17-14.55,1.36-17.24,1.61-1.72,1.99,1.32,2.26,1.26,4.76-1,2.17-5.78,4.97-2.52-3.33,9.87-7.32,19.64-10.84,29.44-.64-2.47-5.39-8.04-6.78-5.05l-2.71-4.21c.92,6.8.99,18.22-.45,24.81-2.1,9.59-5.05-5.97-5.42-7.15,3.11-9.54-2.33-15.13,0-24.81l3.61,5.89c1.58-2.6-1.25-4.41-.9-5.89.36-1.56,2.69-2.35,2.71-2.52.61-6.6-1.96-12.03-.9-19.35-1.22-.61-2.18-1.19-3.61-1.26v-7.99l2.71,1.26Z"/>
  <path class="cls-3" d="M254.51,332.87c-2.89,8.04-5,16.43-8.13,24.39l-4.52-1.26v9.67c-2.68,6.44-2.25,11.4-7.23,18.51-2.44,3.48-3.33,5.24-7.23,3.36.69-7.17.46-14.28,0-21.45,4.99-2.07,3.58,2.62,5.42,5.05l-.45-23.97,4.97,15.56c1.21-6.76-1.26-14.31-1.36-20.61-.02-1.26.3-2.91,2.26-2.52.22.72.68.96.9,1.68.37,1.18,3.32,16.74,5.42,7.15,1.44-6.59,1.37-18.01.45-24.81l2.71,4.21c1.38-2.99,6.14,2.58,6.78,5.05Z"/>
  <path class="cls-10" d="M274.39,274.83c-3.22,9.48-5.85,19.14-9.03,28.6-2.8-3.26-.21,1.52-4.97,2.52-.27.06-.65-2.98-2.26-1.26-2.53,2.7,1.59,13.58-1.36,17.24-2.18-3-1.32-7.24-2.26-10.94,2.38-5.45-1.53-10.88-1.81-15.56-.04-.62,1.79-.21,1.81-.84.01-.33-4.08-3.06.45-5.47l3.16,4.63v-26.08c2.7-1.34,2.22,4.27,3.16,4.63.33.13,4.23-4.73,5.87-3.79l1.36,13.04,5.87-6.73Z"/>
  <path class="cls-10" d="M834.51,369.89c4.25,8.69,7.3,18.33,11.74,26.92-2.92.55-2.02,1.25-3.61-1.26-13.66-21.51-25.41-53.36-35.23-76.55-4.19-9.88-12.75-22.15-11.74-32.38,11.07,28.49,25.4,55.79,38.85,83.28Z"/>
  <path class="cls-10" d="M239.15,341.29c-.22-.72-.68-.96-.9-1.68-.99-3.16-.95-7.92-2.71-11.36l-3.16,2.1c-.91-.53-2.12-3.33-2.26-4.21-.36-2.23,3.59-20.34,6.32-16.4,1.13-2.97-2.41-14.13,1.81-8.41l-.9-6.73c3.49.65,2.5-1.27,2.71-1.26,1.44.07,2.4.65,3.61,1.26-1.06,7.31,1.51,12.75.9,19.35-.02.18-2.35.96-2.71,2.52-.34,1.48,2.48,3.29.9,5.89l-3.61-5.89c-2.33,9.68,3.11,15.27,0,24.81Z"/>
  <path class="cls-10" d="M246.38,357.27c-1.19,3.02-3.61,6.24-4.52,8.41v-9.67l4.52,1.26Z"/>
  <path class="cls-10" d="M315.95,162.96c-6.19,8.82-8.59,15.74-12.65,25.23s-7.54,18.52-10.84,27.76c-3.41.82-2.16-2.25-1.81-3.79,8.38-36.3,14.94-48.76,40.65-76.13,9.32-9.92,19.74-19.33,29.81-28.6,1.5,1.95,4.32,3.43,3.61,6.31-.8,3.27-42.09,39.66-48.79,49.21Z"/>
  <path class="cls-10" d="M832.71,346.33c-.07-2.12,1.5-3.31.45-5.05-3.94.35.87,5.85-4.07,4.63l.9-11.78-3.61,3.79c.12-8.2-.93-16.66.9-24.81l-8.13,8.41-1.81-31.96c6.45-2.59,5.29,8.27,7.23,12.62,3.25,7.28,4.64,11.36,7.23,18.51.16.43,2.33.56,2.71,1.68.17.51-1.56,2.99-.9,5.05.27.84,2.44,0,2.71.84.7,2.18.58,8.27.9,9.25.13.4,7.85,5.53-.45,2.1.32,2.38-.3,7.37-4.07,6.73Z"/>
  <path class="cls-3" d="M390.03,93.98c-4.14,5.95-8.95,11.43-14,16.82-.08.08-1.07-1.69-2.26-.42-.07.07,1.53,1.01.9,1.68-17.06,18.28-33.47,37.38-49.69,55.52-2.46,2.75-4.77.94-5.42,1.68-.18.21-.99,4.13-1.81,5.05-1.53,1.72-3.01.98-3.61,1.68-.17.2,1.24,2.44-.9,5.05-.71.86-1.99-.01-2.71.84-2.06,2.45-2.39,7.49-7.23,6.31,4.06-9.5,6.46-16.42,12.65-25.23l56.92-55.1c5.87-4.65,11.09-9.41,17.17-13.88Z"/>
  <path class="cls-3" d="M840.66,363.27c-1.16,2.7-2.86,3.76-3.62,6.74-.47,1.84.23,3.77.91,5.48-2.77,6.46-4.92-16.83-5.43-17.7-.17-.29-3.06.93-4.98-.42s.1-2.72-1.36-4.63c-7.16-9.4-5.74-13.24-9.96-22.75-1.01-2.29-3.95-1.1-5.43-4.21-1.42-2.97-3.8-17.87-4.53-18.54l-2.72,2.53-2.72-18.54c-1.24.02-.69,10.75-3.62,5.9-.92-1.53-4.43-14.27-5.43-17.28-2.25-6.76-4.52-13.56-5.43-20.65-5.65,6.65-2.88-7.58-3.62-10.96-.07-.34-2.55-.4-3.62-5.06-.52-2.28,2.76-5.75-.91-5.9-1.46,16.15-7.52-12.06-8.15-16.01-.78-4.96,2.19-21.53-4.53-8.43v-16.85l-2.72,4.21-2.26-15.59-2.26,4.63-4.53-23.6c-1.74-.36-1.68,3.68-2.26,3.79-1.23.24-6.58-19.85-4.98-22.33l-3.62,8.43-9.05-25.28-2.72,4.21-5.43-16.01-1.36,5.48-5.43-12.64-1.81,6.74c-1.44-1.31-1.27-2.22-3.17-3.37l-7.24-13.06,9.96,2.53c-29.22-34.58-92.89-58.04-139.38-60.25.44-2.42-2.51-1.77-4.07-1.69-70.59,3.89-148.37-13.85-209.07,30.34-.43.31-4.71-1.28-4.98,6.32-3.21,3.07-2.19-2.62-3.62-1.69l-4.07,9.69c-.41-.11-2.09-6.68-2.26-7.58-.33-1.74.34-4.24-.91-5.9C453.19-3.04,654.13,13.71,741.1,110.04c34.08,37.75,39.37,96.44,55.21,142.42,12.88,37.39,34.25,72.33,44.35,110.82Z"/>
  <path class="cls-10" d="M348.29,73.38c1.24,1.66.57,4.16.91,5.9-2.94.37-2.61,6.47-3.62,8.01-.73,1.11-13.66,15.9-15.39,17.7-5.24,5.44-4.57.36-5.88,1.26-.64.44-.77,5.79-1.36,6.32-1.77,1.57-6.67.05-6.34,8.43-2.53,2.15-4.96-2.24-5.88-2.11-1.92.28-10.28,25.18-14.03,18.12,1.63,4.97-3.42,6.64-4.53,8.43-1.26,2.04-.54,4.71-1.81,6.74-.8,1.28-2.49-1.41-3.62.84-.27.54.04,7.09-4.07,8.85l-3.17-2.95-7.24,27.81-4.53-14.33c-2.27,4.96.19,32.01-6.34,16.01l-.91,8.43c4.78,3.59-5.48,7.38-1.81,12.22l-.91,3.79c.95-.83-7.33-20.18-8.15-14.33-.22,1.55,3.13,3.86,3.62,5.9,1.65,6.88,2.75,27.28.91,33.71-.1.35-5.34,3.08-5.43,3.37-1.63,5.25,1.53,16.52-.91,22.75-1.04.2-2.31-12.53-4.53-8.43l-3.62,29.49-3.62-5.06-1.81,15.17c-6.88-7.22-4.04,8.19-4.53,13.48l-8.15-10.11c3.86,8.04,2.53,16.67,2.72,25.28l-4.07-8.01-.45,18.12-4.53-5.9v24.44l-5.43-10.11c1.69,7.17,2.01,14.21.91,21.49-1.22-5.33-9.81-3.41-14.48-5.9,22-59.51,31.06-130.6,58.83-187.5,16.82-34.46,61.33-74.1,93.22-97.33Z"/>
  <path class="cls-10" d="M837.04,370.01l7.24,23.17c6.98,17.78,14.09,20.9,26.25,33.71,3.87,4.07,10.08,14.72,14.03,17.28.08.05.79-1.23,1.81-.84.82.31.3,5.99,3.17-.42l13.58,22.75,1.36-4.63c2.68,3.67,8.96,18.12,7.24,6.74,4.21,5.82,9.51,11.81,16.29,15.17,2.93,1.45,26.98,10.33,19.91,2.53l6.79.84c22.02,10.06,44.69,24.31,67.79,31.79-29.58-3.06-64.96-15.75-92.68-25.89-15.29-5.59-26.73-15.45-37.56-26.55-54.46-55.77-79.3-112.13-108.61-181.6l8.15-4.21c1,3.01,4.51,15.75,5.43,17.28,2.93,4.85,2.38-5.88,3.62-5.9l2.72,18.54,2.72-2.53c.72.67,3.11,15.57,4.53,18.54,1.48,3.12,4.42,1.93,5.43,4.21,4.21,9.51,2.79,13.35,9.96,22.75,1.46,1.91-.56,3.28,1.36,4.63s4.81.13,4.98.42c.51.87,2.66,24.16,5.43,17.7-.68-1.71-1.38-3.64-.91-5.48Z"/>
  <path class="cls-3" d="M577.28,43.89c-.97-.05-3.52-.65-3.62-.42,4.41,6.37,20.72.93,24.44,8.01-74.14-14.8-172.38-6.38-231.18,42.51-50.58,42.06-75.6,60.7-96.45,120.97l-11.77-5.9c-3.67-4.84,6.59-8.63,1.81-12.22l.91-8.43c6.52,16,4.06-11.05,6.34-16.01l4.53,14.33,7.24-27.81,3.17,2.95c4.11-1.76,3.8-8.31,4.07-8.85,1.14-2.25,2.82.44,3.62-.84,1.27-2.03.55-4.7,1.81-6.74,1.11-1.79,6.15-3.46,4.53-8.43,3.75,7.06,12.11-17.83,14.03-18.12.92-.14,3.35,4.25,5.88,2.11-.33-8.37,4.57-6.85,6.34-8.43.59-.53.72-5.88,1.36-6.32,1.31-.9.64,4.18,5.88-1.26,1.73-1.8,14.65-16.59,15.39-17.7,1.01-1.53.68-7.64,3.62-8.01.17.9,1.86,7.47,2.26,7.58l4.07-9.69c1.43-.94.41,4.75,3.62,1.69.27-7.6,4.55-6.01,4.98-6.32,60.7-44.19,138.49-26.44,209.07-30.34,1.56-.09,4.51-.74,4.07,1.69Z"/>
  <path class="cls-10" d="M210.72,364.11c-.33,2.16-3.53,12.88-4.53,14.33-5.51,8.01-1.56-3.5-5.43-3.79,1.26,9.86-3.47,19.79-7.24,28.65l-3.62-2.53c-1.46,5.34-2.35,14.58-4.53,19.38-1.33,2.93-2.1-1.69-3.62,0-1.54,1.72-2.42,13.06-5.88,15.59l-1.36-12.22c-1.77,18.62-12.54,35.52-25.34,48.88l-1.81-5.06c-1.57,8.8-7.49,16.98-14.03,23.17-.36.34-4.28-1.59-5.43,5.9l-3.17-8.85c.47,9.27-7.25,15.29-13.12,21.49-3.4-6.68-6.82,8.94-7.24-1.69l-11.77,10.11c-5.36-1.3,2.25-2.55-.91-5.06l-6.34,5.9,2.26-6.74c48.01-33.09,89.39-101.38,108.61-153.37,4.67,2.49,13.26.57,14.48,5.9Z"/>
  <path class="cls-3" d="M206.2,378.44c5.1,2.14,2.53,5.13,1.81,9.27-4.7,27-47.76,91.51-68.79,111.66-27.95,26.78-51.97,51.88-91.98,48.75,20.05-4.86,23.77-25.08,40.39-36.53l-2.26,6.74,6.34-5.9c3.16,2.5-4.46,3.76.91,5.06l11.77-10.11c.42,10.62,3.84-5,7.24,1.69,5.87-6.2,13.59-12.22,13.12-21.49l3.17,8.85c1.15-7.49,5.07-5.56,5.43-5.9,6.54-6.19,12.46-14.38,14.03-23.17l1.81,5.06c12.8-13.36,23.57-30.26,25.34-48.88l1.36,12.22c3.46-2.53,4.34-13.87,5.88-15.59,1.52-1.69,2.29,2.93,3.62,0,2.18-4.8,3.07-14.05,4.53-19.38l3.62,2.53c3.78-8.87,8.5-18.8,7.24-28.65,3.88.29-.08,11.81,5.43,3.79Z"/>
  <path class="cls-3" d="M954.7,486.31l-6.79-.84c7.07,7.8-16.99-1.08-19.91-2.53-6.78-3.36-12.08-9.35-16.29-15.17,1.72,11.38-4.56-3.07-7.24-6.74l-1.36,4.63-13.58-22.75c-2.87,6.41-2.35.73-3.17.42-1.02-.39-1.73.9-1.81.84-3.95-2.55-10.16-13.2-14.03-17.28-12.16-12.8-19.26-15.93-26.25-33.71l-7.24-23.17c.76-2.98,2.46-4.04,3.62-6.74,7.87,12.09,12.32,26.19,21.72,37.5,10.97,13.2,29.45,24.9,41.63,37.92,20.32,21.72,19.73,33.48,50.68,47.61Z"/>
  <path class="cls-3" d="M258.69,209.06l11.77,5.9c-17.94,51.86-32.49,104.5-53.4,155.48-2.22,5.41-5.26,12.71-9.05,17.28.72-4.14,3.29-7.13-1.81-9.27.99-1.44,4.2-12.17,4.53-14.33,1.1-7.27.78-14.32-.91-21.49l5.43,10.11v-24.44l4.53,5.9.45-18.12,4.07,8.01c-.18-8.61,1.15-17.24-2.72-25.28l8.15,10.11c.49-5.29-2.35-20.71,4.53-13.48l1.81-15.17,3.62,5.06,3.62-29.49c2.21-4.1,3.49,8.63,4.53,8.43,2.43-6.23-.72-17.5.91-22.75.09-.29,5.33-3.02,5.43-3.37,1.84-6.43.74-26.83-.91-33.71-.49-2.04-3.84-4.35-3.62-5.9.81-5.85,9.1,13.49,8.15,14.33l.91-3.79Z"/>
  <path class="cls-10" d="M791.78,279.84l-8.15,4.21c-26.74-63.38-31.86-111.73-75.12-170.23,4.66-2.71,2.11-1.18,5.43.84,1.9,1.16,1.73,2.06,3.17,3.37l1.81-6.74,5.43,12.64,1.36-5.48,5.43,16.01,2.72-4.21,9.05,25.28,3.62-8.43c-1.6,2.49,3.75,22.57,4.98,22.33.59-.12.52-4.15,2.26-3.79l4.53,23.6,2.26-4.63,2.26,15.59,2.72-4.21v16.85c6.71-13.1,3.74,3.47,4.53,8.43.62,3.95,6.69,32.17,8.15,16.01,3.67.15.38,3.62.91,5.9,1.07,4.66,3.55,4.72,3.62,5.06.74,3.38-2.03,17.6,3.62,10.96.91,7.09,3.18,13.88,5.43,20.65Z"/>
  <path class="cls-3" d="M577.28,43.89c46.49,2.22,110.16,25.67,139.38,60.25l-9.96-2.53,7.24,13.06c-3.32-2.02-.77-3.56-5.43-.84-27.88-37.7-62.53-52.8-110.42-62.36-3.72-7.08-20.03-1.64-24.44-8.01.1-.22,2.65.38,3.62.42Z"/>
  <path class="cls-5" d="M389.97,126.54s4.14-2.2,5.48,1.33c1.34,3.53,3.89,5.09,4.38,10.33.48,5.24,3.05,13.22,2.84,17.86-.21,4.63-.07,12.18.46,14.65.53,2.47,1.01,7.24,2.86,9.37,1.85,2.13,2.07-.65,1.59-4.66-.48-4.01-1.42-10.01-1.67-13.55-.25-3.55-.74-10.95-.52-15.12s-2.8-10.14-1.9-13.24c.91-3.1-1.4-4.91-.03-6.17,1.37-1.26,3.65-7.17,6.42-4.59,2.77,2.57,3.24,5.34,3.94,7.8.7,2.46,2.79,6.9,2.8,10.14.01,3.24.25,4.32,1.87,6.45s5.1,9.79,5.08,5.47c-.02-4.32-1.18-7.85-2.34-9.99s-1.4-5.69-1.19-8.31c.22-2.63-.94-5.54-2.33-8.29-1.39-2.75-4.85-4.08-.94-5.39s7.84,5.88,8.32,10.96c.48,5.09,3.48,8.12,4.2,14.44.72,6.32,2.8,10.14,2.59,14.31s.82,3.88.82,3.88c0,0,1.65,1.75,2.15.64.5-1.11,1.27-9.65.74-11.61s-2.76-2.14-2.43-5.15c.33-3.01.3-9.47-.4-12.35s-4.16-8.7-4.34-10.43c-.18-1.73-3.29-4.56-2.09-6.66,1.19-2.1,6.23.11,8.35-.62,2.13-.72.41-1.62,4.36-2.73s7.3-3.13,7.3-3.13"/>
  <path class="cls-5" d="M719.12,194.07s2.44-2.5,3.21,1.74c.77,4.24,2.26,6.17,2.52,12.43.26,6.26,1.73,15.84,1.58,21.36-.14,5.52-.1,14.51.2,17.47s.56,8.66,1.64,11.25c1.08,2.59,1.22-.72.95-5.51-.26-4.79-.79-11.97-.92-16.2-.13-4.23-.38-13.07-.24-18.03.14-4.96-1.6-12.16-1.05-15.83.55-3.67-.8-5.9.01-7.36s2.17-8.44,3.79-5.29c1.61,3.15,1.88,6.46,2.28,9.41.4,2.95,1.6,8.3,1.6,12.16s.13,5.15,1.07,7.74c.94,2.59,2.95,11.81,2.96,6.66,0-5.15-.66-9.39-1.33-11.97s-.8-6.82-.66-9.94c.14-3.13-.53-6.63-1.33-9.95-.8-3.32-2.83-5-.53-6.44s4.58,7.23,4.84,13.3c.26,6.07,2.01,9.77,2.4,17.32s1.6,12.16,1.45,17.13c-.14,4.96.46,4.65.46,4.65,0,0,.96,2.13,1.26.82s.79-11.47.49-13.81-1.61-2.63-1.4-6.21c.21-3.57.22-11.28-.18-14.72-.4-3.44-2.4-10.49-2.5-12.55s-1.91-5.53-1.2-7.99,3.65.3,4.91-.5c1.25-.8.25-1.91,2.57-3.12,2.32-1.21,4.3-3.52,4.3-3.52"/>
  <path class="cls-5" d="M444.03,86.48s2.44-2.5,3.21,1.74,2.26,6.17,2.52,12.43c.26,6.26,1.73,15.84,1.58,21.36-.14,5.52-.1,14.51.2,17.47.3,2.96.56,8.66,1.64,11.25s1.22-.72.95-5.51-.79-11.97-.92-16.2c-.13-4.23-.38-13.07-.24-18.03.14-4.96-1.6-12.16-1.05-15.83.55-3.67-.8-5.9.01-7.36s2.17-8.44,3.79-5.29c1.61,3.15,1.88,6.46,2.28,9.41s1.6,8.3,1.6,12.16.13,5.15,1.07,7.74c.94,2.59,2.95,11.81,2.96,6.66,0-5.15-.66-9.39-1.33-11.97-.67-2.58-.8-6.82-.66-9.94s-.53-6.63-1.33-9.95c-.8-3.32-2.83-5-.53-6.44,2.3-1.44,4.58,7.23,4.84,13.3.26,6.07,2.01,9.77,2.4,17.32s1.6,12.16,1.45,17.13.46,4.65.46,4.65c0,0,.96,2.13,1.26.82.3-1.31.79-11.47.49-13.81s-1.61-2.63-1.4-6.21c.21-3.57.22-11.28-.18-14.72s-2.4-10.49-2.5-12.55c-.1-2.06-1.91-5.53-1.2-7.99.71-2.47,3.65.3,4.91-.5s.25-1.91,2.57-3.12,4.3-3.52,4.3-3.52"/>
  <path class="cls-5" d="M475.47,104.81s4.22-.52,4.66,3.96,3.19,23.67,3.14,27.4c-.05,3.73-.04,11.69.11,15.67.14,3.98-.71,12.93,1.53,12.71s1.25-14.08,1.01-18.83c-.25-4.74-1.98-25.11-2.23-29.85-.25-4.74-1.73-8.43-.35-9.03s3.22-.42,3.65,1.88c.43,2.3.94,10.41.9,13.62s.86,4.29.83,7.35c-.04,3.06-.33,5.05.06,8.87.39,3.83,1.46,4.14,1.46,4.14,0,0,1.85-1.2,1.57-3.34-.28-2.14.2-7.17-.04-10.39s-.49-8.27-.77-10.11c-.28-1.84-.52-7.04-.81-8.88s-.84-6.13.84-6.11,3.12,7.38,3.1,9.21.19,8.87.77,11.63.68,7.01.68,7.01l.06,9.22s-.14,5.94,1.11,6.12,1.76-2.95,1.65-6.87c-.11-3.91.88-14.1-.12-18.64-1-4.54-1.36-13.15-1.36-13.15,0,0-1.19-4.15-.09-4.57s2.5-.09,3.11,1.33,3.11,14.44,3.08,16.32.05,9.6.08,12.55.09,8.88.08,11.24-.49,8.94.09,9.88,2.28,1.9,1.85-.61c-.44-2.51.44-7.83,0-10.8-.45-2.98,1.59-16.1,1.17-20.02-.42-3.92-2.22-9.89-2.18-13.8.05-3.91-2.42-6.92-.06-7.51s3.76-.58,5.34-1.5c1.58-.92,2.22-2.32,4.39-.88s2.63,2.07,6.25,1.02,2.83-1.06,6.13-2.43,6.47-2.5,6.47-2.5"/>
  <path class="cls-4" d="M518.73,199.86c.05.42.18,1.11.6,1.85.34.6.73,1.28,1.46,1.46.71.17,1.46-.2,1.87-.6,1.42-1.4.16-4.65,0-5.05-1.12-2.8-4.19-5.85-8.05-5.92-3.65-.07-7.59,2.52-8.57,5.81-2.11,7.02,11.03,11.12,15.82,25.52,2.72,8.17,1.3,15.3-.46,24.14-2.24,11.23-4.31,21.61-12.98,25.91-5.77,2.86-13.35,2.49-18.9-1.17-9.51-6.28-10.68-20.66-5.27-29.49.66-1.08,6.3-10.27,15.07-9.08,6.71.91,12.15,7.48,12.01,14.23-.2,9.11-10.53,16.27-16.37,13.97-3.32-1.3-4.73-5.48-5.29-7.75"/>
  <path class="cls-4" d="M560.94,201.66c-.06.42-.22,1.11-.67,1.83-.36.58-.77,1.26-1.51,1.41-.71.15-1.45-.25-1.85-.67-1.37-1.45,0-4.65.18-5.05,1.21-2.76,4.39-5.7,8.25-5.64,3.65.06,7.49,2.79,8.37,6.11,1.86,7.09-11.41,10.73-16.7,24.96-3,8.07-1.83,15.25-.38,24.14,1.85,11.3,3.55,21.75,12.06,26.35,5.66,3.06,13.26,2.95,18.93-.51,9.72-5.94,11.4-20.28,6.3-29.28-.62-1.1-5.94-10.48-14.74-9.6-6.74.67-12.41,7.05-12.5,13.8-.12,9.12,9.95,16.63,15.87,14.54,3.37-1.19,4.92-5.31,5.55-7.56"/>
  <g>
    <polygon class="cls-4" points="295.14 274.28 295.14 547.16 523.67 557.29 523.67 274.28 295.14 274.28"/>
    <line class="cls-4" x1="295.14" y1="306.04" x2="523.67" y2="306.04"/>
    <polygon class="cls-4" points="295.14 443.5 523.67 451.23 523.67 481.32 295.14 474.21 295.14 443.5"/>
    <polyline class="cls-4" points="313.45 274.28 313.45 547.39 337.46 549.03 332.65 274.28 354.45 274.28 354.45 548.08 376.31 548.59 376.31 274.28 401.29 274.28 395.93 551.63 418.29 551.63 425.74 274.28 443.85 274.28 437.42 552.67 463.99 554.64 467.23 274.28 486.43 274.28 482.09 554.64 503.35 555.54 503.35 274.28 523.67 274.28"/>
    <polygon class="cls-4" points="523.67 186.53 523.67 557.29 529.31 555.9 528.5 186.53 523.67 186.53"/>
    <polyline class="cls-4" points="298.1 262.21 298.72 546.98 295.14 547.16"/>
    <g>
      <path class="cls-4" d="M308.45,279.87c-1.1-.16-2.12.21-2.54.93-.65,1.1.32,2.62,1.27,3.25,1.44.96,3.52.35,4.71-.75,1.88-1.74,1.26-4.43,1.21-4.61-.58-2.3-2.64-3.26-3.18-3.5-2.4-1.11-4.67-.26-5.28,0-.97.41-2.37,1.32-3.69,3.77-4.84,8.97.13,22.7,3.13,25.5.25.24.99.92,2.03.98,1.31.08,2.66-.85,3.27-2.06.7-1.39.23-2.76-.01-3.47-.18-.54-1-2.94-2.62-2.96-1.01-.02-1.89.89-2.24,1.77-.47,1.17-.1,2.59.96,3.56"/>
      <path class="cls-4" d="M318.8,279.28c1.16.11,2.13.84,2.48,1.87.5,1.49-.55,2.9-1.24,3.5-1.41,1.21-3.56,1.04-4.78,0-2.04-1.73-1.78-5.84,0-7.94,1.66-1.96,4.29-1.74,5.77-1.62,2.99.25,5.03,1.92,5.87,2.63,0,0,2.05,1.73,3.45,4.54,3.68,7.36,3.53,17.84-1.12,21.69-.43.36-2.27,1.88-4.29,1.32-1.77-.49-3.25-2.45-3.31-4.56,0-.36-.05-2.08,1.17-3.2,1.16-1.06,2.62-.8,2.92-.74.41.07,1.21.22,1.84.96.57.68.95,1.82.59,2.83-.16.44-.42.73-.6.91"/>
      <path class="cls-4" d="M345.83,279.61c-.36.17-1.3.68-1.82,1.75-.78,1.61-.25,3.7.91,4.49,1.79,1.22,5.36-.45,6.56-3.12.86-1.93.52-4.36-.77-5.89-2.59-3.06-8.39-1.78-11.61,0-.92.51-2.74,1.55-4.01,3.68-1.72,2.89-1.27,5.83-.7,9.52.57,3.69,1.21,7.85,4.6,11.23.93.93,2.77,2.49,5.47,3.32,1.95.6,4.4,1.36,6.44,0,1.63-1.08,3.26-3.46,2.43-5.9-.78-2.31-3.47-3.83-5.66-3.15-1.21.38-2.56,1.53-2.74,3.16-.14,1.24.45,2.19.67,2.51"/>
      <path class="cls-4" d="M478.74,279.63c-.36.17-1.3.68-1.82,1.75-.78,1.61-.25,3.7.91,4.49,1.79,1.22,5.36-.45,6.56-3.12.86-1.93.52-4.36-.77-5.89-2.59-3.06-8.39-1.78-11.61,0-.92.51-2.74,1.55-4.01,3.68-1.72,2.89-1.27,5.83-.7,9.52.57,3.69,1.21,7.85,4.6,11.23.93.93,2.77,2.49,5.47,3.32,1.95.6,4.4,1.36,6.44,0,1.63-1.08,3.26-3.46,2.43-5.9-.78-2.31-3.47-3.83-5.66-3.15-1.21.38-2.56,1.53-2.74,3.16-.14,1.24.45,2.19.67,2.51"/>
      <path class="cls-4" d="M360.7,278.83c1.34.68,2.16,1.97,2.02,3.16-.21,1.78-2.46,2.72-4.11,2.52-1.6-.2-2.53-1.47-2.85-1.9-1.07-1.45-1.66-3.87-.53-5.62,1.06-1.64,3.1-1.88,4.61-2.05,3.12-.36,5.56.73,7,1.4,1.09.5,5.03,2.4,7.4,6.84.13.24.66,1.26,1.12,2.74,1.82,5.84.02,10.84-.6,12.48-.71,1.87-1.47,3.83-3.45,5.36-.67.52-1.88,1.44-3.65,1.59-1.86.17-4.46-.5-5.74-2.68-.81-1.39-1.31-3.75.01-5.34,1.16-1.4,3.05-1.38,3.46-1.38.54,0,2.48.02,3.42,1.51.6.95.47,1.99.41,2.36"/>
      <path class="cls-4" d="M491.22,278.91c1.05.68,1.7,1.97,1.59,3.16-.16,1.78-1.93,2.72-3.22,2.52-1.26-.2-1.99-1.47-2.24-1.9-.84-1.45-1.3-3.87-.41-5.62.83-1.64,2.43-1.88,3.62-2.05,2.45-.36,4.36.73,5.49,1.4.85.5,3.95,2.4,5.81,6.84.1.24.52,1.26.88,2.74,1.43,5.84.01,10.84-.47,12.48-.55,1.87-1.16,3.83-2.71,5.36-.52.52-1.48,1.44-2.87,1.59-1.46.17-3.5-.5-4.5-2.68-.64-1.39-1.03-3.75,0-5.34.91-1.4,2.39-1.38,2.71-1.38.43,0,1.95.02,2.68,1.51.47.95.37,1.99.32,2.36"/>
      <path class="cls-4" d="M394.32,279.46c-.11.03-2.03.65-2.41,2.32-.39,1.72,1.14,3.3,2.49,3.82,2.05.79,4.03-.69,4.86-1.31.63-.47,1.51-1.13,1.88-2.33.47-1.55-.23-2.94-.39-3.26-1.21-2.4-4.22-3.05-6.64-3.58-1.97-.43-6.29-1.32-10.77.78-.97.46-2.73,1.3-4.3,3.17-1.19,1.42-1.72,2.76-2.04,3.61-1.68,4.41-.9,8.57-.4,11.25.23,1.2.51,2.68,1.28,4.52.99,2.38,2,4.81,4.49,6.24.57.33,3.37,1.93,6.27.69,2.44-1.05,3.29-3.4,3.36-3.61.63-1.84.14-3.42-.11-4.2-.34-1.03-1.1-3.36-3.25-3.99-1.41-.41-3.48-.11-4.3,1.31-.87,1.52-.13,4.05,2.17,5.28"/>
      <path class="cls-4" d="M410.69,279.7c1.25,1.77,1.18,4.01,0,5.33-1.56,1.74-5.99,1.57-7.42.35-2.21-1.88-1.61-6.41.22-8.58,3.02-3.59,12.46-2.79,16.9,1.15,5.06,4.49,4.5,12.16,4.2,16.34-.06.85-.24,2.64-1.04,4.74-.84,2.23-1.67,4.45-3.89,5.58-1.82.93-4.56,1.11-6.45-.36-2.97-2.3-2.59-7.7.08-10.08,1.63-1.45,4.63-2.26,6.23-.91.76.65,1.2,1.8,1.03,2.92-.19,1.22-1.09,2.25-2.33,2.69"/>
      <path class="cls-4" d="M452.69,279.7c1.25,1.77,1.18,4.01,0,5.33-1.56,1.74-5.99,1.57-7.42.35-2.21-1.88-1.61-6.41.22-8.58,3.02-3.59,12.46-2.79,16.9,1.15,5.06,4.49,4.5,12.16,4.2,16.34-.06.85-.24,2.64-1.04,4.74-.84,2.23-1.67,4.45-3.89,5.58-1.82.93-4.56,1.11-6.45-.36-2.97-2.3-2.59-7.7.08-10.08,1.63-1.45,4.63-2.26,6.23-.91.76.65,1.2,1.8,1.03,2.92-.19,1.22-1.09,2.25-2.33,2.69"/>
      <path class="cls-4" d="M437.63,278.43c-.64,1.4.53,4.07,4.24,3.73,1.45-.13,1.85-3.81.92-5.56-1.42-2.69-6.82-2.89-10.24-.93-8.36,4.8-9.39,25.21-3.53,29.07,1.72,1.13,4.35,1.38,5.96,0,2.11-1.81,2.64-6.49.68-7.98-1.21-.91-3.22-.51-4.96.81"/>
      <path class="cls-4" d="M517.07,278.33c-.71,1.4.59,4.07,4.73,3.73,1.61-.13,2.06-3.81,1.03-5.56-1.58-2.69-7.6-2.89-11.41-.93-9.32,4.8-10.47,25.21-3.93,29.07,1.92,1.13,4.84,1.38,6.64,0,2.35-1.81,2.95-6.49.76-7.98-1.34-.91-3.58-.51-5.52.81"/>
    </g>
    <path class="cls-4" d="M310.61,449.1c-1.1-.16-2.12.21-2.54.93-.65,1.1.32,2.62,1.27,3.25,1.44.96,3.52.35,4.71-.75,1.88-1.74,1.26-4.43,1.21-4.61-.58-2.3-2.64-3.26-3.18-3.5-2.4-1.11-4.67-.26-5.28,0-.97.41-2.37,1.32-3.69,3.77-4.84,8.97.13,22.7,3.13,25.5.25.24.99.92,2.03.98,1.31.08,2.66-.85,3.27-2.06.7-1.39.23-2.76-.01-3.47-.18-.54-1-2.94-2.62-2.96-1.01-.02-1.89.89-2.24,1.77-.47,1.17-.1,2.59.96,3.56"/>
    <path class="cls-4" d="M320.96,448.51c1.16.11,2.13.84,2.48,1.87.5,1.49-.55,2.9-1.24,3.5-1.41,1.21-3.56,1.04-4.78,0-2.04-1.73-1.78-5.84,0-7.94,1.66-1.96,4.29-1.74,5.77-1.62,2.99.25,5.03,1.92,5.87,2.63,0,0,2.05,1.73,3.45,4.54,3.68,7.36,3.53,17.84-1.12,21.69-.43.36-2.27,1.88-4.29,1.32-1.77-.49-3.25-2.45-3.31-4.56,0-.36-.05-2.08,1.17-3.2,1.16-1.06,2.62-.8,2.92-.74.41.07,1.21.22,1.84.96.57.68.95,1.82.59,2.83-.16.44-.42.73-.6.91"/>
    <path class="cls-4" d="M347.23,450.29c-.34.16-1.21.64-1.7,1.65-.73,1.52-.23,3.49.85,4.24,1.67,1.15,5.02-.42,6.13-2.94.81-1.82.49-4.11-.72-5.55-2.43-2.89-7.85-1.68-10.86,0-.86.48-2.56,1.46-3.75,3.47-1.61,2.72-1.19,5.5-.66,8.98.53,3.48,1.13,7.41,4.3,10.6.87.88,2.59,2.35,5.12,3.13,1.82.57,4.11,1.28,6.02,0,1.52-1.02,3.05-3.26,2.27-5.57-.73-2.18-3.24-3.62-5.29-2.97-1.13.36-2.39,1.44-2.56,2.98-.13,1.17.42,2.07.62,2.37"/>
    <path class="cls-4" d="M476.25,454.08c-.34.17-1.22.67-1.71,1.72-.73,1.59-.23,3.64.85,4.42,1.67,1.2,5.03-.44,6.14-3.07.81-1.9.49-4.29-.72-5.79-2.43-3.01-7.86-1.76-10.88,0-.86.5-2.57,1.53-3.76,3.62-1.61,2.84-1.19,5.74-.66,9.37.53,3.63,1.13,7.73,4.31,11.05.87.91,2.59,2.45,5.13,3.27,1.82.59,4.12,1.33,6.03,0,1.53-1.06,3.05-3.4,2.28-5.81-.73-2.28-3.25-3.77-5.3-3.1-1.13.37-2.4,1.5-2.57,3.11-.13,1.22.42,2.16.62,2.47"/>
    <path class="cls-4" d="M360.52,449.91c1.34.68,2.16,1.97,2.02,3.16-.21,1.78-2.46,2.72-4.11,2.52-1.6-.2-2.53-1.47-2.85-1.9-1.07-1.45-1.66-3.87-.53-5.62,1.06-1.64,3.1-1.88,4.61-2.05,3.12-.36,5.56.73,7,1.4,1.09.5,5.03,2.4,7.4,6.84.13.24.66,1.26,1.12,2.74,1.82,5.84.02,10.84-.6,12.48-.71,1.87-1.47,3.83-3.45,5.36-.67.52-1.88,1.44-3.65,1.59-1.86.17-4.46-.5-5.74-2.68-.81-1.39-1.31-3.75.01-5.34,1.16-1.4,3.05-1.38,3.46-1.38.54,0,2.48.02,3.42,1.51.6.95.47,1.99.41,2.36"/>
    <path class="cls-4" d="M489.62,454.65c1.19.66,1.92,1.9,1.8,3.06-.18,1.72-2.18,2.63-3.64,2.44-1.42-.19-2.25-1.42-2.53-1.84-.95-1.41-1.47-3.74-.47-5.44.94-1.59,2.75-1.82,4.09-1.99,2.77-.35,4.94.71,6.21,1.35.96.49,4.46,2.32,6.57,6.62.11.23.59,1.22,1,2.65,1.62,5.65.01,10.5-.53,12.08-.63,1.81-1.31,3.71-3.06,5.19-.59.5-1.67,1.39-3.24,1.54-1.66.16-3.96-.48-5.09-2.59-.72-1.34-1.16-3.63.01-5.17,1.03-1.35,2.71-1.34,3.07-1.33.48,0,2.2.02,3.03,1.46.53.92.42,1.93.36,2.29"/>
    <path class="cls-4" d="M391.89,451.41c-.09.03-1.76.64-2.09,2.27-.34,1.68.99,3.23,2.16,3.74,1.77.77,3.49-.67,4.21-1.28.54-.46,1.31-1.1,1.63-2.28.41-1.51-.2-2.87-.34-3.2-1.05-2.35-3.65-2.99-5.76-3.51-1.71-.42-5.45-1.29-9.33.76-.84.45-2.37,1.28-3.73,3.11-1.03,1.39-1.49,2.71-1.77,3.54-1.46,4.32-.78,8.39-.34,11.01.2,1.17.44,2.62,1.11,4.43.86,2.33,1.73,4.7,3.89,6.11.5.32,2.92,1.89,5.43.67,2.12-1.03,2.85-3.32,2.91-3.53.55-1.8.12-3.35-.1-4.11-.29-1.01-.95-3.29-2.82-3.91-1.22-.4-3.02-.1-3.72,1.29-.75,1.49-.12,3.96,1.88,5.17"/>
    <path class="cls-4" d="M406.98,452.58c1.22,1.71,1.15,3.87,0,5.15-1.52,1.68-5.83,1.51-7.23.34-2.15-1.81-1.57-6.18.22-8.28,2.94-3.47,12.13-2.69,16.46,1.11,4.93,4.33,4.39,11.73,4.09,15.77-.06.82-.24,2.55-1.01,4.58-.82,2.15-1.63,4.3-3.79,5.39-1.77.9-4.44,1.07-6.28-.34-2.89-2.22-2.52-7.43.08-9.73,1.58-1.4,4.51-2.18,6.06-.87.74.63,1.17,1.74,1,2.82-.19,1.18-1.06,2.17-2.27,2.6"/>
    <path class="cls-4" d="M449.34,453.71c1.4,1.71,1.32,3.87,0,5.15-1.74,1.68-6.68,1.51-8.27.34-2.47-1.81-1.79-6.18.25-8.28,3.37-3.47,13.89-2.69,18.84,1.11,5.64,4.33,5.02,11.73,4.68,15.77-.07.82-.27,2.55-1.15,4.58-.94,2.15-1.87,4.3-4.33,5.39-2.03.9-5.08,1.07-7.19-.34-3.31-2.22-2.89-7.43.09-9.73,1.81-1.4,5.17-2.18,6.94-.87.85.63,1.34,1.74,1.14,2.82-.22,1.18-1.21,2.17-2.6,2.6"/>
    <path class="cls-4" d="M433.57,452.5c-.66,1.31.55,3.8,4.43,3.49,1.51-.12,1.93-3.56.96-5.2-1.48-2.51-7.13-2.7-10.7-.87-8.74,4.49-9.82,23.54-3.68,27.14,1.8,1.06,4.54,1.29,6.22,0,2.21-1.69,2.76-6.06.71-7.45-1.26-.85-3.36-.48-5.18.75"/>
    <path class="cls-4" d="M517.21,455.42c-.71,1.28.59,3.72,4.73,3.41,1.61-.12,2.06-3.48,1.03-5.09-1.58-2.46-7.6-2.64-11.41-.85-9.32,4.39-10.47,23.06-3.93,26.58,1.92,1.03,4.84,1.26,6.64,0,2.35-1.65,2.95-5.94.76-7.3-1.34-.84-3.58-.47-5.52.74"/>
    <polyline class="cls-4" points="298.72 546.98 376.31 477.33 463.99 554.64 523.67 481.32"/>
    <line class="cls-4" x1="298.72" y1="474.32" x2="376.31" y2="548.59"/>
    <polyline class="cls-4" points="376.31 548.59 464.85 480.34 523.67 557.29"/>
  </g>
  <path class="cls-7" d="M767.89,239.61s-37.28-32.49-46.36-42c-9.08-9.52-48.76-56.11-68.9-67.68-20.14-11.57-87.46-33.45-109.94-33.17-27.16.34-111.67,15.37-126.1,25.74-11.34,8.15-111.01,111.88-111.01,111.88l12.94-39.22,7.37-6.37,8.13-13.64s49.04-71.59,68.91-83.09c19.87-11.5,16.63-14.75,24.11-18.2,7.48-3.46,89.1-20.17,128.1-16.57,38.99,3.6,111.49,18.94,135.15,37.33,23.66,18.4,70.33,97.26,68.34,112.75-1.99,15.49,9.26,32.22,9.26,32.22Z"/>
  <path class="cls-6" d="M689.74,171.11s-28.91-14.44-32.76-15.78-11.22-4.32-13.92-4.05-8.12.8-8.12.8c0,0,12.18,6,15.33,9.1s10.01,14.15,9.98,15.89-.1,4.75-.1,4.75c0,0,4.09-2.1,7.59,0,3.5,2.1,9.66,6.64,11.11,9.68,1.46,3.03,1.87,7.47.97,10.31-.9,2.83-1.09,3.62-1.09,3.62,0,0,6.72-1.94,11,.83,4.28,2.77,6.91,6.3,7.71,8.37s1.13,2.71,1.13,2.71c0,0,1.47-5.83,4.72-8.15s4.62-3.24,6.67-4.31,3.24-1.68,5.44-1.8,3.37.22,3.37.22c0,0-3.03-.53-1.27-3.82,1.76-3.29,4.78-2.45,7.14-2.4s3.31.46,3.31.46c0,0-1.04-1.02-1.8-3.03-.76-2.01-.59-3.69-.27-6.43.32-2.74,2.83-8.31,4.26-9.84,1.43-1.53,6.79-6.49,8.06-7.22s3.82-1.24,3.82-1.24c0,0-1.23-14.49-1.16-17.75.07-3.27,2.64-11.45,3.39-13.12s1.37-2.57,1.37-2.57c0,0-2.44,1.87-4.76,3.75s-8.86,10.21-10.82,11.98-14.32,12.81-14.32,12.81l-6.69,4.16s2.56,3.99,3.1,6.82c.54,2.83,1.98,8.83,1.71,10.4-.27,1.57-.7,4.61-1.9,4.59s-2.05.41-2.62-1.29-1.98-3.19-1.98-3.19c0,0-.99,1.33-1.49,2.45s-.88,1.9-.88,1.9l-1.75-2.74-1.65-1.49s-1.39,3.47-1.78,4.81-.17,2.36-2.33,2.55-4.31-.75-5.73-1.91-4.79-6.4-4.01-9.65c.79-3.25.8-4.04,1.2-5.95.4-1.91.79-5.22.79-5.22Z"/>
  <path class="cls-1" d="M752.92,260.01s.94-10.66,3.75-12.37,8.86-4.22,8.86-4.22c0,0-3.41,2.13-3.32,5.35.08,3.22.89,7.04,1.62,7.05s-1.46-.03-2.26,3.47c-.8,3.5-.71,6.72.58,7.77s-2.47-.93-5.28.63c-2.81,1.56-2.95,1.41-3.28,3.3-.33,1.9-.24-2.49-3.76-2.12s-5.4-.69-8.08,1.75l-2.68,2.44s.69-5.25,2.48-6.98,5.49-3.7,5.49-3.7l5.9-2.37Z"/>
  <path class="cls-6" d="M355.37,233.68s-10.51,2.04-11.91,5.01-3.28,9.25-3.28,9.25c0,0,1.76-3.61,4.98-3.86,3.21-.25,7.09.15,7.18.88s-.18-1.45,3.21-2.61,6.61-1.41,7.78-.23-1.18-2.36.08-5.32c1.26-2.96,1.09-3.08,2.94-3.61s-2.5.02-2.5-3.52c0-3.54-1.25-5.3.9-8.22l2.14-2.92s-5.15,1.23-6.68,3.19-3.11,5.84-3.11,5.84l-1.75,6.11Z"/>
  <path class="cls-5" d="M695.71,249.85s.59,5.8,3.76,5.34,4.83-3.74,4.68-5.34,3.16-.8,4.55,0,3.62,3.3,3.95,4.54.2,0-2.64.83-3.74,2.04-3.62,5.02c.12,2.99-.19,1.62-.19,1.62,0,0-1.57-1.32-3.79-.3s-2.59.71-3.17,3.35-.96,2.64-.96,2.64c0,0,.17-2.05-2.58-2.63s-2.28-1.33-3.36-.44l-1.08.89s.57-1.81-.54-3.27c-1.11-1.46-3.32-4.61-4.99-4.65s-5.61-.18-5.61-.18c0,0,.01-.53,2.24-2.23,2.23-1.7,4.6-2.57,6.36-3.21s6.98-1.97,6.98-1.97Z"/>
</svg>