<?xml version="1.0" encoding="UTF-8"?>
<svg id="Layer_1" data-name="Layer 1" xmlns="http://www.w3.org/2000/svg" viewBox="0 0 1055.08 668.25">
  <defs>
    <style>
      .cls-1, .cls-2, .cls-3 {
        fill: #e7a7ba;
      }

      .cls-4 {
        fill: #fefce9;
      }

      .cls-5, .cls-6, .cls-2, .cls-3, .cls-7, .cls-8, .cls-9, .cls-10, .cls-11 {
        stroke-miterlimit: 10;
      }

      .cls-5, .cls-6, .cls-8 {
        fill: #79b1e0;
      }

      .cls-5, .cls-10 {
        stroke: #f9e7e8;
      }

      .cls-6, .cls-3, .cls-9 {
        stroke: #f2a4bb;
      }

      .cls-2, .cls-7, .cls-8 {
        stroke: #e7a7ba;
      }

      .cls-7 {
        fill: #f9e7e8;
      }

      .cls-12 {
        fill: #f2a4bb;
      }

      .cls-9, .cls-10 {
        fill: #fde7e8;
      }

      .cls-11 {
        fill: #69b3e3;
        stroke: #5182bb;
      }
    </style>
  </defs>
  <polygon class="cls-4" points="1.86 127.34 89.78 7.04 520.88 16.92 984.65 46.38 1055.08 157.99 1006.1 196.56 993.87 660.78 22.76 616.49 38.44 161.92 1.86 127.34"/>
  <polygon class="cls-12" points="63.2 144.23 49.31 595.26 587.86 611.85 970.75 634.7 984.65 183.42 601.82 169.09 63.2 144.23"/>
  <polyline class="cls-9" points="67.55 543.83 79.32 161.92 970.52 197.93 959.02 571.28"/>
  <polygon class="cls-3" points="182.55 485.46 183.43 466.99 110.95 465.9 110.43 482.77 101.3 482.49 102.54 456.97 193.75 458.3 193.26 485.8 182.55 485.46"/>
  <polygon class="cls-3" points="459.53 491.61 460.41 473.15 387.92 472.05 387.4 488.92 378.27 488.64 379.52 463.13 470.73 464.46 470.24 491.96 459.53 491.61"/>
  <polygon class="cls-3" points="306.4 488.44 307.22 469.98 247.98 469.29 247.46 486.16 240 485.93 241.16 460.42 315.71 461.23 315.15 488.73 306.4 488.44"/>
  <polygon class="cls-1" points="129.8 229.91 120.93 229.64 121.81 201.04 184.18 203.93 183.3 232.44 173.79 232.15 174 214.75 131.57 212.73 129.8 229.91"/>
  <polygon class="cls-9" points="134.42 216.18 132.45 280.34 171.05 281.53 171.45 217.32 134.42 216.18"/>
  <rect class="cls-8" x="136.32" y="219.86" width="13.84" height="13.05" transform="translate(-87.45 362.59) rotate(-88.24)"/>
  <polygon class="cls-8" points="153.91 233.28 154.34 219.45 167.77 219.86 167.35 233.35 153.91 233.28"/>
  <rect class="cls-8" x="130.05" y="243.83" width="25.01" height="12.93" transform="translate(-112 385.08) rotate(-88.24)"/>
  <polygon class="cls-8" points="153.76 238.03 167.13 238.44 167.17 262.98 153.39 262.77 153.76 238.03"/>
  <rect class="cls-6" x="135.77" y="266.49" width="12.15" height="12.97" transform="translate(-135.37 406.35) rotate(-88.24)"/>
  <rect class="cls-6" x="154.17" y="265.97" width="12.15" height="15.16" transform="translate(-118.1 425.3) rotate(-88.24)"/>
  <polygon class="cls-9" points="123.09 270.83 179 272.56 178.97 273.56 176.48 273.49 176.25 285.08 179.44 285.17 179.4 286.68 122.65 284.93 122.68 283.95 125.55 284.03 125.93 272.12 123.05 272.08 123.09 270.83"/>
  <line class="cls-9" x1="126.24" y1="272.09" x2="176.48" y2="273.49"/>
  <line class="cls-9" x1="125.74" y1="277.97" x2="176.37" y2="279.16"/>
  <polyline class="cls-9" points="130.1 272.2 125.85 274.51 131.33 277.77 140.25 272.51"/>
  <line class="cls-9" x1="126.1" y1="276.9" x2="135.37" y2="272.36"/>
  <line class="cls-9" x1="143.96" y1="278.53" x2="151.22" y2="273.06"/>
  <line class="cls-9" x1="151.19" y1="278.38" x2="157.98" y2="273.06"/>
  <polyline class="cls-9" points="155.88 278.53 162.93 273.42 167.66 279 173.6 273.47"/>
  <line class="cls-9" x1="161.66" y1="278.81" x2="167.84" y2="273.36"/>
  <polyline class="cls-9" points="127.72 272.06 137.43 278.15 145.74 272.9"/>
  <line class="cls-9" x1="133.4" y1="272.24" x2="143.12" y2="278.51"/>
  <line class="cls-9" x1="139.34" y1="272.34" x2="147.3" y2="278.45"/>
  <line class="cls-9" x1="145" y1="272.52" x2="151.65" y2="278.58"/>
  <line class="cls-9" x1="150.75" y1="272.77" x2="156.98" y2="278.56"/>
  <line class="cls-9" x1="156.05" y1="272.86" x2="161.67" y2="278.32"/>
  <polyline class="cls-9" points="168.44 273.39 173.42 279.18 176.45 276.39"/>
  <line class="cls-9" x1="172.8" y1="273.37" x2="176.08" y2="277.55"/>
  <line class="cls-9" x1="125.55" y1="284.03" x2="176.25" y2="285.08"/>
  <path class="cls-9" d="M126.14,283.79s-.45-2.86.11-3.71c.57-.85,1.63-1.77,1.63-1.77,0,0,1.85,1.16,1.83,2.56s-.25,3.24-.25,3.24"/>
  <path class="cls-9" d="M130.36,283.92s-.41-2.85.11-3.71,1.51-1.78,1.51-1.78c0,0,1.72,1.16,1.69,2.55-.02,1.39-.24,3.24-.24,3.24"/>
  <path class="cls-9" d="M134.39,284.04s-.45-2.86.11-3.71,1.63-1.77,1.63-1.77c0,0,1.85,1.16,1.83,2.56-.02,1.39-.25,3.24-.25,3.24"/>
  <path class="cls-9" d="M138.52,284.34s-.45-2.86.11-3.71,1.63-1.77,1.63-1.77c0,0,1.85,1.16,1.83,2.56s-.25,3.24-.25,3.24"/>
  <path class="cls-9" d="M142.48,284.29s-.45-2.86.11-3.71,1.63-1.77,1.63-1.77c0,0,1.85,1.16,1.83,2.56s-.25,3.24-.25,3.24"/>
  <path class="cls-9" d="M146.43,284.41s-.45-2.86.11-3.71,1.63-1.77,1.63-1.77c0,0,1.85,1.16,1.83,2.56s-.25,3.24-.25,3.24"/>
  <path class="cls-9" d="M150.64,284.27s-.45-2.86.11-3.71,1.63-1.77,1.63-1.77c0,0,1.85,1.16,1.83,2.56s-.25,3.24-.25,3.24"/>
  <path class="cls-9" d="M154.56,284.39s-.45-2.86.11-3.71,1.63-1.77,1.63-1.77c0,0,1.85,1.16,1.83,2.56-.02,1.39-.25,3.24-.25,3.24"/>
  <path class="cls-9" d="M158.79,284.52s-.4-2.85.11-3.71,1.46-1.78,1.46-1.78c0,0,1.66,1.16,1.64,2.55-.02,1.39-.23,3.24-.23,3.24"/>
  <path class="cls-9" d="M162.13,284.63s-.4-2.85.11-3.71,1.47-1.78,1.47-1.78c0,0,1.67,1.16,1.65,2.55-.02,1.39-.23,3.24-.23,3.24"/>
  <path class="cls-9" d="M166.01,284.74s-.4-2.85.11-3.71,1.49-1.78,1.49-1.78c0,0,1.69,1.16,1.66,2.55-.02,1.39-.23,3.24-.23,3.24"/>
  <path class="cls-9" d="M169.93,284.87s-.34-2.85.11-3.71,1.3-1.78,1.3-1.78c0,0,1.46,1.15,1.44,2.54s-.22,3.24-.22,3.24"/>
  <path class="cls-9" d="M172.88,284.96s-.35-2.85.11-3.71c.46-.86,1.32-1.78,1.32-1.78,0,0,1.49,1.15,1.47,2.54-.02,1.39-.22,3.24-.22,3.24"/>
  <polyline class="cls-1" points="121.1 283.45 120.96 288.06 179.78 289.87 179.92 285.26"/>
  <polygon class="cls-1" points="260.07 235.61 251.19 235.33 252.08 206.74 314.44 209.63 313.56 238.14 304.06 237.84 304.27 220.44 261.83 218.43 260.07 235.61"/>
  <polygon class="cls-9" points="264.69 221.88 262.71 286.04 301.32 287.23 301.72 223.02 264.69 221.88"/>
  <rect class="cls-8" x="266.59" y="225.56" width="13.84" height="13.05" transform="translate(33.12 498.31) rotate(-88.24)"/>
  <polygon class="cls-8" points="284.18 238.98 284.6 225.14 298.03 225.56 297.62 239.04 284.18 238.98"/>
  <rect class="cls-8" x="260.32" y="249.52" width="25.01" height="12.93" transform="translate(8.56 520.8) rotate(-88.24)"/>
  <polygon class="cls-8" points="284.02 243.72 297.39 244.13 297.44 268.67 283.66 268.47 284.02 243.72"/>
  <rect class="cls-6" x="266.03" y="272.19" width="12.15" height="12.97" transform="translate(-14.81 542.07) rotate(-88.24)"/>
  <rect class="cls-6" x="284.44" y="271.66" width="12.15" height="15.16" transform="translate(2.46 561.02) rotate(-88.24)"/>
  <polygon class="cls-9" points="253.35 276.53 309.27 278.25 309.23 279.26 306.74 279.18 306.52 290.77 309.71 290.87 309.66 292.38 252.92 290.63 252.95 289.65 255.81 289.72 256.19 277.82 253.31 277.77 253.35 276.53"/>
  <line class="cls-9" x1="256.51" y1="277.79" x2="306.74" y2="279.18"/>
  <line class="cls-9" x1="256" y1="283.67" x2="306.63" y2="284.86"/>
  <polyline class="cls-9" points="260.37 277.89 256.11 280.2 261.6 283.47 270.52 278.21"/>
  <line class="cls-9" x1="256.36" y1="282.6" x2="265.64" y2="278.06"/>
  <line class="cls-9" x1="274.22" y1="284.23" x2="281.49" y2="278.76"/>
  <line class="cls-9" x1="281.45" y1="284.08" x2="288.25" y2="278.75"/>
  <polyline class="cls-9" points="286.14 284.22 293.19 279.12 297.93 284.69 303.87 279.17"/>
  <line class="cls-9" x1="291.92" y1="284.51" x2="298.1" y2="279.06"/>
  <polyline class="cls-9" points="257.98 277.76 267.69 283.84 276.01 278.59"/>
  <line class="cls-9" x1="263.66" y1="277.93" x2="273.39" y2="284.2"/>
  <line class="cls-9" x1="269.61" y1="278.04" x2="277.56" y2="284.14"/>
  <line class="cls-9" x1="275.27" y1="278.21" x2="281.91" y2="284.27"/>
  <line class="cls-9" x1="281.01" y1="278.47" x2="287.25" y2="284.26"/>
  <line class="cls-9" x1="286.32" y1="278.55" x2="291.94" y2="284.01"/>
  <polyline class="cls-9" points="298.71 279.09 303.69 284.87 306.72 282.09"/>
  <line class="cls-9" x1="303.06" y1="279.07" x2="306.34" y2="283.24"/>
  <line class="cls-9" x1="255.81" y1="289.72" x2="306.52" y2="290.77"/>
  <path class="cls-9" d="M256.41,289.48s-.45-2.86.11-3.71,1.63-1.77,1.63-1.77c0,0,1.85,1.16,1.83,2.56s-.25,3.24-.25,3.24"/>
  <path class="cls-9" d="M260.63,289.61s-.41-2.85.11-3.71,1.51-1.78,1.51-1.78c0,0,1.72,1.16,1.69,2.55-.02,1.39-.24,3.24-.24,3.24"/>
  <path class="cls-9" d="M264.65,289.74s-.45-2.86.11-3.71c.57-.85,1.63-1.77,1.63-1.77,0,0,1.85,1.16,1.83,2.56s-.25,3.24-.25,3.24"/>
  <path class="cls-9" d="M268.79,290.03s-.45-2.86.11-3.71,1.63-1.77,1.63-1.77c0,0,1.85,1.16,1.83,2.56-.02,1.39-.25,3.24-.25,3.24"/>
  <path class="cls-9" d="M272.75,289.99s-.45-2.86.11-3.71,1.63-1.77,1.63-1.77c0,0,1.85,1.16,1.83,2.56-.02,1.39-.25,3.24-.25,3.24"/>
  <path class="cls-9" d="M276.69,290.11s-.45-2.86.11-3.71c.57-.85,1.63-1.77,1.63-1.77,0,0,1.85,1.16,1.83,2.56-.02,1.39-.25,3.24-.25,3.24"/>
  <path class="cls-9" d="M280.9,289.97s-.45-2.86.11-3.71,1.63-1.77,1.63-1.77c0,0,1.85,1.16,1.83,2.56-.02,1.39-.25,3.24-.25,3.24"/>
  <path class="cls-9" d="M284.82,290.09s-.45-2.86.11-3.71,1.63-1.77,1.63-1.77c0,0,1.85,1.16,1.83,2.56-.02,1.39-.25,3.24-.25,3.24"/>
  <path class="cls-9" d="M289.06,290.22s-.4-2.85.11-3.71,1.46-1.78,1.46-1.78c0,0,1.66,1.16,1.64,2.55-.02,1.39-.23,3.24-.23,3.24"/>
  <path class="cls-9" d="M292.4,290.32s-.4-2.85.11-3.71,1.47-1.78,1.47-1.78c0,0,1.67,1.16,1.65,2.55-.02,1.39-.23,3.24-.23,3.24"/>
  <path class="cls-9" d="M296.27,290.44s-.4-2.85.11-3.71,1.49-1.78,1.49-1.78c0,0,1.69,1.16,1.66,2.55s-.23,3.24-.23,3.24"/>
  <path class="cls-9" d="M300.2,290.56s-.34-2.85.11-3.71c.45-.86,1.3-1.78,1.3-1.78,0,0,1.46,1.15,1.44,2.54s-.22,3.24-.22,3.24"/>
  <path class="cls-9" d="M303.14,290.65s-.35-2.85.11-3.71,1.32-1.78,1.32-1.78c0,0,1.49,1.15,1.47,2.54-.02,1.39-.22,3.24-.22,3.24"/>
  <polyline class="cls-1" points="251.37 289.15 251.23 293.76 310.05 295.57 310.19 290.96"/>
  <polygon class="cls-1" points="398.25 240.03 389.38 239.76 390.26 211.16 452.63 214.05 451.75 242.56 442.24 242.27 442.46 224.87 400.02 222.85 398.25 240.03"/>
  <polygon class="cls-9" points="402.88 226.3 400.9 290.46 439.51 291.65 439.9 227.44 402.88 226.3"/>
  <rect class="cls-8" x="404.77" y="229.98" width="13.84" height="13.05" transform="translate(162.63 640.72) rotate(-88.24)"/>
  <polygon class="cls-8" points="422.36 243.4 422.79 229.56 436.22 229.98 435.8 243.46 422.36 243.4"/>
  <rect class="cls-8" x="398.51" y="253.94" width="25.01" height="12.93" transform="translate(138.07 663.21) rotate(-88.24)"/>
  <polygon class="cls-8" points="422.21 248.14 435.58 248.55 435.63 273.09 421.84 272.89 422.21 248.14"/>
  <rect class="cls-6" x="404.22" y="276.61" width="12.15" height="12.97" transform="translate(114.7 684.48) rotate(-88.24)"/>
  <rect class="cls-6" x="422.63" y="276.08" width="12.15" height="15.16" transform="translate(131.97 703.43) rotate(-88.24)"/>
  <polygon class="cls-9" points="391.54 280.95 447.45 282.67 447.42 283.68 444.93 283.6 444.7 295.19 447.89 295.29 447.85 296.8 391.1 295.05 391.13 294.07 394 294.15 394.38 282.24 391.5 282.2 391.54 280.95"/>
  <line class="cls-9" x1="394.7" y1="282.21" x2="444.93" y2="283.6"/>
  <line class="cls-9" x1="394.19" y1="288.09" x2="444.82" y2="289.28"/>
  <polyline class="cls-9" points="398.56 282.32 394.3 284.62 399.79 287.89 408.7 282.63"/>
  <line class="cls-9" x1="394.55" y1="287.02" x2="403.82" y2="282.48"/>
  <line class="cls-9" x1="412.41" y1="288.65" x2="419.67" y2="283.18"/>
  <line class="cls-9" x1="419.64" y1="288.5" x2="426.43" y2="283.17"/>
  <polyline class="cls-9" points="424.33 288.65 431.38 283.54 436.11 289.12 442.05 283.59"/>
  <line class="cls-9" x1="430.11" y1="288.93" x2="436.29" y2="283.48"/>
  <polyline class="cls-9" points="396.17 282.18 405.88 288.26 414.19 283.01"/>
  <line class="cls-9" x1="401.85" y1="282.35" x2="411.57" y2="288.62"/>
  <line class="cls-9" x1="407.79" y1="282.46" x2="415.75" y2="288.57"/>
  <line class="cls-9" x1="413.45" y1="282.63" x2="420.1" y2="288.7"/>
  <line class="cls-9" x1="419.2" y1="282.89" x2="425.44" y2="288.68"/>
  <line class="cls-9" x1="424.5" y1="282.97" x2="430.12" y2="288.43"/>
  <polyline class="cls-9" points="436.9 283.51 441.88 289.29 444.9 286.51"/>
  <line class="cls-9" x1="441.25" y1="283.49" x2="444.53" y2="287.67"/>
  <line class="cls-9" x1="394" y1="294.15" x2="444.7" y2="295.19"/>
  <path class="cls-9" d="M394.6,293.91s-.45-2.86.11-3.71,1.63-1.77,1.63-1.77c0,0,1.85,1.16,1.83,2.56-.02,1.39-.25,3.24-.25,3.24"/>
  <path class="cls-9" d="M398.81,294.04s-.41-2.85.11-3.71,1.51-1.78,1.51-1.78c0,0,1.72,1.16,1.69,2.55-.02,1.39-.24,3.24-.24,3.24"/>
  <path class="cls-9" d="M402.84,294.16s-.45-2.86.11-3.71,1.63-1.77,1.63-1.77c0,0,1.85,1.16,1.83,2.56-.02,1.39-.25,3.24-.25,3.24"/>
  <path class="cls-9" d="M406.98,294.46s-.45-2.86.11-3.71c.57-.85,1.63-1.77,1.63-1.77,0,0,1.85,1.16,1.83,2.56-.02,1.39-.25,3.24-.25,3.24"/>
  <path class="cls-9" d="M410.93,294.41s-.45-2.86.11-3.71c.57-.85,1.63-1.77,1.63-1.77,0,0,1.85,1.16,1.83,2.56s-.25,3.24-.25,3.24"/>
  <path class="cls-9" d="M414.88,294.53s-.45-2.86.11-3.71,1.63-1.77,1.63-1.77c0,0,1.85,1.16,1.83,2.56s-.25,3.24-.25,3.24"/>
  <path class="cls-9" d="M419.09,294.39s-.45-2.86.11-3.71c.57-.85,1.63-1.77,1.63-1.77,0,0,1.85,1.16,1.83,2.56s-.25,3.24-.25,3.24"/>
  <path class="cls-9" d="M423.01,294.51s-.45-2.86.11-3.71,1.63-1.77,1.63-1.77c0,0,1.85,1.16,1.83,2.56-.02,1.39-.25,3.24-.25,3.24"/>
  <path class="cls-9" d="M427.25,294.64s-.4-2.85.11-3.71,1.46-1.78,1.46-1.78c0,0,1.66,1.16,1.64,2.55-.02,1.39-.23,3.24-.23,3.24"/>
  <path class="cls-9" d="M430.59,294.74s-.4-2.85.11-3.71,1.47-1.78,1.47-1.78c0,0,1.67,1.16,1.65,2.55s-.23,3.24-.23,3.24"/>
  <path class="cls-9" d="M434.46,294.86s-.4-2.85.11-3.71,1.49-1.78,1.49-1.78c0,0,1.69,1.16,1.66,2.55-.02,1.39-.23,3.24-.23,3.24"/>
  <path class="cls-9" d="M438.38,294.98s-.34-2.85.11-3.71,1.3-1.78,1.3-1.78c0,0,1.46,1.15,1.44,2.54s-.22,3.24-.22,3.24"/>
  <path class="cls-9" d="M441.33,295.07s-.35-2.85.11-3.71,1.32-1.78,1.32-1.78c0,0,1.49,1.15,1.47,2.54-.02,1.39-.22,3.24-.22,3.24"/>
  <polyline class="cls-1" points="389.56 293.57 389.41 298.18 448.23 299.99 448.37 295.38"/>
  <polygon class="cls-1" points="125.77 355.48 116.9 355.2 117.78 326.61 180.15 329.5 179.27 358.01 169.76 357.72 169.98 340.31 127.54 338.3 125.77 355.48"/>
  <polygon class="cls-9" points="130.4 341.75 128.42 405.91 167.03 407.1 167.42 342.89 130.4 341.75"/>
  <rect class="cls-8" x="132.29" y="345.43" width="13.84" height="13.05" transform="translate(-216.86 480.26) rotate(-88.24)"/>
  <polygon class="cls-8" points="149.88 358.85 150.31 345.01 163.74 345.43 163.32 358.91 149.88 358.85"/>
  <rect class="cls-8" x="126.03" y="369.39" width="25.01" height="12.93" transform="translate(-241.41 502.75) rotate(-88.24)"/>
  <polygon class="cls-8" points="149.73 363.59 163.1 364 163.15 388.54 149.36 388.34 149.73 363.59"/>
  <rect class="cls-6" x="131.74" y="392.06" width="12.15" height="12.97" transform="translate(-264.78 524.02) rotate(-88.24)"/>
  <rect class="cls-6" x="150.15" y="391.53" width="12.15" height="15.16" transform="translate(-247.51 542.97) rotate(-88.24)"/>
  <polygon class="cls-9" points="119.06 396.4 174.97 398.12 174.94 399.13 172.45 399.05 172.22 410.64 175.41 410.74 175.37 412.25 118.62 410.5 118.65 409.52 121.52 409.6 121.9 397.69 119.02 397.64 119.06 396.4"/>
  <line class="cls-9" x1="122.22" y1="397.66" x2="172.45" y2="399.05"/>
  <line class="cls-9" x1="121.71" y1="403.54" x2="172.34" y2="404.73"/>
  <polyline class="cls-9" points="126.08 397.76 121.82 400.07 127.31 403.34 136.22 398.08"/>
  <line class="cls-9" x1="122.07" y1="402.47" x2="131.34" y2="397.93"/>
  <line class="cls-9" x1="139.93" y1="404.1" x2="147.19" y2="398.63"/>
  <line class="cls-9" x1="147.16" y1="403.95" x2="153.95" y2="398.62"/>
  <polyline class="cls-9" points="151.85 404.09 158.9 398.99 163.63 404.57 169.57 399.04"/>
  <line class="cls-9" x1="157.63" y1="404.38" x2="163.81" y2="398.93"/>
  <polyline class="cls-9" points="123.69 397.63 133.4 403.71 141.71 398.46"/>
  <line class="cls-9" x1="129.37" y1="397.8" x2="139.09" y2="404.07"/>
  <line class="cls-9" x1="135.31" y1="397.91" x2="143.27" y2="404.02"/>
  <line class="cls-9" x1="140.97" y1="398.08" x2="147.62" y2="404.15"/>
  <line class="cls-9" x1="146.72" y1="398.34" x2="152.96" y2="404.13"/>
  <line class="cls-9" x1="152.02" y1="398.42" x2="157.64" y2="403.88"/>
  <polyline class="cls-9" points="164.42 398.96 169.4 404.74 172.42 401.96"/>
  <line class="cls-9" x1="168.77" y1="398.94" x2="172.05" y2="403.12"/>
  <line class="cls-9" x1="121.52" y1="409.6" x2="172.22" y2="410.64"/>
  <path class="cls-9" d="M122.12,409.36s-.45-2.86.11-3.71,1.63-1.77,1.63-1.77c0,0,1.85,1.16,1.83,2.56s-.25,3.24-.25,3.24"/>
  <path class="cls-9" d="M126.33,409.49s-.41-2.85.11-3.71,1.51-1.78,1.51-1.78c0,0,1.72,1.16,1.69,2.55-.02,1.39-.24,3.24-.24,3.24"/>
  <path class="cls-9" d="M130.36,409.61s-.45-2.86.11-3.71,1.63-1.77,1.63-1.77c0,0,1.85,1.16,1.83,2.56s-.25,3.24-.25,3.24"/>
  <path class="cls-9" d="M134.49,409.91s-.45-2.86.11-3.71,1.63-1.77,1.63-1.77c0,0,1.85,1.16,1.83,2.56-.02,1.39-.25,3.24-.25,3.24"/>
  <path class="cls-9" d="M138.45,409.86s-.45-2.86.11-3.71,1.63-1.77,1.63-1.77c0,0,1.85,1.16,1.83,2.56-.02,1.39-.25,3.24-.25,3.24"/>
  <path class="cls-9" d="M142.4,409.98s-.45-2.86.11-3.71,1.63-1.77,1.63-1.77c0,0,1.85,1.16,1.83,2.56-.02,1.39-.25,3.24-.25,3.24"/>
  <path class="cls-9" d="M146.61,409.84s-.45-2.86.11-3.71,1.63-1.77,1.63-1.77c0,0,1.85,1.16,1.83,2.56-.02,1.39-.25,3.24-.25,3.24"/>
  <path class="cls-9" d="M150.53,409.96s-.45-2.86.11-3.71,1.63-1.77,1.63-1.77c0,0,1.85,1.16,1.83,2.56-.02,1.39-.25,3.24-.25,3.24"/>
  <path class="cls-9" d="M154.77,410.09s-.4-2.85.11-3.71,1.46-1.78,1.46-1.78c0,0,1.66,1.16,1.64,2.55-.02,1.39-.23,3.24-.23,3.24"/>
  <path class="cls-9" d="M158.11,410.19s-.4-2.85.11-3.71,1.47-1.78,1.47-1.78c0,0,1.67,1.16,1.65,2.55-.02,1.39-.23,3.24-.23,3.24"/>
  <path class="cls-9" d="M161.98,410.31s-.4-2.85.11-3.71,1.49-1.78,1.49-1.78c0,0,1.69,1.16,1.66,2.55s-.23,3.24-.23,3.24"/>
  <path class="cls-9" d="M165.9,410.43s-.34-2.85.11-3.71,1.3-1.78,1.3-1.78c0,0,1.46,1.15,1.44,2.54s-.22,3.24-.22,3.24"/>
  <path class="cls-9" d="M168.85,410.52s-.35-2.85.11-3.71,1.32-1.78,1.32-1.78c0,0,1.49,1.15,1.47,2.54-.02,1.39-.22,3.24-.22,3.24"/>
  <polyline class="cls-1" points="117.07 409.02 116.93 413.63 175.75 415.44 175.89 410.83"/>
  <polygon class="cls-1" points="256.04 361.17 247.17 360.9 248.05 332.3 310.41 335.19 309.53 363.7 300.03 363.41 300.24 346.01 257.8 343.99 256.04 361.17"/>
  <polygon class="cls-9" points="260.66 347.44 258.68 411.6 297.29 412.79 297.69 348.58 260.66 347.44"/>
  <rect class="cls-8" x="262.56" y="351.12" width="13.84" height="13.05" transform="translate(-96.3 615.98) rotate(-88.24)"/>
  <polygon class="cls-8" points="280.15 364.54 280.57 350.71 294 351.12 293.59 364.61 280.15 364.54"/>
  <rect class="cls-8" x="256.29" y="375.09" width="25.01" height="12.93" transform="translate(-120.85 638.48) rotate(-88.24)"/>
  <polygon class="cls-8" points="280 369.29 293.36 369.7 293.41 394.24 279.63 394.03 280 369.29"/>
  <rect class="cls-6" x="262" y="397.75" width="12.15" height="12.97" transform="translate(-144.22 659.75) rotate(-88.24)"/>
  <rect class="cls-6" x="280.41" y="397.23" width="12.15" height="15.16" transform="translate(-126.95 678.69) rotate(-88.24)"/>
  <polygon class="cls-9" points="249.32 402.09 305.24 403.82 305.21 404.82 302.72 404.75 302.49 416.34 305.68 416.43 305.63 417.94 248.89 416.19 248.92 415.21 251.78 415.29 252.16 403.38 249.28 403.34 249.32 402.09"/>
  <line class="cls-9" x1="252.48" y1="403.35" x2="302.72" y2="404.75"/>
  <line class="cls-9" x1="251.98" y1="409.23" x2="302.6" y2="410.42"/>
  <polyline class="cls-9" points="256.34 403.46 252.09 405.77 257.57 409.03 266.49 403.77"/>
  <line class="cls-9" x1="252.33" y1="408.16" x2="261.61" y2="403.62"/>
  <line class="cls-9" x1="270.19" y1="409.79" x2="277.46" y2="404.32"/>
  <line class="cls-9" x1="277.43" y1="409.64" x2="284.22" y2="404.32"/>
  <polyline class="cls-9" points="282.11 409.79 289.16 404.69 293.9 410.26 299.84 404.73"/>
  <line class="cls-9" x1="287.89" y1="410.08" x2="294.07" y2="404.62"/>
  <polyline class="cls-9" points="253.95 403.32 263.66 409.41 271.98 404.16"/>
  <line class="cls-9" x1="259.64" y1="403.5" x2="269.36" y2="409.77"/>
  <line class="cls-9" x1="265.58" y1="403.6" x2="273.53" y2="409.71"/>
  <line class="cls-9" x1="271.24" y1="403.78" x2="277.88" y2="409.84"/>
  <line class="cls-9" x1="276.99" y1="404.03" x2="283.22" y2="409.82"/>
  <line class="cls-9" x1="282.29" y1="404.12" x2="287.91" y2="409.58"/>
  <polyline class="cls-9" points="294.68 404.65 299.66 410.44 302.69 407.65"/>
  <line class="cls-9" x1="299.04" y1="404.63" x2="302.31" y2="408.81"/>
  <line class="cls-9" x1="251.78" y1="415.29" x2="302.49" y2="416.34"/>
  <path class="cls-9" d="M252.38,415.05s-.45-2.86.11-3.71c.57-.85,1.63-1.77,1.63-1.77,0,0,1.85,1.16,1.83,2.56s-.25,3.24-.25,3.24"/>
  <path class="cls-9" d="M256.6,415.18s-.41-2.85.11-3.71,1.51-1.78,1.51-1.78c0,0,1.72,1.16,1.69,2.55-.02,1.39-.24,3.24-.24,3.24"/>
  <path class="cls-9" d="M260.63,415.3s-.45-2.86.11-3.71c.57-.85,1.63-1.77,1.63-1.77,0,0,1.85,1.16,1.83,2.56-.02,1.39-.25,3.24-.25,3.24"/>
  <path class="cls-9" d="M264.76,415.6s-.45-2.86.11-3.71c.57-.85,1.63-1.77,1.63-1.77,0,0,1.85,1.16,1.83,2.56s-.25,3.24-.25,3.24"/>
  <path class="cls-9" d="M268.72,415.55s-.45-2.86.11-3.71,1.63-1.77,1.63-1.77c0,0,1.85,1.16,1.83,2.56-.02,1.39-.25,3.24-.25,3.24"/>
  <path class="cls-9" d="M272.66,415.68s-.45-2.86.11-3.71c.57-.85,1.63-1.77,1.63-1.77,0,0,1.85,1.16,1.83,2.56s-.25,3.24-.25,3.24"/>
  <path class="cls-9" d="M276.87,415.53s-.45-2.86.11-3.71,1.63-1.77,1.63-1.77c0,0,1.85,1.16,1.83,2.56s-.25,3.24-.25,3.24"/>
  <path class="cls-9" d="M280.79,415.65s-.45-2.86.11-3.71,1.63-1.77,1.63-1.77c0,0,1.85,1.16,1.83,2.56-.02,1.39-.25,3.24-.25,3.24"/>
  <path class="cls-9" d="M285.03,415.78s-.4-2.85.11-3.71c.51-.85,1.46-1.78,1.46-1.78,0,0,1.66,1.16,1.64,2.55-.02,1.39-.23,3.24-.23,3.24"/>
  <path class="cls-9" d="M288.37,415.89s-.4-2.85.11-3.71c.51-.85,1.47-1.78,1.47-1.78,0,0,1.67,1.16,1.65,2.55s-.23,3.24-.23,3.24"/>
  <path class="cls-9" d="M292.24,416.01s-.4-2.85.11-3.71c.52-.85,1.49-1.78,1.49-1.78,0,0,1.69,1.16,1.66,2.55-.02,1.39-.23,3.24-.23,3.24"/>
  <path class="cls-9" d="M296.17,416.13s-.34-2.85.11-3.71,1.3-1.78,1.3-1.78c0,0,1.46,1.15,1.44,2.54-.02,1.39-.22,3.24-.22,3.24"/>
  <path class="cls-9" d="M299.12,416.22s-.35-2.85.11-3.71c.46-.86,1.32-1.78,1.32-1.78,0,0,1.49,1.15,1.47,2.54-.02,1.39-.22,3.24-.22,3.24"/>
  <polyline class="cls-1" points="247.34 414.71 247.2 419.32 306.02 421.14 306.16 416.52"/>
  <polygon class="cls-1" points="394.22 365.59 385.35 365.32 386.23 336.72 448.6 339.61 447.72 368.12 438.21 367.83 438.43 350.43 395.99 348.41 394.22 365.59"/>
  <polygon class="cls-9" points="398.85 351.87 396.87 416.02 435.48 417.21 435.87 353.01 398.85 351.87"/>
  <rect class="cls-8" x="400.74" y="355.54" width="13.84" height="13.05" transform="translate(33.22 758.39) rotate(-88.24)"/>
  <polygon class="cls-8" points="418.33 368.96 418.76 355.13 432.19 355.54 431.77 369.03 418.33 368.96"/>
  <rect class="cls-8" x="394.48" y="379.51" width="25.01" height="12.93" transform="translate(8.66 780.88) rotate(-88.24)"/>
  <polygon class="cls-8" points="418.18 373.71 431.55 374.12 431.6 398.66 417.81 398.45 418.18 373.71"/>
  <rect class="cls-6" x="400.19" y="402.17" width="12.15" height="12.97" transform="translate(-14.71 802.15) rotate(-88.24)"/>
  <rect class="cls-6" x="418.6" y="401.65" width="12.15" height="15.16" transform="translate(2.56 821.1) rotate(-88.24)"/>
  <polygon class="cls-1" points="599.2 244.06 590.33 243.78 591.21 215.19 653.58 218.08 652.7 246.59 643.19 246.29 643.41 228.89 600.97 226.88 599.2 244.06"/>
  <polygon class="cls-9" points="603.82 230.33 601.85 294.49 640.45 295.68 640.85 231.47 603.82 230.33"/>
  <rect class="cls-8" x="605.72" y="234" width="13.84" height="13.05" transform="translate(353.36 845.47) rotate(-88.24)"/>
  <polygon class="cls-8" points="623.31 247.43 623.74 233.59 637.17 234.01 636.75 247.49 623.31 247.43"/>
  <rect class="cls-8" x="599.45" y="257.97" width="25.01" height="12.93" transform="translate(328.81 867.97) rotate(-88.24)"/>
  <polygon class="cls-8" points="623.16 252.17 636.53 252.58 636.57 277.12 622.79 276.92 623.16 252.17"/>
  <rect class="cls-6" x="605.17" y="280.64" width="12.15" height="12.97" transform="translate(305.44 889.24) rotate(-88.24)"/>
  <rect class="cls-6" x="623.57" y="280.11" width="12.15" height="15.16" transform="translate(322.71 908.18) rotate(-88.24)"/>
  <polygon class="cls-9" points="592.49 284.98 648.4 286.7 648.37 287.71 645.88 287.63 645.65 299.22 648.84 299.32 648.8 300.82 592.05 299.08 592.08 298.09 594.95 298.17 595.33 286.27 592.45 286.22 592.49 284.98"/>
  <line class="cls-9" x1="595.64" y1="286.24" x2="645.88" y2="287.63"/>
  <line class="cls-9" x1="595.14" y1="292.12" x2="645.77" y2="293.3"/>
  <polyline class="cls-9" points="599.51 286.34 595.25 288.65 600.73 291.92 609.65 286.66"/>
  <line class="cls-9" x1="595.5" y1="291.05" x2="604.77" y2="286.5"/>
  <line class="cls-9" x1="613.36" y1="292.68" x2="620.62" y2="287.21"/>
  <line class="cls-9" x1="620.59" y1="292.53" x2="627.38" y2="287.2"/>
  <polyline class="cls-9" points="625.28 292.67 632.33 287.57 637.06 293.14 643 287.62"/>
  <line class="cls-9" x1="631.06" y1="292.96" x2="637.24" y2="287.5"/>
  <polyline class="cls-9" points="597.12 286.21 606.83 292.29 615.14 287.04"/>
  <line class="cls-9" x1="602.8" y1="286.38" x2="612.52" y2="292.65"/>
  <line class="cls-9" x1="608.74" y1="286.49" x2="616.7" y2="292.59"/>
  <line class="cls-9" x1="614.4" y1="286.66" x2="621.05" y2="292.72"/>
  <line class="cls-9" x1="620.15" y1="286.92" x2="626.38" y2="292.71"/>
  <line class="cls-9" x1="625.45" y1="287" x2="631.07" y2="292.46"/>
  <polyline class="cls-9" points="637.84 287.54 642.83 293.32 645.85 290.54"/>
  <line class="cls-9" x1="642.2" y1="287.52" x2="645.48" y2="291.69"/>
  <line class="cls-9" x1="594.95" y1="298.17" x2="645.65" y2="299.22"/>
  <path class="cls-9" d="M595.54,297.93s-.45-2.86.11-3.71,1.63-1.77,1.63-1.77c0,0,1.85,1.16,1.83,2.56s-.25,3.24-.25,3.24"/>
  <path class="cls-9" d="M599.76,298.06s-.41-2.85.11-3.71,1.51-1.78,1.51-1.78c0,0,1.72,1.16,1.69,2.55s-.24,3.24-.24,3.24"/>
  <path class="cls-9" d="M603.79,298.19s-.45-2.86.11-3.71,1.63-1.77,1.63-1.77c0,0,1.85,1.16,1.83,2.56s-.25,3.24-.25,3.24"/>
  <path class="cls-9" d="M607.92,298.48s-.45-2.86.11-3.71,1.63-1.77,1.63-1.77c0,0,1.85,1.16,1.83,2.56s-.25,3.24-.25,3.24"/>
  <path class="cls-9" d="M611.88,298.44s-.45-2.86.11-3.71,1.63-1.77,1.63-1.77c0,0,1.85,1.16,1.83,2.56s-.25,3.24-.25,3.24"/>
  <path class="cls-9" d="M615.83,298.56s-.45-2.86.11-3.71,1.63-1.77,1.63-1.77c0,0,1.85,1.16,1.83,2.56s-.25,3.24-.25,3.24"/>
  <path class="cls-9" d="M620.04,298.42s-.45-2.86.11-3.71,1.63-1.77,1.63-1.77c0,0,1.85,1.16,1.83,2.56s-.25,3.24-.25,3.24"/>
  <path class="cls-9" d="M623.96,298.54s-.45-2.86.11-3.71,1.63-1.77,1.63-1.77c0,0,1.85,1.16,1.83,2.56s-.25,3.24-.25,3.24"/>
  <path class="cls-9" d="M628.19,298.67s-.4-2.85.11-3.71,1.46-1.78,1.46-1.78c0,0,1.66,1.16,1.64,2.55s-.23,3.24-.23,3.24"/>
  <path class="cls-9" d="M631.53,298.77s-.4-2.85.11-3.71,1.47-1.78,1.47-1.78c0,0,1.67,1.16,1.65,2.55s-.23,3.24-.23,3.24"/>
  <path class="cls-9" d="M635.41,298.89s-.4-2.85.11-3.71,1.49-1.78,1.49-1.78c0,0,1.69,1.16,1.66,2.55s-.23,3.24-.23,3.24"/>
  <path class="cls-9" d="M639.33,299.01s-.34-2.85.11-3.71,1.3-1.78,1.3-1.78c0,0,1.46,1.15,1.44,2.54s-.22,3.24-.22,3.24"/>
  <path class="cls-9" d="M642.28,299.1s-.35-2.85.11-3.71,1.32-1.78,1.32-1.78c0,0,1.49,1.15,1.47,2.54-.02,1.39-.22,3.24-.22,3.24"/>
  <polyline class="cls-1" points="590.5 297.59 590.36 302.21 649.18 304.02 649.32 299.41"/>
  <polygon class="cls-1" points="729.47 249.75 720.59 249.48 721.48 220.88 783.84 223.77 782.96 252.28 773.46 251.99 773.67 234.59 731.23 232.57 729.47 249.75"/>
  <polygon class="cls-9" points="734.09 236.02 732.11 300.18 770.72 301.37 771.12 237.16 734.09 236.02"/>
  <rect class="cls-8" x="735.99" y="239.7" width="13.84" height="13.05" transform="translate(473.93 981.2) rotate(-88.24)"/>
  <polygon class="cls-8" points="753.58 253.12 754 239.29 767.43 239.7 767.02 253.18 753.58 253.12"/>
  <rect class="cls-8" x="729.72" y="263.66" width="25.01" height="12.93" transform="translate(449.37 1003.69) rotate(-88.24)"/>
  <polygon class="cls-8" points="753.42 257.86 766.79 258.28 766.84 282.82 753.06 282.61 753.42 257.86"/>
  <rect class="cls-6" x="735.43" y="286.33" width="12.15" height="12.97" transform="translate(426 1024.96) rotate(-88.24)"/>
  <rect class="cls-6" x="753.84" y="285.81" width="12.15" height="15.16" transform="translate(443.27 1043.91) rotate(-88.24)"/>
  <polygon class="cls-9" points="722.75 290.67 778.67 292.39 778.64 293.4 776.14 293.33 775.92 304.91 779.11 305.01 779.06 306.52 722.32 304.77 722.35 303.79 725.21 303.87 725.59 291.96 722.71 291.92 722.75 290.67"/>
  <line class="cls-9" x1="725.91" y1="291.93" x2="776.14" y2="293.33"/>
  <line class="cls-9" x1="725.4" y1="297.81" x2="776.03" y2="299"/>
  <polyline class="cls-9" points="729.77 292.04 725.52 294.35 731 297.61 739.92 292.35"/>
  <line class="cls-9" x1="725.76" y1="296.74" x2="735.04" y2="292.2"/>
  <line class="cls-9" x1="743.62" y1="298.37" x2="750.89" y2="292.9"/>
  <line class="cls-9" x1="750.85" y1="298.22" x2="757.65" y2="292.9"/>
  <polyline class="cls-9" points="755.54 298.37 762.59 293.26 767.33 298.84 773.27 293.31"/>
  <line class="cls-9" x1="761.32" y1="298.65" x2="767.5" y2="293.2"/>
  <polyline class="cls-9" points="727.38 291.9 737.09 297.98 745.41 292.73"/>
  <line class="cls-9" x1="733.06" y1="292.07" x2="742.79" y2="298.35"/>
  <line class="cls-9" x1="739.01" y1="292.18" x2="746.96" y2="298.29"/>
  <line class="cls-9" x1="744.67" y1="292.36" x2="751.31" y2="298.42"/>
  <line class="cls-9" x1="750.42" y1="292.61" x2="756.65" y2="298.4"/>
  <line class="cls-9" x1="755.72" y1="292.7" x2="761.34" y2="298.16"/>
  <polyline class="cls-9" points="768.11 293.23 773.09 299.02 776.12 296.23"/>
  <line class="cls-9" x1="772.46" y1="293.21" x2="775.74" y2="297.39"/>
  <line class="cls-9" x1="725.21" y1="303.87" x2="775.92" y2="304.91"/>
  <path class="cls-9" d="M725.81,303.63s-.45-2.86.11-3.71,1.63-1.77,1.63-1.77c0,0,1.85,1.16,1.83,2.56s-.25,3.24-.25,3.24"/>
  <path class="cls-9" d="M730.03,303.76s-.41-2.85.11-3.71,1.51-1.78,1.51-1.78c0,0,1.72,1.16,1.69,2.55-.02,1.39-.24,3.24-.24,3.24"/>
  <path class="cls-9" d="M734.05,303.88s-.45-2.86.11-3.71,1.63-1.77,1.63-1.77c0,0,1.85,1.16,1.83,2.56-.02,1.39-.25,3.24-.25,3.24"/>
  <path class="cls-9" d="M738.19,304.18s-.45-2.86.11-3.71,1.63-1.77,1.63-1.77c0,0,1.85,1.16,1.83,2.56s-.25,3.24-.25,3.24"/>
  <path class="cls-9" d="M742.15,304.13s-.45-2.86.11-3.71c.57-.85,1.63-1.77,1.63-1.77,0,0,1.85,1.16,1.83,2.56s-.25,3.24-.25,3.24"/>
  <path class="cls-9" d="M746.09,304.25s-.45-2.86.11-3.71,1.63-1.77,1.63-1.77c0,0,1.85,1.16,1.83,2.56s-.25,3.24-.25,3.24"/>
  <path class="cls-9" d="M750.3,304.11s-.45-2.86.11-3.71,1.63-1.77,1.63-1.77c0,0,1.85,1.16,1.83,2.56s-.25,3.24-.25,3.24"/>
  <path class="cls-9" d="M754.22,304.23s-.45-2.86.11-3.71,1.63-1.77,1.63-1.77c0,0,1.85,1.16,1.83,2.56s-.25,3.24-.25,3.24"/>
  <path class="cls-9" d="M758.46,304.36s-.4-2.85.11-3.71,1.46-1.78,1.46-1.78c0,0,1.66,1.16,1.64,2.55s-.23,3.24-.23,3.24"/>
  <path class="cls-9" d="M761.8,304.46s-.4-2.85.11-3.71,1.47-1.78,1.47-1.78c0,0,1.67,1.16,1.65,2.55s-.23,3.24-.23,3.24"/>
  <path class="cls-9" d="M765.67,304.58s-.4-2.85.11-3.71,1.49-1.78,1.49-1.78c0,0,1.69,1.16,1.66,2.55s-.23,3.24-.23,3.24"/>
  <path class="cls-9" d="M769.6,304.7s-.34-2.85.11-3.71,1.3-1.78,1.3-1.78c0,0,1.46,1.15,1.44,2.54s-.22,3.24-.22,3.24"/>
  <path class="cls-9" d="M772.54,304.8s-.35-2.85.11-3.71,1.32-1.78,1.32-1.78c0,0,1.49,1.15,1.47,2.54-.02,1.39-.22,3.24-.22,3.24"/>
  <polyline class="cls-1" points="720.77 303.29 720.63 307.9 779.45 309.71 779.59 305.1"/>
  <polygon class="cls-1" points="867.65 254.17 858.78 253.9 859.66 225.3 922.03 228.19 921.15 256.7 911.64 256.41 911.86 239.01 869.42 236.99 867.65 254.17"/>
  <polygon class="cls-9" points="872.28 240.44 870.3 304.6 908.91 305.79 909.3 241.58 872.28 240.44"/>
  <rect class="cls-8" x="874.17" y="244.12" width="13.84" height="13.05" transform="translate(603.44 1123.6) rotate(-88.24)"/>
  <polygon class="cls-8" points="891.76 257.54 892.19 243.71 905.62 244.12 905.2 257.61 891.76 257.54"/>
  <rect class="cls-8" x="867.91" y="268.09" width="25.01" height="12.93" transform="translate(578.89 1146.1) rotate(-88.24)"/>
  <polygon class="cls-8" points="891.61 262.29 904.98 262.7 905.03 287.24 891.24 287.03 891.61 262.29"/>
  <rect class="cls-6" x="873.62" y="290.75" width="12.15" height="12.97" transform="translate(555.51 1167.37) rotate(-88.24)"/>
  <rect class="cls-6" x="892.03" y="290.23" width="12.15" height="15.16" transform="translate(572.79 1186.31) rotate(-88.24)"/>
  <polygon class="cls-9" points="860.94 295.09 916.85 296.82 916.82 297.82 914.33 297.75 914.1 309.34 917.29 309.43 917.25 310.94 860.5 309.19 860.53 308.21 863.4 308.29 863.78 296.38 860.9 296.34 860.94 295.09"/>
  <line class="cls-9" x1="864.1" y1="296.35" x2="914.33" y2="297.75"/>
  <line class="cls-9" x1="863.59" y1="302.23" x2="914.22" y2="303.42"/>
  <polyline class="cls-9" points="867.96 296.46 863.7 298.77 869.19 302.03 878.1 296.77"/>
  <line class="cls-9" x1="863.95" y1="301.16" x2="873.22" y2="296.62"/>
  <line class="cls-9" x1="881.81" y1="302.79" x2="889.07" y2="297.32"/>
  <line class="cls-9" x1="889.04" y1="302.64" x2="895.83" y2="297.32"/>
  <polyline class="cls-9" points="893.73 302.79 900.78 297.69 905.52 303.26 911.45 297.73"/>
  <line class="cls-9" x1="899.51" y1="303.08" x2="905.69" y2="297.62"/>
  <polyline class="cls-9" points="865.57 296.32 875.28 302.41 883.59 297.16"/>
  <line class="cls-9" x1="871.25" y1="296.5" x2="880.98" y2="302.77"/>
  <line class="cls-9" x1="877.19" y1="296.6" x2="885.15" y2="302.71"/>
  <line class="cls-9" x1="882.85" y1="296.78" x2="889.5" y2="302.84"/>
  <line class="cls-9" x1="888.6" y1="297.03" x2="894.84" y2="302.82"/>
  <line class="cls-9" x1="893.9" y1="297.12" x2="899.52" y2="302.58"/>
  <polyline class="cls-9" points="906.3 297.65 911.28 303.44 914.3 300.65"/>
  <line class="cls-9" x1="910.65" y1="297.63" x2="913.93" y2="301.81"/>
  <line class="cls-9" x1="863.4" y1="308.29" x2="914.1" y2="309.34"/>
  <path class="cls-9" d="M864,308.05s-.45-2.86.11-3.71,1.63-1.77,1.63-1.77c0,0,1.85,1.16,1.83,2.56s-.25,3.24-.25,3.24"/>
  <path class="cls-9" d="M868.21,308.18s-.41-2.85.11-3.71,1.51-1.78,1.51-1.78c0,0,1.72,1.16,1.69,2.55s-.24,3.24-.24,3.24"/>
  <path class="cls-9" d="M872.24,308.3s-.45-2.86.11-3.71,1.63-1.77,1.63-1.77c0,0,1.85,1.16,1.83,2.56-.02,1.39-.25,3.24-.25,3.24"/>
  <path class="cls-9" d="M876.38,308.6s-.45-2.86.11-3.71,1.63-1.77,1.63-1.77c0,0,1.85,1.16,1.83,2.56s-.25,3.24-.25,3.24"/>
  <path class="cls-9" d="M880.33,308.55s-.45-2.86.11-3.71,1.63-1.77,1.63-1.77c0,0,1.85,1.16,1.83,2.56s-.25,3.24-.25,3.24"/>
  <path class="cls-9" d="M884.28,308.68s-.45-2.86.11-3.71,1.63-1.77,1.63-1.77c0,0,1.85,1.16,1.83,2.56s-.25,3.24-.25,3.24"/>
  <path class="cls-9" d="M888.49,308.53s-.45-2.86.11-3.71,1.63-1.77,1.63-1.77c0,0,1.85,1.16,1.83,2.56s-.25,3.24-.25,3.24"/>
  <path class="cls-9" d="M892.41,308.65s-.45-2.86.11-3.71,1.63-1.77,1.63-1.77c0,0,1.85,1.16,1.83,2.56s-.25,3.24-.25,3.24"/>
  <path class="cls-9" d="M896.65,308.78s-.4-2.85.11-3.71,1.46-1.78,1.46-1.78c0,0,1.66,1.16,1.64,2.55s-.23,3.24-.23,3.24"/>
  <path class="cls-9" d="M899.99,308.89s-.4-2.85.11-3.71,1.47-1.78,1.47-1.78c0,0,1.67,1.16,1.65,2.55s-.23,3.24-.23,3.24"/>
  <path class="cls-9" d="M903.86,309.01s-.4-2.85.11-3.71,1.49-1.78,1.49-1.78c0,0,1.69,1.16,1.66,2.55s-.23,3.24-.23,3.24"/>
  <path class="cls-9" d="M907.78,309.13s-.34-2.85.11-3.71,1.3-1.78,1.3-1.78c0,0,1.46,1.15,1.44,2.54s-.22,3.24-.22,3.24"/>
  <path class="cls-9" d="M910.73,309.22s-.35-2.85.11-3.71,1.32-1.78,1.32-1.78c0,0,1.49,1.15,1.47,2.54-.02,1.39-.22,3.24-.22,3.24"/>
  <polyline class="cls-1" points="858.96 307.71 858.81 312.32 917.63 314.14 917.77 309.52"/>
  <polygon class="cls-1" points="731.67 372.45 722.8 372.18 723.68 343.58 786.04 346.47 785.17 374.98 775.66 374.69 775.87 357.29 733.44 355.27 731.67 372.45"/>
  <polygon class="cls-9" points="736.29 358.72 734.32 422.88 772.92 424.07 773.32 359.87 736.29 358.72"/>
  <rect class="cls-8" x="738.19" y="362.4" width="13.84" height="13.05" transform="translate(353.42 1102.32) rotate(-88.24)"/>
  <polygon class="cls-8" points="755.78 375.82 756.21 361.99 769.64 362.4 769.22 375.89 755.78 375.82"/>
  <rect class="cls-8" x="731.92" y="386.37" width="25.01" height="12.93" transform="translate(328.86 1124.82) rotate(-88.24)"/>
  <polygon class="cls-8" points="755.63 380.57 768.99 380.98 769.04 405.52 755.26 405.31 755.63 380.57"/>
  <rect class="cls-6" x="737.64" y="409.03" width="12.15" height="12.97" transform="translate(305.49 1146.09) rotate(-88.24)"/>
  <rect class="cls-6" x="756.04" y="408.51" width="12.15" height="15.16" transform="translate(322.76 1165.03) rotate(-88.24)"/>
  <polygon class="cls-9" points="724.95 413.37 780.87 415.1 780.84 416.11 778.35 416.03 778.12 427.62 781.31 427.71 781.26 429.22 724.52 427.47 724.55 426.49 727.41 426.57 727.79 414.67 724.92 414.62 724.95 413.37"/>
  <line class="cls-9" x1="728.11" y1="414.63" x2="778.35" y2="416.03"/>
  <line class="cls-9" x1="727.61" y1="420.51" x2="778.24" y2="421.7"/>
  <polyline class="cls-9" points="731.97 414.74 727.72 417.05 733.2 420.31 742.12 415.05"/>
  <line class="cls-9" x1="727.96" y1="419.44" x2="737.24" y2="414.9"/>
  <line class="cls-9" x1="745.82" y1="421.07" x2="753.09" y2="415.61"/>
  <line class="cls-9" x1="753.06" y1="420.93" x2="759.85" y2="415.6"/>
  <polyline class="cls-9" points="757.74 421.07 764.8 415.97 769.53 421.54 775.47 416.02"/>
  <line class="cls-9" x1="763.52" y1="421.36" x2="769.71" y2="415.9"/>
  <polyline class="cls-9" points="729.59 414.6 739.3 420.69 747.61 415.44"/>
  <line class="cls-9" x1="735.27" y1="414.78" x2="744.99" y2="421.05"/>
  <line class="cls-9" x1="741.21" y1="414.88" x2="749.16" y2="420.99"/>
  <line class="cls-9" x1="746.87" y1="415.06" x2="753.51" y2="421.12"/>
  <line class="cls-9" x1="752.62" y1="415.31" x2="758.85" y2="421.1"/>
  <line class="cls-9" x1="757.92" y1="415.4" x2="763.54" y2="420.86"/>
  <polyline class="cls-9" points="770.31 415.93 775.29 421.72 778.32 418.94"/>
  <line class="cls-9" x1="774.67" y1="415.92" x2="777.94" y2="420.09"/>
  <line class="cls-9" x1="727.41" y1="426.57" x2="778.12" y2="427.62"/>
  <path class="cls-9" d="M728.01,426.33s-.45-2.86.11-3.71,1.63-1.77,1.63-1.77c0,0,1.85,1.16,1.83,2.56s-.25,3.24-.25,3.24"/>
  <path class="cls-9" d="M732.23,426.46s-.41-2.85.11-3.71,1.51-1.78,1.51-1.78c0,0,1.72,1.16,1.69,2.55-.02,1.39-.24,3.24-.24,3.24"/>
  <path class="cls-9" d="M736.26,426.59s-.45-2.86.11-3.71,1.63-1.77,1.63-1.77c0,0,1.85,1.16,1.83,2.56s-.25,3.24-.25,3.24"/>
  <path class="cls-9" d="M740.39,426.88s-.45-2.86.11-3.71,1.63-1.77,1.63-1.77c0,0,1.85,1.16,1.83,2.56s-.25,3.24-.25,3.24"/>
  <path class="cls-9" d="M744.35,426.83s-.45-2.86.11-3.71,1.63-1.77,1.63-1.77c0,0,1.85,1.16,1.83,2.56s-.25,3.24-.25,3.24"/>
  <path class="cls-9" d="M748.3,426.96s-.45-2.86.11-3.71,1.63-1.77,1.63-1.77c0,0,1.85,1.16,1.83,2.56s-.25,3.24-.25,3.24"/>
  <path class="cls-9" d="M752.5,426.81s-.45-2.86.11-3.71,1.63-1.77,1.63-1.77c0,0,1.85,1.16,1.83,2.56s-.25,3.24-.25,3.24"/>
  <path class="cls-9" d="M756.43,426.93s-.45-2.86.11-3.71,1.63-1.77,1.63-1.77c0,0,1.85,1.16,1.83,2.56s-.25,3.24-.25,3.24"/>
  <path class="cls-9" d="M760.66,427.06s-.4-2.85.11-3.71,1.46-1.78,1.46-1.78c0,0,1.66,1.16,1.64,2.55s-.23,3.24-.23,3.24"/>
  <path class="cls-9" d="M764,427.17s-.4-2.85.11-3.71c.51-.85,1.47-1.78,1.47-1.78,0,0,1.67,1.16,1.65,2.55-.02,1.39-.23,3.24-.23,3.24"/>
  <path class="cls-9" d="M767.88,427.29s-.4-2.85.11-3.71,1.49-1.78,1.49-1.78c0,0,1.69,1.16,1.66,2.55s-.23,3.24-.23,3.24"/>
  <path class="cls-9" d="M771.8,427.41s-.34-2.85.11-3.71,1.3-1.78,1.3-1.78c0,0,1.46,1.15,1.44,2.54s-.22,3.24-.22,3.24"/>
  <path class="cls-9" d="M774.75,427.5s-.35-2.85.11-3.71,1.32-1.78,1.32-1.78c0,0,1.49,1.15,1.47,2.54-.02,1.39-.22,3.24-.22,3.24"/>
  <polyline class="cls-1" points="722.97 425.99 722.83 430.6 781.65 432.42 781.79 427.8"/>
  <polygon class="cls-1" points="597.7 369.01 588.83 368.74 589.71 340.14 652.08 343.03 651.2 371.54 641.69 371.25 641.91 353.85 599.47 351.83 597.7 369.01"/>
  <polygon class="cls-9" points="602.32 355.28 600.35 419.44 638.95 420.63 639.35 356.42 602.32 355.28"/>
  <rect class="cls-8" x="604.22" y="358.96" width="13.84" height="13.05" transform="translate(227.02 965.08) rotate(-88.24)"/>
  <polygon class="cls-8" points="621.81 372.38 622.24 358.55 635.67 358.96 635.25 372.44 621.81 372.38"/>
  <rect class="cls-8" x="597.95" y="382.92" width="25.01" height="12.93" transform="translate(202.46 987.57) rotate(-88.24)"/>
  <polygon class="cls-8" points="621.66 377.12 635.03 377.53 635.07 402.07 621.29 401.87 621.66 377.12"/>
  <rect class="cls-6" x="603.67" y="405.59" width="12.15" height="12.97" transform="translate(179.09 1008.84) rotate(-88.24)"/>
  <rect class="cls-6" x="622.07" y="405.06" width="12.15" height="15.16" transform="translate(196.36 1027.79) rotate(-88.24)"/>
  <polygon class="cls-9" points="590.99 409.93 646.9 411.65 646.87 412.66 644.38 412.58 644.15 424.17 647.34 424.27 647.3 425.78 590.55 424.03 590.58 423.05 593.45 423.13 593.83 411.22 590.95 411.18 590.99 409.93"/>
  <line class="cls-9" x1="594.14" y1="411.19" x2="644.38" y2="412.58"/>
  <line class="cls-9" x1="593.64" y1="417.07" x2="644.27" y2="418.26"/>
  <polyline class="cls-9" points="598.01 411.3 593.75 413.61 599.23 416.87 608.15 411.61"/>
  <line class="cls-9" x1="594" y1="416" x2="603.27" y2="411.46"/>
  <line class="cls-9" x1="611.86" y1="417.63" x2="619.12" y2="412.16"/>
  <line class="cls-9" x1="619.09" y1="417.48" x2="625.88" y2="412.15"/>
  <polyline class="cls-9" points="623.78 417.63 630.83 412.52 635.56 418.1 641.5 412.57"/>
  <line class="cls-9" x1="629.56" y1="417.91" x2="635.74" y2="412.46"/>
  <polyline class="cls-9" points="595.62 411.16 605.33 417.24 613.64 411.99"/>
  <line class="cls-9" x1="601.3" y1="411.33" x2="611.02" y2="417.6"/>
  <line class="cls-9" x1="607.24" y1="411.44" x2="615.2" y2="417.55"/>
  <line class="cls-9" x1="612.9" y1="411.62" x2="619.55" y2="417.68"/>
  <line class="cls-9" x1="618.65" y1="411.87" x2="624.88" y2="417.66"/>
  <line class="cls-9" x1="623.95" y1="411.96" x2="629.57" y2="417.41"/>
  <polyline class="cls-9" points="636.35 412.49 641.33 418.27 644.35 415.49"/>
  <line class="cls-9" x1="640.7" y1="412.47" x2="643.98" y2="416.65"/>
  <line class="cls-9" x1="593.45" y1="423.13" x2="644.15" y2="424.17"/>
  <path class="cls-9" d="M594.04,422.89s-.45-2.86.11-3.71,1.63-1.77,1.63-1.77c0,0,1.85,1.16,1.83,2.56s-.25,3.24-.25,3.24"/>
  <path class="cls-9" d="M598.26,423.02s-.41-2.85.11-3.71,1.51-1.78,1.51-1.78c0,0,1.72,1.16,1.69,2.55-.02,1.39-.24,3.24-.24,3.24"/>
  <path class="cls-9" d="M602.29,423.14s-.45-2.86.11-3.71c.57-.85,1.63-1.77,1.63-1.77,0,0,1.85,1.16,1.83,2.56-.02,1.39-.25,3.24-.25,3.24"/>
  <path class="cls-9" d="M606.42,423.44s-.45-2.86.11-3.71,1.63-1.77,1.63-1.77c0,0,1.85,1.16,1.83,2.56s-.25,3.24-.25,3.24"/>
  <path class="cls-9" d="M610.38,423.39s-.45-2.86.11-3.71,1.63-1.77,1.63-1.77c0,0,1.85,1.16,1.83,2.56s-.25,3.24-.25,3.24"/>
  <path class="cls-9" d="M614.33,423.51s-.45-2.86.11-3.71,1.63-1.77,1.63-1.77c0,0,1.85,1.16,1.83,2.56s-.25,3.24-.25,3.24"/>
  <path class="cls-9" d="M618.54,423.37s-.45-2.86.11-3.71,1.63-1.77,1.63-1.77c0,0,1.85,1.16,1.83,2.56s-.25,3.24-.25,3.24"/>
  <path class="cls-9" d="M622.46,423.49s-.45-2.86.11-3.71,1.63-1.77,1.63-1.77c0,0,1.85,1.16,1.83,2.56s-.25,3.24-.25,3.24"/>
  <path class="cls-9" d="M626.69,423.62s-.4-2.85.11-3.71,1.46-1.78,1.46-1.78c0,0,1.66,1.16,1.64,2.55s-.23,3.24-.23,3.24"/>
  <path class="cls-9" d="M630.03,423.72s-.4-2.85.11-3.71c.51-.85,1.47-1.78,1.47-1.78,0,0,1.67,1.16,1.65,2.55s-.23,3.24-.23,3.24"/>
  <path class="cls-9" d="M633.91,423.84s-.4-2.85.11-3.71,1.49-1.78,1.49-1.78c0,0,1.69,1.16,1.66,2.55s-.23,3.24-.23,3.24"/>
  <path class="cls-9" d="M637.83,423.96s-.34-2.85.11-3.71,1.3-1.78,1.3-1.78c0,0,1.46,1.15,1.44,2.54-.02,1.39-.22,3.24-.22,3.24"/>
  <path class="cls-9" d="M640.78,424.05s-.35-2.85.11-3.71,1.32-1.78,1.32-1.78c0,0,1.49,1.15,1.47,2.54s-.22,3.24-.22,3.24"/>
  <polyline class="cls-1" points="589 422.55 588.86 427.16 647.68 428.97 647.82 424.36"/>
  <polygon class="cls-1" points="869.86 376.87 860.98 376.6 861.87 348 924.23 350.89 923.35 379.41 913.85 379.11 914.06 361.71 871.62 359.7 869.86 376.87"/>
  <polygon class="cls-9" points="874.48 363.15 872.5 427.31 911.11 428.49 911.51 364.29 874.48 363.15"/>
  <rect class="cls-8" x="876.38" y="366.82" width="13.84" height="13.05" transform="translate(482.93 1244.73) rotate(-88.24)"/>
  <polygon class="cls-8" points="893.97 380.25 894.39 366.41 907.82 366.82 907.41 380.31 893.97 380.25"/>
  <rect class="cls-8" x="870.11" y="390.79" width="25.01" height="12.93" transform="translate(458.38 1267.22) rotate(-88.24)"/>
  <polygon class="cls-8" points="893.81 384.99 907.18 385.4 907.23 409.94 893.45 409.73 893.81 384.99"/>
  <rect class="cls-6" x="875.82" y="413.45" width="12.15" height="12.97" transform="translate(435 1288.49) rotate(-88.24)"/>
  <rect class="cls-6" x="894.23" y="412.93" width="12.15" height="15.16" transform="translate(452.28 1307.44) rotate(-88.24)"/>
  <polygon class="cls-9" points="863.14 417.8 919.06 419.52 919.02 420.53 916.53 420.45 916.31 432.04 919.5 432.14 919.45 433.64 862.71 431.9 862.74 430.91 865.6 430.99 865.98 419.09 863.1 419.04 863.14 417.8"/>
  <line class="cls-9" x1="866.3" y1="419.05" x2="916.53" y2="420.45"/>
  <line class="cls-9" x1="865.79" y1="424.93" x2="916.42" y2="426.12"/>
  <polyline class="cls-9" points="870.16 419.16 865.91 421.47 871.39 424.74 880.31 419.47"/>
  <line class="cls-9" x1="866.15" y1="423.87" x2="875.43" y2="419.32"/>
  <line class="cls-9" x1="884.01" y1="425.5" x2="891.28" y2="420.03"/>
  <line class="cls-9" x1="891.24" y1="425.35" x2="898.04" y2="420.02"/>
  <polyline class="cls-9" points="895.93 425.49 902.98 420.39 907.72 425.96 913.66 420.44"/>
  <line class="cls-9" x1="901.71" y1="425.78" x2="907.89" y2="420.32"/>
  <polyline class="cls-9" points="867.77 419.02 877.48 425.11 885.8 419.86"/>
  <line class="cls-9" x1="873.45" y1="419.2" x2="883.18" y2="425.47"/>
  <line class="cls-9" x1="879.4" y1="419.31" x2="887.35" y2="425.41"/>
  <line class="cls-9" x1="885.06" y1="419.48" x2="891.7" y2="425.54"/>
  <line class="cls-9" x1="890.8" y1="419.74" x2="897.04" y2="425.53"/>
  <line class="cls-9" x1="896.11" y1="419.82" x2="901.73" y2="425.28"/>
  <polyline class="cls-9" points="908.5 420.35 913.48 426.14 916.51 423.36"/>
  <line class="cls-9" x1="865.6" y1="430.99" x2="916.31" y2="432.04"/>
  <path class="cls-9" d="M866.2,430.75s-.45-2.86.11-3.71,1.63-1.77,1.63-1.77c0,0,1.85,1.16,1.83,2.56s-.25,3.24-.25,3.24"/>
  <path class="cls-9" d="M870.42,430.88s-.41-2.85.11-3.71,1.51-1.78,1.51-1.78c0,0,1.72,1.16,1.69,2.55-.02,1.39-.24,3.24-.24,3.24"/>
  <path class="cls-9" d="M874.44,431.01s-.45-2.86.11-3.71,1.63-1.77,1.63-1.77c0,0,1.85,1.16,1.83,2.56s-.25,3.24-.25,3.24"/>
  <path class="cls-9" d="M878.58,431.3s-.45-2.86.11-3.71,1.63-1.77,1.63-1.77c0,0,1.85,1.16,1.83,2.56s-.25,3.24-.25,3.24"/>
  <path class="cls-9" d="M882.54,431.26s-.45-2.86.11-3.71,1.63-1.77,1.63-1.77c0,0,1.85,1.16,1.83,2.56s-.25,3.24-.25,3.24"/>
  <path class="cls-9" d="M886.48,431.38s-.45-2.86.11-3.71,1.63-1.77,1.63-1.77c0,0,1.85,1.16,1.83,2.56s-.25,3.24-.25,3.24"/>
  <path class="cls-9" d="M890.69,431.23s-.45-2.86.11-3.71,1.63-1.77,1.63-1.77c0,0,1.85,1.16,1.83,2.56s-.25,3.24-.25,3.24"/>
  <path class="cls-9" d="M894.61,431.36s-.45-2.86.11-3.71,1.63-1.77,1.63-1.77c0,0,1.85,1.16,1.83,2.56s-.25,3.24-.25,3.24"/>
  <path class="cls-9" d="M898.85,431.49s-.4-2.85.11-3.71,1.46-1.78,1.46-1.78c0,0,1.66,1.16,1.64,2.55s-.23,3.24-.23,3.24"/>
  <path class="cls-9" d="M902.19,431.59s-.4-2.85.11-3.71c.51-.85,1.47-1.78,1.47-1.78,0,0,1.67,1.16,1.65,2.55s-.23,3.24-.23,3.24"/>
  <path class="cls-9" d="M906.06,431.71s-.4-2.85.11-3.71,1.49-1.78,1.49-1.78c0,0,1.69,1.16,1.66,2.55s-.23,3.24-.23,3.24"/>
  <path class="cls-9" d="M909.99,431.83s-.34-2.85.11-3.71,1.3-1.78,1.3-1.78c0,0,1.46,1.15,1.44,2.54s-.22,3.24-.22,3.24"/>
  <polyline class="cls-1" points="861.16 430.41 861.02 435.03 919.84 436.84 919.98 432.23"/>
  <polygon class="cls-9" points="387.51 406.51 443.42 408.24 443.39 409.25 440.9 409.17 440.67 420.76 443.87 420.86 443.82 422.36 387.07 420.62 387.1 419.63 389.97 419.71 390.35 407.81 387.47 407.76 387.51 406.51"/>
  <line class="cls-9" x1="390.67" y1="407.77" x2="440.9" y2="409.17"/>
  <line class="cls-9" x1="390.16" y1="413.65" x2="440.79" y2="414.84"/>
  <polyline class="cls-9" points="394.53 407.88 390.27 410.19 395.76 413.46 404.67 408.19"/>
  <line class="cls-9" x1="390.52" y1="412.59" x2="399.79" y2="408.04"/>
  <line class="cls-9" x1="408.38" y1="414.21" x2="415.65" y2="408.75"/>
  <line class="cls-9" x1="415.61" y1="414.07" x2="422.41" y2="408.74"/>
  <polyline class="cls-9" points="420.3 414.21 427.35 409.11 432.09 414.68 438.02 409.16"/>
  <line class="cls-9" x1="426.08" y1="414.5" x2="432.26" y2="409.04"/>
  <polyline class="cls-9" points="392.14 407.74 401.85 413.83 410.16 408.58"/>
  <line class="cls-9" x1="397.82" y1="407.92" x2="407.55" y2="414.19"/>
  <line class="cls-9" x1="403.77" y1="408.03" x2="411.72" y2="414.13"/>
  <line class="cls-9" x1="409.42" y1="408.2" x2="416.07" y2="414.26"/>
  <line class="cls-9" x1="415.17" y1="408.45" x2="421.41" y2="414.25"/>
  <line class="cls-9" x1="420.47" y1="408.54" x2="426.1" y2="414"/>
  <polyline class="cls-9" points="432.87 409.07 437.85 414.86 440.88 412.08"/>
  <line class="cls-9" x1="437.22" y1="409.06" x2="440.5" y2="413.23"/>
  <line class="cls-9" x1="389.97" y1="419.71" x2="440.67" y2="420.76"/>
  <path class="cls-9" d="M390.57,419.47s-.45-2.86.11-3.71,1.63-1.77,1.63-1.77c0,0,1.85,1.16,1.83,2.56s-.25,3.24-.25,3.24"/>
  <path class="cls-9" d="M394.78,419.6s-.41-2.85.11-3.71,1.51-1.78,1.51-1.78c0,0,1.72,1.16,1.69,2.55-.02,1.39-.24,3.24-.24,3.24"/>
  <path class="cls-9" d="M398.81,419.73s-.45-2.86.11-3.71,1.63-1.77,1.63-1.77c0,0,1.85,1.16,1.83,2.56s-.25,3.24-.25,3.24"/>
  <path class="cls-9" d="M402.95,420.02s-.45-2.86.11-3.71,1.63-1.77,1.63-1.77c0,0,1.85,1.16,1.83,2.56-.02,1.39-.25,3.24-.25,3.24"/>
  <path class="cls-9" d="M406.91,419.98s-.45-2.86.11-3.71,1.63-1.77,1.63-1.77c0,0,1.85,1.16,1.83,2.56-.02,1.39-.25,3.24-.25,3.24"/>
  <path class="cls-9" d="M410.85,420.1s-.45-2.86.11-3.71c.57-.85,1.63-1.77,1.63-1.77,0,0,1.85,1.16,1.83,2.56-.02,1.39-.25,3.24-.25,3.24"/>
  <path class="cls-9" d="M415.06,419.95s-.45-2.86.11-3.71,1.63-1.77,1.63-1.77c0,0,1.85,1.16,1.83,2.56-.02,1.39-.25,3.24-.25,3.24"/>
  <path class="cls-9" d="M418.98,420.07s-.45-2.86.11-3.71,1.63-1.77,1.63-1.77c0,0,1.85,1.16,1.83,2.56-.02,1.39-.25,3.24-.25,3.24"/>
  <path class="cls-9" d="M423.22,420.2s-.4-2.85.11-3.71,1.46-1.78,1.46-1.78c0,0,1.66,1.16,1.64,2.55-.02,1.39-.23,3.24-.23,3.24"/>
  <path class="cls-9" d="M426.56,420.31s-.4-2.85.11-3.71,1.47-1.78,1.47-1.78c0,0,1.67,1.16,1.65,2.55-.02,1.39-.23,3.24-.23,3.24"/>
  <path class="cls-9" d="M430.43,420.43s-.4-2.85.11-3.71,1.49-1.78,1.49-1.78c0,0,1.69,1.16,1.66,2.55s-.23,3.24-.23,3.24"/>
  <path class="cls-9" d="M434.35,420.55s-.34-2.85.11-3.71c.45-.86,1.3-1.78,1.3-1.78,0,0,1.46,1.15,1.44,2.54s-.22,3.24-.22,3.24"/>
  <path class="cls-9" d="M437.3,420.64s-.35-2.85.11-3.71,1.32-1.78,1.32-1.78c0,0,1.49,1.15,1.47,2.54-.02,1.39-.22,3.24-.22,3.24"/>
  <polyline class="cls-1" points="385.53 419.13 385.38 423.75 444.2 425.56 444.35 420.94"/>
  <polygon class="cls-3" points="606.75 470.93 890.55 479.67 888.96 629.45 602.92 612.6 606.75 470.93"/>
  <polygon class="cls-9" points="623.33 485.79 705.64 490.11 701.48 567.8 620.96 562.75 623.33 485.79"/>
  <polygon class="cls-9" points="717.95 487.04 792.35 490.17 784.37 621.03 709.36 618.72 717.95 487.04"/>
  <polygon class="cls-9" points="815.04 498.07 871.48 500.8 865.77 614.48 811.58 610.31 815.04 498.07"/>
  <polygon class="cls-8" points="722.8 495.23 747.33 495.98 746.91 509.68 723.13 508.95 722.8 495.23"/>
  <polygon class="cls-8" points="756.83 496.27 756.41 509.98 785.42 510.87 785.81 498.33 756.83 496.27"/>
  <rect class="cls-8" x="699.09" y="535.65" width="68.72" height="24.55" transform="translate(163.21 1264.16) rotate(-88.24)"/>
  <polygon class="cls-8" points="756.22 516.28 782.57 517.09 777.86 585.33 754.16 582.94 756.22 516.28"/>
  <polygon class="cls-9" points="114.17 469.61 178.14 471.13 176.02 539.79 112.07 537.82 114.17 469.61"/>
  <rect class="cls-6" x="119.4" y="473.29" width="9.56" height="8.5" transform="translate(-356.96 586.96) rotate(-88.24)"/>
  <rect class="cls-6" x="130.97" y="474.86" width="9.31" height="5.82" transform="translate(-346.1 598.62) rotate(-88.24)"/>
  <rect class="cls-6" x="140.15" y="474.6" width="9.33" height="6.94" transform="translate(-337.48 608.1) rotate(-88.24)"/>
  <rect class="cls-6" x="151.76" y="474.91" width="9.24" height="5.95" transform="translate(-326.1 619.48) rotate(-88.24)"/>
  <rect class="cls-6" x="160.91" y="474.94" width="9.32" height="6" transform="translate(-317.23 628.72) rotate(-88.24)"/>
  <rect class="cls-6" x="106.71" y="498.51" width="33.64" height="8.77" transform="translate(-382.93 610.88) rotate(-88.24)"/>
  <rect class="cls-6" x="116.94" y="525.07" width="11.52" height="8.74" transform="translate(-410.27 635.78) rotate(-88.24)"/>
  <polygon class="cls-9" points="250.88 471.97 303.35 473.28 304.83 597.2 247.87 595.45 250.88 471.97"/>
  <rect class="cls-6" x="123.68" y="495.04" width="33.01" height="16.51" transform="translate(-367.19 627.92) rotate(-88.24)"/>
  <rect class="cls-6" x="143.66" y="496.31" width="32.67" height="14.76" transform="translate(-348.38 648.1) rotate(-88.24)"/>
  <polygon class="cls-6" points="130.66 523.91 136.36 524.09 136.32 535.49 130.3 535.31 130.66 523.91"/>
  <polygon class="cls-6" points="139.48 524.17 146.04 524.37 145.68 536.02 139.49 535.83 139.48 524.17"/>
  <polygon class="cls-6" points="151.67 524.66 156.68 524.81 156.61 536.1 151.32 535.94 151.67 524.66"/>
  <polygon class="cls-6" points="160.52 524.93 167.01 525.13 166.67 536.11 160.55 535.93 160.52 524.93"/>
  <rect class="cls-3" x="141.62" y="498.39" width="3.51" height="84.21" transform="translate(-401.28 667.16) rotate(-88.24)"/>
  <rect class="cls-3" x="419.25" y="504.95" width="3.51" height="84.21" transform="translate(-138.75 951.02) rotate(-88.24)"/>
  <polygon class="cls-9" points="391.12 475.33 455.08 476.85 452.97 545.51 389.02 543.54 391.12 475.33"/>
  <rect class="cls-6" x="395.42" y="479.91" width="9.66" height="6.76" transform="translate(-95.13 868.47) rotate(-88.24)"/>
  <rect class="cls-6" x="407.93" y="480.56" width="9.4" height="5.95" transform="translate(-83.38 881.09) rotate(-88.24)"/>
  <rect class="cls-6" x="416.43" y="480.31" width="9.2" height="6.77" transform="translate(-75.4 889.64) rotate(-88.24)"/>
  <rect class="cls-6" x="428.55" y="480.28" width="9.84" height="6.23" transform="translate(-63.04 901.78) rotate(-88.24)"/>
  <rect class="cls-6" x="437.38" y="480.33" width="9.73" height="6.56" transform="translate(-54.75 910.76) rotate(-88.24)"/>
  <rect class="cls-6" x="381.33" y="505.59" width="35.86" height="6.35" transform="translate(-121.56 892.17) rotate(-88.24)"/>
  <rect class="cls-6" x="392.88" y="532.74" width="11.1" height="6.35" transform="translate(-149.5 917.65) rotate(-88.24)"/>
  <rect class="cls-6" x="397.95" y="502.85" width="36.53" height="14.76" transform="translate(-106.59 910.55) rotate(-88.24)"/>
  <rect class="cls-6" x="418.33" y="503.19" width="37.14" height="14.76" transform="translate(-86.87 931.54) rotate(-88.24)"/>
  <polygon class="cls-6" points="407.62 530.64 412.81 530.8 412.77 541.42 407.29 541.25 407.62 530.64"/>
  <polygon class="cls-6" points="415.58 530.89 422.96 531.11 422.63 541.66 415.68 541.44 415.58 530.89"/>
  <polygon class="cls-6" points="428.57 531.74 434.09 531.91 434.07 542.38 428.25 542.2 428.57 531.74"/>
  <polygon class="cls-6" points="436.55 531.62 443.92 531.85 443.59 542.67 436.63 542.46 436.55 531.62"/>
  <rect class="cls-6" x="258.28" y="471.56" width="9.82" height="17.43" transform="translate(-224.96 728.55) rotate(-88.24)"/>
  <polygon class="cls-6" points="281.72 475.15 300.53 475.62 300.2 486.33 281.39 485.75 281.72 475.15"/>
  <polygon class="cls-8" points="255.03 495.23 272.44 495.76 271.92 542.74 253.92 542.19 255.03 495.23"/>
  <polygon class="cls-8" points="280.07 496.18 299.59 496.51 300.57 543.63 280.44 543.01 280.07 496.18"/>
  <line class="cls-10" x1="257.8" y1="495.32" x2="257.15" y2="542.09"/>
  <line class="cls-10" x1="267.58" y1="495.52" x2="267.53" y2="542.61"/>
  <line class="cls-10" x1="285.18" y1="496.06" x2="285.73" y2="543.17"/>
  <line class="cls-10" x1="295.69" y1="496.39" x2="296.09" y2="543.49"/>
  <path class="cls-5" d="M263.52,501.04s-.09.7.51.73,1.01.11,1.33-.32.82-1.38.32-2-.71-.82-1.3-1.04-.74-.22-1.27-.04-1.14.34-1.36,1.04c-.22.7-.49,1.36-.31,2.29s.47,1.57,1.53,1.98,2.3.56,2.8.49,1.38-.47,1.4-1.82.46-4.88-.16-5.23-1.54-1.69-3.88-1.62c-2.34.07-3.56,1.09-4.06,2.1s-.7,3.3-.52,4.39,1.32,3.39,1.89,3.87c.56.48.92.45.92.45l-.98,36.08,4.16.13.73-38.33"/>
  <path class="cls-5" d="M290.75,501.88s.04.71-.56.7-1.01.05-1.3-.4-.73-1.43-.2-2.02.76-.78,1.36-.95.75-.17,1.27.04,1.12.41,1.3,1.12.41,1.39.17,2.3c-.24.91-.56,1.54-1.65,1.88s-2.33.42-2.83.32-2.07-.78-2.47-2.07c-.62-2,.64-4.77,1.69-5.66.56-.47,1.62-.98,3.95-.77s3.49,1.31,3.92,2.35.49,3.33.25,4.41c-.24,1.08-1.53,3.31-2.12,3.75s-.95.39-.95.39l.39,36.13-3.74-.12-.43-38.37"/>
  <polygon class="cls-6" points="628.11 489.97 660.23 491.74 659.85 504.22 627.73 502.27 628.11 489.97"/>
  <polygon class="cls-6" points="664.61 492.01 700.49 494.16 700.15 505.46 664.23 504.36 664.61 492.01"/>
  <polygon class="cls-6" points="627.54 508.61 641.32 509.43 640.96 521.17 627.16 520.75 627.54 508.61"/>
  <polygon class="cls-6" points="644.99 509.7 659.66 510.47 659.3 522.21 644.62 521.76 644.99 509.7"/>
  <polygon class="cls-6" points="627.05 524.42 640.67 525.26 640.28 537.75 626.65 537.33 627.05 524.42"/>
  <polygon class="cls-6" points="644.51 525.3 659.18 526.07 658.81 537.99 644.13 537.53 644.51 525.3"/>
  <polygon class="cls-6" points="626.54 540.95 640.89 541.85 640.47 555.51 626.1 555.07 626.54 540.95"/>
  <polygon class="cls-6" points="643.99 542.04 658.66 542.84 658.25 556.06 643.58 555.61 643.99 542.04"/>
  <polygon class="cls-6" points="665.93 510.35 680.31 511.2 679.93 523.3 665.55 522.85 665.93 510.35"/>
  <polygon class="cls-6" points="683.49 511.44 698.05 512.21 697.68 524.19 683.11 523.74 683.49 511.44"/>
  <polygon class="cls-6" points="665.45 525.95 679.6 526.79 679.23 538.91 665.06 538.47 665.45 525.95"/>
  <polygon class="cls-6" points="682.9 527.04 697.57 527.79 697.22 539.13 682.55 538.68 682.9 527.04"/>
  <polygon class="cls-6" points="664.93 542.68 678.85 543.57 678.43 557.24 664.5 556.81 664.93 542.68"/>
  <polygon class="cls-6" points="682.39 543.78 697.05 544.58 696.65 557.8 681.97 557.34 682.39 543.78"/>
  <rect class="cls-3" x="240.83" y="559.81" width="42.21" height="18.35" transform="translate(-314.85 813.28) rotate(-88.24)"/>
  <polygon class="cls-3" points="279.75 548.42 301.02 549.07 299.11 591.25 278.45 590.61 279.75 548.42"/>
  <polygon class="cls-8" points="809.84 489.87 877.06 493.37 873.13 621.12 805.92 617.03 809.84 489.87"/>
  <rect class="cls-8" x="717.34" y="589.1" width="28.72" height="24.76" transform="translate(107.97 1314.32) rotate(-88.24)"/>
  <polygon class="cls-8" points="753.76 587.8 776.85 590.01 776.04 616.49 752.9 615.78 753.76 587.8"/>
  <line class="cls-9" x1="248.49" y1="549.4" x2="50.05" y2="543.29"/>
  <line class="cls-9" x1="306.24" y1="551.18" x2="604.8" y2="557.56"/>
  <line class="cls-9" x1="881.3" y1="568.89" x2="971.83" y2="571.68"/>
  <polygon class="cls-9" points="31.39 127.34 62.34 144.03 983.79 183.21 1026.62 157.99 31.39 127.34"/>
  <polygon class="cls-7" points="49.62 127.9 70.89 144.29 53.85 595.23 59.46 595.4 76.51 144.47 55.3 128.08 49.62 127.9"/>
  <path class="cls-2" d="M582.23,186.01s1.85,9.69-.37,11.93c-2.21,2.24-4.89,7.42-6.7,7.33s-.22,2.52-1.94,3.93c-1.71,1.41-.17,4.67-1.91,5.65-1.74.98-2.47,2.85-3.84,4.91-1.37,2.06-2.2,1.86-2.55,3.87s-.13,2.18.07,3.69,1.16,2.5,1.59,2.91-.85,1.52-.72,2.36-1.31,1.88-.6,3.2,1.15,1.78,1.11,2.64.3,3.58-.06,4.59-1.12.97-.91,1.81.06,2.04.82,3.64.95,2.77.09,3.48-1.69,2.25-1.74,3.33-2.26,1.71-2.99,2.97-.54,3.1.94,4.52,2.83,1.29,3.18,2.08,0,2.51.81,4.33c.81,1.83.77,2.63.21,4.92-.56,2.3.73,7.66-1.1,10.24-1.83,2.58-5.02,2.63-4.05,4.44s3.19,2.56,4.47,4.65,2.79,1.04,2.87,3.74-1.98,3.19-3.1,5.47c-1.12,2.29-3.85,4.91-3.36,7.1s.25,2.36-.62,2.79c-.87.43-2.76.25-4.53,1.58-1.77,1.34-2.92,3.56-2.78,4.7s.15,2.33-2.17,3.42c-2.32,1.09-6.12,2.64-9.54,4.48-3.42,1.84-4.37,4.15-6.64,3.58-2.27-.57-3.84-2.94-3.76-1.4.08,1.53,1.53,3.29-.07,4.74s-3.53.29-3.5,2.89-12.97,11.03-10.14,15.2c2.83,4.17,1.57,14.17-1.35,12.56-2.92-1.61-6.3-5.6-8.69,2.11-2.39,7.71.91,1.6,1.16,4.77.25,3.17-.73,6.64-2.89,6.54-2.16-.1-.79-.89-2.09,5.41-1.29,6.29,2.57,12.83-.21,12.7-2.77-.13-3.04,1.25-3.04,1.25,0,0,3.2.18,4.03-.58s1.24-1.72.96-3.42-1.55-4.78-1.27-6.99c.28-2.21.55-5.93,1.36-6.15s1.83-2.93,3.11-1.9c1.28,1.04.88.22.78-1.47s-.4-2.77.3-4.34-.15-4.28-.96-4-1.13-.63.02-2.35c1.15-1.72,1.05-3.33,2.46-3.08s2.8,2.36,4.48,2.79,2.86-.14,3.83-1.78c.97-1.64.64-9.83.42-10.64s-2.06-1.43-1.73-2.92,3.17-3.22,3.12-4.03,1.7-2.05,2.61-2.63l.92-.58s.36-1.57,1.01-2.42c.65-.85,1.33-1.17,2.28-1.69.95-.53.28-2.09,1.27-2.66s4.12-1.6,3.94-3.41-1.85-3.6-.65-2.89c1.2.72,3.19,2.17,3.87,1.72s5.22-3.1,6.68-3.53c1.46-.43,3.2.26,4.63-.67,1.43-.93.71-2.02,1.96-2.79,1.26-.77,3.07-.57,4.16-2.46s1.7-4.3,2.37-5.59,1.43-1.04,2.67-1.37c1.23-.33,2.02-.62,2.85.63.83,1.26,1.51,2.07,2.02,1.81s.26-1.98-.27-2.45-1.53-.35-1.48-1.4.69-1.68,1.75-1.86,1.93-1.07,1.11-1.22-.73.19-.68-2.03c.05-2.21.25-1.82.97-1.78s1.61-1.14,1.14-1.83c-.47-.69-.73-.98.6-2.13,1.33-1.16,3.05-4.07,2.69-5.3s-1.51-4.34-2.37-4.88-.99-2.54-2.12-3.26-3.07.57-2.5-1.01c.57-1.58,2.68-1.59,2.97-2.96s2.59-7.97,1.98-8.94-.58-1.69-.52-2.96.05-5.76-.5-7,.34-5.97-1.32-6.05c-1.66-.08-4.27.18-3.54-1.22.73-1.41,4.18-4.01,3.61-4.81-.57-.8,2.01-1.57,1.86-3.01s.22-3.37.49-4.41-1.2-.39-1.41.43-.48-1.63-.37-2.62,2.49-3.37,1.89-4.84-1.39-3.45-1.5-4.56,1.91-2.9,1.43-4.36-2.36-2.77-1.88-4.74,2.36-5.26,2.86-6.46,3.26-2.12,3.77-3.59.63-4.01.77-5.61,1.22-2.38,3.18-3.89,4.21-2.29,4.8-1.93-1.83-1.19-1.22-2.33,2.15-.84,2.28-2.55,1.31-4.26,1.47-6.47c.16-2.21.48-3.08.33-4.53s-.52-2.99-.52-2.99l-2.56-.1Z"/>
  <path class="cls-3" d="M549.56,353.24s-2.68,2.58-.12,3.8-.36,1.73-1.32,5.28c-.95,3.54-2.34,2.81-3.5,7s-.18,5.83-.09,2.91,1.21-3.61,1.14-2.07-.66,3.82.77,4.09c1.43.26,1.85-.49,1.43,2.29s1.06,3.13-1.08,4-.56,1.89-3.08,3.22c-2.52,1.33-4.33.96-4.83,3.34s-.05,1.15-1.02,3.13-.7,2.47-2.8,2.08-.98.34-1.72,1.65-6.41,5-7.99,7.91c-1.58,2.91-3.6,6.77-3.11,8.72s-1.56.31-4.18,2.69c-2.62,2.38-6.51,4.9-4,3.86,2.51-1.04,4.63-2.96,6.34-2.4s2.06,1.25,2.59-1.71c.53-2.96,1.64-6.09,3.37-8.03,1.73-1.94,4.16-4.63,5.14-5.83s7.39-4.37,7.8-6.76,0-4.15,1.69-5.13,5.53-.7,5.83-2.9c.3-2.2,4.13-3.76,3.46-5.91s.94-3.62-1.02-4.87c-1.97-1.25-2.57-2.72-2.09-4.63s2.18-3.17,2.31-4.04,1.15-1.97,1.15-1.97l1.12-3.48.52-2.8-1.15-2.18s-.92-.24.12-1.7,1-2.35-.25-2.14-1.45,2.56-1.45,2.56Z"/>
  <polygon class="cls-9" points="530.99 142.83 513.47 142.29 515.62 163.62 512.9 609.46 526.3 609.88 528.56 165.51 530.99 142.83"/>
  <polygon class="cls-12" points="31.39 127.34 104.82 28.68 510.96 39.23 967.26 65.14 1026.62 157.99 31.39 127.34"/>
  <polygon class="cls-9" points="120.95 42.01 81.13 103.02 177.71 106 208.03 44.69 120.95 42.01"/>
  <polygon class="cls-9" points="954.35 77.37 985.55 126.2 879.24 122.93 861.23 74.5 954.35 77.37"/>
  <polygon class="cls-9" points="316.45 48.03 286.29 109.34 393.21 112.64 397.38 50.52 316.45 48.03"/>
  <polygon class="cls-9" points="418.47 51.17 417.41 113.38 529.8 116.84 509.52 53.97 418.47 51.17"/>
  <polygon class="cls-9" points="597.96 57.79 585.72 118.57 681.14 121.51 666.92 59.92 597.96 57.79"/>
  <polygon class="cls-9" points="686.83 60.53 702.64 122.17 784.6 124.69 759.48 65.69 686.83 60.53"/>
  <polygon class="cls-11" points="120.95 42.01 125.26 88.93 184.85 91.56 208.03 44.69 120.95 42.01"/>
  <polygon class="cls-11" points="316.45 48.03 305.36 95.27 393.66 97.99 397.38 50.52 316.45 48.03"/>
  <polygon class="cls-11" points="509.52 53.97 510.69 101.6 417.86 98.74 418.47 51.17 509.52 53.97"/>
  <polygon class="cls-9" points="597.96 57.79 594.32 104.17 666.7 106.4 666.92 59.92 597.96 57.79"/>
  <polyline class="cls-11" points="597.96 57.79 593.31 80.9 590.94 106.98 669.96 109.41 669.62 71.62 666.92 59.92"/>
  <polygon class="cls-11" points="759.48 65.69 763.03 109.37 698.85 107.39 686.83 60.53 759.48 65.69"/>
  <polygon class="cls-11" points="954.35 77.37 949.09 108.83 873.33 106.49 861.23 74.5 954.35 77.37"/>
</svg>