<?xml version="1.0" encoding="UTF-8"?>
<svg id="Layer_1" data-name="Layer 1" xmlns="http://www.w3.org/2000/svg" viewBox="0 0 666.94 1020.04">
  <defs>
    <style>
      .cls-1, .cls-2, .cls-3, .cls-4, .cls-5 {
        fill: none;
      }

      .cls-6, .cls-7, .cls-8, .cls-9 {
        fill: #e7a7ba;
      }

      .cls-2 {
        stroke: #231f20;
      }

      .cls-2, .cls-10, .cls-11, .cls-3, .cls-12, .cls-7, .cls-8, .cls-4, .cls-9, .cls-5, .cls-13 {
        stroke-miterlimit: 10;
      }

      .cls-14 {
        fill: #fefce9;
      }

      .cls-10, .cls-15, .cls-13 {
        fill: #79b1e0;
      }

      .cls-10, .cls-8, .cls-4 {
        stroke: #f9e7e8;
      }

      .cls-11, .cls-3, .cls-9 {
        stroke: #5182bb;
      }

      .cls-11, .cls-12, .cls-16 {
        fill: #5182bb;
      }

      .cls-12 {
        stroke: #79b1e0;
      }

      .cls-7, .cls-5, .cls-13 {
        stroke: #e7a7ba;
      }

      .cls-17 {
        fill: #f9e7e8;
      }
    </style>
  </defs>
  <rect class="cls-12" x="31.61" y="904.6" width="11.21" height="6.58" rx="1.69" ry="1.69"/>
  <rect class="cls-12" x="19.65" y="904.6" width="11.21" height="6.58" rx="1.69" ry="1.69"/>
  <rect class="cls-12" x="25.26" y="912.22" width="11.21" height="6.58" rx="1.69" ry="1.69"/>
  <rect class="cls-12" x="26" y="897.39" width="11.21" height="6.58" rx="1.69" ry="1.69"/>
  <rect class="cls-12" x="31.61" y="889.89" width="11.21" height="6.58" rx="1.69" ry="1.69"/>
  <rect class="cls-12" x="18.68" y="919.83" width="12.18" height="6.58" rx="1.69" ry="1.69"/>
  <rect class="cls-12" x="104.6" y="921.04" width="11.21" height="6.58" rx="1.69" ry="1.69"/>
  <rect class="cls-12" x="98.99" y="928.39" width="11.21" height="6.58" rx="1.69" ry="1.69"/>
  <rect class="cls-12" x="31.61" y="919.83" width="11.21" height="6.58" rx="1.69" ry="1.69"/>
  <rect class="cls-12" x="37.59" y="927.73" width="4.86" height="6.58" rx="1.69" ry="1.69"/>
  <rect class="cls-12" x="37.37" y="882.39" width="6.58" height="6.58" rx="1.69" ry="1.69"/>
  <rect class="cls-12" x="37.37" y="942.96" width="5.08" height="6.58" rx="1.69" ry="1.69"/>
  <rect class="cls-12" x="16.11" y="973.76" width="7.73" height="6.58" rx="1.69" ry="1.69"/>
  <rect class="cls-12" x="14.2" y="996.13" width="6.58" height="5.32" rx="1.69" ry="1.69"/>
  <rect class="cls-12" x="36.59" y="974.39" width="6.58" height="5.32" rx="1.69" ry="1.69"/>
  <rect class="cls-12" x="37.37" y="989.34" width="4.72" height="6.58" rx="1.69" ry="1.69"/>
  <rect class="cls-12" x="15.24" y="989.55" width="8.6" height="6.58" rx="1.69" ry="1.69"/>
  <rect class="cls-12" x="16.11" y="958.19" width="6.58" height="6.58" rx="1.69" ry="1.69"/>
  <rect class="cls-12" x="17.49" y="942.96" width="7.32" height="6.58" rx="1.69" ry="1.69"/>
  <rect class="cls-12" x="18.24" y="927.73" width="6.58" height="6.58" rx="1.69" ry="1.69"/>
  <rect class="cls-12" x="18.68" y="911.8" width="6.58" height="6.58" rx="1.69" ry="1.69"/>
  <rect class="cls-12" x="36.47" y="911.81" width="6.58" height="6.58" rx="1.69" ry="1.69"/>
  <rect class="cls-12" x="37.59" y="897.39" width="4.86" height="6.58" rx="1.69" ry="1.69"/>
  <rect class="cls-12" x="25.63" y="927.73" width="11.21" height="6.58" rx="1.69" ry="1.69"/>
  <rect class="cls-12" x="31.24" y="935.35" width="11.21" height="6.58" rx="1.69" ry="1.69"/>
  <rect class="cls-12" x="25.63" y="942.96" width="11.21" height="6.58" rx="1.69" ry="1.69"/>
  <rect class="cls-12" x="18.24" y="935.35" width="12.24" height="6.58" rx="1.69" ry="1.69"/>
  <rect class="cls-12" x="29.45" y="950.58" width="13" height="6.58" rx="1.69" ry="1.69"/>
  <rect class="cls-12" x="17.49" y="950.58" width="11.21" height="6.58" rx="1.69" ry="1.69"/>
  <rect class="cls-12" x="23.1" y="958.19" width="11.21" height="6.58" rx="1.69" ry="1.69"/>
  <rect class="cls-12" x="16.11" y="965.8" width="12.59" height="6.58" rx="1.69" ry="1.69"/>
  <rect class="cls-12" x="29.45" y="965.8" width="13" height="6.58" rx="1.69" ry="1.69"/>
  <rect class="cls-12" x="35.06" y="957.71" width="7.99" height="6.58" rx="1.69" ry="1.69"/>
  <rect class="cls-12" x="24.87" y="974.11" width="11.21" height="6.58" rx="1.69" ry="1.69"/>
  <rect class="cls-12" x="30.47" y="981.72" width="11.21" height="6.58" rx="1.69" ry="1.69"/>
  <rect class="cls-12" x="24.87" y="989.34" width="11.21" height="6.58" rx="1.69" ry="1.69"/>
  <rect class="cls-12" x="16.11" y="981.72" width="13.34" height="6.58" rx="1.69" ry="1.69"/>
  <rect class="cls-12" x="81.26" y="935.73" width="11.21" height="6.58" rx="1.69" ry="1.69"/>
  <rect class="cls-12" x="21.35" y="996.13" width="10.13" height="5.94" rx="1.69" ry="1.69"/>
  <rect class="cls-12" x="31.96" y="996.13" width="10.13" height="5.94" rx="1.69" ry="1.69"/>
  <rect class="cls-12" x="92.89" y="935.73" width="11.21" height="6.58" rx="1.69" ry="1.69"/>
  <rect class="cls-12" x="99.26" y="943.07" width="11.21" height="6.58" rx="1.69" ry="1.69"/>
  <rect class="cls-12" x="111.29" y="928" width="11.21" height="6.58" rx="1.69" ry="1.69"/>
  <path class="cls-5" d="M41.07,784.67c10.04,1.35,12.45-3.99,13.76,7.95,1.31,11.94.34,2.87,3.1,19.18,2.76,16.31,2.11,7.4,6.87,21.36,4.75,13.96,4.42,11.26,3.84,21.25s-5.51,6.43-3.5,22.23c2,15.8-1.14,19.2-2.03,25.72-.89,6.52-8.75,15.21-.71,16.9,8.04,1.69,10.64-13.25,10.25,6.73"/>
  <path class="cls-5" d="M104.87,775.61s.03-1.16-2.71,10.35c-2.75,11.51-6.69,4.64-2.9,16.59,3.79,11.94,6.64,4.03,2.03,17-4.61,12.97,3.27-1.44-3.59,11.39-6.86,12.83-17.44,9.98-6.92,14.87,10.52,4.89,6.22,10.94,9.92,13.93"/>
  <g>
    <path class="cls-14" d="M528.44,7.12S524.07.08,520.46,0c-3.62-.08-8.19,5.87-8.31,7.28-.12,1.41-.67,58.93-.67,58.93,0,0-4.57,4.08-5.14,5.94-.57,1.86-.18,8.93,1.5,10.28,1.68,1.35,5.1,2.51,5.1,2.51l-89.72,349-28.32,31.33,17.26,17.68-1.8,202.68-314.76-2.71L0,778.59l29.15,3.71-1.1,82.63-21.38,35.74-2.79,110.85,442.54,8.51,35.93-10.99,104.07-2.73,80.53,9.08-2.91-106.73-59.5-7.68v-84.57l11.93-4.36-28.35-64.96-.28-237,14.71-14.6-17.47-32.51-55.5-377.73s3.69-2.58,5.44-7.1c1.16-3,.01-6-1-8.05-.94-1.91-5.74-4.04-5.74-4.04l.17-58.95Z"/>
    <polygon class="cls-15" points="443.26 921.59 443.28 1009.05 477.66 992.54 586.24 992.54 653.83 1000.79 653.36 922.83 586.22 915.46 477.84 914.57 443.26 921.59"/>
    <polyline class="cls-17" points="576.01 749.09 576.01 502.51 547.65 486.43 500.65 470.24 452.54 470.24 427.42 478.9 427.42 626.51 427.42 699.25 453.75 699.68 477.66 748.72 477.66 915.85 586.24 915.85 589.79 788.6"/>
    <polygon class="cls-15" points="100.22 694.01 24.14 772.76 441.89 787.58 477.66 748.72 573.42 762.99 599.75 804.17 576.01 749.09 453.75 699.68 100.22 694.01"/>
    <polyline class="cls-17" points="41.07 773.36 41.07 879.27 19.25 905.08 14.08 1001.92 443.28 1009.05 443.28 913.05 443.28 833.97 441.89 787.58"/>
    <polygon class="cls-6" points="477.66 748.72 477.66 915.85 443.28 923.08 441.89 787.58 477.66 748.72"/>
    <polyline class="cls-17" points="477.66 915.85 586.22 915.46 589.78 788.21 573.41 762.6 477.65 748.33"/>
    <polyline class="cls-3" points="443.28 1009.53 477.56 993.12 586.24 992.54 653.83 1000.79"/>
    <line class="cls-3" x1="452.54" y1="470.24" x2="453.75" y2="699.68"/>
    <line class="cls-3" x1="500.65" y1="470.24" x2="501.71" y2="719.06"/>
    <line class="cls-11" x1="547.65" y1="486.43" x2="547.65" y2="737.63"/>
    <polygon class="cls-6" points="427.42 558.07 452.54 546.82 501.18 546.82 547.65 560.38 576.01 573.36 579.31 575.43 579.31 583.13 547.65 569.44 501.71 555.82 453.14 555.24 427.42 564.97 423.21 567.06 423.21 560.35 427.42 558.07"/>
    <polygon class="cls-6" points="423.21 631.16 453.14 623.03 501.18 624.66 547.65 637.02 576.01 649.72 579.31 651.44 579.31 659.45 547.65 645.14 501.18 633.54 453.39 632.41 427.42 637.51 423.21 638.93 423.21 631.16"/>
    <polyline class="cls-9" points="427.42 478.9 412.15 466.81 441.44 454.46 452.54 470.24"/>
    <polyline class="cls-6" points="576.01 502.51 587.83 495.41 552.59 471.5 520.46 84.15 501.71 454.46"/>
    <polyline class="cls-1" points="412.15 466.81 437.6 443.37 520.46 84.15 439.79 451.28 501.71 454.46 552.59 471.5 547.65 486.43"/>
    <circle class="cls-16" cx="520.46" cy="78.15" r="6"/>
    <line class="cls-3" x1="520.46" y1="11.46" x2="520.46" y2="72.16"/>
    <path class="cls-7" d="M438.08,567.5s-5.65,5.18-6.06,9.99c-.41,4.8-.56,47-.56,47l19.07-4.81-1.12-43.53s-.59-6.06-3.2-7.97c-2.61-1.9-4.2-3.44-4.2-3.44l-3.92,2.75Z"/>
    <path class="cls-13" d="M438.94,570.76s-3.98,4.64-4.27,8.94c-.29,4.3-.4,41.56-.4,41.56l13.19-2.99-.53-39.77s-.42-5.42-2.26-7.13c-1.84-1.7-2.96-3.08-2.96-3.08l-2.76,2.46Z"/>
    <path class="cls-7" d="M438.49,489.18s-5.71,5.18-6.12,9.99c-.41,4.8-.24,51.23-.24,51.23l17.56-7.18.23-45.38s-.6-6.06-3.24-7.97c-2.64-1.9-4.24-3.44-4.24-3.44l-3.96,2.75Z"/>
    <path class="cls-13" d="M439.28,491.91s-3.98,4.64-4.27,8.94c-.29,4.3-.05,45.3-.05,45.3l12.23-4.8.07-41.7s-.42-5.42-2.26-7.13c-1.84-1.7-2.96-3.08-2.96-3.08l-2.76,2.46Z"/>
    <path class="cls-7" d="M473.71,567.32s-3.83,3.43-3.89,5.85-1.11,46.82-1.11,46.82l22.24.99-.74-46.17s-.39-5.05-2.87-6.77c-2.48-1.72-6.91-3.93-6.91-3.93l-6.73,3.22Z"/>
    <path class="cls-13" d="M475.23,569.53s-2.85,3.13-2.89,5.34-.82,42.74-.82,42.74l15.99.43v-41.67s-.29-4.61-2.13-6.18-5.14-3.59-5.14-3.59l-5.01,2.94Z"/>
    <path class="cls-7" d="M521.53,571.1s-7.5,5-7.6,9.2c-.1,4.2-.02,43.26-.02,43.26l22.6,5.96.5-33.27c-.65-2.76,1.06-17.54-1.91-20.15-2.49-2.19-5.81-5.04-5.81-5.04l-3.43-2.75-4.32,2.8Z"/>
    <path class="cls-13" d="M522.85,573.72s-5.44,4.47-5.51,8.23c-.07,3.75-.01,39.33-.01,39.33l16.39,4.67.36-29.74c-.47-2.47.77-15.68-1.39-18.02-1.81-1.95-4.22-4.51-4.22-4.51l-2.49-2.46-3.13,2.5Z"/>
    <path class="cls-7" d="M521.53,489.22s-7.5,5-7.6,9.2c-.1,4.2-.02,45.22-.02,45.22l22.84,6.77.25-36.05c-.65-2.76,1.06-17.54-1.91-20.15-2.49-2.19-5.81-5.04-5.81-5.04l-3.43-2.75-4.32,2.8Z"/>
    <path class="cls-13" d="M522.85,491.85s-5.44,4.47-5.51,8.23c-.07,3.75-.01,40.42-.01,40.42l16.37,5.3.38-31.47c-.47-2.47.77-15.68-1.39-18.02-1.81-1.95-4.22-4.51-4.22-4.51l-2.49-2.46-3.13,2.5Z"/>
    <path class="cls-7" d="M560.14,584.46s-3.13,3.05-3.53,6.35.13,45.47.13,45.47l15.93,6.98-.03-49.23s.27-4.23-.95-6.31c-1.22-2.08-2.14-2.9-2.14-2.9l-4.99-4.51-4.43,4.15Z"/>
    <path class="cls-13" d="M562.02,587.38s-2.02,2.76-2.28,5.74c-.26,2.98.08,41.1.08,41.1l10.3,4.57-.02-42.76s.18-3.82-.61-5.7l-.79-1.88-3.81-4.82-2.86,3.75Z"/>
    <path class="cls-7" d="M560.45,505.95s-3.13,3.05-3.53,6.35.13,45.47.13,45.47l15.93,8.56-.03-50.81s.27-4.23-.95-6.31l-1.22-2.08-5.9-5.34-4.43,4.15Z"/>
    <path class="cls-13" d="M562.33,508.86s-2.02,2.76-2.28,5.74c-.26,2.98.08,41.1.08,41.1l10.3,5.83-.02-44.01s.18-3.82-.61-5.7l-.79-1.88-3.81-4.82-2.86,3.75Z"/>
    <polygon class="cls-8" points="118.9 1004.15 132.94 991.1 233.6 993.06 239.69 1005.67 118.9 1004.15"/>
    <path class="cls-2" d="M140.54,985.41v-84.46s-1.06-16.72,12.69-29.71,32.59-11.45,32.59-11.45c0,0,4.54-.1,9.74,1.21,4.51,1.14,8.36,2.27,13.42,4.11,5.65,2.05,11.64,5.73,13.85,8.3,6.9,7.99,8.29,17.01,8.29,28.86,0,9.62-3.69,85.52-3.69,85.52l-86.9-2.38Z"/>
    <polyline class="cls-8" points="132.94 986.41 134.87 900.25 113.03 900.25 113.03 888.18 134.87 888.18 149.22 855.84 171.1 855.84 171.1 831.2 184.08 811.85 199.5 831.2 199.89 856.53 225.93 857.32 238.49 889.05 255.95 889.39 255.42 901.98 237.96 901.64 233.6 989"/>
    <path class="cls-17" d="M177.58,859.73v-23.99s.94-8.01,4.81-9.67c3.86-1.67,4.97-.64,4.97-.64,0,0,2.4.05,3.42,1.63,1.01,1.59,2.32,4.12,2.39,6.11s0,11.39,0,11.39l.03,15.17h-15.61Z"/>
    <path class="cls-6" d="M267.79,890.34s-1.57-50.45,2.41-58.56,7.4-14.61,12.16-17.97c4.76-3.36,18.61-2.1,21.66.89,3.05,2.99,10.2,14.45,10.22,20.65.03,6.19-2.26,54.87-2.26,54.87l-44.19.13Z"/>
    <path class="cls-6" d="M328.97,893.48s-1.49-52.41,2.51-60.84c3.99-8.44,7.42-15.19,12.19-18.69,4.76-3.5,18.61-2.21,21.66.89s10.17,15,10.19,21.43c.02,6.43-2.35,57-2.35,57l-44.19.2Z"/>
    <path class="cls-6" d="M386.14,895.15s-1.56-50.57,2.42-58.71c3.98-8.14,7.4-14.65,12.16-18.02,4.76-3.37,18.61-2.11,21.66.89,3.05,3,10.19,14.49,10.22,20.7s-2.27,55.01-2.27,55.01l-44.19.13Z"/>
    <path class="cls-12" d="M453.06,1000.4l-6.89,1.18c-1.14.2-1.92-.59-2.12-1.73l-.26-2.61c-.2-1.14.13-1.94,1.27-2.14l6.89-1.18c1.14-.2,2.24.58,2.44,1.72l.4,2.32c.2,1.14-.58,2.24-1.72,2.44Z"/>
    <rect class="cls-12" x="445.89" y="986.07" width="11.21" height="6.58" rx="1.69" ry="1.69" transform="translate(-160.69 90.53) rotate(-9.73)"/>
    <rect class="cls-12" x="457.16" y="983.67" width="11.21" height="6.58" rx="1.69" ry="1.69" transform="translate(-160.13 92.39) rotate(-9.73)"/>
    <rect class="cls-12" x="468.78" y="981.04" width="11.21" height="6.58" rx="1.69" ry="1.69" transform="translate(-159.52 94.32) rotate(-9.73)"/>
    <rect class="cls-12" x="450.22" y="978.15" width="11.21" height="6.58" rx="1.69" ry="1.69" transform="translate(-159.29 91.14) rotate(-9.73)"/>
    <rect class="cls-12" x="461.74" y="975.05" width="11.21" height="6.58" rx="1.69" ry="1.69" transform="translate(-199.31 123.28) rotate(-12.41)"/>
    <rect class="cls-12" x="466.26" y="928.82" width="11.21" height="6.58" rx="1.69" ry="1.69" transform="translate(-189.27 123.17) rotate(-12.41)"/>
    <rect class="cls-12" x="476.39" y="950.46" width="4.22" height="5.96" rx="1.69" ry="1.69" transform="translate(-193.7 125.09) rotate(-12.41)"/>
    <rect class="cls-12" x="472.62" y="958.82" width="4.22" height="6.58" rx="1.69" ry="1.69" transform="translate(-195.65 124.48) rotate(-12.41)"/>
    <rect class="cls-12" x="479.59" y="933.47" width="4.22" height="6.58" rx="1.69" ry="1.69"/>
    <rect class="cls-12" x="480.23" y="948.19" width="4.22" height="6.58" rx="1.69" ry="1.69"/>
    <rect class="cls-12" x="476.99" y="962.86" width="4.22" height="6.58" rx="1.69" ry="1.69"/>
    <rect class="cls-12" x="474.88" y="935.38" width="4.22" height="6.58" rx="1.69" ry="1.69"/>
    <rect class="cls-12" x="481.23" y="962.49" width="4.22" height="6.58" rx="1.69" ry="1.69"/>
    <rect class="cls-12" x="473.76" y="973.31" width="4.22" height="6.58" rx="1.69" ry="1.69" transform="translate(-198.73 125.07) rotate(-12.41)"/>
    <path class="cls-12" d="M449.88,1004.91l-2.8,1.1c-1.01.69-2.24.16-2.67-.92h0c-.43-1.08.11-2.31,1.19-2.74l2.8-1.1c1.08-.43,2.31.11,2.74,1.19h0c.43,1.08-.11,2.31-1.25,2.47Z"/>
    <rect class="cls-12" x="480.11" y="977.56" width="4.22" height="6.58" rx="1.69" ry="1.69"/>
    <rect class="cls-12" x="478.35" y="926.16" width="11.21" height="6.58" rx="1.69" ry="1.69"/>
    <rect class="cls-12" x="483.95" y="933.51" width="11.21" height="6.58" rx="1.69" ry="1.69"/>
    <rect class="cls-12" x="496.04" y="933.51" width="11.21" height="6.58" rx="1.69" ry="1.69"/>
    <rect class="cls-12" x="490.43" y="926.16" width="11.21" height="6.58" rx="1.69" ry="1.69"/>
    <rect class="cls-12" x="501.64" y="926.16" width="11.21" height="6.58" rx="1.69" ry="1.69"/>
    <rect class="cls-12" x="513.28" y="926.16" width="11.21" height="6.58" rx="1.69" ry="1.69"/>
    <rect class="cls-12" x="525.25" y="926.16" width="11.21" height="6.58" rx="1.69" ry="1.69"/>
    <rect class="cls-12" x="537.4" y="926.16" width="11.21" height="6.58" rx="1.69" ry="1.69"/>
    <rect class="cls-12" x="549.49" y="926.16" width="11.21" height="6.58" rx="1.69" ry="1.69"/>
    <rect class="cls-12" x="560.7" y="926.16" width="11.21" height="6.58" rx="1.69" ry="1.69"/>
    <rect class="cls-12" x="572.33" y="926.16" width="11.21" height="6.58" rx="1.69" ry="1.69"/>
    <rect class="cls-12" x="584.31" y="926.16" width="11.21" height="6.58" rx="1.69" ry="1.69"/>
    <rect class="cls-12" x="478.88" y="984.91" width="11.21" height="6.58" rx="2.64" ry="2.64"/>
    <rect class="cls-12" x="490.96" y="984.91" width="11.21" height="6.58" rx="1.69" ry="1.69"/>
    <rect class="cls-12" x="502.18" y="984.91" width="11.21" height="6.58" rx="1.69" ry="1.69"/>
    <rect class="cls-12" x="513.81" y="984.91" width="11.21" height="6.58" rx="1.69" ry="1.69"/>
    <rect class="cls-12" x="525.79" y="984.91" width="11.21" height="6.58" rx="1.69" ry="1.69"/>
    <rect class="cls-12" x="519.65" y="933.51" width="11.21" height="6.58" rx="1.69" ry="1.69"/>
    <rect class="cls-12" x="507.67" y="933.51" width="11.21" height="6.58" rx="1.69" ry="1.69"/>
    <rect class="cls-12" x="479.84" y="940.85" width="11.21" height="6.58" rx="1.69" ry="1.69"/>
    <rect class="cls-12" x="485.45" y="948.19" width="11.21" height="6.58" rx="1.69" ry="1.69"/>
    <rect class="cls-12" x="497.54" y="948.19" width="11.21" height="6.58" rx="1.69" ry="1.69"/>
    <rect class="cls-12" x="491.93" y="940.85" width="11.21" height="6.58" rx="1.69" ry="1.69"/>
    <rect class="cls-12" x="503.14" y="940.85" width="11.21" height="6.58" rx="1.69" ry="1.69"/>
    <rect class="cls-12" x="514.78" y="940.85" width="11.21" height="6.58" rx="1.69" ry="1.69"/>
    <rect class="cls-12" x="526.75" y="940.85" width="11.21" height="6.58" rx="1.69" ry="1.69"/>
    <rect class="cls-12" x="521.14" y="948.19" width="11.21" height="6.58" rx="1.69" ry="1.69"/>
    <rect class="cls-12" x="509.17" y="948.19" width="11.21" height="6.58" rx="1.69" ry="1.69"/>
    <rect class="cls-12" x="480.11" y="955.53" width="11.21" height="6.58" rx="1.69" ry="1.69"/>
    <rect class="cls-12" x="485.72" y="962.88" width="11.21" height="6.58" rx="1.69" ry="1.69"/>
    <rect class="cls-12" x="497.8" y="962.88" width="11.21" height="6.58" rx="1.69" ry="1.69"/>
    <rect class="cls-12" x="492.2" y="955.53" width="11.21" height="6.58" rx="1.69" ry="1.69"/>
    <rect class="cls-12" x="503.41" y="955.53" width="11.21" height="6.58" rx="1.69" ry="1.69"/>
    <rect class="cls-12" x="515.04" y="955.53" width="11.21" height="6.58" rx="1.69" ry="1.69"/>
    <rect class="cls-12" x="527.02" y="955.53" width="11.21" height="6.58" rx="1.69" ry="1.69"/>
    <rect class="cls-12" x="521.41" y="962.88" width="11.21" height="6.58" rx="1.69" ry="1.69"/>
    <rect class="cls-12" x="509.44" y="962.88" width="11.21" height="6.58" rx="1.69" ry="1.69"/>
    <rect class="cls-12" x="478.61" y="970.22" width="11.21" height="6.58" rx="1.69" ry="1.69"/>
    <rect class="cls-12" x="484.22" y="977.56" width="11.21" height="6.58" rx="1.69" ry="1.69"/>
    <rect class="cls-12" x="496.3" y="977.56" width="11.21" height="6.58" rx="1.69" ry="1.69"/>
    <rect class="cls-12" x="490.7" y="970.22" width="11.21" height="6.58" rx="1.69" ry="1.69"/>
    <rect class="cls-12" x="501.91" y="970.22" width="11.21" height="6.58" rx="1.69" ry="1.69"/>
    <rect class="cls-12" x="513.55" y="970.22" width="11.21" height="6.58" rx="1.69" ry="1.69"/>
    <rect class="cls-12" x="525.52" y="970.22" width="11.21" height="6.58" rx="1.69" ry="1.69"/>
    <rect class="cls-12" x="519.91" y="977.56" width="11.21" height="6.58" rx="1.69" ry="1.69"/>
    <rect class="cls-12" x="507.94" y="977.56" width="11.21" height="6.58" rx="1.69" ry="1.69"/>
    <rect class="cls-12" x="531.95" y="933.12" width="11.21" height="6.58" rx="1.69" ry="1.69"/>
    <rect class="cls-12" x="537.56" y="940.47" width="11.21" height="6.58" rx="1.69" ry="1.69"/>
    <rect class="cls-12" x="549.64" y="940.47" width="11.21" height="6.58" rx="1.69" ry="1.69"/>
    <rect class="cls-12" x="544.04" y="933.12" width="11.21" height="6.58" rx="1.69" ry="1.69"/>
    <rect class="cls-12" x="555.25" y="933.12" width="11.21" height="6.58" rx="1.69" ry="1.69"/>
    <rect class="cls-12" x="566.88" y="933.12" width="11.21" height="6.58" rx="1.69" ry="1.69"/>
    <rect class="cls-12" x="578.86" y="933.12" width="11.21" height="6.58" rx="1.69" ry="1.69"/>
    <rect class="cls-12" x="573.25" y="940.47" width="11.21" height="6.58" rx="1.69" ry="1.69"/>
    <rect class="cls-12" x="561.28" y="940.47" width="11.21" height="6.58" rx="1.69" ry="1.69"/>
    <rect class="cls-12" x="533.45" y="947.81" width="11.21" height="6.58" rx="1.69" ry="1.69"/>
    <rect class="cls-12" x="363.38" y="952.05" width="11.21" height="6.58" rx="1.69" ry="1.69"/>
    <rect class="cls-12" x="369.86" y="944.71" width="11.21" height="6.58" rx="1.69" ry="1.69"/>
    <rect class="cls-12" x="381.08" y="944.71" width="11.21" height="6.58" rx="1.69" ry="1.69"/>
    <rect class="cls-12" x="392.71" y="944.71" width="11.21" height="6.58" rx="1.69" ry="1.69"/>
    <rect class="cls-12" x="404.69" y="944.71" width="11.21" height="6.58" rx="1.69" ry="1.69"/>
    <rect class="cls-12" x="399.08" y="952.05" width="11.21" height="6.58" rx="1.69" ry="1.69"/>
    <rect class="cls-12" x="387.1" y="952.05" width="11.21" height="6.58" rx="1.69" ry="1.69"/>
    <rect class="cls-12" x="381.34" y="959.4" width="11.21" height="6.58" rx="1.69" ry="1.69"/>
    <rect class="cls-12" x="392.98" y="959.4" width="11.21" height="6.58" rx="1.69" ry="1.69"/>
    <rect class="cls-12" x="399.35" y="966.74" width="11.21" height="6.58" rx="1.69" ry="1.69"/>
    <rect class="cls-12" x="411.38" y="951.67" width="11.21" height="6.58" rx="1.69" ry="1.69"/>
    <rect class="cls-12" x="196.18" y="808.86" width="11.21" height="6.58" rx="1.69" ry="1.69"/>
    <rect class="cls-12" x="202.66" y="801.52" width="11.21" height="6.58" rx="1.69" ry="1.69"/>
    <rect class="cls-12" x="213.87" y="801.52" width="11.21" height="6.58" rx="1.69" ry="1.69"/>
    <rect class="cls-12" x="225.5" y="801.52" width="11.21" height="6.58" rx="1.69" ry="1.69"/>
    <rect class="cls-12" x="237.48" y="801.52" width="11.21" height="6.58" rx="1.69" ry="1.69"/>
    <rect class="cls-12" x="231.87" y="808.86" width="11.21" height="6.58" rx="1.69" ry="1.69"/>
    <rect class="cls-12" x="219.9" y="808.86" width="11.21" height="6.58" rx="1.69" ry="1.69"/>
    <rect class="cls-12" x="214.14" y="816.21" width="11.21" height="6.58" rx="1.69" ry="1.69"/>
    <rect class="cls-12" x="225.77" y="816.21" width="11.21" height="6.58" rx="1.69" ry="1.69"/>
    <rect class="cls-12" x="232.14" y="823.55" width="11.21" height="6.58" rx="1.69" ry="1.69"/>
    <rect class="cls-12" x="244.17" y="808.48" width="11.21" height="6.58" rx="1.69" ry="1.69"/>
    <rect class="cls-12" x="539.05" y="955.15" width="11.21" height="6.58" rx="1.69" ry="1.69"/>
    <rect class="cls-12" x="551.14" y="955.15" width="11.21" height="6.58" rx="1.69" ry="1.69"/>
    <rect class="cls-12" x="545.53" y="947.81" width="11.21" height="6.58" rx="1.69" ry="1.69"/>
    <rect class="cls-12" x="556.75" y="947.81" width="11.21" height="6.58" rx="1.69" ry="1.69"/>
    <rect class="cls-12" x="568.38" y="947.81" width="11.21" height="6.58" rx="1.69" ry="1.69"/>
    <rect class="cls-12" x="580.35" y="947.81" width="11.21" height="6.58" rx="1.69" ry="1.69"/>
    <rect class="cls-12" x="574.75" y="955.15" width="11.21" height="6.58" rx="1.69" ry="1.69"/>
    <rect class="cls-12" x="562.77" y="955.15" width="11.21" height="6.58" rx="1.69" ry="1.69"/>
    <rect class="cls-12" x="533.71" y="962.49" width="11.21" height="6.58" rx="1.69" ry="1.69"/>
    <rect class="cls-12" x="539.32" y="969.84" width="11.21" height="6.58" rx="1.69" ry="1.69"/>
    <rect class="cls-12" x="551.41" y="969.84" width="11.21" height="6.58" rx="1.69" ry="1.69"/>
    <rect class="cls-12" x="545.8" y="962.49" width="11.21" height="6.58" rx="1.69" ry="1.69"/>
    <rect class="cls-12" x="557.01" y="962.49" width="11.21" height="6.58" rx="1.69" ry="1.69"/>
    <rect class="cls-12" x="568.65" y="962.49" width="11.21" height="6.58" rx="1.69" ry="1.69"/>
    <rect class="cls-12" x="580.62" y="962.49" width="11.21" height="6.58" rx="1.69" ry="1.69"/>
    <rect class="cls-12" x="575.01" y="969.84" width="11.21" height="6.58" rx="1.69" ry="1.69"/>
    <rect class="cls-12" x="563.04" y="969.84" width="11.21" height="6.58" rx="1.69" ry="1.69"/>
    <rect class="cls-12" x="532.22" y="977.18" width="11.21" height="6.58" rx="1.69" ry="1.69"/>
    <rect class="cls-12" x="537.82" y="984.52" width="11.21" height="6.58" rx="1.69" ry="1.69"/>
    <rect class="cls-12" x="549.91" y="984.52" width="11.21" height="6.58" rx="1.69" ry="1.69"/>
    <rect class="cls-12" x="544.3" y="977.18" width="11.21" height="6.58" rx="1.69" ry="1.69"/>
    <rect class="cls-12" x="555.51" y="977.18" width="11.21" height="6.58" rx="1.69" ry="1.69"/>
    <rect class="cls-12" x="567.15" y="977.18" width="11.21" height="6.58" rx="1.69" ry="1.69"/>
    <rect class="cls-12" x="579.12" y="977.18" width="11.21" height="6.58" rx="1.69" ry="1.69"/>
    <rect class="cls-12" x="573.52" y="984.52" width="11.21" height="6.58" rx="1.69" ry="1.69"/>
    <rect class="cls-12" x="561.54" y="984.52" width="11.21" height="6.58" rx="1.69" ry="1.69"/>
    <rect class="cls-12" x="595.8" y="934.39" width="11.21" height="6.58" rx="1.69" ry="1.69" transform="translate(111.31 -62.69) rotate(6.57)"/>
    <rect class="cls-12" x="600.53" y="942.33" width="11.21" height="6.58" rx="1.69" ry="1.69" transform="translate(112.24 -63.18) rotate(6.57)"/>
    <rect class="cls-12" x="612.54" y="943.71" width="11.21" height="6.58" rx="1.69" ry="1.69" transform="translate(112.48 -64.54) rotate(6.57)"/>
    <rect class="cls-12" x="607.81" y="935.78" width="11.21" height="6.58" rx="1.69" ry="1.69" transform="translate(111.54 -64.05) rotate(6.57)"/>
    <rect class="cls-12" x="618.95" y="937.06" width="11.21" height="6.58" rx="1.69" ry="1.69" transform="translate(111.76 -65.32) rotate(6.57)"/>
    <rect class="cls-12" x="630.5" y="938.39" width="11.21" height="6.58" rx="1.69" ry="1.69" transform="translate(111.99 -66.63) rotate(6.57)"/>
    <rect class="cls-12" x="642.4" y="939.76" width="11.21" height="6.58" rx="1.69" ry="1.69" transform="translate(112.23 -67.99) rotate(6.57)"/>
    <rect class="cls-12" x="596.01" y="927.15" width="11.21" height="6.58" rx="1.69" ry="1.69" transform="translate(110.48 -62.76) rotate(6.57)"/>
    <rect class="cls-12" x="588.49" y="940.94" width="11.21" height="6.58" rx="1.69" ry="1.69" transform="translate(112.01 -61.81) rotate(6.57)"/>
    <rect class="cls-12" x="588.49" y="955.72" width="11.21" height="6.58" rx="1.69" ry="1.69" transform="translate(113.7 -61.71) rotate(6.57)"/>
    <rect class="cls-12" x="586.81" y="970.31" width="11.21" height="6.58" rx="1.69" ry="1.69" transform="translate(115.36 -61.42) rotate(6.57)"/>
    <rect class="cls-12" x="584.73" y="984.92" width="11.21" height="6.58" rx="1.69" ry="1.69" transform="translate(117.02 -61.09) rotate(6.57)"/>
    <rect class="cls-12" x="608.02" y="928.53" width="11.21" height="6.58" rx="1.69" ry="1.69" transform="translate(110.71 -64.12) rotate(6.57)"/>
    <rect class="cls-12" x="619.16" y="929.82" width="11.21" height="6.58" rx="1.69" ry="1.69" transform="translate(110.93 -65.39) rotate(6.57)"/>
    <rect class="cls-12" x="630.72" y="931.15" width="11.21" height="6.58" rx="1.69" ry="1.69" transform="translate(111.16 -66.71) rotate(6.57)"/>
    <rect class="cls-12" x="642.61" y="932.52" width="11.21" height="6.58" rx="1.69" ry="1.69" transform="translate(111.4 -68.06) rotate(6.57)"/>
    <rect class="cls-12" x="635.99" y="946.42" width="11.21" height="6.58" rx="1.69" ry="1.69" transform="translate(112.95 -67.21) rotate(6.57)"/>
    <rect class="cls-12" x="624.09" y="945.04" width="11.21" height="6.58" rx="1.69" ry="1.69" transform="translate(112.71 -65.86) rotate(6.57)"/>
    <rect class="cls-12" x="595.61" y="949.15" width="11.21" height="6.58" rx="1.69" ry="1.69" transform="translate(112.99 -62.57) rotate(6.57)"/>
    <rect class="cls-12" x="600.34" y="957.09" width="11.21" height="6.58" rx="1.69" ry="1.69" transform="translate(113.93 -63.06) rotate(6.57)"/>
    <rect class="cls-12" x="612.34" y="958.47" width="11.21" height="6.58" rx="1.69" ry="1.69" transform="translate(114.17 -64.42) rotate(6.57)"/>
    <rect class="cls-12" x="607.61" y="950.54" width="11.21" height="6.58" rx="1.69" ry="1.69" transform="translate(113.23 -63.93) rotate(6.57)"/>
    <rect class="cls-12" x="618.75" y="951.82" width="11.21" height="6.58" rx="1.69" ry="1.69" transform="translate(113.45 -65.2) rotate(6.57)"/>
    <rect class="cls-12" x="630.31" y="953.15" width="11.21" height="6.58" rx="1.69" ry="1.69" transform="translate(113.68 -66.51) rotate(6.57)"/>
    <rect class="cls-12" x="642.21" y="954.52" width="11.21" height="6.58" rx="1.69" ry="1.69" transform="translate(113.91 -67.87) rotate(6.57)"/>
    <rect class="cls-12" x="635.8" y="961.18" width="11.21" height="6.58" rx="1.69" ry="1.69" transform="translate(114.63 -67.09) rotate(6.57)"/>
    <rect class="cls-12" x="648.25" y="947.44" width="4.5" height="6.58" rx="1.69" ry="1.69" transform="translate(113.12 -68.22) rotate(6.57)"/>
    <rect class="cls-12" x="590.74" y="933.36" width="4.5" height="6.58" rx="1.69" ry="1.69"/>
    <rect class="cls-12" x="591.58" y="948.35" width="4.22" height="6.58" rx="1.69" ry="1.69" transform="translate(112.85 -61.71) rotate(6.57)"/>
    <rect class="cls-12" x="584.3" y="940.47" width="4.22" height="6.58" rx="1.69" ry="1.69"/>
    <rect class="cls-12" x="647.64" y="962.2" width="5.3" height="6.58" rx="1.69" ry="1.69" transform="translate(114.81 -68.1) rotate(6.57)"/>
    <rect class="cls-12" x="649.46" y="984.17" width="4.22" height="6.58" rx="1.69" ry="1.69" transform="translate(117.33 -68.1) rotate(6.57)"/>
    <rect class="cls-12" x="646.59" y="976.94" width="6.58" height="6.58" rx="1.69" ry="1.69" transform="translate(116.49 -67.96) rotate(6.57)"/>
    <rect class="cls-12" x="642.72" y="991.48" width="10.13" height="6.58" rx="1.69" ry="1.69" transform="translate(118.15 -67.62) rotate(6.57)"/>
    <rect class="cls-12" x="623.9" y="959.81" width="11.21" height="6.58" rx="1.69" ry="1.69" transform="translate(114.4 -65.74) rotate(6.57)"/>
    <rect class="cls-12" x="594.19" y="963.77" width="11.21" height="6.58" rx="1.69" ry="1.69" transform="translate(114.66 -62.31) rotate(6.57)"/>
    <rect class="cls-12" x="598.92" y="971.71" width="11.21" height="6.58" rx="1.69" ry="1.69" transform="translate(115.6 -62.8) rotate(6.57)"/>
    <rect class="cls-12" x="610.93" y="973.09" width="11.21" height="6.58" rx="1.69" ry="1.69" transform="translate(115.84 -64.16) rotate(6.57)"/>
    <rect class="cls-12" x="606.2" y="965.16" width="11.21" height="6.58" rx="1.69" ry="1.69" transform="translate(114.9 -63.67) rotate(6.57)"/>
    <rect class="cls-12" x="617.34" y="966.44" width="11.21" height="6.58" rx="1.69" ry="1.69" transform="translate(115.12 -64.94) rotate(6.57)"/>
    <rect class="cls-12" x="628.89" y="967.77" width="11.21" height="6.58" rx="1.69" ry="1.69" transform="translate(115.34 -66.26) rotate(6.57)"/>
    <rect class="cls-12" x="640.79" y="969.14" width="11.21" height="6.58" rx="1.69" ry="1.69" transform="translate(115.58 -67.61) rotate(6.57)"/>
    <rect class="cls-12" x="634.38" y="975.8" width="11.21" height="6.58" rx="1.69" ry="1.69" transform="translate(116.3 -66.83) rotate(6.57)"/>
    <rect class="cls-12" x="622.48" y="974.42" width="11.21" height="6.58" rx="1.69" ry="1.69" transform="translate(116.06 -65.48) rotate(6.57)"/>
    <rect class="cls-12" x="591.02" y="978.19" width="11.21" height="6.58" rx="1.69" ry="1.69" transform="translate(116.29 -61.85) rotate(6.57)"/>
    <rect class="cls-12" x="595.75" y="986.13" width="11.21" height="6.58" rx="1.69" ry="1.69" transform="translate(117.23 -62.34) rotate(6.57)"/>
    <rect class="cls-12" x="607.76" y="987.51" width="11.21" height="6.58" rx="1.69" ry="1.69" transform="translate(117.46 -63.71) rotate(6.57)"/>
    <rect class="cls-12" x="603.03" y="979.57" width="11.21" height="6.58" rx="1.69" ry="1.69" transform="translate(116.53 -63.22) rotate(6.57)"/>
    <rect class="cls-12" x="614.17" y="980.86" width="11.21" height="6.58" rx="1.69" ry="1.69" transform="translate(116.75 -64.48) rotate(6.57)"/>
    <rect class="cls-12" x="625.72" y="982.19" width="11.21" height="6.58" rx="1.69" ry="1.69" transform="translate(116.97 -65.8) rotate(6.57)"/>
    <rect class="cls-12" x="637.62" y="983.56" width="11.21" height="6.58" rx="1.69" ry="1.69" transform="translate(117.21 -67.15) rotate(6.57)"/>
    <rect class="cls-12" x="631.21" y="990.21" width="11.21" height="6.58" rx="1.69" ry="1.69" transform="translate(117.93 -66.37) rotate(6.57)"/>
    <rect class="cls-12" x="619.31" y="988.84" width="11.21" height="6.58" rx="1.69" ry="1.69" transform="translate(117.69 -65.02) rotate(6.57)"/>
    <rect class="cls-12" x="463" y="937.22" width="11.21" height="6.58" rx="1.69" ry="1.69" transform="translate(-191.15 122.66) rotate(-12.41)"/>
    <rect class="cls-12" x="451.47" y="939.76" width="11.21" height="6.58" rx="1.69" ry="1.69" transform="translate(-191.96 120.24) rotate(-12.41)"/>
    <rect class="cls-12" x="443.54" y="941.84" width="8.14" height="6.58" rx="1.69" ry="1.69" transform="translate(-192.63 118.26) rotate(-12.41)"/>
    <rect class="cls-12" x="443.74" y="964.54" width="5.34" height="6.58" rx="1.69" ry="1.69" transform="translate(-197.54 118.53) rotate(-12.41)"/>
    <rect class="cls-12" x="444.67" y="979.6" width="5.34" height="6.58" rx="1.69" ry="1.69" transform="translate(-200.75 119.08) rotate(-12.41)"/>
    <rect class="cls-12" x="446.67" y="948.45" width="11.21" height="6.58" rx="1.69" ry="1.69" transform="translate(-193.94 119.42) rotate(-12.41)"/>
    <rect class="cls-12" x="457.52" y="946.06" width="11.21" height="6.58" rx="1.69" ry="1.69" transform="translate(-193.18 121.69) rotate(-12.41)"/>
    <rect class="cls-12" x="468.78" y="943.77" width="11.21" height="6.58" rx="1.69" ry="1.69" transform="translate(-192.42 124.06) rotate(-12.41)"/>
    <rect class="cls-12" x="443.45" y="956.31" width="11.21" height="6.58" rx="2.64" ry="2.64" transform="translate(-195.71 118.91) rotate(-12.41)"/>
    <rect class="cls-12" x="454.31" y="953.92" width="11.21" height="6.58" rx="2.04" ry="2.04" transform="translate(-194.94 121.19) rotate(-12.41)"/>
    <rect class="cls-12" x="465.57" y="951.64" width="11.21" height="6.58" rx="1.69" ry="1.69" transform="translate(-194.19 123.55) rotate(-12.41)"/>
    <rect class="cls-12" x="449.23" y="962.86" width="11.21" height="6.58" rx="1.69" ry="1.69" transform="translate(-196.98 120.3) rotate(-12.41)"/>
    <rect class="cls-12" x="460.63" y="960.18" width="11.21" height="6.58" rx="1.69" ry="1.69" transform="translate(-196.14 122.69) rotate(-12.41)"/>
    <rect class="cls-12" x="444.29" y="971.4" width="11.21" height="6.58" rx="1.69" ry="1.69" transform="translate(-198.93 119.44) rotate(-12.41)"/>
    <rect class="cls-12" x="455.13" y="969.02" width="11.21" height="6.58" rx="1.69" ry="1.69" transform="translate(-198.17 121.71) rotate(-12.41)"/>
    <rect class="cls-12" x="466.26" y="966.57" width="11.21" height="6.58" rx="1.69" ry="1.69" transform="translate(-197.38 124.05) rotate(-12.41)"/>
    <rect class="cls-12" x="454.31" y="931.45" width="11.21" height="6.58" rx="1.69" ry="1.69" transform="translate(-190.11 120.66) rotate(-12.41)"/>
    <rect class="cls-12" x="443.45" y="933.84" width="11.21" height="6.58" rx="1.69" ry="1.69" transform="translate(-190.88 118.38) rotate(-12.41)"/>
    <rect class="cls-12" x="454.76" y="992.41" width="11.21" height="6.58" rx="2.56" ry="2.56" transform="translate(-203.2 122.18) rotate(-12.41)"/>
    <path class="cls-12" d="M475.22,992.88l-7.12,2.92c-1.11.32-1.82.02-2.14-1.09l-.65-2.27c-.32-1.11.33-2.29,1.44-2.61l6.72-1.93c1.11-.32,2.29.33,2.61,1.44l.4,1.39c.21.73-.08,1.54-.74,1.91-.3.17-.16.12-.53.23Z"/>
    <path class="cls-16" d="M146.74,981.92v-73.2s-.88-14.49,10.58-25.75c11.46-11.26,27.17-9.93,27.17-9.93,0,0,3.79-.09,8.12,1.05,3.76.99,6.96,1.97,11.18,3.56,4.71,1.78,9.7,4.97,11.55,7.19,5.75,6.93,6.91,14.74,6.91,25.01,0,8.34-3.07,74.12-3.07,74.12l-72.43-2.06Z"/>
    <line class="cls-7" x1="183.88" y1="795.34" x2="184.08" y2="811.85"/>
    <line class="cls-7" x1="179.44" y1="801.34" x2="188.23" y2="801.34"/>
    <path class="cls-15" d="M271.74,886.21s.18-48.72,3.5-55.69c3.33-6.97,5.1-10.03,9.07-12.93,3.97-2.89,15.92-1.94,18.47.63,2.54,2.57,7.75,12.89,7.76,18.21s-1.94,49.62-1.94,49.62l-36.86.15Z"/>
    <path class="cls-15" d="M332.93,888.73s-.55-47.59,2.78-54.56c3.33-6.97,5.16-12.93,9.13-15.82,3.97-2.89,16.89-1.92,19.43.65,2.54,2.57,7.15,14.52,7.17,19.84.02,5.32-1.65,49.74-1.65,49.74l-36.86.15Z"/>
    <path class="cls-15" d="M390.6,891.04s-1.02-46.92,2.31-53.89,5.24-11.5,9.21-14.39c3.97-2.89,16.75-1.92,19.29.65,2.54,2.57,8.01,14.69,8.03,20.01s-3.45,47.48-3.45,47.48l-35.39.15Z"/>
    <path class="cls-6" d="M507.78,870.01s-1.56-50.57,2.42-58.71,7.4-14.65,12.16-18.02,18.61-2.11,21.66.89c3.05,3,10.19,14.49,10.22,20.7.03,6.21-2.27,55.01-2.27,55.01l-44.19.13Z"/>
    <path class="cls-15" d="M512.24,865.89s-1.02-46.92,2.31-53.89c3.33-6.97,5.24-11.5,9.21-14.39s16.75-1.92,19.29.65c2.54,2.57,8.01,14.69,8.03,20.01s-3.45,47.48-3.45,47.48l-35.39.15Z"/>
    <path class="cls-10" d="M513.97,861.66s.17-33.2,1.61-38.18c1.43-4.98,2.26-8.21,3.91-10.3s6.81-1.57,7.8.22,3.06,10.3,3,14.07c-.06,3.76-1.99,33.66-1.99,33.66l-14.33.55Z"/>
    <path class="cls-10" d="M530.89,861.53s.17-33.1,1.6-38.07,2.26-8.18,3.91-10.27c1.64-2.09,6.81-1.56,7.8.22,1,1.78,3.06,10.27,3,14.02-.06,3.75-1.99,33.55-1.99,33.55l-14.33.54Z"/>
    <polygon class="cls-16" points="443.26 921.59 443.28 934.21 478.65 925.24 584.46 924.52 654.58 932.74 653.36 922.83 586.41 914.57 477.84 914.57 443.26 921.59"/>
    <polygon class="cls-16" points="520.47 84.23 520.46 84.15 437.6 443.37 412.15 466.81 441.44 454.46 501.71 454.46 552.59 471.5 587.84 495.49 570.12 466.68 520.47 84.23"/>
    <polyline class="cls-6" points="552.59 471.5 501.71 454.46 441.44 454.46 501.71 454.46 500.65 470.24"/>
    <polygon class="cls-15" points="520.46 84.15 437.6 443.37 412.15 466.81 441.44 454.46 520.46 84.15"/>
    <polygon class="cls-9" points="501.71 454.46 500.65 470.24 547.65 486.43 552.59 471.5 501.71 454.46"/>
    <polygon class="cls-9" points="442.76 455.08 452.54 470.24 500.65 470.24 501.71 454.46 442.76 455.08"/>
    <polygon class="cls-9" points="552.59 471.5 547.65 486.43 576.01 502.51 587.83 495.41 552.59 471.5"/>
    <polygon class="cls-15" points="157.32 882.98 155.23 982.17 164.56 982.43 165.13 877.31 157.32 882.98"/>
    <path class="cls-15" d="M172.78,874.36l-1.64,108.07h13.35v-109.38s-7.04-.27-11.71,1.31Z"/>
    <polyline class="cls-15" points="192.61 874.1 203.79 877.66 199.75 983.43 190.64 983.43 192.61 874.1"/>
    <path class="cls-15" d="M210.32,880.9s6.93,5.87,8.21,8.71-5.4,93.82-5.4,93.82h-7.42l4.62-102.54Z"/>
    <circle class="cls-10" cx="292.1" cy="824.24" r="6.11"/>
    <polygon class="cls-17" points="286.15 825.61 276.93 843.12 274.33 870.35 274.33 885.97 289.42 885.91 291.14 842.19 286.15 825.61"/>
    <polygon class="cls-17" points="298.05 825.61 291.14 842.19 289.42 885.91 305.75 886.13 305.75 869.92 304.8 842.62 298.05 825.61"/>
    <polygon class="cls-15" points="285.99 830.88 278.92 843.74 289.42 843.74 285.99 830.88"/>
    <polygon class="cls-15" points="298.21 830.88 291.14 843.74 301.65 843.74 298.21 830.88"/>
    <polygon class="cls-15" points="278.92 846.4 287.86 846.4 287.86 854.07 278.05 854.07 278.92 846.4"/>
    <polygon class="cls-15" points="292.36 846.4 301.3 846.4 301.3 854.07 291.49 854.07 292.36 846.4"/>
    <polygon class="cls-15" points="291.65 856.73 300.59 856.73 300.59 864.39 290.79 864.39 291.65 856.73"/>
    <polygon class="cls-15" points="278.7 856.73 287.64 856.73 287.64 864.39 277.83 864.39 278.7 856.73"/>
    <polygon class="cls-15" points="277.67 867.06 286.61 867.06 286.61 874.72 276.81 874.72 277.67 867.06"/>
    <polygon class="cls-15" points="291.65 867.06 300.59 867.06 300.59 874.72 290.79 874.72 291.65 867.06"/>
    <polygon class="cls-15" points="291.65 877.06 300.59 877.06 300.59 884.73 290.79 884.73 291.65 877.06"/>
    <polygon class="cls-15" points="277.67 877.06 286.61 877.06 286.61 884.73 276.81 884.73 277.67 877.06"/>
    <path class="cls-6" d="M292.1,823.9s-2.05-1.31-2.03-2.39c.02-1.08.33-2.16,1.24-2.2s1.84.15,1.97.89,0,1.56-.16,2.16-1.02,1.54-1.02,1.54"/>
    <path class="cls-16" d="M291.7,824.49s-1.92,1.49-2.93,1.11-1.92-1.04-1.65-1.91.76-1.69,1.5-1.56,1.47.53,1.98.87,1.1,1.48,1.1,1.48"/>
    <path class="cls-16" d="M292.37,824.73s2.09-.25,2.74.5,1.14,1.67.6,2.2-1.23.93-1.77.49-.97-1.07-1.25-1.57-.32-1.63-.32-1.63"/>
    <path class="cls-17" d="M291.7,825.02s1.23,1.7.89,2.64-.91,1.8-1.64,1.59-1.41-.63-1.29-1.32.47-1.37.77-1.85,1.27-1.07,1.27-1.07"/>
    <path class="cls-17" d="M292.82,823.99s.83-1.93,1.81-2.12,2.01-.15,2.21.59c.19.74.18,1.53-.47,1.78s-1.42.3-1.98.29-1.57-.54-1.57-.54"/>
    <circle class="cls-10" cx="354.22" cy="824.78" r="6.11"/>
    <polygon class="cls-17" points="348.27 826.15 339.05 843.66 336.46 870.9 336.46 886.51 351.55 886.46 353.27 842.73 348.27 826.15"/>
    <polygon class="cls-17" points="360.18 826.15 353.27 842.73 351.55 886.46 367.88 886.67 367.88 870.46 366.93 843.16 360.18 826.15"/>
    <polygon class="cls-15" points="348.11 831.42 341.04 844.28 351.55 844.28 348.11 831.42"/>
    <polygon class="cls-15" points="360.34 831.42 353.27 844.28 363.77 844.28 360.34 831.42"/>
    <polygon class="cls-15" points="341.04 846.94 349.99 846.94 349.99 854.61 340.18 854.61 341.04 846.94"/>
    <polygon class="cls-15" points="354.48 846.94 363.42 846.94 363.42 854.61 353.62 854.61 354.48 846.94"/>
    <polygon class="cls-15" points="353.78 857.27 362.72 857.27 362.72 864.94 352.91 864.94 353.78 857.27"/>
    <polygon class="cls-15" points="340.83 857.27 349.77 857.27 349.77 864.94 339.96 864.94 340.83 857.27"/>
    <polygon class="cls-15" points="339.8 867.6 348.74 867.6 348.74 875.26 338.93 875.26 339.8 867.6"/>
    <polygon class="cls-15" points="353.78 867.6 362.72 867.6 362.72 875.26 352.91 875.26 353.78 867.6"/>
    <polygon class="cls-15" points="353.78 877.6 362.72 877.6 362.72 885.27 352.91 885.27 353.78 877.6"/>
    <polygon class="cls-15" points="339.8 877.6 348.74 877.6 348.74 885.27 338.93 885.27 339.8 877.6"/>
    <path class="cls-6" d="M354.22,824.44s-2.05-1.31-2.03-2.39c.02-1.08.33-2.16,1.24-2.2s1.84.15,1.97.89,0,1.56-.16,2.16c-.15.59-1.02,1.54-1.02,1.54"/>
    <path class="cls-16" d="M353.82,825.04s-1.92,1.49-2.93,1.11-1.92-1.04-1.65-1.91c.27-.87.76-1.69,1.5-1.56s1.47.53,1.98.87,1.1,1.48,1.1,1.48"/>
    <path class="cls-16" d="M354.5,825.27s2.09-.25,2.74.5,1.14,1.67.6,2.2-1.23.93-1.77.49-.97-1.07-1.25-1.57-.32-1.63-.32-1.63"/>
    <path class="cls-17" d="M353.83,825.56s1.23,1.7.89,2.64-.91,1.8-1.64,1.59-1.41-.63-1.29-1.32.47-1.37.77-1.85,1.27-1.07,1.27-1.07"/>
    <path class="cls-17" d="M354.95,824.53s.83-1.93,1.81-2.12,2.01-.15,2.21.59c.19.74.18,1.53-.47,1.78s-1.42.3-1.98.29-1.57-.54-1.57-.54"/>
    <circle class="cls-10" cx="410.76" cy="827.9" r="6.11"/>
    <circle class="cls-10" cx="531.75" cy="806.81" r="7.99"/>
    <polygon class="cls-17" points="404.8 829.27 395.58 846.78 392.99 874.01 392.99 889.63 408.08 889.57 409.8 845.85 404.8 829.27"/>
    <polygon class="cls-17" points="416.71 829.27 409.8 845.85 408.08 889.57 424.41 889.79 424.41 873.58 423.46 846.28 416.71 829.27"/>
    <polygon class="cls-15" points="404.65 834.54 397.58 847.4 408.08 847.4 404.65 834.54"/>
    <polygon class="cls-15" points="416.87 834.54 409.8 847.4 420.3 847.4 416.87 834.54"/>
    <polygon class="cls-15" points="397.58 850.06 406.52 850.06 406.52 857.73 396.71 857.73 397.58 850.06"/>
    <polygon class="cls-15" points="411.01 850.06 419.96 850.06 419.96 857.73 410.15 857.73 411.01 850.06"/>
    <polygon class="cls-15" points="410.31 860.39 419.25 860.39 419.25 868.05 409.45 868.05 410.31 860.39"/>
    <polygon class="cls-15" points="397.36 860.39 406.3 860.39 406.3 868.05 396.49 868.05 397.36 860.39"/>
    <polygon class="cls-15" points="396.33 870.71 405.27 870.71 405.27 878.38 395.46 878.38 396.33 870.71"/>
    <polygon class="cls-15" points="410.31 870.71 419.25 870.71 419.25 878.38 409.45 878.38 410.31 870.71"/>
    <polygon class="cls-15" points="410.31 880.72 419.25 880.72 419.25 888.39 409.45 888.39 410.31 880.72"/>
    <polygon class="cls-15" points="396.33 880.72 405.27 880.72 405.27 888.39 395.46 888.39 396.33 880.72"/>
    <path class="cls-16" d="M410.76,827.56s-2.05-1.31-2.03-2.39.33-2.16,1.24-2.2,1.84.15,1.97.89c.13.74,0,1.56-.16,2.16s-1.02,1.54-1.02,1.54"/>
    <path class="cls-16" d="M531.9,805.08s-2.48-1.49-2.45-2.72c.03-1.23.4-2.46,1.49-2.5s2.22.17,2.38,1.01c.15.84,0,1.78-.19,2.46s-1.23,1.75-1.23,1.75"/>
    <path class="cls-17" d="M410.35,828.15s-1.92,1.49-2.93,1.11-1.92-1.04-1.65-1.91.76-1.69,1.5-1.56,1.47.53,1.98.87,1.1,1.48,1.1,1.48"/>
    <path class="cls-17" d="M530.88,805.72s-2.21,1.47-3.43,1.01-2.34-1.2-2.07-2.11c.27-.91.81-1.74,1.7-1.56.89.18,1.78.64,2.4,1.03s1.39,1.63,1.39,1.63"/>
    <path class="cls-17" d="M411.03,828.39s2.09-.25,2.74.5,1.14,1.67.6,2.2-1.23.93-1.77.49-.97-1.07-1.25-1.57-.32-1.63-.32-1.63"/>
    <path class="cls-17" d="M532.09,806.91s2.94-.36,3.86.7c.93,1.06,1.6,2.35.84,3.1s-1.74,1.31-2.5.7-1.37-1.51-1.75-2.21c-.39-.7-.46-2.29-.46-2.29"/>
    <path class="cls-16" d="M410.36,828.68s1.23,1.7.89,2.64c-.34.94-.91,1.8-1.64,1.59s-1.41-.63-1.29-1.32.47-1.37.77-1.85,1.27-1.07,1.27-1.07"/>
    <path class="cls-16" d="M530.7,806.81s1.8,2.5,1.3,3.88c-.5,1.38-1.33,2.64-2.4,2.33s-2.07-.92-1.89-1.93c.18-1,.69-2.01,1.13-2.71.44-.7,1.86-1.57,1.86-1.57"/>
    <path class="cls-6" d="M411.48,827.65s.83-1.93,1.81-2.12,2.01-.15,2.21.59.18,1.53-.47,1.78-1.42.3-1.98.29-1.57-.54-1.57-.54"/>
    <path class="cls-6" d="M532.42,805.74s1.01-2.51,2.23-2.75,2.51-.16,2.76.8.25,2.01-.56,2.32-1.76.37-2.47.35-1.96-.73-1.96-.73"/>
    <polygon class="cls-10" points="517.7 816.58 517.7 860.64 521.22 860.64 521.22 812.98 517.7 816.58"/>
    <polygon class="cls-4" points="524.09 812.98 524.09 860.64 526.27 860.64 526.27 812.98 524.09 812.32 524.09 812.98"/>
    <path class="cls-10" d="M531.59,861.4s.17-33.2,1.61-38.18,2.26-8.21,3.91-10.3,6.81-1.57,7.8.22,3.06,10.3,3,14.07c-.06,3.76-1.99,33.66-1.99,33.66l-14.33.55Z"/>
    <polygon class="cls-10" points="535.31 816.32 535.31 860.38 538.83 860.38 538.83 812.73 535.31 816.32"/>
    <polygon class="cls-4" points="541.7 812.73 541.7 860.38 543.88 860.38 543.88 812.73 541.7 812.06 541.7 812.73"/>
  </g>
</svg>