<?xml version="1.0" encoding="UTF-8"?>
<svg xmlns="http://www.w3.org/2000/svg" viewBox="0 0 1920 1080">
  <defs>
    <style>
      .cls-1 {
        fill: #c1cc99;
      }

      .cls-2 {
        fill: #eed8a2;
        stroke: #e4c16c;
      }

      .cls-2, .cls-3, .cls-4, .cls-5, .cls-6, .cls-7, .cls-8, .cls-9, .cls-10, .cls-11, .cls-12, .cls-13 {
        stroke-miterlimit: 10;
      }

      .cls-2, .cls-5, .cls-12 {
        stroke-width: 4px;
      }

      .cls-3, .cls-4, .cls-7, .cls-8, .cls-11 {
        fill: #ccc;
      }

      .cls-3, .cls-6, .cls-7, .cls-8, .cls-9, .cls-10, .cls-13 {
        stroke-width: 3px;
      }

      .cls-3, .cls-13 {
        stroke: #999;
      }

      .cls-14 {
        font-size: 41.34px;
      }

      .cls-14, .cls-15 {
        fill: #ffffe8;
      }

      .cls-14, .cls-16, .cls-17, .cls-18, .cls-19, .cls-20, .cls-21, .cls-22, .cls-23, .cls-24, .cls-25 {
        font-family: Neucha, Neucha;
      }

      .cls-4 {
        stroke: #b8b9b9;
      }

      .cls-4, .cls-11 {
        stroke-width: 2px;
      }

      .cls-26 {
        fill: #b2cb21;
      }

      .cls-5, .cls-27 {
        fill: #84b866;
      }

      .cls-5, .cls-10, .cls-12 {
        stroke: #b2cb21;
      }

      .cls-28, .cls-12 {
        fill: #84b866;
      }

      .cls-6, .cls-7 {
        stroke: gray;
      }

      .cls-6, .cls-13 {
        fill: #b3b3b3;
      }

      .cls-29 {
        fill: #e4c16c;
      }

      .cls-30 {
        fill: #e4c16c;
      }

      .cls-16 {
        font-size: 32.52px;
      }

      .cls-17 {
        font-size: 32.32px;
      }

      .cls-18 {
        font-size: 30.59px;
      }

      .cls-19 {
        font-size: 36px;
      }

      .cls-20 {
        font-size: 25.29px;
      }

      .cls-21 {
        font-size: 25.14px;
      }

      .cls-22 {
        font-size: 25.02px;
      }

      .cls-23 {
        font-size: 24.14px;
      }

      .cls-24 {
        font-size: 27px;
      }

      .cls-8 {
        stroke: #b3b3b3;
      }

      .cls-9 {
        fill: #78b1e1;
        stroke: #78b1e1;
      }

      .cls-10 {
        fill: #dde89d;
      }

      .cls-11 {
        stroke: #ccc;
      }

      .cls-25 {
        font-size: 48px;
      }
    </style>
  </defs>
  <g id="Map">
    <g id="Second_Border" data-name="Second Border">
      <rect class="cls-1" x="344.47" y="172.6" width="1272.34" height="752.46" rx="12" ry="12"/>
    </g>
    <g id="Green_Space" data-name="Green Space">
      <path class="cls-15" d="M692.45,150.71s17.89,19.31,21.33,22.88,16.94,15.89,25.76,21.46c8.83,5.56,6.62,3.93,15.42,11.09,8.8,7.16,16.3,15.88,25.12,22.08,8.82,6.2,33.07,14.89,40.68,16.93,7.61,2.04,40.56,1.31,51.39,1.49,10.83.18,20.06,0,20.06,0l3.18.08,7.13,50.76h11.47l10.72,63.76h13.07l8.07,31.57,31.91-1.84-4.81-18.1,25.46-17.41-19.04-62.21,80.19-89.36,19.83-23.88,75.59,32.8,43.7-41.64,75.3,50-16.77,31.58,174.38,124.81,70.46-40.45,58.18,7.02,10.38,46.36,58.75-9.06,28.17,39.94,1.59-247.75s.11-3.84-.02-5.06-.32-3.44-1.46-5.19-2.55-3.46-3.59-4.16-3.28-2.07-5.18-2.27-5.01-.34-6.8-.28-949.6-5.96-949.6-5.96Z"/>
      <path class="cls-15" d="M316.27,332.67s14.27,13.35,19.35,17.49,22.71,13.48,25.83,13.38-8.28,10.31-12.58,15.55-17.87,23.88-22.46,27.71c-4.59,3.82-10.13,5.14-10.13,5.14v-79.25Z"/>
      <path class="cls-15" d="M316.72,436.23s17.75-13.33,22.85-18.72,8.7-12.53,11.23-15.46c2.53-2.94,7.62-9.28,11.63-12.2s18.09-14.21,18.89-17.37.8-3.16.8-3.16h12.41s11.35,108.36,11.35,108.36l-89.16,15.13v-56.58Z"/>
      <path class="cls-15" d="M316.27,589.72l21.69,6.39,34.96-24.32,18.8,4.73-23.87,33.75,23.87,28.51,37.89,26.36s90.72,4.33,95.92,5.62c5.2,1.29,41.99,11.55,45.61,11.61s22.56-3.64,24.6-5.62,22.75-39.39,22.75-39.39c0,0,14.37,5.46,17.52,9.13s13.69,22.32,13.69,22.32l3.48,8.09-22.87,46.62h41.36s14.87,25.04,14.87,25.04l30.85-43.28,20.38-17.74,3.66-2.75,8.59,15.01-16.35,64.81,34.33-10.68,10.83-16.2,44.39,16.46,37.3,64.36,71.08,49.8,19.48,12.38,18.92-2.09,32.54,24.25,23.46,14.45s12.78,4.63,15.56,6.69,0,4.02,0,4.02c0,0-22.9-4-27.69-6.09s-93.78-37.72-102.98-40.29-88.68-30.41-96.26-33.35-81.57-23.06-92.36-26.45-105.54-6.99-115.16-8.75-131.35-25.09-143.31-30.92-75.59-20.14-89.18-24.39-58.36-16.64-58.36-16.64v-151.46Z"/>
      <path class="cls-15" d="M316.27,779.34l106.82,32.95s51.61,19.04,64.58,20.29,151.83,19.67,171.56,20c19.73.33,80.37,7.57,101.57,13.12,21.2,5.55,50.58,18.5,65.56,23.43s62.96,23.9,74.34,26.69,58.89,18.64,67.17,20.34,30.51,7.27,30.51,7.27H355.6s-23.99,0-23.99,0c0,0-5.11.25-7.28-.84s-2.57-1.26-3.28-1.86-2.56-2.54-3.1-3.57-1.21-2.84-1.51-4.15-.18-153.67-.18-153.67Z"/>
      <path class="cls-15" d="M972.8,836.69s5.73-8.29,11.76-6.79,101.3,43.15,110.57,46.57,45.43,13.34,52.29,20.91,25.18,26.51,31.58,33.6c6.4,7.1,12.38,12.45,12.38,12.45h-111.34s10.29-2.76,8.55-10.7l-1.73-7.95s-7.27-11.3-17.44-15.67c-10.18-4.36-30.49-15.42-37.4-20.19s-25.17-15.92-27.87-18.56-7.13-7.1-10.9-10.85-9.44-8.09-12.14-10.46-4.44-4.18-6.47-5.99-3.37-3.2-3.37-3.2l1.51-3.16Z"/>
      <path class="cls-15" d="M1655.92,503.56l-27.62,14.92s1.24,8,0,12.72-5.54,9.64-5.54,9.64l15.39,9.9,17.78,6.73v-53.91Z"/>
      <path class="cls-15" d="M1563.82,943.43s22.9-13.87,23.57-24.95c.67-11.08,0-27.47,0-27.47l.3-6.78h5.12s15.3,7.11,21.06,8.65,13.95,2.65,13.95,2.65l11.08.67,7.63,1.56v24.13s.09,8.62-.02,9.7-.82,3.99-1.24,4.79-1.29,2.15-1.71,2.62-1.85,1.88-2.72,2.41-2.39,1.28-3.19,1.5-2.81.55-2.81.55h-71Z"/>
      <path class="cls-15" d="M820.16,683.37l14.56,22.82,24.21,35.55s-11.08-3.22-17.07-5.86c-6-2.64-15.07-.23-18.07,2.25s-1.47,5.84-6.83,3.61-10.97-7.96-16.35-9.85-11.82-5.25-12.47-9.95-1.68-7.25,2.39-13.32c4.07-6.07,13.23-13.86,15.82-18.14s6.67-10.36,8.14-11.78,5.67,4.68,5.67,4.68Z"/>
      <path class="cls-15" d="M975.74,704.12s13.72,19.69,17,21.83,16.73,14.55,26.7,14.71,29.84,4.19,37.96,4.33c8.12.14,28.8.05,35.08,0,6.27-.05,26.53,3.24,26.53,3.24,0,0-24.56-9.23-30.8-12.12s-33.19-13.34-40.83-15.3-26.79-4.13-31.19-6.05-22.45-4.44-26.83-7.46-21.59-11.44-21.59-11.44l7.98,8.26Z"/>
    </g>
    <g id="Mountain">
      <g id="Layer_34" data-name="Layer 34">
        <path class="cls-5" d="M903.15,239.32c-.83.05-1.4-.84-1-1.57l24.24-45.3,23.58-40.06s.03-.06.05-.09l16.96-36.41c.35-.74,1.37-.84,1.84-.17l24.77,34.93s.06.08.1.12l25.04,26.03s.03.03.04.05l24.61,28.83,10.33,11.59s.04.05.06.07l8.5,11.36c.51.68.06,1.66-.8,1.71l-158.31,8.92Z"/>
        <path class="cls-5" d="M954.02,282.98c-1.07.07-1.79-1.21-1.28-2.28l31.05-65.86,30.21-58.24s.04-.09.06-.13l21.72-52.94c.44-1.08,1.75-1.22,2.36-.24l31.73,50.78c.04.06.08.12.13.18l32.07,37.84s.04.04.05.07l31.52,41.91,13.23,16.85s.05.07.07.1l10.88,16.52c.65.99.07,2.41-1.02,2.48l-202.79,12.96Z"/>
        <path class="cls-5" d="M1056.79,240.88c-1.07.07-1.79-1.21-1.28-2.28l31.05-65.86,30.21-58.24s.04-.09.06-.13l21.72-52.94c.44-1.08,1.75-1.22,2.36-.24l31.73,50.78c.04.06.08.12.13.18l32.07,37.84s.04.04.05.07l31.52,41.91,13.23,16.85s.05.07.07.1l10.88,16.52c.65.99.07,2.41-1.02,2.48l-202.79,12.96Z"/>
        <path class="cls-12" d="M1470.32,331.82c-1.07.07-1.79-1.21-1.28-2.28l31.05-65.86,30.21-58.24s.04-.09.06-.13l21.72-52.94c.44-1.08,1.75-1.22,2.36-.24l31.73,50.78c.04.06.08.12.13.18l32.07,37.84s.04.04.05.07l31.52,41.91,13.23,16.85s.05.07.07.1l10.88,16.52c.65.99.07,2.41-1.02,2.48l-202.79,12.96Z"/>
        <path class="cls-12" d="M1258.02,277.42c-1.07.07-1.79-1.21-1.28-2.28l31.05-65.86,30.21-58.24s.04-.09.06-.13l21.72-52.94c.44-1.08,1.75-1.22,2.36-.24l31.73,50.78c.04.06.08.12.13.18l32.07,37.84s.04.04.05.07l31.52,41.91,13.23,16.85s.05.07.07.1l10.88,16.52c.65.99.07,2.41-1.02,2.48l-202.79,12.96Z"/>
        <path class="cls-12" d="M1363.03,334.95c-1.36.09-2.28-1.56-1.63-2.94l39.51-84.84,38.45-75.02c.03-.06.05-.11.08-.17l27.65-68.19c.56-1.39,2.23-1.57,3-.31l40.37,65.41c.05.08.11.16.17.23l40.81,48.75s.05.06.07.09l40.11,53.99,16.84,21.7s.06.09.09.13l13.85,21.28c.83,1.28.09,3.11-1.3,3.2l-258.08,16.7Z"/>
        <path class="cls-28" d="M468.48,568.46c-.78.04-1.31-.74-.94-1.4l22.79-40.36,22.17-35.69s.03-.05.04-.08l15.95-32.44c.33-.66,1.28-.74,1.73-.15l23.29,31.12s.06.08.1.11l23.54,23.19s.03.03.04.04l23.14,25.69,9.71,10.32s.04.04.05.06l7.99,10.12c.48.61.05,1.48-.75,1.52l-148.85,7.94Z"/>
        <path class="cls-28" d="M390.95,599.08c-.77.06-1.3-1.12-.93-2.1l22.55-60.64,21.94-53.62s.03-.08.04-.12l15.78-48.74c.32-1,1.27-1.12,1.71-.22l23.04,46.75c.03.06.06.11.09.16l23.29,34.85s.03.04.04.06l22.89,38.59,9.61,15.51s.04.06.05.1l7.9,15.21c.47.91.05,2.22-.74,2.28l-147.28,11.93Z"/>
        <path class="cls-28" d="M354.77,571.13c-.74.04-1.24-.74-.89-1.4l21.62-40.23,21.04-35.57s.03-.05.04-.08l15.13-32.34c.31-.66,1.22-.74,1.64-.15l22.09,31.02s.06.07.09.11l22.33,23.12s.03.03.04.04l21.95,25.6,9.21,10.29s.04.04.05.06l7.58,10.09c.46.61.05,1.47-.71,1.52l-141.22,7.92Z"/>
      </g>
    </g>
    <g id="Streets">
      <path class="cls-4" d="M1618.92,609.58s-13.4-6.55-18.48-10.15c-6.74-4.79-6.47-7.73-16.2-10.56l-.59-4.79s1.46-.77,6.92-4.42c5.47-3.64,9.16-10.64,15.09-14.74,5.92-4.1,15.63-13.73,20.42-19.65,4.78-5.92,5.96-17.2,4.37-25.65-1.22-6.49-5.85-12.09-11.31-16.05-5.47-3.94-13.17-9.8-17.72-13.67-4.56-3.87-16.52-13.84-20.61-17.71s-18.47-18.22-23.25-23c-4.79-4.79-17.07-1.97-19.57-.83-2.51,1.14-2.51,19.13-.46,24.13,2.05,5.01,19.96,19.63,25.65,28.05,5.69,8.43,9.83,5.11,16.88,10.35,7.07,5.24,3.2.91,7.07,5.24,3.88,4.33.02,12.82-3.39,16.47-3.42,3.64-11.93,12.1-17.61,15.29-5.7,3.19-12.68,9.57-12.68,9.57l-24.9-44.6-20.99-21.81s-8.63-11.14-11.11-14.34c-3.28-4.26-19.98-15.19-19.98-15.19l-57.13-37.77-35.06-16.44-31.49-9.16s-29.12-5.99-51.4-11.83c-22.28-5.83-29.58-4.59-35.94-14.67-6.36-10.08-10.31-12.23-15.61-19.13-5.3-6.89-27.79-32.21-35.21-38.04-7.43-5.83-9.92-7.9-9.39-15.87.53-7.95-8.54-28.23-10.13-36.71-1.59-8.49-10.39-35.54-14.64-39.25s-37.62,3.56-34.44,9.38c3.18,5.84,5.56,24.56,8.75,27.21,3.18,2.65,7.48,13.48,8.01,21.43.52,7.97,9.33,1.89,5.62,1.89s-1.57-.88-4.34-4.59c-2.77-3.71-28.02-11.43-34.93-13.02-6.89-1.6-20.48.85-23.14,4.58-2.65,3.71-16.1,2.79-25.64,4.91-9.55,2.12-22.8,22.57-24.94,27.33-2.11,4.78-11.48,34.79-11.48,34.79,0,0,3.22,27.96,4.02,32.74.79,4.77,9.27,6.88,9.27,6.88l7.17,1.38s3.43,1.07,0,0c-3.44-1.07-10.68,4.55-10.68,4.55v15.47l4.57,15.78s-.62,7.9-1.56,12.86c-.93,4.97,1.55,6.92,1.55,6.92l-1.55-6.92-7.08-5.17-64.9-5.1-44.18-6.71-18.92-7.06s-10.07-3.43-11.77-3.83c-1.71-.39-8.4.36-8.4.36,0,0,2.79-9.71,2.53-13.97-.27-4.28-9.48-45.4-9.48-45.4,0,0-7.48-12.28-9.08-12.02-1.6.27-16.73-15.88-18.33-13.75-1.6,2.14-18.16,7.83-17.62,9.96s-.83,18.29-.83,18.29l-9.91,27.83-13.21,47.69,26.84,24.19v6.03s-5.98,19.64-5.98,19.64l-4.11,12.61-6.86,12.41-10.71,8.9-10.11,2.03-43.49-42.05-43.24-54.92-52.68-78.85-73.36-106.01s6.7,7.5,8.64,6.38c1.94-1.13-7.8,1.18-3.92-1.77,3.88-2.96,3.92-2.08,6.47-4.12s3.97,1.52,7.75-.41,2.23-15.03,5.9-13.91,16.02,8.35,17.14,6.72c1.13-1.63,3.78-17.21,2.05-18.33-1.73-1.12,3.71-1.62,3.71-1.62,0,0-2.56-5.73-5.82-6.05-3.26-.3-9.93-1.35-11.56-1.35s-12.56-1.89-14.4-.56c-1.83,1.33-9.58-3.94-13.26-1.39-3.67,2.55-9.32,3.01-13.4,5.96-4.08,2.96-6.95,8.63-6.95,8.63l3.69-1.06-26.41-47.74h-64.39l146.33,213.33,63.69,80.59,59.4,50.46,56.22,51.48.5,21.78,17.24-.31c-.63,2.33-1.71,4.46-1.71,6.98,0,8.11-.76,1.74,4.69,6.92v8.76s7.34,3.83-1.18,12.77c-8.52,8.93-25.76,10.2-35.42,29.51-9.65,19.31,18.99,54.24,18.99,54.24l57.5,95.96,8.57,28.3,45.62,49.1,50.73,27.98s28.95,21.28,35.22,23.72c6.27,2.44,34.65,12.27,26.23,18.29-8.43,6.01-25.73-5.49-35.83-8.58-8.06-2.47-19.51-4.65-35.15-11.87-15.64-7.21-107.07-38.5-139.56-49.33-32.47-10.82-96.24-28.87-115.49-32.47-19.25-3.61-107.06-9.63-139.55-13.24-32.48-3.61-90.23-21.65-115.49-26.46-25.26-4.82-110.68-30.08-125.12-33.69-14.43-3.61-27.33-7.53-27.33-7.53l.07,26.59s1.32.22,5.61,1.39c9.37,2.54,132.33,38.5,149.17,45.71,16.84,7.22,151.58,21.66,168.42,21.66s104.66,12.02,120.3,16.83c15.64,4.82,151.76,58.16,151.76,58.16,0,0,92.78,29.12,109.63,33.51,16.84,4.39,66.17-8.42,65.71-26.47-.33-12.81-16.63-19.69-16.63-19.69l-63.17-33.43-40.53-35.31-44.62-72.54c23.2,23.12-60.71-88.87-69.53-103.49-5.82-9.64,0-14.51,0-14.51l24.07-40.46c.99-1.66,3.36-1.72,4.43-.11,4.75,7.16,16.11,23.94,26.5,36.99,13.57,17.04,30.35,29.32,37.65,35.64,14.57,12.63,53.24,39.67,78.7,48.09,27.5,9.09,95.25,23.42,114.84,25.45s84.09,22.57,110.25,7.76c40.15-22.73,58.9-14.91,82.76-10.93,23.86,3.97,91.84-20.23,91.84-20.23l30.66-40.23,77.8-77.13c2.23-2.2,23.14,7.84,26.7,9.39l90.77,46.1,1.92-36.33-32.36-20.23ZM1229.71,390.08l8.48,4.16,16.54,12.28,36.36,10.98,5.06,3.81-8.71,8.49-18.94,5.53-9.77,3.81-38.11-5.87-14.53-1.14-9.94-2.47,19.03-10.36,8.3-16.21s1.47-7.17,6.24-13ZM1199.11,356.91l5.1-2.61,5.01,6.84-7.03,4.11-7.54,10.29-7.98,12.52-8.75,13.43-4.04,11.94-8.56.39,2.41,5.46h-21.85l-6.11-2.73-12.99,2.95-7.7-26.85s-10.41-12.76-13.08-15.1c-2.68-2.33,7.84,0,7.84,0l6.54,1.97,11.57,1,11.62-2.96,16.35-5,20.53-9.26,18.65-6.39ZM1094.55,341.82l-7.2-12,2.8-7.7-3.73-3.91,13.32.25,14.07,2.21,13.33-10.18,14.29.27,15.37,1.07.34,18.88-2.32,5.84h0l-11.62,3.22-9.44,4.05-14.65,1.67-13.08,2.84-6.28,2.6-5.18-2.04v-7.08ZM1084.43,408.98l-.66-6.52,2.45-5.68,9.32,2.52,4.17,8.41,4.58,9.98,18.46,14.18,10.97-1.05-40.3-3.17h-6.25l1.43-5.58-7.32-7.25,3.14-5.84ZM921.46,519.11l-2.16-48.46-1.8-13.43s-8.05-16.28-3.81-16.04c4.23.23,32.49-8.33,32.49-8.33l37.66,27.57,52.97-1.19,9.07-1.91s7.07-2.05,7.84-.71c.77,1.34-23.83.07-25.06,1.75-1.22,1.66,14.72,10.57,14.72,10.57l-18.06,10.43-8.55,11.59-64.8,18.92-25.63,11.97,11.5,2.73-18.18,7.89c-2.5-2.8-5.11,1.51-8.54-.13l10.34-13.23ZM883.6,586.32c-4.91,0-8.89-4.08-8.89-9.11s3.98-9.11,8.89-9.11,8.89,4.08,8.89,9.11-3.98,9.11-8.89,9.11ZM1492.33,586.52c-17.91,7.3-44.9,32.07-44.9,32.07,0,0-40.35,63.65-50.95,75.58-10.61,11.93-62.52,8.32-62.52,8.32,0,0-62.74-3.34-74.67-3.34s-67.73,24.24-67.73,24.24l-72.55-15.48-115.01-32.06-49.4-42.47-16.31-71.38,23.74-7.12,42.88-19.28,31.27-17.35,26.93-14.24,22.06-33.37,9.38-10.76,27.22-3.29,35.63-.27,33.67,12.07,31.56,8.23,23.52,3.77s1.06,3.35,0,7.6c-1.07,4.23-3.91,8.53-3.91,8.53l-12.4,50.7-65.84,156.3-4.68,14.07,32.24,5.81,67.68-21.82,17.16-149.18,8.75-34.11s1.39-16.01,8.54-23.16c7.15-7.15,20.06-12.5,20.06-12.5l4.66-3.23,12.93-2.14,9.15-15.05,7.75-6.49,16.42-1.13,17.75,3.66,20.35,9s11.07,14.27,19.12,20.84c2.89,2.36,19.52,7.8,21.72,9.46,3.87,2.94,18.99,5.92,21.71,9.94,2.72,4.01,13.2,20.37,17.08,27.94,9.95,19.39,21.13,39.92,21.13,39.92l.33,7.62c-3.58.33-9.18,2.64-11.49,3.59Z"/>
      <polygon class="cls-11" points="1340.48 400.19 1327.47 419.28 1327.46 419.28 1340.48 400.19"/>
      <path class="cls-11" d="M1327.46,419.28l-31.32,2.02,35.18,6.35-3.86-8.37Z"/>
      <path class="cls-11" d="M450.28,332.98c12.99-5.76,22.98-.62,25.6,3.59,3.22,5.18,28.99,18.98,43.4,25.7,14.41,6.72,11.45,16.24,21.05,22.96s58.99,19.36,65.71,30.89c6.72,11.53,6.09,54.92,19.53,64.53,13.45,9.61,24.72,24.4,35.29,28.24,10.57,3.84,19.35.36,27.07,1.9s29.08,18.95,38.65,20.5c9.57,1.54,14.57,8.1,27.84,8.71,13.27.62,27.55,11.54,38.13,16.09s19.17,13.88,30.74,25.71c11.57,11.82,20.16,21.18,20.16,21.18l-9.7,17.95s-26.72-19.2-31.7-24.8-17.18-12.61-27.75-13.86c-10.58-1.24-36.19,2.01-48.64-2.77-12.44-4.78-43.03-15.81-49.26-20.17-6.22-4.36-18.79-6.11-25.01-11.71-6.22-5.6-22.35-9.32-29.49-19.27-7.13-9.95-42.59-13.67-44.72-15.56s-21.44-17.57-28.05-27.25c-6.61-9.68-19.67-16.53-23.45-19.13s-26.98-33.54-34.3-37.55c-7.32-4.01-26.4-37.15-27.21-43.63-1.39-11.02-6.64-35.53-21.87-28.9-2.81,1.22-38.01,9.28-53.56,9.79l26.86-25.5,34.68-7.66Z"/>
      <path class="cls-11" d="M852.4,631.77l6.58,34.05s9.93,18.41,14.63,24.61,23.99,23.19,27.64,23.19,12.45-18.21,10.99-22.95c-1.45-4.74-10.94-15.04-14.22-20.51-3.28-5.47-12.41-13.69-14.96-21.71s-12.7-13.65-15.93-20.58l-3.23-6.93-11.51,10.84Z"/>
      <path class="cls-8" d="M316.27,290.84s9.38,9.76,12.65,13.5,13.63,9.53,17.93,15.05,5.11,8.53,12.06,12.86c6.95,4.33,17.06,6.38,21.44,6.81s33.2.81,35.25,1.58-25.92,17.52-25.92,17.52l2.21-2.79-6.49,6.9s-30.01-5.52-36.76-8.31c-4.34-1.8-9.52-3.08-15.5-7.18-6.55-4.49-8.77-9.27-12.06-11.96-3.29-2.69-4.81-9.18-4.81-9.18v-34.8Z"/>
    </g>
    <g id="River">
      <path class="cls-9" d="M858.98,586.32l-14.71,15.97-17.37-16.32s-12.63-15.94-18.59-19.09c-2.96-1.56-11.72-8.63-18.32-14.08s-11.32-11.11-14.68-14.45c-1.9-1.9-5.52-4.46-8.51-7.55-1.25-1.28-4.19-4.61-5.28-5.91-3.82-4.6-7.98-7.18-11.72-10.16-3-2.38-5.77-5.39-7.56-7.13-7.58-7.39-19.1-19.24-26.11-26.24-2.86-2.85-12.8-12.04-24.36-25.6-2.81-3.3-5.36-5.38-8.47-8.77-1.76-1.92-3.24-4.11-5.05-6.21-.82-.95-3.73-4.23-4.54-5.18-3.46-4.06-5.91-6.02-8.98-9.96-4.45-5.72-6.91-7.25-9.75-11.49-1.67-2.5-4.79-7.24-5.65-8.95-.92-1.83-1.05-1.57-3.1-6.4-.33-.78-1.49-2.91-1.74-3.66-.43-1.28-1.34-3.52-1.9-4.34-.92-1.33-1.49-3.65-2.51-5.03-.86-1.17-2.02-4.41-2.95-5.6-1.23-1.58-2.57-4.46-3.9-6.07-2.79-3.4-5.34-6.11-8.42-9.56-3.79-4.23-8.61-8.7-12.26-12.69-3.97-4.33-8.14-8.22-12.1-12.12-2.46-2.42-4.11-4.11-6.33-6.23-1.05-1-3.26-3.06-4.49-4.67-4.04-5.26-9.72-9.54-14.85-13.58-2.56-2.02-15.96-11.66-22-15.25-5.52-3.28-15.79-9.71-24.91-14.29-3.65-1.83-7.37-3.97-10.65-5.47-2.93-1.34-6.27-3.05-7.57-3.48-1.9-.64-7.29-1.83-11.3-3.73-2.54-1.2-4.1-1.54-6.28-3.03-1.63-1.12-5.31-3.21-6.37-3.59-1.37-.5-4.72-1.54-5.9-1.64-1.99-.16-3.9.47-4.78,2.19-1.14,2.22-2.06,5.76-2.91,10.61-.12.68-.31,4.19-.79,6-.23.87-.29,2.55-.39,2.87-.18.56-.47,1.45-.72,2.02-.33.75-.65,1.81-.72,2.36-.59,4.4-.71,4.52-1.09,8.02-.26,2.42-.42,5.63-.45,6-.09,1-.09,2.31-.15,3.21-.07,1.2-.22,1.58-.74,3.03-1.05,2.95-2.99,4.26-5.04,6.59-2.59,2.95-3.88,4.12-4.41,4.74-.48.57-3.16,2.97-4.13,3.48-.53.28-2.07,1.3-2.49,1.81-1.41,1.72-3.09,3.42-3.9,4.5-3.29,4.42-2.9,7.4-5.67,12.69-3.59,6.85-8.94,5.84-15.39,8.28-1.92.73-11.57,5.77-13.56,7.43s-8.95,3.44-16.56,4.15c-9.4.88-17.62,10.19-22.35,13.27-5.74,3.74-20.96,16.4-26.11,25.4-5.15,9-6.92,9.92-18.36,18.48-1.27.95-12.36,8.16-12.36,7.36,0-5.98-.46-17.36-.46-17.36,0,0,12.02-.56,14.12-2.58,5.68-5.47,4.08-4.5,8.74-9.01,5.46-5.28,6.39-7.81,10.26-13.6,3.87-5.79,7.74-12.22,12.89-16.4,5.16-4.18,15.17-13.86,20.97-16.76,5.8-2.89,7.72-.93,15.78-7.67,5-4.19,15.33-10.45,25.28-16.6,2-1.23,4.26-3.18,6.02-4.41,3.63-2.52,7.61-4.97,9.67-7.34,8.06-9.25,12.2-23.53,14.32-29.4.32-.88,4.54-13.12,5.56-17.77,1.59-7.2,1.85-18.7,2.8-25.34,0,0-4.94-3.05-8.32-5.58-1.39-1.04-2.78-1.58-3.92-2.35s-2.43-1.99-3.51-2.71c-3.25-2.14-7.1-4.85-13.85-10.51-5.03-4.21-7.5-6.67-11.02-9.15-1.04-.73-3.05-1.78-4.28-2.47-.66-.37-6.8-2.93-8.07-3.57-4.87-2.46-8.48-2.95-11.72-3.86-1.77-.5-7.31-1.68-8.43-1.9-.63-.13-4.27-.3-8.6-.36-8.06-.13-13.69,1.18-20.13.96-2.59-.09-5.97-.73-8.55-1.58-1.46-.48-3.35-1.07-5.04-1.76-1.25-.51-3.89-1.83-5.2-2.43-1.67-.77-7.14-3.36-10.55-5.2-7.84-4.22-14.13-6.4-14.13-6.4l.48-11.82-.51-4.74-.07-3.8s4.98,2.72,11.18,4.72c1.91.61,4.61,1.37,6.46,2.08,3.17,1.22,5.59,2.13,7.86,2.9,3.52,1.21,6.88,1.73,9.8,2.39,2.06.46,4.47.96,6.51,1.4,1.43.3,2.89.73,4.07.98,1.82.39,3.14.47,5.25.84,4.77.86,8.68,1.33,12.79,2.01,5.16.86,10.4,1.92,15.26,3.14,2.52.63,6.1,1.64,8.52,3.13,1.08.66,2.34,1.33,3.35,1.92.87.51,1.85,1,2.61,1.35,1.14.52,2.21,1.34,3.39,2.07.69.43,2.36,1.31,3.77,2.18.13.08,1.35.81,1.47.88.62.37,1.19.55,1.63.81.88.53,1.6,1,2.69,1.57,8.69,4.52,24.63,14.8,30.11,18.15,6.68,4.08,17.12,10.18,17.12,10.18l9.62,5.74,5.28,2.69c2.15,1.06,7.66,5.69,15.88,11.1,9.46,6.23,21.32,14.54,27.54,18.73,6.7,4.52,13.41,8.66,19.45,12.39,1.53.94,3.5,1.5,5.01,2.24s2.63,1.13,3.95,1.92c.83.5,2.22,1.51,3.12,1.84,1.22.46,2.95,2.04,3.93,2.63,1.49.89,3.96,2.37,5.23,3.13,5.97,3.58,7.7,4.85,7.7,4.85l13.98,9.37,8.46,8.43,13.55,12.87,6.51,6.16,39.23,43.11,20.44,30,27.27,40.02,46,38.98,44.37,39.64,46.97,47.87,14.41,14.1Z"/>
      <path class="cls-9" d="M876.68,606.45l-10.32,11.04s-.05.06-.08.09l-1.52,1.83c-.54.66-.6,1.58-.13,2.3,5.58,8.54,39.36,60.27,44.97,67.99,1.53,2.1,10.8,13.78,18.17,22.2,3.71,4.25,9.43,11.17,14.78,16.17,7.59,7.09,16.01,16.9,24.21,24.04s14.28,11.02,21.91,15.39c8.49,4.86,18.58,10,21.9,12.8,4.34,3.67,8.32,7.31,11.91,7.3,3.2-.01,5.84-.02,8.5-.49,4.68-.81,9.3-2.44,16.32-3.83,2.21-.44,7.85-.62,10.07-.98,2.84-.45,6.58-.68,8.73-1.49,4.1-1.55,6.05-3.54,8.6-4.9,3.58-1.9,2.98-1.78,6.16-2.83,5.69-1.88,15.88-2.89,30.22-1.63s22.64,3.36,41.16,9.32c16.82,5.41,35.23,12.39,53.08,15.87,1.22.24,6.04,1.51,7.77,1.62.89.06,3.97-.41,5.07-.39,5.14.1,12.67,1.76,20.44,3.62,9.93,2.38,18.17,4.72,27.34,10.43,2.63,1.64,10.8,5.58,14.07,6.45,7.89,2.11,18.44,1.27,21.97,1.27,3.78,0,8.87-.02,14.55-.28,4.05-.19,8.78.25,13.28-.24,11.01-1.18,27.21-2.68,26.75-2.65-3.03.2,9.91-1.28,13.8-1.56,2.59-.18,7.44-.78,10.14-1,8.15-.67,14.26-1.52,22.95-2.37,16.05-1.57,52.22-1.26,67.15,5.89,2.78,1.33,9.08,1.94,23.59,9.44,4.59,2.38,11.14,4.78,14.83,5.81,4.28,1.19,10.12,3.55,14.27,4.93,6.42,2.13,11.39,3.77,13.5,4.49,2.43.83,4.78,1.79,7.13,2.83s5.28,3.02,7.78,4.17c2.27,1.05,4.83,2.04,7.42,3.11,3.09,1.28,7.95,3.01,11.17,4.03,13.72,4.31,22.74,8.61,32.65,11.32,5.48,1.5,11.28,1.74,16.36,1.74,8.55,0,20.91-.98,25.47-1.37,1.01-.09,1.78-.93,1.78-1.94l-.02-18.33c0-.93-.65-1.72-1.56-1.9-5.42-1.09-23.8-4.79-35.5-7.38-5.92-1.31-12.12-3.12-13.25-3.37-12.5-2.82-20.35-5.75-32.99-10.83-2.33-.94-6.57-2.88-9.11-3.97-3.95-1.69-8.3-3.42-12.62-5.21-13.67-5.66-25.52-11.14-36.01-16.11-3.86-1.83-8.84-3.77-12.37-5.12-12.28-4.71-21.39-6.62-24.54-7.63-3.68-1.18-6.85-2.8-9.96-3.31-4.6-.75-8.77.36-12.99.68-5.9.45-11.9.41-19.27.85s-11.21.73-15.31.5c-2.14-.12-5.4-.8-7.57-.9-2.33-.12-4.14-.36-7.24-.22-.66.03-6.05,1.17-6.76,1.22-3.57.23-6.39.22-8.18.17-1.23-.04-2.12-1.19-1.83-2.38.35-1.45,1.09-3.7,2.61-7.06,4.09-9.04.93-4.78,6.43-13.27,4.94-7.61.85-5.15,15.56-12.49,2.63-1.31,5.87-3.46,8.41-5.02,2.15-1.32,5.4-3.01,7.39-4.4,2.27-1.59,5.12-2.78,7.69-4.36,3.9-2.41,6.48-5.57,8.32-7.68.98-1.12,2.42-2.68,3.85-4.63.49-.66,1.67-1.67,2.21-2.4,1.46-1.98,3.38-3.91,5.23-6.21,1.36-1.69,3.55-3.5,4.94-5.2,3.98-4.87,7.89-9.56,10.74-12.64,2.02-2.18,4.26-4.75,6.04-6.96,1.45-1.81,3.38-3.31,4.71-5.04,2.81-3.65,5.97-7.19,8.46-9.78.96-1,3.5-4.52,7.21-7.93,3.35-3.08,6.46-5.68,10.83-9.62,3.49-3.14,6.31-5.1,9.43-8.05,2.02-1.91,6.13-4.79,7.96-6.49,2.5-2.32,4.81-4.42,6.91-6.16,6.4-5.32,13.65-11.3,17.59-14.89,1.81-1.65,3.58-2.99,4.93-3.94,1.11-.78,1.08-2.44-.04-3.19l-6.85-4.6c-.22-.14-.46-.24-.71-.29l-3.64-.71c-.62-.12-1.25.06-1.7.49-6.19,5.84-50.19,47.39-52.36,49.34-2.34,2.1-3.97,5.83-7.13,8.16s-6.89,8.51-9.58,11.19-17.76,17.01-18.92,19.23-5.72,8.51-7.94,11.65-6.07,4.89-9.23,8.27-18.11,14.8-20.56,16.78c-2.45,1.98-7.35,3.36-13.78,6.61-5.94,2.99-8.24,3.82-10.46,5.16-1.85,1.12-3.67,2.94-6.76,7.09-1.91,2.57-3.04,4.37-6.25,8.87-2.96,4.16-4.83,8.17-7.68,12.55s-5.69,10.68-7.43,12.81c-1.74,2.13-3.73,4.75-7.28,5.04-8.62.7-7.2.65-20.01,2.04-5.23.57-10.96.39-15.63.03-6.18-.47-9.37-1.27-14.16-2.19-3.26-.63-6.96-1.54-10.97-2.97-2.41-.86-5.22-2.61-7.12-3.31-2.79-1.03-4.92-2.15-7.13-3.06-3.23-1.34-6.44-2.71-10.03-4.2-2.79-1.16-5.85-2.36-9.77-4.45-15.48-8.25-17.74-8.74-14.25-9.71,3.49-.97,3.86-.25,11.42-3.07,6.53-2.43,6.67-2.55,9.69-6.38,1.47-1.86,3.09-3.06,5.17-4.03,1.15-.54,2.59-.81,3.82-1.29,1.31-.51,1.96-1.5,3.33-2.37,4.77-3.01,5.75-4.12,12.54-4.12s6.3.37,14.12-1.14c7.3-1.41-.88-2.32-2.02-2.44-.09,0-.17-.01-.25,0l-7.42.24c-.15,0-.3,0-.45-.04l-6.67-1.36s-1.06-.23-5.52,1.12-7.44,1.55-11.9,4.45-9.44,3.65-13.17,5.95c-2.8,1.72-4.44,1.16-8.32,1.74s-3.77,1.77-8.04,2.73c-4.26.97-7.22,4.35-11.1,2.81s-4.65.39-11.05-.19-2.33-1.55-13.76-.39c-11.43,1.16-10.2-.97-14.11-2.51-3.91-1.55-10.69,0-19.03-.19-8.29-.19-19.57-1.33-29.61-1.53-.11,0-.2-.01-.31-.03-.87-.17-5.33-1.01-7.46-1.17-1.61-.12-6.09-1.54-8.51-2.14s-2.36,1.17-24.37-3.69c-21.91-4.84-14.39-3.56-30.94-6.7s-8.64-2.49-25.13-6.3c-8.82-2.04-11.19-3.26-13.81-3.96-2.28-.61-5.04-2.2-11.1-4.51-13.9-5.29-11.52-4.17-17.4-7.46-7.99-4.47-7.87-4.25-19.97-11.92s-14.59-11.58-22.21-17.01-9.69-8.67-17.05-13.37-24.86-25.57-34.56-37.88c-7.27-9.22-19.86-27.49-24.18-32.7-.75-.9-2.77,1.33-3.57,2.19Z"/>
    </g>
    <g id="City_plane" data-name="City plane">
      <path class="cls-10" d="M907.12,423.58c1.83.76-3.35-1.91-4.04,0s-.53,6.17-.84,8.92.18,14.73.18,14.73c0,0,.27,29.28.27,33.29s-1.05,21.79-1.05,25.27.17,8.02,0,12.2-.7,7.67-.7,11.33-1.05,6.45-.87,9.93.22,2.58.22,5.17-.31,1.97-.31,3.05,3,2.33,4.29,3.41,2.59,2.43,2.59,2.43c0,0,3.62-1.09,4.6-2.59s37.35-17.95,39.08-18.41,45.05-19.92,45.05-19.92l46.9-20.96s9.5-7.59,11.49-12.85,16.73-18.6,15.44-20.82-3.16-2.57-6.55-3.63-10.99-1.52-13.69-1.52-26.43-3.63-29.01-3.63-30.41-3.04-32.75-3.04-20.94-5.61-24.21-6.32-22.34-6.08-26.43-7.84-16.73-5.26-19.77-6.32-9.91-1.92-9.91-1.92Z"/>
      <path class="cls-10" d="M916.73,566.49c-.85.4-1.26,1.37-.97,2.26.63,1.92,1.51,5.34,1.07,8.4-.65,4.55-.11,9.1-2.82,12.84s-7.58,9.59-8.56,9.59,10.97,10.68,10.97,10.68l14.35,14.71,32.79,28.14s28.04,22.99,30.65,24.11,61.12,20.93,65.79,22.05,48.75,14.68,48.75,14.68c0,0,4.55,1.53,8.87,2.89s19.56,3.41,24.34,4.78c4.78,1.36,25.48,3.87,29.12,4.32s9.55-21.16,9.55-21.16l40.07-111.33,23.46-68.51,8.67-36.85s4.59-8.04,0-10.08-21.93-8.67-33.67-12.24-33.16-8.67-38.77-9.69-6.45-3.04-15.44-6.63-31.83-1.03-38.5-.77-16.94,2.05-23.87,3.34c-6.93,1.28-6.42-3.34-11.04,2.57-4.62,5.9-13.86,19.25-17.45,25.92s-8.47,19.25-14.37,21.82-13.6,6.16-20.53,9.75c-6.93,3.59-62.88,30.54-66.22,31.83s-43.12,17.97-47.74,19.25c-3.11.86-6.58,2.41-8.52,3.33Z"/>
      <path class="cls-10" d="M1286.31,462.69s14.63-10.42,24.9-13.74c10.26-3.32,24.79-10.1,30.79-13.89s13.26-6.63,21.95-4.58c8.68,2.05,46.73,23.68,51.47,26.05s33.95,21.31,42.95,26.37,33.9,18.88,39.53,26.62c5.63,7.74,6.33,15.48,9.15,23.93,2.82,8.45,3.87,11.26,7.74,16.89s7.74,15.13,10.91,21.12,6.33,8.09,3.17,11.97-5.98,1.06-14.43,6.33-24.28,15.48-31.32,22.52-55.6,56.31-60.88,62.64-22.52,29.21-28.51,31.32-64.05,14.37-76.72,7.71c-12.67-6.66-54.55,1.08-63.7,1.96s-32.73,4.75-38.01,7.22-16.19,2.82-16.19,2.82c0,0,7.04-22.88,11.26-30.62s40.47-112.26,42.58-122.12,16.54-50.68,17.95-56.66c1.41-5.98,10.21-33.43,11.61-39.06,1.41-5.63,3.8-14.8,3.8-14.8Z"/>
      <path class="cls-10" d="M1094.55,373.75c3.59-.9,20.93-.9,30.5-1.79,9.57-.9,32.89-3.89,41.26-8.37s15.85-11.96,21.53-15.55,6.88-7.18,9.57-5.98,11.36,6.58,14.05,9.27,8.37,5.48,7.47,10.07-3.59,11.46-6.88,15.65-11.66,15.85-15.55,20.03-10.46,14.35-14.95,18.24-5.38,9.87-8.37,11.66-17.34-.6-22.42,0-10.46-.7-14.95-.6-15.55-23.62-18.84-27.51-11.36-12.56-13.75-15.55-8.67-9.57-8.67-9.57Z"/>
      <path class="cls-10" d="M1087.4,435.6s-2.46-4.1-2.93-7.03c-.47-2.93-1.17-12.07-1.64-15.71s-2.58-9.5-2.46-12.78,2.93-7.03,4.34-7.97,3.52-1.99,7.62,0,7.85,8.56,9.61,10.9,8.68,10.67,10.9,13.95,5.74,9.96,6.21,11.72-4.69,1.99-7.74,1.99-8.65,0-11.59.12-4.23.35-6.58,1.41-5.74,3.4-5.74,3.4Z"/>
      <path class="cls-10" d="M1191.06,433.02c3.16-2.81,9.12-13.32,13.67-17.88s9.47-9.47,12.62-14.73,5.96-9.82,8.06-13.67,3.51-9.82,4.91-9.12,3.51,6.31,7.01,9.12,5.26,3.51,10.87,7.01,13.32,10.11,16.48,11.54,11.57,3.18,15.78,3.89,11.22,3.51,17.53,4.91,10.52,4.21,14.73,4.56,6.66,0,5.26,2.1-6.66,7.92-14.03,9.05-15.08,3.83-19.99,5.81c-4.91,1.98-12.62,6.53-16.48,8.99s-7.36,4.21-7.36,4.21c0,0-16.13-4.56-21.39-4.56s-15.26-4.91-19.73-5.61-16.07-2.2-19.91-3.03-8.05-2.58-8.05-2.58Z"/>
      <path class="cls-10" d="M1090.49,355.6c-1.7-3.71-8.04-13.45-9.43-19.01s-2.47-12.99-3.4-15.61.01-3.86,2.71-7.58,1.42-4.02,3.53-4.79,8.29-1.08,13.7-1.86,14.84-1.7,19.79-4.79,7.11-4.64,9.28-5.87,6.18.31,9.43,0,6.34-.82,9.28-.49,2.63-.6,5.41,1.11,7.42,5.87,10.82,7.73,4.64,2.94,5.87,4.17,4.64,9.58,6.03,11.29,3.25,7.42,5.1,9.28l1.86,1.86s-.77,2.78-4.02,4.48-11.59,7.11-16.08,7.73-16.39,6.34-21.49,8.19-12.06,4.95-15.61,5.26-12.06,0-16.54,0-9.35-.34-12.17.14-4.06-1.22-4.06-1.22Z"/>
      <circle class="cls-10" cx="885.57" cy="575.02" r="15.68"/>
      <path class="cls-10" d="M839.13,530.4c-.41-.86.08-1.88,1.01-2.12,6.21-1.57,15.37-4.13,19.24-8.21,4.17-4.39,11.84-9.43,13.82-12.5s9.21-8.33,10.31-10.97,1.32,13.16,1.75,18.64,0,13.82,0,17.54-.44,6.58-1.54,8.99-11.21,4.39-13.83,5.7-12.71-7.24-16.87-9.43-10.09-4.61-12.28-5.92c-.84-.51-1.33-1.14-1.61-1.73Z"/>
      <path class="cls-10" d="M396.45,366.57c2.79,31.67,12.4,114.07,12.4,114.07l-143.44,24.59-18.44,35.61,45.89,12.49v26.69l45.3,10.67,32.79-22.74,27.66,7.06-23.56,35.42,23.56,27.98,31.76,21.9,96.31,5.76,48.1,11.78,16.45-4.61,26.02-45.08,21.11,15.37,20.49,34.32-22.54,42.52h36.88l13.9,20.49,29.13-41.17,25.61-21.84,13.32,21.84-16.39,59.61,29.25-5.36,17.4-26.02.69-17.46,22.33-32.61,4.78-5.37-1.75-8.02-2.01-9.02,2.26-18.3,17.8-25.07-13.29-12.53-24.06-20.56-23.81-11.04h-30.6s-55.33-20.33-55.33-20.33c0,0-3.18-4.55-13.36-8.85-10.18-4.31-18.4,1.17-26.61-3.52-8.22-4.7-9.78-10.18-14.09-14.48-4.31-4.31-19.57-19.96-27.4-26.22-7.83-6.26-47.36-33.66-52.84-39.14-5.48-5.48-14.87-21.92-17.61-28.57-2.74-6.65-8.22-17.61-19.18-22.31-10.96-4.7-23.48-11.74-27.79-15.26-4.31-3.52-13.31-9-18-17.22-4.7-8.22-3.91-15.66-8.22-18.4-4.31-2.74-8.22-4.7-17.22-1.96-9,2.74-18.79,5.09-25.05,9.78-6.26,4.7-18.59,5.09-18.59,5.09Z"/>
      <path class="cls-10" d="M452.29,330.11c4.3-1.72,14.91-12.62,17.21-17.21,2.29-4.59.86-17.21,3.44-23.52s1.72-18.93,4.88-21.22,9.18,2.58,15.2,5.73,12.62,4.02,20.65,7.75c8.03,3.73,36.42,19.79,42.16,23.8s24.09,15.77,29.54,22.94,38.14,36.13,46.75,49.33c8.6,13.19,12.62,27.24,18.93,35.85,6.31,8.6,42.44,48.75,50.19,56.78s35.27,35.85,41.01,41.58,14.34,11.18,20.07,18.07,14.34,13.07,17.49,16.57l3.15,3.5s-7.46-1.15-14.34-2.29-24.95-.29-32.12-4.01-21.22-4.88-31.55-10.61-21.8-13.19-30.4-14.63c-8.6-1.43-8.32.86-16.35-1.72s-20.65-12.88-26.38-20.49-12.91-15.34-22.37-22.38-34.7-23.95-40.15-35.14-13.19-24.4-16.63-29.98c-3.44-5.58-9.46-11.6-14.05-14.19s-10.9-8.03-20.94-10.9c-10.04-2.87-24.66-7.46-29.54-16.92s-12.04-24.09-19.21-29.54-18.64-4.3-18.64-4.3l2.01-2.87Z"/>
      <path class="cls-10" d="M1545.06,474.69c8.33,8.32,25.81,25.8,30.81,29.96,4.99,4.16,17.48,4.16,14.98,15.82-2.5,11.66-16.66,32.4-26.64,32.85-10,.46-10.82,20.44-22.48-6.2-11.66-26.65-22.48-36.64-32.47-48.29-9.98-11.66-15.86-23.33-24.44-27.39-8.59-4.08-33.92-23.51-39.79-27.13-5.89-3.62-35.73-15.38-44.77-19.9-9.04-4.53-14.02-9.95-22.61-14.48-8.59-4.52-27.13-2.71-35.73-4.52-8.59-1.81-50.2-13.11-61.05-18.09-10.85-4.98-19.74-7.68-26.15-13.11-6.41-5.43-8.67-5.25-16.35-19.58-7.69-14.33-28.95-22.03-34.83-31.97-5.88-9.95-6.88-4.07-12.48-20.35-5.6-16.28-4.89-47.71-8.83-56.15-3.95-8.46-8.27-17.47-12.96-18.41-4.7-.94-13.44-1.13-15.6,3.75-2.15,4.88,1.22,15.79,4.98,19.16,3.76,3.39,10.9,9.4,11.28,15.6.38,6.2,3.57,14.46,3.38,19.91-.19,5.46,1.32,9.59-1.32,9.78-2.62.19-13.89-19.35-20.28-18.98-6.39.38-8.27-.75-16.54-1.13-8.26-.38-15.4-.38-21.79,3.01-6.39,3.38-7.52,8.07-14.28,9.77s-14.44-2.26-21.78,2.63c-7.34,4.88-22.75,11.84-21.06,22.17s8.64,44.91,11.84,49.98c3.19,5.07,3.02,10.33,5.93,12.78,2.91,2.45,4.21,3.94,4.21,3.94l-2.06,2.63s-3.76-2.82-6.2-.56c-2.45,2.26-4.14,6.95-1.32,18.22,2.81,11.27,3.75,16.72,3,24.05-.75,7.33-1.5,9.02.38,12.4,1.88,3.39.94,3.39.94,3.39,0,0-10.52.38-16.15-2.63-5.64-3-36.82-7.14-46.03-9.39-9.2-2.26-46.96-9.59-54.11-10.72-7.14-1.12-43.74-9.95-51.27-10.71-7.54-.75-8.29,5.64-12.8-3.19-4.51-8.83-8.65-34.95-9.58-45.66-.94-10.71-.19-31.94-4.7-33.63-4.51-1.68-10.52-3.19-13.53-.38-3,2.82-2.44,15.03-2.44,21.23s2.07,38.14,5.82,47.34c3.75,9.21,2.26,18.41,5.26,21.61,3.01,3.19,9.4,3,9.78,10.52.37,7.52,1.12,38.14-1.13,44.34-2.26,6.2-21.61,22.92-23.86,25.18-2.26,2.26-13.34,18.98-23.12,17.85-9.77-1.13-23.11-3-31-9.77-7.89-6.76-46.21-40.59-51.11-48.47-4.88-7.89-35.13-37.95-40.39-47.92-5.26-9.95-80.72-124.81-80.72-124.81l-6.82-7.14s-3.18-6.97-8.86-16.11c-5.68-9.13-19.08-27.14-19.08-27.14l-3.98-5.9s10.33-6.66,13.29-9.47c2.37-2.25,7.37-6.92,10.61-7.62,4.03-.88,9.47.6,12.26-.67s8.94-4.65,9.13-7.61c.17-2.55-3.95-6.97-6.24-8.09-3.33-1.62-10.85-3.2-14.53-2.86s-11.31,2.56-14.65,4.42-11.82,9.14-11.82,9.14l-6.81,6.29-30.23-57.56h133.56s29.76,40.9,49.75,49.22c19.98,8.32,39.12,37.47,50.78,39.13,11.66,1.66,40.8,14.98,64.94,12.48,24.15-2.5,39.13.84,39.13.84l7.65,48.29h9.83l12.49,64.1h13.32l8.32,32.47,40.8-3.34-6.66-19.98,25.81-17.03-19.15-63.66,67.44-74.16,28.18-32.47,76.42,31.64,42.33-41.63,68.71,46.63-16.66,30.8,58.29,41.44,123.21,89.25,73.27-42.92,52.67,5.52,6.43,49.91,57.71-10.35,27.22,40.74,49.96-3.75,20.82,31.64-92.42,56.12-42.46-26.15-20.82-24.98s-14.98-15.98-22.48-11.74c-7.49,4.24-5.82,17.56,2.5,25.9Z"/>
      <path class="cls-10" d="M316.26,194.8c0-1.72-.88-5.85.42-6.59s4.8,1.9,6.27,2.77c8.97,5.33,24.81,14.06,33.72,15.06,12.92,1.45,24.07-1.96,33.9,0s27.62,7.19,36.1,15.96c6.98,7.22,25.26,18.49,31.33,22.51,1.31.86,3.01,2.39,2.93,3.95-.25,5-2.61,17.29-5.59,28.88-3.95,15.34-11.69,35.56-17.92,39.77s-29.37,24.17-45.43,25.75-41.76-9.33-46.53-19.27c-4.02-8.39-22.11-23.64-27.65-28.18-1.03-.84-1.62-2.1-1.62-3.43l.06-97.18Z"/>
      <path class="cls-10" d="M505.42,150.71l99.74,159.08,7.89,11.87-20.54-19.38s-28.36-19.51-37.95-23.59-53.14-35.32-64.77-41.51c-11.63-6.19-81.24-49.16-87.73-51.33-6.49-2.17-24.13-5.38-28.25-5.8s-29.29-5.13-35.59-8.15c-6.31-3.03-22.2-6.36-22.2-6.36,0,0-.16-12.53.8-13.51,1.39-1.42,3.59-1.24,4.54-1.32s184.06,0,184.06,0Z"/>
      <path class="cls-10" d="M820.32,749.92s9.49-14.88,18.02-11.73,24.5,10.32,24.5,10.32l15.53,26.91,31.81,44.75,22.68,30.44,19.49,16.22,11.15,9.19h-11.97s-35.42-25.68-43.47-31.83-39.54-24.28-43.74-29.94-44-64.32-44-64.32Z"/>
      <path class="cls-10" d="M852.4,640.93c-4.67,8.69-6.52,9.76-5.84,13.05s.78,10.97,5.84,17.99,32.86,47.65,37.15,53.19,44.2,64.27,49.58,70.2c5.38,5.93,17.07,27.3,18.84,30.25s8.58,10.73,8.58,10.73c0,0,7.12-11.2,11.14-11.13s6.22-.63,10.56,1.64,91.36,38.4,97.17,40.32,55.18,18.81,59.88,21.81,33.4,33.05,35.9,36.38,15.95,18.07,15.95,18.07h362.2s24.63-17.64,23.21-24.56.06-36.94.06-36.94l4.73-5.9,14.55,8.18,17.79,5.38,18.09,2.32,8.76,1.74v-22.94s-20.05,1.63-25.47,1.54-15.2.39-25.98-4.18-37.79-12.08-46.38-17.65-49.66-16.57-56.09-21.02-30.7-14.08-39.38-14.23c-8.68-.15-24.94-1.5-33.62-1.65s-37.5,3.17-44.02,3.61-36.97,3.72-44.58,4.68-38.54.44-47.22.3-26.38-12.92-33.41-14.67-28.1-7.53-34.08-6.54-27.59-5.35-31.91-6.5-29.69-9.72-36.16-12c-6.47-2.28-30.8-8.11-39.48-8.26s-23.04-1.47-30.7,2.2-5.02,8.06-22.4,8.85c-17.38.8-31.13,11.42-43.43.36-12.3-11.06-28.11-16.22-40.89-26.2s-20.23-18.78-30.38-28.72c-10.15-9.94-31.42-35.8-31.42-35.8,0,0,1.13,8.19-8.24,11.28s-15.16-7.33-20.45-15.56-28.4-49.63-28.4-49.63Z"/>
      <path class="cls-10" d="M1382.39,782.32s7.22-21.81,13.79-25.13,35.27-18.95,41.22-26.04c5.94-7.1,46.47-53.37,52.06-59.45s30.6-26.56,35.48-30.94,22.95-19.5,22.95-19.5l4.16-2.67,97.32,47.55-2.83,177.58s-65.46-14.21-74.63-18.82-43.9-18.56-51.38-22.11-30.26-14.56-37.79-15.37-20.07-8.9-31.41-7.38-30.2,2.24-38.08,2.11-13.32-2.62-19.86-1.02-10.99,1.19-10.99,1.19Z"/>
      <path class="cls-10" d="M1625.07,547.89c-1.94,2.25-21.97,11.28-26.98,15.38s-23.95,21.29-26.27,23.53,18.12,10.25,24.14,13.75,24.14,11.79,29.41,15.69,25.58,21.23,25.58,21.23l3.16-72.9-29.04-16.67Z"/>
      <path class="cls-10" d="M1240.17,766.35c-1.06-.56,2.38-1.75,3.53-2.08,3.65-1.05,13.72-1.29,15.87-3.37,3.27-3.16,6.27-7.21,10.38-8.02s5.94-4.88,11.51-5.95,11.13-.4,15.24-1.5c3.34-.89,6.3-2.18,7.3-2.63.24-.11.49-.14.75-.1,2.48.4,16,2.58,22.09,2.95,6.73.41,18.69,2.36,25.74.72s29.93-4.48,35.82-6.72,13.54-4.75,13.54-4.75c0,0-17.4,7.61-20.65,9.9s-10.76,13.28-14.36,18.49-10.55,18.26-12.66,21.74c-1.52,2.5-2.71,3.8-3.26,4.33-.2.2-.46.31-.74.35-3.21.42-24.74,3.13-34.47,2.5-10.52-.68-22.5-2.34-31.2-6.88s-19.18-7.6-29.49-13.06l-14.97-5.9Z"/>
    </g>
  </g>
  <g id="Camp.fr">
    <g id="Bridge">
      <g id="Layer_29" data-name="Layer 29">
        <g>
          <path class="cls-13" d="M706.7,484.22l3.81,14.63,5.48-2.04,5.48-2.04s-1.3-9.49-1.24-10.04c.15-1.44,10.99-8.95,16.97-10.75s17.76-2.6,17.76-2.6l.52,8.17,12.25-2.77-2.02-16.76-15.81.05-10.11,1.21-11,2.83-12.75,7.08-9.34,13.03Z"/>
          <path class="cls-13" d="M729.64,505.98l3.81,14.63,5.48-2.04,5.48-2.04s-1.3-9.49-1.24-10.04c.15-1.44,10.99-8.95,16.97-10.75s17.76-2.6,17.76-2.6l.52,8.17,12.25-2.77-2.02-16.76-15.81.05-10.11,1.21-11,2.83-12.75,7.08-9.34,13.03Z"/>
          <path class="cls-3" d="M708.98,491.09l8-9.46c7.54-8.62,11.06-10.2,17.34-13.5,4.23-2.22,10.75-3.53,16.96-4.53,9.37-1.5,14.14-.44,14.14-.44l21.04,20.58s-25.75-.91-33.62.9-15.89,9.91-19.48,14.03-5.37,6.02-5.37,6.02l-19.01-13.61Z"/>
        </g>
        <g>
          <path class="cls-6" d="M1243.79,792.09l-10.71,12.36-6,4.97-2.07-19.19s6.64-6.29,6.93-6.72c.77-1.15-2.03-12.74-5-17.41s-10.48-11.83-10.48-11.83l-5.31,5.74-6.63-8.88,11.54-11.25,10.7,8.86,6.13,6.54,5.75,8.23,4.36,12.34.78,16.25Z"/>
          <path class="cls-6" d="M1214.53,799.39l-4.85,10.89-7.75-6.31-4.07-3.06s5.02-13.7,5.31-14.14c.77-1.15-2.03-12.74-5-17.41-2.83-4.46-10.48-11.83-10.48-11.83l-5.31,5.74-6.63-8.88,11.54-11.25,10.7,8.86,6.13,6.54,5.75,8.23,4.36,12.34.3,20.27Z"/>
          <path class="cls-7" d="M1236.91,796.06l-.88-13.03c.11-10.58-1.32-13.71-3.58-19.64-1.52-4-5.16-8.61-8.77-12.8-5.45-6.33-9.33-8.21-9.33-8.21l-26.78,3.46s18.04,13.69,22.28,19.42,4.78,16.18,4.72,21.23-.87,15.65-.87,15.65l23.22-6.08Z"/>
        </g>
      </g>
    </g>
    <g id="Trees">
      <g id="Layer_31" data-name="Layer 31">
        <g>
          <polygon class="cls-26" points="1635.1 489.33 1640.43 456.53 1640.43 418.5 1645.44 386.04 1645.44 428.05 1648.85 465.58 1646.58 476.8 1646.39 486.4 1647.16 489.33 1635.1 489.33"/>
          <path class="cls-27" d="M1696.49,432.34l-3.85,14.13-7.61,3.36-12.59,2.1h-8.1l-8.06,3.96h-9.62l-5.6.63-8.27-3.03-8.07.9-12.67-.69-7.79-2.49-4.66-13.66,6.31,3.79,8.99,5.53s5.76-1.92,10.22-2.99c4.46-1.08,1.4-5.81,1.4-5.81l-2.02-3.04-6.02.9-9.2-3.42-4.53-11.04s4.63,2.73,9.3,6.09c4.66,3.35,7.5-3.96,7.5-3.96l5.15-5.89s1.55-7.25-1.57-6.36c-3.12.9-2.29.83-6.32,1.57-4.03.74-4.49.21-4.49.21l-6.94-5.65-.33-5.61,8.6,4.68s5.92-3.48,12.65-9.71c4.91-4.56,2.38-5.17.67-5.17-.63,0-1.15.08-1.15.08l-8.09.9-5.28-6.67s8.54-1.11,12.29-1.39c3.75-.27,9.5-6.32,9.5-6.32l4.55-5.8-1.66-2.32-12.95,3.78c.2-.12,1.04-.63,4.76-2.86,4.82-2.9,8.76-6.4,13.96-14.28.07-.11,1.7-2.58,2.23-3.39.56.8,1.26,1.76,2.11,2.91.78,1.05,1.7,2.26,2.77,3.64,5.64,7.27,4.44,7.27,9.41,9.62l4.97,2.35-13.19-2.35,3.35,7.76s6.08,5.39,9.83,5.25c3.75-.14,12.33,0,12.33,0l-4.88,7.25h-8.11l-3.13,1.81s-5.21,1.37,1.85,6.83c7.06,5.46,14.28,4.76,14.28,4.76l8.3-5.62v5.62l-6.59,6.42s-4.49.29-8.55,0c-4.06-.29-4.75-2.17-7.57-.13-2.17,1.56,4.04,6.07,4.04,6.07l5.48,5.29s3.26,6.97,7.71,3.1c4.45-3.87,8.91-7.11,8.91-7.11l-3.87,11.51-8.97,4.45-11.83-3.89-2.21,5.94s.89,3.62,5.4,4.19c4.5.58,12.84,4.26,12.84,4.26l8.65-6.52,6.07-4.49Z"/>
        </g>
        <g>
          <polygon class="cls-26" points="583.56 664.71 587.92 638.95 587.92 609.09 592.01 583.6 592.01 616.59 594.79 646.06 592.93 654.87 592.78 662.4 593.41 664.71 583.56 664.71"/>
          <path class="cls-27" d="M633.68,619.96l-3.14,11.1-6.21,2.64-10.28,1.65h-6.61l-6.58,3.11h-7.85l-4.57.49-6.75-2.38-6.59.71-10.34-.54-6.36-1.95-3.81-10.73,5.15,2.98,7.34,4.34s4.7-1.5,8.34-2.35c3.64-.85,1.14-4.56,1.14-4.56l-1.65-2.39-4.92.71-7.51-2.69-3.7-8.67s3.78,2.15,7.59,4.78c3.81,2.63,6.12-3.11,6.12-3.11l4.2-4.62s1.26-5.69-1.28-4.99c-2.54.7-1.87.65-5.16,1.24-3.29.58-3.67.17-3.67.17l-5.67-4.44-.27-4.4,7.02,3.67s4.84-2.74,10.33-7.63c4.01-3.58,1.95-4.06.55-4.06-.52,0-.94.06-.94.06l-6.6.71-4.31-5.24s6.98-.87,10.04-1.09c3.06-.22,7.75-4.97,7.75-4.97l3.71-4.56-1.35-1.82-10.57,2.97c.16-.09.85-.49,3.88-2.25,3.93-2.28,7.15-5.02,11.39-11.21.06-.08,1.39-2.03,1.82-2.66.46.63,1.03,1.38,1.72,2.28.64.83,1.39,1.78,2.26,2.86,4.6,5.71,3.62,5.71,7.68,7.55l4.06,1.85-10.77-1.85,2.74,6.1s4.97,4.23,8.03,4.12c3.06-.11,10.07,0,10.07,0l-3.98,5.69h-6.62l-2.56,1.42s-4.26,1.07,1.51,5.36c5.76,4.29,11.65,3.73,11.65,3.73l6.77-4.41v4.41l-5.38,5.04s-3.67.23-6.98,0c-3.32-.23-3.88-1.7-6.18-.1-1.77,1.23,3.3,4.77,3.3,4.77l4.47,4.16s2.66,5.47,6.29,2.44c3.63-3.04,7.28-5.58,7.28-5.58l-3.16,9.04-7.33,3.49-9.66-3.05-1.8,4.66s.73,2.84,4.41,3.29c3.68.45,10.48,3.35,10.48,3.35l7.06-5.12,4.96-3.52Z"/>
        </g>
        <g>
          <polygon class="cls-26" points="528.6 538.75 532.96 512.99 532.96 483.13 537.05 457.64 537.05 490.63 539.83 520.1 537.97 528.91 537.82 536.45 538.45 538.75 528.6 538.75"/>
          <path class="cls-27" d="M578.72,494l-3.14,11.1-6.21,2.64-10.28,1.65h-6.61l-6.58,3.11h-7.85l-4.57.49-6.75-2.38-6.59.71-10.34-.54-6.36-1.95-3.81-10.73,5.15,2.98,7.34,4.34s4.7-1.5,8.34-2.35c3.64-.85,1.14-4.56,1.14-4.56l-1.65-2.39-4.92.71-7.51-2.69-3.7-8.67s3.78,2.15,7.59,4.78c3.81,2.63,6.12-3.11,6.12-3.11l4.2-4.62s1.26-5.69-1.28-4.99c-2.54.7-1.87.65-5.16,1.24-3.29.58-3.67.17-3.67.17l-5.67-4.44-.27-4.4,7.02,3.67s4.84-2.74,10.33-7.63c4.01-3.58,1.95-4.06.55-4.06-.52,0-.94.06-.94.06l-6.6.71-4.31-5.24s6.98-.87,10.04-1.09c3.06-.22,7.75-4.97,7.75-4.97l3.71-4.56-1.35-1.82-10.57,2.97c.16-.09.85-.49,3.88-2.25,3.93-2.28,7.15-5.02,11.39-11.21.06-.08,1.39-2.03,1.82-2.66.46.63,1.03,1.38,1.72,2.28.64.83,1.39,1.78,2.26,2.86,4.6,5.71,3.62,5.71,7.68,7.55l4.06,1.85-10.77-1.85,2.74,6.1s4.97,4.23,8.03,4.12c3.06-.11,10.07,0,10.07,0l-3.98,5.69h-6.62l-2.56,1.42s-4.26,1.07,1.51,5.36c5.76,4.29,11.65,3.73,11.65,3.73l6.77-4.41v4.41l-5.38,5.04s-3.67.23-6.98,0c-3.32-.23-3.88-1.7-6.18-.1-1.77,1.23,3.3,4.77,3.3,4.77l4.47,4.16s2.66,5.47,6.29,2.44c3.63-3.04,7.28-5.58,7.28-5.58l-3.16,9.04-7.33,3.49-9.66-3.05-1.8,4.66s.73,2.84,4.41,3.29c3.68.45,10.48,3.35,10.48,3.35l7.06-5.12,4.96-3.52Z"/>
        </g>
        <g>
          <polygon class="cls-26" points="837.47 277.44 841.83 251.68 841.83 221.81 845.92 196.33 845.92 229.32 848.7 258.79 846.85 267.6 846.69 275.13 847.32 277.44 837.47 277.44"/>
          <path class="cls-27" d="M887.59,232.69l-3.14,11.1-6.21,2.64-10.28,1.65h-6.61l-6.58,3.11h-7.85l-4.57.49-6.75-2.38-6.59.71-10.34-.54-6.36-1.95-3.81-10.73,5.15,2.98,7.34,4.34s4.7-1.5,8.34-2.35c3.64-.85,1.14-4.56,1.14-4.56l-1.65-2.39-4.92.71-7.51-2.69-3.7-8.67s3.78,2.15,7.59,4.78c3.81,2.63,6.12-3.11,6.12-3.11l4.2-4.62s1.26-5.69-1.28-4.99c-2.54.7-1.87.65-5.16,1.24-3.29.58-3.67.17-3.67.17l-5.67-4.44-.27-4.4,7.02,3.67s4.84-2.74,10.33-7.63c4.01-3.58,1.95-4.06.55-4.06-.52,0-.94.06-.94.06l-6.6.71-4.31-5.24s6.98-.87,10.04-1.09c3.06-.22,7.75-4.97,7.75-4.97l3.71-4.56-1.35-1.82-10.57,2.97c.16-.09.85-.49,3.88-2.25,3.93-2.28,7.15-5.02,11.39-11.21.06-.08,1.39-2.03,1.82-2.66.46.63,1.03,1.38,1.72,2.28.64.83,1.39,1.78,2.26,2.86,4.6,5.71,3.62,5.71,7.68,7.55l4.06,1.85-10.77-1.85,2.74,6.1s4.97,4.23,8.03,4.12c3.06-.11,10.07,0,10.07,0l-3.98,5.69h-6.62l-2.56,1.42s-4.26,1.07,1.51,5.36c5.76,4.29,11.65,3.73,11.65,3.73l6.77-4.41v4.41l-5.38,5.04s-3.67.23-6.98,0c-3.32-.23-3.88-1.7-6.18-.1-1.77,1.23,3.3,4.77,3.3,4.77l4.47,4.16s2.66,5.47,6.29,2.44c3.63-3.04,7.28-5.58,7.28-5.58l-3.16,9.04-7.33,3.49-9.66-3.05-1.8,4.66s.73,2.84,4.41,3.29c3.68.45,10.48,3.35,10.48,3.35l7.06-5.12,4.96-3.52Z"/>
        </g>
        <g>
          <polygon class="cls-26" points="1612.19 746.37 1616.54 720.61 1616.54 690.75 1620.63 665.26 1620.63 698.25 1623.42 727.72 1621.56 736.53 1621.41 744.07 1622.04 746.37 1612.19 746.37"/>
          <path class="cls-27" d="M1662.31,701.62l-3.14,11.1-6.21,2.64-10.28,1.65h-6.61l-6.58,3.11h-7.85l-4.57.49-6.75-2.38-6.59.71-10.34-.54-6.36-1.95-3.81-10.73,5.15,2.98,7.34,4.34s4.7-1.5,8.34-2.35c3.64-.85,1.14-4.56,1.14-4.56l-1.65-2.39-4.92.71-7.51-2.69-3.7-8.67s3.78,2.15,7.59,4.78c3.81,2.63,6.12-3.11,6.12-3.11l4.2-4.62s1.26-5.69-1.28-4.99c-2.54.7-1.87.65-5.16,1.24-3.29.58-3.67.17-3.67.17l-5.67-4.44-.27-4.4,7.02,3.67s4.84-2.74,10.33-7.63c4.01-3.58,1.95-4.06.55-4.06-.52,0-.94.06-.94.06l-6.6.71-4.31-5.24s6.98-.87,10.04-1.09c3.06-.22,7.75-4.97,7.75-4.97l3.71-4.56-1.35-1.82-10.57,2.97c.16-.09.85-.49,3.88-2.25,3.93-2.28,7.15-5.02,11.39-11.21.06-.08,1.39-2.03,1.82-2.66.46.63,1.03,1.38,1.72,2.28.64.83,1.39,1.78,2.26,2.86,4.6,5.71,3.62,5.71,7.68,7.55l4.06,1.85-10.77-1.85,2.74,6.1s4.97,4.23,8.03,4.12c3.06-.11,10.07,0,10.07,0l-3.98,5.69h-6.62l-2.56,1.42s-4.26,1.07,1.51,5.36c5.76,4.29,11.65,3.73,11.65,3.73l6.77-4.41v4.41l-5.38,5.04s-3.67.23-6.98,0c-3.32-.23-3.88-1.7-6.18-.1-1.77,1.23,3.3,4.77,3.3,4.77l4.47,4.16s2.66,5.47,6.29,2.44c3.63-3.04,7.28-5.58,7.28-5.58l-3.16,9.04-7.33,3.49-9.66-3.05-1.8,4.66s.73,2.84,4.41,3.29c3.68.45,10.48,3.35,10.48,3.35l7.06-5.12,4.96-3.52Z"/>
        </g>
        <g>
          <polygon class="cls-26" points="735.93 265.19 740.28 239.43 740.28 209.56 744.37 184.08 744.37 217.07 747.15 246.54 745.3 255.35 745.14 262.88 745.77 265.19 735.93 265.19"/>
          <path class="cls-27" d="M786.04,220.44l-3.14,11.1-6.21,2.64-10.28,1.65h-6.61l-6.58,3.11h-7.85l-4.57.49-6.75-2.38-6.59.71-10.34-.54-6.36-1.95-3.81-10.73,5.15,2.98,7.34,4.34s4.7-1.5,8.34-2.35c3.64-.85,1.14-4.56,1.14-4.56l-1.65-2.39-4.92.71-7.51-2.69-3.7-8.67s3.78,2.15,7.59,4.78c3.81,2.63,6.12-3.11,6.12-3.11l4.2-4.62s1.26-5.69-1.28-4.99c-2.54.7-1.87.65-5.16,1.24-3.29.58-3.67.17-3.67.17l-5.67-4.44-.27-4.4,7.02,3.67s4.84-2.74,10.33-7.63c4.01-3.58,1.95-4.06.55-4.06-.52,0-.94.06-.94.06l-6.6.71-4.31-5.24s6.98-.87,10.04-1.09c3.06-.22,7.75-4.97,7.75-4.97l3.71-4.56-1.35-1.82-10.57,2.97c.16-.09.85-.49,3.88-2.25,3.93-2.28,7.15-5.02,11.39-11.21.06-.08,1.39-2.03,1.82-2.66.46.63,1.03,1.38,1.72,2.28.64.83,1.39,1.78,2.26,2.86,4.6,5.71,3.62,5.71,7.68,7.55l4.06,1.85-10.77-1.85,2.74,6.1s4.97,4.23,8.03,4.12c3.06-.11,10.07,0,10.07,0l-3.98,5.69h-6.62l-2.56,1.42s-4.26,1.07,1.51,5.36c5.76,4.29,11.65,3.73,11.65,3.73l6.77-4.41v4.41l-5.38,5.04s-3.67.23-6.98,0c-3.32-.23-3.88-1.7-6.18-.1-1.77,1.23,3.3,4.77,3.3,4.77l4.47,4.16s2.66,5.47,6.29,2.44c3.63-3.04,7.28-5.58,7.28-5.58l-3.16,9.04-7.33,3.49-9.66-3.05-1.8,4.66s.73,2.84,4.41,3.29c3.68.45,10.48,3.35,10.48,3.35l7.06-5.12,4.96-3.52Z"/>
        </g>
        <g>
          <polygon class="cls-26" points="364.77 509.72 360.37 484.47 360.37 455.18 356.24 430.19 356.24 462.54 353.42 491.44 355.3 500.08 355.45 507.46 354.82 509.72 364.77 509.72"/>
          <path class="cls-27" d="M314.11,465.85l3.18,10.88,6.28,2.58,10.39,1.62h6.68s6.65,3.05,6.65,3.05h7.94s4.62.48,4.62.48l6.82-2.34,6.66.7,10.46-.53,6.42-1.91,3.85-10.52-5.21,2.92-7.42,4.26s-4.75-1.48-8.43-2.31c-3.68-.83-1.15-4.47-1.15-4.47l1.66-2.34,4.97.7,7.59-2.64,3.74-8.5s-3.82,2.1-7.67,4.69c-3.85,2.58-6.19-3.05-6.19-3.05l-4.25-4.53s-1.28-5.58,1.3-4.9c2.57.69,1.89.64,5.22,1.21,3.33.57,3.71.17,3.71.17l5.73-4.35.27-4.32-7.09,3.6s-4.89-2.68-10.44-7.48c-4.06-3.51-1.97-3.98-.55-3.98.52,0,.95.06.95.06l6.68.7,4.36-5.14s-7.05-.85-10.15-1.07c-3.09-.21-7.84-4.87-7.84-4.87l-3.75-4.47,1.37-1.78,10.68,2.91c-.16-.09-.86-.48-3.92-2.2-3.98-2.23-7.23-4.93-11.52-10.99-.06-.08-1.4-1.99-1.84-2.61-.46.61-1.04,1.36-1.74,2.24-.65.81-1.4,1.74-2.29,2.81-4.65,5.6-3.66,5.6-7.76,7.41l-4.1,1.81,10.88-1.81-2.77,5.98s-5.02,4.15-8.12,4.04c-3.09-.11-10.18,0-10.18,0l4.02,5.58h6.7s2.58,1.39,2.58,1.39c0,0,4.3,1.05-1.52,5.26-5.83,4.2-11.78,3.66-11.78,3.66l-6.85-4.33v4.33s5.44,4.94,5.44,4.94c0,0,3.71.22,7.06,0,3.35-.22,3.92-1.67,6.25-.1,1.79,1.2-3.34,4.67-3.34,4.67l-4.52,4.07s-2.69,5.36-6.36,2.39c-3.67-2.98-7.35-5.47-7.35-5.47l3.19,8.86,7.41,3.42,9.76-2.99,1.82,4.57s-.74,2.79-4.45,3.23c-3.72.44-10.6,3.28-10.6,3.28l-7.13-5.02-5.01-3.46Z"/>
        </g>
        <g>
          <polygon class="cls-26" points="376.67 312.96 372.27 287.7 372.27 258.42 368.13 233.43 368.13 265.78 365.32 294.67 367.19 303.31 367.35 310.7 366.71 312.96 376.67 312.96"/>
          <path class="cls-27" d="M326.01,269.08l3.18,10.88,6.28,2.58,10.39,1.62h6.68s6.65,3.05,6.65,3.05h7.94s4.62.48,4.62.48l6.82-2.34,6.66.7,10.46-.53,6.42-1.91,3.85-10.52-5.21,2.92-7.42,4.26s-4.75-1.48-8.43-2.31c-3.68-.83-1.15-4.47-1.15-4.47l1.66-2.34,4.97.7,7.59-2.64,3.74-8.5s-3.82,2.1-7.67,4.69c-3.85,2.58-6.19-3.05-6.19-3.05l-4.25-4.53s-1.28-5.58,1.3-4.9c2.57.69,1.89.64,5.22,1.21,3.33.57,3.71.17,3.71.17l5.73-4.35.27-4.32-7.09,3.6s-4.89-2.68-10.44-7.48c-4.06-3.51-1.97-3.98-.55-3.98.52,0,.95.06.95.06l6.68.7,4.36-5.14s-7.05-.85-10.15-1.07c-3.09-.21-7.84-4.87-7.84-4.87l-3.75-4.47,1.37-1.78,10.68,2.91c-.16-.09-.86-.48-3.92-2.2-3.98-2.23-7.23-4.93-11.52-10.99-.06-.08-1.4-1.99-1.84-2.61-.46.61-1.04,1.36-1.74,2.24-.65.81-1.4,1.74-2.29,2.81-4.65,5.6-3.66,5.6-7.76,7.41l-4.1,1.81,10.88-1.81-2.77,5.98s-5.02,4.15-8.12,4.04c-3.09-.11-10.18,0-10.18,0l4.02,5.58h6.7s2.58,1.39,2.58,1.39c0,0,4.3,1.05-1.52,5.26-5.83,4.2-11.78,3.66-11.78,3.66l-6.85-4.33v4.33s5.44,4.94,5.44,4.94c0,0,3.71.22,7.06,0,3.35-.22,3.92-1.67,6.25-.1,1.79,1.2-3.34,4.67-3.34,4.67l-4.52,4.07s-2.69,5.36-6.36,2.39c-3.67-2.98-7.35-5.47-7.35-5.47l3.19,8.86,7.41,3.42,9.76-2.99,1.82,4.57s-.74,2.79-4.45,3.23c-3.72.44-10.6,3.28-10.6,3.28l-7.13-5.02-5.01-3.46Z"/>
        </g>
        <g>
          <polygon class="cls-26" points="1180.42 898.2 1176.02 872.94 1176.02 843.66 1171.89 818.67 1171.89 851.01 1169.07 879.91 1170.95 888.55 1171.11 895.94 1170.47 898.2 1180.42 898.2"/>
          <path class="cls-27" d="M1129.76,854.32l3.18,10.88,6.28,2.58,10.39,1.62h6.68s6.65,3.05,6.65,3.05h7.94s4.62.48,4.62.48l6.82-2.34,6.66.7,10.46-.53,6.42-1.91,3.85-10.52-5.21,2.92-7.42,4.26s-4.75-1.48-8.43-2.31c-3.68-.83-1.15-4.47-1.15-4.47l1.66-2.34,4.97.7,7.59-2.64,3.74-8.5s-3.82,2.1-7.67,4.69c-3.85,2.58-6.19-3.05-6.19-3.05l-4.25-4.53s-1.28-5.58,1.3-4.9c2.57.69,1.89.64,5.22,1.21,3.33.57,3.71.17,3.71.17l5.73-4.35.27-4.32-7.09,3.6s-4.89-2.68-10.44-7.48c-4.06-3.51-1.97-3.98-.55-3.98.52,0,.95.06.95.06l6.68.7,4.36-5.14s-7.05-.85-10.15-1.07c-3.09-.21-7.84-4.87-7.84-4.87l-3.75-4.47,1.37-1.78,10.68,2.91c-.16-.09-.86-.48-3.92-2.2-3.98-2.23-7.23-4.93-11.52-10.99-.06-.08-1.4-1.99-1.84-2.61-.46.61-1.04,1.36-1.74,2.24-.65.81-1.4,1.74-2.29,2.81-4.65,5.6-3.66,5.6-7.76,7.41l-4.1,1.81,10.88-1.81-2.77,5.98s-5.02,4.15-8.12,4.04c-3.09-.11-10.18,0-10.18,0l4.02,5.58h6.7s2.58,1.39,2.58,1.39c0,0,4.3,1.05-1.52,5.26-5.83,4.2-11.78,3.66-11.78,3.66l-6.85-4.33v4.33s5.44,4.94,5.44,4.94c0,0,3.71.22,7.06,0,3.35-.22,3.92-1.67,6.25-.1,1.79,1.2-3.34,4.67-3.34,4.67l-4.52,4.07s-2.69,5.36-6.36,2.39c-3.67-2.98-7.35-5.47-7.35-5.47l3.19,8.86,7.41,3.42,9.76-2.99,1.82,4.57s-.74,2.79-4.45,3.23c-3.72.44-10.6,3.28-10.6,3.28l-7.13-5.02-5.01-3.46Z"/>
        </g>
        <g>
          <polygon class="cls-26" points="1421.91 545.13 1417.51 519.87 1417.51 490.59 1413.37 465.6 1413.37 497.95 1410.56 526.84 1412.43 535.49 1412.59 542.87 1411.95 545.13 1421.91 545.13"/>
          <path class="cls-27" d="M1371.25,501.25l3.18,10.88,6.28,2.58,10.39,1.62h6.68s6.65,3.05,6.65,3.05h7.94s4.62.48,4.62.48l6.82-2.34,6.66.7,10.46-.53,6.42-1.91,3.85-10.52-5.21,2.92-7.42,4.26s-4.75-1.48-8.43-2.31c-3.68-.83-1.15-4.47-1.15-4.47l1.66-2.34,4.97.7,7.59-2.64,3.74-8.5s-3.82,2.1-7.67,4.69c-3.85,2.58-6.19-3.05-6.19-3.05l-4.25-4.53s-1.28-5.58,1.3-4.9c2.57.69,1.89.64,5.22,1.21,3.33.57,3.71.17,3.71.17l5.73-4.35.27-4.32-7.09,3.6s-4.89-2.68-10.44-7.48c-4.06-3.51-1.97-3.98-.55-3.98.52,0,.95.06.95.06l6.68.7,4.36-5.14s-7.05-.85-10.15-1.07c-3.09-.21-7.84-4.87-7.84-4.87l-3.75-4.47,1.37-1.78,10.68,2.91c-.16-.09-.86-.48-3.92-2.2-3.98-2.23-7.23-4.93-11.52-10.99-.06-.08-1.4-1.99-1.84-2.61-.46.61-1.04,1.36-1.74,2.24-.65.81-1.4,1.74-2.29,2.81-4.65,5.6-3.66,5.6-7.76,7.41l-4.1,1.81,10.88-1.81-2.77,5.98s-5.02,4.15-8.12,4.04c-3.09-.11-10.18,0-10.18,0l4.02,5.58h6.7s2.58,1.39,2.58,1.39c0,0,4.3,1.05-1.52,5.26-5.83,4.2-11.78,3.66-11.78,3.66l-6.85-4.33v4.33s5.44,4.94,5.44,4.94c0,0,3.71.22,7.06,0,3.35-.22,3.92-1.67,6.25-.1,1.79,1.2-3.34,4.67-3.34,4.67l-4.52,4.07s-2.69,5.36-6.36,2.39c-3.67-2.98-7.35-5.47-7.35-5.47l3.19,8.86,7.41,3.42,9.76-2.99,1.82,4.57s-.74,2.79-4.45,3.23c-3.72.44-10.6,3.28-10.6,3.28l-7.13-5.02-5.01-3.46Z"/>
        </g>
        <polygon class="cls-27" points="1577.31 444.74 1572.91 419.48 1572.91 390.2 1568.78 365.21 1568.78 397.56 1565.96 426.46 1567.84 435.1 1567.99 442.48 1567.36 444.74 1577.31 444.74"/>
        <path class="cls-26" d="M1531.66,391.12l3.18,10.88,6.28,2.58,10.39,1.62h6.68s6.65,3.05,6.65,3.05h7.94s4.62.48,4.62.48l6.82-2.34,6.66.7,10.46-.53,6.42-1.91,3.85-10.52-5.21,2.92-7.42,4.26s-4.75-1.48-8.43-2.31c-3.68-.83-1.15-4.47-1.15-4.47l1.66-2.34,4.97.7,7.59-2.64,3.74-8.5s-3.82,2.1-7.67,4.69c-3.85,2.58-6.19-3.05-6.19-3.05l-4.25-4.53s-1.28-5.58,1.3-4.9c2.57.69,1.89.64,5.22,1.21,3.33.57,3.71.17,3.71.17l5.73-4.35.27-4.32-7.09,3.6s-4.89-2.68-10.44-7.48c-4.06-3.51-1.97-3.98-.55-3.98.52,0,.95.06.95.06l6.68.7,4.36-5.14s-7.05-.85-10.15-1.07c-3.09-.21-7.84-4.87-7.84-4.87l-3.75-4.47,1.37-1.78,10.68,2.91c-.16-.09-.86-.48-3.92-2.2-3.98-2.23-7.23-4.93-11.52-10.99-.06-.08-1.4-1.99-1.84-2.61-.46.61-1.04,1.36-1.74,2.24-.65.81-1.4,1.74-2.29,2.81-4.65,5.6-3.66,5.6-7.76,7.41l-4.1,1.81,10.88-1.81-2.77,5.98s-5.02,4.15-8.12,4.04c-3.09-.11-10.18,0-10.18,0l4.02,5.58h6.7s2.58,1.39,2.58,1.39c0,0,4.3,1.05-1.52,5.26-5.83,4.2-11.78,3.66-11.78,3.66l-6.85-4.33v4.33s5.44,4.94,5.44,4.94c0,0,3.71.22,7.06,0,3.35-.22,3.92-1.67,6.25-.1,1.79,1.2-3.34,4.67-3.34,4.67l-4.52,4.07s-2.69,5.36-6.36,2.39c-3.67-2.98-7.35-5.47-7.35-5.47l3.19,8.86,7.41,3.42,9.76-2.99,1.82,4.57s-.74,2.79-4.45,3.23c-3.72.44-10.6,3.28-10.6,3.28l-7.13-5.02-5.01-3.46Z"/>
        <g>
          <polygon class="cls-27" points="1498.95 462.06 1494.55 436.8 1494.55 407.52 1490.41 382.53 1490.41 414.88 1487.6 443.77 1489.47 452.42 1489.63 459.8 1488.99 462.06 1498.95 462.06"/>
          <path class="cls-26" d="M1448.29,418.18l3.18,10.88,6.28,2.58,10.39,1.62h6.68s6.65,3.05,6.65,3.05h7.94s4.62.48,4.62.48l6.82-2.34,6.66.7,10.46-.53,6.42-1.91,3.85-10.52-5.21,2.92-7.42,4.26s-4.75-1.48-8.43-2.31c-3.68-.83-1.15-4.47-1.15-4.47l1.66-2.34,4.97.7,7.59-2.64,3.74-8.5s-3.82,2.1-7.67,4.69c-3.85,2.58-6.19-3.05-6.19-3.05l-4.25-4.53s-1.28-5.58,1.3-4.9c2.57.69,1.89.64,5.22,1.21,3.33.57,3.71.17,3.71.17l5.73-4.35.27-4.32-7.09,3.6s-4.89-2.68-10.44-7.48c-4.06-3.51-1.97-3.98-.55-3.98.52,0,.95.06.95.06l6.68.7,4.36-5.14s-7.05-.85-10.15-1.07c-3.09-.21-7.84-4.87-7.84-4.87l-3.75-4.47,1.37-1.78,10.68,2.91c-.16-.09-.86-.48-3.92-2.2-3.98-2.23-7.23-4.93-11.52-10.99-.06-.08-1.4-1.99-1.84-2.61-.46.61-1.04,1.36-1.74,2.24-.65.81-1.4,1.74-2.29,2.81-4.65,5.6-3.66,5.6-7.76,7.41l-4.1,1.81,10.88-1.81-2.77,5.98s-5.02,4.15-8.12,4.04c-3.09-.11-10.18,0-10.18,0l4.02,5.58h6.7s2.58,1.39,2.58,1.39c0,0,4.3,1.05-1.52,5.26-5.83,4.2-11.78,3.66-11.78,3.66l-6.85-4.33v4.33s5.44,4.94,5.44,4.94c0,0,3.71.22,7.06,0,3.35-.22,3.92-1.67,6.25-.1,1.79,1.2-3.34,4.67-3.34,4.67l-4.52,4.07s-2.69,5.36-6.36,2.39c-3.67-2.98-7.35-5.47-7.35-5.47l3.19,8.86,7.41,3.42,9.76-2.99,1.82,4.57s-.74,2.79-4.45,3.23c-3.72.44-10.6,3.28-10.6,3.28l-7.13-5.02-5.01-3.46Z"/>
        </g>
        <g>
          <polygon class="cls-27" points="1250.66 928.33 1246.26 903.07 1246.26 873.79 1242.12 848.8 1242.12 881.15 1239.31 910.04 1241.18 918.68 1241.34 926.07 1240.7 928.33 1250.66 928.33"/>
          <path class="cls-26" d="M1200,884.45l3.18,10.88,6.28,2.58,10.39,1.62h6.68s6.65,3.05,6.65,3.05h7.94s4.62.48,4.62.48l6.82-2.34,6.66.7,10.46-.53,6.42-1.91,3.85-10.52-5.21,2.92-7.42,4.26s-4.75-1.48-8.43-2.31c-3.68-.83-1.15-4.47-1.15-4.47l1.66-2.34,4.97.7,7.59-2.64,3.74-8.5s-3.82,2.1-7.67,4.69c-3.85,2.58-6.19-3.05-6.19-3.05l-4.25-4.53s-1.28-5.58,1.3-4.9c2.57.69,1.89.64,5.22,1.21,3.33.57,3.71.17,3.71.17l5.73-4.35.27-4.32-7.09,3.6s-4.89-2.68-10.44-7.48c-4.06-3.51-1.97-3.98-.55-3.98.52,0,.95.06.95.06l6.68.7,4.36-5.14s-7.05-.85-10.15-1.07c-3.09-.21-7.84-4.87-7.84-4.87l-3.75-4.47,1.37-1.78,10.68,2.91c-.16-.09-.86-.48-3.92-2.2-3.98-2.23-7.23-4.93-11.52-10.99-.06-.08-1.4-1.99-1.84-2.61-.46.61-1.04,1.36-1.74,2.24-.65.81-1.4,1.74-2.29,2.81-4.65,5.6-3.66,5.6-7.76,7.41l-4.1,1.81,10.88-1.81-2.77,5.98s-5.02,4.15-8.12,4.04c-3.09-.11-10.18,0-10.18,0l4.02,5.58h6.7s2.58,1.39,2.58,1.39c0,0,4.3,1.05-1.52,5.26-5.83,4.2-11.78,3.66-11.78,3.66l-6.85-4.33v4.33s5.44,4.94,5.44,4.94c0,0,3.71.22,7.06,0,3.35-.22,3.92-1.67,6.25-.1,1.79,1.2-3.34,4.67-3.34,4.67l-4.52,4.07s-2.69,5.36-6.36,2.39c-3.67-2.98-7.35-5.47-7.35-5.47l3.19,8.86,7.41,3.42,9.76-2.99,1.82,4.57s-.74,2.79-4.45,3.23c-3.72.44-10.6,3.28-10.6,3.28l-7.13-5.02-5.01-3.46Z"/>
        </g>
        <g>
          <polygon class="cls-27" points="1351.16 578.75 1346.76 553.49 1346.76 524.2 1342.62 499.21 1342.62 531.56 1339.81 560.46 1341.68 569.1 1341.84 576.49 1341.2 578.75 1351.16 578.75"/>
          <path class="cls-26" d="M1300.5,534.87l3.18,10.88,6.28,2.58,10.39,1.62h6.68s6.65,3.05,6.65,3.05h7.94s4.62.48,4.62.48l6.82-2.34,6.66.7,10.46-.53,6.42-1.91,3.85-10.52-5.21,2.92-7.42,4.26s-4.75-1.48-8.43-2.31c-3.68-.83-1.15-4.47-1.15-4.47l1.66-2.34,4.97.7,7.59-2.64,3.74-8.5s-3.82,2.1-7.67,4.69c-3.85,2.58-6.19-3.05-6.19-3.05l-4.25-4.53s-1.28-5.58,1.3-4.9c2.57.69,1.89.64,5.22,1.21,3.33.57,3.71.17,3.71.17l5.73-4.35.27-4.32-7.09,3.6s-4.89-2.68-10.44-7.48c-4.06-3.51-1.97-3.98-.55-3.98.52,0,.95.06.95.06l6.68.7,4.36-5.14s-7.05-.85-10.15-1.07c-3.09-.21-7.84-4.87-7.84-4.87l-3.75-4.47,1.37-1.78,10.68,2.91c-.16-.09-.86-.48-3.92-2.2-3.98-2.23-7.23-4.93-11.52-10.99-.06-.08-1.4-1.99-1.84-2.61-.46.61-1.04,1.36-1.74,2.24-.65.81-1.4,1.74-2.29,2.81-4.65,5.6-3.66,5.6-7.76,7.41l-4.1,1.81,10.88-1.81-2.77,5.98s-5.02,4.15-8.12,4.04c-3.09-.11-10.18,0-10.18,0l4.02,5.58h6.7s2.58,1.39,2.58,1.39c0,0,4.3,1.05-1.52,5.26-5.83,4.2-11.78,3.66-11.78,3.66l-6.85-4.33v4.33s5.44,4.94,5.44,4.94c0,0,3.71.22,7.06,0,3.35-.22,3.92-1.67,6.25-.1,1.79,1.2-3.34,4.67-3.34,4.67l-4.52,4.07s-2.69,5.36-6.36,2.39c-3.67-2.98-7.35-5.47-7.35-5.47l3.19,8.86,7.41,3.42,9.76-2.99,1.82,4.57s-.74,2.79-4.45,3.23c-3.72.44-10.6,3.28-10.6,3.28l-7.13-5.02-5.01-3.46Z"/>
        </g>
        <g>
          <polygon class="cls-27" points="784.83 360.9 780.43 335.65 780.43 306.36 776.3 281.37 776.3 313.72 773.48 342.62 775.36 351.26 775.51 358.64 774.88 360.9 784.83 360.9"/>
          <path class="cls-26" d="M734.17,317.03l3.18,10.88,6.28,2.58,10.39,1.62h6.68s6.65,3.05,6.65,3.05h7.94s4.62.48,4.62.48l6.82-2.34,6.66.7,10.46-.53,6.42-1.91,3.85-10.52-5.21,2.92-7.42,4.26s-4.75-1.48-8.43-2.31c-3.68-.83-1.15-4.47-1.15-4.47l1.66-2.34,4.97.7,7.59-2.64,3.74-8.5s-3.82,2.1-7.67,4.69c-3.85,2.58-6.19-3.05-6.19-3.05l-4.25-4.53s-1.28-5.58,1.3-4.9c2.57.69,1.89.64,5.22,1.21,3.33.57,3.71.17,3.71.17l5.73-4.35.27-4.32-7.09,3.6s-4.89-2.68-10.44-7.48c-4.06-3.51-1.97-3.98-.55-3.98.52,0,.95.06.95.06l6.68.7,4.36-5.14s-7.05-.85-10.15-1.07c-3.09-.21-7.84-4.87-7.84-4.87l-3.75-4.47,1.37-1.78,10.68,2.91c-.16-.09-.86-.48-3.92-2.2-3.98-2.23-7.23-4.93-11.52-10.99-.06-.08-1.4-1.99-1.84-2.61-.46.61-1.04,1.36-1.74,2.24-.65.81-1.4,1.74-2.29,2.81-4.65,5.6-3.66,5.6-7.76,7.41l-4.1,1.81,10.88-1.81-2.77,5.98s-5.02,4.15-8.12,4.04c-3.09-.11-10.18,0-10.18,0l4.02,5.58h6.7s2.58,1.39,2.58,1.39c0,0,4.3,1.05-1.52,5.26-5.83,4.2-11.78,3.66-11.78,3.66l-6.85-4.33v4.33s5.44,4.94,5.44,4.94c0,0,3.71.22,7.06,0,3.35-.22,3.92-1.67,6.25-.1,1.79,1.2-3.34,4.67-3.34,4.67l-4.52,4.07s-2.69,5.36-6.36,2.39c-3.67-2.98-7.35-5.47-7.35-5.47l3.19,8.86,7.41,3.42,9.76-2.99,1.82,4.57s-.74,2.79-4.45,3.23c-3.72.44-10.6,3.28-10.6,3.28l-7.13-5.02-5.01-3.46Z"/>
        </g>
        <g>
          <polygon class="cls-27" points="721.05 684.83 716.65 659.57 716.65 630.29 712.52 605.3 712.52 637.65 709.7 666.54 711.58 675.18 711.74 682.57 711.1 684.83 721.05 684.83"/>
          <path class="cls-26" d="M670.39,640.95l3.18,10.88,6.28,2.58,10.39,1.62h6.68s6.65,3.05,6.65,3.05h7.94s4.62.48,4.62.48l6.82-2.34,6.66.7,10.46-.53,6.42-1.91,3.85-10.52-5.21,2.92-7.42,4.26s-4.75-1.48-8.43-2.31c-3.68-.83-1.15-4.47-1.15-4.47l1.66-2.34,4.97.7,7.59-2.64,3.74-8.5s-3.82,2.1-7.67,4.69c-3.85,2.58-6.19-3.05-6.19-3.05l-4.25-4.53s-1.28-5.58,1.3-4.9c2.57.69,1.89.64,5.22,1.21,3.33.57,3.71.17,3.71.17l5.73-4.35.27-4.32-7.09,3.6s-4.89-2.68-10.44-7.48c-4.06-3.51-1.97-3.98-.55-3.98.52,0,.95.06.95.06l6.68.7,4.36-5.14s-7.05-.85-10.15-1.07c-3.09-.21-7.84-4.87-7.84-4.87l-3.75-4.47,1.37-1.78,10.68,2.91c-.16-.09-.86-.48-3.92-2.2-3.98-2.23-7.23-4.93-11.52-10.99-.06-.08-1.4-1.99-1.84-2.61-.46.61-1.04,1.36-1.74,2.24-.65.81-1.4,1.74-2.29,2.81-4.65,5.6-3.66,5.6-7.76,7.41l-4.1,1.81,10.88-1.81-2.77,5.98s-5.02,4.15-8.12,4.04c-3.09-.11-10.18,0-10.18,0l4.02,5.58h6.7s2.58,1.39,2.58,1.39c0,0,4.3,1.05-1.52,5.26-5.83,4.2-11.78,3.66-11.78,3.66l-6.85-4.33v4.33s5.44,4.94,5.44,4.94c0,0,3.71.22,7.06,0,3.35-.22,3.92-1.67,6.25-.1,1.79,1.2-3.34,4.67-3.34,4.67l-4.52,4.07s-2.69,5.36-6.36,2.39c-3.67-2.98-7.35-5.47-7.35-5.47l3.19,8.86,7.41,3.42,9.76-2.99,1.82,4.57s-.74,2.79-4.45,3.23c-3.72.44-10.6,3.28-10.6,3.28l-7.13-5.02-5.01-3.46Z"/>
        </g>
        <g>
          <polygon class="cls-27" points="1107.42 934.98 1103.02 909.72 1103.02 880.44 1098.89 855.45 1098.89 887.8 1096.07 916.69 1097.95 925.33 1098.11 932.72 1097.47 934.98 1107.42 934.98"/>
          <path class="cls-26" d="M1056.76,891.1l3.18,10.88,6.28,2.58,10.39,1.62h6.68s6.65,3.05,6.65,3.05h7.94s4.62.48,4.62.48l6.82-2.34,6.66.7,10.46-.53,6.42-1.91,3.85-10.52-5.21,2.92-7.42,4.26s-4.75-1.48-8.43-2.31c-3.68-.83-1.15-4.47-1.15-4.47l1.66-2.34,4.97.7,7.59-2.64,3.74-8.5s-3.82,2.1-7.67,4.69c-3.85,2.58-6.19-3.05-6.19-3.05l-4.25-4.53s-1.28-5.58,1.3-4.9c2.57.69,1.89.64,5.22,1.21,3.33.57,3.71.17,3.71.17l5.73-4.35.27-4.32-7.09,3.6s-4.89-2.68-10.44-7.48c-4.06-3.51-1.97-3.98-.55-3.98.52,0,.95.06.95.06l6.68.7,4.36-5.14s-7.05-.85-10.15-1.07c-3.09-.21-7.84-4.87-7.84-4.87l-3.75-4.47,1.37-1.78,10.68,2.91c-.16-.09-.86-.48-3.92-2.2-3.98-2.23-7.23-4.93-11.52-10.99-.06-.08-1.4-1.99-1.84-2.61-.46.61-1.04,1.36-1.74,2.24-.65.81-1.4,1.74-2.29,2.81-4.65,5.6-3.66,5.6-7.76,7.41l-4.1,1.81,10.88-1.81-2.77,5.98s-5.02,4.15-8.12,4.04c-3.09-.11-10.18,0-10.18,0l4.02,5.58h6.7s2.58,1.39,2.58,1.39c0,0,4.3,1.05-1.52,5.26-5.83,4.2-11.78,3.66-11.78,3.66l-6.85-4.33v4.33s5.44,4.94,5.44,4.94c0,0,3.71.22,7.06,0,3.35-.22,3.92-1.67,6.25-.1,1.79,1.2-3.34,4.67-3.34,4.67l-4.52,4.07s-2.69,5.36-6.36,2.39c-3.67-2.98-7.35-5.47-7.35-5.47l3.19,8.86,7.41,3.42,9.76-2.99,1.82,4.57s-.74,2.79-4.45,3.23c-3.72.44-10.6,3.28-10.6,3.28l-7.13-5.02-5.01-3.46Z"/>
        </g>
        <g>
          <polygon class="cls-27" points="465.14 626.09 459.02 590.97 459.02 550.24 453.27 515.49 453.27 560.47 449.35 600.66 451.96 612.68 452.18 622.95 451.29 626.09 465.14 626.09"/>
          <path class="cls-26" d="M394.68,565.07l4.42,15.14,8.74,3.59,14.45,2.25h9.3s9.25,4.24,9.25,4.24h11.04s6.42.67,6.42.67l9.49-3.25,9.26.97,14.54-.74,8.94-2.66,5.35-14.63-7.24,4.06-10.32,5.92s-6.61-2.05-11.72-3.21c-5.11-1.15-1.6-6.22-1.6-6.22l2.31-3.26,6.91.97,10.56-3.67,5.2-11.82s-5.32,2.93-10.67,6.52c-5.35,3.59-8.61-4.24-8.61-4.24l-5.91-6.31s-1.77-7.76,1.8-6.81c3.58.96,2.62.89,7.25,1.69,4.63.8,5.16.23,5.16.23l7.97-6.05.38-6-9.87,5.01s-6.8-3.73-14.51-10.4c-5.64-4.89-2.73-5.54-.77-5.54.73,0,1.32.09,1.32.09l9.28.97,6.06-7.14s-9.81-1.18-14.11-1.48c-4.3-.29-10.9-6.77-10.9-6.77l-5.22-6.21,1.9-2.48,14.86,4.05c-.23-.13-1.2-.67-5.46-3.06-5.53-3.11-10.05-6.85-16.02-15.29-.08-.11-1.95-2.76-2.56-3.63-.64.85-1.44,1.89-2.42,3.11-.9,1.13-1.95,2.42-3.18,3.9-6.47,7.78-5.09,7.79-10.8,10.3l-5.7,2.52,15.14-2.52-3.85,8.31s-6.98,5.77-11.29,5.62c-4.3-.15-14.15,0-14.15,0l5.6,7.76h9.31s3.59,1.94,3.59,1.94c0,0,5.98,1.46-2.12,7.31-8.1,5.85-16.38,5.09-16.38,5.09l-9.52-6.02v6.02s7.57,6.87,7.57,6.87c0,0,5.16.31,9.82,0,4.66-.31,5.45-2.32,8.69-.14,2.48,1.67-4.64,6.5-4.64,6.5l-6.28,5.67s-3.74,7.46-8.85,3.32c-5.11-4.14-10.23-7.61-10.23-7.61l4.44,12.32,10.3,4.76,13.58-4.16,2.53,6.36s-1.03,3.87-6.2,4.49c-5.17.62-14.74,4.56-14.74,4.56l-9.92-6.98-6.97-4.81Z"/>
        </g>
        <g>
          <polygon class="cls-27" points="1587.99 826.1 1583.59 800.84 1583.59 771.56 1579.46 746.57 1579.46 778.92 1576.64 807.81 1578.52 816.45 1578.67 823.84 1578.04 826.1 1587.99 826.1"/>
          <path class="cls-26" d="M1537.33,782.22l3.18,10.88,6.28,2.58,10.39,1.62h6.68s6.65,3.05,6.65,3.05h7.94s4.62.48,4.62.48l6.82-2.34,6.66.7,10.46-.53,6.42-1.91,3.85-10.52-5.21,2.92-7.42,4.26s-4.75-1.48-8.43-2.31c-3.68-.83-1.15-4.47-1.15-4.47l1.66-2.34,4.97.7,7.59-2.64,3.74-8.5s-3.82,2.1-7.67,4.69c-3.85,2.58-6.19-3.05-6.19-3.05l-4.25-4.53s-1.28-5.58,1.3-4.9c2.57.69,1.89.64,5.22,1.21,3.33.57,3.71.17,3.71.17l5.73-4.35.27-4.32-7.09,3.6s-4.89-2.68-10.44-7.48c-4.06-3.51-1.97-3.98-.55-3.98.52,0,.95.06.95.06l6.68.7,4.36-5.14s-7.05-.85-10.15-1.07c-3.09-.21-7.84-4.87-7.84-4.87l-3.75-4.47,1.37-1.78,10.68,2.91c-.16-.09-.86-.48-3.92-2.2-3.98-2.23-7.23-4.93-11.52-10.99-.06-.08-1.4-1.99-1.84-2.61-.46.61-1.04,1.36-1.74,2.24-.65.81-1.4,1.74-2.29,2.81-4.65,5.6-3.66,5.6-7.76,7.41l-4.1,1.81,10.88-1.81-2.77,5.98s-5.02,4.15-8.12,4.04c-3.09-.11-10.18,0-10.18,0l4.02,5.58h6.7s2.58,1.39,2.58,1.39c0,0,4.3,1.05-1.52,5.26-5.83,4.2-11.78,3.66-11.78,3.66l-6.85-4.33v4.33s5.44,4.94,5.44,4.94c0,0,3.71.22,7.06,0,3.35-.22,3.92-1.67,6.25-.1,1.79,1.2-3.34,4.67-3.34,4.67l-4.52,4.07s-2.69,5.36-6.36,2.39c-3.67-2.98-7.35-5.47-7.35-5.47l3.19,8.86,7.41,3.42,9.76-2.99,1.82,4.57s-.74,2.79-4.45,3.23c-3.72.44-10.6,3.28-10.6,3.28l-7.13-5.02-5.01-3.46Z"/>
        </g>
        <path d="M130.59,558.03s0,.02-.03.04v-.08s.26-.25.03.04Z"/>
        <path d="M130.59,558.03s0,.02-.03.04v-.08s.01,0,.03.04Z"/>
      </g>
    </g>
  </g>
  <g id="Names">
    <g id="Layer_27" data-name="Layer 27">
      <text class="cls-20" transform="translate(1076.13 372.49) rotate(-.9)"><tspan x="0" y="0">R</tspan></text>
      <text class="cls-20" transform="translate(1089.26 372.28) rotate(-.9)"><tspan x="0" y="0">u</tspan></text>
      <text class="cls-20" transform="translate(1100.82 372.33) rotate(-3.21)"><tspan x="0" y="0">e</tspan></text>
      <text class="cls-20" transform="translate(1112.46 371.47) rotate(-5.7)"><tspan x="0" y="0"> </tspan></text>
      <text class="cls-20" transform="translate(1119.48 370.77) rotate(-5.7)"><tspan x="0" y="0">d</tspan></text>
      <text class="cls-20" transform="translate(1130.66 369.65) rotate(-5.7)"><tspan x="0" y="0">e</tspan></text>
      <text class="cls-20" transform="translate(1142.62 368.26) rotate(-10.35)"><tspan x="0" y="0"> </tspan></text>
      <text class="cls-20" transform="translate(1149.71 366.9) rotate(-11.3)"><tspan x="0" y="0">l</tspan></text>
      <text class="cls-20" transform="translate(1153.86 366.07) rotate(-11.3)"><tspan x="0" y="0"></tspan></text>
      <text class="cls-20" transform="translate(1161.48 365.72) rotate(-27.6)"><tspan x="0" y="0"></tspan></text>
      <text class="cls-20" transform="translate(1171.69 359.12) rotate(-39.69)"><tspan x="0" y="0">g</tspan></text>
      <text class="cls-20" transform="translate(1180.07 352.16) rotate(-39.69)"><tspan x="0" y="0">l</tspan></text>
      <text class="cls-20" transform="translate(1183.34 349.44) rotate(-39.69)"><tspan x="0" y="0">i</tspan></text>
      <text class="cls-20" transform="translate(1186.79 346.59) rotate(-39.69)"><tspan x="0" y="0">s</tspan></text>
      <text class="cls-20" transform="translate(1194.17 340.45) rotate(-39.69)"><tspan x="0" y="0">e</tspan></text>
      <text class="cls-21" transform="translate(920.72 425.59) rotate(12.47)"><tspan x="0" y="0">R</tspan></text>
      <text class="cls-21" transform="translate(933.45 428.4) rotate(12.47)"><tspan x="0" y="0">u</tspan></text>
      <text class="cls-21" transform="translate(944.25 430.79) rotate(12.47)"><tspan x="0" y="0">e</tspan></text>
      <text class="cls-21" transform="translate(955.03 433.09) rotate(14.09)"><tspan x="0" y="0"> </tspan></text>
      <text class="cls-21" transform="translate(961.67 434.86) rotate(15.89)"><tspan x="0" y="0">d</tspan></text>
      <text class="cls-21" transform="translate(972.38 437.91) rotate(15.89)"><tspan x="0" y="0">e</tspan></text>
      <text class="cls-21" transform="translate(983.07 440.96) rotate(15.89)"><tspan x="0" y="0"> </tspan></text>
      <text class="cls-21" transform="translate(989.84 442.89) rotate(15.9)"><tspan x="0" y="0">l</tspan></text>
      <text class="cls-21" transform="translate(993.86 443.99) rotate(16.38)"><tspan x="0" y="0">a</tspan></text>
      <text class="cls-21" transform="translate(1003.5 446.88) rotate(16.89)"><tspan x="0" y="0"> </tspan></text>
      <text class="cls-21" transform="translate(1010.89 449.48) rotate(12.76)"><tspan x="0" y="0">P</tspan></text>
      <text class="cls-21" transform="translate(1022.96 451.76) rotate(7.99)"><tspan x="0" y="0">o</tspan></text>
      <text class="cls-21" transform="translate(1033.12 453.19) rotate(7.99)"><tspan x="0" y="0">s</tspan></text>
      <text class="cls-21" transform="translate(1042.55 454.51) rotate(7.98)"><tspan x="0" y="0">t</tspan></text>
      <text class="cls-21" transform="translate(1051.59 455.78) rotate(7.95)"><tspan x="0" y="0">a</tspan></text>
      <text class="cls-22" transform="translate(1107.6 448.5) rotate(-4.8)"><tspan x="0" y="0">R</tspan></text>
      <text class="cls-22" transform="translate(1120.52 447.42) rotate(-4.8)"><tspan x="0" y="0">u</tspan></text>
      <text class="cls-22" transform="translate(1131.46 446.5) rotate(-4.8)"><tspan x="0" y="0">e</tspan></text>
      <text class="cls-22" transform="translate(1142.5 445.58) rotate(-4.8)"><tspan x="0" y="0"> </tspan></text>
      <text class="cls-22" transform="translate(1148.62 444.63) rotate(7.12)"><tspan x="0" y="0">P</tspan></text>
      <text class="cls-22" transform="translate(1160.91 446.29) rotate(12.9)"><tspan x="0" y="0">r</tspan></text>
      <text class="cls-22" transform="translate(1169.63 448.35) rotate(14.67)"><tspan x="0" y="0">i</tspan></text>
      <text class="cls-22" transform="translate(1173.94 449.52) rotate(14.3)"><tspan x="0" y="0">n</tspan></text>
      <text class="cls-22" transform="translate(1184.64 452.27) rotate(10.39)"><tspan x="0" y="0">c</tspan></text>
      <text class="cls-22" transform="translate(1194.12 453.73) rotate(14.3)"><tspan x="0" y="0">i</tspan></text>
      <text class="cls-22" transform="translate(1198.03 454.64) rotate(19.74)"><tspan x="0" y="0">p</tspan></text>
      <text class="cls-22" transform="translate(1208.41 458.34) rotate(20.57)"><tspan x="0" y="0">a</tspan></text>
      <text class="cls-22" transform="translate(1217.76 461.89) rotate(20.96)"><tspan x="0" y="0">l</tspan></text>
      <text class="cls-22" transform="translate(1221.7 463.45) rotate(20.2)"><tspan x="0" y="0">e</tspan></text>
      <text class="cls-23" transform="translate(923.32 560.54) rotate(-20.37)"><tspan x="0" y="0">R</tspan></text>
      <text class="cls-23" transform="translate(935.05 556.19) rotate(-20.37)"><tspan x="0" y="0">u</tspan></text>
      <text class="cls-23" transform="translate(945 552.5) rotate(-20.37)"><tspan x="0" y="0">e</tspan></text>
      <text class="cls-23" transform="translate(955.01 548.78) rotate(-20.37)"><tspan x="0" y="0"> </tspan></text>
      <text class="cls-23" transform="translate(962.98 546.3) rotate(-28.7)"><tspan x="0" y="0">P</tspan></text>
      <text class="cls-23" transform="translate(973.8 540.35) rotate(-28.89)"><tspan x="0" y="0">r</tspan></text>
      <text class="cls-23" transform="translate(981.33 536.15) rotate(-26.89)"><tspan x="0" y="0">i</tspan></text>
      <text class="cls-23" transform="translate(984.89 534.28) rotate(-23.34)"><tspan x="0" y="0">n</tspan></text>
      <text class="cls-23" transform="translate(994.14 530.48) rotate(-23.3)"><tspan x="0" y="0">c</tspan></text>
      <text class="cls-23" transform="translate(1002.91 526.62) rotate(-24.17)"><tspan x="0" y="0">i</tspan></text>
      <text class="cls-23" transform="translate(1006.81 524.87) rotate(-24.17)"><tspan x="0" y="0">p</tspan></text>
      <text class="cls-23" transform="translate(1016.74 520.49) rotate(-24.98)"><tspan x="0" y="0">a</tspan></text>
      <text class="cls-23" transform="translate(1025.83 516.21) rotate(-26.9)"><tspan x="0" y="0">l</tspan></text>
      <text class="cls-23" transform="translate(1029.28 514.41) rotate(-24.93)"><tspan x="0" y="0">e</tspan></text>
      <text class="cls-24" transform="translate(577.8 835.73) rotate(5.85)"><tspan x="0" y="0">D</tspan></text>
      <text class="cls-24" transform="translate(592.17 837.2) rotate(5.85)"><tspan x="0" y="0"> </tspan></text>
      <text class="cls-24" transform="translate(599.69 837.97) rotate(5.85)"><tspan x="0" y="0">-</tspan></text>
      <text class="cls-24" transform="translate(611.03 839.13) rotate(5.85)"><tspan x="0" y="0"> </tspan></text>
      <text class="cls-24" transform="translate(618.54 839.91) rotate(5.76)"><tspan x="0" y="0">8</tspan></text>
      <text class="cls-24" transform="translate(631.73 841.18) rotate(6.28)"><tspan x="0" y="0">F</tspan></text>
      <text class="cls-24" transform="translate(647.47 354.23) rotate(53.48)"><tspan x="0" y="0">D</tspan></text>
      <text class="cls-24" transform="translate(656.05 365.82) rotate(53.48)"><tspan x="0" y="0"> </tspan></text>
      <text class="cls-24" transform="translate(660.55 371.89) rotate(53.48)"><tspan x="0" y="0">-</tspan></text>
      <text class="cls-24" transform="translate(667.34 381.06) rotate(53.48)"><tspan x="0" y="0"> </tspan></text>
      <text class="cls-24" transform="translate(671.83 387.13) rotate(53.48)"><tspan x="0" y="0">3</tspan></text>
      <text class="cls-24" transform="translate(678.31 395.87) rotate(53.48)"><tspan x="0" y="0">2</tspan></text>
      <text class="cls-14" transform="translate(926.48 705.12) rotate(40.45) scale(.89 1)"><tspan x="0" y="0">L</tspan></text>
      <text class="cls-14" transform="translate(939.75 716.44) rotate(40.45) scale(.89 1)"><tspan x="0" y="0">e</tspan></text>
      <text class="cls-14" transform="translate(952.13 726.99) rotate(40.45) scale(.89 1)"><tspan x="0" y="0"> </tspan></text>
      <text class="cls-14" transform="translate(959.94 733.65) rotate(40.45) scale(.89 1)"><tspan x="0" y="0">G</tspan></text>
      <text class="cls-14" transform="translate(977.66 748.33) rotate(33.8) scale(.89 1)"><tspan x="0" y="0">a</tspan></text>
      <text class="cls-14" transform="translate(991.11 757.29) rotate(29.28) scale(.89 1)"><tspan x="0" y="0">r</tspan></text>
      <text class="cls-14" transform="translate(1004.43 764.97) rotate(22.97) scale(.89 1)"><tspan x="0" y="0">b</tspan></text>
      <text class="cls-14" transform="translate(1023.46 773.31) rotate(8.74) scale(.89 1)"><tspan x="0" y="0">e</tspan></text>
      <text class="cls-14" transform="translate(1040.79 775.47) rotate(5.09) scale(.89 1)"><tspan x="0" y="0">t</tspan></text>
      <g>
        <path class="cls-30" d="M1363.09,231.11l10.35,2.76c2.54.68,3.48,5.42,2.1,10.6l-28.57,107.26c-1.38,5.18-4.56,8.82-7.1,8.15l-10.35-2.76c-2.54-.68-3.48-5.42-2.1-10.6l28.57-107.26c1.38-5.18,4.56-8.82,7.1-8.15Z"/>
        <path class="cls-2" d="M1500.94,284.37c.77-3.68-1.68-7.3-5.47-8.09l-84.9-17.65-126.78-26.35c-1.15-.24-2.34-.19-3.46.13l-33.99,9.9c-4.52,1.32-6.37,6.55-3.67,10.36l18.04,25.48c1.03,1.45,2.59,2.47,4.36,2.84l125.61,26.11,81.58,16.96,12.97,2.37c3.74.68,7.32-1.66,8.07-5.27l7.65-36.79Z"/>
        <text class="cls-16" transform="translate(1266.39 266.32) rotate(12.35)"><tspan x="0" y="0"></tspan></text>
        <text class="cls-16" transform="translate(1278.67 269.01) rotate(12.35)"><tspan x="0" y="0">g</tspan></text>
        <text class="cls-16" transform="translate(1292.33 272) rotate(12.35)"><tspan x="0" y="0">l</tspan></text>
        <text class="cls-16" transform="translate(1297.67 273.17) rotate(12.35)"><tspan x="0" y="0">i</tspan></text>
        <text class="cls-16" transform="translate(1303.3 274.4) rotate(12.35)"><tspan x="0" y="0">s</tspan></text>
        <text class="cls-16" transform="translate(1315.33 277.04) rotate(12.35)"><tspan x="0" y="0">e</tspan></text>
        <text class="cls-16" transform="translate(1329.37 280.11) rotate(12.35)"><tspan x="0" y="0"> </tspan></text>
        <text class="cls-16" transform="translate(1338.27 282.06) rotate(12.35)"><tspan x="0" y="0">S</tspan></text>
        <text class="cls-16" transform="translate(1352.43 285.16) rotate(12.35)"><tspan x="0" y="0">a</tspan></text>
        <text class="cls-16" transform="translate(1365.18 287.95) rotate(12.35)"><tspan x="0" y="0">i</tspan></text>
        <text class="cls-16" transform="translate(1370.81 289.18) rotate(12.25)"><tspan x="0" y="0">n</tspan></text>
        <text class="cls-16" transform="translate(1383.92 292.03) rotate(12.25)"><tspan x="0" y="0">t</tspan></text>
        <text class="cls-16" transform="translate(1392.88 293.97) rotate(12.25)"><tspan x="0" y="0">-</tspan></text>
        <text class="cls-16" transform="translate(1405.22 296.65) rotate(12.25)"><tspan x="0" y="0">V</tspan></text>
        <text class="cls-16" transform="translate(1418.54 299.54) rotate(12.25)"><tspan x="0" y="0">i</tspan></text>
        <text class="cls-16" transform="translate(1424.14 300.76) rotate(12.25)"><tspan x="0" y="0">n</tspan></text>
        <text class="cls-16" transform="translate(1437.28 303.61) rotate(12.25)"><tspan x="0" y="0">c</tspan></text>
        <text class="cls-16" transform="translate(1448.59 306.07) rotate(12.25)"><tspan x="0" y="0">e</tspan></text>
        <text class="cls-16" transform="translate(1462.65 309.12) rotate(12.25)"><tspan x="0" y="0">n</tspan></text>
        <text class="cls-16" transform="translate(1475.79 311.97) rotate(12.25)"><tspan x="0" y="0">t</tspan></text>
      </g>
      <g>
        <path class="cls-30" d="M1364.51,578.71l11.58,2.54c2.84.62,4.23,5.29,3.11,10.43l-23.34,106.45c-1.13,5.14-4.34,8.8-7.19,8.17l-11.58-2.54c-2.84-.62-4.23-5.29-3.11-10.43l23.34-106.45c1.13-5.14,4.34-8.8,7.19-8.17Z"/>
        <path class="cls-2" d="M1494.16,621.08c.66-3.46-1.7-6.81-5.28-7.49l-80.11-15.24-119.63-22.75c-1.08-.21-2.2-.15-3.25.18l-31.79,9.79c-4.22,1.3-5.88,6.23-3.28,9.76l17.38,23.59c.99,1.35,2.48,2.27,4.14,2.59l118.53,22.54,76.98,14.64,12.23,2.03c3.52.58,6.85-1.66,7.5-5.06l6.58-34.58Z"/>
        <text class="cls-19" transform="translate(1277.25 607.48) rotate(10.96)"><tspan x="0" y="0">C</tspan></text>
        <text class="cls-19" transform="translate(1295.88 611.08) rotate(10.96)"><tspan x="0" y="0">a</tspan></text>
        <text class="cls-19" transform="translate(1310.08 613.83) rotate(10.96)"><tspan x="0" y="0">m</tspan></text>
        <text class="cls-19" transform="translate(1330.33 617.89) rotate(10)"><tspan x="0" y="0">p</tspan></text>
        <text class="cls-19" transform="translate(1346.23 620.61) rotate(9.37)"><tspan x="0" y="0"> </tspan></text>
        <text class="cls-19" transform="translate(1356.16 622.25) rotate(9.37)"><tspan x="0" y="0">R</tspan></text>
        <text class="cls-19" transform="translate(1372.92 625.01) rotate(9.37)"><tspan x="0" y="0">e</tspan></text>
        <text class="cls-19" transform="translate(1388.63 627.6) rotate(9.37)"><tspan x="0" y="0">s</tspan></text>
        <text class="cls-19" transform="translate(1402.09 629.82) rotate(9.37)"><tspan x="0" y="0">i</tspan></text>
        <text class="cls-19" transform="translate(1408.35 630.86) rotate(9.37)"><tspan x="0" y="0">d</tspan></text>
        <text class="cls-19" transform="translate(1424.11 633.46) rotate(9.37)"><tspan x="0" y="0">e</tspan></text>
        <text class="cls-19" transform="translate(1439.83 636.05) rotate(9.37)"><tspan x="0" y="0">n</tspan></text>
        <text class="cls-19" transform="translate(1454.49 638.47) rotate(9.37)"><tspan x="0" y="0">c</tspan></text>
        <text class="cls-19" transform="translate(1467.13 640.56) rotate(9.37)"><tspan x="0" y="0">e</tspan></text>
      </g>
      <g>
        <path class="cls-29" d="M848.92,779.35l10.34,2.53c2.54.62,3.38,6.11,1.87,12.26l-31.15,127.39c-1.5,6.15-4.78,10.63-7.32,10.01l-10.34-2.53c-2.54-.62-3.38-6.11-1.87-12.26l31.15-127.39c1.5-6.15,4.78-10.63,7.32-10.01Z"/>
        <path class="cls-2" d="M1045.07,862.15c.72-2.94-2.71-6.31-7.65-7.52l-110.93-27.13-165.64-40.51c-1.5-.37-3.03-.5-4.45-.4l-43.18,3.23c-5.74.43-7.75,4.5-3.99,8.06l25.15,23.8c1.43,1.36,3.52,2.43,5.83,3l164.12,40.14,106.59,26.07,16.92,3.88c4.88,1.12,9.33-.3,10.04-3.19l7.19-29.42Z"/>
        <text class="cls-17" transform="translate(735.33 816.68) rotate(12.79)"><tspan x="0" y="0">S</tspan></text>
        <text class="cls-17" transform="translate(749.41 819.87) rotate(12.79)"><tspan x="0" y="0">o</tspan></text>
        <text class="cls-17" transform="translate(763.47 823.06) rotate(12.79)"><tspan x="0" y="0">u</tspan></text>
        <text class="cls-17" transform="translate(777.33 826.21) rotate(12.79)"><tspan x="0" y="0">r</tspan></text>
        <text class="cls-17" transform="translate(788.48 828.72) rotate(16)"><tspan x="0" y="0">c</tspan></text>
        <text class="cls-17" transform="translate(799.38 831.94) rotate(17.1)"><tspan x="0" y="0">e</tspan></text>
        <text class="cls-17" transform="translate(813.06 836.15) rotate(17.1)"><tspan x="0" y="0">s</tspan></text>
        <text class="cls-17" transform="translate(824.74 839.74) rotate(17.1)"><tspan x="0" y="0"> </tspan></text>
        <text class="cls-17" transform="translate(834.19 842.73) rotate(13.54)"><tspan x="0" y="0">T</tspan></text>
        <text class="cls-17" transform="translate(847.75 845.99) rotate(13.54)"><tspan x="0" y="0">h</tspan></text>
        <text class="cls-17" transform="translate(861.37 849.27) rotate(13.54)"><tspan x="0" y="0">e</tspan></text>
        <text class="cls-17" transform="translate(875.27 852.62) rotate(13.54)"><tspan x="0" y="0">r</tspan></text>
        <text class="cls-17" transform="translate(886.68 855.36) rotate(13.54)"><tspan x="0" y="0">m</tspan></text>
        <text class="cls-17" transform="translate(904.48 859.64) rotate(13.29)"><tspan x="0" y="0">a</tspan></text>
        <text class="cls-17" transform="translate(917.07 862.61) rotate(13.22)"><tspan x="0" y="0">l</tspan></text>
        <text class="cls-17" transform="translate(922.33 863.78) rotate(13.72)"><tspan x="0" y="0">e</tspan></text>
        <text class="cls-17" transform="translate(936.05 867.22) rotate(15.26)"><tspan x="0" y="0">s</tspan></text>
        <text class="cls-17" transform="translate(947.88 870.45) rotate(15.26)"><tspan x="0" y="0"> </tspan></text>
        <text class="cls-17" transform="translate(956.57 872.82) rotate(15.26)"><tspan x="0" y="0">d</tspan></text>
        <text class="cls-17" transform="translate(970.41 876.6) rotate(15.26)"><tspan x="0" y="0"></tspan></text>
        <text class="cls-17" transform="translate(975.49 877.98) rotate(15.26)"><tspan x="0" y="0">A</tspan></text>
        <text class="cls-17" transform="translate(991.88 882.45) rotate(15.26)"><tspan x="0" y="0">u</tspan></text>
        <text class="cls-17" transform="translate(1005.58 886.19) rotate(15.26)"><tspan x="0" y="0">l</tspan></text>
        <text class="cls-17" transform="translate(1010.84 887.62) rotate(15.26)"><tspan x="0" y="0">u</tspan></text>
        <text class="cls-17" transform="translate(1024.53 891.36) rotate(15.26)"><tspan x="0" y="0">s</tspan></text>
      </g>
      <g>
        <path class="cls-29" d="M277.32,833.2l9.47-3.45c2.32-.85,5.47,1.93,7.03,6.2l32.25,88.52c1.56,4.27.94,8.42-1.39,9.27l-9.47,3.45c-2.32.85-5.47-1.93-7.03-6.2l-32.25-88.52c-1.56-4.27-.94-8.42,1.39-9.27Z"/>
        <path class="cls-2" d="M228.68,876.24c-.95-2.61.04-5.36,2.21-6.15l48.64-17.72,72.64-26.46c.66-.24,1.38-.28,2.09-.11l21.74,5.13c2.89.68,4.7,4.34,3.58,7.25l-7.44,19.42c-.42,1.11-1.23,1.93-2.24,2.3l-71.97,26.22-46.74,17.03-7.47,2.48c-2.15.71-4.62-.76-5.55-3.32l-9.49-26.06Z"/>
        <text class="cls-18" transform="translate(245.5 897.37) rotate(-20.22)"><tspan x="0" y="0">S</tspan></text>
        <text class="cls-18" transform="translate(258.32 892.65) rotate(-20.22)"><tspan x="0" y="0">m</tspan></text>
        <text class="cls-18" transform="translate(274.57 886.66) rotate(-20.22)"><tspan x="0" y="0">a</tspan></text>
        <text class="cls-18" transform="translate(286.09 882.41) rotate(-20.23)"><tspan x="0" y="0">l</tspan></text>
        <text class="cls-18" transform="translate(290.91 880.64) rotate(-20.23)"><tspan x="0" y="0">l</tspan></text>
        <text class="cls-18" transform="translate(295.73 878.86) rotate(-20.23)"><tspan x="0" y="0"> </tspan></text>
        <text class="cls-18" transform="translate(303.74 875.91) rotate(-20.22)"><tspan x="0" y="0">C</tspan></text>
        <text class="cls-18" transform="translate(318.82 870.35) rotate(-20.94)"><tspan x="0" y="0">a</tspan></text>
        <text class="cls-18" transform="translate(330.31 865.95) rotate(-20.94)"><tspan x="0" y="0">v</tspan></text>
        <text class="cls-18" transform="translate(340.86 861.91) rotate(-20.94)"><tspan x="0" y="0">e</tspan></text>
        <text class="cls-18" transform="translate(353.53 857.06) rotate(-20.94)"><tspan x="0" y="0">s</tspan></text>
      </g>
      <path class="cls-30" d="M1403.38,773.78h15.68c3.85,0,6.97,5.32,6.97,11.89v136.05c0,6.57-3.12,11.89-6.97,11.89h-15.68c-3.85,0-6.97-5.32-6.97-11.89v-136.05c0-6.57,3.12-11.89,6.97-11.89Z"/>
      <path class="cls-2" d="M1579.68,813.43c0-4.39-3.68-7.96-8.23-7.96h-101.91s-152.18,0-152.18,0c-1.38,0-2.74.34-3.95.97l-36.75,19.42c-4.88,2.58-5.76,9.01-1.75,12.73l26.85,24.87c1.53,1.42,3.57,2.21,5.69,2.21h150.78s97.93,0,97.93,0l15.49-.37c4.46-.11,8.03-3.64,8.03-7.95v-43.93Z"/>
      <text class="cls-25" transform="translate(1297.03 849.37) rotate(5.03)"><tspan x="0" y="0">A</tspan></text>
      <text class="cls-25" transform="translate(1322.16 851.59) rotate(5.03)"><tspan x="0" y="0">u</tspan></text>
      <text class="cls-25" transform="translate(1344.28 853.57) rotate(2)"><tspan x="0" y="0">l</tspan></text>
      <text class="cls-25" transform="translate(1353.44 853.62) rotate(-1.01)"><tspan x="0" y="0">u</tspan></text>
      <text class="cls-25" transform="translate(1374.53 853.25) rotate(-1.01)"><tspan x="0" y="0">s</tspan></text>
      <text class="cls-25" transform="translate(1390.92 852.96) rotate(-1.01)"><tspan x="0" y="0">-</tspan></text>
      <text class="cls-25" transform="translate(1411.24 852.6) rotate(-1.02)"><tspan x="0" y="0">l</tspan></text>
      <text class="cls-25" transform="translate(1419.28 852.46) rotate(-1.01)"><tspan x="0" y="0">e</tspan></text>
      <text class="cls-25" transform="translate(1440.52 852.08) rotate(-1.01)"><tspan x="0" y="0">s</tspan></text>
      <text class="cls-25" transform="translate(1456.92 851.79) rotate(-1.01)"><tspan x="0" y="0">-</tspan></text>
      <text class="cls-25" transform="translate(1477.23 851.43) rotate(-1.01)"><tspan x="0" y="0">B</tspan></text>
      <text class="cls-25" transform="translate(1500.53 851.02) rotate(-1.02)"><tspan x="0" y="0">a</tspan></text>
      <text class="cls-25" transform="translate(1519.77 850.68) rotate(-1.01)"><tspan x="0" y="0">i</tspan></text>
      <text class="cls-25" transform="translate(1528.28 850.52) rotate(-1.01)"><tspan x="0" y="0">n</tspan></text>
      <text class="cls-25" transform="translate(1548.09 850.17) rotate(-1.01)"><tspan x="0" y="0">s</tspan></text>
      <text/>
    </g>
  </g>
</svg>