<?xml version="1.0" encoding="UTF-8"?>
<svg id="Layer_1" data-name="Layer 1" xmlns="http://www.w3.org/2000/svg" viewBox="0 0 1043.29 667.46">
  <defs>
    <style>
      .cls-1, .cls-2, .cls-3, .cls-4, .cls-5, .cls-6, .cls-7, .cls-8, .cls-9, .cls-10, .cls-11, .cls-12, .cls-13 {
        stroke-miterlimit: 10;
      }

      .cls-1, .cls-2, .cls-3, .cls-4, .cls-5, .cls-6, .cls-10 {
        stroke-width: 3px;
      }

      .cls-1, .cls-6 {
        stroke: #818181;
      }

      .cls-1, .cls-10 {
        fill: #b4b4b4;
      }

      .cls-14, .cls-15, .cls-13 {
        fill: #fefce9;
      }

      .cls-2 {
        fill: #79b1e0;
        stroke: #79b1e0;
      }

      .cls-3 {
        fill: #dae3a4;
      }

      .cls-3, .cls-11, .cls-12, .cls-13 {
        stroke: #b1ca35;
      }

      .cls-15 {
        font-size: 28.79px;
      }

      .cls-15, .cls-16, .cls-17, .cls-18, .cls-19, .cls-20, .cls-21, .cls-22, .cls-23, .cls-24, .cls-25, .cls-26 {
        font-family: Neucha, Neucha;
      }

      .cls-27, .cls-11 {
        fill: #75ba5b;
      }

      .cls-28 {
        fill: #b1ca35;
      }

      .cls-4, .cls-5, .cls-6, .cls-7, .cls-9 {
        fill: #ccc;
      }

      .cls-4, .cls-10 {
        stroke: #989898;
      }

      .cls-16 {
        font-size: 18.8px;
      }

      .cls-16, .cls-17, .cls-18, .cls-19, .cls-20, .cls-21, .cls-22, .cls-23, .cls-24, .cls-25, .cls-26 {
        fill: #010101;
      }

      .cls-17 {
        font-size: 18.8px;
      }

      .cls-18 {
        font-size: 17.61px;
      }

      .cls-19 {
        font-size: 17.42px;
      }

      .cls-20 {
        font-size: 17.5px;
      }

      .cls-21 {
        font-size: 16.81px;
      }

      .cls-22 {
        font-size: 22.5px;
      }

      .cls-23 {
        font-size: 22.65px;
      }

      .cls-24 {
        font-size: 21.3px;
      }

      .cls-25 {
        font-size: 25.07px;
      }

      .cls-26 {
        font-size: 33.42px;
      }

      .cls-29 {
        fill: #e4c16b;
      }

      .cls-5 {
        stroke: #b4b4b4;
      }

      .cls-30 {
        fill: #bfcc93;
      }

      .cls-7 {
        stroke: #b8baba;
      }

      .cls-7, .cls-9 {
        stroke-width: 2px;
      }

      .cls-8 {
        fill: #edd59d;
        stroke: #e4c16b;
      }

      .cls-8, .cls-11, .cls-12 {
        stroke-width: 4px;
      }

      .cls-9 {
        stroke: #ccc;
      }

      .cls-31 {
        fill: #ebbf5c;
      }

      .cls-32, .cls-12 {
        fill: #84b966;
      }

      .cls-13 {
        stroke-width: 9px;
      }
    </style>
  </defs>
  <rect class="cls-30" x="82.88" y="80.03" width="885.94" height="523.94" rx="12" ry="12"/>
  <path class="cls-14" d="M325.17,64.79s12.45,13.45,14.85,15.93c2.4,2.48,11.79,11.07,17.94,14.94,6.15,3.87,4.61,2.74,10.74,7.72,6.13,4.98,11.35,11.06,17.49,15.38,6.14,4.32,23.03,10.37,28.33,11.79,5.3,1.42,28.25.91,35.78,1.04,7.54.13,13.97,0,13.97,0l2.21.06,4.97,35.34h7.99l7.46,44.4h9.1l5.62,21.98,22.22-1.28-3.35-12.6,17.73-12.13-13.26-43.32,55.84-62.22,13.81-16.63,52.63,22.84,30.43-28.99,52.43,34.81-11.68,21.99,121.42,86.91,49.06-28.16,40.51,4.89,7.22,32.28,40.91-6.31,19.62,27.81,1.11-172.51s.08-2.67-.01-3.53-.23-2.4-1.02-3.61-1.78-2.41-2.5-2.89-2.28-1.44-3.6-1.58-3.49-.24-4.74-.19-661.21-4.15-661.21-4.15Z"/>
  <path class="cls-14" d="M63.24,191.49s9.93,9.29,13.47,12.18,15.81,9.39,17.99,9.32-5.77,7.18-8.76,10.82c-2.99,3.64-12.44,16.63-15.64,19.29-3.19,2.66-7.06,3.58-7.06,3.58v-55.19Z"/>
  <path class="cls-14" d="M63.56,263.6s12.36-9.28,15.91-13.03c3.55-3.75,6.05-8.72,7.82-10.77,1.76-2.04,5.3-6.46,8.1-8.5,2.79-2.04,12.6-9.9,13.15-12.1l.56-2.2h8.64l7.9,75.45-62.08,10.54v-39.4Z"/>
  <path class="cls-14" d="M63.24,370.47l15.1,4.45,24.34-16.94,13.09,3.3-16.62,23.5,16.62,19.85,26.38,18.35s63.17,3.01,66.79,3.91,29.24,8.04,31.76,8.08,15.71-2.54,17.13-3.91c1.42-1.37,15.84-27.43,15.84-27.43,0,0,10.01,3.8,12.2,6.36,2.2,2.55,9.53,15.54,9.53,15.54l2.42,5.64-15.93,32.46h28.8l10.36,17.44,21.48-30.13,14.19-12.35,2.55-1.92,5.98,10.45-11.38,45.13,23.9-7.43,7.54-11.28,30.91,11.46,25.97,44.81,49.49,34.68,13.56,8.62,13.17-1.46,22.66,16.88,16.34,10.06s8.9,3.23,10.83,4.66,0,2.8,0,2.8c0,0-15.95-2.78-19.28-4.24s-65.3-26.27-71.7-28.05c-6.4-1.79-61.75-21.17-67.03-23.22s-56.8-16.05-64.31-18.42c-7.51-2.36-73.49-4.86-80.18-6.09-6.69-1.23-91.46-17.47-99.79-21.53-8.32-4.06-52.64-14.03-62.1-16.98-9.46-2.96-40.64-11.59-40.64-11.59v-105.46Z"/>
  <path class="cls-14" d="M63.24,502.5l74.38,22.95s35.94,13.26,44.96,14.13c9.03.87,105.72,13.7,119.46,13.93s55.96,5.27,70.72,9.14c14.76,3.86,35.22,12.88,45.65,16.31,10.43,3.43,43.84,16.64,51.76,18.58s41.01,12.98,46.77,14.16,21.24,5.06,21.24,5.06H90.63s-16.71,0-16.71,0c0,0-3.56.17-5.07-.59s-1.79-.88-2.28-1.3-1.78-1.77-2.16-2.49-.84-1.98-1.05-2.89-.13-107-.13-107Z"/>
  <path class="cls-14" d="M520.39,542.44s3.99-5.77,8.19-4.73,70.54,30.05,76.99,32.43c6.45,2.38,31.63,9.29,36.41,14.56,4.78,5.27,17.53,18.46,21.99,23.4,4.46,4.94,8.62,8.67,8.62,8.67h-77.53s7.16-1.92,5.96-7.45l-1.21-5.53s-5.06-7.87-12.14-10.91-21.23-10.74-26.04-14.06-17.53-11.08-19.4-12.93c-1.87-1.84-4.97-4.94-7.59-7.56-2.62-2.62-6.57-5.63-8.45-7.28s-3.09-2.91-4.5-4.17-2.34-2.23-2.34-2.23l1.05-2.2Z"/>
  <path class="cls-14" d="M996.04,310.48l-19.23,10.39s.86,5.57,0,8.86-3.86,6.71-3.86,6.71l10.71,6.89,12.38,4.69v-37.53Z"/>
  <path class="cls-14" d="M931.92,616.76s15.95-9.66,16.41-17.38c.46-7.72,0-19.13,0-19.13l.21-4.72h3.57s10.65,4.95,14.66,6.02,9.71,1.84,9.71,1.84l7.72.46,5.31,1.09v16.8s.06,6-.01,6.75-.57,2.78-.87,3.33-.9,1.5-1.19,1.83-1.28,1.31-1.9,1.68-1.67.89-2.22,1.04-1.95.38-1.95.38h-49.44Z"/>
  <path class="cls-14" d="M414.1,435.68l10.14,15.89,16.86,24.75s-7.71-2.24-11.89-4.08c-4.18-1.84-10.49-.16-12.58,1.57s-1.02,4.07-4.76,2.51-7.64-5.54-11.38-6.86-8.23-3.66-8.68-6.93c-.45-3.27-1.17-5.05,1.66-9.27,2.84-4.23,9.21-9.65,11.02-12.63,1.81-2.99,4.64-7.21,5.67-8.2s3.95,3.26,3.95,3.26Z"/>
  <path class="cls-14" d="M522.43,450.13s9.55,13.71,11.83,15.2,11.65,10.13,18.59,10.24c6.94.12,20.77,2.92,26.43,3.01,5.65.09,20.06.03,24.42,0,4.37-.03,18.47,2.26,18.47,2.26,0,0-17.1-6.43-21.45-8.44s-23.11-9.29-28.43-10.65-18.66-2.87-21.72-4.21-15.63-3.09-18.68-5.2-15.03-7.96-15.03-7.96l5.56,5.75Z"/>
  <rect class="cls-13" x="45.22" y="54.18" width="963.74" height="584.02" rx="12" ry="12"/>
  <path class="cls-12" d="M471.89,126.49c-.58.03-.97-.58-.7-1.09l16.88-31.55,16.42-27.89s.02-.04.03-.06l11.81-25.35c.24-.52.95-.58,1.28-.12l17.25,24.32s.05.06.07.09l17.43,18.13s.02.02.03.03l17.13,20.08,7.19,8.07s.03.03.04.05l5.92,7.91c.36.48.04,1.16-.55,1.19l-110.23,6.21Z"/>
  <path class="cls-12" d="M507.31,156.89c-.74.05-1.24-.85-.89-1.59l21.62-45.86,21.04-40.55s.03-.06.04-.09l15.13-36.86c.31-.75,1.22-.85,1.64-.17l22.09,35.36s.06.09.09.12l22.33,26.35s.03.03.04.05l21.95,29.18,9.21,11.73s.04.05.05.07l7.58,11.5c.46.69.05,1.68-.71,1.73l-141.2,9.02Z"/>
  <path class="cls-12" d="M578.87,127.58c-.74.05-1.24-.85-.89-1.59l21.62-45.86,21.04-40.55s.03-.06.04-.09l15.13-36.86c.31-.75,1.22-.85,1.64-.17l22.09,35.36s.06.09.09.12l22.33,26.35s.03.03.04.05l21.95,29.18,9.21,11.73s.04.05.05.07l7.58,11.5c.46.69.05,1.68-.71,1.73l-141.2,9.02Z"/>
  <path class="cls-11" d="M866.81,190.89c-.74.05-1.24-.85-.89-1.59l21.62-45.86,21.04-40.55s.03-.06.04-.09l15.13-36.86c.31-.75,1.22-.85,1.64-.17l22.09,35.36s.06.09.09.12l22.33,26.35s.03.03.04.05l21.95,29.18,9.21,11.73s.04.05.05.07l7.58,11.5c.46.69.05,1.68-.71,1.73l-141.2,9.02Z"/>
  <path class="cls-11" d="M718.98,153.02c-.74.05-1.24-.85-.89-1.59l21.62-45.86,21.04-40.55s.03-.06.04-.09l15.13-36.86c.31-.75,1.22-.85,1.64-.17l22.09,35.36s.06.09.09.12l22.33,26.35s.03.03.04.05l21.95,29.18,9.21,11.73s.04.05.05.07l7.58,11.5c.46.69.05,1.68-.71,1.73l-141.2,9.02Z"/>
  <path class="cls-11" d="M792.11,193.07c-.95.06-1.58-1.09-1.14-2.05l27.51-59.07,26.77-52.23s.04-.08.05-.12l19.25-47.48c.39-.97,1.55-1.09,2.09-.22l28.11,45.54c.03.06.07.11.12.16l28.42,33.94s.03.04.05.06l27.93,37.59,11.72,15.11s.05.06.07.09l9.64,14.82c.58.89.06,2.16-.9,2.23l-179.7,11.63Z"/>
  <path class="cls-27" d="M169.22,355.67c-.55.03-.91-.52-.66-.97l15.87-28.1,15.44-24.85s.02-.04.03-.06l11.1-22.59c.23-.46.89-.52,1.2-.1l16.21,21.67s.04.05.07.08l16.39,16.15s.02.02.03.03l16.11,17.89,6.76,7.19s.03.03.04.04l5.56,7.05c.33.42.04,1.03-.52,1.06l-103.65,5.53Z"/>
  <path class="cls-27" d="M115.24,376.99c-.54.04-.9-.78-.65-1.46l15.7-42.23,15.28-37.34s.02-.06.03-.08l10.99-33.94c.22-.69.88-.78,1.19-.16l16.04,32.56s.04.08.07.11l16.22,24.26s.02.03.03.04l15.94,26.87,6.69,10.8s.03.04.04.07l5.5,10.59c.33.64.04,1.55-.52,1.59l-102.55,8.31Z"/>
  <path class="cls-27" d="M90.05,357.53c-.52.03-.87-.52-.62-.97l15.06-28.01,14.65-24.77s.02-.04.03-.06l10.53-22.52c.22-.46.85-.52,1.14-.1l15.38,21.6s.04.05.06.08l15.55,16.1s.02.02.03.03l15.28,17.83,6.42,7.17s.02.03.04.04l5.28,7.03c.32.42.03,1.03-.49,1.06l-98.33,5.51Z"/>
  <path class="cls-7" d="M970.28,384.3s-9.33-4.56-12.87-7.07c-4.7-3.33-4.51-5.38-11.28-7.35l-.41-3.34s1.02-.54,4.82-3.08c3.81-2.53,6.38-7.41,10.51-10.27,4.12-2.85,10.89-9.56,14.22-13.68,3.33-4.12,4.15-11.98,3.04-17.86-.85-4.52-4.07-8.42-7.88-11.17-3.81-2.74-9.17-6.82-12.34-9.52-3.17-2.69-11.5-9.64-14.35-12.33-2.85-2.69-12.86-12.69-16.19-16.01-3.33-3.33-11.89-1.37-13.63-.58-1.75.79-1.75,13.32-.32,16.8,1.43,3.49,13.9,13.67,17.86,19.53,3.96,5.87,6.84,3.56,11.76,7.2,4.92,3.65,2.23.63,4.92,3.65,2.7,3.01.02,8.93-2.36,11.47-2.38,2.53-8.31,8.43-12.27,10.65-3.97,2.22-8.83,6.67-8.83,6.67l-17.34-31.06-14.62-15.19s-6.01-7.75-7.74-9.98c-2.29-2.96-13.91-10.58-13.91-10.58l-39.78-26.3-24.41-11.45-21.92-6.38s-20.28-4.17-35.79-8.24c-15.51-4.06-20.59-3.2-25.03-10.21-4.43-7.02-7.18-8.51-10.87-13.32-3.69-4.8-19.35-22.43-24.52-26.49-5.18-4.06-6.9-5.5-6.54-11.05.37-5.53-5.95-19.65-7.06-25.56-1.11-5.91-7.24-24.74-10.19-27.33-2.96-2.58-26.19,2.48-23.98,6.53,2.21,4.07,3.87,17.1,6.09,18.95,2.21,1.84,5.21,9.39,5.58,14.92.36,5.55,6.5,1.32,3.91,1.32s-1.09-.62-3.02-3.2c-1.93-2.58-19.51-7.96-24.32-9.07-4.8-1.11-14.26.59-16.11,3.19-1.84,2.58-11.21,1.94-17.86,3.42-6.65,1.48-15.88,15.71-17.36,19.03-1.47,3.33-7.99,24.22-7.99,24.22,0,0,2.24,19.47,2.8,22.79.55,3.32,6.46,4.79,6.46,4.79l4.99.96s2.39.74,0,0c-2.4-.74-7.44,3.17-7.44,3.17v10.77l3.18,10.99s-.43,5.5-1.09,8.96c-.65,3.46,1.08,4.82,1.08,4.82l-1.08-4.82-4.93-3.6-45.19-3.55-30.76-4.67-13.18-4.92s-7.01-2.39-8.2-2.67c-1.19-.27-5.85.25-5.85.25,0,0,1.94-6.76,1.76-9.73-.19-2.98-6.6-31.61-6.6-31.61,0,0-5.21-8.55-6.32-8.37-1.11.19-11.65-11.06-12.76-9.57-1.11,1.49-12.64,5.45-12.27,6.94s-.58,12.73-.58,12.73l-6.9,19.38-9.2,33.21,18.69,16.84v4.2l-4.16,13.67-2.86,8.78-4.78,8.64-7.45,6.2-7.04,1.42-30.28-29.28-30.11-38.24-36.68-54.9-51.08-73.81s4.67,5.22,6.02,4.45c1.35-.79-5.43.82-2.73-1.23,2.7-2.06,2.73-1.45,4.51-2.87s2.77,1.06,5.39-.29,1.55-10.46,4.11-9.68,11.15,5.81,11.93,4.68c.79-1.14,2.63-11.99,1.43-12.76-1.2-.78,2.58-1.13,2.58-1.13,0,0-1.78-3.99-4.05-4.21-2.27-.21-6.92-.94-8.05-.94s-8.75-1.31-10.03-.39c-1.27.92-6.67-2.74-9.23-.96-2.56,1.78-6.49,2.1-9.33,4.15-2.84,2.06-4.84,6.01-4.84,6.01l2.57-.74-18.39-33.24h-44.83l101.89,148.54,44.35,56.12,41.36,35.13,39.14,35.85.35,15.16,12-.21c-.44,1.62-1.19,3.1-1.19,4.86,0,5.65-.53,1.21,3.26,4.82v6.1s5.11,2.67-.82,8.89c-5.93,6.22-17.93,7.1-24.66,20.55-6.72,13.45,13.22,37.77,13.22,37.77l40.03,66.82,5.97,19.71,31.76,34.19,35.32,19.48s20.16,14.81,24.53,16.52c4.37,1.7,24.13,8.55,18.27,12.73-5.87,4.19-17.92-3.82-24.95-5.98-5.61-1.72-13.58-3.24-24.48-8.26-10.89-5.02-74.55-26.8-97.17-34.35-22.61-7.53-67.01-20.1-80.41-22.61-13.4-2.51-74.55-6.7-97.17-9.22-22.62-2.51-62.83-15.08-80.41-18.43-17.59-3.36-77.07-20.94-87.12-23.46-10.05-2.51-19.03-5.25-19.03-5.25l.05,18.52s.92.16,3.91.97c6.52,1.77,92.14,26.8,103.87,31.83,11.73,5.03,105.55,15.08,117.27,15.08s72.87,8.37,83.76,11.72c10.89,3.36,105.67,40.5,105.67,40.5,0,0,64.6,20.28,76.33,23.33,11.73,3.06,46.08-5.86,45.76-18.43-.23-8.92-11.58-13.71-11.58-13.71l-43.98-23.28-28.22-24.59-31.07-50.51c16.15,16.1-42.27-61.88-48.42-72.06-4.05-6.71,0-10.1,0-10.1l16.76-28.17c.69-1.15,2.34-1.2,3.09-.08,3.31,4.98,11.22,16.67,18.45,25.76,9.45,11.87,21.13,20.42,26.22,24.81,10.15,8.79,37.07,27.63,54.8,33.48,19.15,6.33,66.32,16.3,79.96,17.72,13.65,1.42,58.55,15.72,76.77,5.41,27.96-15.83,41.01-10.38,57.62-7.61,16.61,2.77,63.95-14.09,63.95-14.09l21.35-28.01,54.17-53.7c1.55-1.53,16.11,5.46,18.59,6.54l63.2,32.1,1.34-25.3-22.53-14.08ZM699.27,231.46l5.9,2.89,11.52,8.55,25.31,7.65,3.52,2.65-6.07,5.91-13.19,3.85-6.8,2.65-26.54-4.09-10.11-.79-6.92-1.72,13.25-7.22,5.78-11.29s1.03-4.99,4.35-9.05ZM677.97,208.37l3.55-1.82,3.49,4.76-4.9,2.87-5.25,7.16-5.55,8.72-6.09,9.35-2.81,8.31-5.96.27,1.68,3.8h-15.21l-4.26-1.9-9.04,2.05-5.36-18.69s-7.25-8.88-9.11-10.51c-1.86-1.62,5.46,0,5.46,0l4.56,1.37,8.06.69,8.09-2.06,11.38-3.48,14.29-6.45,12.99-4.45ZM605.16,197.86l-5.01-8.36,1.95-5.36-2.6-2.72,9.27.18,9.8,1.54,9.28-7.09,9.95.19,10.7.74.24,13.15-1.62,4.07h0l-8.09,2.24-6.57,2.82-10.2,1.16-9.11,1.98-4.37,1.81-3.61-1.42v-4.93ZM598.12,244.62l-.46-4.54,1.71-3.95,6.49,1.76,2.91,5.85,3.19,6.95,12.85,9.87,7.64-.73-28.06-2.21h-4.35l.99-3.88-5.09-5.05,2.19-4.07ZM484.64,321.31l-1.5-33.74-1.25-9.35s-5.6-11.34-2.65-11.17c2.95.16,22.62-5.8,22.62-5.8l26.22,19.2,36.88-.83,6.32-1.33s4.92-1.42,5.46-.49c.54.93-16.6.05-17.45,1.22-.85,1.16,10.25,7.36,10.25,7.36l-12.57,7.27-5.95,8.07-45.12,13.17-17.84,8.34,8.01,1.9-12.66,5.5c-1.74-1.95-3.56,1.05-5.94-.09l7.2-9.21ZM458.28,368.1c-3.42,0-6.19-2.84-6.19-6.34s2.77-6.34,6.19-6.34,6.19,2.84,6.19,6.34-2.77,6.34-6.19,6.34ZM882.13,368.24c-12.47,5.08-31.26,22.33-31.26,22.33,0,0-28.1,44.32-35.48,52.63-7.39,8.31-43.53,5.79-43.53,5.79,0,0-43.69-2.33-52-2.33s-47.16,16.88-47.16,16.88l-50.52-10.78-80.08-22.32-34.4-29.57-11.35-49.7,16.53-4.96,29.86-13.42,21.77-12.08,18.75-9.91,15.36-23.24,6.53-7.49,18.95-2.29,24.81-.19,23.44,8.4,21.97,5.73,16.38,2.63s.74,2.33,0,5.29c-.74,2.95-2.72,5.94-2.72,5.94l-8.63,35.3-45.85,108.83-3.26,9.8,22.45,4.05,47.13-15.2,11.95-103.88,6.09-23.75s.97-11.15,5.95-16.13c4.98-4.98,13.97-8.7,13.97-8.7l3.24-2.25,9.01-1.49,6.37-10.48,5.39-4.52,11.43-.79,12.36,2.55,14.17,6.26s7.71,9.94,13.31,14.51c2.01,1.65,13.59,5.43,15.12,6.59,2.69,2.05,13.22,4.12,15.11,6.92,1.89,2.8,9.19,14.18,11.89,19.45,6.93,13.5,14.71,27.79,14.71,27.79l.23,5.31c-2.49.23-6.39,1.84-8,2.5Z"/>
  <polygon class="cls-9" points="776.4 238.5 767.34 251.8 767.34 251.8 776.4 238.5"/>
  <path class="cls-9" d="M767.34,251.8l-21.81,1.41,24.5,4.42-2.69-5.83Z"/>
  <path class="cls-9" d="M156.55,191.7c9.04-4.01,16-.43,17.82,2.5,2.24,3.61,20.18,13.22,30.22,17.9,10.03,4.68,7.97,11.31,14.66,15.99,6.69,4.68,41.08,13.48,45.76,21.51,4.68,8.03,4.24,38.24,13.6,44.93s17.21,16.99,24.57,19.66c7.36,2.68,13.47.25,18.85,1.32,5.37,1.07,20.25,13.2,26.91,14.27,6.66,1.07,10.15,5.64,19.39,6.07s19.19,8.04,26.55,11.21c7.36,3.17,13.35,9.67,21.4,17.9,8.06,8.23,14.03,14.75,14.03,14.75l-6.75,12.5s-18.61-13.37-22.07-17.27c-3.47-3.9-11.96-8.78-19.33-9.65s-25.2,1.4-33.87-1.93c-8.66-3.33-29.97-11.01-34.3-14.04s-13.08-4.26-17.41-8.15c-4.33-3.9-15.57-6.49-20.53-13.42-4.96-6.93-29.66-9.52-31.14-10.83s-14.93-12.23-19.53-18.97c-4.6-6.74-13.7-11.51-16.33-13.32s-18.79-23.35-23.88-26.15c-5.1-2.8-18.38-25.87-18.95-30.38-.96-7.68-4.63-24.74-15.23-20.12-1.96.85-26.47,6.46-37.29,6.82l18.7-17.75,24.15-5.33Z"/>
  <path class="cls-9" d="M436.55,399.75l4.58,23.71s6.91,12.82,10.19,17.13c3.28,4.32,16.71,16.15,19.25,16.15s8.67-12.68,7.65-15.98c-1.01-3.3-7.62-10.47-9.9-14.28-2.29-3.81-8.64-9.53-10.42-15.12-1.78-5.59-8.84-9.51-11.09-14.33l-2.25-4.82-8.01,7.55Z"/>
  <path class="cls-5" d="M63.24,162.36s6.53,6.8,8.81,9.4,9.49,6.64,12.48,10.48c2.99,3.84,3.56,5.94,8.4,8.95,4.84,3.01,11.88,4.44,14.93,4.74s23.11.56,24.54,1.1-18.05,12.2-18.05,12.2l1.54-1.94-4.52,4.81s-20.9-3.84-25.59-5.79c-3.02-1.25-6.63-2.14-10.8-5-4.56-3.13-6.11-6.46-8.4-8.33-2.29-1.87-3.35-6.39-3.35-6.39v-24.23Z"/>
  <path class="cls-2" d="M441.13,368.1l-10.24,11.12-12.1-11.36s-8.8-11.1-12.94-13.29c-2.06-1.09-8.16-6.01-12.75-9.8-4.66-3.85-7.88-7.73-10.22-10.06-1.33-1.32-3.84-3.11-5.93-5.26-.87-.89-2.92-3.21-3.67-4.12-2.66-3.2-5.56-5-8.16-7.07-2.09-1.66-4.01-3.75-5.26-4.97-5.28-5.14-13.3-13.4-18.18-18.27-1.99-1.99-8.91-8.38-16.96-17.83-1.96-2.3-3.73-3.75-5.9-6.11-1.22-1.33-2.26-2.86-3.51-4.32-.57-.66-2.6-2.95-3.16-3.61-2.41-2.83-4.12-4.19-6.25-6.94-3.1-3.98-4.81-5.05-6.79-8-1.17-1.74-3.33-5.04-3.93-6.23-.64-1.28-.73-1.1-2.16-4.45-.23-.54-1.04-2.03-1.21-2.55-.3-.89-.93-2.45-1.32-3.02-.64-.93-1.04-2.54-1.75-3.5-.6-.81-1.41-3.07-2.05-3.9-.86-1.1-1.79-3.1-2.72-4.23-1.95-2.37-3.72-4.26-5.86-6.65-2.64-2.94-5.99-6.06-8.54-8.83-2.77-3.01-5.67-5.73-8.43-8.44-1.72-1.69-2.87-2.87-4.41-4.34-.73-.7-2.27-2.13-3.13-3.25-2.81-3.66-6.77-6.64-10.34-9.46-1.79-1.41-11.11-8.12-15.32-10.62-3.85-2.28-11-6.76-17.34-9.95-2.54-1.28-5.13-2.77-7.41-3.81-2.04-.93-4.37-2.12-5.27-2.43-1.32-.44-5.07-1.28-7.87-2.59-1.77-.83-2.86-1.07-4.37-2.11-1.13-.78-3.7-2.24-4.43-2.5-.96-.35-3.29-1.07-4.11-1.14-1.39-.11-2.72.32-3.33,1.53-.79,1.55-1.43,4.01-2.03,7.39-.08.48-.22,2.92-.55,4.18-.16.61-.2,1.77-.27,2-.13.39-.33,1.01-.5,1.41-.23.52-.45,1.26-.5,1.64-.41,3.06-.49,3.15-.76,5.59-.18,1.68-.29,3.92-.32,4.18-.06.7-.07,1.61-.1,2.24-.05.83-.15,1.1-.51,2.11-.73,2.05-2.08,2.97-3.51,4.59-1.8,2.06-2.7,2.87-3.07,3.3-.33.4-2.2,2.07-2.88,2.42-.37.2-1.44.9-1.73,1.26-.98,1.19-2.15,2.38-2.71,3.13-2.29,3.08-2.02,5.16-3.95,8.84-2.5,4.77-6.23,4.07-10.71,5.76-1.34.51-8.06,4.02-9.44,5.17-1.38,1.15-6.23,2.39-11.53,2.89-6.54.61-12.27,7.1-15.56,9.24-4,2.6-14.59,11.42-18.18,17.69-3.59,6.27-4.82,6.91-12.79,12.87-.89.66-8.61,5.68-8.61,5.12,0-4.16-.32-12.09-.32-12.09,0,0,8.37-.39,9.83-1.8,3.95-3.81,2.84-3.13,6.08-6.27,3.8-3.68,4.45-5.44,7.15-9.47,2.69-4.03,5.39-8.51,8.98-11.42,3.6-2.91,10.56-9.65,14.6-11.67,4.04-2.01,5.37-.65,10.99-5.34,3.48-2.92,10.68-7.27,17.6-11.56,1.39-.86,2.96-2.22,4.19-3.07,2.53-1.75,5.3-3.46,6.73-5.11,5.61-6.44,8.49-16.38,9.97-20.47.22-.61,3.16-9.14,3.87-12.38,1.11-5.01,1.29-13.02,1.95-17.65,0,0-3.44-2.12-5.8-3.89-.97-.73-1.94-1.1-2.73-1.64s-1.69-1.39-2.45-1.89c-2.26-1.49-4.94-3.37-9.64-7.31-3.5-2.93-5.22-4.65-7.67-6.37-.72-.51-2.12-1.24-2.98-1.72-.46-.26-4.74-2.04-5.62-2.48-3.39-1.71-5.91-2.05-8.16-2.69-1.23-.35-5.09-1.17-5.87-1.33-.44-.09-2.97-.21-5.99-.25-5.61-.09-9.53.82-14.01.67-1.8-.06-4.16-.51-5.96-1.1-1.02-.33-2.33-.74-3.51-1.23-.87-.36-2.71-1.28-3.62-1.69-1.16-.53-4.97-2.34-7.35-3.62-5.46-2.94-9.84-4.46-9.84-4.46l.33-8.23-.36-3.3-.05-2.64s3.46,1.89,7.79,3.29c1.33.43,3.21.95,4.5,1.45,2.21.85,3.89,1.48,5.47,2.02,2.45.84,4.79,1.2,6.83,1.66,1.43.32,3.11.67,4.53.97,1,.21,2.01.51,2.83.68,1.27.27,2.19.33,3.65.59,3.32.6,6.04.93,8.9,1.4,3.59.6,7.24,1.33,10.62,2.18,1.75.44,4.25,1.14,5.93,2.18.75.46,1.63.93,2.33,1.34.6.35,1.29.69,1.82.94.79.36,1.54.93,2.36,1.44.48.3,1.64.91,2.63,1.52.09.06.94.56,1.03.62.43.26.83.38,1.13.56.62.37,1.11.7,1.87,1.09,6.05,3.14,17.15,10.31,20.96,12.64,4.65,2.84,11.92,7.09,11.92,7.09l6.7,4,3.68,1.87c1.5.74,5.33,3.96,11.06,7.73,6.59,4.34,14.84,10.12,19.17,13.04,4.66,3.14,9.34,6.03,13.54,8.63,1.06.66,2.43,1.04,3.49,1.56s1.83.79,2.75,1.34c.58.35,1.55,1.05,2.17,1.28.85.32,2.05,1.42,2.74,1.83,1.04.62,2.76,1.65,3.64,2.18,4.16,2.49,5.36,3.37,5.36,3.37l9.73,6.52,5.89,5.87,9.44,8.96,4.54,4.29,27.32,30.01,14.23,20.89,18.99,27.87,32.03,27.14,30.89,27.6,32.71,33.33,10.03,9.82Z"/>
  <path class="cls-2" d="M453.46,382.12l-7.19,7.68s-.04.04-.05.06l-1.06,1.27c-.38.46-.42,1.1-.09,1.6,3.88,5.95,27.41,41.97,31.31,47.34,1.06,1.47,7.52,9.59,12.65,15.46,2.59,2.96,6.57,7.78,10.29,11.26,5.28,4.94,11.15,11.77,16.85,16.74s9.94,7.68,15.25,10.72c5.91,3.38,12.94,6.96,15.25,8.91,3.02,2.56,5.79,5.09,8.3,5.08,2.23,0,4.07-.02,5.92-.34,3.26-.57,6.48-1.7,11.37-2.67,1.54-.3,5.47-.43,7.01-.68,1.98-.32,4.58-.47,6.08-1.04,2.86-1.08,4.21-2.47,5.99-3.41,2.49-1.33,2.07-1.24,4.29-1.97,3.96-1.31,11.06-2.01,21.04-1.13s15.77,2.34,28.66,6.49c11.71,3.77,24.53,8.63,36.96,11.05.85.17,4.21,1.05,5.41,1.13.62.04,2.77-.29,3.53-.27,3.58.07,8.83,1.23,14.24,2.52,6.91,1.66,12.65,3.29,19.04,7.26,1.83,1.14,7.52,3.88,9.8,4.49,5.49,1.47,12.84.88,15.29.88,2.63,0,6.18-.02,10.13-.2,2.82-.13,6.11.17,9.25-.16,7.66-.82,18.95-1.86,18.62-1.84-2.11.14,6.9-.89,9.61-1.09,1.8-.13,5.18-.54,7.06-.7,5.67-.47,9.93-1.06,15.98-1.65,11.17-1.09,36.36-.88,46.76,4.1,1.94.93,6.32,1.35,16.42,6.58,3.2,1.65,7.76,3.33,10.33,4.05,2.98.83,7.05,2.47,9.94,3.43,4.47,1.48,7.93,2.63,9.4,3.13,1.69.57,3.33,1.25,4.96,1.97s3.67,2.1,5.42,2.91c1.58.73,3.36,1.42,5.17,2.17,2.15.89,5.54,2.1,7.78,2.8,9.55,3,15.84,6,22.74,7.88,3.82,1.04,7.85,1.21,11.39,1.21,5.95,0,14.56-.68,17.74-.95.7-.06,1.24-.65,1.24-1.35l-.02-12.76c0-.64-.45-1.2-1.08-1.32-3.77-.76-16.57-3.34-24.72-5.14-4.13-.91-8.44-2.17-9.22-2.35-8.71-1.96-14.17-4-22.97-7.54-1.62-.65-4.58-2.01-6.34-2.76-2.75-1.18-5.78-2.38-8.79-3.63-9.52-3.94-17.77-7.76-25.07-11.22-2.68-1.27-6.16-2.63-8.61-3.57-8.55-3.28-14.89-4.61-17.09-5.32-2.56-.82-4.77-1.95-6.94-2.3-3.2-.52-6.11.25-9.04.47-4.11.31-8.29.29-13.42.59s-7.8.51-10.66.35c-1.49-.08-3.76-.55-5.27-.63-1.62-.08-2.88-.25-5.04-.16-.46.02-4.21.82-4.71.85-2.49.16-4.45.16-5.69.12-.86-.02-1.48-.83-1.27-1.66.25-1.01.76-2.58,1.82-4.92,2.85-6.3.65-3.33,4.48-9.24,3.44-5.3.59-3.58,10.84-8.7,1.83-.91,4.09-2.41,5.86-3.5,1.5-.92,3.76-2.09,5.15-3.06,1.58-1.11,3.57-1.94,5.36-3.04,2.71-1.68,4.51-3.88,5.8-5.35.68-.78,1.68-1.86,2.68-3.23.34-.46,1.16-1.17,1.54-1.67,1.02-1.38,2.35-2.72,3.64-4.32.95-1.18,2.47-2.44,3.44-3.62,2.77-3.39,5.49-6.66,7.48-8.8,1.41-1.52,2.97-3.3,4.21-4.85,1.01-1.26,2.35-2.31,3.28-3.51,1.96-2.54,4.16-5.01,5.89-6.81.67-.7,2.44-3.15,5.02-5.52,2.33-2.14,4.49-3.96,7.54-6.7,2.43-2.18,4.39-3.55,6.57-5.61,1.41-1.33,4.27-3.33,5.54-4.52,1.74-1.62,3.35-3.08,4.81-4.29,4.46-3.7,9.5-7.87,12.25-10.37,1.26-1.15,2.49-2.08,3.43-2.74.77-.54.75-1.7-.03-2.22l-4.77-3.21c-.15-.1-.32-.17-.5-.21l-2.54-.49c-.43-.08-.87.04-1.18.34-4.31,4.07-34.94,33-36.46,34.36-1.63,1.46-2.77,4.06-4.96,5.68s-4.8,5.92-6.67,7.79-12.36,11.85-13.18,13.39-3.99,5.92-5.53,8.11-4.23,3.41-6.43,5.76-12.61,10.3-14.32,11.68-5.11,2.34-9.6,4.6c-4.13,2.08-5.73,2.66-7.29,3.6-1.29.78-2.55,2.04-4.7,4.93-1.33,1.79-2.12,3.04-4.35,6.18-2.06,2.9-3.36,5.69-5.35,8.74s-3.96,7.44-5.18,8.92-2.6,3.31-5.07,3.51c-6,.49-5.01.45-13.93,1.42-3.64.4-7.63.27-10.88.02-4.3-.33-6.52-.88-9.86-1.53-2.27-.44-4.85-1.07-7.64-2.07-1.68-.6-3.63-1.82-4.96-2.31-1.94-.72-3.42-1.49-4.96-2.13-2.25-.93-4.48-1.89-6.98-2.93-1.95-.81-4.08-1.64-6.81-3.1-10.78-5.74-12.35-6.09-9.92-6.76s2.69-.18,7.95-2.14c4.55-1.69,4.64-1.77,6.75-4.44,1.02-1.29,2.15-2.13,3.6-2.81.8-.37,1.81-.56,2.66-.9.91-.36,1.36-1.05,2.32-1.65,3.32-2.1,4.01-2.87,8.73-2.87s4.39.26,9.83-.8c5.08-.98-.61-1.62-1.4-1.7-.06,0-.12,0-.18,0l-5.17.17c-.11,0-.21,0-.31-.03l-4.64-.94s-.74-.16-3.84.78-5.18,1.08-8.28,3.1c-3.1,2.02-6.57,2.54-9.17,4.14-1.95,1.2-3.09.81-5.79,1.21s-2.63,1.23-5.59,1.9c-2.97.67-5.03,3.03-7.73,1.95s-3.24.27-7.69-.13-1.62-1.08-9.58-.27c-7.96.81-7.1-.67-9.83-1.75s-7.45,0-13.25-.13-13.63-.93-20.62-1.07c-.07,0-.14,0-.21-.02-.61-.12-3.71-.7-5.19-.81-1.12-.08-4.24-1.07-5.92-1.49s-1.64.82-16.97-2.57c-15.25-3.37-10.02-2.48-21.54-4.66s-6.02-1.73-17.5-4.39c-6.14-1.42-7.79-2.27-9.62-2.76-1.59-.43-3.51-1.53-7.73-3.14-9.68-3.69-8.02-2.9-12.11-5.19-5.56-3.12-5.48-2.96-13.9-8.3-8.19-5.19-10.16-8.06-15.47-11.85-5.07-3.62-6.75-6.04-11.87-9.31-5.12-3.27-17.31-17.8-24.06-26.37-5.06-6.42-13.83-19.14-16.84-22.77-.52-.63-1.93.93-2.49,1.52Z"/>
  <path class="cls-3" d="M474.66,254.79c1.27.53-2.34-1.33-2.81,0-.48,1.33-.37,4.3-.58,6.21s.13,10.26.13,10.26c0,0,.19,20.39.19,23.18s-.73,15.17-.73,17.6.12,5.58,0,8.49-.49,5.34-.49,7.89-.73,4.49-.61,6.92.15,1.8.15,3.6-.22,1.37-.22,2.13,2.09,1.62,2.99,2.38,1.8,1.69,1.8,1.69c0,0,2.52-.76,3.21-1.8s26-12.5,27.21-12.82c1.21-.32,31.37-13.87,31.37-13.87l32.66-14.6s6.61-5.28,8-8.95c1.38-3.67,11.65-12.95,10.75-14.5s-2.2-1.79-4.56-2.52-7.66-1.06-9.53-1.06-18.41-2.52-20.2-2.52-21.18-2.12-22.8-2.12-14.58-3.91-16.86-4.4-15.56-4.24-18.41-5.46-11.65-3.67-13.76-4.4-6.9-1.33-6.9-1.33Z"/>
  <path class="cls-3" d="M481.35,354.29c-.59.28-.88.95-.68,1.57.44,1.34,1.05,3.72.75,5.85-.45,3.17-.08,6.34-1.96,8.94-1.88,2.6-5.28,6.68-5.96,6.68s7.64,7.44,7.64,7.44l9.99,10.24,22.83,19.59s19.52,16.01,21.34,16.79,42.56,14.58,45.81,15.36,33.94,10.22,33.94,10.22c0,0,3.17,1.06,6.18,2.01s13.62,2.38,16.95,3.33,17.74,2.69,20.28,3.01,6.65-14.73,6.65-14.73l27.9-77.52,16.34-47.7,6.04-25.66s3.2-5.6,0-7.02c-3.2-1.42-15.27-6.04-23.44-8.52s-23.09-6.04-26.99-6.75c-3.91-.71-4.49-2.12-10.75-4.62-6.26-2.5-22.16-.71-26.81-.54s-11.8,1.43-16.62,2.32c-4.83.89-4.47-2.32-7.68,1.79-3.22,4.11-9.65,13.4-12.15,18.05s-5.9,13.4-10.01,15.19-9.47,4.29-14.3,6.79-43.79,21.27-46.11,22.16c-2.32.89-30.02,12.51-33.24,13.4-2.17.6-4.58,1.68-5.94,2.32Z"/>
  <path class="cls-3" d="M738.68,282.02s10.19-7.26,17.33-9.57c7.15-2.31,17.26-7.04,21.44-9.67s9.23-4.62,15.28-3.19c6.05,1.43,32.54,16.49,35.84,18.14s23.64,14.84,29.9,18.36c6.27,3.52,23.61,13.14,27.53,18.54,3.92,5.39,4.41,10.78,6.37,16.66s2.7,7.84,5.39,11.76c2.7,3.92,5.39,10.54,7.6,14.7s4.41,5.64,2.21,8.33-4.17.74-10.05,4.41c-5.88,3.68-16.91,10.78-21.81,15.68s-38.72,39.21-42.39,43.62-15.68,20.34-19.85,21.81-44.6,10.01-53.42,5.37c-8.82-4.64-37.98.75-44.35,1.37s-22.79,3.31-26.46,5.03c-3.68,1.72-11.27,1.96-11.27,1.96,0,0,4.9-15.93,7.84-21.32,2.94-5.39,28.18-78.17,29.65-85.03,1.47-6.86,11.52-35.29,12.5-39.45s7.11-23.28,8.09-27.2,2.64-10.31,2.64-10.31Z"/>
  <path class="cls-3" d="M605.16,220.09c2.5-.62,14.57-.62,21.24-1.25s22.9-2.71,28.73-5.83c5.83-3.12,11.03-8.33,14.99-10.83,3.96-2.5,4.79-5,6.66-4.16s7.91,4.58,9.78,6.45c1.87,1.87,5.83,3.82,5.2,7.01-.62,3.19-2.5,7.98-4.79,10.89-2.29,2.91-8.12,11.03-10.83,13.95-2.71,2.91-7.29,9.99-10.41,12.7-3.12,2.71-3.75,6.87-5.83,8.12-2.08,1.25-12.08-.42-15.61,0s-7.29-.49-10.41-.42c-3.12.07-10.83-16.45-13.12-19.15-2.29-2.71-7.91-8.74-9.58-10.83-1.67-2.08-6.04-6.66-6.04-6.66Z"/>
  <path class="cls-3" d="M600.19,263.16s-1.71-2.86-2.04-4.9-.82-8.41-1.14-10.94c-.33-2.53-1.8-6.61-1.71-8.9s2.04-4.9,3.02-5.55,2.45-1.39,5.31,0,5.47,5.96,6.69,7.59c1.22,1.63,6.04,7.43,7.59,9.71s4,6.94,4.33,8.16-3.27,1.39-5.39,1.39-6.02,0-8.07.08c-2.05.08-2.95.24-4.58.98s-4,2.37-4,2.37Z"/>
  <path class="cls-3" d="M672.36,261.36c2.2-1.95,6.35-9.28,9.52-12.45,3.17-3.17,6.59-6.59,8.79-10.25s4.15-6.84,5.62-9.52,2.44-6.84,3.42-6.35,2.44,4.39,4.88,6.35c2.44,1.95,3.66,2.44,7.57,4.88,3.91,2.44,9.28,7.04,11.47,8.04,2.2,1,8.06,2.22,10.99,2.71s7.81,2.44,12.21,3.42c4.39.98,7.32,2.93,10.25,3.17,2.93.24,4.64,0,3.66,1.46-.98,1.46-4.64,5.52-9.77,6.3s-10.5,2.67-13.92,4.04-8.79,4.55-11.47,6.26c-2.69,1.71-5.13,2.93-5.13,2.93,0,0-11.23-3.17-14.89-3.17s-10.63-3.42-13.74-3.91-11.19-1.53-13.87-2.11-5.6-1.8-5.6-1.8Z"/>
  <path class="cls-3" d="M602.33,207.46c-1.18-2.58-5.6-9.37-6.57-13.24s-1.72-9.04-2.37-10.87,0-2.69,1.89-5.27.99-2.8,2.46-3.34c1.47-.54,5.77-.75,9.54-1.29,3.77-.54,10.33-1.18,13.78-3.34s4.95-3.23,6.46-4.09,4.31.22,6.57,0,4.41-.57,6.46-.34c2.05.23,1.83-.41,3.77.77s5.17,4.09,7.54,5.38c2.37,1.29,3.23,2.05,4.09,2.91s3.23,6.67,4.2,7.86,2.26,5.17,3.55,6.46l1.29,1.29s-.54,1.94-2.8,3.12-8.07,4.95-11.19,5.38c-3.12.43-11.41,4.41-14.96,5.71s-8.4,3.44-10.87,3.66c-2.48.22-8.4,0-11.52,0s-6.51-.24-8.48.1-2.83-.85-2.83-.85Z"/>
  <circle class="cls-3" cx="459.65" cy="360.23" r="10.92"/>
  <path class="cls-3" d="M427.31,329.17c-.28-.6.06-1.31.7-1.48,4.32-1.1,10.7-2.88,13.4-5.71,2.9-3.05,8.25-6.57,9.62-8.7s6.41-5.8,7.18-7.64.92,9.16,1.22,12.98c.31,3.82,0,9.62,0,12.22s-.31,4.58-1.07,6.26-7.81,3.05-9.63,3.97-8.85-5.04-11.75-6.57c-2.9-1.53-7.02-3.21-8.55-4.12-.59-.35-.93-.8-1.12-1.21Z"/>
  <path class="cls-3" d="M119.07,215.09c1.95,22.05,8.63,79.43,8.63,79.43l-99.88,17.12-12.84,24.8,31.95,8.7v18.59l31.54,7.43,22.83-15.83,19.26,4.92-16.41,24.67,16.41,19.48,22.12,15.25,67.06,4.01,33.49,8.2,11.45-3.21,18.12-31.39,14.7,10.7,14.27,23.9-15.69,29.61h25.68l9.68,14.27,20.28-28.67,17.83-15.21,9.27,15.21-11.41,41.51,20.37-3.74,12.12-18.12.48-12.16,15.55-22.7,3.33-3.74-1.22-5.59-1.4-6.28,1.57-12.74,12.39-17.45-9.25-8.73-16.76-14.31-16.58-7.69h-21.31s-38.52-14.16-38.52-14.16c0,0-2.21-3.17-9.3-6.16-7.09-3-12.81.82-18.53-2.45-5.72-3.27-6.81-7.09-9.81-10.08-3-3-13.63-13.9-19.08-18.26-5.45-4.36-32.98-23.44-36.79-27.25-3.82-3.82-10.36-15.26-12.26-19.89-1.91-4.63-5.72-12.26-13.35-15.53-7.63-3.27-16.35-8.18-19.35-10.63-3-2.45-9.27-6.27-12.54-11.99-3.27-5.72-2.73-10.9-5.72-12.81-3-1.91-5.72-3.27-11.99-1.36-6.27,1.91-13.08,3.54-17.44,6.81-4.36,3.27-12.94,3.55-12.94,3.55Z"/>
  <path class="cls-3" d="M157.95,189.71c3-1.2,10.38-8.79,11.98-11.98,1.6-3.2.6-11.98,2.4-16.37s1.2-13.18,3.39-14.78c2.2-1.6,6.39,1.79,10.58,3.99,4.19,2.2,8.79,2.8,14.38,5.39,5.59,2.6,25.36,13.78,29.35,16.57,3.99,2.8,16.77,10.98,20.57,15.98,3.79,4.99,26.56,25.16,32.55,34.35,5.99,9.19,8.79,18.97,13.18,24.96,4.39,5.99,29.55,33.95,34.95,39.54,5.39,5.59,24.56,24.96,28.56,28.95s9.98,7.79,13.98,12.58,9.98,9.1,12.18,11.54l2.2,2.44s-5.19-.8-9.98-1.6c-4.79-.8-17.37-.2-22.37-2.8-4.99-2.6-14.78-3.39-21.97-7.39-7.19-3.99-15.18-9.19-21.17-10.18s-5.79.6-11.38-1.2-14.38-8.97-18.37-14.27c-3.99-5.3-8.99-10.68-15.58-15.58-6.59-4.9-24.16-16.68-27.96-24.47-3.79-7.79-9.19-16.99-11.58-20.87-2.4-3.89-6.59-8.08-9.78-9.88s-7.59-5.59-14.58-7.59c-6.99-2-17.17-5.19-20.57-11.78-3.39-6.59-8.39-16.77-13.38-20.57-4.99-3.79-12.98-3-12.98-3l1.4-2Z"/>
  <path class="cls-3" d="M918.86,290.37c5.8,5.79,17.97,17.97,21.45,20.86,3.47,2.9,12.17,2.9,10.43,11.01-1.74,8.12-11.6,22.56-18.55,22.87-6.96.32-7.53,14.23-15.65-4.32-8.12-18.56-15.65-25.51-22.61-33.63-6.95-8.12-11.04-16.24-17.02-19.07-5.98-2.84-23.62-16.37-27.71-18.89-4.1-2.52-24.88-10.71-31.17-13.85-6.3-3.15-9.76-6.93-15.75-10.08-5.98-3.14-18.89-1.89-24.88-3.14-5.98-1.26-34.95-9.13-42.51-12.59-7.56-3.47-13.74-5.35-18.21-9.13-4.46-3.78-6.04-3.65-11.39-13.64-5.36-9.98-20.16-15.34-24.25-22.26-4.09-6.93-4.79-2.83-8.69-14.17-3.9-11.33-3.41-33.22-6.15-39.1-2.75-5.89-5.76-12.16-9.03-12.82-3.28-.66-9.35-.79-10.86,2.61-1.5,3.4.85,10.99,3.47,13.34,2.62,2.36,7.59,6.54,7.86,10.86.26,4.32,2.48,10.07,2.35,13.86-.13,3.8.92,6.68-.92,6.81-1.83.13-9.68-13.48-14.12-13.21-4.45.26-5.76-.52-11.52-.79-5.75-.26-10.72-.26-15.17,2.1-4.45,2.35-5.23,5.62-9.94,6.8-4.71,1.18-10.05-1.57-15.16,1.83-5.11,3.4-15.84,8.24-14.66,15.43s6.01,31.27,8.24,34.8c2.22,3.53,2.1,7.19,4.13,8.9,2.02,1.7,2.93,2.74,2.93,2.74l-1.43,1.83s-2.62-1.97-4.32-.39c-1.7,1.57-2.88,4.84-.92,12.69,1.96,7.85,2.61,11.64,2.09,16.74-.52,5.1-1.04,6.28.26,8.63,1.31,2.36.66,2.36.66,2.36,0,0-7.32.26-11.25-1.83-3.92-2.09-25.64-4.97-32.05-6.54-6.41-1.57-32.7-6.68-37.67-7.46-4.97-.78-30.46-6.93-35.7-7.45-5.25-.52-5.77,3.92-8.91-2.22-3.14-6.15-6.02-24.34-6.67-31.79-.66-7.45-.13-22.24-3.28-23.42-3.14-1.17-7.32-2.22-9.42-.26-2.09,1.97-1.7,10.47-1.7,14.79s1.44,26.56,4.05,32.96c2.61,6.41,1.57,12.82,3.66,15.05,2.1,2.22,6.54,2.09,6.81,7.32.25,5.23.78,26.56-.79,30.87-1.57,4.32-15.05,15.96-16.61,17.53-1.57,1.57-9.29,13.21-16.1,12.43-6.8-.79-16.09-2.09-21.59-6.8-5.5-4.71-32.18-28.26-35.58-33.75-3.4-5.5-24.46-26.43-28.12-33.36-3.66-6.93-56.21-86.91-56.21-86.91l-4.75-4.97s-2.21-4.86-6.17-11.22c-3.95-6.36-13.29-18.9-13.29-18.9l-2.77-4.11s7.19-4.64,9.25-6.6c1.65-1.57,5.13-4.82,7.39-5.31,2.81-.61,6.59.42,8.54-.47s6.22-3.24,6.36-5.3c.12-1.78-2.75-4.85-4.35-5.63-2.32-1.13-7.55-2.23-10.12-1.99-2.65.24-7.87,1.78-10.2,3.08-2.27,1.27-8.23,6.36-8.23,6.36l-4.74,4.38-21.05-40.08h93s20.72,28.48,34.64,34.27c13.91,5.79,27.24,26.09,35.36,27.25,8.12,1.16,28.41,10.43,45.22,8.69,16.82-1.74,27.25.58,27.25.58l5.33,33.63h6.84l8.7,44.63h9.27l5.79,22.61,28.41-2.32-4.64-13.91,17.97-11.86-13.34-44.33,46.96-51.64,19.62-22.61,53.21,22.03,29.48-28.99,47.84,32.47-11.6,21.45,40.59,28.86,85.79,62.14,51.02-29.88,36.68,3.85,4.48,34.75,40.18-7.21,18.95,28.37,34.78-2.61,14.49,22.03-64.36,39.08-29.56-18.21-14.49-17.39s-10.43-11.12-15.65-8.18c-5.21,2.96-4.05,12.23,1.74,18.03Z"/>
  <path class="cls-3" d="M63.24,95.49c0-1.2-.62-4.07.29-4.59s3.34,1.32,4.37,1.93c6.25,3.71,17.27,9.79,23.48,10.49,9,1.01,16.76-1.37,23.61,0s19.23,5.01,25.14,11.12c4.86,5.03,17.59,12.87,21.81,15.67.91.6,2.09,1.66,2.04,2.75-.17,3.48-1.82,12.04-3.89,20.11-2.75,10.68-8.14,24.76-12.48,27.69-4.34,2.93-20.45,16.83-31.63,17.93-11.18,1.1-29.08-6.49-32.4-13.42-2.8-5.84-15.39-16.46-19.25-19.62-.72-.59-1.13-1.46-1.13-2.39l.04-67.67Z"/>
  <path class="cls-3" d="M194.95,64.79l69.45,110.77,5.49,8.26-14.3-13.5s-19.75-13.59-26.42-16.42c-6.67-2.84-37-24.59-45.1-28.9-8.1-4.31-56.57-34.23-61.08-35.74s-16.8-3.75-19.67-4.04-20.39-3.57-24.78-5.68c-4.39-2.11-15.46-4.43-15.46-4.43,0,0-.11-8.73.56-9.41.97-.99,2.5-.86,3.16-.92s128.16,0,128.16,0Z"/>
  <path class="cls-3" d="M414.21,482.02s6.61-10.36,12.55-8.17c5.94,2.19,17.06,7.18,17.06,7.18l10.81,18.74,22.15,31.16,15.79,21.2,13.57,11.29,7.76,6.4h-8.33s-24.66-17.88-30.27-22.16-27.53-16.91-30.45-20.84c-2.92-3.94-30.64-44.79-30.64-44.79Z"/>
  <path class="cls-3" d="M436.55,406.13c-3.25,6.05-4.54,6.79-4.07,9.09.47,2.3.55,7.64,4.07,12.53s22.88,33.18,25.86,37.04c2.99,3.86,30.78,44.75,34.52,48.88,3.74,4.13,11.88,19.01,13.12,21.07s5.98,7.47,5.98,7.47c0,0,4.96-7.8,7.76-7.75s4.33-.44,7.35,1.14c3.02,1.58,63.62,26.74,67.66,28.08s38.42,13.1,41.69,15.19,23.26,23.01,25,25.33,11.11,12.58,11.11,12.58h252.2s17.15-12.28,16.16-17.1.04-25.72.04-25.72l3.29-4.11,10.13,5.7,12.39,3.75,12.6,1.61,6.1,1.21v-15.97s-13.96,1.13-17.74,1.07-10.58.27-18.09-2.91c-7.51-3.18-26.31-8.41-32.3-12.29-5.98-3.88-34.58-11.54-39.06-14.64s-21.38-9.8-27.42-9.91c-6.04-.1-17.37-1.05-23.41-1.15s-26.11,2.21-30.65,2.51-25.74,2.59-31.04,3.26c-5.3.67-26.84.31-32.88.21-6.04-.1-18.37-9-23.26-10.21-4.89-1.22-19.56-5.24-23.73-4.55-4.17.69-19.21-3.72-22.22-4.53s-20.67-6.77-25.18-8.36c-4.51-1.59-21.45-5.65-27.49-5.75s-16.04-1.02-21.38,1.53-3.49,5.61-15.6,6.16c-12.1.55-21.67,7.95-30.24.25-8.56-7.7-19.57-11.3-28.47-18.24s-14.09-13.08-21.15-20c-7.06-6.92-21.88-24.93-21.88-24.93,0,0,.78,5.71-5.74,7.85-6.52,2.15-10.56-5.1-14.24-10.83-3.68-5.73-19.78-34.56-19.78-34.56Z"/>
  <path class="cls-3" d="M805.58,504.58s5.03-15.19,9.6-17.5,24.56-13.19,28.7-18.13,32.36-37.17,36.25-41.4c3.89-4.23,21.31-18.5,24.7-21.54,3.39-3.05,15.98-13.57,15.98-13.57l2.89-1.86,67.77,33.11-1.97,123.65s-45.58-9.89-51.97-13.1c-6.39-3.21-30.57-12.92-35.78-15.39-5.21-2.47-21.07-10.14-26.31-10.7-5.24-.56-13.98-6.2-21.87-5.14s-21.03,1.56-26.51,1.47-9.28-1.83-13.83-.71-7.65.83-7.65.83Z"/>
  <path class="cls-3" d="M974.56,341.35c-1.35,1.57-15.29,7.85-18.79,10.71s-16.68,14.82-18.29,16.39c-1.62,1.56,12.62,7.14,16.81,9.57,4.19,2.44,16.81,8.21,20.47,10.92,3.66,2.71,17.81,14.78,17.81,14.78l2.2-50.76-20.22-11.61Z"/>
  <path class="cls-3" d="M706.56,493.46c-.74-.39,1.66-1.22,2.46-1.45,2.54-.73,9.55-.9,11.05-2.35,2.28-2.2,4.36-5.02,7.23-5.59s4.13-3.4,8.02-4.15c3.88-.75,7.75-.28,10.62-1.05,2.33-.62,4.39-1.52,5.08-1.83.17-.08.34-.1.52-.07,1.73.28,11.14,1.8,15.38,2.05,4.68.28,13.02,1.64,17.93.5s20.84-3.12,24.94-4.68,9.43-3.31,9.43-3.31c0,0-12.11,5.3-14.38,6.89s-7.49,9.25-10,12.88-7.35,12.72-8.81,15.14c-1.06,1.74-1.89,2.64-2.27,3.01-.14.14-.32.22-.51.24-2.24.29-17.23,2.18-24,1.74-7.33-.47-15.66-1.63-21.73-4.79-6.06-3.16-13.36-5.29-20.53-9.09l-10.42-4.11Z"/>
  <g>
    <path class="cls-10" d="M335.1,297.01l2.66,10.18,3.81-1.42,3.81-1.42s-.9-6.61-.86-6.99c.11-1.01,7.65-6.23,11.82-7.49,3.97-1.2,12.37-1.81,12.37-1.81l.36,5.69,8.53-1.93-1.41-11.67-11.01.04-7.04.85-7.66,1.97-8.88,4.93-6.5,9.07Z"/>
    <path class="cls-10" d="M351.07,312.17l2.66,10.18,3.81-1.42,3.81-1.42s-.9-6.61-.86-6.99c.11-1.01,7.65-6.23,11.82-7.49,3.97-1.2,12.37-1.81,12.37-1.81l.36,5.69,8.53-1.93-1.41-11.67-11.01.04-7.04.85-7.66,1.97-8.88,4.93-6.5,9.07Z"/>
    <path class="cls-4" d="M336.68,301.8l5.57-6.59c5.25-6,7.7-7.1,12.07-9.4,2.94-1.55,7.49-2.46,11.81-3.15,6.52-1.04,9.84-.3,9.84-.3l14.65,14.33s-17.93-.63-23.41.63c-5.48,1.26-11.07,6.9-13.56,9.77-2.5,2.87-3.74,4.19-3.74,4.19l-13.23-9.48Z"/>
  </g>
  <g>
    <path class="cls-1" d="M709.07,511.38l-7.46,8.6-4.18,3.46-1.44-13.36s4.62-4.38,4.83-4.68c.54-.8-1.41-8.87-3.48-12.12-1.97-3.1-7.3-8.24-7.3-8.24l-3.7,4-4.62-6.18,8.04-7.83,7.45,6.17,4.27,4.55,4.01,5.73,3.04,8.59.54,11.32Z"/>
    <path class="cls-1" d="M688.7,516.47l-3.38,7.58-5.4-4.39-2.84-2.13s3.5-9.54,3.7-9.84c.54-.8-1.41-8.87-3.48-12.12s-7.3-8.24-7.3-8.24l-3.7,4-4.62-6.18,8.04-7.83,7.45,6.17,4.27,4.55,4.01,5.73,3.04,8.59.21,14.11Z"/>
    <path class="cls-6" d="M704.29,514.15l-.62-9.07c.08-7.36-.92-9.54-2.49-13.68-1.06-2.78-3.59-5.99-6.11-8.92-3.8-4.41-6.5-5.72-6.5-5.72l-18.64,2.41s12.56,9.53,15.51,13.52,3.33,11.27,3.28,14.78-.61,10.9-.61,10.9l16.17-4.23Z"/>
  </g>
  <g>
    <polygon class="cls-28" points="981.55 300.57 985.26 277.73 985.26 251.25 988.75 228.65 988.75 257.9 991.12 284.03 989.54 291.85 989.41 298.53 989.94 300.57 981.55 300.57"/>
    <path class="cls-32" d="M1024.29,260.89l-2.68,9.84-5.3,2.34-8.77,1.46h-5.64l-5.61,2.76h-6.7l-3.9.44-5.76-2.11-5.62.63-8.82-.48-5.42-1.73-3.25-9.51,4.39,2.64,6.26,3.85s4.01-1.33,7.11-2.08c3.1-.75.97-4.04.97-4.04l-1.4-2.12-4.19.63-6.41-2.38-3.16-7.69s3.23,1.9,6.47,4.24c3.25,2.33,5.22-2.76,5.22-2.76l3.58-4.1s1.08-5.05-1.09-4.43c-2.17.63-1.59.58-4.4,1.1-2.81.52-3.13.15-3.13.15l-4.84-3.94-.23-3.9,5.99,3.26s4.13-2.43,8.81-6.76c3.42-3.18,1.66-3.6.47-3.6-.44,0-.8.06-.8.06l-5.63.63-3.68-4.65s5.95-.77,8.56-.97c2.61-.19,6.61-4.4,6.61-4.4l3.17-4.04-1.15-1.61-9.01,2.64c.14-.08.73-.44,3.31-1.99,3.35-2.02,6.1-4.45,9.72-9.94.05-.07,1.18-1.8,1.55-2.36.39.56.87,1.23,1.47,2.02.55.73,1.18,1.58,1.93,2.54,3.93,5.06,3.09,5.07,6.55,6.7l3.46,1.64-9.18-1.64,2.34,5.41s4.24,3.75,6.85,3.65c2.61-.1,8.59,0,8.59,0l-3.4,5.05h-5.65l-2.18,1.26s-3.63.95,1.29,4.75c4.92,3.8,9.94,3.31,9.94,3.31l5.78-3.91v3.91l-4.59,4.47s-3.13.2-5.96,0c-2.83-.2-3.31-1.51-5.27-.09-1.51,1.09,2.82,4.23,2.82,4.23l3.81,3.68s2.27,4.85,5.37,2.16c3.1-2.69,6.21-4.95,6.21-4.95l-2.7,8.01-6.25,3.1-8.24-2.71-1.54,4.13s.62,2.52,3.76,2.92c3.14.4,8.94,2.97,8.94,2.97l6.02-4.54,4.23-3.13Z"/>
  </g>
  <g>
    <polygon class="cls-28" points="249.36 422.69 252.39 404.75 252.39 383.96 255.24 366.21 255.24 389.18 257.18 409.7 255.88 415.84 255.78 421.08 256.22 422.69 249.36 422.69"/>
    <path class="cls-32" d="M284.26,391.53l-2.19,7.73-4.33,1.84-7.16,1.15h-4.6l-4.58,2.16h-5.47l-3.18.34-4.7-1.66-4.59.49-7.2-.38-4.43-1.36-2.65-7.47,3.59,2.07,5.11,3.02s3.27-1.05,5.81-1.64c2.53-.59.79-3.18.79-3.18l-1.15-1.66-3.42.49-5.23-1.87-2.58-6.04s2.63,1.49,5.29,3.33c2.65,1.83,4.26-2.16,4.26-2.16l2.93-3.22s.88-3.96-.89-3.48c-1.77.49-1.3.45-3.59.86-2.29.41-2.55.12-2.55.12l-3.95-3.09-.19-3.07,4.89,2.56s3.37-1.9,7.19-5.31c2.79-2.49,1.35-2.83.38-2.83-.36,0-.65.04-.65.04l-4.6.49-3-3.65s4.86-.6,6.99-.76c2.13-.15,5.4-3.46,5.4-3.46l2.59-3.17-.94-1.27-7.36,2.07c.11-.07.59-.34,2.7-1.56,2.74-1.59,4.98-3.5,7.93-7.81.04-.06.97-1.41,1.27-1.85.32.44.71.96,1.2,1.59.45.58.97,1.24,1.58,1.99,3.21,3.97,2.52,3.98,5.35,5.26l2.82,1.29-7.5-1.29,1.91,4.25s3.46,2.95,5.59,2.87c2.13-.08,7.01,0,7.01,0l-2.77,3.96h-4.61l-1.78.99s-2.96.75,1.05,3.73c4.01,2.99,8.12,2.6,8.12,2.6l4.72-3.07v3.07l-3.75,3.51s-2.55.16-4.86,0c-2.31-.16-2.7-1.19-4.3-.07-1.23.85,2.3,3.32,2.3,3.32l3.11,2.89s1.85,3.81,4.38,1.7c2.53-2.11,5.07-3.89,5.07-3.89l-2.2,6.29-5.1,2.43-6.73-2.12-1.26,3.25s.51,1.98,3.07,2.29c2.56.32,7.3,2.33,7.3,2.33l4.91-3.56,3.45-2.45Z"/>
  </g>
  <g>
    <polygon class="cls-28" points="211.09 334.98 214.12 317.05 214.12 296.25 216.97 278.5 216.97 301.48 218.91 322 217.61 328.13 217.51 333.38 217.95 334.98 211.09 334.98"/>
    <path class="cls-32" d="M245.99,303.82l-2.19,7.73-4.33,1.84-7.16,1.15h-4.6l-4.58,2.16h-5.47l-3.18.34-4.7-1.66-4.59.49-7.2-.38-4.43-1.36-2.65-7.47,3.59,2.07,5.11,3.02s3.27-1.05,5.81-1.64c2.53-.59.79-3.18.79-3.18l-1.15-1.66-3.42.49-5.23-1.87-2.58-6.04s2.63,1.49,5.29,3.33c2.65,1.83,4.26-2.16,4.26-2.16l2.93-3.22s.88-3.96-.89-3.48c-1.77.49-1.3.45-3.59.86-2.29.41-2.55.12-2.55.12l-3.95-3.09-.19-3.07,4.89,2.56s3.37-1.9,7.19-5.31c2.79-2.49,1.35-2.83.38-2.83-.36,0-.65.04-.65.04l-4.6.49-3-3.65s4.86-.6,6.99-.76c2.13-.15,5.4-3.46,5.4-3.46l2.59-3.17-.94-1.27-7.36,2.07c.11-.07.59-.34,2.7-1.56,2.74-1.59,4.98-3.5,7.93-7.81.04-.06.97-1.41,1.27-1.85.32.44.71.96,1.2,1.59.45.58.97,1.24,1.58,1.99,3.21,3.97,2.52,3.98,5.35,5.26l2.82,1.29-7.5-1.29,1.91,4.25s3.46,2.95,5.59,2.87c2.13-.08,7.01,0,7.01,0l-2.77,3.96h-4.61l-1.78.99s-2.96.75,1.05,3.73c4.01,2.99,8.12,2.6,8.12,2.6l4.72-3.07v3.07l-3.75,3.51s-2.55.16-4.86,0c-2.31-.16-2.7-1.19-4.3-.07-1.23.85,2.3,3.32,2.3,3.32l3.11,2.89s1.85,3.81,4.38,1.7c2.53-2.11,5.07-3.89,5.07-3.89l-2.2,6.29-5.1,2.43-6.73-2.12-1.26,3.25s.51,1.98,3.07,2.29c2.56.32,7.3,2.33,7.3,2.33l4.91-3.56,3.45-2.45Z"/>
  </g>
  <g>
    <polygon class="cls-28" points="426.16 153.03 429.19 135.09 429.19 114.3 432.04 96.55 432.04 119.52 433.98 140.04 432.68 146.18 432.58 151.42 433.01 153.03 426.16 153.03"/>
    <path class="cls-32" d="M461.05,121.87l-2.19,7.73-4.33,1.84-7.16,1.15h-4.6l-4.58,2.16h-5.47l-3.18.34-4.7-1.66-4.59.49-7.2-.38-4.43-1.36-2.65-7.47,3.59,2.07,5.11,3.02s3.27-1.05,5.81-1.64c2.53-.59.79-3.18.79-3.18l-1.15-1.66-3.42.49-5.23-1.87-2.58-6.04s2.63,1.49,5.29,3.33c2.65,1.83,4.26-2.16,4.26-2.16l2.93-3.22s.88-3.96-.89-3.48c-1.77.49-1.3.45-3.59.86-2.29.41-2.55.12-2.55.12l-3.95-3.09-.19-3.07,4.89,2.56s3.37-1.9,7.19-5.31c2.79-2.49,1.35-2.83.38-2.83-.36,0-.65.04-.65.04l-4.6.49-3-3.65s4.86-.6,6.99-.76c2.13-.15,5.4-3.46,5.4-3.46l2.59-3.17-.94-1.27-7.36,2.07c.11-.07.59-.34,2.7-1.56,2.74-1.59,4.98-3.5,7.93-7.81.04-.06.97-1.41,1.27-1.85.32.44.71.96,1.2,1.59.45.58.97,1.24,1.58,1.99,3.21,3.97,2.52,3.98,5.35,5.26l2.82,1.29-7.5-1.29,1.91,4.25s3.46,2.95,5.59,2.87c2.13-.08,7.01,0,7.01,0l-2.77,3.96h-4.61l-1.78.99s-2.96.75,1.05,3.73c4.01,2.99,8.12,2.6,8.12,2.6l4.72-3.07v3.07l-3.75,3.51s-2.55.16-4.86,0c-2.31-.16-2.7-1.19-4.3-.07-1.23.85,2.3,3.32,2.3,3.32l3.11,2.89s1.85,3.81,4.38,1.7c2.53-2.11,5.07-3.89,5.07-3.89l-2.2,6.29-5.1,2.43-6.73-2.12-1.26,3.25s.51,1.98,3.07,2.29c2.56.32,7.3,2.33,7.3,2.33l4.91-3.56,3.45-2.45Z"/>
  </g>
  <g>
    <polygon class="cls-28" points="965.59 479.55 968.62 461.61 968.62 440.82 971.47 423.07 971.47 446.04 973.41 466.56 972.12 472.7 972.01 477.94 972.45 479.55 965.59 479.55"/>
    <path class="cls-32" d="M1000.49,448.39l-2.19,7.73-4.33,1.84-7.16,1.15h-4.6l-4.58,2.16h-5.47l-3.18.34-4.7-1.66-4.59.49-7.2-.38-4.43-1.36-2.65-7.47,3.59,2.07,5.11,3.02s3.27-1.05,5.81-1.64c2.53-.59.79-3.18.79-3.18l-1.15-1.66-3.42.49-5.23-1.87-2.58-6.04s2.63,1.49,5.29,3.33c2.65,1.83,4.26-2.16,4.26-2.16l2.93-3.22s.88-3.96-.89-3.48c-1.77.49-1.3.45-3.59.86-2.29.41-2.55.12-2.55.12l-3.95-3.09-.19-3.07,4.89,2.56s3.37-1.9,7.19-5.31c2.79-2.49,1.35-2.83.38-2.83-.36,0-.65.04-.65.04l-4.6.49-3-3.65s4.86-.6,6.99-.76c2.13-.15,5.4-3.46,5.4-3.46l2.59-3.17-.94-1.27-7.36,2.07c.11-.07.59-.34,2.7-1.56,2.74-1.59,4.98-3.5,7.93-7.81.04-.06.97-1.41,1.27-1.85.32.44.71.96,1.2,1.59.45.58.97,1.24,1.58,1.99,3.21,3.97,2.52,3.98,5.35,5.26l2.82,1.29-7.5-1.29,1.91,4.25s3.46,2.95,5.59,2.87c2.13-.08,7.01,0,7.01,0l-2.77,3.96h-4.61l-1.78.99s-2.96.75,1.05,3.73c4.01,2.99,8.12,2.6,8.12,2.6l4.72-3.07v3.07l-3.75,3.51s-2.55.16-4.86,0c-2.31-.16-2.7-1.19-4.3-.07-1.23.85,2.3,3.32,2.3,3.32l3.11,2.89s1.85,3.81,4.38,1.7c2.53-2.11,5.07-3.89,5.07-3.89l-2.2,6.29-5.1,2.43-6.73-2.12-1.26,3.25s.51,1.98,3.07,2.29c2.56.32,7.3,2.33,7.3,2.33l4.91-3.56,3.45-2.45Z"/>
  </g>
  <g>
    <polygon class="cls-28" points="355.45 144.5 358.48 126.56 358.48 105.77 361.33 88.02 361.33 110.99 363.27 131.51 361.98 137.65 361.87 142.9 362.31 144.5 355.45 144.5"/>
    <path class="cls-32" d="M390.35,113.34l-2.19,7.73-4.33,1.84-7.16,1.15h-4.6l-4.58,2.16h-5.47l-3.18.34-4.7-1.66-4.59.49-7.2-.38-4.43-1.36-2.65-7.47,3.59,2.07,5.11,3.02s3.27-1.05,5.81-1.64c2.53-.59.79-3.18.79-3.18l-1.15-1.66-3.42.49-5.23-1.87-2.58-6.04s2.63,1.49,5.29,3.33c2.65,1.83,4.26-2.16,4.26-2.16l2.93-3.22s.88-3.96-.89-3.48c-1.77.49-1.3.45-3.59.86-2.29.41-2.55.12-2.55.12l-3.95-3.09-.19-3.07,4.89,2.56s3.37-1.9,7.19-5.31c2.79-2.49,1.35-2.83.38-2.83-.36,0-.65.04-.65.04l-4.6.49-3-3.65s4.86-.6,6.99-.76c2.13-.15,5.4-3.46,5.4-3.46l2.59-3.17-.94-1.27-7.36,2.07c.11-.07.59-.34,2.7-1.56,2.74-1.59,4.98-3.5,7.93-7.81.04-.06.97-1.41,1.27-1.85.32.44.71.96,1.2,1.59.45.58.97,1.24,1.58,1.99,3.21,3.97,2.52,3.98,5.35,5.26l2.82,1.29-7.5-1.29,1.91,4.25s3.46,2.95,5.59,2.87c2.13-.08,7.01,0,7.01,0l-2.77,3.96h-4.61l-1.78.99s-2.96.75,1.05,3.73c4.01,2.99,8.12,2.6,8.12,2.6l4.72-3.07v3.07l-3.75,3.51s-2.55.16-4.86,0c-2.31-.16-2.7-1.19-4.3-.07-1.23.85,2.3,3.32,2.3,3.32l3.11,2.89s1.85,3.81,4.38,1.7c2.53-2.11,5.07-3.89,5.07-3.89l-2.2,6.29-5.1,2.43-6.73-2.12-1.26,3.25s.51,1.98,3.07,2.29c2.56.32,7.3,2.33,7.3,2.33l4.91-3.56,3.45-2.45Z"/>
  </g>
  <g>
    <polygon class="cls-28" points="97.01 314.77 93.95 297.18 93.95 276.79 91.07 259.39 91.07 281.92 89.11 302.04 90.42 308.05 90.53 313.2 90.08 314.77 97.01 314.77"/>
    <path class="cls-32" d="M61.74,284.22l2.21,7.58,4.37,1.8,7.24,1.13h4.65s4.63,2.12,4.63,2.12h5.53s3.22.34,3.22.34l4.75-1.63,4.64.48,7.28-.37,4.47-1.33,2.68-7.32-3.63,2.03-5.17,2.96s-3.31-1.03-5.87-1.61c-2.56-.58-.8-3.11-.8-3.11l1.16-1.63,3.46.48,5.29-1.84,2.6-5.92s-2.66,1.47-5.34,3.26c-2.68,1.8-4.31-2.12-4.31-2.12l-2.96-3.16s-.89-3.89.9-3.41c1.79.48,1.31.45,3.63.84,2.32.4,2.58.11,2.58.11l3.99-3.03.19-3.01-4.94,2.51s-3.4-1.87-7.27-5.21c-2.82-2.45-1.37-2.77-.39-2.77.36,0,.66.04.66.04l4.65.48,3.04-3.58s-4.91-.59-7.06-.74c-2.15-.15-5.46-3.39-5.46-3.39l-2.61-3.11.95-1.24,7.44,2.03c-.11-.06-.6-.34-2.73-1.53-2.77-1.56-5.03-3.43-8.02-7.65-.04-.06-.98-1.38-1.28-1.82-.32.43-.72.94-1.21,1.56-.45.56-.98,1.21-1.59,1.95-3.24,3.9-2.55,3.9-5.41,5.16l-2.85,1.26,7.58-1.26-1.93,4.16s-3.5,2.89-5.65,2.81c-2.15-.08-7.09,0-7.09,0l2.8,3.89h4.66s1.8.97,1.8.97c0,0,3,.73-1.06,3.66-4.06,2.93-8.2,2.55-8.2,2.55l-4.77-3.01v3.01s3.79,3.44,3.79,3.44c0,0,2.58.15,4.92,0,2.34-.15,2.73-1.16,4.35-.07,1.24.84-2.32,3.25-2.32,3.25l-3.15,2.84s-1.87,3.74-4.43,1.66c-2.56-2.07-5.12-3.81-5.12-3.81l2.22,6.17,5.16,2.38,6.8-2.08,1.27,3.18s-.51,1.94-3.1,2.25c-2.59.31-7.38,2.28-7.38,2.28l-4.97-3.49-3.49-2.41Z"/>
  </g>
  <g>
    <polygon class="cls-28" points="105.3 177.76 102.23 160.18 102.23 139.79 99.35 122.38 99.35 144.91 97.39 165.03 98.7 171.05 98.81 176.19 98.37 177.76 105.3 177.76"/>
    <path class="cls-32" d="M70.02,147.21l2.21,7.58,4.37,1.8,7.24,1.13h4.65s4.63,2.12,4.63,2.12h5.53s3.22.34,3.22.34l4.75-1.63,4.64.48,7.28-.37,4.47-1.33,2.68-7.32-3.63,2.03-5.17,2.96s-3.31-1.03-5.87-1.61c-2.56-.58-.8-3.11-.8-3.11l1.16-1.63,3.46.48,5.29-1.84,2.6-5.92s-2.66,1.47-5.34,3.26c-2.68,1.8-4.31-2.12-4.31-2.12l-2.96-3.16s-.89-3.89.9-3.41c1.79.48,1.31.45,3.63.84,2.32.4,2.58.11,2.58.11l3.99-3.03.19-3.01-4.94,2.51s-3.4-1.87-7.27-5.21c-2.82-2.45-1.37-2.77-.39-2.77.36,0,.66.04.66.04l4.65.48,3.04-3.58s-4.91-.59-7.06-.74c-2.15-.15-5.46-3.39-5.46-3.39l-2.61-3.11.95-1.24,7.44,2.03c-.11-.06-.6-.34-2.73-1.53-2.77-1.56-5.03-3.43-8.02-7.65-.04-.06-.98-1.38-1.28-1.82-.32.43-.72.94-1.21,1.56-.45.56-.98,1.21-1.59,1.95-3.24,3.9-2.55,3.9-5.41,5.16l-2.85,1.26,7.58-1.26-1.93,4.16s-3.5,2.89-5.65,2.81c-2.15-.08-7.09,0-7.09,0l2.8,3.89h4.66s1.8.97,1.8.97c0,0,3,.73-1.06,3.66-4.06,2.93-8.2,2.55-8.2,2.55l-4.77-3.01v3.01s3.79,3.44,3.79,3.44c0,0,2.58.15,4.92,0,2.34-.15,2.73-1.16,4.35-.07,1.24.84-2.32,3.25-2.32,3.25l-3.15,2.84s-1.87,3.74-4.43,1.66c-2.56-2.07-5.12-3.81-5.12-3.81l2.22,6.17,5.16,2.38,6.8-2.08,1.27,3.18s-.51,1.94-3.1,2.25c-2.59.31-7.38,2.28-7.38,2.28l-4.97-3.49-3.49-2.41Z"/>
  </g>
  <g>
    <polygon class="cls-28" points="664.96 585.27 661.89 567.68 661.89 547.29 659.01 529.89 659.01 552.41 657.05 572.53 658.36 578.55 658.47 583.69 658.02 585.27 664.96 585.27"/>
    <path class="cls-32" d="M629.68,554.71l2.21,7.58,4.37,1.8,7.24,1.13h4.65s4.63,2.12,4.63,2.12h5.53s3.22.34,3.22.34l4.75-1.63,4.64.48,7.28-.37,4.47-1.33,2.68-7.32-3.63,2.03-5.17,2.96s-3.31-1.03-5.87-1.61c-2.56-.58-.8-3.11-.8-3.11l1.16-1.63,3.46.48,5.29-1.84,2.6-5.92s-2.66,1.47-5.34,3.26c-2.68,1.8-4.31-2.12-4.31-2.12l-2.96-3.16s-.89-3.89.9-3.41c1.79.48,1.31.45,3.63.84,2.32.4,2.58.11,2.58.11l3.99-3.03.19-3.01-4.94,2.51s-3.4-1.87-7.27-5.21c-2.82-2.45-1.37-2.77-.39-2.77.36,0,.66.04.66.04l4.65.48,3.04-3.58s-4.91-.59-7.06-.74c-2.15-.15-5.46-3.39-5.46-3.39l-2.61-3.11.95-1.24,7.44,2.03c-.11-.06-.6-.34-2.73-1.53-2.77-1.56-5.03-3.43-8.02-7.65-.04-.06-.98-1.38-1.28-1.82-.32.43-.72.94-1.21,1.56-.45.56-.98,1.21-1.59,1.95-3.24,3.9-2.55,3.9-5.41,5.16l-2.85,1.26,7.58-1.26-1.93,4.16s-3.5,2.89-5.65,2.81c-2.15-.08-7.09,0-7.09,0l2.8,3.89h4.66s1.8.97,1.8.97c0,0,3,.73-1.06,3.66-4.06,2.93-8.2,2.55-8.2,2.55l-4.77-3.01v3.01s3.79,3.44,3.79,3.44c0,0,2.58.15,4.92,0,2.34-.15,2.73-1.16,4.35-.07,1.24.84-2.32,3.25-2.32,3.25l-3.15,2.84s-1.87,3.74-4.43,1.66c-2.56-2.07-5.12-3.81-5.12-3.81l2.22,6.17,5.16,2.38,6.8-2.08,1.27,3.18s-.51,1.94-3.1,2.25c-2.59.31-7.38,2.28-7.38,2.28l-4.97-3.49-3.49-2.41Z"/>
  </g>
  <g>
    <polygon class="cls-28" points="833.1 339.43 830.04 321.84 830.04 301.45 827.16 284.05 827.16 306.57 825.2 326.69 826.5 332.71 826.61 337.85 826.17 339.43 833.1 339.43"/>
    <path class="cls-32" d="M797.83,308.87l2.21,7.58,4.37,1.8,7.24,1.13h4.65s4.63,2.12,4.63,2.12h5.53s3.22.34,3.22.34l4.75-1.63,4.64.48,7.28-.37,4.47-1.33,2.68-7.32-3.63,2.03-5.17,2.96s-3.31-1.03-5.87-1.61c-2.56-.58-.8-3.11-.8-3.11l1.16-1.63,3.46.48,5.29-1.84,2.6-5.92s-2.66,1.47-5.34,3.26c-2.68,1.8-4.31-2.12-4.31-2.12l-2.96-3.16s-.89-3.89.9-3.41c1.79.48,1.31.45,3.63.84,2.32.4,2.58.11,2.58.11l3.99-3.03.19-3.01-4.94,2.51s-3.4-1.87-7.27-5.21c-2.82-2.45-1.37-2.77-.39-2.77.36,0,.66.04.66.04l4.65.48,3.04-3.58s-4.91-.59-7.06-.74c-2.15-.15-5.46-3.39-5.46-3.39l-2.61-3.11.95-1.24,7.44,2.03c-.11-.06-.6-.34-2.73-1.53-2.77-1.56-5.03-3.43-8.02-7.65-.04-.06-.98-1.38-1.28-1.82-.32.43-.72.94-1.21,1.56-.45.56-.98,1.21-1.59,1.95-3.24,3.9-2.55,3.9-5.41,5.16l-2.85,1.26,7.58-1.26-1.93,4.16s-3.5,2.89-5.65,2.81c-2.15-.08-7.09,0-7.09,0l2.8,3.89h4.66s1.8.97,1.8.97c0,0,3,.73-1.06,3.66-4.06,2.93-8.2,2.55-8.2,2.55l-4.77-3.01v3.01s3.79,3.44,3.79,3.44c0,0,2.58.15,4.92,0,2.34-.15,2.73-1.16,4.35-.07,1.24.84-2.32,3.25-2.32,3.25l-3.15,2.84s-1.87,3.74-4.43,1.66c-2.56-2.07-5.12-3.81-5.12-3.81l2.22,6.17,5.16,2.38,6.8-2.08,1.27,3.18s-.51,1.94-3.1,2.25c-2.59.31-7.38,2.28-7.38,2.28l-4.97-3.49-3.49-2.41Z"/>
  </g>
  <polygon class="cls-32" points="941.31 269.52 938.24 251.94 938.24 231.55 935.37 214.15 935.37 236.67 933.41 256.79 934.71 262.81 934.82 267.95 934.38 269.52 941.31 269.52"/>
  <path class="cls-28" d="M909.52,232.19l2.21,7.58,4.37,1.8,7.24,1.13h4.65s4.63,2.12,4.63,2.12h5.53s3.22.34,3.22.34l4.75-1.63,4.64.48,7.28-.37,4.47-1.33,2.68-7.32-3.63,2.03-5.17,2.96s-3.31-1.03-5.87-1.61c-2.56-.58-.8-3.11-.8-3.11l1.16-1.63,3.46.48,5.29-1.84,2.6-5.92s-2.66,1.47-5.34,3.26c-2.68,1.8-4.31-2.12-4.31-2.12l-2.96-3.16s-.89-3.89.9-3.41c1.79.48,1.31.45,3.63.84,2.32.4,2.58.11,2.58.11l3.99-3.03.19-3.01-4.94,2.51s-3.4-1.87-7.27-5.21c-2.82-2.45-1.37-2.77-.39-2.77.36,0,.66.04.66.04l4.65.48,3.04-3.58s-4.91-.59-7.06-.74c-2.15-.15-5.46-3.39-5.46-3.39l-2.61-3.11.95-1.24,7.44,2.03c-.11-.06-.6-.34-2.73-1.53-2.77-1.56-5.03-3.43-8.02-7.65-.04-.06-.98-1.38-1.28-1.82-.32.43-.72.94-1.21,1.56-.45.56-.98,1.21-1.59,1.95-3.24,3.9-2.55,3.9-5.41,5.16l-2.85,1.26,7.58-1.26-1.93,4.16s-3.5,2.89-5.65,2.81c-2.15-.08-7.09,0-7.09,0l2.8,3.89h4.66s1.8.97,1.8.97c0,0,3,.73-1.06,3.66-4.06,2.93-8.2,2.55-8.2,2.55l-4.77-3.01v3.01s3.79,3.44,3.79,3.44c0,0,2.58.15,4.92,0,2.34-.15,2.73-1.16,4.35-.07,1.24.84-2.32,3.25-2.32,3.25l-3.15,2.84s-1.87,3.74-4.43,1.66c-2.56-2.07-5.12-3.81-5.12-3.81l2.22,6.17,5.16,2.38,6.8-2.08,1.27,3.18s-.51,1.94-3.1,2.25c-2.59.31-7.38,2.28-7.38,2.28l-4.97-3.49-3.49-2.41Z"/>
  <g>
    <polygon class="cls-32" points="886.74 281.58 883.68 264 883.68 243.61 880.8 226.21 880.8 248.73 878.84 268.85 880.15 274.87 880.26 280.01 879.81 281.58 886.74 281.58"/>
    <path class="cls-28" d="M851.47,251.03l2.21,7.58,4.37,1.8,7.24,1.13h4.65s4.63,2.12,4.63,2.12h5.53s3.22.34,3.22.34l4.75-1.63,4.64.48,7.28-.37,4.47-1.33,2.68-7.32-3.63,2.03-5.17,2.96s-3.31-1.03-5.87-1.61c-2.56-.58-.8-3.11-.8-3.11l1.16-1.63,3.46.48,5.29-1.84,2.6-5.92s-2.66,1.47-5.34,3.26c-2.68,1.8-4.31-2.12-4.31-2.12l-2.96-3.16s-.89-3.89.9-3.41c1.79.48,1.31.45,3.63.84,2.32.4,2.58.11,2.58.11l3.99-3.03.19-3.01-4.94,2.51s-3.4-1.87-7.27-5.21c-2.82-2.45-1.37-2.77-.39-2.77.36,0,.66.04.66.04l4.65.48,3.04-3.58s-4.91-.59-7.06-.74c-2.15-.15-5.46-3.39-5.46-3.39l-2.61-3.11.95-1.24,7.44,2.03c-.11-.06-.6-.34-2.73-1.53-2.77-1.56-5.03-3.43-8.02-7.65-.04-.06-.98-1.38-1.28-1.82-.32.43-.72.94-1.21,1.56-.45.56-.98,1.21-1.59,1.95-3.24,3.9-2.55,3.9-5.41,5.16l-2.85,1.26,7.58-1.26-1.93,4.16s-3.5,2.89-5.65,2.81c-2.15-.08-7.09,0-7.09,0l2.8,3.89h4.66s1.8.97,1.8.97c0,0,3,.73-1.06,3.66-4.06,2.93-8.2,2.55-8.2,2.55l-4.77-3.01v3.01s3.79,3.44,3.79,3.44c0,0,2.58.15,4.92,0,2.34-.15,2.73-1.16,4.35-.07,1.24.84-2.32,3.25-2.32,3.25l-3.15,2.84s-1.87,3.74-4.43,1.66c-2.56-2.07-5.12-3.81-5.12-3.81l2.22,6.17,5.16,2.38,6.8-2.08,1.27,3.18s-.51,1.94-3.1,2.25c-2.59.31-7.38,2.28-7.38,2.28l-4.97-3.49-3.49-2.41Z"/>
  </g>
  <g>
    <polygon class="cls-32" points="713.86 606.25 710.79 588.66 710.79 568.27 707.91 550.87 707.91 573.39 705.95 593.51 707.26 599.53 707.37 604.67 706.93 606.25 713.86 606.25"/>
    <path class="cls-28" d="M678.58,575.69l2.21,7.58,4.37,1.8,7.24,1.13h4.65s4.63,2.12,4.63,2.12h5.53s3.22.34,3.22.34l4.75-1.63,4.64.48,7.28-.37,4.47-1.33,2.68-7.32-3.63,2.03-5.17,2.96s-3.31-1.03-5.87-1.61c-2.56-.58-.8-3.11-.8-3.11l1.16-1.63,3.46.48,5.29-1.84,2.6-5.92s-2.66,1.47-5.34,3.26c-2.68,1.8-4.31-2.12-4.31-2.12l-2.96-3.16s-.89-3.89.9-3.41c1.79.48,1.31.45,3.63.84,2.32.4,2.58.11,2.58.11l3.99-3.03.19-3.01-4.94,2.51s-3.4-1.87-7.27-5.21c-2.82-2.45-1.37-2.77-.39-2.77.36,0,.66.04.66.04l4.65.48,3.04-3.58s-4.91-.59-7.06-.74c-2.15-.15-5.46-3.39-5.46-3.39l-2.61-3.11.95-1.24,7.44,2.03c-.11-.06-.6-.34-2.73-1.53-2.77-1.56-5.03-3.43-8.02-7.65-.04-.06-.98-1.38-1.28-1.82-.32.43-.72.94-1.21,1.56-.45.56-.98,1.21-1.59,1.95-3.24,3.9-2.55,3.9-5.41,5.16l-2.85,1.26,7.58-1.26-1.93,4.16s-3.5,2.89-5.65,2.81c-2.15-.08-7.09,0-7.09,0l2.8,3.89h4.66s1.8.97,1.8.97c0,0,3,.73-1.06,3.66-4.06,2.93-8.2,2.55-8.2,2.55l-4.77-3.01v3.01s3.79,3.44,3.79,3.44c0,0,2.58.15,4.92,0,2.34-.15,2.73-1.16,4.35-.07,1.24.84-2.32,3.25-2.32,3.25l-3.15,2.84s-1.87,3.74-4.43,1.66c-2.56-2.07-5.12-3.81-5.12-3.81l2.22,6.17,5.16,2.38,6.8-2.08,1.27,3.18s-.51,1.94-3.1,2.25c-2.59.31-7.38,2.28-7.38,2.28l-4.97-3.49-3.49-2.41Z"/>
  </g>
  <g>
    <polygon class="cls-32" points="783.84 362.83 780.77 345.24 780.77 324.85 777.89 307.45 777.89 329.98 775.93 350.1 777.24 356.11 777.35 361.26 776.91 362.83 783.84 362.83"/>
    <path class="cls-28" d="M748.56,332.28l2.21,7.58,4.37,1.8,7.24,1.13h4.65s4.63,2.12,4.63,2.12h5.53s3.22.34,3.22.34l4.75-1.63,4.64.48,7.28-.37,4.47-1.33,2.68-7.32-3.63,2.03-5.17,2.96s-3.31-1.03-5.87-1.61c-2.56-.58-.8-3.11-.8-3.11l1.16-1.63,3.46.48,5.29-1.84,2.6-5.92s-2.66,1.47-5.34,3.26c-2.68,1.8-4.31-2.12-4.31-2.12l-2.96-3.16s-.89-3.89.9-3.41c1.79.48,1.31.45,3.63.84,2.32.4,2.58.11,2.58.11l3.99-3.03.19-3.01-4.94,2.51s-3.4-1.87-7.27-5.21c-2.82-2.45-1.37-2.77-.39-2.77.36,0,.66.04.66.04l4.65.48,3.04-3.58s-4.91-.59-7.06-.74c-2.15-.15-5.46-3.39-5.46-3.39l-2.61-3.11.95-1.24,7.44,2.03c-.11-.06-.6-.34-2.73-1.53-2.77-1.56-5.03-3.43-8.02-7.65-.04-.06-.98-1.38-1.28-1.82-.32.43-.72.94-1.21,1.56-.45.56-.98,1.21-1.59,1.95-3.24,3.9-2.55,3.9-5.41,5.16l-2.85,1.26,7.58-1.26-1.93,4.16s-3.5,2.89-5.65,2.81c-2.15-.08-7.09,0-7.09,0l2.8,3.89h4.66s1.8.97,1.8.97c0,0,3,.73-1.06,3.66-4.06,2.93-8.2,2.55-8.2,2.55l-4.77-3.01v3.01s3.79,3.44,3.79,3.44c0,0,2.58.15,4.92,0,2.34-.15,2.73-1.16,4.35-.07,1.24.84-2.32,3.25-2.32,3.25l-3.15,2.84s-1.87,3.74-4.43,1.66c-2.56-2.07-5.12-3.81-5.12-3.81l2.22,6.17,5.16,2.38,6.8-2.08,1.27,3.18s-.51,1.94-3.1,2.25c-2.59.31-7.38,2.28-7.38,2.28l-4.97-3.49-3.49-2.41Z"/>
  </g>
  <g>
    <polygon class="cls-32" points="389.5 211.15 386.44 193.56 386.44 173.17 383.56 155.77 383.56 178.29 381.6 198.41 382.91 204.43 383.02 209.57 382.57 211.15 389.5 211.15"/>
    <path class="cls-28" d="M354.23,180.59l2.21,7.58,4.37,1.8,7.24,1.13h4.65s4.63,2.12,4.63,2.12h5.53s3.22.34,3.22.34l4.75-1.63,4.64.48,7.28-.37,4.47-1.33,2.68-7.32-3.63,2.03-5.17,2.96s-3.31-1.03-5.87-1.61c-2.56-.58-.8-3.11-.8-3.11l1.16-1.63,3.46.48,5.29-1.84,2.6-5.92s-2.66,1.47-5.34,3.26c-2.68,1.8-4.31-2.12-4.31-2.12l-2.96-3.16s-.89-3.89.9-3.41c1.79.48,1.31.45,3.63.84,2.32.4,2.58.11,2.58.11l3.99-3.03.19-3.01-4.94,2.51s-3.4-1.87-7.27-5.21c-2.82-2.45-1.37-2.77-.39-2.77.36,0,.66.04.66.04l4.65.48,3.04-3.58s-4.91-.59-7.06-.74c-2.15-.15-5.46-3.39-5.46-3.39l-2.61-3.11.95-1.24,7.44,2.03c-.11-.06-.6-.34-2.73-1.53-2.77-1.56-5.03-3.43-8.02-7.65-.04-.06-.98-1.38-1.28-1.82-.32.43-.72.94-1.21,1.56-.45.56-.98,1.21-1.59,1.95-3.24,3.9-2.55,3.9-5.41,5.16l-2.85,1.26,7.58-1.26-1.93,4.16s-3.5,2.89-5.65,2.81c-2.15-.08-7.09,0-7.09,0l2.8,3.89h4.66s1.8.97,1.8.97c0,0,3,.73-1.06,3.66-4.06,2.93-8.2,2.55-8.2,2.55l-4.77-3.01v3.01s3.79,3.44,3.79,3.44c0,0,2.58.15,4.92,0,2.34-.15,2.73-1.16,4.35-.07,1.24.84-2.32,3.25-2.32,3.25l-3.15,2.84s-1.87,3.74-4.43,1.66c-2.56-2.07-5.12-3.81-5.12-3.81l2.22,6.17,5.16,2.38,6.8-2.08,1.27,3.18s-.51,1.94-3.1,2.25c-2.59.31-7.38,2.28-7.38,2.28l-4.97-3.49-3.49-2.41Z"/>
  </g>
  <g>
    <polygon class="cls-32" points="345.1 436.7 342.03 419.11 342.03 398.72 339.15 381.32 339.15 403.84 337.19 423.96 338.5 429.98 338.61 435.12 338.16 436.7 345.1 436.7"/>
    <path class="cls-28" d="M309.82,406.14l2.21,7.58,4.37,1.8,7.24,1.13h4.65s4.63,2.12,4.63,2.12h5.53s3.22.34,3.22.34l4.75-1.63,4.64.48,7.28-.37,4.47-1.33,2.68-7.32-3.63,2.03-5.17,2.96s-3.31-1.03-5.87-1.61c-2.56-.58-.8-3.11-.8-3.11l1.16-1.63,3.46.48,5.29-1.84,2.6-5.92s-2.66,1.47-5.34,3.26c-2.68,1.8-4.31-2.12-4.31-2.12l-2.96-3.16s-.89-3.89.9-3.41c1.79.48,1.31.45,3.63.84,2.32.4,2.58.11,2.58.11l3.99-3.03.19-3.01-4.94,2.51s-3.4-1.87-7.27-5.21c-2.82-2.45-1.37-2.77-.39-2.77.36,0,.66.04.66.04l4.65.48,3.04-3.58s-4.91-.59-7.06-.74c-2.15-.15-5.46-3.39-5.46-3.39l-2.61-3.11.95-1.24,7.44,2.03c-.11-.06-.6-.34-2.73-1.53-2.77-1.56-5.03-3.43-8.02-7.65-.04-.06-.98-1.38-1.28-1.82-.32.43-.72.94-1.21,1.56-.45.56-.98,1.21-1.59,1.95-3.24,3.9-2.55,3.9-5.41,5.16l-2.85,1.26,7.58-1.26-1.93,4.16s-3.5,2.89-5.65,2.81c-2.15-.08-7.09,0-7.09,0l2.8,3.89h4.66s1.8.97,1.8.97c0,0,3,.73-1.06,3.66-4.06,2.93-8.2,2.55-8.2,2.55l-4.77-3.01v3.01s3.79,3.44,3.79,3.44c0,0,2.58.15,4.92,0,2.34-.15,2.73-1.16,4.35-.07,1.24.84-2.32,3.25-2.32,3.25l-3.15,2.84s-1.87,3.74-4.43,1.66c-2.56-2.07-5.12-3.81-5.12-3.81l2.22,6.17,5.16,2.38,6.8-2.08,1.27,3.18s-.51,1.94-3.1,2.25c-2.59.31-7.38,2.28-7.38,2.28l-4.97-3.49-3.49-2.41Z"/>
  </g>
  <g>
    <polygon class="cls-32" points="614.13 610.88 611.06 593.29 611.06 572.9 608.18 555.5 608.18 578.02 606.22 598.14 607.53 604.16 607.64 609.3 607.19 610.88 614.13 610.88"/>
    <path class="cls-28" d="M578.85,580.32l2.21,7.58,4.37,1.8,7.24,1.13h4.65s4.63,2.12,4.63,2.12h5.53s3.22.34,3.22.34l4.75-1.63,4.64.48,7.28-.37,4.47-1.33,2.68-7.32-3.63,2.03-5.17,2.96s-3.31-1.03-5.87-1.61c-2.56-.58-.8-3.11-.8-3.11l1.16-1.63,3.46.48,5.29-1.84,2.6-5.92s-2.66,1.47-5.34,3.26c-2.68,1.8-4.31-2.12-4.31-2.12l-2.96-3.16s-.89-3.89.9-3.41c1.79.48,1.31.45,3.63.84,2.32.4,2.58.11,2.58.11l3.99-3.03.19-3.01-4.94,2.51s-3.4-1.87-7.27-5.21c-2.82-2.45-1.37-2.77-.39-2.77.36,0,.66.04.66.04l4.65.48,3.04-3.58s-4.91-.59-7.06-.74c-2.15-.15-5.46-3.39-5.46-3.39l-2.61-3.11.95-1.24,7.44,2.03c-.11-.06-.6-.34-2.73-1.53-2.77-1.56-5.03-3.43-8.02-7.65-.04-.06-.98-1.38-1.28-1.82-.32.43-.72.94-1.21,1.56-.45.56-.98,1.21-1.59,1.95-3.24,3.9-2.55,3.9-5.41,5.16l-2.85,1.26,7.58-1.26-1.93,4.16s-3.5,2.89-5.65,2.81c-2.15-.08-7.09,0-7.09,0l2.8,3.89h4.66s1.8.97,1.8.97c0,0,3,.73-1.06,3.66-4.06,2.93-8.2,2.55-8.2,2.55l-4.77-3.01v3.01s3.79,3.44,3.79,3.44c0,0,2.58.15,4.92,0,2.34-.15,2.73-1.16,4.35-.07,1.24.84-2.32,3.25-2.32,3.25l-3.15,2.84s-1.87,3.74-4.43,1.66c-2.56-2.07-5.12-3.81-5.12-3.81l2.22,6.17,5.16,2.38,6.8-2.08,1.27,3.18s-.51,1.94-3.1,2.25c-2.59.31-7.38,2.28-7.38,2.28l-4.97-3.49-3.49-2.41Z"/>
  </g>
  <g>
    <polygon class="cls-32" points="166.9 395.8 162.64 371.34 162.64 342.98 158.63 318.78 158.63 350.11 155.91 378.09 157.72 386.46 157.87 393.61 157.26 395.8 166.9 395.8"/>
    <path class="cls-28" d="M117.84,353.31l3.08,10.54,6.08,2.5,10.06,1.57h6.47s6.44,2.95,6.44,2.95h7.69s4.47.47,4.47.47l6.61-2.26,6.45.67,10.13-.51,6.22-1.85,3.73-10.18-5.04,2.83-7.19,4.12s-4.6-1.43-8.16-2.23c-3.56-.8-1.12-4.33-1.12-4.33l1.61-2.27,4.81.67,7.35-2.55,3.62-8.23s-3.7,2.04-7.43,4.54c-3.73,2.5-5.99-2.95-5.99-2.95l-4.11-4.39s-1.24-5.4,1.26-4.74c2.49.67,1.83.62,5.05,1.17,3.22.55,3.59.16,3.59.16l5.55-4.22.26-4.18-6.87,3.49s-4.73-2.6-10.11-7.24c-3.93-3.4-1.9-3.86-.54-3.86.51,0,.92.06.92.06l6.46.67,4.22-4.97s-6.83-.82-9.82-1.03c-2.99-.2-7.59-4.72-7.59-4.72l-3.63-4.33,1.32-1.73,10.35,2.82c-.16-.09-.83-.47-3.8-2.13-3.85-2.16-7-4.77-11.15-10.64-.06-.08-1.36-1.92-1.78-2.53-.45.59-1,1.31-1.69,2.17-.63.78-1.36,1.69-2.22,2.72-4.51,5.42-3.55,5.42-7.52,7.17l-3.97,1.75,10.54-1.75-2.68,5.79s-4.86,4.02-7.86,3.91c-3-.1-9.86,0-9.86,0l3.9,5.4h6.48s2.5,1.35,2.5,1.35c0,0,4.17,1.02-1.48,5.09-5.64,4.07-11.41,3.55-11.41,3.55l-6.63-4.19v4.19s5.27,4.79,5.27,4.79c0,0,3.59.21,6.84,0,3.25-.21,3.8-1.62,6.05-.09,1.73,1.16-3.23,4.53-3.23,4.53l-4.38,3.95s-2.6,5.19-6.16,2.31c-3.56-2.88-7.12-5.3-7.12-5.3l3.09,8.58,7.17,3.32,9.45-2.9,1.76,4.43s-.71,2.7-4.31,3.13c-3.6.43-10.26,3.18-10.26,3.18l-6.91-4.86-4.85-3.35Z"/>
  </g>
  <g>
    <polygon class="cls-32" points="948.75 535.06 945.68 517.48 945.68 497.09 942.8 479.69 942.8 502.21 940.84 522.33 942.15 528.35 942.26 533.49 941.82 535.06 948.75 535.06"/>
    <path class="cls-28" d="M913.47,504.51l2.21,7.58,4.37,1.8,7.24,1.13h4.65s4.63,2.12,4.63,2.12h5.53s3.22.34,3.22.34l4.75-1.63,4.64.48,7.28-.37,4.47-1.33,2.68-7.32-3.63,2.03-5.17,2.96s-3.31-1.03-5.87-1.61c-2.56-.58-.8-3.11-.8-3.11l1.16-1.63,3.46.48,5.29-1.84,2.6-5.92s-2.66,1.47-5.34,3.26c-2.68,1.8-4.31-2.12-4.31-2.12l-2.96-3.16s-.89-3.89.9-3.41c1.79.48,1.31.45,3.63.84,2.32.4,2.58.11,2.58.11l3.99-3.03.19-3.01-4.94,2.51s-3.4-1.87-7.27-5.21c-2.82-2.45-1.37-2.77-.39-2.77.36,0,.66.04.66.04l4.65.48,3.04-3.58s-4.91-.59-7.06-.74c-2.15-.15-5.46-3.39-5.46-3.39l-2.61-3.11.95-1.24,7.44,2.03c-.11-.06-.6-.34-2.73-1.53-2.77-1.56-5.03-3.43-8.02-7.65-.04-.06-.98-1.38-1.28-1.82-.32.43-.72.94-1.21,1.56-.45.56-.98,1.21-1.59,1.95-3.24,3.9-2.55,3.9-5.41,5.16l-2.85,1.26,7.58-1.26-1.93,4.16s-3.5,2.89-5.65,2.81c-2.15-.08-7.09,0-7.09,0l2.8,3.89h4.66s1.8.97,1.8.97c0,0,3,.73-1.06,3.66-4.06,2.93-8.2,2.55-8.2,2.55l-4.77-3.01v3.01s3.79,3.44,3.79,3.44c0,0,2.58.15,4.92,0,2.34-.15,2.73-1.16,4.35-.07,1.24.84-2.32,3.25-2.32,3.25l-3.15,2.84s-1.87,3.74-4.43,1.66c-2.56-2.07-5.12-3.81-5.12-3.81l2.22,6.17,5.16,2.38,6.8-2.08,1.27,3.18s-.51,1.94-3.1,2.25c-2.59.31-7.38,2.28-7.38,2.28l-4.97-3.49-3.49-2.41Z"/>
  </g>
  <text class="cls-18" transform="translate(592.35 219.21) rotate(-.9)"><tspan x="0" y="0">R</tspan></text>
  <text class="cls-18" transform="translate(601.48 219.07) rotate(-.9)"><tspan x="0" y="0">u</tspan></text>
  <text class="cls-18" transform="translate(609.45 219.06) rotate(-2.63)"><tspan x="0" y="0">e</tspan></text>
  <text class="cls-18" transform="translate(617.6 218.51) rotate(-5.71)"><tspan x="0" y="0"> </tspan></text>
  <text class="cls-18" transform="translate(622.52 218.01) rotate(-5.71)"><tspan x="0" y="0">d</tspan></text>
  <text class="cls-18" transform="translate(630.28 217.24) rotate(-5.7)"><tspan x="0" y="0">e</tspan></text>
  <text class="cls-18" transform="translate(638.61 216.27) rotate(-10.35)"><tspan x="0" y="0"> </tspan></text>
  <text class="cls-18" transform="translate(643.51 215.33) rotate(-11.29)"><tspan x="0" y="0">l</tspan></text>
  <text class="cls-18" transform="translate(646.44 214.75) rotate(-11.3)"><tspan x="0" y="0"></tspan></text>
  <text class="cls-18" transform="translate(652.16 214.48) rotate(-30.88)"><tspan x="0" y="0"></tspan></text>
  <text class="cls-18" transform="translate(658.79 209.97) rotate(-39.69)"><tspan x="0" y="0">g</tspan></text>
  <text class="cls-18" transform="translate(664.63 205.12) rotate(-39.69)"><tspan x="0" y="0">l</tspan></text>
  <text class="cls-18" transform="translate(666.9 203.24) rotate(-39.69)"><tspan x="0" y="0">i</tspan></text>
  <text class="cls-18" transform="translate(669.31 201.24) rotate(-39.69)"><tspan x="0" y="0">s</tspan></text>
  <text class="cls-18" transform="translate(674.44 196.98) rotate(-39.69)"><tspan x="0" y="0">e</tspan></text>
  <text class="cls-20" transform="translate(484.12 256.19) rotate(12.47)"><tspan x="0" y="0">R</tspan></text>
  <text class="cls-20" transform="translate(493.01 258.15) rotate(12.47)"><tspan x="0" y="0">u</tspan></text>
  <text class="cls-20" transform="translate(500.49 259.81) rotate(12.47)"><tspan x="0" y="0">e</tspan></text>
  <text class="cls-20" transform="translate(507.99 261.38) rotate(14.56)"><tspan x="0" y="0"> </tspan></text>
  <text class="cls-20" transform="translate(512.63 262.64) rotate(15.9)"><tspan x="0" y="0">d</tspan></text>
  <text class="cls-20" transform="translate(520.09 264.77) rotate(15.89)"><tspan x="0" y="0">e</tspan></text>
  <text class="cls-20" transform="translate(527.54 266.89) rotate(15.89)"><tspan x="0" y="0"> </tspan></text>
  <text class="cls-20" transform="translate(532.25 268.23) rotate(15.9)"><tspan x="0" y="0">l</tspan></text>
  <text class="cls-20" transform="translate(535.05 269) rotate(16.42)"><tspan x="0" y="0">a</tspan></text>
  <text class="cls-20" transform="translate(541.76 271.01) rotate(16.9)"><tspan x="0" y="0"> </tspan></text>
  <text class="cls-20" transform="translate(546.93 272.84) rotate(12.71)"><tspan x="0" y="0">P</tspan></text>
  <text class="cls-20" transform="translate(555.34 274.42) rotate(7.99)"><tspan x="0" y="0">o</tspan></text>
  <text class="cls-20" transform="translate(562.42 275.41) rotate(7.99)"><tspan x="0" y="0">s</tspan></text>
  <text class="cls-20" transform="translate(568.97 276.33) rotate(7.98)"><tspan x="0" y="0">t</tspan></text>
  <text class="cls-20" transform="translate(575.28 277.21) rotate(7.95)"><tspan x="0" y="0">a</tspan></text>
  <text class="cls-19" transform="translate(614.25 272.14) rotate(-4.8)"><tspan x="0" y="0">R</tspan></text>
  <text class="cls-19" transform="translate(623.22 271.39) rotate(-4.8)"><tspan x="0" y="0">u</tspan></text>
  <text class="cls-19" transform="translate(630.86 270.75) rotate(-4.8)"><tspan x="0" y="0">e</tspan></text>
  <text class="cls-19" transform="translate(638.54 270.1) rotate(-4.8)"><tspan x="0" y="0"> </tspan></text>
  <text class="cls-19" transform="translate(642.79 269.45) rotate(7.11)"><tspan x="0" y="0">P</tspan></text>
  <text class="cls-19" transform="translate(651.34 270.59) rotate(12.88)"><tspan x="0" y="0">r</tspan></text>
  <text class="cls-19" transform="translate(657.41 272.03) rotate(14.66)"><tspan x="0" y="0">i</tspan></text>
  <text class="cls-19" transform="translate(660.43 272.85) rotate(14.31)"><tspan x="0" y="0">n</tspan></text>
  <text class="cls-19" transform="translate(667.89 274.76) rotate(10.45)"><tspan x="0" y="0">c</tspan></text>
  <text class="cls-19" transform="translate(674.44 275.76) rotate(13.74)"><tspan x="0" y="0">i</tspan></text>
  <text class="cls-19" transform="translate(677.16 276.44) rotate(19.06)"><tspan x="0" y="0">p</tspan></text>
  <text class="cls-19" transform="translate(684.37 278.97) rotate(20.55)"><tspan x="0" y="0">a</tspan></text>
  <text class="cls-19" transform="translate(690.87 281.44) rotate(20.92)"><tspan x="0" y="0">l</tspan></text>
  <text class="cls-19" transform="translate(693.64 282.53) rotate(20.17)"><tspan x="0" y="0">e</tspan></text>
  <text class="cls-21" transform="translate(485.94 350.16) rotate(-20.37)"><tspan x="0" y="0">R</tspan></text>
  <text class="cls-21" transform="translate(494.1 347.13) rotate(-20.37)"><tspan x="0" y="0">u</tspan></text>
  <text class="cls-21" transform="translate(501.03 344.55) rotate(-20.37)"><tspan x="0" y="0">e</tspan></text>
  <text class="cls-21" transform="translate(508 341.96) rotate(-20.37)"><tspan x="0" y="0"> </tspan></text>
  <text class="cls-21" transform="translate(513.49 340.27) rotate(-28.63)"><tspan x="0" y="0">P</tspan></text>
  <text class="cls-21" transform="translate(521.03 336.12) rotate(-28.9)"><tspan x="0" y="0">r</tspan></text>
  <text class="cls-21" transform="translate(526.28 333.19) rotate(-26.92)"><tspan x="0" y="0">i</tspan></text>
  <text class="cls-21" transform="translate(528.76 331.88) rotate(-23.31)"><tspan x="0" y="0">n</tspan></text>
  <text class="cls-21" transform="translate(535.2 329.24) rotate(-23.14)"><tspan x="0" y="0">c</tspan></text>
  <text class="cls-21" transform="translate(541.33 326.55) rotate(-24.17)"><tspan x="0" y="0">i</tspan></text>
  <text class="cls-21" transform="translate(544.04 325.33) rotate(-24.17)"><tspan x="0" y="0">p</tspan></text>
  <text class="cls-21" transform="translate(550.84 322.28) rotate(-24.17)"><tspan x="0" y="0">a</tspan></text>
  <text class="cls-21" transform="translate(557.17 319.35) rotate(-26.17)"><tspan x="0" y="0">l</tspan></text>
  <text class="cls-21" transform="translate(559.59 318.09) rotate(-24.91)"><tspan x="0" y="0">e</tspan></text>
  <text class="cls-17" transform="translate(245.35 541.8) rotate(5.85)"><tspan x="0" y="0">D</tspan></text>
  <text class="cls-17" transform="translate(255.36 542.83) rotate(5.85)"><tspan x="0" y="0"> </tspan></text>
  <text class="cls-17" transform="translate(260.59 543.36) rotate(5.85)"><tspan x="0" y="0">-</tspan></text>
  <text class="cls-17" transform="translate(268.49 544.17) rotate(5.85)"><tspan x="0" y="0"> </tspan></text>
  <text class="cls-17" transform="translate(273.7 544.72) rotate(5.7)"><tspan x="0" y="0">8</tspan></text>
  <text class="cls-17" transform="translate(282.9 545.6) rotate(6.27)"><tspan x="0" y="0">F</tspan></text>
  <text class="cls-16" transform="translate(293.87 206.46) rotate(53.48)"><tspan x="0" y="0">D</tspan></text>
  <text class="cls-16" transform="translate(299.85 214.53) rotate(53.48)"><tspan x="0" y="0"> </tspan></text>
  <text class="cls-16" transform="translate(302.99 218.78) rotate(53.48)"><tspan x="0" y="0">-</tspan></text>
  <text class="cls-16" transform="translate(307.71 225.15) rotate(53.48)"><tspan x="0" y="0"> </tspan></text>
  <text class="cls-16" transform="translate(310.85 229.39) rotate(53.48)"><tspan x="0" y="0">3</tspan></text>
  <text class="cls-16" transform="translate(315.36 235.48) rotate(53.48)"><tspan x="0" y="0">2</tspan></text>
  <text class="cls-15" transform="translate(488.13 450.83) rotate(40.45) scale(.89 1)"><tspan x="0" y="0">L</tspan></text>
  <text class="cls-15" transform="translate(497.37 458.7) rotate(40.45) scale(.89 1)"><tspan x="0" y="0">e</tspan></text>
  <text class="cls-15" transform="translate(505.99 466.06) rotate(40.45) scale(.89 1)"><tspan x="0" y="0"> </tspan></text>
  <text class="cls-15" transform="translate(511.42 470.68) rotate(40.45) scale(.89 1)"><tspan x="0" y="0">G</tspan></text>
  <text class="cls-15" transform="translate(523.75 480.85) rotate(34.21) scale(.89 1)"><tspan x="0" y="0">a</tspan></text>
  <text class="cls-15" transform="translate(533.25 487.21) rotate(28.91) scale(.89 1)"><tspan x="0" y="0">r</tspan></text>
  <text class="cls-15" transform="translate(542.33 492.35) rotate(23.97) scale(.89 1)"><tspan x="0" y="0">b</tspan></text>
  <text class="cls-15" transform="translate(555.32 498.01) rotate(11.2) scale(.89 1)"><tspan x="0" y="0">e</tspan></text>
  <text class="cls-15" transform="translate(567.91 499.82) rotate(5.09) scale(.89 1)"><tspan x="0" y="0">t</tspan></text>
  <g>
    <path class="cls-29" d="M792.14,120.77l7.21,1.92c1.77.47,2.42,3.78,1.46,7.38l-19.89,74.68c-.96,3.6-3.17,6.14-4.94,5.67l-7.21-1.92c-1.77-.47-2.42-3.78-1.46-7.38l19.89-74.68c.96-3.6,3.17-6.14,4.94-5.67Z"/>
    <path class="cls-8" d="M888.13,157.86c.53-2.56-1.17-5.08-3.81-5.63l-59.12-12.29-88.28-18.35c-.8-.17-1.63-.13-2.41.09l-23.67,6.9c-3.15.92-4.44,4.56-2.56,7.21l12.56,17.74c.72,1.01,1.8,1.72,3.03,1.98l87.47,18.18,56.81,11.81,9.03,1.65c2.6.48,5.1-1.15,5.62-3.67l5.32-25.62Z"/>
    <text class="cls-23" transform="translate(724.78 145.27) rotate(12.35)"><tspan x="0" y="0"></tspan></text>
    <text class="cls-23" transform="translate(733.33 147.14) rotate(12.35)"><tspan x="0" y="0">g</tspan></text>
    <text class="cls-23" transform="translate(742.86 149.23) rotate(12.35)"><tspan x="0" y="0">l</tspan></text>
    <text class="cls-23" transform="translate(746.56 150.04) rotate(12.35)"><tspan x="0" y="0">i</tspan></text>
    <text class="cls-23" transform="translate(750.48 150.9) rotate(12.35)"><tspan x="0" y="0">s</tspan></text>
    <text class="cls-23" transform="translate(758.86 152.73) rotate(12.35)"><tspan x="0" y="0">e</tspan></text>
    <text class="cls-23" transform="translate(768.66 154.87) rotate(12.35)"><tspan x="0" y="0"> </tspan></text>
    <text class="cls-23" transform="translate(774.83 156.23) rotate(12.35)"><tspan x="0" y="0">S</tspan></text>
    <text class="cls-23" transform="translate(784.72 158.39) rotate(12.35)"><tspan x="0" y="0">a</tspan></text>
    <text class="cls-23" transform="translate(793.57 160.33) rotate(12.34)"><tspan x="0" y="0">i</tspan></text>
    <text class="cls-23" transform="translate(797.49 161.18) rotate(12.25)"><tspan x="0" y="0">n</tspan></text>
    <text class="cls-23" transform="translate(806.63 163.17) rotate(12.25)"><tspan x="0" y="0">t</tspan></text>
    <text class="cls-23" transform="translate(812.88 164.53) rotate(12.25)"><tspan x="0" y="0">-</tspan></text>
    <text class="cls-23" transform="translate(821.45 166.39) rotate(12.25)"><tspan x="0" y="0">V</tspan></text>
    <text class="cls-23" transform="translate(830.74 168.4) rotate(12.25)"><tspan x="0" y="0">i</tspan></text>
    <text class="cls-23" transform="translate(834.65 169.25) rotate(12.25)"><tspan x="0" y="0">n</tspan></text>
    <text class="cls-23" transform="translate(843.8 171.24) rotate(12.25)"><tspan x="0" y="0">c</tspan><tspan x="8.04" y="0">e</tspan></text>
    <text class="cls-23" transform="translate(861.45 175.07) rotate(12.25)"><tspan x="0" y="0">n</tspan></text>
    <text class="cls-23" transform="translate(870.58 177.06) rotate(12.25)"><tspan x="0" y="0">t</tspan></text>
  </g>
  <g>
    <path class="cls-29" d="M793.13,362.8l8.07,1.77c1.98.43,2.95,3.69,2.16,7.26l-16.25,74.12c-.78,3.58-3.02,6.13-5,5.69l-8.07-1.77c-1.98-.43-2.95-3.69-2.16-7.26l16.25-74.12c.78-3.58,3.02-6.13,5-5.69Z"/>
    <path class="cls-8" d="M883.41,392.31c.46-2.41-1.19-4.74-3.67-5.22l-55.78-10.61-83.3-15.84c-.75-.14-1.53-.1-2.26.12l-22.14,6.82c-2.94.91-4.09,4.34-2.28,6.79l12.1,16.43c.69.94,1.72,1.58,2.88,1.8l82.53,15.7,53.6,10.19,8.52,1.41c2.45.41,4.77-1.16,5.22-3.52l4.58-24.07Z"/>
    <text class="cls-25" transform="translate(732.4 382.87) rotate(10.96)"><tspan x="0" y="0">C</tspan></text>
    <text class="cls-25" transform="translate(745.36 385.38) rotate(10.96)"><tspan x="0" y="0">a</tspan></text>
    <text class="cls-25" transform="translate(755.25 387.3) rotate(10.96)"><tspan x="0" y="0">m</tspan></text>
    <text class="cls-25" transform="translate(769.31 390.09) rotate(10.23)"><tspan x="0" y="0">p</tspan></text>
    <text class="cls-25" transform="translate(780.42 392.01) rotate(9.37)"><tspan x="0" y="0"> </tspan></text>
    <text class="cls-25" transform="translate(787.34 393.15) rotate(9.37)"><tspan x="0" y="0">R</tspan></text>
    <text class="cls-25" transform="translate(799.01 395.08) rotate(9.37)"><tspan x="0" y="0">e</tspan></text>
    <text class="cls-25" transform="translate(809.93 396.88) rotate(9.37)"><tspan x="0" y="0">s</tspan></text>
    <text class="cls-25" transform="translate(819.32 398.43) rotate(9.37)"><tspan x="0" y="0">i</tspan></text>
    <text class="cls-25" transform="translate(823.68 399.15) rotate(9.37)"><tspan x="0" y="0">d</tspan></text>
    <text class="cls-25" transform="translate(834.63 400.96) rotate(9.37)"><tspan x="0" y="0">e</tspan></text>
    <text class="cls-25" transform="translate(845.59 402.77) rotate(9.37)"><tspan x="0" y="0">n</tspan></text>
    <text class="cls-25" transform="translate(855.81 404.45) rotate(9.37)"><tspan x="0" y="0">c</tspan></text>
    <text class="cls-25" transform="translate(864.61 405.91) rotate(9.37)"><tspan x="0" y="0">e</tspan></text>
  </g>
  <g>
    <path class="cls-31" d="M434.13,502.52l7.2,1.76c1.77.43,2.35,4.25,1.3,8.53l-21.69,88.7c-1.05,4.28-3.33,7.4-5.09,6.97l-7.2-1.76c-1.77-.43-2.35-4.25-1.3-8.53l21.69-88.7c1.05-4.28,3.33-7.4,5.09-6.97Z"/>
    <path class="cls-8" d="M570.71,560.16c.5-2.05-1.88-4.39-5.33-5.24l-77.24-18.89-115.34-28.21c-1.05-.26-2.11-.35-3.1-.28l-30.06,2.25c-3.99.3-5.4,3.13-2.77,5.61l17.51,16.58c1,.95,2.45,1.69,4.06,2.09l114.28,27.95,74.22,18.15,11.78,2.7c3.4.78,6.5-.21,6.99-2.22l5.01-20.49Z"/>
    <text class="cls-22" transform="translate(355.03 528.49) rotate(12.79)"><tspan x="0" y="0">S</tspan></text>
    <text class="cls-22" transform="translate(364.82 530.71) rotate(12.79)"><tspan x="0" y="0">o</tspan></text>
    <text class="cls-22" transform="translate(374.6 532.93) rotate(12.79)"><tspan x="0" y="0">u</tspan></text>
    <text class="cls-22" transform="translate(384.25 535.12) rotate(12.79)"><tspan x="0" y="0">r</tspan></text>
    <text class="cls-22" transform="translate(392 536.82) rotate(16.5)"><tspan x="0" y="0">c</tspan></text>
    <text class="cls-22" transform="translate(399.63 539.12) rotate(17.09)"><tspan x="0" y="0">e</tspan></text>
    <text class="cls-22" transform="translate(409.15 542.05) rotate(17.1)"><tspan x="0" y="0">s</tspan></text>
    <text class="cls-22" transform="translate(417.3 544.55) rotate(17.1)"><tspan x="0" y="0"> </tspan></text>
    <text class="cls-22" transform="translate(423.84 546.62) rotate(13.54)"><tspan x="0" y="0">T</tspan></text>
    <text class="cls-22" transform="translate(433.28 548.89) rotate(13.54)"><tspan x="0" y="0">h</tspan></text>
    <text class="cls-22" transform="translate(442.76 551.17) rotate(13.54)"><tspan x="0" y="0">e</tspan></text>
    <text class="cls-22" transform="translate(452.46 553.51) rotate(13.54)"><tspan x="0" y="0">r</tspan></text>
    <text class="cls-22" transform="translate(460.39 555.42) rotate(13.54)"><tspan x="0" y="0">m</tspan></text>
    <text class="cls-22" transform="translate(472.78 558.4) rotate(13.26)"><tspan x="0" y="0">a</tspan></text>
    <text class="cls-22" transform="translate(481.58 560.47) rotate(13.23)"><tspan x="0" y="0">l</tspan></text>
    <text class="cls-22" transform="translate(485.22 561.28) rotate(13.72)"><tspan x="0" y="0">e</tspan></text>
    <text class="cls-22" transform="translate(494.79 563.68) rotate(15.26)"><tspan x="0" y="0">s</tspan></text>
    <text class="cls-22" transform="translate(503.01 565.92) rotate(15.26)"><tspan x="0" y="0"> </tspan></text>
    <text class="cls-22" transform="translate(509.07 567.58) rotate(15.26)"><tspan x="0" y="0">d</tspan></text>
    <text class="cls-22" transform="translate(518.69 570.2) rotate(15.26)"><tspan x="0" y="0"></tspan><tspan x="3.67" y="0">A</tspan></text>
    <text class="cls-22" transform="translate(533.65 574.28) rotate(15.26)"><tspan x="0" y="0">u</tspan></text>
    <text class="cls-22" transform="translate(543.2 576.89) rotate(15.26)"><tspan x="0" y="0">l</tspan></text>
    <text class="cls-22" transform="translate(546.84 577.88) rotate(15.26)"><tspan x="0" y="0">u</tspan></text>
    <text class="cls-22" transform="translate(556.39 580.48) rotate(15.26)"><tspan x="0" y="0">s</tspan></text>
  </g>
  <g>
    <path class="cls-31" d="M36.12,540.01l6.59-2.4c1.62-.59,3.81,1.34,4.89,4.32l22.46,61.64c1.08,2.98.65,5.86-.97,6.45l-6.59,2.4c-1.62.59-3.81-1.34-4.89-4.32l-22.46-61.64c-1.08-2.98-.65-5.86.97-6.45Z"/>
    <path class="cls-8" d="M2.25,569.98c-.66-1.82.03-3.73,1.54-4.28l33.87-12.34,50.58-18.43c.46-.17.96-.19,1.46-.08l15.13,3.57c2.01.47,3.27,3.02,2.5,5.05l-5.18,13.53c-.3.77-.85,1.35-1.56,1.6l-50.11,18.26-32.55,11.86-5.2,1.72c-1.5.5-3.21-.53-3.86-2.31l-6.61-18.15Z"/>
    <text class="cls-24" transform="translate(13.98 584.67) rotate(-20.22)"><tspan x="0" y="0">S</tspan></text>
    <text class="cls-24" transform="translate(22.9 581.38) rotate(-20.22)"><tspan x="0" y="0">m</tspan></text>
    <text class="cls-24" transform="translate(34.21 577.22) rotate(-20.22)"><tspan x="0" y="0">a</tspan></text>
    <text class="cls-24" transform="translate(42.25 574.26) rotate(-20.23)"><tspan x="0" y="0">l</tspan></text>
    <text class="cls-24" transform="translate(45.62 573.01) rotate(-20.22)"><tspan x="0" y="0">l</tspan></text>
    <text class="cls-24" transform="translate(48.96 571.78) rotate(-20.23)"><tspan x="0" y="0"> </tspan></text>
    <text class="cls-24" transform="translate(54.55 569.72) rotate(-20.22)"><tspan x="0" y="0">C</tspan></text>
    <text class="cls-24" transform="translate(65.05 565.85) rotate(-20.94)"><tspan x="0" y="0">a</tspan></text>
    <text class="cls-24" transform="translate(73.04 562.79) rotate(-20.94)"><tspan x="0" y="0">v</tspan></text>
    <text class="cls-24" transform="translate(80.38 559.98) rotate(-20.94)"><tspan x="0" y="0">e</tspan></text>
    <text class="cls-24" transform="translate(89.2 556.6) rotate(-20.94)"><tspan x="0" y="0">s</tspan></text>
  </g>
  <path class="cls-29" d="M820.2,498.63h10.92c2.68,0,4.85,3.71,4.85,8.28v94.73c0,4.57-2.17,8.28-4.85,8.28h-10.92c-2.68,0-4.85-3.71-4.85-8.28v-94.73c0-4.57,2.17-8.28,4.85-8.28Z"/>
  <path class="cls-8" d="M942.96,526.24c0-3.06-2.56-5.54-5.73-5.54h-70.96s-105.96,0-105.96,0c-.96,0-1.9.23-2.75.68l-25.59,13.52c-3.4,1.8-4.01,6.27-1.22,8.86l18.69,17.32c1.07.99,2.49,1.54,3.96,1.54h104.99s68.19,0,68.19,0l10.78-.26c3.11-.07,5.59-2.53,5.59-5.54v-30.59Z"/>
  <text class="cls-26" transform="translate(746.17 551.24) rotate(5.03)"><tspan x="0" y="0">A</tspan></text>
  <text class="cls-26" transform="translate(763.65 552.78) rotate(5.03)"><tspan x="0" y="0">u</tspan></text>
  <text class="cls-26" transform="translate(779.14 554.18) rotate(1.59)"><tspan x="0" y="0">l</tspan></text>
  <text class="cls-26" transform="translate(785.4 554.19) rotate(-1.02)"><tspan x="0" y="0">u</tspan></text>
  <text class="cls-26" transform="translate(800.09 553.93) rotate(-1.02)"><tspan x="0" y="0">s</tspan></text>
  <text class="cls-26" transform="translate(811.5 553.73) rotate(-1.02)"><tspan x="0" y="0">-</tspan></text>
  <text class="cls-26" transform="translate(825.64 553.48) rotate(-1.02)"><tspan x="0" y="0">l</tspan></text>
  <text class="cls-26" transform="translate(831.24 553.38) rotate(-1.02)"><tspan x="0" y="0">e</tspan></text>
  <text class="cls-26" transform="translate(846.03 553.12) rotate(-1.02)"><tspan x="0" y="0">s</tspan></text>
  <text class="cls-26" transform="translate(857.45 552.92) rotate(-1.02)"><tspan x="0" y="0">-</tspan></text>
  <text class="cls-26" transform="translate(871.59 552.67) rotate(-1.02)"><tspan x="0" y="0">B</tspan></text>
  <text class="cls-26" transform="translate(887.81 552.38) rotate(-1.02)"><tspan x="0" y="0">a</tspan></text>
  <text class="cls-26" transform="translate(901.21 552.14) rotate(-1.02)"><tspan x="0" y="0">i</tspan></text>
  <text class="cls-26" transform="translate(907.14 552.04) rotate(-1.02)"><tspan x="0" y="0">n</tspan></text>
  <text class="cls-26" transform="translate(920.94 551.79) rotate(-1.02)"><tspan x="0" y="0">s</tspan></text>
  <text/>
</svg>