<?xml version="1.0" encoding="UTF-8"?>
<svg id="Map" xmlns="http://www.w3.org/2000/svg" viewBox="0 0 1920 1080">
  <defs>
    <style>
      .cls-1 {
        fill: #c1cc99;
      }

      .cls-2 {
        fill: #e6eec9;
      }

      .cls-3 {
        fill: #628ebc;
        stroke: #628ebc;
        stroke-miterlimit: 10;
        stroke-width: 14px;
      }

      .cls-4 {
        fill: #b5d4a3;
      }

      .cls-5 {
        fill: #ffffe8;
      }
    </style>
  </defs>
  <g id="Second_Border" data-name="Second Border">
    <rect class="cls-1" x="344.47" y="172.6" width="1272.34" height="752.46" rx="12" ry="12"/>
  </g>
  <g id="Main_Border" data-name="Main Border">
    <rect class="cls-5" x="291.81" y="129.47" width="1384.08" height="838.74" rx="12" ry="12"/>
  </g>
  <g id="Green_Space" data-name="Green Space">
    <path class="cls-4" d="M704.27,166.86s17.11,18.47,20.4,21.88,16.2,15.2,24.64,20.52,6.34,3.76,14.75,10.61,15.59,15.19,24.02,21.12c8.43,5.93,31.63,14.24,38.91,16.19s38.8,1.26,49.16,1.43,19.19,0,19.19,0l3.04.08,6.82,48.55h10.97l10.25,60.99h12.5l7.72,30.2,30.52-1.76-4.6-17.31,24.35-16.66-18.21-59.5,76.7-85.47,18.97-22.84,72.3,31.37,41.8-39.83,72.02,47.82-16.04,30.2,166.79,119.38,67.39-38.68,55.65,6.72,9.92,44.35,50.59-7.8,22.05,32.72v-232.37s.1-3.67-.02-4.84-.31-3.29-1.4-4.96-2.44-3.31-3.43-3.98-3.13-1.98-4.95-2.17-4.79-.33-6.51-.27-896.23-5.68-896.23-5.68Z"/>
    <path class="cls-4" d="M344.47,340.89s13.65,12.76,18.5,16.73,21.72,12.9,24.7,12.8-7.92,9.86-12.04,14.87-17.09,22.84-21.48,26.5-9.69,4.91-9.69,4.91v-75.8Z"/>
    <path class="cls-4" d="M344.91,439.95s16.98-12.75,21.86-17.9,8.32-11.98,10.74-14.79,7.29-8.88,11.12-11.67,17.3-13.59,18.07-16.61.77-3.02.77-3.02h11.87s10.85,103.64,10.85,103.64l-85.27,14.47v-54.12Z"/>
    <path class="cls-4" d="M344.47,586.75l20.75,6.12,33.43-23.27,17.98,4.53-22.83,32.28,22.83,27.27,36.24,25.21s86.77,4.14,91.75,5.38,40.16,11.05,43.62,11.1,21.58-3.48,23.53-5.37,21.76-37.68,21.76-37.68c0,0,13.75,5.22,16.76,8.73s13.09,21.35,13.09,21.35l3.33,7.74-21.88,44.59h39.55s14.23,23.95,14.23,23.95l29.51-41.39,19.5-16.97,3.5-2.63,8.21,14.35-15.64,61.99,32.83-10.21,10.36-15.49,42.46,15.74,35.68,61.56,67.99,47.63,18.63,11.84,18.09-2,31.12,23.19,22.44,13.82s12.22,4.43,14.88,6.4,0,3.84,0,3.84c0,0-21.9-3.82-26.48-5.82s-89.7-36.08-98.49-38.53-84.82-29.08-92.07-31.89-78.02-22.05-88.34-25.3-100.95-6.68-110.14-8.37-125.64-24-137.07-29.57c-11.43-5.57-72.3-19.27-85.3-23.33s-55.82-15.92-55.82-15.92v-144.87Z"/>
    <path class="cls-4" d="M344.47,768.12l102.17,31.52s49.37,18.21,61.76,19.41,145.22,18.82,164.09,19.13,76.87,7.24,97.15,12.55,48.38,17.7,62.71,22.41,60.22,22.86,71.1,25.53,56.33,17.83,64.25,19.45,29.18,6.96,29.18,6.96H382.09s-22.95,0-22.95,0c0,0-4.89.24-6.96-.81s-2.45-1.2-3.14-1.78-2.45-2.43-2.96-3.42-1.16-2.72-1.44-3.97-.17-146.98-.17-146.98Z"/>
    <path class="cls-4" d="M972.43,822.97s5.48-7.93,11.25-6.5,96.89,41.28,105.75,44.54,43.45,12.76,50.02,20,24.08,25.36,30.21,32.14,11.84,11.91,11.84,11.91h-106.5s9.84-2.64,8.18-10.24l-1.66-7.6s-6.95-10.81-16.68-14.98-29.16-14.75-35.77-19.31-24.08-15.23-26.65-17.76-6.82-6.79-10.42-10.38-9.03-7.74-11.61-10.01-4.25-4-6.18-5.73-3.22-3.06-3.22-3.06l1.44-3.03Z"/>
    <path class="cls-4" d="M1616.82,508.06l-17.43,10.56s1.18,7.66,0,12.17-5.3,9.22-5.3,9.22l14.72,9.47,8.02,6.44v-47.85Z"/>
    <path class="cls-4" d="M1537.71,925.07s21.9-13.27,22.54-23.87,0-26.28,0-26.28l.28-6.49h4.9s14.63,6.8,20.14,8.27,13.34,2.53,13.34,2.53l10.6.64,7.3,1.49v23.08s.08,8.25-.02,9.28-.78,3.82-1.19,4.58-1.24,2.06-1.64,2.51-1.77,1.8-2.61,2.3-2.29,1.23-3.05,1.43-2.68.52-2.68.52h-67.91Z"/>
    <path class="cls-4" d="M826.43,676.33l13.93,21.82,23.15,34s-10.59-3.08-16.33-5.6-14.41-.22-17.28,2.15-1.4,5.58-6.53,3.45-10.49-7.61-15.64-9.43-11.31-5.02-11.92-9.52-1.61-6.93,2.28-12.74c3.89-5.8,12.65-13.25,15.14-17.35s6.38-9.91,7.78-11.26,5.42,4.48,5.42,4.48Z"/>
    <path class="cls-4" d="M975.23,696.17s13.12,18.84,16.26,20.88,16,13.91,25.54,14.07,28.54,4.01,36.3,4.14,27.55.05,33.55,0,25.37,3.1,25.37,3.1c0,0-23.49-8.83-29.46-11.59s-31.75-12.76-39.05-14.63-25.63-3.95-29.83-5.78-21.47-4.24-25.66-7.14-20.65-10.94-20.65-10.94l7.64,7.9Z"/>
  </g>
  <g id="City_plane" data-name="City plane">
    <path class="cls-2" d="M909.6,427.85c1.75.73-3.21-1.82-3.86,0s-.51,5.91-.8,8.53.17,14.09.17,14.09c0,0,.26,28.01.26,31.84s-1,20.84-1,24.17.17,7.67,0,11.67-.67,7.33-.67,10.84-1,6.17-.83,9.5.21,2.47.21,4.94-.3,1.88-.3,2.92,2.87,2.23,4.11,3.27,2.47,2.33,2.47,2.33c0,0,3.46-1.04,4.4-2.47s35.72-17.16,37.38-17.61,43.09-19.05,43.09-19.05l44.86-20.05s9.09-7.26,10.99-12.29,16-17.79,14.77-19.91-3.02-2.46-6.26-3.47-10.52-1.45-13.09-1.45-25.28-3.47-27.74-3.47-29.09-2.91-31.32-2.91-20.03-5.37-23.16-6.04-21.37-5.82-25.28-7.5-16-5.03-18.91-6.04-9.47-1.83-9.47-1.83Z"/>
    <path class="cls-2" d="M917.34,565.24s2.18,5.13,1.55,9.48-.11,8.71-2.7,12.28-7.25,9.17-8.19,9.17,10.5,10.22,10.5,10.22l13.72,14.07,31.36,26.91s26.81,21.99,29.32,23.06,58.46,20.02,62.93,21.09,46.62,14.04,46.62,14.04c0,0,4.35,1.46,8.49,2.77s18.71,3.26,23.28,4.57,24.37,3.7,27.85,4.13,9.14-20.24,9.14-20.24l38.33-106.48,22.44-65.52,8.29-35.24s4.39-7.69,0-9.64-20.98-8.29-32.2-11.71-31.71-8.29-37.08-9.27-6.17-2.91-14.76-6.34-30.44-.98-36.82-.74-16.2,1.96-22.83,3.19-6.14-3.19-10.56,2.45-13.26,18.41-16.69,24.79-8.1,18.41-13.75,20.87-13.01,5.89-19.64,9.33-60.15,29.21-63.34,30.44-41.24,17.18-45.66,18.41-9.61,3.89-9.61,3.89Z"/>
    <path class="cls-2" d="M1272.28,465.25s14-9.97,23.81-13.14,23.71-9.66,29.45-13.29,12.69-6.34,20.99-4.38,44.7,22.65,49.23,24.92,32.47,20.39,41.08,25.22,32.43,18.06,37.81,25.46,6.06,14.81,8.75,22.89,3.7,10.77,7.41,16.16,7.41,14.47,10.43,20.2,6.06,7.74,3.03,11.44-5.72,1.01-13.8,6.06-23.23,14.81-29.96,21.54-53.18,53.86-58.23,59.91-21.54,27.94-27.26,29.96-61.26,13.74-73.38,7.38c-12.12-6.37-52.17,1.03-60.92,1.88s-31.3,4.55-36.35,6.9-15.48,2.7-15.48,2.7c0,0,6.73-21.88,10.77-29.29s38.71-107.37,40.73-116.8,15.82-48.47,17.17-54.19,9.76-31.98,11.11-37.36,3.63-14.16,3.63-14.16Z"/>
    <path class="cls-2" d="M1088.87,380.19c3.43-.86,20.02-.86,29.17-1.72s31.46-3.72,39.46-8.01,15.16-11.44,20.59-14.87,6.58-6.86,9.15-5.72,10.87,6.29,13.44,8.87,8.01,5.24,7.15,9.63-3.43,10.96-6.58,14.97-11.15,15.16-14.87,19.16-10.01,13.73-14.3,17.44-5.15,9.44-8.01,11.15-16.59-.57-21.45,0-10.01-.67-14.3-.57-14.87-22.59-18.02-26.31-10.87-12.01-13.15-14.87-8.29-9.15-8.29-9.15Z"/>
    <path class="cls-2" d="M1082.04,439.34s-2.35-3.92-2.8-6.73-1.12-11.55-1.57-15.03-2.47-9.08-2.35-12.22,2.8-6.73,4.15-7.62,3.36-1.91,7.29,0,7.51,8.19,9.19,10.43,8.3,10.2,10.43,13.34,5.49,9.53,5.94,11.21-4.49,1.91-7.4,1.91-8.27,0-11.09.11-4.05.34-6.29,1.35-5.49,3.25-5.49,3.25Z"/>
    <path class="cls-2" d="M1181.18,436.87c3.02-2.68,8.72-12.74,13.08-17.1s9.05-9.05,12.07-14.09,5.7-9.39,7.71-13.08,3.35-9.39,4.7-8.72,3.35,6.04,6.71,8.72,5.03,3.35,10.4,6.71,12.74,9.67,15.76,11.04,11.07,3.05,15.09,3.72,10.73,3.35,16.77,4.7,10.06,4.02,14.09,4.36,6.37,0,5.03,2.01-6.37,7.58-13.41,8.65-14.42,3.67-19.12,5.56-12.07,6.25-15.76,8.6-7.04,4.02-7.04,4.02c0,0-15.43-4.36-20.46-4.36s-14.6-4.7-18.87-5.37-15.37-2.1-19.05-2.9-7.7-2.47-7.7-2.47Z"/>
    <path class="cls-2" d="M1084.98,362.83c-1.63-3.55-7.69-12.86-9.02-18.19s-2.37-12.42-3.25-14.93.01-3.7,2.59-7.25,1.36-3.84,3.38-4.58,7.93-1.04,13.1-1.77,14.19-1.63,18.93-4.58,6.8-4.44,8.87-5.62,5.91.3,9.02,0,6.06-.78,8.87-.47,2.51-.57,5.18,1.06,7.1,5.62,10.35,7.39,4.44,2.81,5.62,3.99,4.44,9.17,5.77,10.79,3.11,7.1,4.88,8.87l1.77,1.77s-.74,2.66-3.84,4.29-11.09,6.8-15.38,7.39-15.67,6.06-20.55,7.84-11.53,4.73-14.93,5.03-11.53,0-15.82,0-8.94-.33-11.64.13-3.88-1.17-3.88-1.17Z"/>
    <circle class="cls-2" cx="888.99" cy="572.69" r="15"/>
    <path class="cls-2" d="M844.22,528.32c5.87-1.47,15.73-3.99,19.72-8.18s11.33-9.02,13.21-11.96,8.81-7.97,9.86-10.49,1.26,12.59,1.68,17.83,0,13.21,0,16.78-.42,6.29-1.47,8.6-10.72,4.2-13.23,5.45-12.15-6.92-16.14-9.02-9.65-4.4-11.75-5.66-1.89-3.36-1.89-3.36Z"/>
    <path class="cls-2" d="M421.16,373.32c2.67,30.29,11.86,109.1,11.86,109.1l-137.19,23.52-17.64,34.06,43.89,11.94v25.53l43.33,10.21,31.36-21.75,26.46,6.75-22.54,33.88,22.54,26.76,30.38,20.95,92.11,5.51,46,11.27,15.73-4.41,24.88-43.12,20.19,14.7,19.6,32.83-21.56,40.67h35.28l13.3,19.6,27.86-39.38,24.5-20.89,12.74,20.89-15.68,57.01,27.98-5.13,16.65-24.89.66-16.7,21.36-31.19,4.57-5.13-1.68-7.67-1.92-8.63,2.16-17.5,17.02-23.98-12.71-11.99-23.02-19.66-22.78-10.56h-29.27s-52.92-19.44-52.92-19.44c0,0-3.04-4.35-12.77-8.47-9.73-4.12-17.59,1.12-25.46-3.37-7.86-4.49-9.36-9.73-13.48-13.85-4.12-4.12-18.72-19.09-26.2-25.08-7.49-5.99-45.3-32.19-50.54-37.43-5.24-5.24-14.23-20.96-16.85-27.33-2.62-6.36-7.86-16.85-18.34-21.34-10.48-4.49-22.46-11.23-26.58-14.6-4.12-3.37-12.73-8.61-17.22-16.47-4.49-7.86-3.74-14.97-7.86-17.59-4.12-2.62-7.86-4.49-16.47-1.87-8.61,2.62-17.97,4.87-23.96,9.36-5.99,4.49-17.78,4.87-17.78,4.87Z"/>
    <path class="cls-2" d="M474.57,338.45c4.11-1.65,14.26-12.07,16.46-16.46s.82-16.46,3.29-22.49,1.65-18.1,4.66-20.3,8.78,2.46,14.54,5.48,12.07,3.84,19.75,7.41,34.84,18.93,40.32,22.77,23.04,15.09,28.25,21.94,36.48,34.56,44.71,47.18,12.07,26.06,18.1,34.29,40.6,46.63,48,54.31,33.74,34.29,39.22,39.77,13.71,10.7,19.2,17.28,13.71,12.5,16.73,15.85l3.02,3.35s-7.13-1.1-13.71-2.19-23.86-.27-30.72-3.84-20.3-4.66-30.17-10.15-20.85-12.62-29.08-13.99-7.95.82-15.64-1.65-19.75-12.32-25.24-19.6-12.34-14.67-21.4-21.4-33.19-22.91-38.4-33.61-12.62-23.34-15.91-28.67-9.05-11.1-13.44-13.57-10.42-7.68-20.02-10.42-23.59-7.13-28.25-16.18-11.52-23.04-18.38-28.25-17.83-4.11-17.83-4.11l1.92-2.74Z"/>
    <path class="cls-2" d="M1519.77,476.73c7.97,7.96,24.69,24.68,29.47,28.66,4.77,3.98,16.72,3.98,14.33,15.13-2.39,11.15-15.93,30.99-25.48,31.42-9.56.44-10.35,19.55-21.5-5.93-11.15-25.49-21.5-35.04-31.06-46.19-9.55-11.15-15.17-22.31-23.38-26.2-8.22-3.9-32.44-22.49-38.06-25.95-5.63-3.46-34.17-14.71-42.82-19.03-8.65-4.33-13.41-9.52-21.63-13.85-8.22-4.32-25.95-2.59-34.17-4.32-8.22-1.73-48.01-12.54-58.39-17.3-10.38-4.76-18.88-7.35-25.01-12.54-6.13-5.19-8.29-5.02-15.64-18.73-7.36-13.71-27.69-21.07-33.31-30.58-5.62-9.52-6.58-3.89-11.94-19.46-5.36-15.57-4.68-45.63-8.45-53.71-3.78-8.09-7.91-16.71-12.4-17.61-4.5-.9-12.85-1.08-14.92,3.59-2.06,4.67,1.17,15.1,4.76,18.33,3.6,3.24,10.43,8.99,10.79,14.92.36,5.93,3.41,13.83,3.23,19.04-.18,5.22,1.26,9.17-1.26,9.35-2.51.18-13.29-18.51-19.4-18.15-6.11.36-7.91-.72-15.82-1.08-7.9-.36-14.73-.36-20.84,2.88-6.11,3.23-7.19,7.72-13.66,9.34-6.47,1.62-13.81-2.16-20.83,2.52-7.02,4.67-21.76,11.32-20.14,21.2s8.26,42.95,11.32,47.8c3.05,4.85,2.89,9.88,5.67,12.22,2.78,2.34,4.03,3.77,4.03,3.77l-1.97,2.52s-3.6-2.7-5.93-.54c-2.34,2.16-3.96,6.65-1.26,17.43,2.69,10.78,3.59,15.99,2.87,23s-1.43,8.63.36,11.86c1.8,3.24.9,3.24.9,3.24,0,0-10.06.36-15.45-2.52-5.39-2.87-35.22-6.83-44.03-8.98-8.8-2.16-44.92-9.17-51.75-10.25-6.83-1.07-41.84-9.52-49.04-10.24-7.21-.72-7.93,5.39-12.24-3.05-4.31-8.45-8.27-33.43-9.16-43.67-.9-10.24-.18-30.55-4.5-32.17-4.31-1.61-10.06-3.05-12.94-.36-2.87,2.7-2.33,14.38-2.33,20.31s1.98,36.48,5.57,45.28c3.59,8.81,2.16,17.61,5.03,20.67,2.88,3.05,8.99,2.87,9.35,10.06.35,7.19,1.07,36.48-1.08,42.41-2.16,5.93-20.67,21.92-22.82,24.08-2.16,2.16-12.76,18.15-22.11,17.07-9.34-1.08-22.1-2.87-29.65-9.34-7.55-6.47-44.2-38.82-48.88-46.36-4.67-7.55-33.6-36.3-38.63-45.83-5.03-9.52-77.21-119.38-77.21-119.38l-6.52-6.83s-3.04-6.67-8.47-15.41c-5.43-8.73-18.25-25.96-18.25-25.96l-3.81-5.64s9.88-6.37,12.71-9.06c2.26-2.15,7.05-6.61,10.15-7.29,3.86-.84,9.06.58,11.73-.64s8.55-4.45,8.73-7.28c.16-2.44-3.78-6.67-5.97-7.74-3.18-1.55-10.37-3.06-13.9-2.74s-10.81,2.45-14.01,4.23-11.31,8.74-11.31,8.74l-6.51,6.02-25.93-49.37,127.44.14s25.79,33.3,44.91,41.26c19.11,7.96,37.42,35.84,48.57,37.43,11.15,1.59,39.02,14.33,62.11,11.94,23.1-2.39,37.43.8,37.43.8l7.32,46.19h9.4l11.95,61.31h12.74l7.96,31.06,39.02-3.19-6.37-19.11,24.69-16.29-18.32-60.89,64.5-70.93,26.95-31.06,73.09,30.26,40.49-39.82,65.72,44.6-15.93,29.46,55.75,39.64,117.85,85.36,70.08-41.05,50.38,5.28,6.15,47.74,55.2-9.9,26.03,38.97,47.78-3.59,19.91,30.26-88.4,53.68-40.61-25.01-19.91-23.89s-14.33-15.28-21.5-11.23c-7.16,4.06-5.57,16.8,2.39,24.77Z"/>
    <path class="cls-2" d="M344.47,201.45s26.29,16.95,38.65,18.33,23.03-1.88,32.43,0,26.41,6.88,34.53,15.27,31.44,23.52,31.44,23.52c0,0-.25,14.74-4.03,29.41s-11.18,34.01-17.14,38.04-28.1,23.11-43.45,24.63-39.94-8.92-44.5-18.43-16.24-16.19-20.87-20.98-7.12-7.23-7.12-7.23l.06-102.55Z"/>
    <path class="cls-2" d="M524.71,172.53l96.09,146.48,7.54,11.35-19.65-18.54s-27.13-18.66-36.29-22.56-50.82-33.78-61.95-39.7-77.7-47.02-83.91-49.1c-6.21-2.08-23.08-5.15-27.02-5.54s-28.01-4.9-34.04-7.8-20.42-6.22-20.42-6.22c0,0-1.58-6.79.23-7.38s2.23-.76,3.14-.84,176.28-.17,176.28-.17Z"/>
    <path class="cls-2" d="M826.58,739.98s9.07-14.23,17.24-11.22,23.43,9.87,23.43,9.87l14.85,25.74,30.42,42.8,21.7,29.12,18.64,15.51,10.66,8.79h-11.44s-33.87-24.56-41.58-30.44-37.81-23.22-41.83-28.63-42.09-61.52-42.09-61.52Z"/>
    <path class="cls-2" d="M857.26,635.73c-4.47,8.31-6.23,9.33-5.59,12.49s.75,10.49,5.59,17.21,31.43,45.57,35.53,50.88,42.27,61.47,47.42,67.14,16.33,26.11,18.02,28.94,8.21,10.26,8.21,10.26c0,0,6.81-10.71,10.65-10.65s5.95-.6,10.1,1.57,87.39,36.73,92.94,38.57,52.78,17.99,57.27,20.86,31.95,31.61,34.34,34.8,11.21,11.35,11.21,11.35l354.76-.12s19.28-10.82,17.92-17.44.05-35.33.05-35.33l4.52-5.64,13.92,7.83,17.01,5.15,17.31,2.22,2.49.04.4-20.26s-13.7,1.5-18.89,1.41-14.54.37-24.85-4-36.15-11.55-44.36-16.88-47.49-15.85-53.65-20.1-29.36-13.47-37.67-13.61-23.86-1.44-32.16-1.58-35.87,3.03-42.11,3.45-35.36,3.56-42.64,4.48-36.86.42-45.17.28-25.23-12.36-31.95-14.03-26.87-7.2-32.6-6.25-26.39-5.11-30.52-6.22-28.4-9.3-34.59-11.48-29.46-7.76-37.76-7.9-22.04-1.41-29.37,2.11-4.8,7.71-21.43,8.47-29.77,10.92-41.53.34-26.89-15.52-39.11-25.06-19.35-17.97-29.06-27.47-30.06-34.24-30.06-34.24c0,0,1.08,7.84-7.88,10.79s-14.5-7.01-19.56-14.88-27.17-47.47-27.17-47.47Z"/>
    <path class="cls-2" d="M1359.73,770.18s6.9-20.86,13.19-24.04,33.74-18.12,39.43-24.91,44.45-51.05,49.79-56.86,29.27-25.41,33.93-29.59,21.95-18.65,21.95-18.65l3.98-2.56,93.09,45.48-2.71,169.84s-62.61-13.59-71.38-18-41.99-17.75-49.15-21.15-28.94-13.92-36.14-14.7-19.2-8.52-30.04-7.06-28.88,2.14-36.42,2.01-12.74-2.51-19-.97-10.51,1.14-10.51,1.14Z"/>
    <path class="cls-2" d="M1596.29,546.75c-1.86,2.15-21.01,10.79-25.81,14.71s-22.91,20.36-25.13,22.51,17.33,9.8,23.09,13.15,23.09,11.28,28.12,15,14.34,10.69,14.34,10.69v-64.56s-14.62-11.51-14.62-11.51Z"/>
    <path class="cls-2" d="M1232.62,756.12s10.96-2.62,14.09-5.64,5.99-6.9,9.93-7.67,5.68-4.66,11.01-5.69,10.64-.38,14.58-1.44,7.32-2.68,7.32-2.68c0,0,15.08,2.49,21.51,2.88s17.88,2.26,24.62.69,28.63-4.28,34.26-6.43,12.95-4.54,12.95-4.54c0,0-16.64,7.28-19.75,9.47s-10.29,12.71-13.73,17.69-10.09,17.47-12.11,20.79-3.43,4.42-3.43,4.42c0,0-23.29,3.09-33.36,2.44s-21.52-2.24-29.84-6.58-18.35-7.27-28.2-12.49l-9.85-5.22Z"/>
  </g>
  <g id="River">
    <path class="cls-3" d="M861.79,588.77l-12.4,9.34-18.75-20.35s-10.06-14.09-15.76-17.11c-5.7-3.01-20.79-14.08-27.17-20.45-6.37-6.37-24.48-27.84-32.86-33.54-8.38-5.7-19.45-17.77-26.16-24.48s-56.92-61.22-64.81-77c-7.89-15.79-35.08-52.7-53.77-67.96-5.15-4.2-6.09-10.8-19.32-16.26-2.65-1.09-13.76-11.96-21.28-15.36-9.85-4.44-31.44-19.6-40.81-20.92-5.36-.74-22.16-11.33-27.43-11.77-9.9-.82-11.71,37.06-12.42,39.01-2.87,7.89-8.61,15.07-14.35,19.37-5.73,4.3-11.56,9.54-17.73,11.7-6.16,2.16-11.11,5.17-21.05,9.86-9.93,4.7-10.99,3.17-17.01,6.21-6.03,3.04-14.66,19.69-19.59,24.01-4.94,4.32-20.05,15.73-24.98,24.36s-6.62,9.51-17.57,17.72c-1.22.91-5.17,14.09-5.21,13.31-.05-.97-.22-17.47-.22-17.47,0,0-.67-3,1.8-4.29,6.48-3.4,3.59-2.69,7.91-8.55,4.31-5.86,11.44-11.2,15.14-16.75,3.7-5.55,7.4-11.72,12.33-15.73,4.94-4.01,14.51-13.29,20.06-16.07,5.55-2.77,7.38-.89,15.09-7.36,7.71-6.48,33.3-10.79,41.32-22.2,8.02-11.41,15.11-21.89,16.34-27.75.19-.88,4.59-15.1,5-19.51.66-7.04.71-17.5,2.26-25.15,0,0-4.75-4.91-11.36-9.87-6.62-4.97-12.11-10.37-23.19-16.14-11.08-5.77-21.16-15.17-31.38-16.46-10.23-1.28-24.83,2.95-33.43-.82-8.6-3.78-22.49-8.48-30.25-11.96-7.77-3.49-14.31-6.67-14.31-6.67v-8.36l.16-4.69.43-1.75s13.14,5.81,20.35,9.28c7.2,3.48,16.64,7.27,26.95,9.11,10.3,1.85,18.42.87,26.77,2.97,8.34,2.09,17.75,7.56,26.06,11.89s22.58,13.2,27.46,16.93c4.88,3.72,17.6,11.48,17.6,11.48l9.66,6.14h.02c12.1,3.98,35.95,19.27,46.76,27.49,21.75,16.54,46.8,26.99,46.8,26.99l42.2,34.03,36.97,43.61,19.55,28.77,26.09,38.38,44,37.38,42.44,38.01,42.83,49.32,14.22,16.08Z"/>
    <path class="cls-3" d="M882.4,600.55l-11.92,12.17-2.36,2.86s44.23,64.59,50.08,72.66c5.85,8.07,72.36,74.94,89.5,79.51s33.71,8,44.56,4.57,16.57-12.71,22.28-13.21,15.42-1.21,29.14,0,21.14,1.21,38.85,6.93c17.71,5.71,49.7,18.85,68.55,16.57s59.98,21.71,72.55,21.71,41.7,0,55.41-3.43c13.71-3.43,29.71-4.57,45.13-4.57s50.84-3.43,65.13,3.43c5.5,2.64,51.17,22.2,59.44,24.93,19.13,6.32,38.86,16.05,56.92,21.59,27.01,8.28,44.9,6.97,44.9,6.97l.6-18.28s-36.52-6.86-40.55-8.09c-17.27-5.25-34.31-10.43-56.93-20.82-31.78-14.59-63.58-24.21-70.1-26.3-16-5.14-28.56-4.57-43.99-2.86s-26.85-4.57-38.85-.57c-12,4-13.71,2.29-13.71,2.29,0,0,5.31-5.71,8.08-14.28,2.77-8.57,6.77-11.5,11.91-20.32,5.14-8.82,15.42-5.96,24.56-15.1,9.14-9.14,22.28-18.1,26.85-23.33s13.71-15.52,20.57-22.94c6.86-7.43,12-14.85,17.14-19.99s63.46-54.04,63.46-54.04l-4.98-2.65-4.79-.94s-48.54,45.96-50.77,47.97-3.8,5.59-6.82,7.82-6.59,8.16-9.16,10.73-16.99,16.32-18.1,18.44-5.48,8.16-7.6,11.17-5.81,4.69-8.83,7.93c-3.02,3.24-17.32,14.19-19.67,16.09s-8.05,5.92-14.08,7.93c-6.03,2.01-8.29,3.66-10.15,5.33s-4.08,5.56-5.38,8.34-3.34,4.45-5.38,8.9-4.63,7.42-7.79,11.49-4.26,8.16-5.93,10.2,3.15,3.34-3.71,3.34-14.09,2.41-26.88,2.41-17.06,1.3-35.6-2.04c-18.54-3.34-27.25-15.76-43.38-20.39-16.13-4.63-11.68-5.19-8.34-6.12,3.34-.93,5.19,1.48,11.87-2.41s9.46-3.52,12.05-7.42,9.64-5.75,14.83-7.23,4.63-3.71,11.12-3.71,4.38.15,11.87-1.3c7.48-1.45-1.09-2.1-1.09-2.1l-7.44.24-7.79-.19s-1.67,2.22-5.93,3.52-6.49,1.67-10.75,4.45-8.53,1.67-11.49,4.63-4.45,5.01-8.16,5.56-4.82.56-8.9,1.48c-4.08.93-5.56.37-5.56.37,0,0,.19-1.67-3.52-3.15s-4.45.37-10.57-.19-2.22-1.48-13.16-.37c-10.94,1.11-9.76-.93-13.5-2.41s-10.23,0-18.2-.19c-7.97-.19-20.21-.19-29.85-.37s-2.97.74-14.28-1.85c-11.31-2.6-1.3-.93-22.8-2.41-21.51-1.48-2.64-.08-19.25-.08s-22.24,0-38.01-3.66c-15.77-3.66-14.92,2.53-27.87-3.38-12.95-5.91-15.77-8.17-21.68-14.64s-3.1-5.35-12.39-14.92c-9.29-9.57-11.26-14.08-17.17-20.27-5.91-6.19-7.6-10.42-14.64-14.92-7.04-4.5-21.07-27.31-33.06-36.32-11.99-9.01-24.54-30.8-24.54-30.8Z"/>
  </g>
  <g id="Streets">
    <path class="cls-5" d="M1585.69,613.44s-15.62-9.58-20.48-13.02c-6.45-4.58-19.9-11.53-29.2-14.24l-1.19-2.55s4.55-3.88,9.77-7.37c5.23-3.48,12.41-12.19,18.08-16.11,5.66-3.92,19.81-16.12,24.39-21.78,4.57-5.66,5.01-11.11,5.01-17.42s-.87-4.36-6.1-8.14c-5.23-3.77-12.41-7.76-16.77-11.46-4.36-3.7-15.68-13.29-19.6-16.99s-13.72-18.51-18.29-23.08c-4.58-4.58-11.33-6.32-13.72-5.23-2.4,1.09-1.96,6.32,0,11.11,1.96,4.79,15.24,13.06,20.69,21.12,5.44,8.06,13.93,10.02,20.68,15.03,6.76,5.01,13.94,12.19,17.64,16.33,3.71,4.14-1.96,12.41-5.22,15.9-3.27,3.48-25.7,21.99-31.14,25.04-5.45,3.05-12.69,9.31-12.69,9.31l-29.46-49.85-16.87-21.35s-8.7-11.02-11.07-14.08c-3.14-4.07-16.65-12.07-16.65-12.07l-56.63-29.99-43.72-22.1-34.12-1.93s-18.27-9.1-39.58-14.68c-21.31-5.58-39.57-11.67-45.66-21.31-6.08-9.64-9.13-14.2-14.2-20.8-5.07-6.59-24.86-22.83-31.96-28.41-7.11-5.58-12.18-16.74-11.68-24.36.51-7.6-2.53-26.38-4.05-34.49-1.52-8.12-8.12-21.82-12.18-25.37s-12.68-3.55-9.64,2.02c3.04,5.59,7.61,12.69,10.66,15.23,3.04,2.53,6.59,21.31,7.1,28.91.5,7.62-1.02,14.72-4.57,14.72s-13.19-11.67-15.84-15.22c-2.65-3.55-17.64-1.52-24.24-3.04-6.59-1.53-18.77,7.6-21.31,11.16-2.53,3.55-15.73,3.04-24.86,5.07-9.13,2.03-15.72,8.12-17.76,12.68-2.02,4.57,2.54,23.85,2.54,23.85,0,0,8.63,26.38,9.39,30.95.76,4.56,5.83,11.67,5.83,11.67l-4.06,4.06-3.28-1.02c-3.29-1.02-4.33,4.56-4.33,4.56l2.03,11.17,3.53,14.71s1.04,11.67.14,16.42c-.89,4.75,2.96,8.91,2.96,8.91h-.01l-14.89.48-78.31-15.85-67.27-13.94h-11.53s-1.51,2.29-3.14,1.91c-1.64-.37-9.06-14.34-9.06-14.34,0,0-4.48-9.69-4.73-13.77-.26-4.09-4.09-46.71-4.09-46.71,0,0,.77-5.87-.76-5.62-1.53.26-7.92-2.04-9.45,0-1.53,2.05-1.53,6.13-1.02,8.17s3.06,34.46,3.06,34.46l9.19,36.24,7.66,8.93,1.28,24.25-1.95,23.99-16.18,17.62-16.59,16.59-15.56,8.16-15.09,1.64,13.12,10.13,21.44-9.07,18.52-17.22,11.48-11.75,1.57,20.36v23.74l-2.71,11.17c-6.11,0-11.74,2.02-16.29,5.42l-30.65-19.64-24.13-17.9-55.26-49.04-44.36-51.36-48.26-73.16-67.7-104.22s1.37-.61,3.22-1.68c1.86-1.08,4.29-3.03,8-5.85,3.71-2.83,6.14-4.1,8.58-6.05s5.07-4.1,8.68-5.95,5.85-.68,9.36.39,6.34,0,7.41-1.56c1.08-1.56-.29-3.61-1.95-4.68-1.65-1.07-4.09-1.37-4.09-1.37,0,0-2.54-.87-5.66-1.17-3.12-.29-5.26.59-6.82.59s-4.88,1.85-6.64,3.12c-1.75,1.27-3.21,2.63-6.73,5.07-3.51,2.44-7.21,4.88-11.11,7.7-3.9,2.83-5.37,4.45-5.37,4.45l-.78.98-37.01-56.97h-26.09l128.48,195.22,54.48,80.16,56.81,48.26,53.77,49.24,32.94,21.54.88-1.3c-.6,2.23-.91,4.56-.91,6.97,0,7.76,3.24,14.76,8.45,19.71l-4.46-3.63s-10.06,2.58-18.21,11.13c-8.15,8.54-14.12,14.27-23.36,32.74-9.23,18.47,7.65,47.36,7.65,47.36l112.41,159.34,42.93,33.23s27.69,20.35,33.69,22.69c6,2.33,33.14,11.74,25.09,17.49-8.06,5.75-25.32-4.6-33.37-4.6s-19.56-8.06-34.52-14.96c-14.96-6.9-102.41-36.82-133.48-47.18-31.06-10.35-92.05-27.61-110.46-31.06-18.41-3.45-102.4-9.21-133.47-12.66-31.07-3.45-86.3-20.71-110.46-25.31-24.16-4.61-105.86-28.77-119.67-32.22-13.8-3.45-26.14-7.21-26.14-7.21l.06,25.44s1.26.22,5.37,1.33c8.96,2.43,126.57,36.82,142.68,43.72,16.11,6.91,144.98,20.72,161.09,20.72s100.1,11.5,115.06,16.1c14.96,4.61,147.53,51.78,147.53,51.78,0,0,89.5,27.62,105.61,31.82,16.11,4.2,63.29-5.35,52.93-19.16-10.35-13.81-24.16-16.11-24.16-16.11l-52.93-35.67-40.27-39.12-65.59-94.35s-41.94-59.83-46.26-69.7c-4.32-9.87,8.02-22.83,8.02-22.83l17.24-21.13,10.19-10.49-6-3.89c3.55,2.15,7.63,3.49,12,3.81,0,0,11.24,14.79,24.22,31.09,12.98,16.3,27.7,34.11,34.68,40.15,13.94,12.08,58.32,29.76,83.68,33.57,25.36,3.8,83.68,30.43,101.43,36.77,17.76,6.34,73.54,0,101.44-6.95,27.89-6.96,57.06-4.46,79.88-.66,22.82,3.8,71-10.2,71-10.2l49.45-43.05,74.41-73.77c2.13-2.1,4.63-2.76,8.03-1.28l106.26,53.1.08-31.29-35.85-13.86ZM1219.08,375.93l7.61,12.69,27.91,17.25,39.56,11.16,17.48,6.71-17.11,12.08-24.02,8.17-22.1,13.93-52.37-9.13-22.19-10.24,2.1-2.75,12.94-16.74,15.47-18.26s10.16-19.29,14.72-24.87ZM1187.19,344.62l15.35,12.47,10.24,10.88-2.56,4.15-3.84,9.6-11.52,16.32-8.8,11.36-7.21,8.1-7.65,8.39-6.77,10.44,2.8.66-37.01-2.61-3.5.36-7.02-10.79-19.2-24.63s-11.84-13.44-14.39-15.68c-2.56-2.23-.96-6.72-.96-6.72l10.55-.96,12.8-.96,19.19-1.27,20.15-4.16,23.04-13.75,16.31-11.2ZM1074.14,349l-2.15-10.46-2.76-13.22,7.99-9.84,16.61-2.15,14.44-3.69,12.61-6.45h21.22l18.75,12.91,13.84,25.21-9.84,6.46-15.07,7.38-13.52,4.61-9.85,3.69-12.91,3.38h-14.45l-15.07,1.54-6.15-9.23-3.69-10.14ZM1073.31,403.16l2.24-4.16,4.8-5.12,9.6,2.56,7.67,10.23,10.56,14.4,7.68,14.71,10.49-1-38.41,3.92-6.89,3.56-4.22-10.31-.64-12.48-2.88-16.31ZM901.87,519.18l1.04-58.71-.76-32.75s.91-4.06,4.96-3.83c4.05.22,39.85,12.83,39.85,12.83l42.11,9.91,63.87,7.58,10.85,2.46s3.12.24,3.86,1.52c.74,1.28-.21,1.91-1.38,3.51-1.17,1.59-7.23,9.99-7.23,9.99l-15.64,21.06-20.84,10.1-81.3,35.73-24.51,11.45-5.95,3.67-1.5.89c-2.39-2.68-5.3-4.88-8.58-6.45l1.15-28.96ZM888.99,590.33c-9.74,0-17.64-7.89-17.64-17.64s7.9-17.64,17.64-17.64,17.64,7.9,17.64,17.64-7.9,17.64-17.64,17.64ZM1502.16,586.37c-17.13,6.98-57.98,45.99-57.98,45.99,0,0-51.99,54.52-62.13,65.93-10.15,11.41-65.94,15.21-65.94,15.21,0,0-54.52-2.53-65.93-2.53s-69.26,12.62-69.26,12.62l-70.21-11.35-116.65-38.04-50.98-39.89-38.87-39.05c7.23-4.9,11.99-13.18,11.99-22.57,0-4.39-1.04-8.54-2.91-12.21l1.67,2.45,18.97-7.88,24.99-10.36,41.03-18.97,32.65-16.6,19.34-9.3,25.17-37.57,8.2-10.4,31.1-5.31,43,1.55,26.43,7.78,24.87,7.77,30.51,7.91s7.78,2.79,6.77,6.85c-1.02,4.05-4.06,18.08-4.06,18.08l-14.36,49-54.06,156.48-6.48,19.46,12.18,1.94,21.94-62.25,36.65-109.35,21.03-72.09s1.38-12.4,8.22-19.24c6.84-6.84,28.01-14.55,28.01-14.55l17.86-6.84,5.07-2.43,7.94-4.41,8.16-2.64,12.86.99,23.34,8.14,52.46,31.21s25.86,15.02,33.56,21.3c2.76,2.26,6.5,5.34,8.6,6.93,3.7,2.81,10.37,7.34,12.97,11.18,2.6,3.84,4.11,15.78,7.82,23.02,9.52,18.55,20.23,40.8,20.23,40.8l2.94,11.46c-3.42.32-6.5.87-8.71,1.78Z"/>
    <polygon class="cls-5" points="1319.03 418.52 1311.65 423.74 1311.64 423.74 1319.03 418.52"/>
    <path class="cls-5" d="M1311.64,423.74h.01l7.38-5.22-7.39,5.22Z"/>
    <path class="cls-5" d="M421.13,369.83c.34-.43,2.23-1.62,2.78-1.62,8.04-.04,28.74-12.51,38.5-13.48,10.11-1,19.63-6.63,33.41,2.5,13.78,9.12,12.62,30.02,26.4,36.46s29.47,10.97,38.66,17.4c9.19,6.43,18.91,26.46,25.34,37.48,6.43,11.02,32.94,34.61,45.8,43.79s28.48,32.16,38.59,35.83c10.11,3.67,14.8,1.08,22.18,2.56s18.59,11.81,27.74,13.28c9.15,1.48,28.63,11.51,41.32,12.1,12.69.59,33.52,2,43.64,6.35,10.12,4.35,18.34,13.28,29.4,24.59s19.28,20.26,19.28,20.26l-6.29,6.68s-25.13-22.77-29.89-28.12c-4.76-5.36-24.4-17.26-34.51-18.45-10.12-1.19-35.7-.38-47.61-4.95-11.9-4.57-37.49-14.09-43.44-18.26s-20.83-.6-26.78-5.95-19.09-16.07-25.91-25.59c-6.82-9.52-37.37-29.57-39.41-31.37s-21.91-14.23-28.23-23.49c-6.32-9.26-16.71-33.88-20.33-36.37s-24.85-13.1-31.85-16.94c-7-3.84-21.99-17.75-22.81-23.94-1.29-9.73-9.91-16.44-13.55-17.62-5.81-1.87-13.47-1.78-27.25,3.64-13.78,5.42-10.96,7.59-22.26,9.17s-20.6,4.77-20.6,4.77l1.31-1.88,3.26-4.16,3.14-4.65Z"/>
    <path class="cls-5" d="M857.26,626.98l14.1,27.65s9.88,14.65,14.38,20.58,11.83,16.74,15.32,16.74,6.97-4.53,5.58-9.07c-1.39-4.53-12.2-15.35-15.34-20.58-3.14-5.23-9.77-12.91-12.21-20.58s-4.64-11.86-7.72-18.49l-3.09-6.63-11.01,10.37Z"/>
    <path class="cls-5" d="M332.44,307.92s7.37,4.73,10.5,8.31,6.44,6.66,10.55,11.93,7.21,10.53,13.86,14.67,15.99,7.49,20.18,7.89,10.44.81,12.4,1.55-6.91,3.64-6.91,3.64l-4.16,3.34-3.84,4.23s-3.42,1.08-9.58-2.21-13.52-4.76-18.97-10.06-13.18-15-16.33-17.57-7.69-5.01-7.69-5.01v-20.71Z"/>
  </g>
</svg>