<?xml version="1.0" encoding="UTF-8"?>
<svg id="Camp.fr" xmlns="http://www.w3.org/2000/svg" viewBox="0 0 1920 1080">
  <defs>
    <style>
      .cls-1 {
        fill: #e7a7ba;
      }

      .cls-2 {
        fill: #628ebc;
      }

      .cls-3 {
        fill: #fae8e9;
      }

      .cls-4 {
        fill: #dba0ae;
      }

      .cls-5 {
        fill: #84b866;
      }

      .cls-6 {
        fill: #ffffe8;
      }

      .cls-7 {
        fill: #f1f4ef;
      }

      .cls-8 {
        fill: none;
        stroke: #f1f4ef;
        stroke-miterlimit: 10;
        stroke-width: 2px;
      }

      .cls-9 {
        fill: #c4d67e;
      }

      .cls-10 {
        fill: #e9cbd1;
      }
    </style>
  </defs>
  <g id="Cave">
    <g id="Cave_outlines" data-name="Cave outlines">
      <path id="Big_cave" data-name="Big cave" class="cls-6" d="M179.29,810.11s35.7-35.97,59.24-55.26,60.46-64.56,73.05-80.17,47.88-86.93,61.67-120.73,39.97-129.18,49.26-169.27,50.73-107.24,71.07-128.43,67.17-75.29,93.89-91.91,149.22-70.88,180-72.47,129.63,2.89,155.86,9.92,148.83,41.46,168.91,59.01,75.87,59.53,92.65,81.4,41.56,80.31,53.77,106.12,12.85,60.45,26.49,87.04,31.25,81.37,38.73,100.39,34.99,87.17,50.1,104.52,55.94,61.01,75.07,76.11,76.32,34.72,100.1,44.59,60.93,33.94,60.93,33.94c0,0-16.7,20.55-48.53,26.42s-177.16,24.03-218.39,29.88-414.89,23.18-434.67,20.62-325.98-11.35-352.41-11.85-289.5-4.87-318.42-5.29-78.66-5.29-78.66-5.29l40.28-39.3Z"/>
    </g>
    <path class="cls-2" d="M261.77,819.42s69.61-48.34,90.5-74.41c20.89-26.06,65.56-87.74,74.09-107.29,8.53-19.55,55.64-161.3,61.06-187.51,5.43-26.2,37.24-128.81,50.52-148.34s67.7-79.67,90.34-95.23c22.63-15.55,113.96-60.11,140.89-61.12,26.93-1.01,158.73-2.55,178.47,6.54,19.74,9.09,109.31,48.57,126.58,61.45s86.92,76.43,93.39,95.8c6.47,19.37,29.88,101.35,34.09,121.92,4.21,20.57,38.56,113.95,43.49,125.3s25.26,63.98,31.05,73.86c5.79,9.88,34.87,44.25,42.35,52.49,7.49,8.24,35.52,39.36,52.81,51.69,17.29,12.33,113.5,44.49,130.41,45.64,16.91,1.15,39.74,6.13,39.74,6.13l-180.66,33.06-239.11,24.62h-270.87l-243.37-11.89-185.73-2.42-145.13,3.39-38.16-.97,23.24-12.72Z"/>
    <path class="cls-10" d="M387.76,787.95c-6.53,17.96-7.27,27.83,7.09,28.11,14.36.27,40.12,11.75,47.98,5.31,7.86-6.44,12.07-23.93,4.42-28.46s-6.19-22.63-23.35-21.31c-17.16,1.32-27.05-6.59-31.6,4.89l-4.54,11.47Z"/>
    <path class="cls-4" d="M418.39,752.53c-.12,7.13-.61,16.25,5.86,16.77s18.35,6.31,21.97,4.01,10.2-5.39,9.55-10.12c-.65-4.74,8.05-10.84.05-15.78-8-4.95-5.97-12.1-17.04-11.51s-18.06.89-20.45,6.36.06,10.27.06,10.27Z"/>
    <path class="cls-4" d="M363.05,817.16c3.16,6.39,6.93,14.72,12.91,12.2,5.99-2.51,19.2-2.83,21.36-6.53,2.16-3.7,6.59-9.47,3.83-13.38-2.76-3.91,2.17-13.32-7.21-14.04-9.38-.72-10.86-8-20.42-2.39s-15.63,9.09-15.24,15.04c.39,5.95,4.77,9.09,4.77,9.09Z"/>
    <path class="cls-1" d="M520.83,587.95c-2.39-2.05-5.61-2.88-8.84-2.36-12.23,2-23.99,4.38-22.77,18.29,1.37,15.66-11.45,48.57,3.24,47.12,14.69-1.45,33.96,4.97,36.48-11.06,2.52-16.03,10.13-24.69,3.4-37.38-3.79-7.14-8.29-11.85-11.5-14.62Z"/>
    <path class="cls-1" d="M475.61,684.03c-2.39-2.05-5.61-2.88-8.84-2.36-12.23,2-23.99,4.38-22.77,18.29,1.37,15.66-11.45,48.57,3.24,47.12,14.69-1.45,33.96,4.97,36.48-11.06,2.52-16.03,10.13-24.69,3.4-37.38-3.79-7.14-8.29-11.85-11.5-14.62Z"/>
    <path class="cls-1" d="M522.59,693.66c-2.39-2.05-5.61-2.88-8.84-2.36-12.23,2-23.99,4.38-22.77,18.29,1.37,15.66-11.45,48.57,3.24,47.12,14.69-1.45,33.96,4.97,36.48-11.06,2.52-16.03,10.13-24.69,3.4-37.38-3.79-7.14-8.29-11.85-11.5-14.62Z"/>
    <path class="cls-1" d="M475.06,763.49c-2.39-2.05-5.61-2.88-8.84-2.36-12.23,2-23.99,4.38-22.77,18.29,1.37,15.66-11.45,48.57,3.24,47.12,14.69-1.45,33.96,4.97,36.48-11.06,2.52-16.03,10.13-24.69,3.4-37.38-3.79-7.14-8.29-11.85-11.5-14.62Z"/>
    <path class="cls-4" d="M459.9,718.47c-1.78,2.88-5.18,2.35-5.5-.85-1.05-10.27-2.63-12.89,2.41-22.76,6.24-12.23,7.91-13.61,10.89-25.89,2.98-12.28,3.95-15.69,9.5-20.59,5.55-4.89,2.98-7.31,8.73-4.53,5.76,2.77,14.97-6.83,9.02,7.42-5.95,14.25-4.84,26.99-14.2,37.99s-6.83,10.12-13.84,19.66c-7.01,9.54-2.06,1.55-7.01,9.54h0Z"/>
    <path class="cls-4" d="M495.11,805.93c.89,3.26-1.82,5.39-4.38,3.44-8.21-6.25-11.22-6.88-14.99-17.3-4.67-12.91-4.54-15.07-11.48-25.63-6.94-10.56-8.76-13.6-8.55-21s-3.31-7.16,2.65-9.48c5.96-2.31,5.23-15.6,11.58-1.52,6.35,14.07,16.41,21.97,18.06,36.32,1.65,14.35,2.73,11.9,4.91,23.53,2.18,11.63-.28,2.56,2.18,11.63h0Z"/>
    <path class="cls-3" d="M908.61,222.3s4.45.38,4.82,8.12-.79,19.59,0,29.37.61,23.24,2.41,34.57,3.02,11.21,3.54,5.25c.53-5.96-.35-22.05,0-30.88s-.71-19.17.17-26.96c.88-7.79,4.32-15.14,6.11-12.22s6.28,5.27,5.55,11.22c-.73,5.95-1.56,6.35-1.49,13.35s.06,18.32,0,21.2-.43,13.6,1.57,10.33c2-3.26,2.25-16.43,2.25-16.43,0,0-.53-15.45,1.42-20.56s-.82-11.13,2.68-11.06,7.07-3.98,6.99.55c-.09,4.53,1.93,6.83,1.37,14.23-.55,7.4.43,9.68-.76,18.3-1.19,8.62-1.15,17.06-1.43,20.76s1.76,18.36,2.29,10.75c.53-7.61.69-16.04,2.73-25.68s2.12-13.96,1.85-21.37c-.27-7.42-1.53-16.7,1.55-16.44s3.86,2.54,7.36,2.41,2.36.47,6.59-.08,7.33.54,7.33.54"/>
    <path class="cls-3" d="M843.56,212.56s4.45-.43,6.21,7.11c1.76,7.54,2.77,19.41,5.32,28.89s4.81,22.75,8.64,33.56c3.82,10.81,5,10.48,4.44,4.52-.56-5.96-4.34-21.62-5.6-30.37-1.25-8.75-4.17-18.72-4.72-26.55-.54-7.83,1.5-15.67,3.8-13.13s7.13,4.04,7.49,10.03c.36,5.99-.39,6.53.95,13.4,1.34,6.87,3.38,18.01,3.85,20.85.47,2.84,2.04,13.45,3.41,9.88s-.76-16.57-.76-16.57c0,0-3.32-15.1-2.32-20.47.99-5.38-2.82-10.8.63-11.37s6.24-5.2,6.97-.73,3.13,6.37,3.93,13.74c.8,7.38,2.18,9.44,2.57,18.14.39,8.7,1.96,16.99,2.36,20.68.4,3.69,5.05,17.74,4.2,10.16-.86-7.58-2.22-15.91-1.97-25.75.26-9.84-.44-14.11-2.05-21.35-1.61-7.24-4.53-16.15-1.45-16.45s4.26,1.8,7.68,1.03c3.42-.77,2.41.03,6.46-1.27,4.05-1.3,7.31-.8,7.31-.8"/>
    <g>
      <polygon class="cls-8" points="1189.73 471.67 1176.92 838.57 869.17 841.46 882.46 460.94 1189.73 471.67"/>
      <line class="cls-8" x1="1188.24" y1="514.37" x2="880.97" y2="503.64"/>
      <polygon class="cls-8" points="1181.79 699.2 874.15 698.86 872.74 739.31 1180.35 740.49 1181.79 699.2"/>
      <polyline class="cls-8" points="1165.12 470.81 1152.3 838.02 1119.93 839.11 1139.31 469.91 1110 468.88 1097.14 837.02 1067.72 836.69 1080.6 467.86 1047 466.68 1041.19 839.85 1011.12 838.8 1014.13 465.53 989.79 464.68 985.35 839.31 949.54 840.71 958.35 463.59 932.53 462.68 925.2 839.86 896.58 840.07 909.78 461.89 882.46 460.94"/>
      <polygon class="cls-8" points="886.58 342.95 869.17 841.46 861.65 839.33 880.09 342.73 886.58 342.95"/>
      <polyline class="cls-8" points="1186.33 455.3 1172.12 838.16 1176.92 838.57"/>
      <g>
        <path class="cls-8" d="M1171.58,478.56c1.48-.17,2.84.38,3.38,1.37.82,1.51-.55,3.5-1.86,4.31-1.99,1.22-4.75.31-6.3-1.23-2.45-2.43-1.48-6.01-1.41-6.25.89-3.06,3.71-4.25,4.43-4.56,3.27-1.39,6.3-.13,7.1.25,1.28.59,3.12,1.88,4.79,5.24,6.09,12.29-1.24,30.52-5.41,34.14-.35.3-1.37,1.19-2.77,1.23-1.77.05-3.54-1.26-4.3-2.93-.87-1.91-.18-3.73.18-4.66.27-.71,1.49-3.9,3.66-3.86,1.35.02,2.5,1.29,2.93,2.48.57,1.6.01,3.49-1.45,4.75"/>
        <path class="cls-8" d="M1157.69,477.28c-1.56.1-2.91,1.03-3.42,2.4-.74,1.97.6,3.92,1.5,4.76,1.83,1.69,4.74,1.56,6.43.22,2.82-2.23,2.67-7.77.37-10.68-2.14-2.71-5.68-2.55-7.68-2.45-4.04.19-6.86,2.34-8.02,3.25,0,0-2.83,2.22-4.86,5.94-5.3,9.72-5.58,23.83.49,29.22.57.5,2.96,2.63,5.71,1.97,2.41-.58,4.49-3.14,4.66-5.97.03-.48.17-2.8-1.42-4.36-1.51-1.49-3.48-1.2-3.9-1.14-.56.08-1.64.24-2.51,1.2-.8.89-1.37,2.4-.92,3.78.19.6.53,1.01.76,1.25"/>
        <path class="cls-8" d="M1121.33,476.45c.48.25,1.71.97,2.37,2.44.98,2.2.16,4.99-1.43,5.99-2.46,1.55-7.19-.86-8.67-4.5-1.07-2.64-.5-5.89,1.31-7.88,3.63-3.99,11.37-2.01,15.61.55,1.21.73,3.61,2.21,5.22,5.13,2.18,3.96,1.43,7.9.5,12.83-.93,4.94-1.99,10.5-6.71,14.89-1.3,1.2-3.84,3.21-7.52,4.21-2.65.72-5.98,1.62-8.66-.3-2.14-1.53-4.22-4.8-2.99-8.05,1.16-3.07,4.84-4.99,7.75-3.96,1.61.57,3.37,2.17,3.54,4.38.13,1.67-.71,2.93-1.01,3.35"/>
        <path class="cls-8" d="M942.63,470.24c.48.25,1.71.97,2.37,2.44.98,2.2.16,4.99-1.43,5.99-2.46,1.55-7.19-.86-8.67-4.5-1.07-2.64-.5-5.89,1.31-7.88,3.63-3.99,11.37-2.01,15.61.55,1.21.73,3.61,2.21,5.22,5.13,2.18,3.96,1.43,7.9.5,12.83-.93,4.94-1.99,10.5-6.71,14.89-1.3,1.2-3.84,3.21-7.52,4.21-2.65.72-5.98,1.62-8.66-.3-2.14-1.53-4.22-4.8-2.99-8.05,1.16-3.07,4.84-4.99,7.75-3.96,1.61.57,3.37,2.17,3.54,4.38.13,1.67-.71,2.93-1.01,3.35"/>
        <path class="cls-8" d="M1101.37,474.71c-1.84.86-3,2.54-2.87,4.16.2,2.41,3.18,3.77,5.4,3.58,2.16-.19,3.48-1.85,3.92-2.42,1.5-1.9,2.42-5.12.97-7.54-1.35-2.26-4.08-2.67-6.1-2.98-4.18-.63-7.52.72-9.47,1.55-1.48.63-6.87,2.99-10.28,8.85-.18.32-.95,1.66-1.64,3.63-2.73,7.77-.53,14.58.22,16.81.86,2.55,1.8,5.22,4.39,7.37.87.73,2.46,2.02,4.84,2.31,2.5.31,6.02-.46,7.84-3.33,1.16-1.83,1.94-4.98.23-7.18-1.5-1.93-4.03-2-4.58-2.02-.73-.02-3.33-.09-4.67,1.87-.85,1.25-.73,2.65-.66,3.16"/>
        <path class="cls-8" d="M925.88,468.68c-1.45.87-2.37,2.56-2.28,4.18.14,2.4,2.47,3.75,4.21,3.54,1.7-.21,2.74-1.88,3.1-2.45,1.19-1.92,1.93-5.14.82-7.54-1.04-2.25-3.18-2.64-4.77-2.93-3.27-.6-5.9.78-7.44,1.62-1.17.64-5.42,3.04-8.13,8.93-.15.32-.76,1.66-1.31,3.64-2.2,7.79-.53,14.58.05,16.8.66,2.54,1.38,5.2,3.39,7.34.68.72,1.92,2,3.78,2.28,1.96.29,4.73-.51,6.18-3.39.92-1.83,1.56-4.99.24-7.18-1.16-1.92-3.15-1.97-3.58-1.98-.57-.01-2.62-.06-3.68,1.9-.68,1.25-.59,2.66-.54,3.16"/>
        <path class="cls-8" d="M1056.13,473.97c.14.05,2.7.97,3.14,3.24.45,2.33-1.68,4.38-3.53,5.02-2.79.97-5.38-1.11-6.48-1.99-.82-.66-1.98-1.59-2.42-3.22-.56-2.1.44-3.94.68-4.37,1.74-3.17,5.81-3.91,9.1-4.5,2.67-.49,8.52-1.48,14.45,1.55,1.29.66,3.61,1.88,5.64,4.47,1.54,1.96,2.18,3.8,2.58,4.95,2.06,6.01.81,11.57,0,15.15-.36,1.6-.82,3.58-1.93,6.02-1.44,3.16-2.91,6.37-6.34,8.18-.79.41-4.62,2.44-8.46.63-3.24-1.52-4.26-4.72-4.35-5.01-.76-2.51-.03-4.61.35-5.64.5-1.38,1.63-4.47,4.56-5.21,1.92-.49,4.69.02,5.71,1.97,1.1,2.09-.01,5.45-3.16,7"/>
        <path class="cls-8" d="M1034.11,473.53c-1.77,2.32-1.78,5.34-.25,7.17,2.02,2.42,7.98,2.39,9.96.82,3.06-2.42,2.46-8.54.1-11.55-3.9-4.97-16.62-4.33-22.78.75-7.01,5.8-6.63,16.14-6.41,21.78.04,1.15.2,3.56,1.17,6.43,1.02,3.04,2.04,6.07,4.96,7.69,2.4,1.33,6.08,1.71,8.69-.18,4.1-2.96,3.84-10.23.37-13.56-2.12-2.03-6.13-3.26-8.33-1.51-1.05.84-1.7,2.36-1.52,3.88.2,1.65,1.36,3.08,3.01,3.73"/>
        <path class="cls-8" d="M977.64,471.56c-1.77,2.32-1.78,5.34-.25,7.17,2.02,2.42,7.98,2.39,9.96.82,3.06-2.42,2.46-8.54.1-11.55-3.9-4.97-16.62-4.33-22.78.75-7.01,5.8-6.63,16.14-6.41,21.78.04,1.15.2,3.56,1.17,6.43,1.02,3.04,2.04,6.07,4.96,7.69,2.4,1.33,6.08,1.71,8.69-.18,4.1-2.96,3.84-10.23.37-13.56-2.12-2.03-6.13-3.26-8.33-1.51-1.05.84-1.7,2.36-1.52,3.88.2,1.65,1.36,3.08,3.01,3.73"/>
        <path class="cls-8" d="M997.95,470.55c.79,1.92-.91,5.45-5.88,4.82-1.94-.25-2.3-5.21-.98-7.53,2.03-3.55,9.31-3.57,13.81-.77,11.02,6.85,11.45,34.34,3.38,39.25-2.37,1.44-5.91,1.65-8.01-.28-2.75-2.53-3.25-8.86-.54-10.76,1.67-1.17,4.35-.54,6.63,1.32"/>
        <path class="cls-8" d="M891.15,466.7c.89,1.92-.99,5.45-6.53,4.8-2.16-.25-2.59-5.22-1.12-7.53,2.25-3.54,10.35-3.53,15.38-.71,12.31,6.9,12.89,34.39,3.92,39.27-2.63,1.43-6.58,1.62-8.92-.31-3.08-2.54-3.66-8.87-.65-10.77,1.85-1.17,4.84-.52,7.39,1.35"/>
      </g>
      <path class="cls-8" d="M1160.72,706.01c1.48-.17,2.84.38,3.38,1.37.82,1.51-.55,3.5-1.86,4.31-1.99,1.22-4.75.31-6.3-1.23-2.45-2.43-1.48-6.01-1.41-6.25.89-3.06,3.71-4.25,4.43-4.56,3.27-1.39,6.3-.13,7.1.25,1.28.59,3.12,1.88,4.79,5.24,6.09,12.29-1.24,30.52-5.41,34.14-.35.3-1.37,1.19-2.77,1.23-1.77.05-3.54-1.26-4.3-2.93-.87-1.91-.18-3.73.18-4.66.27-.71,1.49-3.9,3.66-3.86,1.35.02,2.5,1.29,2.93,2.48.57,1.6.01,3.49-1.45,4.75"/>
      <path class="cls-8" d="M1146.83,704.72c-1.56.1-2.91,1.03-3.42,2.4-.74,1.97.6,3.92,1.5,4.76,1.83,1.69,4.74,1.56,6.43.22,2.82-2.23,2.67-7.77.37-10.68-2.14-2.71-5.68-2.55-7.68-2.45-4.04.19-6.86,2.34-8.02,3.25,0,0-2.83,2.22-4.86,5.94-5.3,9.72-5.58,23.83.49,29.22.57.5,2.96,2.63,5.71,1.97,2.41-.58,4.49-3.14,4.66-5.97.03-.48.17-2.8-1.42-4.36-1.51-1.49-3.48-1.2-3.9-1.14-.56.08-1.64.24-2.51,1.2-.8.89-1.37,2.4-.92,3.78.19.6.53,1.01.76,1.25"/>
      <path class="cls-8" d="M1111.44,705.89c.45.24,1.6.92,2.21,2.3.91,2.08.15,4.71-1.34,5.66-2.3,1.47-6.73-.81-8.11-4.25-1-2.49-.47-5.56,1.23-7.43,3.4-3.77,10.63-1.9,14.6.51,1.14.69,3.38,2.09,4.88,4.84,2.04,3.74,1.34,7.45.46,12.11-.88,4.66-1.86,9.91-6.28,14.05-1.21,1.14-3.59,3.03-7.03,3.97-2.48.68-5.59,1.53-8.1-.28-2-1.44-3.94-4.53-2.79-7.6,1.09-2.9,4.53-4.71,7.26-3.74,1.5.54,3.15,2.05,3.31,4.13.12,1.58-.66,2.77-.95,3.16"/>
      <path class="cls-8" d="M937.78,704.91c.45.24,1.6.95,2.21,2.4.91,2.17.14,4.91-1.35,5.9-2.31,1.53-6.74-.83-8.12-4.42-1-2.59-.46-5.79,1.24-7.75,3.41-3.93,10.65-1.99,14.63.51,1.14.72,3.38,2.17,4.88,5.04,2.04,3.9,1.33,7.77.45,12.63-.88,4.86-1.88,10.34-6.31,14.66-1.22,1.19-3.6,3.17-7.05,4.15-2.48.71-5.6,1.6-8.11-.28-2-1.5-3.94-4.72-2.79-7.92,1.09-3.03,4.55-4.92,7.27-3.91,1.51.56,3.15,2.13,3.31,4.31.12,1.64-.67,2.88-.96,3.3"/>
      <path class="cls-8" d="M1093.58,704.74c-1.84.86-3,2.54-2.87,4.16.2,2.41,3.18,3.77,5.4,3.58,2.16-.19,3.48-1.85,3.92-2.42,1.5-1.9,2.42-5.12.97-7.54-1.35-2.26-4.08-2.67-6.1-2.98-4.18-.63-7.52.72-9.47,1.55-1.48.63-6.87,2.99-10.28,8.85-.18.32-.95,1.66-1.64,3.63-2.73,7.77-.53,14.58.22,16.81.86,2.55,1.8,5.22,4.39,7.37.87.73,2.46,2.02,4.84,2.31,2.5.31,6.02-.46,7.84-3.33,1.16-1.83,1.94-4.98.23-7.18-1.5-1.93-4.03-2-4.58-2.02-.73-.02-3.33-.09-4.67,1.87-.85,1.25-.73,2.65-.66,3.16"/>
      <path class="cls-8" d="M919.77,705.05c-1.63.83-2.67,2.47-2.56,4.03.17,2.33,2.81,3.64,4.79,3.45,1.92-.19,3.09-1.8,3.49-2.35,1.34-1.85,2.16-4.97.88-7.3-1.19-2.18-3.62-2.57-5.41-2.87-3.71-.6-6.67.72-8.41,1.52-1.32.61-6.11,2.91-9.15,8.6-.16.31-.85,1.61-1.47,3.52-2.44,7.53-.51,14.11.15,16.27.76,2.46,1.59,5.04,3.88,7.13.77.7,2.18,1.95,4.29,2.23,2.22.29,5.35-.46,6.97-3.25,1.03-1.77,1.73-4.83.23-6.95-1.32-1.87-3.58-1.93-4.06-1.94-.65-.02-2.96-.08-4.15,1.82-.76,1.21-.65,2.57-.59,3.06"/>
      <path class="cls-8" d="M1051.33,705.29c.12.05,2.34.94,2.7,3.15.38,2.28-1.48,4.29-3.08,4.92-2.42.96-4.66-1.07-5.6-1.92-.71-.64-1.71-1.54-2.09-3.15-.48-2.06.4-3.86.61-4.28,1.52-3.1,5.05-3.85,7.9-4.44,2.32-.49,7.39-1.48,12.52,1.46,1.11.64,3.12,1.83,4.87,4.35,1.32,1.91,1.88,3.71,2.21,4.84,1.76,5.87.66,11.32-.06,14.82-.32,1.57-.72,3.5-1.7,5.9-1.26,3.09-2.55,6.24-5.52,8.03-.68.41-4.01,2.4-7.33.65-2.8-1.48-3.68-4.6-3.75-4.88-.65-2.45,0-4.51.32-5.52.44-1.35,1.43-4.38,3.97-5.12,1.67-.48,4.06,0,4.95,1.9.94,2.04-.03,5.34-2.77,6.86"/>
      <path class="cls-8" d="M1030.98,706.15c-1.72,2.24-1.73,5.15-.24,6.92,1.97,2.34,7.77,2.31,9.7.8,2.98-2.34,2.4-8.24.1-11.15-3.8-4.8-16.19-4.19-22.18.72-6.83,5.59-6.45,15.57-6.24,21.02.04,1.11.2,3.43,1.14,6.2,1,2.94,1.99,5.86,4.84,7.42,2.34,1.29,5.92,1.65,8.46-.17,4-2.85,3.74-9.87.35-13.08-2.07-1.96-5.97-3.15-8.11-1.46-1.03.81-1.66,2.28-1.48,3.75.2,1.59,1.32,2.97,2.93,3.6"/>
      <path class="cls-8" d="M973.98,705.69c-1.96,2.23-1.95,5.15-.24,6.92,2.26,2.35,8.9,2.35,11.11.84,3.4-2.32,2.7-8.23.06-11.15-4.37-4.82-18.55-4.27-25.38.61-7.79,5.56-7.3,15.54-7.04,20.99.05,1.11.25,3.44,1.34,6.21,1.16,2.94,2.31,5.87,5.57,7.45,2.69,1.3,6.78,1.68,9.69-.12,4.56-2.83,4.23-9.85.34-13.08-2.37-1.97-6.84-3.18-9.29-1.5-1.17.8-1.89,2.27-1.67,3.74.23,1.59,1.53,2.98,3.37,3.61"/>
      <path class="cls-8" d="M995.24,704.79c.83,1.79-.92,5.09-6.13,4.48-2.03-.24-2.43-4.87-1.05-7.03,2.11-3.31,9.71-3.3,14.43-.66,11.54,6.44,12.09,32.11,3.68,36.66-2.47,1.33-6.17,1.52-8.37-.29-2.89-2.37-3.43-8.28-.61-10.05,1.74-1.09,4.54-.49,6.93,1.26"/>
      <path class="cls-8" d="M882.64,704.79c.89,1.76-.97,4.98-6.52,4.37-2.16-.24-2.6-4.78-1.14-6.89,2.24-3.24,10.34-3.2,15.38-.61,12.33,6.35,12.99,31.49,4.03,35.93-2.63,1.3-6.57,1.47-8.92-.31-3.09-2.33-3.68-8.12-.68-9.85,1.85-1.06,4.84-.46,7.39,1.25"/>
      <polyline class="cls-8" points="1172.12 838.16 1071.07 740.87 949.54 840.71 872.74 739.31"/>
      <line class="cls-8" x1="1175.53" y1="740.47" x2="1067.72" y2="836.69"/>
      <polyline class="cls-8" points="1067.72 836.69 951.87 740.76 869.17 841.46"/>
    </g>
    <path class="cls-1" d="M1322.46,737.59c28.78,3.67,42.4,31.87,49.21,43.58,6.81,11.71,10.35,26.59-4.1,31.05-14.45,4.46-32.88,8.63-35.3-9.3-2.42-17.93-6.43-26.56-19.62-30.8-13.19-4.24-24.72-24.77-13.53-34.88,11.18-10.1,23.34.35,23.34.35Z"/>
    <path class="cls-1" d="M1193.56,707.19c-20.26,20.77-13.39,51.32-11.44,64.73,1.94,13.41,8.43,27.26,22.52,21.77,14.09-5.49,31.12-13.69,21.86-29.23-9.26-15.55-11.48-24.8-3.79-36.32,7.69-11.53,3.95-34.77-11.09-35.73-15.04-.96-18.06,14.78-18.06,14.78Z"/>
    <path class="cls-1" d="M1215.64,620.6c28.78,3.67,42.4,31.87,49.21,43.58,6.81,11.71,10.35,26.59-4.1,31.05-14.45,4.46-32.88,8.63-35.3-9.3-2.42-17.93-6.43-26.56-19.62-30.8-13.19-4.24-24.72-24.77-13.53-34.88,11.18-10.1,23.34.35,23.34.35Z"/>
    <path class="cls-4" d="M1218.26,760.98c-19.2,15.62-49.69,54.99-24.99,54.02,24.7-.97,41.03,18.97,51.33,12.62,10.3-6.34,28.52-10.96,39.47-12.62,10.95-1.67,32.98-13.6,25.23-26.1-7.75-12.5-32.31-20.24-46.79-23.43-14.47-3.19-44.25-4.48-44.25-4.48Z"/>
    <path class="cls-3" d="M1198.28,727.95c-1.96,8.83,5.36,34.95,14.4,32.6,9.04-2.35,36.72-2.61,43.22.15,6.5,2.76,40.53,11.05,36.64-5.49-3.9-16.55,22.74-66.14-2.97-68.52-25.72-2.38-41.7-14.1-47.41,3.52l-36.49,28.01-7.38,9.74Z"/>
    <path class="cls-4" d="M1184.11,695.36c24.64,6.11,52.85,8.47,52.93-7.25.08-15.72,3.89-41.19,5.02-49.2,1.13-8.01-9.19-16.71-21.81-4.19-12.62,12.52-30.08,7.75-33.51,22.97-3.43,15.22-2.63,37.66-2.63,37.66Z"/>
    <path class="cls-4" d="M1300.97,813.27c24.64,6.11,52.85,8.47,52.93-7.25.08-15.72,3.89-41.19,5.02-49.2,1.13-8.01-9.19-16.71-21.81-4.19-12.62,12.52-30.08,7.75-33.51,22.97-3.43,15.22-2.63,37.66-2.63,37.66Z"/>
    <path class="cls-3" d="M1229.16,566.3c-44.46,16.66-41.07,30.7-40.86,50.04.21,19.34,10.05-5.49,17.5-.82,7.45,4.66,28.37,22.67,28.47,5.93.1-16.73,7.04-27.44,2.15-33.84s-7.25-21.31-7.25-21.31Z"/>
    <path class="cls-3" d="M1220.28,774.49c-44.46,16.66-41.07,30.7-40.86,50.04.21,19.34,10.05-5.49,17.5-.82,7.45,4.66,28.37,22.67,28.47,5.93.1-16.73,7.04-27.44,2.15-33.84-4.9-6.4-7.25-21.31-7.25-21.31Z"/>
    <path class="cls-10" d="M1240.81,660.16c-.66.57-1.03,1.41-1.01,2.28.28,20.75,16.48,17.18,24.36,17.2,8.05.02,7.52-12.42,6.75-16.75-.77-4.34-1.49-15.13-10.03-14.24-7.08.74-16.92,8.79-20.07,11.51Z"/>
    <path class="cls-10" d="M1378.61,784.51c-.66.57-1.03,1.41-1.01,2.28.28,20.75,16.48,17.18,24.36,17.2,8.05.02,7.52-12.42,6.75-16.75-.77-4.34-1.49-15.13-10.03-14.24-7.08.74-16.92,8.79-20.07,11.51Z"/>
    <path class="cls-3" d="M450.53,787.5c-.45,24.83,12.38,32.8,22.09,33.85,9.71,1.05,31.65,4,43.84,0,12.19-4,29.51-19.92,9.31-23.76-6.43-1.22-11.54-7.45-16.15-15.09-9.87-16.34-17.44-39.12-30.82-32.97-13.59,6.25-23.76,17.08-28.74,23.15-2.14,2.61-2.73,6.25-1.53,9.45l2,5.36Z"/>
    <path class="cls-4" d="M526.73,747.27c-1.55.06-3.1.02-4.6-.37-9.74-2.48-13.99,13.21-13.95,21.74.04,9.1,7.35,28.92,12.44,21.13,5.09-7.79,10.66.11,15.23-11.73,4.57-11.84,7.16-16.1,3.31-20.69s-5.72-8.05-8.54-9.4c-1.27-.61-2.7-.73-3.89-.68Z"/>
    <path class="cls-4" d="M536.68,802.23c-.93-1.24-1.77-2.55-2.3-4-3.46-9.44-18.8-4.07-25.81.78-7.48,5.18-19.71,22.41-10.4,22.21,9.3-.2,5.94,8.86,18.29,5.94,12.35-2.92,17.32-3.19,18.94-8.96s3.41-9.27,2.93-12.36c-.22-1.39-.92-2.64-1.64-3.59Z"/>
    <path class="cls-3" d="M467.94,722.05c-1.69,6.3.15,12.97,4.83,17.29,9.2,8.5,24.47,17.76,30.02,4.72,7.84-18.42,35.72-39.76,32.5-51.94-3.22-12.18-18.03-51.17-27.03-38.54-9,12.63-15.72,6.59-23.18,24.41-7.46,17.82-5.37-1.81-12.44,25.51l-2.27,9.42-2.45,9.13Z"/>
    <path class="cls-7" d="M1510.93,795.12c-10.51.66-69.39-26.63-77.6-27.86-57.48-8.58-65.08-59.4-111.5-95.44-53.05-41.19-64.96-132.07-94.23-189.32-29.26-57.25-34.3-158.75-73.69-213.14-39.39-54.39-89.25-85.45-155.84-107.91-66.59-22.45-184.44-28.76-272.24,0-87.8,28.76-146.39,118.46-173.76,148.23-27.37,29.77-77.61,241.45-88.4,276.94-10.78,35.49-95.36,217.53-197.58,236.2,0,0,44.44,13.74,96.54-22.58,52.1-36.32,97.33-122.09,118.3-178.96,20.98-56.86,49.02-138.69,55.17-164.34,6.15-25.64,25.43-104.9,48.93-141.7,23.5-36.8,102.55-111.17,128.52-125.04,25.98-13.87,127.56-28.79,160.24-25.36,32.68,3.43,79.7,5.13,119.55,17.23s81.41,33.89,98.14,59.92c16.73,26.03,49.51,69.48,60.42,101.13,10.91,31.65,26.94,93.45,35.14,116.47,8.2,23.02,32.56,80.4,46.38,109.24s27.97,77.62,45.66,97.18c7.82,8.65,64.8,81.15,86.5,94.15,27.41,16.43,145.36,34.96,145.36,34.96Z"/>
    <path class="cls-5" d="M677.13,205.32c-17.92,21.57-33.07,45.03-49.83,67.34-9.38,12.48-19.2,27.07-29.17,39.61-3.05,3.84-11.18,6.13-12.15,11.32l2.43,1.13c-4.42,5.26-8.73,10.91-12.76,16.41-1.21,1.65,2.31,1.07,1.82,1.7-5.3,6.84-14.85,10.67-18.23,14.71-3.42,4.09-12.55,16.34-17.02,22.63-4.82,6.8-8.48,22.08-17.02,23.2,2.74-8.08,4.4-16.8,7.29-24.9,4.44-12.42,9.38-25.18,14.59-37.35,6.51,1.59,6.95-5.19,9.72-8.49.96-1.15,2.7.02,3.65-1.13,2.89-3.5.98-6.52,1.22-6.79.82-.95,2.81.06,4.86-2.26,1.1-1.24,2.19-6.51,2.43-6.79.88-.99,3.98,1.44,7.29-2.26,21.83-24.4,43.9-50.1,66.85-74.69.85-.91-1.3-2.17-1.22-2.26,1.6-1.71,2.94.67,3.04.57,6.8-7.25,13.27-14.62,18.84-22.63,4.37-3.22,8.62-6.28,13.37-9.05Z"/>
    <path class="cls-5" d="M1289.72,646.69c22.79,38.73,90.74,112.08,135.53,125.62,39.48,11.94,81.8,15.21,122.16,23.77-10.56,5.44-61.36-.07-74.75-2.26-90.35-14.81-148.32-67.19-184.14-143.16-.96-2.04-3.2-3.95,1.22-3.96Z"/>
    <path class="cls-5" d="M1101.33,240.4c19.44,31.13,47.68,58.46,61.99,92.23,6.99,16.5,9.96,34.67,15.8,51.49l-6.08-1.7c-23.78-56.37-63.26-104.97-92.38-160.14,7.3,5.41,14.2,11.87,20.66,18.11Z"/>
    <path class="cls-5" d="M1174.25,278.88c-1.16,5.14-5.86,7.82-8.51,13.01-.96,1.88-1.28,14.03-6.08,11.88-.36-.66-1.74-2.33-2.43-3.4-6.42-16.73-19.22-37.1-31.6-51.49-69.97-81.32-216.96-94.45-321.49-88.84-82.73,4.44-121.84,19.6-179.28,72.43-13.56,12.47-27.57,25.13-40.11,38.48-4.79-1.27-8.12-7.61-13.37-7.92-19.45,15.28-15.59-19.09-14.31-15.16,1.32-7.49,33.44-3.2,34.97-4.65.27-.26-19.67-2.71-18.53-3.86,1.31-1.31,19.22-21.02,20.07-21.85,36.61-36.02,53.81-31.67,106.03-49.55,152.18-52.11,380.86-25.23,474.64,110.91Z"/>
    <path class="cls-9" d="M584.75,270.96c-34.6,36.82-43.42,53.58-54.7,102.42-.48,2.07-2.16,6.19,2.43,5.09-2.89,8.09-4.56,16.82-7.29,24.9-6.1,18-10.93,36.39-17.02,54.32l-7.9,9.05-1.82-17.54c-2.22-1.27-7.46,5.26-7.9,5.09-1.27-.48-.62-8.03-4.25-6.22v35.08l-4.25-6.22c-6.1,3.24-.59,6.91-.61,7.36-.03.85-2.48.3-2.43,1.13.37,6.3,5.64,13.6,2.43,20.94-2.98-11.72-14.36-25.93-15.8-32.82-2.2-10.5,2.11-5.51,2.43-7.36.21-1.21-2.07-6.05-1.22-9.05.19-.67,6.72-3.4,3.65-11.32l3.65,2.26c-4.56-9.01,7.05-10.72,1.22-21.5l4.86,2.26c-4.22-10.44,4.63-9.11,1.22-19.24l3.65,1.13c1.68-3.53-4.29-16.57,2.43-11.32l.61-9.62,3.04,3.96v-13.58l3.65,3.4-1.22-12.45,3.65,2.26.61-13.01,3.04,5.09c.57-3.25-.8-8.46,0-11.32.51-1.81,3.37,1.15,3.65,0,.33-1.38-.89-16.7,1.82-15.28l.61,6.22c4.26-.24,1.13-9.03,2.43-12.45.7-1.84,3.13,1.13,3.65,0,.41-.91.48-5.52,1.22-6.79,4.19-7.24,12.28-14.15,17.02-20.37.55-.72,1.22-6.4,2.43-7.92,1.33-1.68,1.08,2.78,2.43,1.13,3.36-4.07,2.35-5.59,8.51-11.32,1.51-1.4,1.3,2.12,1.82,1.7,3.42-2.75-15.47-4.22-14.35-5.47,4.63-5.19,22.61-4.18,25.9-7.54.19-.2.27-3.73,1.82-5.09.96-.84,2.63,1.94,3.65,1.13,1.26-1,3.06-9.34,7.9-9.05,5.25.31,8.58,6.65,13.37,7.92Z"/>
    <path class="cls-5" d="M1204.64,350.18c18.18,57.08,37.14,122.29,60.77,180.51.47,1.16,3.17-.02,3.65,1.13,5.26,12.88,9.35,31.05,14.59,43,.51,1.16,3.14-.03,3.65,1.13s-.53,4.46,0,5.66c8.9,20.07,19.53,39.58,29.17,58.85,1.3,1.72.64-3.7,3.65,0,21.48,26.43,51.48,54.48,75.36,80.35,1.66,1.8,5.96,11.15,7.29,12.45,1.7,1.66,2.93-.67,3.04-.57,6.41,6,10.67,9.38,18.84,14.71v6.22c4.24-5.37,4.8,4.88,4.25,5.09-2,.78-12.79-11.28-14.59-12.45-.45-.29-5.69,3.13-7.29-4.53v7.92l-6.08-10.19.61,6.22-3.04.57-5.47-16.41-1.82,6.22-3.65-12.45-1.22,11.32-4.86-10.19-2.43,4.53-6.69-16.41-2.43,4.53c-.7-14.32-6.73-7.95-11.55-15.28,2.4,26-6.63-4.32-10.33-9.62,2.81,20.12-4.44-4.57-6.69-10.75l.61,13.01c-2.2,4.05-6.74-19.97-7.9-19.8l-1.22,6.79-4.25-9.62,1.22,12.45c-4.39-.55-5.27-16.65-7.29-18.11-2.09-1.51.09,3.15-3.04,2.83-3.07-.31-5.29-23.62-5.47-27.73v21.5l-4.86-13.58-1.82,6.22-2.43-7.92-1.82,5.09c-2.77-2.74-2.78-29.23-6.69-26.6-1.92,1.3,1.68,8.9-3.04,7.36l-.61-14.15-4.25,8.49v-21.5l-4.86,6.79-1.22-19.24c-7.46,14.44-3.26-1.66-4.86-4.53-1.04-1.87-3.57,1.38-4.25.57-2.19-2.58-2.55-14.03-.61-17.54l-4.25,7.36c-2.67-3.64,2.68-17.7-5.47-15.84.03-3.22,2.43-5.89.61-9.05l-4.25,10.75c-.1-3.96.13-7.94,0-11.88,5.07.86,5.9-5.86,5.47-9.05,11.17,4.61.78-2.29.61-2.83-.43-1.32-.27-9.51-1.22-12.45-.36-1.13-3.28,0-3.65-1.13-.88-2.77,1.45-6.11,1.22-6.79-.52-1.51-3.43-1.68-3.65-2.26-3.48-9.62-5.35-15.1-9.72-24.9-2.61-5.85-1.05-20.46-9.72-16.98l2.43,43,10.94-11.32c-2.46,10.97-1.05,22.35-1.22,33.39-.04,2.74,1.45,4.08,1.22,6.22-8.49,4.44-6.67-17.4-8.51-19.24-1.32-1.32-2.39,2.5-3.65,1.13-3.81-4.15-3.22-14.31-4.86-19.24-.42-1.27-4.07.16-4.86-1.13-.4-.66-.53-10.97,1.22-12.45-7.99,6.71-4.36-2.72-4.86-3.4-1.39-1.86-2.98,1.28-3.65,0-1.46-2.81-2.27-6.1-3.65-9.05-2.56-5.5-5.08-18.25-7.29-23.77-1.84-4.58-4.93-3.85-6.08-6.79-.97-2.48.3-7.14,0-7.92-6.79-17.9-14.79-35.29-20.66-53.76l6.08-.57c-4.43-6.37,3.17-28.84,1.22-32.82-1.34-2.74-7.13-1.94-7.29-2.26-.35-.7-.99-16.38,2.43-11.32-3.8,9.52,5.52,10.57,6.08,12.45,1.1,3.69-4.28,34.58-.61,34.52,1.02-2.13,1.64-7.94,5.47-6.22-1.9,11.91,3.97,14.17,3.04,24.33,6.54-8.22,6.76-3.23,7.29-3.4,3.66-1.16-2.63-5.09,4.25-3.96-3.13,9.94-1.13,16.76,0,26.03.28,2.28,3.56.51,3.65,1.13.7,5.15-2.84,14.35-1.22,20.37,2.31,1.97,2.08-5.41,4.25-3.96,1.97,1.31-.69,8.28,3.04.57,3.18,6.84,2.28,12.22,0,19.24l4.86-2.26-1.22,20.37c12.93,2.8,7.03-5.51,8.51-11.32.35-1.38,4.55-2.04,4.86-3.4.53-2.3-2.47-1.47-2.43-2.26.78-17.18-12.92-40.1-17.02-53.19-4.79-15.29-10.52-31.48-14.59-46.4-1.64-6.02-1.62-12.51-1.22-18.67Z"/>
    <path class="cls-5" d="M1157.24,300.38c-7.71-11.97-43.87-48.35-55.91-59.98-6.46-6.24-13.37-12.7-20.66-18.11-89.42-66.27-307.63-72.85-403.54-16.98-4.75,2.77-9,5.84-13.37,9.05-8.17,6.02-15.2,12.42-23.09,18.67l-76.57,74.13c9.01-12.85,64.56-61.8,65.64-66.2.95-3.88-2.84-5.87-4.86-8.49,57.44-52.83,96.56-67.99,179.28-72.43,104.53-5.61,251.52,7.52,321.49,88.84,12.39,14.39,25.18,34.76,31.6,51.49Z"/>
    <path class="cls-5" d="M1424.64,747.41c3.79,2.48,9.5,7.11,12.76,9.05,1.14.68,2.32-1.2,2.43-1.13,1.36.84,3.8,5.87,4.86,5.66,1.48-.3-1.28-7.77,7.29,3.4,3.33.51-.76-3.36,1.22-3.4.96-.02,13.29,9.19,15.8,10.19.4.16.76-4.58,6.08,2.26,1.44-.34-4.21-9.59,7.29,2.26l1.22-3.4c4.06,4.86,10.55,5.64,18.23,7.92,2.97.88-.54-3.18,2.43-2.26,2.48.76,10.06,7.27,12.15,7.92.64.2.19-2.96,2.43-2.26.94.29,2.69,3.09,3.65,3.4s-.29-2.39,1.82-1.7c.17.05.08,2.26,1.82,2.83,2.32.76,3.46-1.19,3.65-1.13,5.52,1.72,13.11,6.49,20.06,7.36-.63.89-1.48,1.21-2.43,1.7-40.36-8.56-82.67-11.83-122.16-23.77-44.79-13.54-112.73-86.89-135.53-125.62-4.31-7.32-8.07-17.01-12.15-24.9-5.98-11.55-10.08-24.52-15.8-36.21,4.89-4.09,1.13-13.78,1.22-21.5,8.15-1.85,2.8,12.21,5.47,15.84l4.25-7.36c-1.94,3.51-1.58,14.96.61,17.54.69.81,3.21-2.43,4.25-.57,1.6,2.87-2.6,18.97,4.86,4.53l1.22,19.24,4.86-6.79v21.5l4.25-8.49.61,14.15c4.72,1.55,1.12-6.06,3.04-7.36,3.9-2.64,3.91,23.85,6.69,26.6l1.82-5.09,2.43,7.92,1.82-6.22,4.86,13.58v-21.5c.18,4.11,2.4,27.42,5.47,27.73,3.13.32.94-4.34,3.04-2.83,2.02,1.45,2.9,17.56,7.29,18.11l-1.22-12.45,4.25,9.62,1.22-6.79c1.16-.17,5.7,23.85,7.9,19.8l-.61-13.01c2.25,6.19,9.49,30.87,6.69,10.75,3.71,5.3,12.73,35.62,10.33,9.62,4.81,7.33,10.84.96,11.55,15.28l2.43-4.53,6.69,16.41,2.43-4.53,4.86,10.19,1.22-11.32,3.65,12.45,1.82-6.22,5.47,16.41,3.04-.57-.61-6.22,6.08,10.19v-7.92c1.6,7.66,6.85,4.23,7.29,4.53,1.8,1.17,12.59,13.23,14.59,12.45.54-.21-.02-10.47-4.25-5.09v-6.22Z"/>
    <path class="cls-5" d="M459.56,544.83c-2.64-.52-3.06,1.7-3.04,3.4.13,8.47,3.45,18.64,1.82,27.73l-6.69-20.94.61,32.25c-2.47-3.27-.58-9.58-7.29-6.79.62,9.64.93,19.22,0,28.86-.28,2.87.46,5.29-1.82,7.92-1.58-16.59-4.18-7.6-3.65,2.26-3.42-3.69-.91-14.06-6.69-15.28-1.55,6.67,3.33,10.69.61,16.41l-3.04-3.96v21.5l-6.08-6.79v23.77l-3.65-5.66-.61,13.01-5.47-6.22c1.13,1.55-2.56,33.71-6.08,27.16,1.48-30.27-7.34-16.37-4.86,3.4l-3.04-6.22c-.51,14.79-3.65,15.3-5.47.57-.41,2.13-2.24,36.75-6.08,30.56-1.11-1.8,4.23-9.51-1.22-7.92l-7.9,26.6c-3.41-3.79,3.86-15.85-1.82-16.41l-3.65,18.67c-.03-.4-1.51-6.81-2.43-7.36l-5.47,22.07c-3.41-3.81-.48-8.93-.61-11.32-.22-3.93.34-7.64-1.82-11.32l-3.65,10.19c-4.71-1.36-2.78-5.14-3.65-6.79-.56-1.06-2.34,1.82-3.04.57-1.23-2.21,1.86-4.82,2.43-7.36,3.18-14.07,4.45-4.83,6.08-8.49,2.89-6.49,2.57-4.15,4.86-7.92,1.56-2.56,1.72-6.9,3.65-10.19.7-1.18,2.56,1.88,3.65,0,.66-1.14-1.28-2.15-1.22-2.26,2.82-5.13,5.41-10.35,7.9-15.28l1.82,3.96c-.28-8.42,5.73-8.51,6.08-9.05,1.03-1.6.73-7.06,1.22-7.92,1.88-3.31,4.36-.13,4.86-1.13,1.54-3.08.2-18.02,4.86-7.92.78-7.55,2.85-16.63,10.94-20.37.67-4.06,3.47-14.91,4.86-18.11.98-2.25-2.22-5.4-1.82-6.33.85-1.99,5.84-4.08,6.69-6.12,3.05-7.36,10.33-18.79,12.15-23.77,1.2-3.26-2.7-7.57,3.65-7.92.02-13.24,8.48-22.46,7.29-33.95l3.65,1.13c-1.19-3.39-3.21-10.93,1.22-13.01.19,1.18,1.81,4.94,3.04,5.66l4.25-2.83c2.36,4.62,2.32,11.03,3.65,15.28Z"/>
    <path class="cls-5" d="M1204.64,350.18c-.4,6.16-.42,12.66,1.22,18.67,4.07,14.92,9.8,31.11,14.59,46.4,4.1,13.09,17.79,36.01,17.02,53.19-.04.79,2.96-.03,2.43,2.26-.31,1.36-4.51,2.02-4.86,3.4-1.47,5.81,4.43,14.12-8.51,11.32l1.22-20.37-4.86,2.26c2.28-7.02,3.18-12.4,0-19.24-3.73,7.71-1.07.75-3.04-.57-2.17-1.45-1.94,5.93-4.25,3.96-1.62-6.02,1.92-15.22,1.22-20.37-.08-.62-3.37,1.15-3.65-1.13-1.13-9.27-3.13-16.09,0-26.03-6.88-1.13-.6,2.8-4.25,3.96-.53.17-.76-4.83-7.29,3.4.93-10.16-4.94-12.42-3.04-24.33-3.83-1.72-4.45,4.09-5.47,6.22-3.68.06,1.71-30.83.61-34.52-.56-1.88-9.88-2.93-6.08-12.45-3.42-5.06-2.79,10.62-2.43,11.32.16.32,5.95-.48,7.29,2.26,1.95,3.98-5.65,26.45-1.22,32.82l-6.08.57c-8.04-25.29-13.31-67.39-25.52-89.4,4.8,2.15,5.12-10,6.08-11.88,2.65-5.2,7.35-7.88,8.51-13.01,17.9,25.99,21.32,42.83,30.39,71.3Z"/>
    <path class="cls-5" d="M356.24,721.38c-.57,2.54-3.66,5.15-2.43,7.36.69,1.25,2.48-1.62,3.04-.57.87,1.65-1.06,5.43,3.65,6.79l3.65-10.19c2.17,3.68,1.61,7.39,1.82,11.32l-4.25,15.84c-7.56-4.39-.36-12.6-6.69-15.28.62,14.32-4.29,34.24-15.19,41.31l-1.82-1.7,3.04-14.15c-2.31-.58-6.16,25.24-6.08,3.4l-11.55,25.46-.61-8.49-9.72,15.84,1.22-9.05c-3.21,7.47-9.23,4.15-9.72,4.53-1.39,1.07-5.68,11.14-9.72,12.45l2.43-9.05-7.29,7.92c-2.64-6.56-10.06,3.9-14.59,6.79l2.43-6.79c-4.92,6.25-14.6,10.71-15.8,3.4l-15.8,10.19c-3.36.15,1.36-3.94,1.82-4.53.87-1.08,10.6-7.56,12.15-8.49,1.81-1.08,1.14,2.15,1.82,1.7,2.87-1.92,4.08-5.97,7.29-7.92l1.22,3.4c4.28-9.75,9.84-5.84,14.59-12.45l1.22,3.4c1.87-2.35,5-8.98,6.69-10.75,3.7-3.88,1.8,1.77,3.04,1.7.95-.05,9.1-12.2,12.15-13.58,2.6,11.36,4.2-5.61,8.51-6.79l1.82,2.83,4.86-12.45,1.82,5.09c2.74.03,5.39-22.11,9.12-10.75,1.89-3.23,3.07-10.95,4.86-13.58,2.07-3.03,3.54.66,4.86-1.13,1-1.35,11.01-21.02,12.15-13.01Z"/>
    <path class="cls-5" d="M1157.24,300.38c.69,1.07,2.07,2.74,2.43,3.4,12.21,22.02,17.49,64.12,25.52,89.4,5.87,18.47,13.87,35.86,20.66,53.76.3.78-.97,5.44,0,7.92,1.15,2.94,4.24,2.21,6.08,6.79,2.22,5.52,4.74,18.27,7.29,23.77,1.38,2.96,2.18,6.24,3.65,9.05.67,1.28,2.26-1.86,3.65,0,.5.67-3.13,10.11,4.86,3.4-1.75,1.48-1.62,11.79-1.22,12.45.79,1.29,4.44-.14,4.86,1.13,1.64,4.93,1.05,15.09,4.86,19.24,1.26,1.37,2.32-2.45,3.65-1.13,1.84,1.84.02,23.68,8.51,19.24.24-2.14-1.26-3.48-1.22-6.22l4.86-5.09-1.22,15.84c6.64,1.64.16-5.75,5.47-6.22,1.41,2.33-.7,3.94-.61,6.79.13,3.94-.1,7.93,0,11.88l4.25-10.75c1.82,3.16-.57,5.83-.61,9.05-.08,7.72,3.67,17.42-1.22,21.5-18.09-36.98-37.38-73.7-52.27-112.04-11.35-29.22-20.11-59.8-30.39-89.4-5.84-16.82-8.81-34.99-15.8-51.49-14.31-33.78-42.55-61.11-61.99-92.23,12.05,11.63,48.2,48.01,55.91,59.98Z"/>
    <path class="cls-9" d="M444.97,609.34c5.24,2.52,6.44.16,9.72-4.53-16.44,48.23-42.04,95.47-72.93,136.94-4.06-1.95-4.31,6.96-8.51,1.7.37-3.7,1.48-6.94,1.22-10.75l3.65-18.67c5.69.56-1.59,12.62,1.82,16.41l7.9-26.6c5.44-1.59.1,6.12,1.22,7.92,3.84,6.19,5.67-28.42,6.08-30.56,1.82,14.74,4.96,14.23,5.47-.57l3.04,6.22c-2.48-19.76,6.35-33.67,4.86-3.4,3.52,6.55,7.2-25.61,6.08-27.16l5.47,6.22.61-13.01,3.65,5.66v-23.77l6.08,6.79v-21.5l3.04,3.96c2.73-5.72-2.16-9.74-.61-16.41,5.78,1.22,3.27,11.59,6.69,15.28-.54-9.86,2.07-18.85,3.65-2.26,2.29-2.64,1.54-5.05,1.82-7.92Z"/>
    <path class="cls-9" d="M374.47,732.7c.26,3.81-.84,7.05-1.22,10.75,4.2,5.26,4.45-3.65,8.51-1.7-40.47,54.32-88.64,89.15-164.09,83.18,8.21-3.42,17.61-3.71,23.7-10.75v4.53l6.69-4.53c-.47.58-5.18,4.68-1.82,4.53l15.8-10.19c1.2,7.32,10.88,2.85,15.8-3.4l-2.43,6.79c4.52-2.89,11.94-13.35,14.59-6.79l7.29-7.92-2.43,9.05c4.05-1.31,8.34-11.38,9.72-12.45.49-.38,6.52,2.95,9.72-4.53l-1.22,9.05,9.72-15.84.61,8.49,11.55-25.46c-.09,21.85,3.76-3.97,6.08-3.4l-3.04,14.15,1.82,1.7c10.91-7.07,15.81-26.98,15.19-41.31,6.33,2.68-.88,10.89,6.69,15.28l4.25-15.84c.13,2.39-2.81,7.51.61,11.32l5.47-22.07c.92.55,2.4,6.96,2.43,7.36Z"/>
    <path class="cls-5" d="M465.63,473.54c1.44,6.89,12.82,21.1,15.8,32.82,1.26,4.97.11,10.68,3.04,14.71,3.96-4.92-1.58-19.57,1.82-23.2,2.17-2.31,2.68,1.77,3.04,1.7,6.4-1.35,2.91-7.78,6.69-3.4-4.48,13.28-9.85,26.43-14.59,39.61-.86-3.32-7.25-10.82-9.12-6.79l-3.65-5.66c1.24,9.16,1.34,24.52-.61,33.39-2.83,12.9-6.8-8.03-7.29-9.62,4.18-12.84-3.13-20.36,0-33.39l4.86,7.92c2.13-3.49-1.68-5.93-1.22-7.92.49-2.11,3.62-3.16,3.65-3.4.82-8.88-2.64-16.19-1.22-26.03-1.63-.82-2.93-1.6-4.86-1.7v-10.75l3.65,1.7Z"/>
    <path class="cls-9" d="M481.43,535.78c-3.88,10.81-6.72,22.11-10.94,32.82l-6.08-1.7v13.01c-3.61,8.67-3.02,15.34-9.72,24.9-3.28,4.68-4.48,7.05-9.72,4.53.93-9.64.62-19.22,0-28.86,6.72-2.79,4.82,3.52,7.29,6.79l-.61-32.25,6.69,20.94c1.63-9.09-1.69-19.25-1.82-27.73-.03-1.7.4-3.91,3.04-3.4.3.97.92,1.3,1.22,2.26.49,1.59,4.47,22.52,7.29,9.62,1.94-8.87,1.85-24.23.61-33.39l3.65,5.66c1.86-4.03,8.26,3.47,9.12,6.79Z"/>
    <path class="cls-5" d="M508.17,457.69c-4.33,12.75-7.86,25.75-12.15,38.48-3.77-4.38-.29,2.05-6.69,3.4-.36.08-.87-4.01-3.04-1.7-3.4,3.63,2.14,18.28-1.82,23.2-2.93-4.03-1.78-9.75-3.04-14.71,3.21-7.34-2.06-14.64-2.43-20.94-.05-.83,2.4-.28,2.43-1.13.02-.45-5.49-4.12.61-7.36l4.25,6.22v-35.08c3.63-1.81,2.99,5.74,4.25,6.22.45.17,5.68-6.36,7.9-5.09l1.82,17.54,7.9-9.05Z"/>
    <path class="cls-5" d="M1261.77,585.57c5.72,11.69,9.82,24.66,15.8,36.21-3.93.74-2.71,1.68-4.86-1.7-18.38-28.93-34.18-71.79-47.4-102.99-5.63-13.3-17.16-29.8-15.8-43.57,14.89,38.33,34.17,75.06,52.27,112.04Z"/>
    <path class="cls-5" d="M460.77,547.1c-.3-.97-.91-1.3-1.22-2.26-1.33-4.25-1.28-10.66-3.65-15.28l-4.25,2.83c-1.23-.71-2.85-4.48-3.04-5.66-.48-3,4.83-27.36,8.51-22.07,1.52-3.99-3.24-19.01,2.43-11.32l-1.22-9.05c4.69.88,3.37-1.71,3.65-1.7,1.93.1,3.23.88,4.86,1.7-1.42,9.84,2.03,17.15,1.22,26.03-.02.24-3.16,1.29-3.65,3.4-.46,1.99,3.34,4.43,1.22,7.92l-4.86-7.92c-3.13,13.03,4.18,20.55,0,33.39Z"/>
    <path class="cls-5" d="M470.49,568.6c-1.6,4.07-4.86,8.39-6.08,11.32v-13.01l6.08,1.7Z"/>
    <path class="cls-5" d="M564.09,307.17c-8.32,11.86-11.55,21.17-17.02,33.95-5.21,12.17-10.15,24.92-14.59,37.35-4.59,1.1-2.91-3.02-2.43-5.09,11.28-48.84,20.1-65.6,54.7-102.42,12.54-13.35,26.55-26.01,40.11-38.48,2.02,2.62,5.81,4.61,4.86,8.49-1.08,4.4-56.62,53.36-65.64,66.2Z"/>
    <path class="cls-5" d="M1259.34,553.89c-.1-2.85,2.02-4.46.61-6.79-5.3.47,1.17,7.86-5.47,6.22l1.22-15.84-4.86,5.09c.16-11.03-1.25-22.41,1.22-33.39l-10.94,11.32-2.43-43c8.67-3.48,7.12,11.13,9.72,16.98,4.37,9.8,6.24,15.28,9.72,24.9.21.58,3.13.75,3.65,2.26.23.68-2.1,4.02-1.22,6.79.36,1.13,3.28,0,3.65,1.13.94,2.94.78,11.13,1.22,12.45.18.54,10.56,7.44-.61,2.83.43,3.2-.4,9.91-5.47,9.05Z"/>
    <path class="cls-9" d="M663.76,214.37c-5.57,8.01-12.04,15.38-18.84,22.63-.1.11-1.44-2.28-3.04-.57-.09.1,2.07,1.35,1.22,2.26-22.95,24.59-45.03,50.29-66.85,74.69-3.31,3.7-6.41,1.27-7.29,2.26-.24.28-1.33,5.55-2.43,6.79-2.05,2.32-4.04,1.31-4.86,2.26-.23.27,1.67,3.29-1.22,6.79-.95,1.15-2.68-.02-3.65,1.13-2.77,3.3-3.22,10.08-9.72,8.49,5.47-12.78,8.7-22.09,17.02-33.95l76.57-74.13c7.9-6.25,14.92-12.66,23.09-18.67Z"/>
    <path class="cls-9" d="M1270.04,576.68c-1.56,3.64-3.84,5.06-4.87,9.07-.64,2.47.31,5.07,1.22,7.37-3.73,8.7-6.63-22.64-7.31-23.81-.23-.39-4.11,1.26-6.7-.57s.13-3.66-1.83-6.24c-9.64-12.64-7.73-17.82-13.39-30.61-1.36-3.08-5.31-1.48-7.31-5.67-1.91-4-5.11-24.04-6.09-24.94l-3.65,3.4-3.65-24.94c-1.67.02-.93,14.46-4.87,7.94-1.24-2.05-5.96-19.19-7.31-23.24-3.03-9.1-6.08-18.24-7.31-27.78-7.61,8.94-3.87-10.19-4.87-14.74-.1-.46-3.43-.53-4.87-6.8-.71-3.07,3.72-7.74-1.22-7.94-1.96,21.73-10.12-16.23-10.96-21.54-1.06-6.67,2.94-28.96-6.09-11.34v-22.68l-3.65,5.67-3.04-20.97-3.04,6.24-6.09-31.75c-2.34-.48-2.26,4.95-3.04,5.1-1.65.33-8.85-26.7-6.7-30.05l-4.87,11.34-12.18-34.01-3.65,5.67-7.31-21.54-1.83,7.37-7.31-17.01-2.44,9.07c-1.94-1.76-1.71-2.98-4.26-4.54l-9.74-17.57,13.39,3.4c-39.31-46.53-124.98-78.08-187.53-81.06.59-3.26-3.38-2.38-5.48-2.27-94.97,5.24-199.62-18.64-281.29,40.82-.57.42-6.34-1.72-6.7,8.5-4.31,4.13-2.95-3.53-4.87-2.27l-5.48,13.04c-.55-.15-2.81-8.99-3.04-10.2-.45-2.35.45-5.71-1.22-7.94,141.13-102.82,411.48-80.28,528.48,49.32,45.85,50.79,52.97,129.75,74.28,191.61,17.33,50.31,46.07,97.32,59.67,149.09Z"/>
    <path class="cls-5" d="M607.61,186.66c1.67,2.23.77,5.59,1.22,7.94-3.96.49-3.51,8.71-4.87,10.77-.99,1.49-18.37,21.39-20.7,23.81-7.05,7.32-6.15.48-7.92,1.7-.86.6-1.03,7.8-1.83,8.5-2.38,2.12-8.97.07-8.52,11.34-3.41,2.89-6.68-3.02-7.92-2.83-2.58.38-13.83,33.88-18.87,24.38,2.19,6.69-4.6,8.93-6.09,11.34-1.7,2.74-.73,6.34-2.44,9.07-1.07,1.72-3.34-1.89-4.87,1.13-.37.73.05,9.54-5.48,11.9l-4.26-3.97-9.74,37.41-6.09-19.27c-3.06,6.68.25,43.07-8.52,21.54l-1.22,11.34c6.43,4.83-7.37,9.93-2.44,16.44l-1.22,5.1c1.28-1.12-9.86-27.15-10.96-19.27-.29,2.08,4.21,5.19,4.87,7.94,2.22,9.25,3.69,36.7,1.22,45.35-.14.48-7.18,4.14-7.31,4.54-2.19,7.06,2.05,22.23-1.22,30.61-1.39.27-3.11-16.86-6.09-11.34l-4.87,39.68-4.87-6.8-2.44,20.41c-9.25-9.72-5.43,11.03-6.09,18.14l-10.96-13.61c5.19,10.81,3.41,22.42,3.65,34.01l-5.48-10.77-.61,24.38-6.09-7.94v32.88l-7.31-13.61c2.27,9.65,2.7,19.12,1.22,28.91-1.65-7.17-13.2-4.59-19.48-7.94,29.6-80.06,41.79-175.71,79.15-252.26,22.63-46.37,82.51-99.69,125.42-130.95Z"/>
    <path class="cls-5" d="M1265.16,585.75l9.74,31.18c9.4,23.92,18.96,28.12,35.31,45.35,5.21,5.48,13.56,19.81,18.87,23.24.11.07,1.06-1.66,2.44-1.13,1.1.42.4,8.06,4.26-.57l18.27,30.61,1.83-6.24c3.61,4.94,12.05,24.38,9.74,9.07,5.67,7.83,12.79,15.89,21.92,20.41,3.94,1.95,36.3,13.9,26.79,3.4l9.13,1.13c29.62,13.53,60.13,32.71,91.21,42.76-39.8-4.12-87.39-21.2-124.7-34.83-20.57-7.52-35.96-20.79-50.53-35.71-73.27-75.03-106.69-150.87-146.12-244.33l10.96-5.67c1.35,4.05,6.06,21.19,7.31,23.24,3.95,6.52,3.2-7.91,4.87-7.94l3.65,24.94,3.65-3.4c.97.9,4.18,20.94,6.09,24.94,2,4.19,5.94,2.59,7.31,5.67,5.67,12.79,3.76,17.97,13.39,30.61,1.96,2.57-.75,4.42,1.83,6.24s6.47.18,6.7.57c.68,1.16,3.58,32.5,7.31,23.81-.91-2.3-1.85-4.9-1.22-7.37Z"/>
    <path class="cls-9" d="M915.69,146.98c-1.3-.06-4.73-.87-4.87-.57,5.93,8.56,27.88,1.25,32.88,10.77-99.75-19.92-231.93-8.58-311.04,57.2-68.05,56.58-101.71,81.66-129.77,162.76l-15.83-7.94c-4.94-6.51,8.87-11.61,2.44-16.44l1.22-11.34c8.77,21.52,5.46-14.86,8.52-21.54l6.09,19.27,9.74-37.41,4.26,3.97c5.53-2.37,5.11-11.18,5.48-11.9,1.53-3.02,3.8.59,4.87-1.13,1.71-2.73.74-6.33,2.44-9.07,1.49-2.41,8.28-4.65,6.09-11.34,5.04,9.5,16.3-23.99,18.87-24.38,1.24-.18,4.5,5.72,7.92,2.83-.45-11.26,6.15-9.22,8.52-11.34.8-.71.96-7.91,1.83-8.5,1.76-1.22.86,5.62,7.92-1.7,2.33-2.42,19.71-22.32,20.7-23.81,1.36-2.06.91-10.28,4.87-10.77.23,1.21,2.5,10.06,3.04,10.2l5.48-13.04c1.92-1.26.56,6.4,4.87,2.27.36-10.22,6.12-8.09,6.7-8.5,81.67-59.46,186.32-35.58,281.29-40.82,2.1-.12,6.07-.99,5.48,2.27Z"/>
    <path class="cls-5" d="M422.52,577.81c-.44,2.9-4.75,17.33-6.09,19.27-7.41,10.78-2.09-4.71-7.31-5.1,1.69,13.26-4.66,26.62-9.74,38.55l-4.87-3.4c-1.96,7.18-3.16,19.62-6.09,26.08-1.79,3.94-2.83-2.27-4.87,0-2.08,2.31-3.26,17.57-7.92,20.97l-1.83-16.44c-2.39,25.05-16.87,47.79-34.1,65.76l-2.44-6.8c-2.12,11.84-10.08,22.85-18.87,31.18-.49.46-5.76-2.14-7.31,7.94l-4.26-11.9c.63,12.47-9.75,20.58-17.66,28.91-4.58-8.99-9.18,12.02-9.74-2.27l-15.83,13.61c-7.22-1.75,3.03-3.43-1.22-6.8l-8.52,7.94,3.04-9.07c64.6-44.52,120.26-136.4,146.12-206.35,6.28,3.35,17.84.77,19.48,7.94Z"/>
    <path class="cls-9" d="M416.43,597.08c6.86,2.87,3.4,6.9,2.44,12.47-6.32,36.33-64.26,123.12-92.54,150.23-37.6,36.03-69.92,69.81-123.75,65.59,26.98-6.54,31.99-33.75,54.34-49.15l-3.04,9.07,8.52-7.94c4.25,3.37-6,5.05,1.22,6.8l15.83-13.61c.56,14.29,5.16-6.73,9.74,2.27,7.9-8.33,18.29-16.44,17.66-28.91l4.26,11.9c1.55-10.08,6.82-7.47,7.31-7.94,8.8-8.33,16.76-19.34,18.87-31.18l2.44,6.8c17.22-17.97,31.71-40.71,34.1-65.76l1.83,16.44c4.65-3.41,5.84-18.66,7.92-20.97,2.04-2.27,3.08,3.94,4.87,0,2.93-6.46,4.13-18.9,6.09-26.08l4.87,3.4c5.08-11.93,11.43-25.29,9.74-38.55,5.21.39-.11,15.88,7.31,5.1Z"/>
    <path class="cls-9" d="M1423.47,742.21l-9.13-1.13c9.51,10.5-22.85-1.45-26.79-3.4-9.13-4.52-16.25-12.58-21.92-20.41,2.31,15.31-6.13-4.13-9.74-9.07l-1.83,6.24-18.27-30.61c-3.86,8.63-3.16.99-4.26.57-1.37-.53-2.32,1.21-2.44,1.13-5.32-3.43-13.67-17.76-18.87-23.24-16.36-17.23-25.92-21.43-35.31-45.35l-9.74-31.18c1.03-4.01,3.31-5.44,4.87-9.07,10.59,16.26,16.58,35.23,29.22,50.45,14.76,17.76,39.62,33.5,56.01,51.02,27.34,29.22,26.55,45.04,68.19,64.06Z"/>
    <path class="cls-9" d="M487.06,369.19l15.83,7.94c-24.14,69.77-43.71,140.59-71.84,209.18-2.99,7.28-7.07,17.1-12.18,23.24.97-5.57,4.43-9.6-2.44-12.47,1.34-1.94,5.65-16.37,6.09-19.27,1.49-9.79,1.05-19.27-1.22-28.91l7.31,13.61v-32.88l6.09,7.94.61-24.38,5.48,10.77c-.24-11.59,1.54-23.2-3.65-34.01l10.96,13.61c.66-7.12-3.17-27.86,6.09-18.14l2.44-20.41,4.87,6.8,4.87-39.68c2.98-5.52,4.69,11.61,6.09,11.34,3.27-8.39-.97-23.55,1.22-30.61.12-.39,7.17-4.06,7.31-4.54,2.48-8.65,1-36.1-1.22-45.35-.66-2.75-5.16-5.86-4.87-7.94,1.1-7.87,12.24,18.15,10.96,19.27l1.22-5.1Z"/>
    <path class="cls-5" d="M1204.28,464.43l-10.96,5.67c-35.97-85.27-42.86-150.32-101.07-229.02,6.26-3.65,2.83-1.59,7.31,1.13,2.55,1.55,2.32,2.77,4.26,4.54l2.44-9.07,7.31,17.01,1.83-7.37,7.31,21.54,3.65-5.67,12.18,34.01,4.87-11.34c-2.16,3.34,5.04,30.37,6.7,30.05.79-.16.7-5.58,3.04-5.1l6.09,31.75,3.04-6.24,3.04,20.97,3.65-5.67v22.68c9.03-17.63,5.03,4.67,6.09,11.34.84,5.31,8.99,43.28,10.96,21.54,4.93.2.51,4.87,1.22,7.94,1.44,6.27,4.77,6.34,4.87,6.8,1,4.55-2.74,23.68,4.87,14.74,1.22,9.54,4.28,18.68,7.31,27.78Z"/>
    <path class="cls-9" d="M915.69,146.98c62.55,2.98,148.21,34.54,187.53,81.06l-13.39-3.4,9.74,17.57c-4.47-2.72-1.04-4.78-7.31-1.13-37.51-50.72-84.12-71.03-148.56-83.9-5-9.52-26.95-2.21-32.88-10.77.14-.3,3.57.5,4.87.57Z"/>
    <path class="cls-3" d="M663.67,258.18s5.57-2.96,7.38,1.79c1.8,4.75,5.24,6.85,5.89,13.9.65,7.05,4.1,17.79,3.82,24.02-.28,6.24-.09,16.39.62,19.71.71,3.32,1.36,9.75,3.85,12.61,2.49,2.86,2.78-.88,2.14-6.27-.64-5.39-1.91-13.47-2.24-18.24-.33-4.77-.99-14.73-.71-20.34.29-5.61-3.77-13.64-2.55-17.82,1.22-4.18-1.88-6.61-.04-8.31,1.85-1.69,4.91-9.64,8.64-6.18,3.73,3.46,4.36,7.19,5.3,10.5.94,3.31,3.75,9.28,3.77,13.64.02,4.36.33,5.81,2.51,8.68s6.86,13.17,6.84,7.35c-.03-5.81-1.59-10.56-3.15-13.44s-1.89-7.65-1.59-11.19c.29-3.54-1.27-7.45-3.14-11.16-1.87-3.7-6.52-5.49-1.27-7.25s10.55,7.91,11.2,14.75c.65,6.84,4.69,10.92,5.65,19.42.96,8.5,3.77,13.64,3.49,19.25-.29,5.61,1.1,5.22,1.1,5.22,0,0,2.22,2.36,2.89.86.67-1.5,1.71-12.99,1-15.61s-3.71-2.88-3.27-6.93c.45-4.05.41-12.74-.53-16.61s-5.6-11.7-5.84-14.03c-.24-2.33-4.42-6.13-2.81-8.96,1.61-2.82,8.38.14,11.24-.83,2.86-.97.55-2.18,5.86-3.67s9.83-4.21,9.83-4.21"/>
    <path class="cls-3" d="M1106.52,349.03s3.29-3.37,4.32,2.34c1.04,5.71,3.04,8.31,3.39,16.73.35,8.42,2.32,21.31,2.13,28.73-.19,7.42-.13,19.53.27,23.5s.75,11.65,2.2,15.13c1.45,3.48,1.64-.97,1.28-7.41-.35-6.44-1.06-16.1-1.23-21.79-.17-5.69-.51-17.58-.32-24.26.19-6.68-2.15-16.36-1.42-21.3.73-4.94-1.08-7.93.02-9.9s2.93-11.35,5.1-7.11c2.17,4.23,2.53,8.69,3.06,12.66s2.16,11.16,2.15,16.36.17,6.93,1.43,10.41c1.26,3.48,3.97,15.89,3.98,8.96.01-6.93-.89-12.63-1.79-16.11s-1.07-9.17-.88-13.38c.19-4.2-.71-8.92-1.79-13.39-1.08-4.47-3.8-6.73-.71-8.67,3.09-1.94,6.16,9.73,6.51,17.9.35,8.17,2.7,13.15,3.23,23.3s2.15,16.36,1.96,23.04c-.19,6.68.62,6.25.62,6.25,0,0,1.29,2.87,1.69,1.11.4-1.76,1.06-15.43.66-18.58s-2.17-3.54-1.89-8.35c.28-4.81.3-15.17-.24-19.81-.54-4.63-3.23-14.11-3.37-16.88s-2.57-7.44-1.61-10.75,4.91.41,6.6-.67c1.69-1.08.33-2.58,3.46-4.2,3.13-1.63,5.79-4.74,5.79-4.74"/>
    <path class="cls-3" d="M736.42,204.28s3.29-3.37,4.32,2.34,3.04,8.31,3.39,16.73c.35,8.42,2.32,21.31,2.13,28.73-.19,7.42-.13,19.53.27,23.5.4,3.98.75,11.65,2.2,15.13s1.64-.97,1.28-7.41c-.35-6.44-1.06-16.1-1.23-21.79-.17-5.69-.51-17.58-.32-24.26.19-6.68-2.15-16.36-1.42-21.3.73-4.94-1.08-7.93.02-9.9s2.93-11.35,5.1-7.11c2.17,4.23,2.53,8.69,3.06,12.66s2.16,11.16,2.15,16.36.17,6.93,1.43,10.41c1.26,3.48,3.97,15.89,3.98,8.96.01-6.93-.89-12.63-1.79-16.11-.9-3.48-1.07-9.17-.88-13.38s-.71-8.92-1.79-13.39c-1.08-4.47-3.8-6.73-.71-8.67,3.09-1.94,6.16,9.73,6.51,17.9.35,8.17,2.7,13.15,3.23,23.3s2.15,16.36,1.96,23.04.62,6.25.62,6.25c0,0,1.29,2.87,1.69,1.11.4-1.76,1.06-15.43.66-18.58s-2.17-3.54-1.89-8.35c.28-4.81.3-15.17-.24-19.81s-3.23-14.11-3.37-16.88c-.13-2.78-2.57-7.44-1.61-10.75.96-3.32,4.91.41,6.6-.67s.33-2.58,3.46-4.2c3.13-1.63,5.79-4.74,5.79-4.74"/>
    <path class="cls-3" d="M778.7,228.94s5.68-.7,6.27,5.33c.59,6.03,4.29,31.85,4.22,36.87-.06,5.02-.05,15.73.14,21.08.19,5.36-.96,17.39,2.06,17.1s1.69-18.95,1.36-25.33c-.33-6.38-2.66-33.78-3-40.16-.33-6.38-2.33-11.35-.47-12.15s4.33-.56,4.91,2.53c.58,3.09,1.27,14.01,1.21,18.33s1.16,5.78,1.11,9.89c-.05,4.11-.44,6.79.08,11.94.53,5.15,1.96,5.58,1.96,5.58,0,0,2.49-1.61,2.11-4.5-.38-2.89.27-9.64-.06-13.98s-.66-11.13-1.04-13.61c-.38-2.47-.7-9.47-1.09-11.95s-1.13-8.24,1.13-8.22,4.2,9.93,4.17,12.4.26,11.94,1.04,15.65.92,9.43.92,9.43l.08,12.41s-.19,8,1.49,8.23,2.37-3.97,2.22-9.24c-.14-5.27,1.19-18.97-.16-25.08-1.35-6.11-1.83-17.7-1.83-17.7,0,0-1.6-5.59-.13-6.16s3.36-.12,4.18,1.78c.82,1.91,4.18,19.43,4.15,21.95s.07,12.92.11,16.88.13,11.95.1,15.12-.66,12.03.11,13.29,3.07,2.55,2.48-.83c-.59-3.38.59-10.53,0-14.53-.6-4,2.15-21.66,1.58-26.93-.57-5.27-2.99-13.3-2.93-18.57.07-5.26-3.25-9.31-.08-10.11s5.06-.78,7.18-2.02c2.12-1.24,2.99-3.12,5.91-1.19s3.55,2.78,8.41,1.37,3.81-1.43,8.25-3.27c4.45-1.84,8.71-3.36,8.71-3.36"/>
    <path class="cls-8" d="M836.91,356.82c.06.56.24,1.5.81,2.49.46.8.98,1.73,1.96,1.97.95.23,1.97-.26,2.52-.81,1.91-1.89.22-6.25,0-6.8-1.5-3.76-5.63-7.87-10.83-7.97-4.91-.09-10.21,3.39-11.54,7.82-2.84,9.44,14.84,14.96,21.29,34.34,3.66,11,1.75,20.59-.62,32.48-3.01,15.11-5.8,29.07-17.46,34.87-7.76,3.85-17.96,3.35-25.42-1.57-12.8-8.44-14.37-27.8-7.09-39.67.89-1.45,8.47-13.81,20.27-12.22,9.03,1.22,16.35,10.06,16.15,19.15-.27,12.26-14.16,21.89-22.02,18.8-4.47-1.76-6.36-7.37-7.11-10.43"/>
    <path class="cls-8" d="M893.7,359.24c-.08.56-.29,1.49-.9,2.46-.48.79-1.04,1.69-2.03,1.9-.96.2-1.96-.33-2.49-.9-1.84-1.95,0-6.25.24-6.8,1.63-3.71,5.9-7.67,11.1-7.58,4.91.08,10.08,3.75,11.26,8.22,2.5,9.53-15.35,14.44-22.47,33.58-4.04,10.86-2.46,20.51-.51,32.48,2.48,15.21,4.78,29.26,16.23,35.45,7.62,4.12,17.83,3.98,25.46-.68,13.08-7.99,15.34-27.28,8.47-39.4-.84-1.48-7.99-14.1-19.83-12.92-9.07.91-16.69,9.48-16.81,18.57-.16,12.26,13.39,22.37,21.35,19.56,4.53-1.6,6.62-7.15,7.47-10.17"/>
    <g>
      <polygon class="cls-8" points="536.1 456.95 536.1 824.08 843.56 837.71 843.56 456.95 536.1 456.95"/>
      <line class="cls-8" x1="536.1" y1="499.68" x2="843.56" y2="499.68"/>
      <polygon class="cls-8" points="536.1 684.62 843.56 695.01 843.56 735.49 536.1 725.93 536.1 684.62"/>
      <polyline class="cls-8" points="560.72 456.95 560.72 824.39 593.03 826.6 586.56 456.95 615.88 456.95 615.88 825.31 645.3 826.01 645.3 456.95 678.91 456.95 671.7 830.09 701.79 830.09 711.81 456.95 736.16 456.95 727.52 831.5 763.27 834.15 767.63 456.95 793.46 456.95 787.62 834.15 816.22 835.35 816.22 456.95 843.56 456.95"/>
      <polygon class="cls-8" points="843.56 338.89 843.56 837.71 851.15 835.83 850.05 338.89 843.56 338.89"/>
      <polyline class="cls-8" points="540.07 440.71 540.91 823.83 536.1 824.08"/>
      <g>
        <path class="cls-8" d="M554,464.47c-1.48-.22-2.85.28-3.42,1.26-.87,1.48.42,3.52,1.71,4.38,1.94,1.29,4.74.48,6.34-1.01,2.53-2.35,1.69-5.95,1.63-6.2-.78-3.09-3.56-4.38-4.27-4.71-3.22-1.5-6.29-.35-7.11,0-1.3.55-3.19,1.77-4.96,5.07-6.51,12.07.17,30.54,4.22,34.31.34.32,1.33,1.24,2.73,1.32,1.77.11,3.58-1.14,4.4-2.78.94-1.87.31-3.72-.02-4.66-.25-.72-1.35-3.95-3.53-3.99-1.35-.02-2.54,1.2-3.01,2.38-.63,1.58-.14,3.49,1.29,4.79"/>
        <path class="cls-8" d="M567.92,463.67c1.56.15,2.87,1.13,3.33,2.52.67,2-.73,3.9-1.67,4.7-1.89,1.63-4.79,1.39-6.43,0-2.74-2.33-2.39-7.86,0-10.69,2.23-2.64,5.77-2.35,7.76-2.18,4.03.33,6.77,2.58,7.9,3.53,0,0,2.75,2.32,4.65,6.11,4.95,9.9,4.75,24.01-1.51,29.19-.58.48-3.05,2.53-5.78,1.77-2.38-.66-4.38-3.3-4.45-6.13-.01-.48-.07-2.8,1.57-4.3,1.56-1.43,3.52-1.08,3.93-1,.55.1,1.63.3,2.47,1.29.77.92,1.28,2.45.79,3.81-.21.59-.56.99-.81,1.22"/>
        <path class="cls-8" d="M604.29,464.12c-.49.23-1.75.91-2.45,2.36-1.05,2.17-.33,4.98,1.22,6.04,2.4,1.64,7.22-.61,8.82-4.2,1.16-2.6.7-5.87-1.04-7.92-3.49-4.12-11.29-2.4-15.62,0-1.24.69-3.69,2.09-5.4,4.95-2.32,3.88-1.71,7.84-.95,12.81.76,4.97,1.62,10.57,6.19,15.11,1.25,1.25,3.72,3.34,7.37,4.47,2.62.81,5.92,1.82,8.66,0,2.19-1.45,4.38-4.65,3.27-7.94-1.05-3.11-4.67-5.16-7.61-4.23-1.63.51-3.44,2.05-3.69,4.26-.19,1.67.6,2.95.9,3.38"/>
        <path class="cls-8" d="M783.1,464.15c-.49.23-1.75.91-2.45,2.36-1.05,2.17-.33,4.98,1.22,6.04,2.4,1.64,7.22-.61,8.82-4.2,1.16-2.6.7-5.87-1.04-7.92-3.49-4.12-11.29-2.4-15.62,0-1.24.69-3.69,2.09-5.4,4.95-2.32,3.88-1.71,7.84-.95,12.81.76,4.97,1.62,10.57,6.19,15.11,1.25,1.25,3.72,3.34,7.37,4.47,2.62.81,5.92,1.82,8.66,0,2.19-1.45,4.38-4.65,3.27-7.94-1.05-3.11-4.67-5.16-7.61-4.23-1.63.51-3.44,2.05-3.69,4.26-.19,1.67.6,2.95.9,3.38"/>
        <path class="cls-8" d="M624.3,463.07c1.81.92,2.91,2.64,2.72,4.26-.28,2.4-3.31,3.66-5.52,3.39-2.16-.27-3.41-1.97-3.84-2.55-1.44-1.96-2.24-5.21-.71-7.57,1.43-2.21,4.17-2.53,6.2-2.76,4.2-.49,7.49.99,9.41,1.88,1.46.68,6.77,3.22,9.96,9.21.17.32.89,1.69,1.51,3.68,2.45,7.86.02,14.59-.81,16.79-.95,2.52-1.98,5.15-4.64,7.22-.9.7-2.53,1.93-4.92,2.14-2.51.22-6-.67-7.72-3.61-1.09-1.86-1.76-5.05.02-7.18,1.56-1.88,4.1-1.86,4.65-1.85.73,0,3.34.03,4.6,2.03.81,1.28.63,2.68.55,3.18"/>
        <path class="cls-8" d="M799.9,463.18c1.42.92,2.28,2.64,2.13,4.26-.22,2.4-2.6,3.66-4.33,3.39-1.69-.27-2.67-1.97-3.01-2.55-1.13-1.96-1.75-5.21-.56-7.57,1.12-2.21,3.27-2.53,4.87-2.76,3.29-.49,5.87.99,7.38,1.88,1.15.68,5.31,3.22,7.81,9.21.14.32.7,1.69,1.19,3.68,1.92,7.86.02,14.59-.64,16.79-.75,2.52-1.56,5.15-3.64,7.22-.7.7-1.99,1.93-3.86,2.14-1.97.22-4.71-.67-6.06-3.61-.86-1.86-1.38-5.05.01-7.18,1.23-1.88,3.22-1.86,3.65-1.85.57,0,2.62.03,3.61,2.03.63,1.28.5,2.68.43,3.18"/>
        <path class="cls-8" d="M669.54,463.91c-.15.04-2.73.88-3.25,3.12-.53,2.32,1.53,4.43,3.35,5.14,2.75,1.06,5.42-.93,6.54-1.76.84-.63,2.04-1.52,2.53-3.14.64-2.08-.31-3.95-.53-4.39-1.63-3.22-5.67-4.11-8.94-4.82-2.66-.58-8.47-1.77-14.49,1.05-1.31.61-3.68,1.75-5.79,4.27-1.6,1.91-2.31,3.72-2.75,4.86-2.27,5.93-1.21,11.53-.53,15.14.3,1.61.69,3.6,1.72,6.08,1.33,3.2,2.69,6.47,6.05,8.39.77.44,4.53,2.6,8.43.93,3.29-1.41,4.43-4.57,4.52-4.85.85-2.48.19-4.6-.15-5.65-.45-1.39-1.48-4.53-4.37-5.37-1.9-.55-4.69-.14-5.78,1.77-1.17,2.05-.18,5.45,2.92,7.1"/>
        <path class="cls-8" d="M691.56,464.24c1.69,2.38,1.59,5.4,0,7.18-2.1,2.35-8.06,2.11-9.98.47-2.98-2.53-2.16-8.62.3-11.55,4.07-4.84,16.76-3.75,22.74,1.55,6.81,6.04,6.06,16.36,5.65,21.99-.08,1.15-.33,3.55-1.39,6.38-1.13,3-2.25,5.99-5.23,7.51-2.45,1.25-6.14,1.49-8.68-.48-4-3.1-3.48-10.35.11-13.56,2.19-1.95,6.24-3.04,8.38-1.22,1.03.87,1.62,2.42,1.38,3.93-.26,1.64-1.47,3.03-3.13,3.62"/>
        <path class="cls-8" d="M748.06,464.24c1.69,2.38,1.59,5.4,0,7.18-2.1,2.35-8.06,2.11-9.98.47-2.98-2.53-2.16-8.62.3-11.55,4.07-4.84,16.76-3.75,22.74,1.55,6.81,6.04,6.06,16.36,5.65,21.99-.08,1.15-.33,3.55-1.39,6.38-1.13,3-2.25,5.99-5.23,7.51-2.45,1.25-6.14,1.49-8.68-.48-4-3.1-3.48-10.35.11-13.56,2.19-1.95,6.24-3.04,8.38-1.22,1.03.87,1.62,2.42,1.38,3.93-.26,1.64-1.47,3.03-3.13,3.62"/>
        <path class="cls-8" d="M727.8,462.53c-.85,1.89.71,5.48,5.71,5.02,1.95-.18,2.48-5.12,1.24-7.49-1.91-3.62-9.18-3.89-13.77-1.25-11.25,6.46-12.64,33.92-4.74,39.1,2.32,1.52,5.85,1.85,8.01,0,2.84-2.43,3.56-8.74.92-10.74-1.62-1.23-4.33-.69-6.67,1.09"/>
        <path class="cls-8" d="M834.67,462.4c-.95,1.89.8,5.48,6.36,5.02,2.17-.18,2.77-5.12,1.38-7.49-2.12-3.62-10.22-3.89-15.35-1.25-12.54,6.46-14.08,33.92-5.28,39.1,2.58,1.52,6.52,1.85,8.93,0,3.17-2.43,3.96-8.74,1.02-10.74-1.81-1.23-4.82-.69-7.43,1.09"/>
      </g>
      <path class="cls-8" d="M556.91,692.16c-1.48-.22-2.85.28-3.42,1.26-.87,1.48.42,3.52,1.71,4.38,1.94,1.29,4.74.48,6.34-1.01,2.53-2.35,1.69-5.95,1.63-6.2-.78-3.09-3.56-4.38-4.27-4.71-3.22-1.5-6.29-.35-7.11,0-1.3.55-3.19,1.77-4.96,5.07-6.51,12.07.17,30.54,4.22,34.31.34.32,1.33,1.24,2.73,1.32,1.77.11,3.58-1.14,4.4-2.78.94-1.87.31-3.72-.02-4.66-.25-.72-1.35-3.95-3.53-3.99-1.35-.02-2.54,1.2-3.01,2.38-.63,1.58-.14,3.49,1.29,4.79"/>
      <path class="cls-8" d="M570.84,691.36c1.56.15,2.87,1.13,3.33,2.52.67,2-.73,3.9-1.67,4.7-1.89,1.63-4.79,1.39-6.43,0-2.74-2.33-2.39-7.86,0-10.69,2.23-2.64,5.77-2.35,7.76-2.18,4.03.33,6.77,2.58,7.9,3.53,0,0,2.75,2.32,4.65,6.11,4.95,9.9,4.75,24.01-1.51,29.19-.58.48-3.05,2.53-5.78,1.77-2.38-.66-4.38-3.3-4.45-6.13-.01-.48-.07-2.8,1.57-4.3,1.56-1.43,3.52-1.08,3.93-1,.55.1,1.63.3,2.47,1.29.77.92,1.28,2.45.79,3.81-.21.59-.56.99-.81,1.22"/>
      <path class="cls-8" d="M606.17,693.76c-.46.22-1.63.86-2.29,2.22-.98,2.04-.31,4.7,1.15,5.7,2.25,1.55,6.75-.57,8.25-3.96,1.09-2.45.66-5.54-.97-7.47-3.26-3.88-10.56-2.27-14.61,0-1.16.65-3.45,1.97-5.05,4.67-2.17,3.66-1.6,7.4-.89,12.09.71,4.69,1.52,9.97,5.79,14.26,1.17,1.18,3.48,3.16,6.89,4.22,2.45.76,5.53,1.72,8.11,0,2.05-1.37,4.1-4.39,3.06-7.5-.99-2.94-4.37-4.87-7.12-3.99-1.52.48-3.22,1.94-3.45,4.02-.18,1.57.57,2.79.84,3.19"/>
      <path class="cls-8" d="M779.76,698.85c-.46.23-1.64.9-2.29,2.32-.99,2.13-.31,4.9,1.15,5.94,2.25,1.61,6.76-.6,8.27-4.13,1.09-2.56.66-5.77-.97-7.79-3.27-4.05-10.58-2.36-14.64,0-1.16.68-3.46,2.05-5.06,4.87-2.17,3.82-1.6,7.72-.89,12.61.71,4.89,1.52,10.4,5.8,14.87,1.18,1.23,3.49,3.29,6.9,4.4,2.45.79,5.54,1.79,8.12,0,2.05-1.43,4.11-4.58,3.06-7.82-.99-3.06-4.37-5.08-7.13-4.17-1.53.5-3.22,2.02-3.46,4.19-.18,1.64.57,2.91.84,3.33"/>
      <path class="cls-8" d="M624.06,693.24c1.81.92,2.91,2.64,2.72,4.26-.28,2.4-3.31,3.66-5.52,3.39-2.16-.27-3.41-1.97-3.84-2.55-1.44-1.96-2.24-5.21-.71-7.57,1.43-2.21,4.17-2.53,6.2-2.76,4.2-.49,7.49.99,9.41,1.88,1.46.68,6.77,3.22,9.96,9.21.17.32.89,1.69,1.51,3.68,2.45,7.86.02,14.59-.81,16.79-.95,2.52-1.98,5.15-4.64,7.22-.9.7-2.53,1.93-4.92,2.14-2.51.22-6-.67-7.72-3.61-1.09-1.86-1.76-5.05.02-7.18,1.56-1.88,4.1-1.86,4.65-1.85.73,0,3.34.03,4.6,2.03.81,1.28.63,2.68.55,3.18"/>
      <path class="cls-8" d="M797.75,699.61c1.6.89,2.58,2.56,2.42,4.12-.25,2.32-2.94,3.54-4.9,3.28-1.91-.26-3.03-1.91-3.41-2.47-1.27-1.89-1.98-5.04-.63-7.32,1.27-2.14,3.7-2.45,5.51-2.67,3.72-.47,6.64.95,8.35,1.82,1.3.66,6.01,3.12,8.84,8.91.15.31.79,1.64,1.34,3.56,2.18,7.61.02,14.12-.72,16.25-.84,2.44-1.76,4.99-4.12,6.99-.8.68-2.25,1.87-4.36,2.08-2.23.22-5.33-.65-6.85-3.49-.97-1.8-1.56-4.88.01-6.95,1.39-1.82,3.64-1.8,4.13-1.79.65,0,2.96.03,4.08,1.97.72,1.24.56,2.59.49,3.07"/>
      <path class="cls-8" d="M666.26,695.25c-.13.04-2.37.86-2.81,3.06-.46,2.27,1.33,4.34,2.9,5.03,2.38,1.04,4.7-.91,5.67-1.72.73-.62,1.76-1.48,2.19-3.07.55-2.04-.27-3.87-.46-4.3-1.41-3.16-4.92-4.02-7.74-4.72-2.3-.57-7.34-1.74-12.56,1.03-1.14.6-3.18,1.72-5.02,4.18-1.39,1.87-2,3.64-2.38,4.76-1.96,5.81-1.05,11.29-.46,14.82.26,1.58.6,3.53,1.49,5.96,1.15,3.14,2.33,6.33,5.24,8.22.67.43,3.92,2.54,7.31.91,2.85-1.38,3.84-4.47,3.92-4.75.73-2.42.16-4.51-.13-5.53-.39-1.36-1.28-4.43-3.79-5.26-1.65-.54-4.06-.14-5.01,1.73-1.02,2.01-.16,5.33,2.53,6.95"/>
      <path class="cls-8" d="M686.57,696.83c1.64,2.3,1.55,5.21,0,6.93-2.05,2.27-7.85,2.04-9.72.46-2.9-2.44-2.11-8.32.29-11.15,3.96-4.67,16.32-3.62,22.14,1.5,6.63,5.83,5.9,15.79,5.5,21.22-.08,1.11-.32,3.43-1.36,6.16-1.1,2.9-2.19,5.78-5.09,7.25-2.39,1.2-5.98,1.44-8.45-.46-3.89-2.99-3.39-9.99.1-13.09,2.13-1.89,6.07-2.94,8.16-1.18,1,.84,1.58,2.34,1.34,3.8-.25,1.58-1.43,2.92-3.05,3.49"/>
      <path class="cls-8" d="M743.56,698.36c1.88,2.3,1.77,5.21,0,6.93-2.34,2.27-8.98,2.04-11.13.46-3.32-2.44-2.41-8.32.33-11.15,4.53-4.67,18.69-3.62,25.35,1.5,7.59,5.83,6.76,15.79,6.3,21.22-.09,1.11-.37,3.43-1.55,6.16-1.26,2.9-2.51,5.78-5.83,7.25-2.73,1.2-6.84,1.44-9.68-.46-4.46-2.99-3.88-9.99.12-13.09,2.44-1.89,6.95-2.94,9.34-1.18,1.14.84,1.81,2.34,1.54,3.8-.29,1.58-1.63,2.92-3.49,3.49"/>
      <path class="cls-8" d="M722.34,696.72c-.89,1.76.75,5.12,5.97,4.69,2.04-.17,2.59-4.78,1.29-6.99-1.99-3.38-9.59-3.63-14.39-1.17-11.76,6.04-13.21,31.67-4.96,36.51,2.42,1.42,6.11,1.73,8.37,0,2.97-2.27,3.72-8.16.96-10.03-1.7-1.15-4.52-.64-6.97,1.02"/>
      <path class="cls-8" d="M834.87,700.65c-.95,1.73.8,5.01,6.36,4.59,2.17-.16,2.77-4.69,1.38-6.85-2.12-3.31-10.22-3.56-15.35-1.14-12.54,5.91-14.08,31.02-5.28,35.76,2.58,1.39,6.52,1.69,8.93,0,3.17-2.22,3.96-7.99,1.02-9.82-1.81-1.13-4.82-.63-7.43.99"/>
      <polyline class="cls-8" points="540.91 823.83 645.3 730.13 763.27 834.15 843.56 735.49"/>
      <line class="cls-8" x1="540.91" y1="726.08" x2="645.3" y2="826.01"/>
      <polyline class="cls-8" points="645.3 826.01 764.42 734.18 843.56 837.71"/>
    </g>
    <path class="cls-7" d="M1172.13,410.3s-50.15-43.71-62.37-56.51c-12.22-12.8-65.61-75.49-92.7-91.06-27.09-15.57-117.67-45-147.92-44.62-36.54.46-150.24,20.67-169.65,34.63-15.25,10.97-149.35,150.53-149.35,150.53l17.41-52.76,9.91-8.56,10.94-18.34s65.98-96.32,92.71-111.79c26.73-15.47,22.37-19.84,32.44-24.49,10.07-4.65,119.88-27.13,172.34-22.29,52.46,4.85,150,25.48,181.83,50.23s94.62,130.85,91.95,151.7c-2.67,20.85,12.46,43.34,12.46,43.34Z"/>
    <path class="cls-4" d="M1066.99,318.14s-38.89-19.43-44.08-21.22-15.09-5.81-18.73-5.45-10.92,1.08-10.92,1.08c0,0,16.39,8.07,20.63,12.24s13.47,19.04,13.42,21.38-.13,6.39-.13,6.39c0,0,5.5-2.82,10.21,0,4.71,2.82,12.99,8.94,14.95,13.02,1.96,4.08,2.52,10.06,1.31,13.87-1.21,3.81-1.46,4.87-1.46,4.87,0,0,9.05-2.61,14.8,1.12,5.76,3.73,9.29,8.47,10.37,11.26,1.08,2.79,1.51,3.65,1.51,3.65,0,0,1.98-7.84,6.36-10.96s6.22-4.36,8.97-5.8,4.36-2.26,7.32-2.42,4.54.29,4.54.29c0,0-4.07-.71-1.71-5.14,2.36-4.43,6.43-3.29,9.6-3.23s4.45.62,4.45.62c0,0-1.4-1.37-2.42-4.07-1.02-2.7-.79-4.97-.36-8.65.43-3.69,3.81-11.18,5.73-13.24,1.92-2.06,9.13-8.73,10.85-9.71s5.14-1.67,5.14-1.67c0,0-1.65-19.49-1.56-23.89.09-4.4,3.55-15.4,4.56-17.66,1.02-2.26,1.85-3.45,1.85-3.45,0,0-3.28,2.52-6.41,5.04-3.12,2.52-11.92,13.73-14.55,16.11-2.63,2.38-19.27,17.24-19.27,17.24l-9,5.6s3.45,5.37,4.18,9.17c.73,3.8,2.67,11.87,2.3,13.99-.37,2.12-.94,6.2-2.55,6.17s-2.76.56-3.52-1.73-2.66-4.29-2.66-4.29c0,0-1.33,1.8-2.01,3.3-.68,1.5-1.18,2.56-1.18,2.56l-2.35-3.68-2.22-2.01s-1.87,4.67-2.4,6.48-.23,3.18-3.14,3.43-5.8-1.01-7.71-2.56c-1.91-1.55-6.45-8.61-5.39-12.98,1.06-4.38,1.08-5.44,1.62-8.01.54-2.57,1.06-7.02,1.06-7.02Z"/>
    <path class="cls-1" d="M1151.99,437.75s1.26-14.35,5.04-16.64,11.92-5.68,11.92-5.68c0,0-4.58,2.86-4.47,7.2.11,4.33,1.2,9.47,2.18,9.49s-1.97-.04-3.04,4.67c-1.07,4.7-.96,9.04.78,10.45s-3.32-1.25-7.1.85c-3.78,2.09-3.97,1.89-4.42,4.44-.44,2.55-.33-3.35-5.06-2.85s-7.27-.93-10.87,2.35l-3.61,3.28s.92-7.07,3.33-9.39c2.41-2.32,7.38-4.98,7.38-4.98l7.94-3.19Z"/>
    <path class="cls-4" d="M617.13,402.32s-14.14,2.74-16.02,6.74-4.41,12.45-4.41,12.45c0,0,2.37-4.86,6.7-5.19,4.32-.34,9.55.21,9.67,1.18s-.24-1.95,4.33-3.51c4.57-1.56,8.89-1.89,10.47-.31s-1.58-3.18.11-7.15c1.69-3.98,1.47-4.15,3.96-4.85,2.49-.71-3.37.02-3.36-4.74,0-4.76-1.68-7.13,1.21-11.06l2.89-3.93s-6.94,1.65-8.99,4.29-4.18,7.86-4.18,7.86l-2.35,8.22Z"/>
    <path class="cls-3" d="M1075.02,424.08s.79,7.81,5.06,7.18,6.5-5.04,6.29-7.18,4.25-1.08,6.13,0c1.87,1.08,4.88,4.45,5.32,6.11s.27,0-3.55,1.11-5.03,2.74-4.87,6.76c.16,4.02-.25,2.19-.25,2.19,0,0-2.11-1.78-5.09-.4s-3.49.95-4.27,4.51-1.29,3.55-1.29,3.55c0,0,.23-2.76-3.47-3.54s-3.06-1.79-4.52-.59l-1.45,1.2s.76-2.43-.73-4.4c-1.49-1.97-4.47-6.21-6.72-6.25s-7.55-.25-7.55-.25c0,0,.01-.71,3.02-3,3-2.29,6.19-3.45,8.55-4.33s9.39-2.65,9.39-2.65Z"/>
  </g>
</svg>