<?xml version="1.0" encoding="UTF-8"?>
<svg id="Camp.fr" xmlns="http://www.w3.org/2000/svg" viewBox="0 0 1920 1080">
  <defs>
    <style>
      .cls-1, .cls-2, .cls-3 {
        fill: #e7a7ba;
      }

      .cls-4 {
        fill: #e7a7ba;
      }

      .cls-5 {
        fill: #fae8e9;
      }

      .cls-5, .cls-6, .cls-2, .cls-7, .cls-3, .cls-8, .cls-9, .cls-10, .cls-11 {
        stroke-miterlimit: 10;
      }

      .cls-5, .cls-2, .cls-11 {
        stroke: #e7a7ba;
      }

      .cls-6 {
        fill: #78b1e1;
        stroke: #5182bb;
      }

      .cls-7, .cls-8 {
        stroke: #fae8e9;
      }

      .cls-7, .cls-9, .cls-11 {
        fill: #78b1e1;
      }

      .cls-3, .cls-9, .cls-10 {
        stroke: #e7a7ba;
      }

      .cls-8, .cls-10 {
        fill: #fae8e9;
      }
    </style>
  </defs>
  <g id="Camp_Residence" data-name="Camp Residence">
    <polygon class="cls-4" points="440.39 253.27 424.62 765.33 1036.04 784.16 1470.73 810.1 1486.51 297.76 1051.88 281.49 440.39 253.27"/>
    <polyline class="cls-10" points="445.33 706.93 458.69 273.35 1470.48 314.24 1457.42 738.1"/>
    <polygon class="cls-3" points="575.89 640.66 576.89 619.7 494.6 618.46 494.01 637.61 483.64 637.29 485.06 608.33 588.61 609.83 588.05 641.06 575.89 640.66"/>
    <polygon class="cls-3" points="890.34 647.65 891.34 626.69 809.05 625.45 808.46 644.6 798.1 644.28 799.51 615.32 903.06 616.82 902.51 648.05 890.34 647.65"/>
    <polygon class="cls-3" points="716.49 644.06 717.43 623.09 650.17 622.31 649.58 641.46 641.11 641.2 642.43 612.24 727.06 613.16 726.43 644.38 716.49 644.06"/>
    <polygon class="cls-1" points="516 350.54 505.93 350.23 506.93 317.77 577.74 321.05 576.74 353.42 565.94 353.08 566.19 333.33 518.01 331.04 516 350.54"/>
    <polygon class="cls-10" points="521.25 334.96 519.01 407.8 562.84 409.15 563.29 336.25 521.25 334.96"/>
    <rect class="cls-11" x="523.41" y="339.13" width="15.71" height="14.81" transform="translate(168.53 866.88) rotate(-88.24)"/>
    <polygon class="cls-11" points="543.38 354.37 543.86 338.66 559.11 339.13 558.63 354.44 543.38 354.37"/>
    <rect class="cls-11" x="516.29" y="366.34" width="28.4" height="14.68" transform="translate(140.65 892.42) rotate(-88.24)"/>
    <polygon class="cls-11" points="543.2 359.75 558.38 360.22 558.43 388.08 542.78 387.85 543.2 359.75"/>
    <rect class="cls-9" x="522.78" y="392.07" width="13.79" height="14.73" transform="translate(114.12 916.56) rotate(-88.24)"/>
    <rect class="cls-9" x="543.67" y="391.48" width="13.79" height="17.21" transform="translate(133.73 938.07) rotate(-88.24)"/>
    <polygon class="cls-10" points="508.38 397 571.86 398.96 571.82 400.1 569 400.01 568.74 413.17 572.36 413.28 572.31 414.99 507.89 413.01 507.92 411.89 511.17 411.98 511.6 398.47 508.34 398.41 508.38 397"/>
    <line class="cls-10" x1="511.96" y1="398.43" x2="569" y2="400.01"/>
    <line class="cls-10" x1="511.39" y1="405.1" x2="568.87" y2="406.45"/>
    <polyline class="cls-10" points="516.35 398.55 511.52 401.17 517.74 404.88 527.87 398.91"/>
    <line class="cls-10" x1="511.8" y1="403.89" x2="522.33" y2="398.74"/>
    <line class="cls-10" x1="532.07" y1="405.74" x2="540.32" y2="399.53"/>
    <line class="cls-10" x1="540.29" y1="405.57" x2="548" y2="399.53"/>
    <polyline class="cls-10" points="545.61 405.74 553.61 399.94 558.99 406.27 565.73 400"/>
    <line class="cls-10" x1="552.17" y1="406.06" x2="559.19" y2="399.87"/>
    <polyline class="cls-10" points="513.64 398.39 524.66 405.3 534.1 399.34"/>
    <line class="cls-10" x1="520.09" y1="398.59" x2="531.13" y2="405.71"/>
    <line class="cls-10" x1="526.84" y1="398.72" x2="535.87" y2="405.65"/>
    <line class="cls-10" x1="533.26" y1="398.91" x2="540.8" y2="405.8"/>
    <line class="cls-10" x1="539.79" y1="399.2" x2="546.87" y2="405.78"/>
    <line class="cls-10" x1="545.81" y1="399.3" x2="552.19" y2="405.5"/>
    <polyline class="cls-10" points="559.88 399.91 565.53 406.47 568.97 403.31"/>
    <line class="cls-10" x1="564.82" y1="399.89" x2="568.54" y2="404.63"/>
    <line class="cls-10" x1="511.17" y1="411.98" x2="568.74" y2="413.17"/>
    <path class="cls-10" d="M511.85,411.71s-.51-3.24.13-4.21,1.85-2.01,1.85-2.01c0,0,2.1,1.32,2.08,2.9s-.28,3.68-.28,3.68"/>
    <path class="cls-10" d="M516.64,411.86s-.47-3.24.13-4.21,1.71-2.02,1.71-2.02c0,0,1.95,1.31,1.92,2.9-.02,1.58-.27,3.68-.27,3.68"/>
    <path class="cls-10" d="M521.21,412s-.51-3.24.13-4.21,1.85-2.01,1.85-2.01c0,0,2.1,1.32,2.08,2.9-.02,1.58-.28,3.68-.28,3.68"/>
    <path class="cls-10" d="M525.91,412.33s-.51-3.24.13-4.21,1.85-2.01,1.85-2.01c0,0,2.1,1.32,2.08,2.9s-.28,3.68-.28,3.68"/>
    <path class="cls-10" d="M530.4,412.28s-.51-3.24.13-4.21,1.85-2.01,1.85-2.01c0,0,2.1,1.32,2.08,2.9s-.28,3.68-.28,3.68"/>
    <path class="cls-10" d="M534.88,412.42s-.51-3.24.13-4.21,1.85-2.01,1.85-2.01c0,0,2.1,1.32,2.08,2.9s-.28,3.68-.28,3.68"/>
    <path class="cls-10" d="M539.66,412.26s-.51-3.24.13-4.21,1.85-2.01,1.85-2.01c0,0,2.1,1.32,2.08,2.9s-.28,3.68-.28,3.68"/>
    <path class="cls-10" d="M544.11,412.39s-.51-3.24.13-4.21,1.85-2.01,1.85-2.01c0,0,2.1,1.32,2.08,2.9s-.28,3.68-.28,3.68"/>
    <path class="cls-10" d="M548.92,412.54s-.45-3.24.13-4.21,1.66-2.02,1.66-2.02c0,0,1.88,1.31,1.86,2.89s-.26,3.68-.26,3.68"/>
    <path class="cls-10" d="M552.71,412.66s-.45-3.24.13-4.21,1.67-2.02,1.67-2.02c0,0,1.9,1.31,1.87,2.89s-.27,3.68-.27,3.68"/>
    <path class="cls-10" d="M557.11,412.79s-.46-3.24.13-4.21,1.69-2.02,1.69-2.02c0,0,1.91,1.31,1.89,2.89s-.27,3.68-.27,3.68"/>
    <path class="cls-10" d="M561.56,412.93s-.38-3.24.13-4.21,1.47-2.02,1.47-2.02c0,0,1.66,1.3,1.63,2.89s-.25,3.68-.25,3.68"/>
    <path class="cls-10" d="M564.91,413.03s-.39-3.24.13-4.21,1.5-2.02,1.5-2.02c0,0,1.69,1.31,1.66,2.89-.03,1.58-.25,3.68-.25,3.68"/>
    <polyline class="cls-1" points="506.13 411.33 505.97 416.56 572.75 418.62 572.91 413.38"/>
    <polygon class="cls-1" points="663.89 357.01 653.82 356.7 654.82 324.23 725.63 327.51 724.63 359.88 713.83 359.55 714.08 339.79 665.9 337.5 663.89 357.01"/>
    <polygon class="cls-10" points="669.14 341.42 666.9 414.26 710.73 415.61 711.18 342.72 669.14 341.42"/>
    <rect class="cls-11" x="671.3" y="345.6" width="15.71" height="14.81" transform="translate(305.41 1020.97) rotate(-88.24)"/>
    <polygon class="cls-11" points="691.27 360.84 691.75 345.13 707 345.6 706.52 360.91 691.27 360.84"/>
    <rect class="cls-11" x="664.18" y="372.8" width="28.4" height="14.68" transform="translate(277.53 1046.5) rotate(-88.24)"/>
    <polygon class="cls-11" points="691.09 366.22 706.27 366.69 706.32 394.55 690.67 394.31 691.09 366.22"/>
    <rect class="cls-9" x="670.67" y="398.54" width="13.79" height="14.73" transform="translate(250.99 1070.65) rotate(-88.24)"/>
    <rect class="cls-9" x="691.56" y="397.94" width="13.79" height="17.21" transform="translate(270.6 1092.16) rotate(-88.24)"/>
    <polygon class="cls-10" points="656.27 403.47 719.75 405.42 719.72 406.57 716.89 406.48 716.63 419.63 720.25 419.75 720.2 421.46 655.78 419.47 655.81 418.36 659.06 418.45 659.49 404.93 656.23 404.88 656.27 403.47"/>
    <line class="cls-10" x1="659.86" y1="404.89" x2="716.89" y2="406.48"/>
    <line class="cls-10" x1="659.28" y1="411.57" x2="716.76" y2="412.92"/>
    <polyline class="cls-10" points="664.24 405.02 659.41 407.64 665.63 411.34 675.76 405.37"/>
    <line class="cls-10" x1="659.69" y1="410.36" x2="670.22" y2="405.2"/>
    <line class="cls-10" x1="679.96" y1="412.21" x2="688.21" y2="406"/>
    <line class="cls-10" x1="688.18" y1="412.04" x2="695.89" y2="405.99"/>
    <polyline class="cls-10" points="693.5 412.2 701.5 406.41 706.88 412.74 713.62 406.46"/>
    <line class="cls-10" x1="700.06" y1="412.53" x2="707.08" y2="406.34"/>
    <polyline class="cls-10" points="661.53 404.86 672.55 411.77 681.99 405.81"/>
    <line class="cls-10" x1="667.98" y1="405.06" x2="679.02" y2="412.18"/>
    <line class="cls-10" x1="674.73" y1="405.18" x2="683.76" y2="412.11"/>
    <line class="cls-10" x1="681.15" y1="405.38" x2="688.69" y2="412.26"/>
    <line class="cls-10" x1="687.68" y1="405.67" x2="694.76" y2="412.24"/>
    <line class="cls-10" x1="693.7" y1="405.76" x2="700.08" y2="411.96"/>
    <polyline class="cls-10" points="707.77 406.37 713.42 412.94 716.86 409.78"/>
    <line class="cls-10" x1="712.71" y1="406.35" x2="716.43" y2="411.09"/>
    <line class="cls-10" x1="659.06" y1="418.45" x2="716.63" y2="419.63"/>
    <path class="cls-10" d="M659.74,418.18s-.51-3.24.13-4.21,1.85-2.01,1.85-2.01c0,0,2.1,1.32,2.08,2.9s-.28,3.68-.28,3.68"/>
    <path class="cls-10" d="M664.53,418.32s-.47-3.24.13-4.21,1.71-2.02,1.71-2.02c0,0,1.95,1.31,1.92,2.9-.02,1.58-.27,3.68-.27,3.68"/>
    <path class="cls-10" d="M669.1,418.46s-.51-3.24.13-4.21,1.85-2.01,1.85-2.01c0,0,2.1,1.32,2.08,2.9s-.28,3.68-.28,3.68"/>
    <path class="cls-10" d="M673.8,418.8s-.51-3.24.13-4.21,1.85-2.01,1.85-2.01c0,0,2.1,1.32,2.08,2.9s-.28,3.68-.28,3.68"/>
    <path class="cls-10" d="M678.29,418.75s-.51-3.24.13-4.21,1.85-2.01,1.85-2.01c0,0,2.1,1.32,2.08,2.9s-.28,3.68-.28,3.68"/>
    <path class="cls-10" d="M682.77,418.89s-.51-3.24.13-4.21,1.85-2.01,1.85-2.01c0,0,2.1,1.32,2.08,2.9s-.28,3.68-.28,3.68"/>
    <path class="cls-10" d="M687.55,418.72s-.51-3.24.13-4.21,1.85-2.01,1.85-2.01c0,0,2.1,1.32,2.08,2.9s-.28,3.68-.28,3.68"/>
    <path class="cls-10" d="M692,418.86s-.51-3.24.13-4.21,1.85-2.01,1.85-2.01c0,0,2.1,1.32,2.08,2.9s-.28,3.68-.28,3.68"/>
    <path class="cls-10" d="M696.81,419.01s-.45-3.24.13-4.21,1.66-2.02,1.66-2.02c0,0,1.88,1.31,1.86,2.89s-.26,3.68-.26,3.68"/>
    <path class="cls-10" d="M700.6,419.12s-.45-3.24.13-4.21,1.67-2.02,1.67-2.02c0,0,1.9,1.31,1.87,2.89s-.27,3.68-.27,3.68"/>
    <path class="cls-10" d="M705,419.26s-.46-3.24.13-4.21,1.69-2.02,1.69-2.02c0,0,1.91,1.31,1.89,2.89s-.27,3.68-.27,3.68"/>
    <path class="cls-10" d="M709.45,419.4s-.38-3.24.13-4.21,1.47-2.02,1.47-2.02c0,0,1.66,1.3,1.63,2.89s-.25,3.68-.25,3.68"/>
    <path class="cls-10" d="M712.8,419.5s-.39-3.24.13-4.21,1.5-2.02,1.5-2.02c0,0,1.69,1.31,1.66,2.89-.03,1.58-.25,3.68-.25,3.68"/>
    <polyline class="cls-1" points="654.02 417.79 653.86 423.03 720.64 425.08 720.8 419.85"/>
    <polygon class="cls-1" points="820.78 362.03 810.71 361.72 811.71 329.25 882.51 332.53 881.51 364.9 870.72 364.57 870.96 344.81 822.78 342.52 820.78 362.03"/>
    <polygon class="cls-10" points="826.03 346.44 823.78 419.28 867.61 420.63 868.06 347.74 826.03 346.44"/>
    <rect class="cls-11" x="828.18" y="350.62" width="15.71" height="14.81" transform="translate(452.44 1182.64) rotate(-88.24)"/>
    <polygon class="cls-11" points="848.15 365.86 848.63 350.15 863.88 350.62 863.41 365.93 848.15 365.86"/>
    <rect class="cls-11" x="821.06" y="377.82" width="28.4" height="14.68" transform="translate(424.57 1208.18) rotate(-88.24)"/>
    <polygon class="cls-11" points="847.98 371.24 863.15 371.71 863.21 399.57 847.56 399.33 847.98 371.24"/>
    <rect class="cls-9" x="827.55" y="403.56" width="13.79" height="14.73" transform="translate(398.03 1232.32) rotate(-88.24)"/>
    <rect class="cls-9" x="848.45" y="402.96" width="13.79" height="17.21" transform="translate(417.64 1253.83) rotate(-88.24)"/>
    <polygon class="cls-10" points="813.15 408.49 876.63 410.44 876.6 411.59 873.77 411.5 873.51 424.65 877.14 424.77 877.08 426.48 812.66 424.49 812.69 423.38 815.95 423.47 816.38 409.95 813.11 409.9 813.15 408.49"/>
    <line class="cls-10" x1="816.74" y1="409.91" x2="873.77" y2="411.5"/>
    <line class="cls-10" x1="816.17" y1="416.59" x2="873.64" y2="417.94"/>
    <polyline class="cls-10" points="821.12 410.04 816.29 412.66 822.52 416.36 832.64 410.39"/>
    <line class="cls-10" x1="816.57" y1="415.38" x2="827.1" y2="410.22"/>
    <line class="cls-10" x1="836.85" y1="417.23" x2="845.1" y2="411.02"/>
    <line class="cls-10" x1="845.06" y1="417.06" x2="852.77" y2="411.01"/>
    <polyline class="cls-10" points="850.38 417.22 858.39 411.43 863.76 417.76 870.5 411.48"/>
    <line class="cls-10" x1="856.94" y1="417.55" x2="863.96" y2="411.36"/>
    <polyline class="cls-10" points="818.41 409.88 829.44 416.79 838.87 410.83"/>
    <line class="cls-10" x1="824.86" y1="410.08" x2="835.9" y2="417.2"/>
    <line class="cls-10" x1="831.61" y1="410.2" x2="840.64" y2="417.13"/>
    <line class="cls-10" x1="838.03" y1="410.4" x2="845.58" y2="417.28"/>
    <line class="cls-10" x1="844.56" y1="410.69" x2="851.64" y2="417.26"/>
    <line class="cls-10" x1="850.58" y1="410.78" x2="856.96" y2="416.98"/>
    <polyline class="cls-10" points="864.65 411.39 870.3 417.96 873.74 414.8"/>
    <line class="cls-10" x1="869.59" y1="411.37" x2="873.31" y2="416.11"/>
    <line class="cls-10" x1="815.95" y1="423.47" x2="873.51" y2="424.65"/>
    <path class="cls-10" d="M816.63,423.2s-.51-3.24.13-4.21,1.85-2.01,1.85-2.01c0,0,2.1,1.32,2.08,2.9s-.28,3.68-.28,3.68"/>
    <path class="cls-10" d="M821.41,423.34s-.47-3.24.13-4.21,1.71-2.02,1.71-2.02c0,0,1.95,1.31,1.92,2.9-.02,1.58-.27,3.68-.27,3.68"/>
    <path class="cls-10" d="M825.99,423.48s-.51-3.24.13-4.21,1.85-2.01,1.85-2.01c0,0,2.1,1.32,2.08,2.9-.02,1.58-.28,3.68-.28,3.68"/>
    <path class="cls-10" d="M830.68,423.82s-.51-3.24.13-4.21,1.85-2.01,1.85-2.01c0,0,2.1,1.32,2.08,2.9s-.28,3.68-.28,3.68"/>
    <path class="cls-10" d="M835.18,423.77s-.51-3.24.13-4.21,1.85-2.01,1.85-2.01c0,0,2.1,1.32,2.08,2.9s-.28,3.68-.28,3.68"/>
    <path class="cls-10" d="M839.65,423.91s-.51-3.24.13-4.21,1.85-2.01,1.85-2.01c0,0,2.1,1.32,2.08,2.9s-.28,3.68-.28,3.68"/>
    <path class="cls-10" d="M844.43,423.74s-.51-3.24.13-4.21,1.85-2.01,1.85-2.01c0,0,2.1,1.32,2.08,2.9s-.28,3.68-.28,3.68"/>
    <path class="cls-10" d="M848.88,423.88s-.51-3.24.13-4.21,1.85-2.01,1.85-2.01c0,0,2.1,1.32,2.08,2.9s-.28,3.68-.28,3.68"/>
    <path class="cls-10" d="M853.69,424.03s-.45-3.24.13-4.21,1.66-2.02,1.66-2.02c0,0,1.88,1.31,1.86,2.89s-.26,3.68-.26,3.68"/>
    <path class="cls-10" d="M857.49,424.14s-.45-3.24.13-4.21,1.67-2.02,1.67-2.02c0,0,1.9,1.31,1.87,2.89s-.27,3.68-.27,3.68"/>
    <path class="cls-10" d="M861.88,424.28s-.46-3.24.13-4.21,1.69-2.02,1.69-2.02c0,0,1.91,1.31,1.89,2.89s-.27,3.68-.27,3.68"/>
    <path class="cls-10" d="M866.34,424.42s-.38-3.24.13-4.21,1.47-2.02,1.47-2.02c0,0,1.66,1.3,1.63,2.89s-.25,3.68-.25,3.68"/>
    <path class="cls-10" d="M869.68,424.52s-.39-3.24.13-4.21,1.5-2.02,1.5-2.02c0,0,1.69,1.31,1.66,2.89-.03,1.58-.25,3.68-.25,3.68"/>
    <polyline class="cls-1" points="810.9 422.81 810.74 428.05 877.52 430.1 877.68 424.87"/>
    <polygon class="cls-1" points="511.43 493.1 501.36 492.79 502.36 460.32 573.16 463.6 572.17 495.97 561.37 495.64 561.61 475.88 513.44 473.59 511.43 493.1"/>
    <polygon class="cls-10" points="516.68 477.51 514.44 550.35 558.26 551.7 558.71 478.81 516.68 477.51"/>
    <rect class="cls-11" x="518.83" y="481.69" width="15.71" height="14.81" transform="translate(21.61 1000.47) rotate(-88.24)"/>
    <polygon class="cls-11" points="538.8 496.92 539.29 481.22 554.53 481.69 554.06 497 538.8 496.92"/>
    <rect class="cls-11" x="511.72" y="508.89" width="28.4" height="14.68" transform="translate(-6.27 1026.01) rotate(-88.24)"/>
    <polygon class="cls-11" points="538.63 502.31 553.81 502.78 553.86 530.64 538.21 530.4 538.63 502.31"/>
    <rect class="cls-9" x="518.2" y="534.63" width="13.79" height="14.73" transform="translate(-32.8 1050.16) rotate(-88.24)"/>
    <rect class="cls-9" x="539.1" y="534.03" width="13.79" height="17.21" transform="translate(-13.19 1071.67) rotate(-88.24)"/>
    <polygon class="cls-10" points="503.81 539.55 567.29 541.51 567.25 542.66 564.42 542.57 564.16 555.72 567.79 555.84 567.74 557.55 503.31 555.56 503.35 554.45 506.6 554.54 507.03 541.02 503.76 540.97 503.81 539.55"/>
    <line class="cls-10" x1="507.39" y1="540.98" x2="564.42" y2="542.57"/>
    <line class="cls-10" x1="506.82" y1="547.66" x2="564.3" y2="549.01"/>
    <polyline class="cls-10" points="511.78 541.11 506.94 543.73 513.17 547.43 523.29 541.46"/>
    <line class="cls-10" x1="507.22" y1="546.45" x2="517.75" y2="541.29"/>
    <line class="cls-10" x1="527.5" y1="548.3" x2="535.75" y2="542.09"/>
    <line class="cls-10" x1="535.71" y1="548.13" x2="543.42" y2="542.08"/>
    <polyline class="cls-10" points="541.03 548.29 549.04 542.5 554.41 548.83 561.16 542.55"/>
    <line class="cls-10" x1="547.6" y1="548.62" x2="554.61" y2="542.43"/>
    <polyline class="cls-10" points="509.06 540.95 520.09 547.86 529.53 541.9"/>
    <line class="cls-10" x1="515.51" y1="541.15" x2="526.55" y2="548.27"/>
    <line class="cls-10" x1="522.26" y1="541.27" x2="531.29" y2="548.2"/>
    <line class="cls-10" x1="528.69" y1="541.47" x2="536.23" y2="548.35"/>
    <line class="cls-10" x1="535.21" y1="541.76" x2="542.29" y2="548.33"/>
    <line class="cls-10" x1="541.23" y1="541.85" x2="547.61" y2="548.05"/>
    <polyline class="cls-10" points="555.3 542.46 560.96 549.03 564.39 545.87"/>
    <line class="cls-10" x1="560.25" y1="542.44" x2="563.97" y2="547.18"/>
    <line class="cls-10" x1="506.6" y1="554.54" x2="564.16" y2="555.72"/>
    <path class="cls-10" d="M507.28,554.27s-.51-3.24.13-4.21,1.85-2.01,1.85-2.01c0,0,2.1,1.32,2.08,2.9s-.28,3.68-.28,3.68"/>
    <path class="cls-10" d="M512.07,554.41s-.47-3.24.13-4.21,1.71-2.02,1.71-2.02c0,0,1.95,1.31,1.92,2.9-.02,1.58-.27,3.68-.27,3.68"/>
    <path class="cls-10" d="M516.64,554.55s-.51-3.24.13-4.21,1.85-2.01,1.85-2.01c0,0,2.1,1.32,2.08,2.9-.02,1.58-.28,3.68-.28,3.68"/>
    <path class="cls-10" d="M521.33,554.89s-.51-3.24.13-4.21,1.85-2.01,1.85-2.01c0,0,2.1,1.32,2.08,2.9s-.28,3.68-.28,3.68"/>
    <path class="cls-10" d="M525.83,554.84s-.51-3.24.13-4.21,1.85-2.01,1.85-2.01c0,0,2.1,1.32,2.08,2.9s-.28,3.68-.28,3.68"/>
    <path class="cls-10" d="M530.31,554.97s-.51-3.24.13-4.21,1.85-2.01,1.85-2.01c0,0,2.1,1.32,2.08,2.9s-.28,3.68-.28,3.68"/>
    <path class="cls-10" d="M535.08,554.81s-.51-3.24.13-4.21,1.85-2.01,1.85-2.01c0,0,2.1,1.32,2.08,2.9s-.28,3.68-.28,3.68"/>
    <path class="cls-10" d="M539.54,554.95s-.51-3.24.13-4.21,1.85-2.01,1.85-2.01c0,0,2.1,1.32,2.08,2.9s-.28,3.68-.28,3.68"/>
    <path class="cls-10" d="M544.35,555.1s-.45-3.24.13-4.21,1.66-2.02,1.66-2.02c0,0,1.88,1.31,1.86,2.89s-.26,3.68-.26,3.68"/>
    <path class="cls-10" d="M548.14,555.21s-.45-3.24.13-4.21c.58-.97,1.67-2.02,1.67-2.02,0,0,1.9,1.31,1.87,2.89s-.27,3.68-.27,3.68"/>
    <path class="cls-10" d="M552.53,555.35s-.46-3.24.13-4.21,1.69-2.02,1.69-2.02c0,0,1.91,1.31,1.89,2.89s-.27,3.68-.27,3.68"/>
    <path class="cls-10" d="M556.99,555.49s-.38-3.24.13-4.21,1.47-2.02,1.47-2.02c0,0,1.66,1.3,1.63,2.89s-.25,3.68-.25,3.68"/>
    <path class="cls-10" d="M560.34,555.59s-.39-3.24.13-4.21,1.5-2.02,1.5-2.02c0,0,1.69,1.31,1.66,2.89-.03,1.58-.25,3.68-.25,3.68"/>
    <polyline class="cls-1" points="501.56 553.88 501.39 559.12 568.17 561.17 568.33 555.94"/>
    <polygon class="cls-1" points="659.32 499.56 649.25 499.25 650.25 466.79 721.05 470.07 720.06 502.44 709.26 502.1 709.51 482.35 661.33 480.06 659.32 499.56"/>
    <polygon class="cls-10" points="664.57 483.98 662.33 556.82 706.15 558.17 706.6 485.27 664.57 483.98"/>
    <rect class="cls-11" x="666.72" y="488.15" width="15.71" height="14.81" transform="translate(158.49 1154.56) rotate(-88.24)"/>
    <polygon class="cls-11" points="686.69 503.39 687.18 487.68 702.42 488.15 701.95 503.46 686.69 503.39"/>
    <rect class="cls-11" x="659.61" y="515.36" width="28.4" height="14.68" transform="translate(130.61 1180.1) rotate(-88.24)"/>
    <polygon class="cls-11" points="686.52 508.77 701.7 509.24 701.75 537.1 686.1 536.87 686.52 508.77"/>
    <rect class="cls-9" x="666.09" y="541.09" width="13.79" height="14.73" transform="translate(104.07 1204.24) rotate(-88.24)"/>
    <rect class="cls-9" x="686.99" y="540.5" width="13.79" height="17.21" transform="translate(123.68 1225.75) rotate(-88.24)"/>
    <polygon class="cls-10" points="651.7 546.02 715.18 547.98 715.14 549.12 712.31 549.03 712.05 562.19 715.68 562.3 715.63 564.01 651.2 562.03 651.24 560.91 654.49 561 654.92 547.49 651.65 547.43 651.7 546.02"/>
    <line class="cls-10" x1="655.28" y1="547.45" x2="712.31" y2="549.03"/>
    <line class="cls-10" x1="654.71" y1="554.12" x2="712.19" y2="555.47"/>
    <polyline class="cls-10" points="659.67 547.57 654.83 550.19 661.06 553.9 671.18 547.93"/>
    <line class="cls-10" x1="655.11" y1="552.91" x2="665.64" y2="547.76"/>
    <line class="cls-10" x1="675.39" y1="554.76" x2="683.64" y2="548.55"/>
    <line class="cls-10" x1="683.6" y1="554.59" x2="691.31" y2="548.55"/>
    <polyline class="cls-10" points="688.92 554.76 696.93 548.96 702.31 555.29 709.05 549.02"/>
    <line class="cls-10" x1="695.49" y1="555.08" x2="702.5" y2="548.89"/>
    <polyline class="cls-10" points="656.95 547.41 667.98 554.32 677.42 548.36"/>
    <line class="cls-10" x1="663.4" y1="547.61" x2="674.44" y2="554.73"/>
    <line class="cls-10" x1="670.15" y1="547.74" x2="679.18" y2="554.67"/>
    <line class="cls-10" x1="676.58" y1="547.93" x2="684.12" y2="554.82"/>
    <line class="cls-10" x1="683.1" y1="548.22" x2="690.18" y2="554.8"/>
    <line class="cls-10" x1="689.12" y1="548.32" x2="695.5" y2="554.52"/>
    <polyline class="cls-10" points="703.19 548.93 708.85 555.49 712.28 552.33"/>
    <line class="cls-10" x1="708.14" y1="548.91" x2="711.86" y2="553.65"/>
    <line class="cls-10" x1="654.49" y1="561" x2="712.05" y2="562.19"/>
    <path class="cls-10" d="M655.17,560.73s-.51-3.24.13-4.21,1.85-2.01,1.85-2.01c0,0,2.1,1.32,2.08,2.9s-.28,3.68-.28,3.68"/>
    <path class="cls-10" d="M659.96,560.88s-.47-3.24.13-4.21,1.71-2.02,1.71-2.02c0,0,1.95,1.31,1.92,2.9-.02,1.58-.27,3.68-.27,3.68"/>
    <path class="cls-10" d="M664.53,561.02s-.51-3.24.13-4.21c.64-.97,1.85-2.01,1.85-2.01,0,0,2.1,1.32,2.08,2.9-.02,1.58-.28,3.68-.28,3.68"/>
    <path class="cls-10" d="M669.22,561.35s-.51-3.24.13-4.21c.64-.97,1.85-2.01,1.85-2.01,0,0,2.1,1.32,2.08,2.9s-.28,3.68-.28,3.68"/>
    <path class="cls-10" d="M673.72,561.3s-.51-3.24.13-4.21,1.85-2.01,1.85-2.01c0,0,2.1,1.32,2.08,2.9s-.28,3.68-.28,3.68"/>
    <path class="cls-10" d="M678.2,561.44s-.51-3.24.13-4.21c.64-.97,1.85-2.01,1.85-2.01,0,0,2.1,1.32,2.08,2.9s-.28,3.68-.28,3.68"/>
    <path class="cls-10" d="M682.97,561.28s-.51-3.24.13-4.21c.64-.97,1.85-2.01,1.85-2.01,0,0,2.1,1.32,2.08,2.9s-.28,3.68-.28,3.68"/>
    <path class="cls-10" d="M687.43,561.41s-.51-3.24.13-4.21c.64-.97,1.85-2.01,1.85-2.01,0,0,2.1,1.32,2.08,2.9s-.28,3.68-.28,3.68"/>
    <path class="cls-10" d="M692.24,561.56s-.45-3.24.13-4.21,1.66-2.02,1.66-2.02c0,0,1.88,1.31,1.86,2.89s-.26,3.68-.26,3.68"/>
    <path class="cls-10" d="M696.03,561.68s-.45-3.24.13-4.21,1.67-2.02,1.67-2.02c0,0,1.9,1.31,1.87,2.89s-.27,3.68-.27,3.68"/>
    <path class="cls-10" d="M700.43,561.81s-.46-3.24.13-4.21,1.69-2.02,1.69-2.02c0,0,1.91,1.31,1.89,2.89s-.27,3.68-.27,3.68"/>
    <path class="cls-10" d="M704.88,561.95s-.38-3.24.13-4.21,1.47-2.02,1.47-2.02c0,0,1.66,1.3,1.63,2.89s-.25,3.68-.25,3.68"/>
    <path class="cls-10" d="M708.23,562.05s-.39-3.24.13-4.21c.52-.97,1.5-2.02,1.5-2.02,0,0,1.69,1.31,1.66,2.89-.03,1.58-.25,3.68-.25,3.68"/>
    <polyline class="cls-1" points="649.45 560.35 649.28 565.58 716.06 567.64 716.22 562.4"/>
    <polygon class="cls-1" points="816.2 504.58 806.13 504.27 807.13 471.81 877.94 475.09 876.94 507.46 866.15 507.12 866.39 487.37 818.21 485.08 816.2 504.58"/>
    <polygon class="cls-10" points="821.45 489 819.21 561.84 863.04 563.19 863.49 490.29 821.45 489"/>
    <rect class="cls-11" x="823.61" y="493.17" width="15.71" height="14.81" transform="translate(305.52 1316.23) rotate(-88.24)"/>
    <polygon class="cls-11" points="843.58 508.41 844.06 492.7 859.31 493.17 858.84 508.48 843.58 508.41"/>
    <rect class="cls-11" x="816.49" y="520.38" width="28.4" height="14.68" transform="translate(277.65 1341.77) rotate(-88.24)"/>
    <polygon class="cls-11" points="843.4 513.79 858.58 514.26 858.63 542.12 842.99 541.89 843.4 513.79"/>
    <rect class="cls-9" x="822.98" y="546.11" width="13.79" height="14.73" transform="translate(251.11 1365.92) rotate(-88.24)"/>
    <rect class="cls-9" x="843.87" y="545.52" width="13.79" height="17.21" transform="translate(270.72 1387.43) rotate(-88.24)"/>
    <polygon class="cls-1" points="1048.92 366.6 1038.84 366.29 1039.84 333.82 1110.65 337.1 1109.65 369.47 1098.86 369.14 1099.1 349.39 1050.92 347.1 1048.92 366.6"/>
    <polygon class="cls-10" points="1054.16 351.01 1051.92 423.85 1095.75 425.2 1096.2 352.31 1054.16 351.01"/>
    <rect class="cls-11" x="1056.32" y="355.19" width="15.71" height="14.81" transform="translate(668.99 1415.1) rotate(-88.24)"/>
    <polygon class="cls-11" points="1076.29 370.43 1076.77 354.72 1092.02 355.19 1091.55 370.5 1076.29 370.43"/>
    <rect class="cls-11" x="1049.2" y="382.4" width="28.4" height="14.68" transform="translate(641.11 1440.64) rotate(-88.24)"/>
    <polygon class="cls-11" points="1076.11 375.81 1091.29 376.28 1091.34 404.14 1075.7 403.91 1076.11 375.81"/>
    <rect class="cls-9" x="1055.69" y="408.13" width="13.79" height="14.73" transform="translate(614.57 1464.78) rotate(-88.24)"/>
    <rect class="cls-9" x="1076.59" y="407.53" width="13.79" height="17.21" transform="translate(634.18 1486.29) rotate(-88.24)"/>
    <polygon class="cls-10" points="1041.29 413.06 1104.77 415.01 1104.74 416.16 1101.91 416.07 1101.65 429.23 1105.27 429.34 1105.22 431.05 1040.8 429.07 1040.83 427.95 1044.08 428.04 1044.52 414.52 1041.25 414.47 1041.29 413.06"/>
    <line class="cls-10" x1="1044.88" y1="414.49" x2="1101.91" y2="416.07"/>
    <line class="cls-10" x1="1044.3" y1="421.16" x2="1101.78" y2="422.51"/>
    <polyline class="cls-10" points="1049.26 414.61 1044.43 417.23 1050.66 420.94 1060.78 414.96"/>
    <line class="cls-10" x1="1044.71" y1="419.95" x2="1055.24" y2="414.79"/>
    <line class="cls-10" x1="1064.98" y1="421.8" x2="1073.23" y2="415.59"/>
    <line class="cls-10" x1="1073.2" y1="421.63" x2="1080.91" y2="415.58"/>
    <polyline class="cls-10" points="1078.52 421.8 1086.52 416 1091.9 422.33 1098.64 416.06"/>
    <line class="cls-10" x1="1085.08" y1="422.12" x2="1092.1" y2="415.93"/>
    <polyline class="cls-10" points="1046.55 414.45 1057.57 421.36 1067.01 415.4"/>
    <line class="cls-10" x1="1053" y1="414.65" x2="1064.04" y2="421.77"/>
    <line class="cls-10" x1="1059.75" y1="414.77" x2="1068.78" y2="421.71"/>
    <line class="cls-10" x1="1066.17" y1="414.97" x2="1073.72" y2="421.85"/>
    <line class="cls-10" x1="1072.7" y1="415.26" x2="1079.78" y2="421.83"/>
    <line class="cls-10" x1="1078.72" y1="415.36" x2="1085.1" y2="421.56"/>
    <polyline class="cls-10" points="1092.79 415.96 1098.44 422.53 1101.88 419.37"/>
    <line class="cls-10" x1="1097.73" y1="415.94" x2="1101.45" y2="420.68"/>
    <line class="cls-10" x1="1044.08" y1="428.04" x2="1101.65" y2="429.23"/>
    <path class="cls-10" d="M1044.76,427.77s-.51-3.24.13-4.21,1.85-2.01,1.85-2.01c0,0,2.1,1.32,2.08,2.9s-.28,3.68-.28,3.68"/>
    <path class="cls-10" d="M1049.55,427.92s-.47-3.24.13-4.21,1.71-2.02,1.71-2.02c0,0,1.95,1.31,1.92,2.9-.02,1.58-.27,3.68-.27,3.68"/>
    <path class="cls-10" d="M1054.12,428.06s-.51-3.24.13-4.21,1.85-2.01,1.85-2.01c0,0,2.1,1.32,2.08,2.9-.02,1.58-.28,3.68-.28,3.68"/>
    <path class="cls-10" d="M1058.82,428.39s-.51-3.24.13-4.21,1.85-2.01,1.85-2.01c0,0,2.1,1.32,2.08,2.9s-.28,3.68-.28,3.68"/>
    <path class="cls-10" d="M1063.31,428.34s-.51-3.24.13-4.21,1.85-2.01,1.85-2.01c0,0,2.1,1.32,2.08,2.9s-.28,3.68-.28,3.68"/>
    <path class="cls-10" d="M1067.79,428.48s-.51-3.24.13-4.21,1.85-2.01,1.85-2.01c0,0,2.1,1.32,2.08,2.9s-.28,3.68-.28,3.68"/>
    <path class="cls-10" d="M1072.57,428.31s-.51-3.24.13-4.21,1.85-2.01,1.85-2.01c0,0,2.1,1.32,2.08,2.9s-.28,3.68-.28,3.68"/>
    <path class="cls-10" d="M1077.02,428.45s-.51-3.24.13-4.21,1.85-2.01,1.85-2.01c0,0,2.1,1.32,2.08,2.9s-.28,3.68-.28,3.68"/>
    <path class="cls-10" d="M1081.83,428.6s-.45-3.24.13-4.21,1.66-2.02,1.66-2.02c0,0,1.88,1.31,1.86,2.89s-.26,3.68-.26,3.68"/>
    <path class="cls-10" d="M1085.62,428.72s-.45-3.24.13-4.21,1.67-2.02,1.67-2.02c0,0,1.9,1.31,1.87,2.89s-.27,3.68-.27,3.68"/>
    <path class="cls-10" d="M1090.02,428.85s-.46-3.24.13-4.21,1.69-2.02,1.69-2.02c0,0,1.91,1.31,1.89,2.89s-.27,3.68-.27,3.68"/>
    <path class="cls-10" d="M1094.47,428.99s-.38-3.24.13-4.21,1.47-2.02,1.47-2.02c0,0,1.66,1.3,1.63,2.89s-.25,3.68-.25,3.68"/>
    <path class="cls-10" d="M1097.82,429.09s-.39-3.24.13-4.21,1.5-2.02,1.5-2.02c0,0,1.69,1.31,1.66,2.89-.03,1.58-.25,3.68-.25,3.68"/>
    <polyline class="cls-1" points="1039.04 427.38 1038.88 432.62 1105.66 434.68 1105.82 429.44"/>
    <polygon class="cls-1" points="1196.81 373.06 1186.73 372.75 1187.73 340.29 1258.54 343.57 1257.54 375.94 1246.75 375.61 1246.99 355.85 1198.81 353.56 1196.81 373.06"/>
    <polygon class="cls-10" points="1202.05 357.48 1199.81 430.32 1243.64 431.67 1244.09 358.77 1202.05 357.48"/>
    <rect class="cls-11" x="1204.21" y="361.65" width="15.71" height="14.81" transform="translate(805.86 1569.19) rotate(-88.24)"/>
    <polygon class="cls-11" points="1224.18 376.89 1224.66 361.19 1239.91 361.66 1239.44 376.96 1224.18 376.89"/>
    <rect class="cls-11" x="1197.09" y="388.86" width="28.4" height="14.68" transform="translate(777.98 1594.72) rotate(-88.24)"/>
    <polygon class="cls-11" points="1224.01 382.28 1239.18 382.74 1239.24 410.6 1223.59 410.37 1224.01 382.28"/>
    <rect class="cls-9" x="1203.58" y="414.59" width="13.79" height="14.73" transform="translate(751.45 1618.87) rotate(-88.24)"/>
    <rect class="cls-9" x="1224.48" y="414" width="13.79" height="17.21" transform="translate(771.06 1640.38) rotate(-88.24)"/>
    <polygon class="cls-10" points="1189.18 419.52 1252.66 421.48 1252.63 422.62 1249.8 422.54 1249.54 435.69 1253.16 435.8 1253.11 437.52 1188.69 435.53 1188.72 434.42 1191.97 434.51 1192.41 420.99 1189.14 420.94 1189.18 419.52"/>
    <line class="cls-10" x1="1192.77" y1="420.95" x2="1249.8" y2="422.54"/>
    <line class="cls-10" x1="1192.19" y1="427.63" x2="1249.67" y2="428.98"/>
    <polyline class="cls-10" points="1197.15 421.07 1192.32 423.7 1198.55 427.4 1208.67 421.43"/>
    <line class="cls-10" x1="1192.6" y1="426.42" x2="1203.13" y2="421.26"/>
    <line class="cls-10" x1="1212.88" y1="428.26" x2="1221.13" y2="422.06"/>
    <line class="cls-10" x1="1221.09" y1="428.1" x2="1228.8" y2="422.05"/>
    <polyline class="cls-10" points="1226.41 428.26 1234.41 422.47 1239.79 428.79 1246.53 422.52"/>
    <line class="cls-10" x1="1232.97" y1="428.58" x2="1239.99" y2="422.39"/>
    <polyline class="cls-10" points="1194.44 420.92 1205.46 427.83 1214.9 421.86"/>
    <line class="cls-10" x1="1200.89" y1="421.12" x2="1211.93" y2="428.24"/>
    <line class="cls-10" x1="1207.64" y1="421.24" x2="1216.67" y2="428.17"/>
    <line class="cls-10" x1="1214.06" y1="421.44" x2="1221.61" y2="428.32"/>
    <line class="cls-10" x1="1220.59" y1="421.73" x2="1227.67" y2="428.3"/>
    <line class="cls-10" x1="1226.61" y1="421.82" x2="1232.99" y2="428.02"/>
    <polyline class="cls-10" points="1240.68 422.43 1246.33 429 1249.77 425.84"/>
    <line class="cls-10" x1="1245.62" y1="422.41" x2="1249.34" y2="427.15"/>
    <line class="cls-10" x1="1191.97" y1="434.51" x2="1249.54" y2="435.69"/>
    <path class="cls-10" d="M1192.65,434.23s-.51-3.24.13-4.21,1.85-2.01,1.85-2.01c0,0,2.1,1.32,2.08,2.9s-.28,3.68-.28,3.68"/>
    <path class="cls-10" d="M1197.44,434.38s-.47-3.24.13-4.21,1.71-2.02,1.71-2.02c0,0,1.95,1.31,1.92,2.9-.02,1.58-.27,3.68-.27,3.68"/>
    <path class="cls-10" d="M1202.01,434.52s-.51-3.24.13-4.21,1.85-2.01,1.85-2.01c0,0,2.1,1.32,2.08,2.9-.02,1.58-.28,3.68-.28,3.68"/>
    <path class="cls-10" d="M1206.71,434.86s-.51-3.24.13-4.21,1.85-2.01,1.85-2.01c0,0,2.1,1.32,2.08,2.9s-.28,3.68-.28,3.68"/>
    <path class="cls-10" d="M1211.2,434.8s-.51-3.24.13-4.21,1.85-2.01,1.85-2.01c0,0,2.1,1.32,2.08,2.9s-.28,3.68-.28,3.68"/>
    <path class="cls-10" d="M1215.68,434.94s-.51-3.24.13-4.21,1.85-2.01,1.85-2.01c0,0,2.1,1.32,2.08,2.9s-.28,3.68-.28,3.68"/>
    <path class="cls-10" d="M1220.46,434.78s-.51-3.24.13-4.21,1.85-2.01,1.85-2.01c0,0,2.1,1.32,2.08,2.9s-.28,3.68-.28,3.68"/>
    <path class="cls-10" d="M1224.91,434.92s-.51-3.24.13-4.21,1.85-2.01,1.85-2.01c0,0,2.1,1.32,2.08,2.9s-.28,3.68-.28,3.68"/>
    <path class="cls-10" d="M1229.72,435.07s-.45-3.24.13-4.21,1.66-2.02,1.66-2.02c0,0,1.88,1.31,1.86,2.89s-.26,3.68-.26,3.68"/>
    <path class="cls-10" d="M1233.51,435.18s-.45-3.24.13-4.21,1.67-2.02,1.67-2.02c0,0,1.9,1.31,1.87,2.89s-.27,3.68-.27,3.68"/>
    <path class="cls-10" d="M1237.91,435.32s-.46-3.24.13-4.21,1.69-2.02,1.69-2.02c0,0,1.91,1.31,1.89,2.89s-.27,3.68-.27,3.68"/>
    <path class="cls-10" d="M1242.36,435.45s-.38-3.24.13-4.21,1.47-2.02,1.47-2.02c0,0,1.66,1.3,1.63,2.89s-.25,3.68-.25,3.68"/>
    <path class="cls-10" d="M1245.71,435.56s-.39-3.24.13-4.21,1.5-2.02,1.5-2.02c0,0,1.69,1.31,1.66,2.89-.03,1.58-.25,3.68-.25,3.68"/>
    <polyline class="cls-1" points="1186.93 433.85 1186.77 439.08 1253.55 441.14 1253.71 435.91"/>
    <polygon class="cls-1" points="1353.69 378.09 1343.62 377.77 1344.62 345.31 1415.42 348.59 1414.42 380.96 1403.63 380.63 1403.87 360.87 1355.7 358.58 1353.69 378.09"/>
    <polygon class="cls-10" points="1358.94 362.5 1356.69 435.34 1400.52 436.69 1400.97 363.79 1358.94 362.5"/>
    <rect class="cls-11" x="1361.09" y="366.67" width="15.71" height="14.81" transform="translate(952.9 1730.86) rotate(-88.24)"/>
    <polygon class="cls-11" points="1381.06 381.91 1381.55 366.21 1396.79 366.68 1396.32 381.98 1381.06 381.91"/>
    <rect class="cls-11" x="1353.98" y="393.88" width="28.4" height="14.68" transform="translate(925.02 1756.4) rotate(-88.24)"/>
    <polygon class="cls-11" points="1380.89 387.3 1396.06 387.76 1396.12 415.62 1380.47 415.39 1380.89 387.3"/>
    <rect class="cls-9" x="1360.46" y="419.61" width="13.79" height="14.73" transform="translate(898.49 1780.55) rotate(-88.24)"/>
    <rect class="cls-9" x="1381.36" y="419.02" width="13.79" height="17.21" transform="translate(918.1 1802.06) rotate(-88.24)"/>
    <polygon class="cls-10" points="1346.07 424.54 1409.55 426.5 1409.51 427.64 1406.68 427.56 1406.42 440.71 1410.05 440.82 1409.99 442.54 1345.57 440.55 1345.61 439.44 1348.86 439.53 1349.29 426.01 1346.02 425.96 1346.07 424.54"/>
    <line class="cls-10" x1="1349.65" y1="425.97" x2="1406.68" y2="427.56"/>
    <line class="cls-10" x1="1349.08" y1="432.65" x2="1406.56" y2="434"/>
    <polyline class="cls-10" points="1354.03 426.09 1349.2 428.72 1355.43 432.42 1365.55 426.45"/>
    <line class="cls-10" x1="1349.48" y1="431.44" x2="1360.01" y2="426.28"/>
    <line class="cls-10" x1="1369.76" y1="433.28" x2="1378.01" y2="427.08"/>
    <line class="cls-10" x1="1377.97" y1="433.12" x2="1385.68" y2="427.07"/>
    <polyline class="cls-10" points="1383.29 433.28 1391.3 427.49 1396.67 433.81 1403.42 427.54"/>
    <line class="cls-10" x1="1389.85" y1="433.6" x2="1396.87" y2="427.41"/>
    <polyline class="cls-10" points="1351.32 425.94 1362.35 432.85 1371.79 426.88"/>
    <line class="cls-10" x1="1357.77" y1="426.14" x2="1368.81" y2="433.26"/>
    <line class="cls-10" x1="1364.52" y1="426.26" x2="1373.55" y2="433.19"/>
    <line class="cls-10" x1="1370.95" y1="426.46" x2="1378.49" y2="433.34"/>
    <line class="cls-10" x1="1377.47" y1="426.75" x2="1384.55" y2="433.32"/>
    <line class="cls-10" x1="1383.49" y1="426.84" x2="1389.87" y2="433.04"/>
    <polyline class="cls-10" points="1397.56 427.45 1403.22 434.02 1406.65 430.86"/>
    <line class="cls-10" x1="1402.5" y1="427.43" x2="1406.23" y2="432.17"/>
    <line class="cls-10" x1="1348.86" y1="439.53" x2="1406.42" y2="440.71"/>
    <path class="cls-10" d="M1349.54,439.25s-.51-3.24.13-4.21,1.85-2.01,1.85-2.01c0,0,2.1,1.32,2.08,2.9s-.28,3.68-.28,3.68"/>
    <path class="cls-10" d="M1354.33,439.4s-.47-3.24.13-4.21,1.71-2.02,1.71-2.02c0,0,1.95,1.31,1.92,2.9-.02,1.58-.27,3.68-.27,3.68"/>
    <path class="cls-10" d="M1358.9,439.54s-.51-3.24.13-4.21,1.85-2.01,1.85-2.01c0,0,2.1,1.32,2.08,2.9-.02,1.58-.28,3.68-.28,3.68"/>
    <path class="cls-10" d="M1363.59,439.88s-.51-3.24.13-4.21,1.85-2.01,1.85-2.01c0,0,2.1,1.32,2.08,2.9s-.28,3.68-.28,3.68"/>
    <path class="cls-10" d="M1368.09,439.82s-.51-3.24.13-4.21,1.85-2.01,1.85-2.01c0,0,2.1,1.32,2.08,2.9s-.28,3.68-.28,3.68"/>
    <path class="cls-10" d="M1372.57,439.96s-.51-3.24.13-4.21,1.85-2.01,1.85-2.01c0,0,2.1,1.32,2.08,2.9s-.28,3.68-.28,3.68"/>
    <path class="cls-10" d="M1377.34,439.8s-.51-3.24.13-4.21,1.85-2.01,1.85-2.01c0,0,2.1,1.32,2.08,2.9s-.28,3.68-.28,3.68"/>
    <path class="cls-10" d="M1381.8,439.94s-.51-3.24.13-4.21,1.85-2.01,1.85-2.01c0,0,2.1,1.32,2.08,2.9s-.28,3.68-.28,3.68"/>
    <path class="cls-10" d="M1386.61,440.09s-.45-3.24.13-4.21,1.66-2.02,1.66-2.02c0,0,1.88,1.31,1.86,2.89s-.26,3.68-.26,3.68"/>
    <path class="cls-10" d="M1390.4,440.2s-.45-3.24.13-4.21,1.67-2.02,1.67-2.02c0,0,1.9,1.31,1.87,2.89s-.27,3.68-.27,3.68"/>
    <path class="cls-10" d="M1394.79,440.34s-.46-3.24.13-4.21,1.69-2.02,1.69-2.02c0,0,1.91,1.31,1.89,2.89s-.27,3.68-.27,3.68"/>
    <path class="cls-10" d="M1399.25,440.47s-.38-3.24.13-4.21,1.47-2.02,1.47-2.02c0,0,1.66,1.3,1.63,2.89s-.25,3.68-.25,3.68"/>
    <path class="cls-10" d="M1402.6,440.58s-.39-3.24.13-4.21,1.5-2.02,1.5-2.02c0,0,1.69,1.31,1.66,2.89-.03,1.58-.25,3.68-.25,3.68"/>
    <polyline class="cls-1" points="1343.81 438.87 1343.65 444.1 1410.43 446.16 1410.59 440.93"/>
    <polygon class="cls-1" points="1199.31 512.37 1189.23 512.06 1190.23 479.59 1261.04 482.87 1260.04 515.24 1249.25 514.91 1249.49 495.16 1201.31 492.87 1199.31 512.37"/>
    <polygon class="cls-10" points="1204.56 496.78 1202.31 569.62 1246.14 570.97 1246.59 498.08 1204.56 496.78"/>
    <rect class="cls-11" x="1206.71" y="500.96" width="15.71" height="14.81" transform="translate(669.05 1706.7) rotate(-88.24)"/>
    <polygon class="cls-11" points="1226.68 516.2 1227.16 500.49 1242.41 500.96 1241.94 516.27 1226.68 516.2"/>
    <rect class="cls-11" x="1199.59" y="528.17" width="28.4" height="14.68" transform="translate(641.17 1732.24) rotate(-88.24)"/>
    <polygon class="cls-11" points="1226.51 521.58 1241.68 522.05 1241.74 549.91 1226.09 549.68 1226.51 521.58"/>
    <rect class="cls-9" x="1206.08" y="553.9" width="13.79" height="14.73" transform="translate(614.64 1756.39) rotate(-88.24)"/>
    <rect class="cls-9" x="1226.98" y="553.3" width="13.79" height="17.21" transform="translate(634.25 1777.9) rotate(-88.24)"/>
    <polygon class="cls-10" points="1191.68 558.83 1255.16 560.78 1255.13 561.93 1252.3 561.84 1252.04 575 1255.66 575.11 1255.61 576.82 1191.19 574.84 1191.22 573.72 1194.47 573.81 1194.91 560.29 1191.64 560.24 1191.68 558.83"/>
    <line class="cls-10" x1="1195.27" y1="560.26" x2="1252.3" y2="561.84"/>
    <line class="cls-10" x1="1194.69" y1="566.93" x2="1252.17" y2="568.28"/>
    <polyline class="cls-10" points="1199.65 560.38 1194.82 563 1201.05 566.71 1211.17 560.73"/>
    <line class="cls-10" x1="1195.1" y1="565.72" x2="1205.63" y2="560.56"/>
    <line class="cls-10" x1="1215.38" y1="567.57" x2="1223.63" y2="561.36"/>
    <line class="cls-10" x1="1223.59" y1="567.4" x2="1231.3" y2="561.35"/>
    <polyline class="cls-10" points="1228.91 567.56 1236.92 561.77 1242.29 568.1 1249.03 561.83"/>
    <line class="cls-10" x1="1235.47" y1="567.89" x2="1242.49" y2="561.7"/>
    <polyline class="cls-10" points="1196.94 560.22 1207.96 567.13 1217.4 561.17"/>
    <line class="cls-10" x1="1203.39" y1="560.42" x2="1214.43" y2="567.54"/>
    <line class="cls-10" x1="1210.14" y1="560.54" x2="1219.17" y2="567.48"/>
    <line class="cls-10" x1="1216.56" y1="560.74" x2="1224.11" y2="567.62"/>
    <line class="cls-10" x1="1223.09" y1="561.03" x2="1230.17" y2="567.6"/>
    <line class="cls-10" x1="1229.11" y1="561.13" x2="1235.49" y2="567.32"/>
    <polyline class="cls-10" points="1243.18 561.73 1248.83 568.3 1252.27 565.14"/>
    <line class="cls-10" x1="1248.12" y1="561.71" x2="1251.84" y2="566.45"/>
    <line class="cls-10" x1="1194.47" y1="573.81" x2="1252.04" y2="575"/>
    <path class="cls-10" d="M1195.16,573.54s-.51-3.24.13-4.21,1.85-2.01,1.85-2.01c0,0,2.1,1.32,2.08,2.9s-.28,3.68-.28,3.68"/>
    <path class="cls-10" d="M1199.94,573.69s-.47-3.24.13-4.21,1.71-2.02,1.71-2.02c0,0,1.95,1.31,1.92,2.9-.02,1.58-.27,3.68-.27,3.68"/>
    <path class="cls-10" d="M1204.52,573.83s-.51-3.24.13-4.21,1.85-2.01,1.85-2.01c0,0,2.1,1.32,2.08,2.9-.02,1.58-.28,3.68-.28,3.68"/>
    <path class="cls-10" d="M1209.21,574.16s-.51-3.24.13-4.21,1.85-2.01,1.85-2.01c0,0,2.1,1.32,2.08,2.9s-.28,3.68-.28,3.68"/>
    <path class="cls-10" d="M1213.7,574.11s-.51-3.24.13-4.21,1.85-2.01,1.85-2.01c0,0,2.1,1.32,2.08,2.9s-.28,3.68-.28,3.68"/>
    <path class="cls-10" d="M1218.18,574.25s-.51-3.24.13-4.21,1.85-2.01,1.85-2.01c0,0,2.1,1.32,2.08,2.9s-.28,3.68-.28,3.68"/>
    <path class="cls-10" d="M1222.96,574.08s-.51-3.24.13-4.21,1.85-2.01,1.85-2.01c0,0,2.1,1.32,2.08,2.9s-.28,3.68-.28,3.68"/>
    <path class="cls-10" d="M1227.41,574.22s-.51-3.24.13-4.21,1.85-2.01,1.85-2.01c0,0,2.1,1.32,2.08,2.9s-.28,3.68-.28,3.68"/>
    <path class="cls-10" d="M1232.22,574.37s-.45-3.24.13-4.21,1.66-2.02,1.66-2.02c0,0,1.88,1.31,1.86,2.89s-.26,3.68-.26,3.68"/>
    <path class="cls-10" d="M1236.01,574.49s-.45-3.24.13-4.21c.58-.97,1.67-2.02,1.67-2.02,0,0,1.9,1.31,1.87,2.89s-.27,3.68-.27,3.68"/>
    <path class="cls-10" d="M1240.41,574.62s-.46-3.24.13-4.21,1.69-2.02,1.69-2.02c0,0,1.91,1.31,1.89,2.89s-.27,3.68-.27,3.68"/>
    <path class="cls-10" d="M1244.87,574.76s-.38-3.24.13-4.21,1.47-2.02,1.47-2.02c0,0,1.66,1.3,1.63,2.89s-.25,3.68-.25,3.68"/>
    <path class="cls-10" d="M1248.21,574.86s-.39-3.24.13-4.21,1.5-2.02,1.5-2.02c0,0,1.69,1.31,1.66,2.89-.03,1.58-.25,3.68-.25,3.68"/>
    <polyline class="cls-1" points="1189.43 573.15 1189.27 578.39 1256.05 580.45 1256.21 575.21"/>
    <polygon class="cls-1" points="1047.21 508.46 1037.14 508.15 1038.14 475.68 1108.94 478.96 1107.95 511.33 1097.15 511 1097.4 491.25 1049.22 488.96 1047.21 508.46"/>
    <polygon class="cls-10" points="1052.46 492.87 1050.22 565.71 1094.05 567.06 1094.5 494.17 1052.46 492.87"/>
    <rect class="cls-11" x="1054.61" y="497.05" width="15.71" height="14.81" transform="translate(525.54 1550.89) rotate(-88.24)"/>
    <polygon class="cls-11" points="1074.58 512.29 1075.07 496.58 1090.31 497.05 1089.84 512.36 1074.58 512.29"/>
    <rect class="cls-11" x="1047.5" y="524.26" width="28.4" height="14.68" transform="translate(497.67 1576.43) rotate(-88.24)"/>
    <polygon class="cls-11" points="1074.41 517.67 1089.59 518.14 1089.64 546 1073.99 545.77 1074.41 517.67"/>
    <rect class="cls-9" x="1053.99" y="549.99" width="13.79" height="14.73" transform="translate(471.13 1600.58) rotate(-88.24)"/>
    <rect class="cls-9" x="1074.88" y="549.39" width="13.79" height="17.21" transform="translate(490.74 1622.09) rotate(-88.24)"/>
    <polygon class="cls-10" points="1039.59 554.92 1103.07 556.87 1103.03 558.02 1100.21 557.93 1099.95 571.09 1103.57 571.2 1103.52 572.91 1039.09 570.93 1039.13 569.81 1042.38 569.9 1042.81 556.38 1039.54 556.33 1039.59 554.92"/>
    <line class="cls-10" x1="1043.17" y1="556.35" x2="1100.21" y2="557.93"/>
    <line class="cls-10" x1="1042.6" y1="563.02" x2="1100.08" y2="564.37"/>
    <polyline class="cls-10" points="1047.56 556.47 1042.73 559.09 1048.95 562.8 1059.08 556.82"/>
    <line class="cls-10" x1="1043.01" y1="561.81" x2="1053.54" y2="556.65"/>
    <line class="cls-10" x1="1063.28" y1="563.66" x2="1071.53" y2="557.45"/>
    <line class="cls-10" x1="1071.49" y1="563.49" x2="1079.21" y2="557.44"/>
    <polyline class="cls-10" points="1076.82 563.66 1084.82 557.86 1090.2 564.19 1096.94 557.92"/>
    <line class="cls-10" x1="1083.38" y1="563.98" x2="1090.39" y2="557.79"/>
    <polyline class="cls-10" points="1044.85 556.31 1055.87 563.22 1065.31 557.26"/>
    <line class="cls-10" x1="1051.3" y1="556.51" x2="1062.34" y2="563.63"/>
    <line class="cls-10" x1="1058.04" y1="556.63" x2="1067.07" y2="563.57"/>
    <line class="cls-10" x1="1064.47" y1="556.83" x2="1072.01" y2="563.71"/>
    <line class="cls-10" x1="1071" y1="557.12" x2="1078.07" y2="563.69"/>
    <line class="cls-10" x1="1077.01" y1="557.22" x2="1083.4" y2="563.42"/>
    <polyline class="cls-10" points="1091.08 557.82 1096.74 564.39 1100.18 561.23"/>
    <line class="cls-10" x1="1096.03" y1="557.8" x2="1099.75" y2="562.54"/>
    <line class="cls-10" x1="1042.38" y1="569.9" x2="1099.95" y2="571.09"/>
    <path class="cls-10" d="M1043.06,569.63s-.51-3.24.13-4.21,1.85-2.01,1.85-2.01c0,0,2.1,1.32,2.08,2.9s-.28,3.68-.28,3.68"/>
    <path class="cls-10" d="M1047.85,569.78s-.47-3.24.13-4.21,1.71-2.02,1.71-2.02c0,0,1.95,1.31,1.92,2.9-.02,1.58-.27,3.68-.27,3.68"/>
    <path class="cls-10" d="M1052.42,569.92s-.51-3.24.13-4.21c.64-.97,1.85-2.01,1.85-2.01,0,0,2.1,1.32,2.08,2.9-.02,1.58-.28,3.68-.28,3.68"/>
    <path class="cls-10" d="M1057.11,570.25s-.51-3.24.13-4.21,1.85-2.01,1.85-2.01c0,0,2.1,1.32,2.08,2.9s-.28,3.68-.28,3.68"/>
    <path class="cls-10" d="M1061.61,570.2s-.51-3.24.13-4.21,1.85-2.01,1.85-2.01c0,0,2.1,1.32,2.08,2.9s-.28,3.68-.28,3.68"/>
    <path class="cls-10" d="M1066.09,570.34s-.51-3.24.13-4.21,1.85-2.01,1.85-2.01c0,0,2.1,1.32,2.08,2.9s-.28,3.68-.28,3.68"/>
    <path class="cls-10" d="M1070.87,570.17s-.51-3.24.13-4.21,1.85-2.01,1.85-2.01c0,0,2.1,1.32,2.08,2.9s-.28,3.68-.28,3.68"/>
    <path class="cls-10" d="M1075.32,570.31s-.51-3.24.13-4.21,1.85-2.01,1.85-2.01c0,0,2.1,1.32,2.08,2.9s-.28,3.68-.28,3.68"/>
    <path class="cls-10" d="M1080.13,570.46s-.45-3.24.13-4.21,1.66-2.02,1.66-2.02c0,0,1.88,1.31,1.86,2.89s-.26,3.68-.26,3.68"/>
    <path class="cls-10" d="M1083.92,570.58s-.45-3.24.13-4.21c.58-.97,1.67-2.02,1.67-2.02,0,0,1.9,1.31,1.87,2.89s-.27,3.68-.27,3.68"/>
    <path class="cls-10" d="M1088.32,570.71s-.46-3.24.13-4.21,1.69-2.02,1.69-2.02c0,0,1.91,1.31,1.89,2.89s-.27,3.68-.27,3.68"/>
    <path class="cls-10" d="M1092.77,570.85s-.38-3.24.13-4.21,1.47-2.02,1.47-2.02c0,0,1.66,1.3,1.63,2.89s-.25,3.68-.25,3.68"/>
    <path class="cls-10" d="M1096.12,570.95s-.39-3.24.13-4.21,1.5-2.02,1.5-2.02c0,0,1.69,1.31,1.66,2.89-.03,1.58-.25,3.68-.25,3.68"/>
    <polyline class="cls-1" points="1037.34 569.24 1037.18 574.48 1103.95 576.54 1104.12 571.3"/>
    <polygon class="cls-1" points="1356.19 517.39 1346.12 517.08 1347.12 484.61 1417.92 487.89 1416.93 520.26 1406.13 519.93 1406.38 500.18 1358.2 497.89 1356.19 517.39"/>
    <polygon class="cls-10" points="1361.44 501.8 1359.2 574.64 1403.02 575.99 1403.48 503.1 1361.44 501.8"/>
    <rect class="cls-11" x="1363.59" y="505.98" width="15.71" height="14.81" transform="translate(816.08 1868.38) rotate(-88.24)"/>
    <polygon class="cls-11" points="1383.56 521.22 1384.05 505.51 1399.29 505.98 1398.82 521.29 1383.56 521.22"/>
    <rect class="cls-11" x="1356.48" y="533.19" width="28.4" height="14.68" transform="translate(788.21 1893.91) rotate(-88.24)"/>
    <polygon class="cls-11" points="1383.39 526.6 1398.57 527.07 1398.62 554.93 1382.97 554.7 1383.39 526.6"/>
    <rect class="cls-9" x="1362.96" y="558.92" width="13.79" height="14.73" transform="translate(761.67 1918.06) rotate(-88.24)"/>
    <rect class="cls-9" x="1383.86" y="558.32" width="13.79" height="17.21" transform="translate(781.28 1939.57) rotate(-88.24)"/>
    <polygon class="cls-10" points="1348.57 563.85 1412.05 565.8 1412.01 566.95 1409.18 566.86 1408.92 580.02 1412.55 580.13 1412.5 581.84 1348.07 579.86 1348.11 578.74 1351.36 578.83 1351.79 565.31 1348.52 565.26 1348.57 563.85"/>
    <line class="cls-10" x1="1352.15" y1="565.28" x2="1409.18" y2="566.86"/>
    <line class="cls-10" x1="1351.58" y1="571.95" x2="1409.06" y2="573.3"/>
    <polyline class="cls-10" points="1356.54 565.4 1351.7 568.02 1357.93 571.73 1368.05 565.75"/>
    <line class="cls-10" x1="1351.98" y1="570.74" x2="1362.51" y2="565.58"/>
    <line class="cls-10" x1="1372.26" y1="572.59" x2="1380.51" y2="566.38"/>
    <line class="cls-10" x1="1380.47" y1="572.42" x2="1388.18" y2="566.37"/>
    <polyline class="cls-10" points="1385.79 572.58 1393.8 566.79 1399.18 573.12 1405.92 566.85"/>
    <line class="cls-10" x1="1392.36" y1="572.91" x2="1399.37" y2="566.72"/>
    <polyline class="cls-10" points="1353.82 565.24 1364.85 572.15 1374.29 566.19"/>
    <line class="cls-10" x1="1360.27" y1="565.44" x2="1371.32" y2="572.56"/>
    <line class="cls-10" x1="1367.02" y1="565.56" x2="1376.05" y2="572.5"/>
    <line class="cls-10" x1="1373.45" y1="565.76" x2="1380.99" y2="572.64"/>
    <line class="cls-10" x1="1379.97" y1="566.05" x2="1387.05" y2="572.62"/>
    <line class="cls-10" x1="1385.99" y1="566.15" x2="1392.37" y2="572.34"/>
    <polyline class="cls-10" points="1400.06 566.75 1405.72 573.32 1409.15 570.16"/>
    <line class="cls-10" x1="1351.36" y1="578.83" x2="1408.92" y2="580.02"/>
    <path class="cls-10" d="M1352.04,578.56s-.51-3.24.13-4.21,1.85-2.01,1.85-2.01c0,0,2.1,1.32,2.08,2.9s-.28,3.68-.28,3.68"/>
    <path class="cls-10" d="M1356.83,578.71s-.47-3.24.13-4.21,1.71-2.02,1.71-2.02c0,0,1.95,1.31,1.92,2.9-.02,1.58-.27,3.68-.27,3.68"/>
    <path class="cls-10" d="M1361.4,578.85s-.51-3.24.13-4.21,1.85-2.01,1.85-2.01c0,0,2.1,1.32,2.08,2.9s-.28,3.68-.28,3.68"/>
    <path class="cls-10" d="M1366.09,579.18s-.51-3.24.13-4.21,1.85-2.01,1.85-2.01c0,0,2.1,1.32,2.08,2.9s-.28,3.68-.28,3.68"/>
    <path class="cls-10" d="M1370.59,579.13s-.51-3.24.13-4.21,1.85-2.01,1.85-2.01c0,0,2.1,1.32,2.08,2.9s-.28,3.68-.28,3.68"/>
    <path class="cls-10" d="M1375.07,579.27s-.51-3.24.13-4.21,1.85-2.01,1.85-2.01c0,0,2.1,1.32,2.08,2.9s-.28,3.68-.28,3.68"/>
    <path class="cls-10" d="M1379.84,579.1s-.51-3.24.13-4.21c.64-.97,1.85-2.01,1.85-2.01,0,0,2.1,1.32,2.08,2.9s-.28,3.68-.28,3.68"/>
    <path class="cls-10" d="M1384.3,579.24s-.51-3.24.13-4.21,1.85-2.01,1.85-2.01c0,0,2.1,1.32,2.08,2.9s-.28,3.68-.28,3.68"/>
    <path class="cls-10" d="M1389.11,579.39s-.45-3.24.13-4.21,1.66-2.02,1.66-2.02c0,0,1.88,1.31,1.86,2.89s-.26,3.68-.26,3.68"/>
    <path class="cls-10" d="M1392.9,579.51s-.45-3.24.13-4.21c.58-.97,1.67-2.02,1.67-2.02,0,0,1.9,1.31,1.87,2.89s-.27,3.68-.27,3.68"/>
    <path class="cls-10" d="M1397.3,579.64s-.46-3.24.13-4.21,1.69-2.02,1.69-2.02c0,0,1.91,1.31,1.89,2.89s-.27,3.68-.27,3.68"/>
    <path class="cls-10" d="M1401.75,579.78s-.38-3.24.13-4.21,1.47-2.02,1.47-2.02c0,0,1.66,1.3,1.63,2.89s-.25,3.68-.25,3.68"/>
    <polyline class="cls-1" points="1346.32 578.17 1346.15 583.41 1412.93 585.47 1413.09 580.23"/>
    <polygon class="cls-10" points="808.58 551.04 872.06 553 872.03 554.14 869.2 554.05 868.94 567.21 872.56 567.32 872.51 569.03 808.09 567.05 808.12 565.93 811.37 566.02 811.81 552.51 808.54 552.45 808.58 551.04"/>
    <line class="cls-10" x1="812.17" y1="552.47" x2="869.2" y2="554.05"/>
    <line class="cls-10" x1="811.59" y1="559.14" x2="869.07" y2="560.49"/>
    <polyline class="cls-10" points="816.55 552.59 811.72 555.21 817.94 558.92 828.07 552.95"/>
    <line class="cls-10" x1="812" y1="557.93" x2="822.53" y2="552.78"/>
    <line class="cls-10" x1="832.27" y1="559.78" x2="840.52" y2="553.57"/>
    <line class="cls-10" x1="840.49" y1="559.61" x2="848.2" y2="553.57"/>
    <polyline class="cls-10" points="845.81 559.78 853.81 553.98 859.19 560.31 865.93 554.04"/>
    <line class="cls-10" x1="852.37" y1="560.1" x2="859.39" y2="553.91"/>
    <polyline class="cls-10" points="813.84 552.43 824.86 559.34 834.3 553.38"/>
    <line class="cls-10" x1="820.29" y1="552.63" x2="831.33" y2="559.75"/>
    <line class="cls-10" x1="827.04" y1="552.76" x2="836.07" y2="559.69"/>
    <line class="cls-10" x1="833.46" y1="552.95" x2="841" y2="559.84"/>
    <line class="cls-10" x1="839.99" y1="553.24" x2="847.07" y2="559.82"/>
    <line class="cls-10" x1="846.01" y1="553.34" x2="852.39" y2="559.54"/>
    <polyline class="cls-10" points="860.08 553.95 865.73 560.51 869.17 557.35"/>
    <line class="cls-10" x1="865.02" y1="553.93" x2="868.74" y2="558.67"/>
    <line class="cls-10" x1="811.37" y1="566.02" x2="868.94" y2="567.21"/>
    <path class="cls-10" d="M812.05,565.75s-.51-3.24.13-4.21,1.85-2.01,1.85-2.01c0,0,2.1,1.32,2.08,2.9s-.28,3.68-.28,3.68"/>
    <path class="cls-10" d="M816.84,565.9s-.47-3.24.13-4.21,1.71-2.02,1.71-2.02c0,0,1.95,1.31,1.92,2.9-.02,1.58-.27,3.68-.27,3.68"/>
    <path class="cls-10" d="M821.41,566.04s-.51-3.24.13-4.21c.64-.97,1.85-2.01,1.85-2.01,0,0,2.1,1.32,2.08,2.9-.02,1.58-.28,3.68-.28,3.68"/>
    <path class="cls-10" d="M826.11,566.37s-.51-3.24.13-4.21c.64-.97,1.85-2.01,1.85-2.01,0,0,2.1,1.32,2.08,2.9s-.28,3.68-.28,3.68"/>
    <path class="cls-10" d="M830.6,566.32s-.51-3.24.13-4.21,1.85-2.01,1.85-2.01c0,0,2.1,1.32,2.08,2.9s-.28,3.68-.28,3.68"/>
    <path class="cls-10" d="M835.08,566.46s-.51-3.24.13-4.21c.64-.97,1.85-2.01,1.85-2.01,0,0,2.1,1.32,2.08,2.9s-.28,3.68-.28,3.68"/>
    <path class="cls-10" d="M839.86,566.3s-.51-3.24.13-4.21,1.85-2.01,1.85-2.01c0,0,2.1,1.32,2.08,2.9s-.28,3.68-.28,3.68"/>
    <path class="cls-10" d="M844.31,566.43s-.51-3.24.13-4.21,1.85-2.01,1.85-2.01c0,0,2.1,1.32,2.08,2.9s-.28,3.68-.28,3.68"/>
    <path class="cls-10" d="M849.12,566.58s-.45-3.24.13-4.21,1.66-2.02,1.66-2.02c0,0,1.88,1.31,1.86,2.89s-.26,3.68-.26,3.68"/>
    <path class="cls-10" d="M852.91,566.7s-.45-3.24.13-4.21,1.67-2.02,1.67-2.02c0,0,1.9,1.31,1.87,2.89s-.27,3.68-.27,3.68"/>
    <path class="cls-10" d="M857.31,566.83s-.46-3.24.13-4.21,1.69-2.02,1.69-2.02c0,0,1.91,1.31,1.89,2.89s-.27,3.68-.27,3.68"/>
    <path class="cls-10" d="M861.76,566.97s-.38-3.24.13-4.21,1.47-2.02,1.47-2.02c0,0,1.66,1.3,1.63,2.89s-.25,3.68-.25,3.68"/>
    <path class="cls-10" d="M865.11,567.07s-.39-3.24.13-4.21,1.5-2.02,1.5-2.02c0,0,1.69,1.31,1.66,2.89-.03,1.58-.25,3.68-.25,3.68"/>
    <polyline class="cls-1" points="806.33 565.37 806.17 570.6 872.95 572.66 873.11 567.42"/>
    <polygon class="cls-3" points="1057.49 624.17 1379.68 634.1 1377.88 804.14 1053.13 785.01 1057.49 624.17"/>
    <polygon class="cls-10" points="1076.31 641.04 1169.75 645.95 1165.03 734.15 1073.62 728.42 1076.31 641.04"/>
    <polygon class="cls-10" points="1183.73 642.47 1268.2 646.01 1259.14 794.58 1173.98 791.95 1183.73 642.47"/>
    <polygon class="cls-10" points="1293.96 654.98 1358.03 658.08 1351.55 787.14 1290.03 782.41 1293.96 654.98"/>
    <polygon class="cls-11" points="1189.23 651.75 1217.09 652.61 1216.61 668.17 1189.61 667.34 1189.23 651.75"/>
    <polygon class="cls-11" points="1227.88 652.94 1227.4 668.5 1260.33 669.51 1260.77 655.27 1227.88 652.94"/>
    <rect class="cls-11" x="1162.32" y="697.65" width="78.02" height="27.87" transform="translate(453.1 1890.44) rotate(-88.24)"/>
    <polygon class="cls-11" points="1227.18 675.65 1257.09 676.57 1251.75 754.04 1224.85 751.33 1227.18 675.65"/>
    <polygon class="cls-10" points="498.26 622.67 570.88 624.4 568.48 702.35 495.88 700.11 498.26 622.67"/>
    <rect class="cls-9" x="504.19" y="626.86" width="10.85" height="9.65" transform="translate(-137.45 1121.61) rotate(-88.24)"/>
    <rect class="cls-9" x="517.33" y="628.64" width="10.57" height="6.6" transform="translate(-125.11 1134.85) rotate(-88.24)"/>
    <rect class="cls-9" x="527.76" y="628.33" width="10.59" height="7.88" transform="translate(-115.33 1145.61) rotate(-88.24)"/>
    <rect class="cls-9" x="540.93" y="628.69" width="10.49" height="6.76" transform="translate(-102.41 1158.53) rotate(-88.24)"/>
    <rect class="cls-9" x="551.33" y="628.72" width="10.58" height="6.81" transform="translate(-92.35 1169.02) rotate(-88.24)"/>
    <rect class="cls-9" x="489.79" y="655.48" width="38.19" height="9.95" transform="translate(-166.93 1148.76) rotate(-88.24)"/>
    <rect class="cls-9" x="501.4" y="685.63" width="13.08" height="9.92" transform="translate(-197.96 1177.03) rotate(-88.24)"/>
    <polygon class="cls-10" points="653.46 625.35 713.03 626.84 714.71 767.53 650.04 765.53 653.46 625.35"/>
    <rect class="cls-9" x="509.06" y="651.55" width="37.47" height="18.74" transform="translate(-149.06 1168.11) rotate(-88.24)"/>
    <rect class="cls-9" x="531.73" y="652.98" width="37.09" height="16.75" transform="translate(-127.71 1191.02) rotate(-88.24)"/>
    <polygon class="cls-9" points="516.97 684.32 523.45 684.52 523.4 697.47 516.57 697.26 516.97 684.32"/>
    <polygon class="cls-9" points="526.99 684.62 534.44 684.85 534.03 698.07 527.01 697.86 526.99 684.62"/>
    <polygon class="cls-9" points="540.83 685.17 546.52 685.35 546.44 698.16 540.44 697.98 540.83 685.17"/>
    <polygon class="cls-9" points="550.87 685.48 558.24 685.71 557.86 698.17 550.91 697.96 550.87 685.48"/>
    <rect class="cls-3" x="529.42" y="655.34" width="3.98" height="95.61" transform="translate(-187.76 1212.66) rotate(-88.24)"/>
    <rect class="cls-3" x="844.62" y="662.79" width="3.98" height="95.61" transform="translate(110.28 1534.93) rotate(-88.24)"/>
    <polygon class="cls-10" points="812.68 629.16 885.3 630.9 882.9 708.84 810.29 706.61 812.68 629.16"/>
    <rect class="cls-9" x="817.56" y="634.36" width="10.97" height="7.68" transform="translate(159.81 1441.21) rotate(-88.24)"/>
    <rect class="cls-9" x="831.77" y="635.11" width="10.67" height="6.76" transform="translate(173.15 1455.54) rotate(-88.24)"/>
    <rect class="cls-9" x="841.42" y="634.82" width="10.44" height="7.68" transform="translate(182.21 1465.24) rotate(-88.24)"/>
    <rect class="cls-9" x="855.17" y="634.79" width="11.18" height="7.07" transform="translate(196.24 1479.02) rotate(-88.24)"/>
    <rect class="cls-9" x="865.2" y="634.84" width="11.05" height="7.44" transform="translate(205.65 1489.22) rotate(-88.24)"/>
    <rect class="cls-9" x="801.56" y="663.52" width="40.71" height="7.21" transform="translate(129.81 1468.12) rotate(-88.24)"/>
    <rect class="cls-9" x="814.67" y="694.34" width="12.6" height="7.21" transform="translate(98.08 1497.04) rotate(-88.24)"/>
    <rect class="cls-9" x="820.44" y="660.42" width="41.48" height="16.75" transform="translate(146.8 1488.98) rotate(-88.24)"/>
    <rect class="cls-9" x="843.57" y="660.79" width="42.17" height="16.75" transform="translate(169.18 1512.81) rotate(-88.24)"/>
    <polygon class="cls-9" points="831.41 691.96 837.31 692.14 837.26 704.19 831.04 704 831.41 691.96"/>
    <polygon class="cls-9" points="840.45 692.24 848.82 692.5 848.46 704.47 840.56 704.22 840.45 692.24"/>
    <polygon class="cls-9" points="855.2 693.2 861.46 693.4 861.44 705.28 854.83 705.08 855.2 693.2"/>
    <polygon class="cls-9" points="864.25 693.08 872.63 693.33 872.25 705.62 864.35 705.37 864.25 693.08"/>
    <rect class="cls-9" x="661.86" y="624.89" width="11.15" height="19.78" transform="translate(12.41 1282.36) rotate(-88.24)"/>
    <polygon class="cls-9" points="688.48 628.96 709.83 629.5 709.46 641.65 688.11 641 688.48 628.96"/>
    <polygon class="cls-11" points="658.17 651.76 677.95 652.36 677.35 705.7 656.91 705.07 658.17 651.76"/>
    <polygon class="cls-11" points="686.6 652.84 708.77 653.21 709.88 706.7 687.02 706 686.6 652.84"/>
    <line class="cls-8" x1="661.32" y1="651.87" x2="660.59" y2="704.96"/>
    <line class="cls-8" x1="672.43" y1="652.09" x2="672.37" y2="705.55"/>
    <line class="cls-8" x1="692.41" y1="652.7" x2="693.02" y2="706.19"/>
    <line class="cls-8" x1="704.34" y1="653.07" x2="704.79" y2="706.55"/>
    <path class="cls-7" d="M667.81,658.35s-.1.8.58.83,1.14.13,1.51-.36.93-1.57.36-2.28-.81-.93-1.48-1.18-.84-.25-1.45-.04-1.3.38-1.55,1.18-.56,1.55-.35,2.6.53,1.78,1.73,2.25,2.61.64,3.18.56,1.57-.54,1.59-2.07.52-5.54-.18-5.94-1.75-1.92-4.41-1.84c-2.66.08-4.04,1.24-4.61,2.39s-.79,3.74-.59,4.98,1.5,3.85,2.14,4.39c.64.54,1.05.51,1.05.51l-1.11,40.97,4.72.15.83-43.52"/>
    <path class="cls-7" d="M698.73,659.31s.05.8-.63.8c-.68,0-1.15.06-1.48-.45s-.83-1.62-.22-2.29c.6-.67.86-.88,1.55-1.08s.85-.19,1.45.04,1.27.46,1.47,1.27.46,1.58.19,2.62-.64,1.74-1.87,2.14-2.64.47-3.21.36c-.57-.11-2.35-.89-2.8-2.35-.71-2.27.72-5.42,1.92-6.42.64-.54,1.84-1.12,4.49-.88s3.96,1.48,4.45,2.67.56,3.78.29,5.01-1.74,3.75-2.41,4.25c-.67.5-1.08.44-1.08.44l.45,41.01-4.24-.13-.49-43.56"/>
    <polygon class="cls-9" points="1081.74 645.79 1118.21 647.79 1117.77 661.97 1081.31 659.76 1081.74 645.79"/>
    <polygon class="cls-9" points="1123.17 648.1 1163.91 650.54 1163.52 663.37 1122.74 662.12 1123.17 648.1"/>
    <polygon class="cls-9" points="1081.08 666.95 1096.74 667.88 1096.33 681.21 1080.66 680.73 1081.08 666.95"/>
    <polygon class="cls-9" points="1100.9 668.19 1117.55 669.06 1117.14 682.39 1100.48 681.88 1100.9 668.19"/>
    <polygon class="cls-9" points="1080.53 684.9 1095.99 685.85 1095.56 700.03 1080.08 699.55 1080.53 684.9"/>
    <polygon class="cls-9" points="1100.35 685.9 1117.01 686.77 1116.59 700.3 1099.93 699.79 1100.35 685.9"/>
    <polygon class="cls-9" points="1079.95 703.66 1096.25 704.69 1095.77 720.2 1079.46 719.7 1079.95 703.66"/>
    <polygon class="cls-9" points="1099.77 704.9 1116.42 705.81 1115.96 720.82 1099.29 720.31 1099.77 704.9"/>
    <polygon class="cls-9" points="1124.67 668.92 1140.99 669.89 1140.57 683.62 1124.24 683.12 1124.67 668.92"/>
    <polygon class="cls-9" points="1144.61 670.17 1161.14 671.03 1160.72 684.64 1144.18 684.13 1144.61 670.17"/>
    <polygon class="cls-9" points="1124.13 686.63 1140.2 687.59 1139.77 701.35 1123.69 700.85 1124.13 686.63"/>
    <polygon class="cls-9" points="1143.94 687.87 1160.6 688.73 1160.2 701.6 1143.54 701.09 1143.94 687.87"/>
    <polygon class="cls-9" points="1123.54 705.63 1139.34 706.64 1138.87 722.15 1123.05 721.67 1123.54 705.63"/>
    <polygon class="cls-9" points="1143.36 706.87 1160.01 707.78 1159.55 722.79 1142.88 722.28 1143.36 706.87"/>
    <rect class="cls-3" x="642.05" y="725.08" width="47.92" height="20.83" transform="translate(-89.64 1378.55) rotate(-88.24)"/>
    <polygon class="cls-3" points="686.24 712.14 710.39 712.89 708.21 760.77 684.76 760.04 686.24 712.14"/>
    <polygon class="cls-11" points="1288.05 645.68 1364.37 649.64 1359.91 794.68 1283.6 790.03 1288.05 645.68"/>
    <rect class="cls-11" x="1183.04" y="758.33" width="32.61" height="28.11" transform="translate(390.39 1947.38) rotate(-88.24)"/>
    <polygon class="cls-11" points="1224.39 756.85 1250.6 759.37 1249.68 789.43 1223.41 788.62 1224.39 756.85"/>
    <line class="cls-10" x1="650.76" y1="713.26" x2="425.46" y2="706.32"/>
    <line class="cls-10" x1="716.32" y1="715.28" x2="1055.27" y2="722.52"/>
    <line class="cls-10" x1="1369.18" y1="735.38" x2="1471.96" y2="738.55"/>
    <polygon class="cls-10" points="404.28 234.09 439.42 253.04 1485.54 297.53 1534.17 268.89 404.28 234.09"/>
    <polygon class="cls-5" points="424.97 234.73 449.12 253.34 429.78 765.28 436.14 765.48 455.5 253.54 431.42 234.93 424.97 234.73"/>
    <path class="cls-2" d="M1029.64,300.7s2.1,11-.42,13.54-5.55,8.42-7.61,8.33-.25,2.86-2.2,4.46-.19,5.3-2.17,6.41c-1.98,1.11-2.8,3.24-4.36,5.58s-2.5,2.11-2.9,4.4-.15,2.48.08,4.19,1.32,2.84,1.8,3.31-.97,1.72-.82,2.68-1.49,2.14-.68,3.63,1.31,2.02,1.26,3,.34,4.06-.07,5.22-1.27,1.1-1.04,2.05.07,2.32.93,4.13c.86,1.81,1.08,3.15.1,3.95s-1.92,2.55-1.97,3.78c-.06,1.23-2.56,1.94-3.4,3.37s-.61,3.52,1.06,5.13c1.67,1.61,3.21,1.46,3.61,2.36s0,2.85.92,4.92.87,2.98.24,5.59c-.63,2.61.83,8.69-1.25,11.62-2.08,2.93-5.7,2.98-4.59,5.04,1.11,2.06,3.62,2.9,5.08,5.28s3.17,1.18,3.26,4.25-2.25,3.62-3.52,6.21c-1.27,2.59-4.38,5.57-3.81,8.06s.29,2.68-.7,3.17c-.99.49-3.13.28-5.14,1.8-2.01,1.52-3.31,4.04-3.16,5.33s.17,2.65-2.46,3.89c-2.63,1.24-6.95,3-10.83,5.08-3.88,2.08-4.97,4.71-7.54,4.06-2.58-.64-4.36-3.33-4.27-1.59s1.73,3.73-.08,5.38-4.01.33-3.98,3.29-14.73,12.52-11.51,17.26c3.21,4.74,1.78,16.09-1.54,14.26-3.31-1.83-7.15-6.36-9.86,2.4-2.71,8.76,1.04,1.82,1.32,5.42.28,3.6-.83,7.54-3.28,7.43-2.45-.12-.9-1.01-2.37,6.14-1.47,7.14,2.91,14.57-.23,14.42-3.15-.15-3.45,1.41-3.45,1.41,0,0,3.63.2,4.58-.66s1.4-1.95,1.09-3.88-1.76-5.43-1.44-7.93c.32-2.51.62-6.73,1.54-6.99s2.07-3.33,3.53-2.15c1.46,1.18,1,.25.89-1.67s-.46-3.15.33-4.93-.17-4.86-1.09-4.54c-.92.31-1.28-.71.02-2.67,1.3-1.95,1.19-3.78,2.79-3.5s3.18,2.68,5.08,3.17,3.25-.15,4.34-2.02.73-11.16.47-12.08-2.34-1.62-1.96-3.32,3.6-3.66,3.55-4.57,1.93-2.33,2.97-2.99l1.04-.66s.41-1.78,1.15-2.75c.74-.97,1.51-1.32,2.58-1.92,1.08-.6.31-2.38,1.44-3.02s4.67-1.82,4.47-3.88c-.2-2.05-2.1-4.09-.74-3.28,1.36.81,3.62,2.47,4.39,1.95s5.92-3.52,7.58-4.01c1.66-.49,3.63.3,5.26-.76,1.62-1.06.8-2.29,2.23-3.17,1.43-.88,3.49-.65,4.72-2.79s1.93-4.88,2.69-6.35,1.63-1.18,3.03-1.55c1.4-.37,2.3-.71,3.24.72s1.71,2.35,2.29,2.06.3-2.25-.31-2.78-1.74-.4-1.69-1.59.78-1.91,1.99-2.11,2.2-1.22,1.26-1.39-.83.21-.77-2.3c.06-2.51.29-2.06,1.1-2.02s1.82-1.3,1.29-2.08c-.53-.78-.83-1.11.68-2.42,1.51-1.31,3.46-4.62,3.05-6.02s-1.72-4.92-2.69-5.54-1.12-2.88-2.4-3.7-3.49.65-2.84-1.14c.65-1.79,3.04-1.81,3.37-3.36s2.95-9.04,2.24-10.15-.66-1.92-.6-3.36.06-6.54-.57-7.95.38-6.77-1.5-6.86c-1.88-.09-4.85.21-4.02-1.39.83-1.6,4.75-4.55,4.1-5.47-.65-.91,2.29-1.78,2.11-3.42s.24-3.83.55-5.01-1.36-.44-1.6.49-.54-1.85-.42-2.98,2.82-3.83,2.15-5.5-1.58-3.91-1.7-5.18,2.17-3.29,1.62-4.96c-.55-1.66-2.68-3.15-2.13-5.39s2.67-5.97,3.24-7.33,3.7-2.4,4.28-4.07.72-4.56.87-6.37c.15-1.82,1.39-2.7,3.61-4.42s4.78-2.6,5.45-2.19-2.07-1.36-1.38-2.64,2.44-.95,2.59-2.9,1.49-4.84,1.67-7.34.54-3.5.37-5.14-.59-3.39-.59-3.39l-2.9-.12Z"/>
    <path class="cls-3" d="M992.56,490.55s-3.04,2.92-.13,4.32-.41,1.97-1.5,5.99-2.66,3.19-3.98,7.95c-1.32,4.76-.2,6.62-.1,3.31s1.37-4.1,1.29-2.35-.75,4.34.87,4.64c1.63.3,2.11-.56,1.63,2.59-.48,3.15,1.21,3.56-1.22,4.54s-.64,2.15-3.5,3.66c-2.86,1.51-4.92,1.09-5.48,3.8-.57,2.71-.06,1.31-1.15,3.56s-.79,2.81-3.18,2.37-1.11.38-1.95,1.88-7.27,5.67-9.07,8.98c-1.8,3.31-4.09,7.69-3.54,9.9s-1.77.35-4.74,3.06c-2.97,2.7-7.39,5.56-4.54,4.38,2.85-1.18,5.26-3.36,7.2-2.73s2.34,1.42,2.94-1.94,1.86-6.92,3.83-9.12c1.97-2.2,4.73-5.25,5.84-6.62s8.39-4.96,8.85-7.68,0-4.71,1.92-5.82,6.28-.8,6.61-3.3c.34-2.5,4.69-4.26,3.93-6.71s1.07-4.11-1.16-5.53c-2.23-1.42-2.92-3.09-2.38-5.26s2.47-3.6,2.63-4.58,1.31-2.24,1.31-2.24l1.28-3.95.6-3.18-1.31-2.47s-1.05-.27.14-1.93,1.13-2.67-.29-2.43-1.64,2.91-1.64,2.91Z"/>
    <polygon class="cls-10" points="971.47 251.67 951.59 251.06 954.03 275.28 950.94 781.45 966.15 781.92 968.72 277.43 971.47 251.67"/>
    <polygon class="cls-4" points="404.28 234.09 487.65 122.08 948.74 134.06 1466.77 163.47 1534.17 268.89 404.28 234.09"/>
    <polygon class="cls-10" points="505.96 137.21 460.75 206.49 570.4 209.86 604.82 140.26 505.96 137.21"/>
    <polygon class="cls-10" points="1452.11 177.36 1487.53 232.8 1366.84 229.08 1346.4 174.11 1452.11 177.36"/>
    <polygon class="cls-10" points="727.9 144.05 693.67 213.66 815.05 217.4 819.79 146.88 727.9 144.05"/>
    <polygon class="cls-10" points="843.73 147.61 842.53 218.25 970.13 222.18 947.1 150.8 843.73 147.61"/>
    <polygon class="cls-10" points="1047.51 155.14 1033.61 224.13 1141.94 227.47 1125.79 157.55 1047.51 155.14"/>
    <polygon class="cls-10" points="1148.4 158.24 1166.35 228.22 1259.4 231.09 1230.88 164.1 1148.4 158.24"/>
    <polygon class="cls-6" points="505.96 137.21 510.85 190.49 578.51 193.47 604.82 140.26 505.96 137.21"/>
    <polygon class="cls-6" points="727.9 144.05 715.32 197.69 815.56 200.77 819.79 146.88 727.9 144.05"/>
    <polygon class="cls-6" points="947.1 150.8 948.42 204.87 843.04 201.62 843.73 147.61 947.1 150.8"/>
    <polygon class="cls-10" points="1047.51 155.14 1043.37 207.79 1125.55 210.32 1125.79 157.55 1047.51 155.14"/>
    <polyline class="cls-6" points="1047.51 155.14 1042.22 181.36 1039.54 210.97 1129.24 213.74 1128.86 170.83 1125.79 157.55"/>
    <polygon class="cls-6" points="1230.88 164.1 1234.91 213.69 1162.05 211.45 1148.4 158.24 1230.88 164.1"/>
    <polygon class="cls-6" points="1452.11 177.36 1446.15 213.07 1360.13 210.42 1346.4 174.11 1452.11 177.36"/>
  </g>
</svg>