<?xml version="1.0" encoding="UTF-8"?>
<svg id="Camp.fr" xmlns="http://www.w3.org/2000/svg" viewBox="0 0 1920 1080">
  <defs>
    <style>
      .cls-1, .cls-2, .cls-3, .cls-4, .cls-5 {
        fill: none;
      }

      .cls-6, .cls-7, .cls-8, .cls-9 {
        fill: #e7a7ba;
      }

      .cls-10, .cls-11, .cls-12 {
        fill: #78b1e1;
      }

      .cls-13 {
        fill: #fae8e9;
      }

      .cls-14 {
        stroke: #78b1e1;
      }

      .cls-14, .cls-15, .cls-7, .cls-2, .cls-3, .cls-8, .cls-11, .cls-9, .cls-4, .cls-12, .cls-5 {
        stroke-miterlimit: 10;
      }

      .cls-14, .cls-15, .cls-16 {
        fill: #5182bb;
      }

      .cls-15, .cls-2, .cls-9 {
        stroke: #5182bb;
      }

      .cls-7, .cls-3, .cls-11 {
        stroke: #fae8e9;
      }

      .cls-8, .cls-4, .cls-12 {
        stroke: #e7a7ba;
      }

      .cls-5 {
        stroke: #221f20;
      }
    </style>
  </defs>
  <g id="Church">
    <polygon class="cls-10" points="720.18 772.54 720.19 842.81 747.81 829.54 835.04 829.54 889.35 836.17 888.97 773.54 835.03 767.62 747.95 766.9 720.18 772.54"/>
    <polyline class="cls-13" points="826.82 633.95 826.82 435.85 804.04 422.92 766.28 409.92 727.63 409.92 707.44 416.88 707.44 535.47 707.44 593.91 728.6 594.25 747.81 633.65 747.81 767.93 835.04 767.93 837.9 665.69"/>
    <polygon class="cls-10" points="444.57 589.7 383.44 652.97 719.07 664.87 747.81 633.65 824.75 645.12 845.9 678.2 826.82 633.95 728.6 594.25 444.57 589.7"/>
    <polyline class="cls-13" points="397.05 653.45 397.05 738.54 379.52 759.28 375.36 837.08 720.19 842.81 720.19 765.68 720.19 702.14 719.07 664.87"/>
    <polygon class="cls-6" points="747.81 633.65 747.81 767.93 720.19 773.74 719.07 664.87 747.81 633.65"/>
    <polyline class="cls-13" points="747.81 767.93 835.03 767.62 837.89 665.38 824.74 644.81 747.8 633.34"/>
    <polyline class="cls-2" points="720.19 843.19 747.73 830.01 835.04 829.54 889.35 836.17"/>
    <line class="cls-2" x1="727.63" y1="409.92" x2="728.6" y2="594.25"/>
    <line class="cls-2" x1="766.28" y1="409.92" x2="767.13" y2="609.83"/>
    <line class="cls-15" x1="804.04" y1="422.92" x2="804.04" y2="624.74"/>
    <polygon class="cls-6" points="707.44 480.48 727.63 471.44 766.71 471.44 804.04 482.34 826.82 492.76 829.48 494.43 829.48 500.62 804.04 489.62 767.13 478.68 728.11 478.21 707.44 486.03 704.06 487.7 704.06 482.31 707.44 480.48"/>
    <polygon class="cls-6" points="704.06 539.2 728.11 532.68 766.71 533.99 804.04 543.92 826.82 554.12 829.48 555.5 829.48 561.93 804.04 550.44 766.71 541.12 728.31 540.21 707.44 544.3 704.06 545.45 704.06 539.2"/>
    <polyline class="cls-9" points="707.44 416.88 695.18 407.17 718.71 397.25 727.63 409.92"/>
    <polyline class="cls-6" points="826.82 435.85 836.32 430.14 808.01 410.93 782.19 99.73 767.13 397.25"/>
    <polyline class="cls-1" points="695.18 407.17 715.62 388.33 782.19 99.73 717.39 394.68 767.13 397.25 808.01 410.93 804.04 422.92"/>
    <circle class="cls-16" cx="782.19" cy="94.91" r="4.82"/>
    <line class="cls-2" x1="782.19" y1="41.33" x2="782.19" y2="90.09"/>
    <line class="cls-2" x1="992.24" y1="139.43" x2="1018.02" y2="139.43"/>
    <path class="cls-8" d="M716.01,488.06s-4.54,4.16-4.87,8.02c-.33,3.86-.45,37.76-.45,37.76l15.32-3.86-.9-34.97s-.47-4.87-2.57-6.4c-2.1-1.53-3.38-2.76-3.38-2.76l-3.15,2.21Z"/>
    <path class="cls-12" d="M716.7,490.68s-3.2,3.73-3.43,7.18c-.23,3.45-.32,33.39-.32,33.39l10.59-2.4-.43-31.95s-.33-4.36-1.81-5.73-2.38-2.47-2.38-2.47l-2.22,1.98Z"/>
    <path class="cls-8" d="M716.34,425.13s-4.58,4.16-4.92,8.02c-.33,3.86-.19,41.16-.19,41.16l14.11-5.77.18-36.46s-.48-4.87-2.6-6.4c-2.12-1.53-3.41-2.76-3.41-2.76l-3.18,2.21Z"/>
    <path class="cls-12" d="M716.97,427.33s-3.2,3.73-3.43,7.18-.04,36.4-.04,36.4l9.82-3.85.06-33.5s-.33-4.36-1.81-5.73c-1.48-1.37-2.38-2.47-2.38-2.47l-2.22,1.98Z"/>
    <path class="cls-8" d="M744.64,487.91s-3.08,2.75-3.12,4.7-.89,37.62-.89,37.62l17.87.79-.59-37.09s-.31-4.06-2.3-5.44c-1.99-1.38-5.55-3.16-5.55-3.16l-5.41,2.58Z"/>
    <path class="cls-12" d="M745.86,489.69s-2.29,2.51-2.32,4.29l-.66,34.34,12.85.34v-33.48s-.23-3.71-1.71-4.97c-1.48-1.26-4.13-2.88-4.13-2.88l-4.02,2.36Z"/>
    <path class="cls-8" d="M783.06,490.95s-6.03,4.02-6.11,7.39c-.08,3.37-.02,34.75-.02,34.75l18.16,4.78.4-26.73c-.52-2.22.85-14.09-1.54-16.19-2-1.76-4.67-4.05-4.67-4.05l-2.76-2.21-3.47,2.25Z"/>
    <path class="cls-12" d="M784.12,493.06s-4.37,3.59-4.43,6.61c-.06,3.02-.01,31.6-.01,31.6l13.17,3.75.29-23.89c-.38-1.98.62-12.6-1.11-14.47-1.45-1.57-3.39-3.62-3.39-3.62l-2-1.97-2.52,2.01Z"/>
    <path class="cls-8" d="M783.06,425.17s-6.03,4.02-6.11,7.39c-.08,3.37-.01,36.33-.01,36.33l18.35,5.44.2-28.96c-.52-2.22.85-14.09-1.54-16.19-2-1.76-4.67-4.05-4.67-4.05l-2.76-2.21-3.47,2.25Z"/>
    <path class="cls-12" d="M784.12,427.28s-4.37,3.59-4.43,6.61c-.06,3.02,0,32.48,0,32.48l13.15,4.26.31-25.28c-.38-1.98.62-12.6-1.11-14.47-1.45-1.57-3.39-3.62-3.39-3.62l-2-1.97-2.52,2.01Z"/>
    <path class="cls-8" d="M814.08,501.69s-2.51,2.45-2.83,5.1.1,36.53.1,36.53l12.79,5.61-.02-39.55s.22-3.4-.76-5.07-1.72-2.33-1.72-2.33l-4.01-3.62-3.56,3.34Z"/>
    <path class="cls-12" d="M815.58,504.03s-1.63,2.21-1.83,4.61c-.21,2.4.07,33.02.07,33.02l8.27,3.67v-34.35s.13-3.07-.51-4.58l-.64-1.51-3.06-3.88-2.3,3.01Z"/>
    <path class="cls-8" d="M814.33,438.61s-2.51,2.45-2.83,5.1.1,36.53.1,36.53l12.8,6.88-.02-40.83s.22-3.4-.76-5.07l-.98-1.67-4.74-4.29-3.56,3.34Z"/>
    <path class="cls-12" d="M815.84,440.95s-1.63,2.21-1.83,4.61c-.21,2.4.07,33.02.07,33.02l8.27,4.68v-35.36s.13-3.07-.51-4.58l-.64-1.51-3.06-3.88-2.3,3.01Z"/>
    <polygon class="cls-7" points="459.57 838.87 470.86 828.38 551.73 829.96 556.62 840.09 459.57 838.87"/>
    <path class="cls-5" d="M476.96,823.82v-67.85s-.85-13.44,10.2-23.87c11.05-10.43,26.18-9.2,26.18-9.2,0,0,3.65-.08,7.82.97,3.62.91,6.71,1.83,10.78,3.3,4.54,1.65,9.35,4.61,11.13,6.67,5.54,6.42,6.66,13.67,6.66,23.19,0,7.73-2.96,68.71-2.96,68.71l-69.81-1.91Z"/>
    <polyline class="cls-7" points="470.86 824.62 472.41 755.39 454.86 755.39 454.86 745.7 472.41 745.7 483.94 719.72 501.51 719.72 501.51 699.92 511.94 684.37 524.33 699.92 524.64 720.27 545.56 720.9 555.65 746.4 569.68 746.67 569.26 756.78 555.23 756.51 551.73 826.7"/>
    <path class="cls-13" d="M506.72,722.84v-19.27s.76-6.43,3.86-7.77c3.1-1.34,3.99-.52,3.99-.52,0,0,1.93.04,2.75,1.31.82,1.28,1.87,3.31,1.92,4.91s0,9.15,0,9.15l.02,12.19h-12.54Z"/>
    <path class="cls-6" d="M579.19,747.43s-1.26-40.53,1.94-47.05c3.2-6.52,5.95-11.74,9.77-14.44,3.82-2.7,14.95-1.69,17.4.72s8.19,11.61,8.21,16.59c.02,4.97-1.82,44.08-1.82,44.08l-35.5.1Z"/>
    <path class="cls-6" d="M628.35,749.96s-1.19-42.1,2.01-48.88c3.21-6.78,5.96-12.2,9.79-15.01s14.95-1.78,17.4.72c2.45,2.49,8.17,12.05,8.19,17.22s-1.89,45.8-1.89,45.8l-35.5.16Z"/>
    <path class="cls-6" d="M674.28,751.3s-1.25-40.63,1.94-47.17c3.2-6.54,5.95-11.77,9.77-14.47s14.95-1.69,17.4.72c2.45,2.41,8.19,11.64,8.21,16.63s-1.82,44.19-1.82,44.19l-35.5.11Z"/>
    <path class="cls-14" d="M728.05,835.86l-5.54.95c-.92.16-1.55-.47-1.7-1.39l-.21-2.1c-.16-.92.1-1.56,1.02-1.72l5.54-.95c.92-.16,1.8.47,1.96,1.38l.32,1.87c.16.92-.47,1.8-1.38,1.96Z"/>
    <rect class="cls-14" x="722.29" y="824.34" width="9.01" height="5.28" rx="1.69" ry="1.69" transform="translate(-129.3 134.71) rotate(-9.73)"/>
    <rect class="cls-14" x="731.34" y="822.42" width="9.01" height="5.28" rx="1.69" ry="1.69" transform="translate(-128.84 136.21) rotate(-9.73)"/>
    <rect class="cls-14" x="740.68" y="820.3" width="9.01" height="5.28" rx="1.69" ry="1.69" transform="translate(-128.35 137.76) rotate(-9.73)"/>
    <rect class="cls-14" x="725.76" y="817.98" width="9.01" height="5.28" rx="1.69" ry="1.69" transform="translate(-128.17 135.21) rotate(-9.73)"/>
    <rect class="cls-14" x="735.02" y="815.49" width="9.01" height="5.28" rx="1.69" ry="1.69" transform="translate(-158.52 178.02) rotate(-12.41)"/>
    <rect class="cls-14" x="738.65" y="778.35" width="9.01" height="5.28" rx="1.69" ry="1.69" transform="translate(-150.46 177.93) rotate(-12.41)"/>
    <rect class="cls-14" x="746.79" y="795.73" width="3.39" height="4.79" rx="1.69" ry="1.69" transform="translate(-154.02 179.48) rotate(-12.41)"/>
    <rect class="cls-14" x="743.76" y="802.45" width="3.39" height="5.28" rx="1.69" ry="1.69" transform="translate(-155.58 178.99) rotate(-12.41)"/>
    <rect class="cls-14" x="749.36" y="782.08" width="3.39" height="5.28" rx="1.69" ry="1.69"/>
    <rect class="cls-14" x="749.88" y="793.91" width="3.39" height="5.28" rx="1.69" ry="1.69"/>
    <rect class="cls-14" x="747.27" y="805.7" width="3.39" height="5.28" rx="1.69" ry="1.69"/>
    <rect class="cls-14" x="745.58" y="783.62" width="3.39" height="5.28" rx="1.69" ry="1.69"/>
    <rect class="cls-14" x="750.68" y="805.4" width="3.39" height="5.28" rx="1.69" ry="1.69"/>
    <rect class="cls-14" x="744.67" y="814.09" width="3.39" height="5.28" rx="1.69" ry="1.69" transform="translate(-158.06 179.46) rotate(-12.41)"/>
    <path class="cls-14" d="M725.49,839.48l-2.25.89c-.81.55-1.8.12-2.15-.74h0c-.34-.87.09-1.86.95-2.2l2.25-.89c.87-.34,1.86.09,2.2.95h0c.34.87-.09,1.86-1.01,1.99Z"/>
    <rect class="cls-14" x="749.78" y="817.51" width="3.39" height="5.28" rx="1.69" ry="1.69"/>
    <rect class="cls-14" x="748.36" y="776.21" width="9.01" height="5.28" rx="1.69" ry="1.69"/>
    <rect class="cls-14" x="752.86" y="782.11" width="9.01" height="5.28" rx="1.69" ry="1.69"/>
    <rect class="cls-14" x="762.57" y="782.11" width="9.01" height="5.28" rx="1.69" ry="1.69"/>
    <rect class="cls-14" x="758.07" y="776.21" width="9.01" height="5.28" rx="1.69" ry="1.69"/>
    <rect class="cls-14" x="767.08" y="776.21" width="9.01" height="5.28" rx="1.69" ry="1.69"/>
    <rect class="cls-14" x="776.43" y="776.21" width="9.01" height="5.28" rx="1.69" ry="1.69"/>
    <rect class="cls-14" x="786.05" y="776.21" width="9.01" height="5.28" rx="1.69" ry="1.69"/>
    <rect class="cls-14" x="795.81" y="776.21" width="9.01" height="5.28" rx="1.69" ry="1.69"/>
    <rect class="cls-14" x="805.52" y="776.21" width="9.01" height="5.28" rx="1.69" ry="1.69"/>
    <rect class="cls-14" x="814.52" y="776.21" width="9.01" height="5.28" rx="1.69" ry="1.69"/>
    <rect class="cls-14" x="823.87" y="776.21" width="9.01" height="5.28" rx="1.69" ry="1.69"/>
    <rect class="cls-14" x="833.49" y="776.21" width="9.01" height="5.28" rx="1.69" ry="1.69"/>
    <rect class="cls-14" x="748.79" y="823.41" width="9.01" height="5.28" rx="2.64" ry="2.64"/>
    <rect class="cls-14" x="758.5" y="823.41" width="9.01" height="5.28" rx="1.69" ry="1.69"/>
    <rect class="cls-14" x="767.51" y="823.41" width="9.01" height="5.28" rx="1.69" ry="1.69"/>
    <rect class="cls-14" x="776.85" y="823.41" width="9.01" height="5.28" rx="1.69" ry="1.69"/>
    <rect class="cls-14" x="786.47" y="823.41" width="9.01" height="5.28" rx="1.69" ry="1.69"/>
    <rect class="cls-14" x="781.54" y="782.11" width="9.01" height="5.28" rx="1.69" ry="1.69"/>
    <rect class="cls-14" x="771.92" y="782.11" width="9.01" height="5.28" rx="1.69" ry="1.69"/>
    <rect class="cls-14" x="749.56" y="788.01" width="9.01" height="5.28" rx="1.69" ry="1.69"/>
    <rect class="cls-14" x="754.07" y="793.91" width="9.01" height="5.28" rx="1.69" ry="1.69"/>
    <rect class="cls-14" x="763.78" y="793.91" width="9.01" height="5.28" rx="1.69" ry="1.69"/>
    <rect class="cls-14" x="759.27" y="788.01" width="9.01" height="5.28" rx="1.69" ry="1.69"/>
    <rect class="cls-14" x="768.28" y="788.01" width="9.01" height="5.28" rx="1.69" ry="1.69"/>
    <rect class="cls-14" x="777.63" y="788.01" width="9.01" height="5.28" rx="1.69" ry="1.69"/>
    <rect class="cls-14" x="787.25" y="788.01" width="9.01" height="5.28" rx="1.69" ry="1.69"/>
    <rect class="cls-14" x="782.75" y="793.91" width="9.01" height="5.28" rx="1.69" ry="1.69"/>
    <rect class="cls-14" x="773.12" y="793.91" width="9.01" height="5.28" rx="1.69" ry="1.69"/>
    <rect class="cls-14" x="749.78" y="799.81" width="9.01" height="5.28" rx="1.69" ry="1.69"/>
    <rect class="cls-14" x="754.28" y="805.71" width="9.01" height="5.28" rx="1.69" ry="1.69"/>
    <rect class="cls-14" x="763.99" y="805.71" width="9.01" height="5.28" rx="1.69" ry="1.69"/>
    <rect class="cls-14" x="759.49" y="799.81" width="9.01" height="5.28" rx="1.69" ry="1.69"/>
    <rect class="cls-14" x="768.5" y="799.81" width="9.01" height="5.28" rx="1.69" ry="1.69"/>
    <rect class="cls-14" x="777.84" y="799.81" width="9.01" height="5.28" rx="1.69" ry="1.69"/>
    <rect class="cls-14" x="787.46" y="799.81" width="9.01" height="5.28" rx="1.69" ry="1.69"/>
    <rect class="cls-14" x="782.96" y="805.71" width="9.01" height="5.28" rx="1.69" ry="1.69"/>
    <rect class="cls-14" x="773.34" y="805.71" width="9.01" height="5.28" rx="1.69" ry="1.69"/>
    <rect class="cls-14" x="748.57" y="811.61" width="9.01" height="5.28" rx="1.69" ry="1.69"/>
    <rect class="cls-14" x="753.08" y="817.51" width="9.01" height="5.28" rx="1.69" ry="1.69"/>
    <rect class="cls-14" x="762.79" y="817.51" width="9.01" height="5.28" rx="1.69" ry="1.69"/>
    <rect class="cls-14" x="758.28" y="811.61" width="9.01" height="5.28" rx="1.69" ry="1.69"/>
    <rect class="cls-14" x="767.29" y="811.61" width="9.01" height="5.28" rx="1.69" ry="1.69"/>
    <rect class="cls-14" x="776.64" y="811.61" width="9.01" height="5.28" rx="1.69" ry="1.69"/>
    <rect class="cls-14" x="786.26" y="811.61" width="9.01" height="5.28" rx="1.69" ry="1.69"/>
    <rect class="cls-14" x="781.76" y="817.51" width="9.01" height="5.28" rx="1.69" ry="1.69"/>
    <rect class="cls-14" x="772.14" y="817.51" width="9.01" height="5.28" rx="1.69" ry="1.69"/>
    <rect class="cls-14" x="791.43" y="781.81" width="9.01" height="5.28" rx="1.69" ry="1.69"/>
    <rect class="cls-14" x="795.93" y="787.7" width="9.01" height="5.28" rx="1.69" ry="1.69"/>
    <rect class="cls-14" x="805.64" y="787.7" width="9.01" height="5.28" rx="1.69" ry="1.69"/>
    <rect class="cls-14" x="801.14" y="781.81" width="9.01" height="5.28" rx="1.69" ry="1.69"/>
    <rect class="cls-14" x="810.14" y="781.81" width="9.01" height="5.28" rx="1.69" ry="1.69"/>
    <rect class="cls-14" x="819.49" y="781.81" width="9.01" height="5.28" rx="1.69" ry="1.69"/>
    <rect class="cls-14" x="829.11" y="781.81" width="9.01" height="5.28" rx="1.69" ry="1.69"/>
    <rect class="cls-14" x="824.61" y="787.7" width="9.01" height="5.28" rx="1.69" ry="1.69"/>
    <rect class="cls-14" x="814.99" y="787.7" width="9.01" height="5.28" rx="1.69" ry="1.69"/>
    <rect class="cls-14" x="792.63" y="793.6" width="9.01" height="5.28" rx="1.69" ry="1.69"/>
    <rect class="cls-14" x="656" y="797.01" width="9.01" height="5.28" rx="1.69" ry="1.69"/>
    <rect class="cls-14" x="661.2" y="791.12" width="9.01" height="5.28" rx="1.69" ry="1.69"/>
    <rect class="cls-14" x="670.21" y="791.12" width="9.01" height="5.28" rx="1.69" ry="1.69"/>
    <rect class="cls-14" x="679.56" y="791.12" width="9.01" height="5.28" rx="1.69" ry="1.69"/>
    <rect class="cls-14" x="689.18" y="791.12" width="9.01" height="5.28" rx="1.69" ry="1.69"/>
    <rect class="cls-14" x="684.68" y="797.01" width="9.01" height="5.28" rx="1.69" ry="1.69"/>
    <rect class="cls-14" x="675.06" y="797.01" width="9.01" height="5.28" rx="1.69" ry="1.69"/>
    <rect class="cls-14" x="670.43" y="802.91" width="9.01" height="5.28" rx="1.69" ry="1.69"/>
    <rect class="cls-14" x="679.77" y="802.91" width="9.01" height="5.28" rx="1.69" ry="1.69"/>
    <rect class="cls-14" x="684.89" y="808.81" width="9.01" height="5.28" rx="1.69" ry="1.69"/>
    <rect class="cls-14" x="694.56" y="796.71" width="9.01" height="5.28" rx="1.69" ry="1.69"/>
    <rect class="cls-14" x="521.66" y="681.97" width="9.01" height="5.28" rx="1.69" ry="1.69"/>
    <rect class="cls-14" x="526.87" y="676.08" width="9.01" height="5.28" rx="1.69" ry="1.69"/>
    <rect class="cls-14" x="535.88" y="676.08" width="9.01" height="5.28" rx="1.69" ry="1.69"/>
    <rect class="cls-14" x="545.22" y="676.08" width="9.01" height="5.28" rx="1.69" ry="1.69"/>
    <rect class="cls-14" x="554.84" y="676.08" width="9.01" height="5.28" rx="1.69" ry="1.69"/>
    <rect class="cls-14" x="550.34" y="681.97" width="9.01" height="5.28" rx="1.69" ry="1.69"/>
    <rect class="cls-14" x="540.72" y="681.97" width="9.01" height="5.28" rx="1.69" ry="1.69"/>
    <rect class="cls-14" x="536.09" y="687.87" width="9.01" height="5.28" rx="1.69" ry="1.69"/>
    <rect class="cls-14" x="545.44" y="687.87" width="9.01" height="5.28" rx="1.69" ry="1.69"/>
    <rect class="cls-14" x="550.55" y="693.77" width="9.01" height="5.28" rx="1.69" ry="1.69"/>
    <rect class="cls-14" x="560.22" y="681.67" width="9.01" height="5.28" rx="1.69" ry="1.69"/>
    <rect class="cls-14" x="389.45" y="758.89" width="9.01" height="5.28" rx="1.69" ry="1.69"/>
    <rect class="cls-14" x="379.84" y="758.89" width="9.01" height="5.28" rx="1.69" ry="1.69"/>
    <rect class="cls-14" x="384.34" y="765.01" width="9.01" height="5.28" rx="1.69" ry="1.69"/>
    <rect class="cls-14" x="384.94" y="753.1" width="9.01" height="5.28" rx="1.69" ry="1.69"/>
    <rect class="cls-14" x="389.45" y="747.07" width="9.01" height="5.28" rx="1.69" ry="1.69"/>
    <rect class="cls-14" x="379.06" y="771.13" width="9.79" height="5.28" rx="1.69" ry="1.69"/>
    <rect class="cls-14" x="448.09" y="772.1" width="9.01" height="5.28" rx="1.69" ry="1.69"/>
    <rect class="cls-14" x="443.58" y="778" width="9.01" height="5.28" rx="1.69" ry="1.69"/>
    <rect class="cls-14" x="389.45" y="771.13" width="9.01" height="5.28" rx="1.69" ry="1.69"/>
    <rect class="cls-14" x="394.25" y="777.48" width="3.9" height="5.28" rx="1.69" ry="1.69"/>
    <rect class="cls-14" x="394.08" y="741.05" width="5.28" height="5.28" rx="1.69" ry="1.69"/>
    <rect class="cls-14" x="394.08" y="789.71" width="4.08" height="5.28" rx="1.69" ry="1.69"/>
    <rect class="cls-14" x="377" y="814.46" width="6.21" height="5.28" rx="1.69" ry="1.69"/>
    <rect class="cls-14" x="375.46" y="832.43" width="5.28" height="4.28" rx="1.69" ry="1.69"/>
    <rect class="cls-14" x="393.45" y="814.96" width="5.28" height="4.28" rx="1.69" ry="1.69"/>
    <rect class="cls-14" x="394.08" y="826.97" width="3.79" height="5.28" rx="1.69" ry="1.69"/>
    <rect class="cls-14" x="376.29" y="827.14" width="6.91" height="5.28" rx="1.69" ry="1.69"/>
    <rect class="cls-14" x="377" y="801.95" width="5.28" height="5.28" rx="1.69" ry="1.69"/>
    <rect class="cls-14" x="378.1" y="789.71" width="5.88" height="5.28" rx="1.69" ry="1.69"/>
    <rect class="cls-14" x="378.7" y="777.48" width="5.28" height="5.28" rx="1.69" ry="1.69"/>
    <rect class="cls-14" x="379.06" y="764.68" width="5.28" height="5.28" rx="1.69" ry="1.69"/>
    <rect class="cls-14" x="393.35" y="764.68" width="5.28" height="5.28" rx="1.69" ry="1.69"/>
    <rect class="cls-14" x="394.25" y="753.1" width="3.9" height="5.28" rx="1.69" ry="1.69"/>
    <rect class="cls-14" x="384.64" y="777.48" width="9.01" height="5.28" rx="1.69" ry="1.69"/>
    <rect class="cls-14" x="389.15" y="783.59" width="9.01" height="5.28" rx="1.69" ry="1.69"/>
    <rect class="cls-14" x="384.64" y="789.71" width="9.01" height="5.28" rx="1.69" ry="1.69"/>
    <rect class="cls-14" x="378.7" y="783.59" width="9.83" height="5.28" rx="1.69" ry="1.69"/>
    <rect class="cls-14" x="387.71" y="795.83" width="10.44" height="5.28" rx="1.69" ry="1.69"/>
    <rect class="cls-14" x="378.1" y="795.83" width="9.01" height="5.28" rx="1.69" ry="1.69"/>
    <rect class="cls-14" x="382.61" y="801.95" width="9.01" height="5.28" rx="1.69" ry="1.69"/>
    <rect class="cls-14" x="377" y="808.06" width="10.11" height="5.28" rx="1.69" ry="1.69"/>
    <rect class="cls-14" x="387.71" y="808.06" width="10.44" height="5.28" rx="1.69" ry="1.69"/>
    <rect class="cls-14" x="392.22" y="801.56" width="6.42" height="5.28" rx="1.69" ry="1.69"/>
    <rect class="cls-14" x="384.03" y="814.73" width="9.01" height="5.28" rx="1.69" ry="1.69"/>
    <rect class="cls-14" x="388.53" y="820.85" width="9.01" height="5.28" rx="1.69" ry="1.69"/>
    <rect class="cls-14" x="384.03" y="826.97" width="9.01" height="5.28" rx="1.69" ry="1.69"/>
    <rect class="cls-14" x="377" y="820.85" width="10.71" height="5.28" rx="1.69" ry="1.69"/>
    <rect class="cls-14" x="429.33" y="783.9" width="9.01" height="5.28" rx="1.69" ry="1.69"/>
    <rect class="cls-14" x="381.2" y="832.43" width="8.14" height="4.77" rx="1.69" ry="1.69"/>
    <rect class="cls-14" x="389.73" y="832.43" width="8.14" height="4.77" rx="1.69" ry="1.69"/>
    <rect class="cls-14" x="438.68" y="783.9" width="9.01" height="5.28" rx="1.69" ry="1.69"/>
    <rect class="cls-14" x="443.8" y="789.8" width="9.01" height="5.28" rx="1.69" ry="1.69"/>
    <rect class="cls-14" x="453.47" y="777.69" width="9.01" height="5.28" rx="1.69" ry="1.69"/>
    <rect class="cls-14" x="797.13" y="799.5" width="9.01" height="5.28" rx="1.69" ry="1.69"/>
    <rect class="cls-14" x="806.84" y="799.5" width="9.01" height="5.28" rx="1.69" ry="1.69"/>
    <rect class="cls-14" x="802.34" y="793.6" width="9.01" height="5.28" rx="1.69" ry="1.69"/>
    <rect class="cls-14" x="811.35" y="793.6" width="9.01" height="5.28" rx="1.69" ry="1.69"/>
    <rect class="cls-14" x="820.69" y="793.6" width="9.01" height="5.28" rx="1.69" ry="1.69"/>
    <rect class="cls-14" x="830.32" y="793.6" width="9.01" height="5.28" rx="1.69" ry="1.69"/>
    <rect class="cls-14" x="825.81" y="799.5" width="9.01" height="5.28" rx="1.69" ry="1.69"/>
    <rect class="cls-14" x="816.19" y="799.5" width="9.01" height="5.28" rx="1.69" ry="1.69"/>
    <rect class="cls-14" x="792.84" y="805.4" width="9.01" height="5.28" rx="1.69" ry="1.69"/>
    <rect class="cls-14" x="797.35" y="811.3" width="9.01" height="5.28" rx="1.69" ry="1.69"/>
    <rect class="cls-14" x="807.06" y="811.3" width="9.01" height="5.28" rx="1.69" ry="1.69"/>
    <rect class="cls-14" x="802.55" y="805.4" width="9.01" height="5.28" rx="1.69" ry="1.69"/>
    <rect class="cls-14" x="811.56" y="805.4" width="9.01" height="5.28" rx="1.69" ry="1.69"/>
    <rect class="cls-14" x="820.91" y="805.4" width="9.01" height="5.28" rx="1.69" ry="1.69"/>
    <rect class="cls-14" x="830.53" y="805.4" width="9.01" height="5.28" rx="1.69" ry="1.69"/>
    <rect class="cls-14" x="826.03" y="811.3" width="9.01" height="5.28" rx="1.69" ry="1.69"/>
    <rect class="cls-14" x="816.4" y="811.3" width="9.01" height="5.28" rx="1.69" ry="1.69"/>
    <rect class="cls-14" x="791.64" y="817.2" width="9.01" height="5.28" rx="1.69" ry="1.69"/>
    <rect class="cls-14" x="796.14" y="823.1" width="9.01" height="5.28" rx="1.69" ry="1.69"/>
    <rect class="cls-14" x="805.85" y="823.1" width="9.01" height="5.28" rx="1.69" ry="1.69"/>
    <rect class="cls-14" x="801.35" y="817.2" width="9.01" height="5.28" rx="1.69" ry="1.69"/>
    <rect class="cls-14" x="810.36" y="817.2" width="9.01" height="5.28" rx="1.69" ry="1.69"/>
    <rect class="cls-14" x="819.71" y="817.2" width="9.01" height="5.28" rx="1.69" ry="1.69"/>
    <rect class="cls-14" x="829.33" y="817.2" width="9.01" height="5.28" rx="1.69" ry="1.69"/>
    <rect class="cls-14" x="824.82" y="823.1" width="9.01" height="5.28" rx="1.69" ry="1.69"/>
    <rect class="cls-14" x="815.2" y="823.1" width="9.01" height="5.28" rx="1.69" ry="1.69"/>
    <rect class="cls-14" x="842.72" y="782.83" width="9.01" height="5.28" rx="1.69" ry="1.69" transform="translate(95.5 -91.83) rotate(6.57)"/>
    <rect class="cls-14" x="846.52" y="789.2" width="9.01" height="5.28" rx="1.69" ry="1.69" transform="translate(96.25 -92.22) rotate(6.57)"/>
    <rect class="cls-14" x="856.17" y="790.31" width="9.01" height="5.28" rx="1.69" ry="1.69" transform="translate(96.44 -93.32) rotate(6.57)"/>
    <rect class="cls-14" x="852.37" y="783.94" width="9.01" height="5.28" rx="1.69" ry="1.69" transform="translate(95.69 -92.93) rotate(6.57)"/>
    <rect class="cls-14" x="861.32" y="784.97" width="9.01" height="5.28" rx="1.69" ry="1.69" transform="translate(95.86 -93.95) rotate(6.57)"/>
    <rect class="cls-14" x="870.61" y="786.04" width="9.01" height="5.28" rx="1.69" ry="1.69" transform="translate(96.05 -95) rotate(6.57)"/>
    <rect class="cls-14" x="880.16" y="787.14" width="9.01" height="5.28" rx="1.69" ry="1.69" transform="translate(96.24 -96.09) rotate(6.57)"/>
    <rect class="cls-14" x="842.9" y="777.01" width="9.01" height="5.28" rx="1.69" ry="1.69" transform="translate(94.83 -91.89) rotate(6.57)"/>
    <rect class="cls-14" x="836.85" y="788.09" width="9.01" height="5.28" rx="1.69" ry="1.69" transform="translate(96.06 -91.12) rotate(6.57)"/>
    <rect class="cls-14" x="836.85" y="799.96" width="9.01" height="5.28" rx="1.69" ry="1.69" transform="translate(97.42 -91.05) rotate(6.57)"/>
    <rect class="cls-14" x="835.5" y="811.69" width="9.01" height="5.28" rx="1.69" ry="1.69" transform="translate(98.75 -90.81) rotate(6.57)"/>
    <rect class="cls-14" x="833.83" y="823.42" width="9.01" height="5.28" rx="1.69" ry="1.69" transform="translate(100.08 -90.55) rotate(6.57)"/>
    <rect class="cls-14" x="852.54" y="778.12" width="9.01" height="5.28" rx="1.69" ry="1.69" transform="translate(95.02 -92.99) rotate(6.57)"/>
    <rect class="cls-14" x="861.49" y="779.15" width="9.01" height="5.28" rx="1.69" ry="1.69" transform="translate(95.2 -94) rotate(6.57)"/>
    <rect class="cls-14" x="870.78" y="780.22" width="9.01" height="5.28" rx="1.69" ry="1.69" transform="translate(95.38 -95.06) rotate(6.57)"/>
    <rect class="cls-14" x="880.33" y="781.32" width="9.01" height="5.28" rx="1.69" ry="1.69" transform="translate(95.57 -96.15) rotate(6.57)"/>
    <rect class="cls-14" x="875.01" y="792.49" width="9.01" height="5.28" rx="1.69" ry="1.69" transform="translate(96.81 -95.46) rotate(6.57)"/>
    <rect class="cls-14" x="865.46" y="791.38" width="9.01" height="5.28" rx="1.69" ry="1.69" transform="translate(96.62 -94.38) rotate(6.57)"/>
    <rect class="cls-14" x="842.57" y="794.68" width="9.01" height="5.28" rx="1.69" ry="1.69" transform="translate(96.85 -91.74) rotate(6.57)"/>
    <rect class="cls-14" x="846.37" y="801.06" width="9.01" height="5.28" rx="1.69" ry="1.69" transform="translate(97.61 -92.13) rotate(6.57)"/>
    <rect class="cls-14" x="856.01" y="802.17" width="9.01" height="5.28" rx="1.69" ry="1.69" transform="translate(97.8 -93.23) rotate(6.57)"/>
    <rect class="cls-14" x="852.22" y="795.8" width="9.01" height="5.28" rx="1.69" ry="1.69" transform="translate(97.04 -92.83) rotate(6.57)"/>
    <rect class="cls-14" x="861.16" y="796.83" width="9.01" height="5.28" rx="1.69" ry="1.69" transform="translate(97.22 -93.85) rotate(6.57)"/>
    <rect class="cls-14" x="870.45" y="797.9" width="9.01" height="5.28" rx="1.69" ry="1.69" transform="translate(97.4 -94.91) rotate(6.57)"/>
    <rect class="cls-14" x="880.01" y="799" width="9.01" height="5.28" rx="1.69" ry="1.69" transform="translate(97.59 -95.99) rotate(6.57)"/>
    <rect class="cls-14" x="874.86" y="804.34" width="9.01" height="5.28" rx="1.69" ry="1.69" transform="translate(98.17 -95.37) rotate(6.57)"/>
    <rect class="cls-14" x="884.86" y="793.31" width="3.61" height="5.28" rx="1.69" ry="1.69" transform="translate(96.95 -96.28) rotate(6.57)"/>
    <rect class="cls-14" x="838.66" y="781.99" width="3.61" height="5.28" rx="1.69" ry="1.69"/>
    <rect class="cls-14" x="839.33" y="794.04" width="3.39" height="5.28" rx="1.69" ry="1.69" transform="translate(96.74 -91.05) rotate(6.57)"/>
    <rect class="cls-14" x="833.49" y="787.71" width="3.39" height="5.28" rx="1.69" ry="1.69"/>
    <rect class="cls-14" x="884.37" y="805.17" width="4.26" height="5.28" rx="1.69" ry="1.69" transform="translate(98.31 -96.18) rotate(6.57)"/>
    <rect class="cls-14" x="885.84" y="822.82" width="3.39" height="5.28" rx="1.69" ry="1.69" transform="translate(100.34 -96.18) rotate(6.57)"/>
    <rect class="cls-14" x="883.53" y="817.01" width="5.28" height="5.28" rx="1.69" ry="1.69" transform="translate(99.66 -96.06) rotate(6.57)"/>
    <rect class="cls-14" x="880.42" y="828.69" width="8.14" height="5.28" rx="1.69" ry="1.69" transform="translate(100.99 -95.8) rotate(6.57)"/>
    <rect class="cls-14" x="865.3" y="803.24" width="9.01" height="5.28" rx="1.69" ry="1.69" transform="translate(97.98 -94.28) rotate(6.57)"/>
    <rect class="cls-14" x="841.43" y="806.43" width="9.01" height="5.28" rx="1.69" ry="1.69" transform="translate(98.19 -91.53) rotate(6.57)"/>
    <rect class="cls-14" x="845.23" y="812.81" width="9.01" height="5.28" rx="1.69" ry="1.69" transform="translate(98.94 -91.92) rotate(6.57)"/>
    <rect class="cls-14" x="854.88" y="813.92" width="9.01" height="5.28" rx="1.69" ry="1.69" transform="translate(99.13 -93.02) rotate(6.57)"/>
    <rect class="cls-14" x="851.08" y="807.54" width="9.01" height="5.28" rx="1.69" ry="1.69" transform="translate(98.38 -92.62) rotate(6.57)"/>
    <rect class="cls-14" x="860.03" y="808.57" width="9.01" height="5.28" rx="1.69" ry="1.69" transform="translate(98.56 -93.64) rotate(6.57)"/>
    <rect class="cls-14" x="869.31" y="809.64" width="9.01" height="5.28" rx="1.69" ry="1.69" transform="translate(98.74 -94.7) rotate(6.57)"/>
    <rect class="cls-14" x="878.87" y="810.74" width="9.01" height="5.28" rx="1.69" ry="1.69" transform="translate(98.93 -95.79) rotate(6.57)"/>
    <rect class="cls-14" x="873.72" y="816.09" width="9.01" height="5.28" rx="1.69" ry="1.69" transform="translate(99.51 -95.16) rotate(6.57)"/>
    <rect class="cls-14" x="864.16" y="814.99" width="9.01" height="5.28" rx="1.69" ry="1.69" transform="translate(99.32 -94.07) rotate(6.57)"/>
    <rect class="cls-14" x="838.88" y="818.01" width="9.01" height="5.28" rx="1.69" ry="1.69" transform="translate(99.5 -91.16) rotate(6.57)"/>
    <rect class="cls-14" x="842.68" y="824.39" width="9.01" height="5.28" rx="1.69" ry="1.69" transform="translate(100.25 -91.55) rotate(6.57)"/>
    <rect class="cls-14" x="852.33" y="825.5" width="9.01" height="5.28" rx="1.69" ry="1.69" transform="translate(100.44 -92.65) rotate(6.57)"/>
    <rect class="cls-14" x="848.53" y="819.13" width="9.01" height="5.28" rx="1.69" ry="1.69" transform="translate(99.69 -92.26) rotate(6.57)"/>
    <rect class="cls-14" x="857.48" y="820.16" width="9.01" height="5.28" rx="1.69" ry="1.69" transform="translate(99.87 -93.27) rotate(6.57)"/>
    <rect class="cls-14" x="866.77" y="821.23" width="9.01" height="5.28" rx="1.69" ry="1.69" transform="translate(100.05 -94.33) rotate(6.57)"/>
    <rect class="cls-14" x="876.32" y="822.33" width="9.01" height="5.28" rx="1.69" ry="1.69" transform="translate(100.24 -95.42) rotate(6.57)"/>
    <rect class="cls-14" x="871.17" y="827.67" width="9.01" height="5.28" rx="1.69" ry="1.69" transform="translate(100.82 -94.79) rotate(6.57)"/>
    <rect class="cls-14" x="861.62" y="826.57" width="9.01" height="5.28" rx="1.69" ry="1.69" transform="translate(100.63 -93.71) rotate(6.57)"/>
    <rect class="cls-14" x="736.03" y="785.1" width="9.01" height="5.28" rx="1.69" ry="1.69" transform="translate(-151.97 177.53) rotate(-12.41)"/>
    <rect class="cls-14" x="726.77" y="787.14" width="9.01" height="5.28" rx="1.69" ry="1.69" transform="translate(-152.63 175.58) rotate(-12.41)"/>
    <rect class="cls-14" x="720.4" y="788.81" width="6.54" height="5.28" rx="1.69" ry="1.69" transform="translate(-153.16 173.99) rotate(-12.41)"/>
    <rect class="cls-14" x="720.56" y="807.05" width="4.29" height="5.28" rx="1.69" ry="1.69" transform="translate(-157.1 174.21) rotate(-12.41)"/>
    <rect class="cls-14" x="721.3" y="819.15" width="4.29" height="5.28" rx="1.69" ry="1.69" transform="translate(-159.69 174.65) rotate(-12.41)"/>
    <rect class="cls-14" x="722.91" y="794.12" width="9.01" height="5.28" rx="1.69" ry="1.69" transform="translate(-154.22 174.92) rotate(-12.41)"/>
    <rect class="cls-14" x="731.63" y="792.2" width="9.01" height="5.28" rx="1.69" ry="1.69" transform="translate(-153.6 176.75) rotate(-12.41)"/>
    <rect class="cls-14" x="740.68" y="790.36" width="9.01" height="5.28" rx="1.69" ry="1.69" transform="translate(-152.99 178.65) rotate(-12.41)"/>
    <rect class="cls-14" x="720.33" y="800.44" width="9.01" height="5.28" rx="2.64" ry="2.64" transform="translate(-155.63 174.51) rotate(-12.41)"/>
    <rect class="cls-14" x="729.05" y="798.52" width="9.01" height="5.28" rx="2.04" ry="2.04" transform="translate(-155.02 176.34) rotate(-12.41)"/>
    <rect class="cls-14" x="738.09" y="796.68" width="9.01" height="5.28" rx="1.69" ry="1.69" transform="translate(-154.41 178.24) rotate(-12.41)"/>
    <rect class="cls-14" x="724.97" y="805.7" width="9.01" height="5.28" rx="1.69" ry="1.69" transform="translate(-156.65 175.63) rotate(-12.41)"/>
    <rect class="cls-14" x="734.13" y="803.54" width="9.01" height="5.28" rx="1.69" ry="1.69" transform="translate(-155.98 177.55) rotate(-12.41)"/>
    <rect class="cls-14" x="721" y="812.56" width="9.01" height="5.28" rx="1.69" ry="1.69" transform="translate(-158.22 174.94) rotate(-12.41)"/>
    <rect class="cls-14" x="729.7" y="810.64" width="9.01" height="5.28" rx="1.69" ry="1.69" transform="translate(-157.61 176.76) rotate(-12.41)"/>
    <rect class="cls-14" x="738.65" y="808.68" width="9.01" height="5.28" rx="1.69" ry="1.69" transform="translate(-156.98 178.64) rotate(-12.41)"/>
    <rect class="cls-14" x="729.05" y="780.46" width="9.01" height="5.28" rx="1.69" ry="1.69" transform="translate(-151.14 175.92) rotate(-12.41)"/>
    <rect class="cls-14" x="720.33" y="782.38" width="9.01" height="5.28" rx="1.69" ry="1.69" transform="translate(-151.75 174.09) rotate(-12.41)"/>
    <rect class="cls-14" x="729.41" y="829.44" width="9.01" height="5.28" rx="2.56" ry="2.56" transform="translate(-161.65 177.14) rotate(-12.41)"/>
    <path class="cls-14" d="M745.85,829.81l-5.72,2.35c-.9.26-1.46.02-1.72-.88l-.52-1.82c-.26-.9.26-1.84,1.16-2.1l5.4-1.55c.9-.26,1.84.26,2.1,1.16l.32,1.12c.17.59-.06,1.24-.59,1.54-.24.14-.13.1-.42.18Z"/>
    <path class="cls-4" d="M397.05,662.54c8.07,1.08,10-3.21,11.06,6.39,1.05,9.6.27,2.31,2.49,15.41s1.7,5.95,5.52,17.16,3.55,9.05,3.09,17.07c-.46,8.02-4.42,5.17-2.81,17.86s-.91,15.43-1.63,20.66-7.03,12.22-.57,13.58c6.46,1.36,8.55-10.65,8.24,5.41"/>
    <path class="cls-4" d="M448.3,655.26s.03-.93-2.18,8.32c-2.21,9.25-5.38,3.73-2.33,13.33,3.05,9.6,5.33,3.24,1.63,13.66-3.71,10.42,2.63-1.16-2.88,9.15-5.51,10.31-14.01,8.02-5.56,11.94,8.46,3.93,5,8.79,7.97,11.19"/>
    <path class="cls-16" d="M481.95,821.01v-58.81s-.71-11.64,8.5-20.69c9.21-9.04,21.82-7.98,21.82-7.98,0,0,3.04-.07,6.52.84,3.02.79,5.6,1.58,8.99,2.86,3.78,1.43,7.79,3.99,9.28,5.78,4.62,5.56,5.55,11.84,5.55,20.1,0,6.7-2.47,59.55-2.47,59.55l-58.19-1.66Z"/>
    <line class="cls-8" x1="511.78" y1="671.11" x2="511.94" y2="684.37"/>
    <line class="cls-8" x1="508.21" y1="675.93" x2="515.28" y2="675.93"/>
    <path class="cls-10" d="M582.37,744.12s.14-39.14,2.81-44.74c2.67-5.6,4.1-8.06,7.29-10.38s12.79-1.55,14.84.51c2.04,2.06,6.22,10.36,6.24,14.63s-1.56,39.86-1.56,39.86l-29.61.12Z"/>
    <path class="cls-10" d="M631.53,746.14s-.44-38.24,2.23-43.84c2.67-5.6,4.14-10.39,7.33-12.71,3.19-2.32,13.57-1.54,15.61.52,2.04,2.06,5.75,11.67,5.76,15.94s-1.32,39.96-1.32,39.96l-29.61.12Z"/>
    <path class="cls-10" d="M677.86,748s-.82-37.7,1.86-43.3,4.21-9.24,7.4-11.56c3.19-2.32,13.46-1.54,15.5.52s6.44,11.81,6.45,16.08c.01,4.27-2.77,38.14-2.77,38.14l-28.43.12Z"/>
    <path class="cls-6" d="M772.01,731.1s-1.25-40.63,1.94-47.17,5.95-11.77,9.77-14.47c3.82-2.71,14.95-1.69,17.4.72,2.45,2.41,8.19,11.64,8.21,16.63.02,4.99-1.82,44.19-1.82,44.19l-35.5.11Z"/>
    <path class="cls-10" d="M775.59,727.79s-.82-37.7,1.86-43.3c2.67-5.6,4.21-9.24,7.4-11.56s13.46-1.54,15.5.52c2.04,2.06,6.44,11.81,6.45,16.08s-2.77,38.14-2.77,38.14l-28.43.12Z"/>
    <path class="cls-11" d="M776.98,724.39s.14-26.68,1.29-30.68c1.15-4,1.82-6.59,3.14-8.28s5.47-1.26,6.27.17,2.46,8.28,2.41,11.3c-.05,3.02-1.6,27.04-1.6,27.04l-11.51.44Z"/>
    <path class="cls-11" d="M790.58,724.29s.14-26.6,1.29-30.58c1.15-3.99,1.82-6.57,3.14-8.25s5.47-1.26,6.27.17c.8,1.43,2.46,8.25,2.41,11.27s-1.6,26.96-1.6,26.96l-11.51.44Z"/>
    <polygon class="cls-16" points="720.18 772.54 720.19 782.68 748.6 775.47 833.62 774.89 889.95 781.5 888.97 773.54 835.18 766.9 747.95 766.9 720.18 772.54"/>
    <polygon class="cls-16" points="782.2 99.79 782.19 99.73 715.62 388.33 695.18 407.17 718.71 397.25 767.13 397.25 808.01 410.93 836.33 430.21 822.09 407.06 782.2 99.79"/>
    <polyline class="cls-6" points="808.01 410.93 767.13 397.25 718.71 397.25 767.13 397.25 766.28 409.92"/>
    <polygon class="cls-10" points="782.19 99.73 715.62 388.33 695.18 407.17 718.71 397.25 782.19 99.73"/>
    <polygon class="cls-9" points="767.13 397.25 766.28 409.92 804.04 422.92 808.01 410.93 767.13 397.25"/>
    <polygon class="cls-9" points="719.77 397.74 727.63 409.92 766.28 409.92 767.13 397.25 719.77 397.74"/>
    <polygon class="cls-9" points="808.01 410.93 804.04 422.92 826.82 435.85 836.32 430.14 808.01 410.93"/>
    <polygon class="cls-10" points="490.45 741.52 488.76 821.21 496.26 821.42 496.72 736.97 490.45 741.52"/>
    <path class="cls-10" d="M502.86,734.59l-1.31,86.83h10.72v-87.88s-5.66-.21-9.41,1.05Z"/>
    <polyline class="cls-10" points="518.79 734.38 527.78 737.25 524.54 822.23 517.21 822.23 518.79 734.38"/>
    <path class="cls-10" d="M533.03,739.85s5.56,4.71,6.59,7-4.34,75.38-4.34,75.38h-5.96l3.71-82.38Z"/>
    <circle class="cls-11" cx="598.73" cy="694.33" r="4.91"/>
    <polygon class="cls-13" points="593.95 695.43 586.54 709.5 584.45 731.38 584.45 743.92 596.58 743.88 597.96 708.75 593.95 695.43"/>
    <polygon class="cls-13" points="603.51 695.43 597.96 708.75 596.58 743.88 609.7 744.05 609.7 731.03 608.93 709.09 603.51 695.43"/>
    <polygon class="cls-10" points="593.82 699.66 588.14 709.99 596.58 709.99 593.82 699.66"/>
    <polygon class="cls-10" points="603.64 699.66 597.96 709.99 606.4 709.99 603.64 699.66"/>
    <polygon class="cls-10" points="588.14 712.13 595.32 712.13 595.32 718.29 587.44 718.29 588.14 712.13"/>
    <polygon class="cls-10" points="598.93 712.13 606.12 712.13 606.12 718.29 598.24 718.29 598.93 712.13"/>
    <polygon class="cls-10" points="598.37 720.43 605.55 720.43 605.55 726.59 597.67 726.59 598.37 720.43"/>
    <polygon class="cls-10" points="587.96 720.43 595.15 720.43 595.15 726.59 587.27 726.59 587.96 720.43"/>
    <polygon class="cls-10" points="587.14 728.73 594.32 728.73 594.32 734.89 586.44 734.89 587.14 728.73"/>
    <polygon class="cls-10" points="598.37 728.73 605.55 728.73 605.55 734.89 597.67 734.89 598.37 728.73"/>
    <polygon class="cls-10" points="598.37 736.77 605.55 736.77 605.55 742.93 597.67 742.93 598.37 736.77"/>
    <polygon class="cls-10" points="587.14 736.77 594.32 736.77 594.32 742.93 586.44 742.93 587.14 736.77"/>
    <path class="cls-6" d="M598.73,694.05s-1.65-1.05-1.63-1.92.26-1.73,1-1.76,1.48.12,1.58.72,0,1.26-.12,1.73-.82,1.23-.82,1.23"/>
    <path class="cls-16" d="M598.4,694.53s-1.54,1.2-2.36.89-1.54-.83-1.33-1.53.61-1.35,1.21-1.25,1.18.42,1.59.7.89,1.19.89,1.19"/>
    <path class="cls-16" d="M598.95,694.72s1.68-.2,2.21.4.91,1.34.48,1.77-.99.75-1.43.4-.78-.86-1-1.26-.26-1.31-.26-1.31"/>
    <path class="cls-13" d="M598.41,694.96s.99,1.37.71,2.13-.73,1.45-1.32,1.28-1.13-.51-1.04-1.06.38-1.1.62-1.48,1.02-.86,1.02-.86"/>
    <path class="cls-13" d="M599.31,694.13s.67-1.55,1.46-1.7,1.62-.12,1.77.47.15,1.23-.37,1.43-1.14.24-1.59.23-1.26-.43-1.26-.43"/>
    <circle class="cls-11" cx="648.64" cy="694.76" r="4.91"/>
    <polygon class="cls-13" points="643.86 695.86 636.45 709.93 634.37 731.81 634.37 744.36 646.49 744.31 647.87 709.18 643.86 695.86"/>
    <polygon class="cls-13" points="653.42 695.86 647.87 709.18 646.49 744.31 659.61 744.49 659.61 731.46 658.85 709.53 653.42 695.86"/>
    <polygon class="cls-10" points="643.73 700.1 638.05 710.43 646.49 710.43 643.73 700.1"/>
    <polygon class="cls-10" points="653.55 700.1 647.87 710.43 656.31 710.43 653.55 700.1"/>
    <polygon class="cls-10" points="638.05 712.57 645.23 712.57 645.23 718.73 637.36 718.73 638.05 712.57"/>
    <polygon class="cls-10" points="648.85 712.57 656.03 712.57 656.03 718.73 648.15 718.73 648.85 712.57"/>
    <polygon class="cls-10" points="648.28 720.86 655.46 720.86 655.46 727.02 647.59 727.02 648.28 720.86"/>
    <polygon class="cls-10" points="637.87 720.86 645.06 720.86 645.06 727.02 637.18 727.02 637.87 720.86"/>
    <polygon class="cls-10" points="637.05 729.16 644.23 729.16 644.23 735.32 636.35 735.32 637.05 729.16"/>
    <polygon class="cls-10" points="648.28 729.16 655.46 729.16 655.46 735.32 647.59 735.32 648.28 729.16"/>
    <polygon class="cls-10" points="648.28 737.2 655.46 737.2 655.46 743.36 647.59 743.36 648.28 737.2"/>
    <polygon class="cls-10" points="637.05 737.2 644.23 737.2 644.23 743.36 636.35 743.36 637.05 737.2"/>
    <path class="cls-6" d="M648.64,694.49s-1.65-1.05-1.63-1.92.26-1.73,1-1.76,1.48.12,1.58.72,0,1.26-.12,1.73-.82,1.23-.82,1.23"/>
    <path class="cls-16" d="M648.32,694.97s-1.54,1.2-2.36.89-1.54-.83-1.33-1.53.61-1.35,1.21-1.25,1.18.42,1.59.7.89,1.19.89,1.19"/>
    <path class="cls-16" d="M648.86,695.16s1.68-.2,2.21.4.91,1.34.48,1.77-.99.75-1.43.4-.78-.86-1-1.26-.26-1.31-.26-1.31"/>
    <path class="cls-13" d="M648.32,695.39s.99,1.37.71,2.13-.73,1.45-1.32,1.28-1.13-.51-1.04-1.06.38-1.1.62-1.48,1.02-.86,1.02-.86"/>
    <path class="cls-13" d="M649.22,694.56s.67-1.55,1.46-1.7,1.62-.12,1.77.47.15,1.23-.37,1.43-1.14.24-1.59.23-1.26-.43-1.26-.43"/>
    <circle class="cls-11" cx="694.06" cy="697.27" r="4.91"/>
    <circle class="cls-11" cx="791.27" cy="680.33" r="6.42"/>
    <polygon class="cls-13" points="689.28 698.37 681.87 712.44 679.78 734.32 679.78 746.86 691.91 746.82 693.29 711.69 689.28 698.37"/>
    <polygon class="cls-13" points="698.84 698.37 693.29 711.69 691.91 746.82 705.03 746.99 705.03 733.97 704.27 712.03 698.84 698.37"/>
    <polygon class="cls-10" points="689.15 702.6 683.47 712.93 691.91 712.93 689.15 702.6"/>
    <polygon class="cls-10" points="698.97 702.6 693.29 712.93 701.73 712.93 698.97 702.6"/>
    <polygon class="cls-10" points="683.47 715.07 690.65 715.07 690.65 721.23 682.77 721.23 683.47 715.07"/>
    <polygon class="cls-10" points="694.27 715.07 701.45 715.07 701.45 721.23 693.57 721.23 694.27 715.07"/>
    <polygon class="cls-10" points="693.7 723.37 700.88 723.37 700.88 729.53 693.01 729.53 693.7 723.37"/>
    <polygon class="cls-10" points="683.29 723.37 690.48 723.37 690.48 729.53 682.6 729.53 683.29 723.37"/>
    <polygon class="cls-10" points="682.47 731.67 689.65 731.67 689.65 737.83 681.77 737.83 682.47 731.67"/>
    <polygon class="cls-10" points="693.7 731.67 700.88 731.67 700.88 737.83 693.01 737.83 693.7 731.67"/>
    <polygon class="cls-10" points="693.7 739.71 700.88 739.71 700.88 745.87 693.01 745.87 693.7 739.71"/>
    <polygon class="cls-10" points="682.47 739.71 689.65 739.71 689.65 745.87 681.77 745.87 682.47 739.71"/>
    <path class="cls-16" d="M694.06,696.99s-1.65-1.05-1.63-1.92.26-1.73,1-1.76,1.48.12,1.58.72,0,1.26-.12,1.73-.82,1.23-.82,1.23"/>
    <path class="cls-16" d="M791.39,678.94s-1.99-1.2-1.97-2.19c.02-.99.32-1.97,1.2-2.01s1.78.14,1.91.81,0,1.43-.15,1.97-.99,1.41-.99,1.41"/>
    <path class="cls-13" d="M693.74,697.47s-1.54,1.2-2.36.89-1.54-.83-1.33-1.53.61-1.35,1.21-1.25,1.18.42,1.59.7.89,1.19.89,1.19"/>
    <path class="cls-13" d="M790.57,679.45s-1.77,1.18-2.76.81-1.88-.96-1.66-1.69.65-1.4,1.37-1.26,1.43.51,1.93.83,1.12,1.31,1.12,1.31"/>
    <path class="cls-13" d="M694.28,697.66s1.68-.2,2.21.4.91,1.34.48,1.77-.99.75-1.43.4-.78-.86-1-1.26-.26-1.31-.26-1.31"/>
    <path class="cls-13" d="M791.54,680.41s2.36-.29,3.1.56,1.29,1.88.68,2.49-1.4,1.05-2.01.56-1.1-1.21-1.41-1.77-.37-1.84-.37-1.84"/>
    <path class="cls-16" d="M693.74,697.9s.99,1.37.71,2.13-.73,1.45-1.32,1.28-1.13-.51-1.04-1.06.38-1.1.62-1.48,1.02-.86,1.02-.86"/>
    <path class="cls-16" d="M790.43,680.33s1.45,2.01,1.04,3.11c-.4,1.11-1.07,2.12-1.93,1.87s-1.66-.74-1.52-1.55.56-1.61.91-2.18,1.5-1.26,1.5-1.26"/>
    <path class="cls-6" d="M694.64,697.07s.67-1.55,1.46-1.7,1.62-.12,1.77.47.15,1.23-.37,1.43-1.14.24-1.59.23-1.26-.43-1.26-.43"/>
    <path class="cls-6" d="M791.8,679.46s.81-2.02,1.79-2.21,2.01-.13,2.21.64.2,1.61-.45,1.86-1.42.3-1.98.28-1.58-.58-1.58-.58"/>
    <polygon class="cls-11" points="779.97 688.18 779.97 723.57 782.8 723.57 782.8 685.29 779.97 688.18"/>
    <polygon class="cls-3" points="785.11 685.29 785.11 723.57 786.86 723.57 786.86 685.29 785.11 684.75 785.11 685.29"/>
    <path class="cls-11" d="M791.14,724.18s.14-26.68,1.29-30.68,1.82-6.59,3.14-8.28,5.47-1.26,6.27.17,2.46,8.28,2.41,11.3-1.6,27.04-1.6,27.04l-11.51.44Z"/>
    <polygon class="cls-11" points="794.13 687.97 794.13 723.36 796.96 723.36 796.96 685.08 794.13 687.97"/>
    <polygon class="cls-3" points="799.26 685.08 799.26 723.36 801.01 723.36 801.01 685.08 799.26 684.54 799.26 685.08"/>
  </g>
</svg>