<?xml version="1.0" encoding="UTF-8"?>
<svg id="Camp.fr" xmlns="http://www.w3.org/2000/svg" viewBox="0 0 1920 1080">
  <defs>
    <style>
      .cls-1, .cls-2, .cls-3, .cls-4, .cls-5 {
        fill: none;
      }

      .cls-6, .cls-7, .cls-8, .cls-9 {
        fill: #e7a7ba;
      }

      .cls-10, .cls-11, .cls-12 {
        fill: #78b1e1;
      }

      .cls-13 {
        fill: #fae8e9;
      }

      .cls-14 {
        stroke: #78b1e1;
      }

      .cls-14, .cls-15, .cls-7, .cls-2, .cls-3, .cls-8, .cls-11, .cls-9, .cls-4, .cls-12, .cls-5 {
        stroke-miterlimit: 10;
      }

      .cls-14, .cls-15, .cls-16 {
        fill: #5182bb;
      }

      .cls-15, .cls-2, .cls-9 {
        stroke: #5182bb;
      }

      .cls-7, .cls-3, .cls-11 {
        stroke: #fae8e9;
      }

      .cls-8, .cls-4, .cls-12 {
        stroke: #e7a7ba;
      }

      .cls-17 {
        fill: #ffffe8;
      }

      .cls-5 {
        stroke: #221f20;
      }
    </style>
  </defs>
  <g id="Church">
    <path class="cls-17" d="M955.74,41.24s-4.37-7.03-7.99-7.12-8.19,5.87-8.31,7.28-.67,58.93-.67,58.93c0,0-4.57,4.08-5.14,5.94s-.18,8.93,1.5,10.28,5.1,2.51,5.1,2.51l-89.72,349-28.32,31.33,17.26,17.68-4.03,63.86-2.64,11.66,3.4,12.74-.55,17.83.03,36.94h0s1.43,15.98,1.43,15.98l.35,28.25.2,15.42-323.49-9.82-93.71,101.91,20.93,6.88,4.6,88.4-19.6,30.96-1.02,113.4,449.27,10.44,35.01-18.76,104.07-2.73,80.53,9.08-2.91-106.73-59.5-7.68v-84.57s18.05-3.36,18.05-3.36l-30.68-68.8-1.01-43.7-1.48-27.02-.13-10.66-1.44-13,2.41-37.85-.83-25.78-.1-12.33-1.49-5.62v-58.2s14.7-14.6,14.7-14.6l-17.47-32.51-55.5-377.73s3.69-2.58,5.44-7.1c1.16-3,.01-6-1-8.05-.94-1.91-5.74-4.04-5.74-4.04l.17-58.95Z"/>
    <polygon class="cls-10" points="870.56 955.72 870.58 1043.18 904.96 1026.66 1013.54 1026.66 1081.13 1034.92 1080.66 956.96 1013.52 949.59 905.13 948.7 870.56 955.72"/>
    <polyline class="cls-13" points="1003.31 783.21 1003.31 536.64 974.95 520.55 927.95 504.37 879.84 504.37 854.72 513.03 854.72 660.63 854.72 733.38 881.05 733.8 904.96 782.85 904.96 949.98 1013.54 949.98 1017.09 822.72"/>
    <polygon class="cls-10" points="527.52 728.13 451.43 806.89 869.19 821.7 904.96 782.85 1000.72 797.12 1027.04 838.3 1003.31 783.21 881.05 733.8 527.52 728.13"/>
    <polyline class="cls-13" points="468.37 807.49 468.37 913.4 446.55 939.21 441.38 1036.05 870.58 1043.18 870.58 947.18 870.58 868.09 869.19 821.7"/>
    <polygon class="cls-6" points="904.96 782.85 904.96 949.98 870.58 957.21 869.19 821.7 904.96 782.85"/>
    <polyline class="cls-13" points="904.96 949.98 1013.52 949.59 1017.08 822.33 1000.71 796.73 904.95 782.46"/>
    <polyline class="cls-2" points="870.58 1043.65 904.85 1027.24 1013.54 1026.66 1081.13 1034.92"/>
    <line class="cls-2" x1="879.84" y1="504.37" x2="881.05" y2="733.8"/>
    <line class="cls-2" x1="927.95" y1="504.37" x2="929.01" y2="753.19"/>
    <line class="cls-15" x1="974.95" y1="520.55" x2="974.95" y2="771.76"/>
    <polygon class="cls-6" points="854.72 592.19 879.84 580.94 928.48 580.94 974.95 594.51 1003.31 607.48 1006.61 609.55 1006.61 617.25 974.95 603.57 929.01 589.95 880.44 589.37 854.72 599.1 850.51 601.18 850.51 594.47 854.72 592.19"/>
    <polygon class="cls-6" points="850.51 665.28 880.44 657.16 928.48 658.79 974.95 671.15 1003.31 683.84 1006.61 685.56 1006.61 693.57 974.95 679.27 928.48 667.66 880.69 666.53 854.72 671.63 850.51 673.06 850.51 665.28"/>
    <polyline class="cls-9" points="854.72 513.03 839.45 500.94 868.73 488.59 879.84 504.37"/>
    <polyline class="cls-6" points="1003.31 536.64 1015.13 529.54 979.89 505.62 947.75 118.27 929.01 488.59"/>
    <polyline class="cls-1" points="839.45 500.94 864.89 477.5 947.75 118.27 867.09 485.4 929.01 488.59 979.89 505.62 974.95 520.55"/>
    <circle class="cls-16" cx="947.75" cy="112.28" r="6"/>
    <line class="cls-2" x1="947.75" y1="45.58" x2="947.75" y2="106.28"/>
    <path class="cls-8" d="M865.37,601.62s-5.65,5.18-6.06,9.99c-.41,4.8-.56,47-.56,47l19.07-4.81-1.12-43.53s-.59-6.06-3.2-7.97c-2.61-1.9-4.2-3.44-4.2-3.44l-3.92,2.75Z"/>
    <path class="cls-12" d="M866.24,604.89s-3.98,4.64-4.27,8.94c-.29,4.3-.4,41.56-.4,41.56l13.19-2.99-.53-39.77s-.42-5.42-2.26-7.13c-1.84-1.7-2.96-3.08-2.96-3.08l-2.76,2.46Z"/>
    <path class="cls-8" d="M865.79,523.3s-5.71,5.18-6.12,9.99c-.41,4.8-.24,51.23-.24,51.23l17.56-7.18.23-45.38s-.6-6.06-3.24-7.97c-2.64-1.9-4.24-3.44-4.24-3.44l-3.96,2.75Z"/>
    <path class="cls-12" d="M866.58,526.04s-3.98,4.64-4.27,8.94c-.29,4.3-.05,45.3-.05,45.3l12.23-4.8.07-41.7s-.42-5.42-2.26-7.13c-1.84-1.7-2.96-3.08-2.96-3.08l-2.76,2.46Z"/>
    <path class="cls-8" d="M901.01,601.44s-3.83,3.43-3.89,5.85c-.06,2.42-1.11,46.82-1.11,46.82l22.24.99-.74-46.17s-.39-5.05-2.87-6.77c-2.48-1.72-6.91-3.93-6.91-3.93l-6.73,3.22Z"/>
    <path class="cls-12" d="M902.53,603.65s-2.85,3.13-2.89,5.34c-.04,2.21-.82,42.74-.82,42.74l15.99.43v-41.67s-.29-4.61-2.13-6.18-5.14-3.59-5.14-3.59l-5.01,2.94Z"/>
    <path class="cls-8" d="M948.83,605.22s-7.5,5-7.6,9.2c-.1,4.2-.02,43.26-.02,43.26l22.6,5.96.5-33.27c-.65-2.76,1.06-17.54-1.91-20.15-2.49-2.19-5.81-5.04-5.81-5.04l-3.43-2.75-4.32,2.8Z"/>
    <path class="cls-12" d="M950.15,607.85s-5.44,4.47-5.51,8.23c-.07,3.75-.01,39.33-.01,39.33l16.39,4.67.36-29.74c-.47-2.47.77-15.68-1.39-18.02-1.81-1.95-4.22-4.51-4.22-4.51l-2.49-2.46-3.13,2.5Z"/>
    <path class="cls-8" d="M948.83,523.35s-7.5,5-7.6,9.2c-.1,4.2-.02,45.22-.02,45.22l22.84,6.77.25-36.05c-.65-2.76,1.06-17.54-1.91-20.15-2.49-2.19-5.81-5.04-5.81-5.04l-3.43-2.75-4.32,2.8Z"/>
    <path class="cls-12" d="M950.15,525.97s-5.44,4.47-5.51,8.23c-.07,3.75-.01,40.42-.01,40.42l16.37,5.3.38-31.47c-.47-2.47.77-15.68-1.39-18.02-1.81-1.95-4.22-4.51-4.22-4.51l-2.49-2.46-3.13,2.5Z"/>
    <path class="cls-8" d="M987.44,618.59s-3.13,3.05-3.53,6.35.13,45.47.13,45.47l15.93,6.98-.03-49.23s.27-4.23-.95-6.31-2.14-2.9-2.14-2.9l-4.99-4.51-4.43,4.15Z"/>
    <path class="cls-12" d="M989.32,621.51s-2.02,2.76-2.28,5.74c-.26,2.98.08,41.1.08,41.1l10.3,4.57-.02-42.76s.18-3.82-.61-5.7l-.79-1.88-3.81-4.82-2.86,3.75Z"/>
    <path class="cls-8" d="M987.75,540.07s-3.13,3.05-3.53,6.35.13,45.47.13,45.47l15.93,8.56-.03-50.81s.27-4.23-.95-6.31l-1.22-2.08-5.9-5.34-4.43,4.15Z"/>
    <path class="cls-12" d="M989.63,542.99s-2.02,2.76-2.28,5.74c-.26,2.98.08,41.1.08,41.1l10.3,5.83-.02-44.01s.18-3.82-.61-5.7l-.79-1.88-3.81-4.82-2.86,3.75Z"/>
    <polygon class="cls-7" points="546.19 1038.28 560.24 1025.22 660.9 1027.19 666.99 1039.8 546.19 1038.28"/>
    <path class="cls-5" d="M567.84,1019.54v-84.46s-1.06-16.72,12.69-29.71c13.75-12.99,32.59-11.45,32.59-11.45,0,0,4.54-.1,9.74,1.21,4.51,1.14,8.36,2.27,13.42,4.11,5.65,2.05,11.64,5.73,13.85,8.3,6.9,7.99,8.29,17.01,8.29,28.86,0,9.62-3.69,85.52-3.69,85.52l-86.9-2.38Z"/>
    <polyline class="cls-7" points="560.24 1020.53 562.17 934.37 540.33 934.37 540.33 922.3 562.17 922.3 576.52 889.97 598.4 889.97 598.4 865.33 611.38 845.98 626.8 865.33 627.18 890.66 653.22 891.44 665.78 923.18 683.24 923.52 682.71 936.1 665.26 935.77 660.9 1023.13"/>
    <path class="cls-13" d="M604.88,893.86v-23.99s.94-8.01,4.81-9.67c3.86-1.67,4.97-.64,4.97-.64,0,0,2.4.05,3.42,1.63,1.01,1.59,2.32,4.12,2.39,6.11s0,11.39,0,11.39l.03,15.17h-15.61Z"/>
    <path class="cls-6" d="M695.08,924.46s-1.57-50.45,2.41-58.56c3.98-8.11,7.4-14.61,12.16-17.97,4.76-3.36,18.61-2.1,21.66.89,3.05,2.99,10.2,14.45,10.22,20.65.03,6.19-2.26,54.87-2.26,54.87l-44.19.13Z"/>
    <path class="cls-6" d="M756.27,927.61s-1.49-52.41,2.51-60.84c3.99-8.44,7.42-15.19,12.19-18.69s18.61-2.21,21.66.89c3.05,3.1,10.17,15,10.19,21.43.02,6.43-2.35,57-2.35,57l-44.19.2Z"/>
    <path class="cls-6" d="M813.44,929.28s-1.56-50.57,2.42-58.71c3.98-8.14,7.4-14.65,12.16-18.02,4.76-3.37,18.61-2.11,21.66.89,3.05,3,10.19,14.49,10.22,20.7.03,6.21-2.27,55.01-2.27,55.01l-44.19.13Z"/>
    <path class="cls-14" d="M880.36,1034.53l-6.89,1.18c-1.14.2-1.92-.59-2.12-1.73l-.26-2.61c-.2-1.14.13-1.94,1.27-2.14l6.89-1.18c1.14-.2,2.24.58,2.44,1.72l.4,2.32c.2,1.14-.58,2.24-1.72,2.44Z"/>
    <rect class="cls-14" x="873.19" y="1020.19" width="11.21" height="6.58" rx="1.69" ry="1.69" transform="translate(-160.32 163.22) rotate(-9.73)"/>
    <rect class="cls-14" x="884.45" y="1017.8" width="11.21" height="6.58" rx="1.69" ry="1.69" transform="translate(-159.75 165.09) rotate(-9.73)"/>
    <rect class="cls-14" x="896.08" y="1015.17" width="11.21" height="6.58" rx="1.69" ry="1.69" transform="translate(-159.14 167.02) rotate(-9.73)"/>
    <rect class="cls-14" x="877.51" y="1012.27" width="11.21" height="6.58" rx="1.69" ry="1.69" transform="translate(-158.91 163.84) rotate(-9.73)"/>
    <rect class="cls-14" x="889.04" y="1009.18" width="11.21" height="6.58" rx="1.69" ry="1.69" transform="translate(-196.66 215.89) rotate(-12.41)"/>
    <rect class="cls-14" x="893.56" y="962.95" width="11.21" height="6.58" rx="1.69" ry="1.69" transform="translate(-186.62 215.78) rotate(-12.41)"/>
    <rect class="cls-14" x="903.69" y="984.59" width="4.22" height="5.96" rx="1.69" ry="1.69" transform="translate(-191.05 217.71) rotate(-12.41)"/>
    <rect class="cls-14" x="899.92" y="992.95" width="4.22" height="6.58" rx="1.69" ry="1.69" transform="translate(-193 217.1) rotate(-12.41)"/>
    <rect class="cls-14" x="906.89" y="967.59" width="4.22" height="6.58" rx="1.69" ry="1.69"/>
    <rect class="cls-14" x="907.53" y="982.32" width="4.22" height="6.58" rx="1.69" ry="1.69"/>
    <rect class="cls-14" x="904.29" y="996.99" width="4.22" height="6.58" rx="1.69" ry="1.69"/>
    <rect class="cls-14" x="902.18" y="969.51" width="4.22" height="6.58" rx="1.69" ry="1.69"/>
    <rect class="cls-14" x="908.53" y="996.62" width="4.22" height="6.58" rx="1.69" ry="1.69"/>
    <rect class="cls-14" x="901.06" y="1007.43" width="4.22" height="6.58" rx="1.69" ry="1.69" transform="translate(-196.09 217.68) rotate(-12.41)"/>
    <path class="cls-14" d="M877.18,1039.04l-2.8,1.1c-1.01.69-2.24.16-2.67-.92h0c-.43-1.08.11-2.31,1.19-2.74l2.8-1.1c1.08-.43,2.31.11,2.74,1.19h0c.43,1.08-.11,2.31-1.25,2.47Z"/>
    <rect class="cls-14" x="907.41" y="1011.69" width="4.22" height="6.58" rx="1.69" ry="1.69"/>
    <rect class="cls-14" x="905.64" y="960.29" width="11.21" height="6.58" rx="1.69" ry="1.69"/>
    <rect class="cls-14" x="911.25" y="967.63" width="11.21" height="6.58" rx="1.69" ry="1.69"/>
    <rect class="cls-14" x="923.34" y="967.63" width="11.21" height="6.58" rx="1.69" ry="1.69"/>
    <rect class="cls-14" x="917.73" y="960.29" width="11.21" height="6.58" rx="1.69" ry="1.69"/>
    <rect class="cls-14" x="928.94" y="960.29" width="11.21" height="6.58" rx="1.69" ry="1.69"/>
    <rect class="cls-14" x="940.58" y="960.29" width="11.21" height="6.58" rx="1.69" ry="1.69"/>
    <rect class="cls-14" x="952.55" y="960.29" width="11.21" height="6.58" rx="1.69" ry="1.69"/>
    <rect class="cls-14" x="964.7" y="960.29" width="11.21" height="6.58" rx="1.69" ry="1.69"/>
    <rect class="cls-14" x="976.79" y="960.29" width="11.21" height="6.58" rx="1.69" ry="1.69"/>
    <rect class="cls-14" x="988" y="960.29" width="11.21" height="6.58" rx="1.69" ry="1.69"/>
    <rect class="cls-14" x="999.63" y="960.29" width="11.21" height="6.58" rx="1.69" ry="1.69"/>
    <rect class="cls-14" x="1011.61" y="960.29" width="11.21" height="6.58" rx="1.69" ry="1.69"/>
    <rect class="cls-14" x="906.18" y="1019.03" width="11.21" height="6.58" rx="2.64" ry="2.64"/>
    <rect class="cls-14" x="918.26" y="1019.03" width="11.21" height="6.58" rx="1.69" ry="1.69"/>
    <rect class="cls-14" x="929.48" y="1019.03" width="11.21" height="6.58" rx="1.69" ry="1.69"/>
    <rect class="cls-14" x="941.11" y="1019.03" width="11.21" height="6.58" rx="1.69" ry="1.69"/>
    <rect class="cls-14" x="953.08" y="1019.03" width="11.21" height="6.58" rx="1.69" ry="1.69"/>
    <rect class="cls-14" x="946.95" y="967.63" width="11.21" height="6.58" rx="1.69" ry="1.69"/>
    <rect class="cls-14" x="934.97" y="967.63" width="11.21" height="6.58" rx="1.69" ry="1.69"/>
    <rect class="cls-14" x="907.14" y="974.97" width="11.21" height="6.58" rx="1.69" ry="1.69"/>
    <rect class="cls-14" x="912.75" y="982.32" width="11.21" height="6.58" rx="1.69" ry="1.69"/>
    <rect class="cls-14" x="924.83" y="982.32" width="11.21" height="6.58" rx="1.69" ry="1.69"/>
    <rect class="cls-14" x="919.23" y="974.97" width="11.21" height="6.58" rx="1.69" ry="1.69"/>
    <rect class="cls-14" x="930.44" y="974.97" width="11.21" height="6.58" rx="1.69" ry="1.69"/>
    <rect class="cls-14" x="942.07" y="974.97" width="11.21" height="6.58" rx="1.69" ry="1.69"/>
    <rect class="cls-14" x="954.05" y="974.97" width="11.21" height="6.58" rx="1.69" ry="1.69"/>
    <rect class="cls-14" x="948.44" y="982.32" width="11.21" height="6.58" rx="1.69" ry="1.69"/>
    <rect class="cls-14" x="936.47" y="982.32" width="11.21" height="6.58" rx="1.69" ry="1.69"/>
    <rect class="cls-14" x="907.41" y="989.66" width="11.21" height="6.58" rx="1.69" ry="1.69"/>
    <rect class="cls-14" x="913.01" y="997" width="11.21" height="6.58" rx="1.69" ry="1.69"/>
    <rect class="cls-14" x="925.1" y="997" width="11.21" height="6.58" rx="1.69" ry="1.69"/>
    <rect class="cls-14" x="919.49" y="989.66" width="11.21" height="6.58" rx="1.69" ry="1.69"/>
    <rect class="cls-14" x="930.71" y="989.66" width="11.21" height="6.58" rx="1.69" ry="1.69"/>
    <rect class="cls-14" x="942.34" y="989.66" width="11.21" height="6.58" rx="1.69" ry="1.69"/>
    <rect class="cls-14" x="954.32" y="989.66" width="11.21" height="6.58" rx="1.69" ry="1.69"/>
    <rect class="cls-14" x="948.71" y="997" width="11.21" height="6.58" rx="1.69" ry="1.69"/>
    <rect class="cls-14" x="936.73" y="997" width="11.21" height="6.58" rx="1.69" ry="1.69"/>
    <rect class="cls-14" x="905.91" y="1004.35" width="11.21" height="6.58" rx="1.69" ry="1.69"/>
    <rect class="cls-14" x="911.52" y="1011.69" width="11.21" height="6.58" rx="1.69" ry="1.69"/>
    <rect class="cls-14" x="923.6" y="1011.69" width="11.21" height="6.58" rx="1.69" ry="1.69"/>
    <rect class="cls-14" x="918" y="1004.35" width="11.21" height="6.58" rx="1.69" ry="1.69"/>
    <rect class="cls-14" x="929.21" y="1004.35" width="11.21" height="6.58" rx="1.69" ry="1.69"/>
    <rect class="cls-14" x="940.84" y="1004.35" width="11.21" height="6.58" rx="1.69" ry="1.69"/>
    <rect class="cls-14" x="952.82" y="1004.35" width="11.21" height="6.58" rx="1.69" ry="1.69"/>
    <rect class="cls-14" x="947.21" y="1011.69" width="11.21" height="6.58" rx="1.69" ry="1.69"/>
    <rect class="cls-14" x="935.24" y="1011.69" width="11.21" height="6.58" rx="1.69" ry="1.69"/>
    <rect class="cls-14" x="959.25" y="967.25" width="11.21" height="6.58" rx="1.69" ry="1.69"/>
    <rect class="cls-14" x="964.85" y="974.59" width="11.21" height="6.58" rx="1.69" ry="1.69"/>
    <rect class="cls-14" x="976.94" y="974.59" width="11.21" height="6.58" rx="1.69" ry="1.69"/>
    <rect class="cls-14" x="971.33" y="967.25" width="11.21" height="6.58" rx="1.69" ry="1.69"/>
    <rect class="cls-14" x="982.55" y="967.25" width="11.21" height="6.58" rx="1.69" ry="1.69"/>
    <rect class="cls-14" x="994.18" y="967.25" width="11.21" height="6.58" rx="1.69" ry="1.69"/>
    <rect class="cls-14" x="1006.16" y="967.25" width="11.21" height="6.58" rx="1.69" ry="1.69"/>
    <rect class="cls-14" x="1000.55" y="974.59" width="11.21" height="6.58" rx="1.69" ry="1.69"/>
    <rect class="cls-14" x="988.57" y="974.59" width="11.21" height="6.58" rx="1.69" ry="1.69"/>
    <rect class="cls-14" x="960.75" y="981.93" width="11.21" height="6.58" rx="1.69" ry="1.69"/>
    <rect class="cls-14" x="790.68" y="986.18" width="11.21" height="6.58" rx="1.69" ry="1.69"/>
    <rect class="cls-14" x="797.16" y="978.84" width="11.21" height="6.58" rx="1.69" ry="1.69"/>
    <rect class="cls-14" x="808.37" y="978.84" width="11.21" height="6.58" rx="1.69" ry="1.69"/>
    <rect class="cls-14" x="820.01" y="978.84" width="11.21" height="6.58" rx="1.69" ry="1.69"/>
    <rect class="cls-14" x="831.98" y="978.84" width="11.21" height="6.58" rx="1.69" ry="1.69"/>
    <rect class="cls-14" x="826.38" y="986.18" width="11.21" height="6.58" rx="1.69" ry="1.69"/>
    <rect class="cls-14" x="814.4" y="986.18" width="11.21" height="6.58" rx="1.69" ry="1.69"/>
    <rect class="cls-14" x="808.64" y="993.52" width="11.21" height="6.58" rx="1.69" ry="1.69"/>
    <rect class="cls-14" x="820.27" y="993.52" width="11.21" height="6.58" rx="1.69" ry="1.69"/>
    <rect class="cls-14" x="826.64" y="1000.86" width="11.21" height="6.58" rx="1.69" ry="1.69"/>
    <rect class="cls-14" x="838.68" y="985.8" width="11.21" height="6.58" rx="1.69" ry="1.69"/>
    <rect class="cls-14" x="623.47" y="842.99" width="11.21" height="6.58" rx="1.69" ry="1.69"/>
    <rect class="cls-14" x="629.95" y="835.65" width="11.21" height="6.58" rx="1.69" ry="1.69"/>
    <rect class="cls-14" x="641.17" y="835.65" width="11.21" height="6.58" rx="1.69" ry="1.69"/>
    <rect class="cls-14" x="652.8" y="835.65" width="11.21" height="6.58" rx="1.69" ry="1.69"/>
    <rect class="cls-14" x="664.78" y="835.65" width="11.21" height="6.58" rx="1.69" ry="1.69"/>
    <rect class="cls-14" x="659.17" y="842.99" width="11.21" height="6.58" rx="1.69" ry="1.69"/>
    <rect class="cls-14" x="647.19" y="842.99" width="11.21" height="6.58" rx="1.69" ry="1.69"/>
    <rect class="cls-14" x="641.43" y="850.33" width="11.21" height="6.58" rx="1.69" ry="1.69"/>
    <rect class="cls-14" x="653.07" y="850.33" width="11.21" height="6.58" rx="1.69" ry="1.69"/>
    <rect class="cls-14" x="659.44" y="857.68" width="11.21" height="6.58" rx="1.69" ry="1.69"/>
    <rect class="cls-14" x="671.47" y="842.61" width="11.21" height="6.58" rx="1.69" ry="1.69"/>
    <rect class="cls-14" x="458.91" y="938.73" width="11.21" height="6.58" rx="1.69" ry="1.69"/>
    <rect class="cls-14" x="446.95" y="938.73" width="11.21" height="6.58" rx="1.69" ry="1.69"/>
    <rect class="cls-14" x="452.56" y="946.34" width="11.21" height="6.58" rx="1.69" ry="1.69"/>
    <rect class="cls-14" x="453.3" y="931.52" width="11.21" height="6.58" rx="1.69" ry="1.69"/>
    <rect class="cls-14" x="458.91" y="924.02" width="11.21" height="6.58" rx="1.69" ry="1.69"/>
    <rect class="cls-14" x="445.98" y="953.96" width="12.18" height="6.58" rx="1.69" ry="1.69"/>
    <rect class="cls-14" x="531.9" y="955.17" width="11.21" height="6.58" rx="1.69" ry="1.69"/>
    <rect class="cls-14" x="526.29" y="962.51" width="11.21" height="6.58" rx="1.69" ry="1.69"/>
    <rect class="cls-14" x="458.91" y="953.96" width="11.21" height="6.58" rx="1.69" ry="1.69"/>
    <rect class="cls-14" x="464.89" y="961.86" width="4.86" height="6.58" rx="1.69" ry="1.69"/>
    <rect class="cls-14" x="464.67" y="916.52" width="6.58" height="6.58" rx="1.69" ry="1.69"/>
    <rect class="cls-14" x="464.67" y="977.09" width="5.08" height="6.58" rx="1.69" ry="1.69"/>
    <rect class="cls-14" x="443.41" y="1007.89" width="7.73" height="6.58" rx="1.69" ry="1.69"/>
    <rect class="cls-14" x="441.5" y="1030.26" width="6.58" height="5.32" rx="1.69" ry="1.69"/>
    <rect class="cls-14" x="463.89" y="1008.52" width="6.58" height="5.32" rx="1.69" ry="1.69"/>
    <rect class="cls-14" x="464.67" y="1023.46" width="4.72" height="6.58" rx="1.69" ry="1.69"/>
    <rect class="cls-14" x="442.54" y="1023.68" width="8.6" height="6.58" rx="1.69" ry="1.69"/>
    <rect class="cls-14" x="443.41" y="992.32" width="6.58" height="6.58" rx="1.69" ry="1.69"/>
    <rect class="cls-14" x="444.79" y="977.09" width="7.32" height="6.58" rx="1.69" ry="1.69"/>
    <rect class="cls-14" x="445.53" y="961.86" width="6.58" height="6.58" rx="1.69" ry="1.69"/>
    <rect class="cls-14" x="445.98" y="945.93" width="6.58" height="6.58" rx="1.69" ry="1.69"/>
    <rect class="cls-14" x="463.77" y="945.94" width="6.58" height="6.58" rx="1.69" ry="1.69"/>
    <rect class="cls-14" x="464.89" y="931.52" width="4.86" height="6.58" rx="1.69" ry="1.69"/>
    <rect class="cls-14" x="452.93" y="961.86" width="11.21" height="6.58" rx="1.69" ry="1.69"/>
    <rect class="cls-14" x="458.53" y="969.47" width="11.21" height="6.58" rx="1.69" ry="1.69"/>
    <rect class="cls-14" x="452.93" y="977.09" width="11.21" height="6.58" rx="1.69" ry="1.69"/>
    <rect class="cls-14" x="445.53" y="969.47" width="12.24" height="6.58" rx="1.69" ry="1.69"/>
    <rect class="cls-14" x="456.75" y="984.7" width="13" height="6.58" rx="1.69" ry="1.69"/>
    <rect class="cls-14" x="444.79" y="984.7" width="11.21" height="6.58" rx="1.69" ry="1.69"/>
    <rect class="cls-14" x="450.39" y="992.32" width="11.21" height="6.58" rx="1.69" ry="1.69"/>
    <rect class="cls-14" x="443.41" y="999.93" width="12.59" height="6.58" rx="1.69" ry="1.69"/>
    <rect class="cls-14" x="456.75" y="999.93" width="13" height="6.58" rx="1.69" ry="1.69"/>
    <rect class="cls-14" x="462.35" y="991.84" width="7.99" height="6.58" rx="1.69" ry="1.69"/>
    <rect class="cls-14" x="452.16" y="1008.23" width="11.21" height="6.58" rx="1.69" ry="1.69"/>
    <rect class="cls-14" x="457.77" y="1015.85" width="11.21" height="6.58" rx="1.69" ry="1.69"/>
    <rect class="cls-14" x="452.16" y="1023.46" width="11.21" height="6.58" rx="1.69" ry="1.69"/>
    <rect class="cls-14" x="443.41" y="1015.85" width="13.34" height="6.58" rx="1.69" ry="1.69"/>
    <rect class="cls-14" x="508.55" y="969.86" width="11.21" height="6.58" rx="1.69" ry="1.69"/>
    <rect class="cls-14" x="448.65" y="1030.26" width="10.13" height="5.94" rx="1.69" ry="1.69"/>
    <rect class="cls-14" x="459.26" y="1030.26" width="10.13" height="5.94" rx="1.69" ry="1.69"/>
    <rect class="cls-14" x="520.19" y="969.86" width="11.21" height="6.58" rx="1.69" ry="1.69"/>
    <rect class="cls-14" x="526.56" y="977.2" width="11.21" height="6.58" rx="1.69" ry="1.69"/>
    <rect class="cls-14" x="538.59" y="962.13" width="11.21" height="6.58" rx="1.69" ry="1.69"/>
    <rect class="cls-14" x="966.35" y="989.28" width="11.21" height="6.58" rx="1.69" ry="1.69"/>
    <rect class="cls-14" x="978.44" y="989.28" width="11.21" height="6.58" rx="1.69" ry="1.69"/>
    <rect class="cls-14" x="972.83" y="981.93" width="11.21" height="6.58" rx="1.69" ry="1.69"/>
    <rect class="cls-14" x="984.04" y="981.93" width="11.21" height="6.58" rx="1.69" ry="1.69"/>
    <rect class="cls-14" x="995.68" y="981.93" width="11.21" height="6.58" rx="1.69" ry="1.69"/>
    <rect class="cls-14" x="1007.65" y="981.93" width="11.21" height="6.58" rx="1.69" ry="1.69"/>
    <rect class="cls-14" x="1002.05" y="989.28" width="11.21" height="6.58" rx="1.69" ry="1.69"/>
    <rect class="cls-14" x="990.07" y="989.28" width="11.21" height="6.58" rx="1.69" ry="1.69"/>
    <rect class="cls-14" x="961.01" y="996.62" width="11.21" height="6.58" rx="1.69" ry="1.69"/>
    <rect class="cls-14" x="966.62" y="1003.96" width="11.21" height="6.58" rx="1.69" ry="1.69"/>
    <rect class="cls-14" x="978.7" y="1003.96" width="11.21" height="6.58" rx="1.69" ry="1.69"/>
    <rect class="cls-14" x="973.1" y="996.62" width="11.21" height="6.58" rx="1.69" ry="1.69"/>
    <rect class="cls-14" x="984.31" y="996.62" width="11.21" height="6.58" rx="1.69" ry="1.69"/>
    <rect class="cls-14" x="995.94" y="996.62" width="11.21" height="6.58" rx="1.69" ry="1.69"/>
    <rect class="cls-14" x="1007.92" y="996.62" width="11.21" height="6.58" rx="1.69" ry="1.69"/>
    <rect class="cls-14" x="1002.31" y="1003.96" width="11.21" height="6.58" rx="1.69" ry="1.69"/>
    <rect class="cls-14" x="990.34" y="1003.96" width="11.21" height="6.58" rx="1.69" ry="1.69"/>
    <rect class="cls-14" x="959.51" y="1011.31" width="11.21" height="6.58" rx="1.69" ry="1.69"/>
    <rect class="cls-14" x="965.12" y="1018.65" width="11.21" height="6.58" rx="1.69" ry="1.69"/>
    <rect class="cls-14" x="977.21" y="1018.65" width="11.21" height="6.58" rx="1.69" ry="1.69"/>
    <rect class="cls-14" x="971.6" y="1011.31" width="11.21" height="6.58" rx="1.69" ry="1.69"/>
    <rect class="cls-14" x="982.81" y="1011.31" width="11.21" height="6.58" rx="1.69" ry="1.69"/>
    <rect class="cls-14" x="994.45" y="1011.31" width="11.21" height="6.58" rx="1.69" ry="1.69"/>
    <rect class="cls-14" x="1006.42" y="1011.31" width="11.21" height="6.58" rx="1.69" ry="1.69"/>
    <rect class="cls-14" x="1000.82" y="1018.65" width="11.21" height="6.58" rx="1.69" ry="1.69"/>
    <rect class="cls-14" x="988.84" y="1018.65" width="11.21" height="6.58" rx="1.69" ry="1.69"/>
    <rect class="cls-14" x="1023.1" y="968.52" width="11.21" height="6.58" rx="1.69" ry="1.69" transform="translate(118.02 -111.38) rotate(6.57)"/>
    <rect class="cls-14" x="1027.83" y="976.45" width="11.21" height="6.58" rx="1.69" ry="1.69" transform="translate(118.96 -111.87) rotate(6.57)"/>
    <rect class="cls-14" x="1039.83" y="977.84" width="11.21" height="6.58" rx="1.69" ry="1.69" transform="translate(119.2 -113.24) rotate(6.57)"/>
    <rect class="cls-14" x="1035.1" y="969.9" width="11.21" height="6.58" rx="1.69" ry="1.69" transform="translate(118.26 -112.75) rotate(6.57)"/>
    <rect class="cls-14" x="1046.24" y="971.19" width="11.21" height="6.58" rx="1.69" ry="1.69" transform="translate(118.48 -114.01) rotate(6.57)"/>
    <rect class="cls-14" x="1057.8" y="972.52" width="11.21" height="6.58" rx="1.69" ry="1.69" transform="translate(118.71 -115.33) rotate(6.57)"/>
    <rect class="cls-14" x="1069.7" y="973.89" width="11.21" height="6.58" rx="1.69" ry="1.69" transform="translate(118.94 -116.68) rotate(6.57)"/>
    <rect class="cls-14" x="1023.31" y="961.27" width="11.21" height="6.58" rx="1.69" ry="1.69" transform="translate(117.19 -111.45) rotate(6.57)"/>
    <rect class="cls-14" x="1015.79" y="975.07" width="11.21" height="6.58" rx="1.69" ry="1.69" transform="translate(118.72 -110.5) rotate(6.57)"/>
    <rect class="cls-14" x="1015.79" y="989.85" width="11.21" height="6.58" rx="1.69" ry="1.69" transform="translate(120.42 -110.4) rotate(6.57)"/>
    <rect class="cls-14" x="1014.11" y="1004.44" width="11.21" height="6.58" rx="1.69" ry="1.69" transform="translate(122.07 -110.12) rotate(6.57)"/>
    <rect class="cls-14" x="1012.03" y="1019.04" width="11.21" height="6.58" rx="1.69" ry="1.69" transform="translate(123.73 -109.78) rotate(6.57)"/>
    <rect class="cls-14" x="1035.32" y="962.66" width="11.21" height="6.58" rx="1.69" ry="1.69" transform="translate(117.43 -112.82) rotate(6.57)"/>
    <rect class="cls-14" x="1046.46" y="963.94" width="11.21" height="6.58" rx="1.69" ry="1.69" transform="translate(117.65 -114.09) rotate(6.57)"/>
    <rect class="cls-14" x="1058.02" y="965.27" width="11.21" height="6.58" rx="1.69" ry="1.69" transform="translate(117.88 -115.4) rotate(6.57)"/>
    <rect class="cls-14" x="1069.91" y="966.64" width="11.21" height="6.58" rx="1.69" ry="1.69" transform="translate(118.11 -116.75) rotate(6.57)"/>
    <rect class="cls-14" x="1063.29" y="980.54" width="11.21" height="6.58" rx="1.69" ry="1.69" transform="translate(119.66 -115.9) rotate(6.57)"/>
    <rect class="cls-14" x="1051.39" y="979.17" width="11.21" height="6.58" rx="1.69" ry="1.69" transform="translate(119.43 -114.55) rotate(6.57)"/>
    <rect class="cls-14" x="1022.9" y="983.28" width="11.21" height="6.58" rx="1.69" ry="1.69" transform="translate(119.71 -111.26) rotate(6.57)"/>
    <rect class="cls-14" x="1027.63" y="991.22" width="11.21" height="6.58" rx="1.69" ry="1.69" transform="translate(120.65 -111.75) rotate(6.57)"/>
    <rect class="cls-14" x="1039.64" y="992.6" width="11.21" height="6.58" rx="1.69" ry="1.69" transform="translate(120.89 -113.12) rotate(6.57)"/>
    <rect class="cls-14" x="1034.91" y="984.66" width="11.21" height="6.58" rx="1.69" ry="1.69" transform="translate(119.95 -112.63) rotate(6.57)"/>
    <rect class="cls-14" x="1046.05" y="985.95" width="11.21" height="6.58" rx="1.69" ry="1.69" transform="translate(120.17 -113.9) rotate(6.57)"/>
    <rect class="cls-14" x="1057.61" y="987.28" width="11.21" height="6.58" rx="1.69" ry="1.69" transform="translate(120.4 -115.21) rotate(6.57)"/>
    <rect class="cls-14" x="1069.5" y="988.65" width="11.21" height="6.58" rx="1.69" ry="1.69" transform="translate(120.63 -116.56) rotate(6.57)"/>
    <rect class="cls-14" x="1063.09" y="995.3" width="11.21" height="6.58" rx="1.69" ry="1.69" transform="translate(121.35 -115.78) rotate(6.57)"/>
    <rect class="cls-14" x="1075.55" y="981.57" width="4.5" height="6.58" rx="1.69" ry="1.69" transform="translate(119.84 -116.92) rotate(6.57)"/>
    <rect class="cls-14" x="1018.04" y="967.48" width="4.5" height="6.58" rx="1.69" ry="1.69"/>
    <rect class="cls-14" x="1018.87" y="982.47" width="4.22" height="6.58" rx="1.69" ry="1.69" transform="translate(119.57 -110.41) rotate(6.57)"/>
    <rect class="cls-14" x="1011.6" y="974.6" width="4.22" height="6.58" rx="1.69" ry="1.69"/>
    <rect class="cls-14" x="1074.93" y="996.33" width="5.3" height="6.58" rx="1.69" ry="1.69" transform="translate(121.53 -116.8) rotate(6.57)"/>
    <rect class="cls-14" x="1076.76" y="1018.29" width="4.22" height="6.58" rx="1.69" ry="1.69" transform="translate(124.05 -116.8) rotate(6.57)"/>
    <rect class="cls-14" x="1073.88" y="1011.06" width="6.58" height="6.58" rx="1.69" ry="1.69" transform="translate(123.21 -116.65) rotate(6.57)"/>
    <rect class="cls-14" x="1070.02" y="1025.6" width="10.13" height="6.58" rx="1.69" ry="1.69" transform="translate(124.86 -116.32) rotate(6.57)"/>
    <rect class="cls-14" x="1051.2" y="993.93" width="11.21" height="6.58" rx="1.69" ry="1.69" transform="translate(121.12 -114.43) rotate(6.57)"/>
    <rect class="cls-14" x="1021.49" y="997.9" width="11.21" height="6.58" rx="1.69" ry="1.69" transform="translate(121.37 -111) rotate(6.57)"/>
    <rect class="cls-14" x="1026.22" y="1005.84" width="11.21" height="6.58" rx="1.69" ry="1.69" transform="translate(122.31 -111.49) rotate(6.57)"/>
    <rect class="cls-14" x="1038.22" y="1007.22" width="11.21" height="6.58" rx="1.69" ry="1.69" transform="translate(122.55 -112.86) rotate(6.57)"/>
    <rect class="cls-14" x="1033.49" y="999.28" width="11.21" height="6.58" rx="1.69" ry="1.69" transform="translate(121.61 -112.37) rotate(6.57)"/>
    <rect class="cls-14" x="1044.63" y="1000.57" width="11.21" height="6.58" rx="1.69" ry="1.69" transform="translate(121.83 -113.64) rotate(6.57)"/>
    <rect class="cls-14" x="1056.19" y="1001.9" width="11.21" height="6.58" rx="1.69" ry="1.69" transform="translate(122.06 -114.95) rotate(6.57)"/>
    <rect class="cls-14" x="1068.09" y="1003.27" width="11.21" height="6.58" rx="1.69" ry="1.69" transform="translate(122.3 -116.3) rotate(6.57)"/>
    <rect class="cls-14" x="1061.68" y="1009.92" width="11.21" height="6.58" rx="1.69" ry="1.69" transform="translate(123.02 -115.53) rotate(6.57)"/>
    <rect class="cls-14" x="1049.78" y="1008.55" width="11.21" height="6.58" rx="1.69" ry="1.69" transform="translate(122.78 -114.17) rotate(6.57)"/>
    <rect class="cls-14" x="1018.32" y="1012.32" width="11.21" height="6.58" rx="1.69" ry="1.69" transform="translate(123 -110.55) rotate(6.57)"/>
    <rect class="cls-14" x="1023.05" y="1020.25" width="11.21" height="6.58" rx="1.69" ry="1.69" transform="translate(123.94 -111.04) rotate(6.57)"/>
    <rect class="cls-14" x="1035.05" y="1021.64" width="11.21" height="6.58" rx="1.69" ry="1.69" transform="translate(124.18 -112.4) rotate(6.57)"/>
    <rect class="cls-14" x="1030.33" y="1013.7" width="11.21" height="6.58" rx="1.69" ry="1.69" transform="translate(123.24 -111.91) rotate(6.57)"/>
    <rect class="cls-14" x="1041.46" y="1014.98" width="11.21" height="6.58" rx="1.69" ry="1.69" transform="translate(123.46 -113.18) rotate(6.57)"/>
    <rect class="cls-14" x="1053.02" y="1016.32" width="11.21" height="6.58" rx="1.69" ry="1.69" transform="translate(123.69 -114.49) rotate(6.57)"/>
    <rect class="cls-14" x="1064.92" y="1017.69" width="11.21" height="6.58" rx="1.69" ry="1.69" transform="translate(123.93 -115.85) rotate(6.57)"/>
    <rect class="cls-14" x="1058.51" y="1024.34" width="11.21" height="6.58" rx="1.69" ry="1.69" transform="translate(124.65 -115.07) rotate(6.57)"/>
    <rect class="cls-14" x="1046.61" y="1022.97" width="11.21" height="6.58" rx="1.69" ry="1.69" transform="translate(124.41 -113.72) rotate(6.57)"/>
    <rect class="cls-14" x="890.3" y="971.35" width="11.21" height="6.58" rx="1.69" ry="1.69" transform="translate(-188.5 215.28) rotate(-12.41)"/>
    <rect class="cls-14" x="878.77" y="973.89" width="11.21" height="6.58" rx="1.69" ry="1.69" transform="translate(-189.32 212.86) rotate(-12.41)"/>
    <rect class="cls-14" x="870.84" y="975.97" width="8.14" height="6.58" rx="1.69" ry="1.69" transform="translate(-189.98 210.87) rotate(-12.41)"/>
    <rect class="cls-14" x="871.04" y="998.67" width="5.34" height="6.58" rx="1.69" ry="1.69" transform="translate(-194.89 211.15) rotate(-12.41)"/>
    <rect class="cls-14" x="871.96" y="1013.73" width="5.34" height="6.58" rx="1.69" ry="1.69" transform="translate(-198.1 211.7) rotate(-12.41)"/>
    <rect class="cls-14" x="873.97" y="982.57" width="11.21" height="6.58" rx="1.69" ry="1.69" transform="translate(-191.29 212.03) rotate(-12.41)"/>
    <rect class="cls-14" x="884.82" y="980.19" width="11.21" height="6.58" rx="1.69" ry="1.69" transform="translate(-190.53 214.31) rotate(-12.41)"/>
    <rect class="cls-14" x="896.08" y="977.9" width="11.21" height="6.58" rx="1.69" ry="1.69" transform="translate(-189.77 216.67) rotate(-12.41)"/>
    <rect class="cls-14" x="870.75" y="990.44" width="11.21" height="6.58" rx="2.64" ry="2.64" transform="translate(-193.06 211.52) rotate(-12.41)"/>
    <rect class="cls-14" x="881.61" y="988.05" width="11.21" height="6.58" rx="2.04" ry="2.04" transform="translate(-192.29 213.8) rotate(-12.41)"/>
    <rect class="cls-14" x="892.87" y="985.76" width="11.21" height="6.58" rx="1.69" ry="1.69" transform="translate(-191.54 216.17) rotate(-12.41)"/>
    <rect class="cls-14" x="876.53" y="996.99" width="11.21" height="6.58" rx="1.69" ry="1.69" transform="translate(-194.33 212.92) rotate(-12.41)"/>
    <rect class="cls-14" x="887.93" y="994.3" width="11.21" height="6.58" rx="1.69" ry="1.69" transform="translate(-193.49 215.3) rotate(-12.41)"/>
    <rect class="cls-14" x="871.59" y="1005.53" width="11.21" height="6.58" rx="1.69" ry="1.69" transform="translate(-196.28 212.06) rotate(-12.41)"/>
    <rect class="cls-14" x="882.42" y="1003.14" width="11.21" height="6.58" rx="1.69" ry="1.69" transform="translate(-195.52 214.33) rotate(-12.41)"/>
    <rect class="cls-14" x="893.56" y="1000.69" width="11.21" height="6.58" rx="1.69" ry="1.69" transform="translate(-194.73 216.66) rotate(-12.41)"/>
    <rect class="cls-14" x="881.61" y="965.58" width="11.21" height="6.58" rx="1.69" ry="1.69" transform="translate(-187.46 213.28) rotate(-12.41)"/>
    <rect class="cls-14" x="870.75" y="967.97" width="11.21" height="6.58" rx="1.69" ry="1.69" transform="translate(-188.23 211) rotate(-12.41)"/>
    <rect class="cls-14" x="882.05" y="1026.54" width="11.21" height="6.58" rx="2.56" ry="2.56" transform="translate(-200.55 214.8) rotate(-12.41)"/>
    <path class="cls-14" d="M902.52,1027l-7.12,2.92c-1.11.32-1.82.02-2.14-1.09l-.65-2.27c-.32-1.11.33-2.29,1.44-2.61l6.72-1.93c1.11-.32,2.29.33,2.61,1.44l.4,1.39c.21.73-.08,1.54-.74,1.91-.3.17-.16.12-.53.23Z"/>
    <path class="cls-4" d="M468.37,818.79c10.04,1.35,12.45-3.99,13.76,7.95,1.31,11.94.34,2.87,3.1,19.18s2.11,7.4,6.87,21.36,4.42,11.26,3.84,21.25-5.51,6.43-3.5,22.23c2,15.8-1.14,19.2-2.03,25.72s-8.75,15.21-.71,16.9,10.64-13.25,10.25,6.73"/>
    <path class="cls-4" d="M532.17,809.73s.03-1.16-2.71,10.35c-2.75,11.51-6.69,4.64-2.9,16.59,3.79,11.94,6.64,4.03,2.03,17-4.61,12.97,3.27-1.44-3.59,11.39-6.86,12.83-17.44,9.98-6.92,14.87,10.52,4.89,6.22,10.94,9.92,13.93"/>
    <path class="cls-16" d="M574.04,1016.05v-73.2s-.88-14.49,10.58-25.75c11.46-11.26,27.17-9.93,27.17-9.93,0,0,3.79-.09,8.12,1.05,3.76.99,6.96,1.97,11.18,3.56,4.71,1.78,9.7,4.97,11.55,7.19,5.75,6.93,6.91,14.74,6.91,25.01,0,8.34-3.07,74.12-3.07,74.12l-72.43-2.06Z"/>
    <line class="cls-8" x1="611.18" y1="829.47" x2="611.38" y2="845.98"/>
    <line class="cls-8" x1="606.74" y1="835.47" x2="615.53" y2="835.47"/>
    <path class="cls-10" d="M699.04,920.34s.18-48.72,3.5-55.69c3.33-6.97,5.1-10.03,9.07-12.93s15.92-1.94,18.47.63c2.54,2.57,7.75,12.89,7.76,18.21s-1.94,49.62-1.94,49.62l-36.86.15Z"/>
    <path class="cls-10" d="M760.23,922.86s-.55-47.59,2.78-54.56c3.33-6.97,5.16-12.93,9.13-15.82,3.97-2.89,16.89-1.92,19.43.65,2.54,2.57,7.15,14.52,7.17,19.84s-1.65,49.74-1.65,49.74l-36.86.15Z"/>
    <path class="cls-10" d="M817.9,925.17s-1.02-46.92,2.31-53.89c3.33-6.97,5.24-11.5,9.21-14.39,3.97-2.89,16.75-1.92,19.29.65,2.54,2.57,8.01,14.69,8.03,20.01.02,5.32-3.45,47.48-3.45,47.48l-35.39.15Z"/>
    <path class="cls-6" d="M935.08,904.13s-1.56-50.57,2.42-58.71,7.4-14.65,12.16-18.02c4.76-3.37,18.61-2.11,21.66.89,3.05,3,10.19,14.49,10.22,20.7.03,6.21-2.27,55.01-2.27,55.01l-44.19.13Z"/>
    <path class="cls-10" d="M939.54,900.02s-1.02-46.92,2.31-53.89c3.33-6.97,5.24-11.5,9.21-14.39,3.97-2.89,16.75-1.92,19.29.65s8.01,14.69,8.03,20.01-3.45,47.48-3.45,47.48l-35.39.15Z"/>
    <path class="cls-11" d="M941.27,895.78s.17-33.2,1.61-38.18c1.43-4.98,2.26-8.21,3.91-10.3,1.64-2.1,6.81-1.57,7.8.22s3.06,10.3,3,14.07c-.06,3.76-1.99,33.66-1.99,33.66l-14.33.55Z"/>
    <path class="cls-11" d="M958.19,895.66s.17-33.1,1.6-38.07,2.26-8.18,3.91-10.27,6.81-1.56,7.8.22c1,1.78,3.06,10.27,3,14.02-.06,3.75-1.99,33.55-1.99,33.55l-14.33.54Z"/>
    <polygon class="cls-16" points="870.56 955.72 870.58 968.34 905.95 959.37 1011.76 958.65 1081.88 966.86 1080.66 956.96 1013.71 948.7 905.13 948.7 870.56 955.72"/>
    <polygon class="cls-16" points="947.77 118.35 947.75 118.27 864.89 477.5 839.45 500.94 868.73 488.59 929.01 488.59 979.89 505.62 1015.14 529.62 997.42 500.81 947.77 118.35"/>
    <polyline class="cls-6" points="979.89 505.62 929.01 488.59 868.73 488.59 929.01 488.59 927.95 504.37"/>
    <polygon class="cls-10" points="947.75 118.27 864.89 477.5 839.45 500.94 868.73 488.59 947.75 118.27"/>
    <polygon class="cls-9" points="929.01 488.59 927.95 504.37 974.95 520.55 979.89 505.62 929.01 488.59"/>
    <polygon class="cls-9" points="870.05 489.2 879.84 504.37 927.95 504.37 929.01 488.59 870.05 489.2"/>
    <polygon class="cls-9" points="979.89 505.62 974.95 520.55 1003.31 536.64 1015.13 529.54 979.89 505.62"/>
    <polygon class="cls-10" points="584.62 917.1 582.52 1016.29 591.86 1016.56 592.43 911.44 584.62 917.1"/>
    <path class="cls-10" d="M600.08,908.48l-1.64,108.07h13.35v-109.38s-7.04-.27-11.71,1.31Z"/>
    <polyline class="cls-10" points="619.9 908.22 631.09 911.79 627.05 1017.56 617.94 1017.56 619.9 908.22"/>
    <path class="cls-10" d="M637.62,915.02s6.93,5.87,8.21,8.71-5.4,93.82-5.4,93.82h-7.42l4.62-102.54Z"/>
    <circle class="cls-11" cx="719.4" cy="858.36" r="6.11"/>
    <polygon class="cls-13" points="713.45 859.73 704.23 877.25 701.63 904.48 701.63 920.09 716.72 920.04 718.44 876.31 713.45 859.73"/>
    <polygon class="cls-13" points="725.35 859.73 718.44 876.31 716.72 920.04 733.05 920.26 733.05 904.05 732.1 876.75 725.35 859.73"/>
    <polygon class="cls-10" points="713.29 865 706.22 877.87 716.72 877.87 713.29 865"/>
    <polygon class="cls-10" points="725.51 865 718.44 877.87 728.94 877.87 725.51 865"/>
    <polygon class="cls-10" points="706.22 880.53 715.16 880.53 715.16 888.19 705.35 888.19 706.22 880.53"/>
    <polygon class="cls-10" points="719.66 880.53 728.6 880.53 728.6 888.19 718.79 888.19 719.66 880.53"/>
    <polygon class="cls-10" points="718.95 890.85 727.89 890.85 727.89 898.52 718.09 898.52 718.95 890.85"/>
    <polygon class="cls-10" points="706 890.85 714.94 890.85 714.94 898.52 705.13 898.52 706 890.85"/>
    <polygon class="cls-10" points="704.97 901.18 713.91 901.18 713.91 908.85 704.11 908.85 704.97 901.18"/>
    <polygon class="cls-10" points="718.95 901.18 727.89 901.18 727.89 908.85 718.09 908.85 718.95 901.18"/>
    <polygon class="cls-10" points="718.95 911.19 727.89 911.19 727.89 918.85 718.09 918.85 718.95 911.19"/>
    <polygon class="cls-10" points="704.97 911.19 713.91 911.19 713.91 918.85 704.11 918.85 704.97 911.19"/>
    <path class="cls-6" d="M719.4,858.02s-2.05-1.31-2.03-2.39.33-2.16,1.24-2.2,1.84.15,1.97.89,0,1.56-.16,2.16-1.02,1.54-1.02,1.54"/>
    <path class="cls-16" d="M719,858.62s-1.92,1.49-2.93,1.11-1.92-1.04-1.65-1.91.76-1.69,1.5-1.56,1.47.53,1.98.87,1.1,1.48,1.1,1.48"/>
    <path class="cls-16" d="M719.67,858.86s2.09-.25,2.74.5,1.14,1.67.6,2.2-1.23.93-1.77.49-.97-1.07-1.25-1.57-.32-1.63-.32-1.63"/>
    <path class="cls-13" d="M719,859.15s1.23,1.7.89,2.64-.91,1.8-1.64,1.59-1.41-.63-1.29-1.32c.12-.68.47-1.37.77-1.85s1.27-1.07,1.27-1.07"/>
    <path class="cls-13" d="M720.12,858.12s.83-1.93,1.81-2.12,2.01-.15,2.21.59c.19.74.18,1.53-.47,1.78s-1.42.3-1.98.29-1.57-.54-1.57-.54"/>
    <circle class="cls-11" cx="781.52" cy="858.91" r="6.11"/>
    <polygon class="cls-13" points="775.57 860.28 766.35 877.79 763.76 905.02 763.76 920.64 778.85 920.58 780.57 876.86 775.57 860.28"/>
    <polygon class="cls-13" points="787.48 860.28 780.57 876.86 778.85 920.58 795.18 920.8 795.18 904.59 794.23 877.29 787.48 860.28"/>
    <polygon class="cls-10" points="775.41 865.54 768.34 878.41 778.85 878.41 775.41 865.54"/>
    <polygon class="cls-10" points="787.64 865.54 780.57 878.41 791.07 878.41 787.64 865.54"/>
    <polygon class="cls-10" points="768.34 881.07 777.28 881.07 777.28 888.74 767.48 888.74 768.34 881.07"/>
    <polygon class="cls-10" points="781.78 881.07 790.72 881.07 790.72 888.74 780.92 888.74 781.78 881.07"/>
    <polygon class="cls-10" points="781.08 891.4 790.02 891.4 790.02 899.06 780.21 899.06 781.08 891.4"/>
    <polygon class="cls-10" points="768.12 891.4 777.06 891.4 777.06 899.06 767.26 899.06 768.12 891.4"/>
    <polygon class="cls-10" points="767.1 901.72 776.04 901.72 776.04 909.39 766.23 909.39 767.1 901.72"/>
    <polygon class="cls-10" points="781.08 901.72 790.02 901.72 790.02 909.39 780.21 909.39 781.08 901.72"/>
    <polygon class="cls-10" points="781.08 911.73 790.02 911.73 790.02 919.4 780.21 919.4 781.08 911.73"/>
    <polygon class="cls-10" points="767.1 911.73 776.04 911.73 776.04 919.4 766.23 919.4 767.1 911.73"/>
    <path class="cls-6" d="M781.52,858.57s-2.05-1.31-2.03-2.39c.02-1.08.33-2.16,1.24-2.2s1.84.15,1.97.89,0,1.56-.16,2.16c-.15.59-1.02,1.54-1.02,1.54"/>
    <path class="cls-16" d="M781.12,859.16s-1.92,1.49-2.93,1.11-1.92-1.04-1.65-1.91c.27-.87.76-1.69,1.5-1.56s1.47.53,1.98.87,1.1,1.48,1.1,1.48"/>
    <path class="cls-16" d="M781.8,859.4s2.09-.25,2.74.5c.66.75,1.14,1.67.6,2.2s-1.23.93-1.77.49-.97-1.07-1.25-1.57-.32-1.63-.32-1.63"/>
    <path class="cls-13" d="M781.12,859.69s1.23,1.7.89,2.64-.91,1.8-1.64,1.59-1.41-.63-1.29-1.32.47-1.37.77-1.85,1.27-1.07,1.27-1.07"/>
    <path class="cls-13" d="M782.25,858.66s.83-1.93,1.81-2.12,2.01-.15,2.21.59c.19.74.18,1.53-.47,1.78s-1.42.3-1.98.29-1.57-.54-1.57-.54"/>
    <circle class="cls-11" cx="838.05" cy="862.02" r="6.11"/>
    <circle class="cls-11" cx="959.05" cy="840.94" r="7.99"/>
    <polygon class="cls-13" points="832.1 863.39 822.88 880.91 820.29 908.14 820.29 923.75 835.38 923.7 837.1 879.97 832.1 863.39"/>
    <polygon class="cls-13" points="844.01 863.39 837.1 879.97 835.38 923.7 851.71 923.91 851.71 907.71 850.76 880.4 844.01 863.39"/>
    <polygon class="cls-10" points="831.94 868.66 824.87 881.52 835.38 881.52 831.94 868.66"/>
    <polygon class="cls-10" points="844.17 868.66 837.1 881.52 847.6 881.52 844.17 868.66"/>
    <polygon class="cls-10" points="824.87 884.18 833.82 884.18 833.82 891.85 824.01 891.85 824.87 884.18"/>
    <polygon class="cls-10" points="838.31 884.18 847.25 884.18 847.25 891.85 837.45 891.85 838.31 884.18"/>
    <polygon class="cls-10" points="837.61 894.51 846.55 894.51 846.55 902.18 836.74 902.18 837.61 894.51"/>
    <polygon class="cls-10" points="824.65 894.51 833.6 894.51 833.6 902.18 823.79 902.18 824.65 894.51"/>
    <polygon class="cls-10" points="823.63 904.84 832.57 904.84 832.57 912.51 822.76 912.51 823.63 904.84"/>
    <polygon class="cls-10" points="837.61 904.84 846.55 904.84 846.55 912.51 836.74 912.51 837.61 904.84"/>
    <polygon class="cls-10" points="837.61 914.85 846.55 914.85 846.55 922.51 836.74 922.51 837.61 914.85"/>
    <polygon class="cls-10" points="823.63 914.85 832.57 914.85 832.57 922.51 822.76 922.51 823.63 914.85"/>
    <path class="cls-16" d="M838.05,861.68s-2.05-1.31-2.03-2.39.33-2.16,1.24-2.2,1.84.15,1.97.89c.13.74,0,1.56-.16,2.16s-1.02,1.54-1.02,1.54"/>
    <path class="cls-16" d="M959.2,839.21s-2.48-1.49-2.45-2.72c.03-1.23.4-2.46,1.49-2.5s2.22.17,2.38,1.01c.15.84,0,1.78-.19,2.46s-1.23,1.75-1.23,1.75"/>
    <path class="cls-13" d="M837.65,862.28s-1.92,1.49-2.93,1.11-1.92-1.04-1.65-1.91.76-1.69,1.5-1.56,1.47.53,1.98.87,1.1,1.48,1.1,1.48"/>
    <path class="cls-13" d="M958.18,839.85s-2.21,1.47-3.43,1.01-2.34-1.2-2.07-2.11c.27-.91.81-1.74,1.7-1.56s1.78.64,2.4,1.03,1.39,1.63,1.39,1.63"/>
    <path class="cls-13" d="M838.33,862.52s2.09-.25,2.74.5,1.14,1.67.6,2.2-1.23.93-1.77.49-.97-1.07-1.25-1.57-.32-1.63-.32-1.63"/>
    <path class="cls-13" d="M959.39,841.04s2.94-.36,3.86.7c.93,1.06,1.6,2.35.84,3.1-.76.76-1.74,1.31-2.5.7s-1.37-1.51-1.75-2.21c-.39-.7-.46-2.29-.46-2.29"/>
    <path class="cls-16" d="M837.65,862.81s1.23,1.7.89,2.64c-.34.94-.91,1.8-1.64,1.59s-1.41-.63-1.29-1.32.47-1.37.77-1.85,1.27-1.07,1.27-1.07"/>
    <path class="cls-16" d="M958,840.94s1.8,2.5,1.3,3.88c-.5,1.38-1.33,2.64-2.4,2.33s-2.07-.92-1.89-1.93.69-2.01,1.13-2.71c.44-.7,1.86-1.57,1.86-1.57"/>
    <path class="cls-6" d="M838.78,861.77s.83-1.93,1.81-2.12,2.01-.15,2.21.59.18,1.53-.47,1.78-1.42.3-1.98.29-1.57-.54-1.57-.54"/>
    <path class="cls-6" d="M959.72,839.86s1.01-2.51,2.23-2.75,2.51-.16,2.76.8c.25.96.25,2.01-.56,2.32s-1.76.37-2.47.35-1.96-.73-1.96-.73"/>
    <polygon class="cls-11" points="944.99 850.71 944.99 894.76 948.52 894.76 948.52 847.11 944.99 850.71"/>
    <polygon class="cls-3" points="951.39 847.11 951.39 894.76 953.56 894.76 953.56 847.11 951.39 846.44 951.39 847.11"/>
    <path class="cls-11" d="M958.89,895.53s.17-33.2,1.61-38.18,2.26-8.21,3.91-10.3c1.64-2.1,6.81-1.57,7.8.22s3.06,10.3,3,14.07c-.06,3.76-1.99,33.66-1.99,33.66l-14.33.55Z"/>
    <polygon class="cls-11" points="962.61 850.45 962.61 894.5 966.13 894.5 966.13 846.85 962.61 850.45"/>
    <polygon class="cls-3" points="969 846.85 969 894.5 971.18 894.5 971.18 846.85 969 846.18 969 846.85"/>
  </g>
</svg>